<?xml version="1.0" encoding="UTF-8"?>
<svg width="20px" height="20px" viewBox="0 0 20 20" version="1.1" xmlns="http://www.w3.org/2000/svg" xmlns:xlink="http://www.w3.org/1999/xlink">
    <title>tianjia_defult</title>
    <g id="页面-1" stroke="none" stroke-width="1" fill="none" fill-rule="evenodd">
        <g id="常用菜单" transform="translate(-1193.000000, -21.000000)" fill-rule="nonzero">
            <g transform="translate(431.000000, 15.000000)" id="tianjia_defult">
                <g transform="translate(762.000000, 6.000000)">
                    <rect id="矩形" fill-opacity="0.01" fill="#FFFFFF" x="0" y="0" width="20" height="20"></rect>
                    <path d="M7.526,7.41 L2.92824727,8.07706024 L2.84426092,8.09635143 C2.49730016,8.207316 2.37548237,8.66057714 2.65046606,8.92941265 L5.982,12.187 L5.18659459,16.7134118 L5.17871639,16.7940812 C5.17175544,17.1633619 5.57104275,17.4241881 5.91425694,17.2412176 L9.999,15.062 L14.0857116,17.2412382 L14.1598962,17.2737494 C14.508527,17.394952 14.8802679,17.0968916 14.8134438,16.7140303 L14.023,12.187 L17.349845,8.92910828 L17.406235,8.8640463 C17.6207909,8.57003794 17.4523302,8.13255355 17.072144,8.07711713 L12.498,7.41 L10.4473835,3.27771796 C10.2630788,2.90636449 9.73289455,2.90772656 9.55050029,3.28002209 L7.526,7.41 Z M10.002,4.63 L11.7190815,8.08944204 L11.7705813,8.1719471 C11.849072,8.27402644 11.9649176,8.34298761 12.094811,8.36192787 L15.929,8.92 L13.135665,11.6565617 L13.0729284,11.7313246 C12.999935,11.837941 12.9703056,11.9699807 12.9929562,12.0997547 L13.652,15.876 L10.2346884,14.0554818 L10.1434274,14.0178717 C10.0183003,13.980263 9.88189643,13.992807 9.76429306,14.0555024 L6.349,15.875 L7.01306041,12.1003732 L7.02050276,12.0028414 C7.01767024,11.8733791 6.96456252,11.74856 6.87014894,11.6562573 L4.072,8.921 L7.93171273,8.36198476 C8.09513564,8.33828741 8.23631888,8.23542975 8.30896971,8.08713791 L10.002,4.63 Z" id="路径" fill="#999999"></path>
                </g>
            </g>
        </g>
    </g>
</svg>