<?xml version="1.0" encoding="UTF-8"?>
<svg width="20px" height="20px" viewBox="0 0 20 20" version="1.1" xmlns="http://www.w3.org/2000/svg" xmlns:xlink="http://www.w3.org/1999/xlink">
    <title>tuodong_selected</title>
    <g id="页面-1" stroke="none" stroke-width="1" fill="none" fill-rule="evenodd">
        <g id="常用菜单" transform="translate(-1109.000000, -72.000000)" fill-rule="nonzero">
            <g id="tuodong_selected" transform="translate(1109.000000, 72.000000)">
                <rect id="矩形" fill-opacity="0.01" fill="#FFFFFF" x="0" y="0" width="20" height="20"></rect>
                <path d="M10.4375,4.25 C7.02023669,4.25 4.25,7.02023669 4.25,10.4375 C4.25,13.8547633 7.02023669,16.625 10.4375,16.625 C13.8547633,16.625 16.625,13.8547633 16.625,10.4375 C16.625,7.02023669 13.8547633,4.25 10.4375,4.25 Z M10.4375,5.25 C13.3024786,5.25 15.625,7.57252144 15.625,10.4375 C15.625,13.3024786 13.3024786,15.625 10.4375,15.625 C7.57252144,15.625 5.25,13.3024786 5.25,10.4375 C5.25,7.57252144 7.57252144,5.25 10.4375,5.25 Z" id="路径" fill="#1890FF"></path>
                <path d="M10.1601499,7.83397485 C10.300108,7.74066946 10.4753793,7.72511856 10.6271085,7.78732216 L10.7148501,7.83397485 L12.0273501,8.70897485 C12.2571144,8.86215108 12.3192014,9.17258575 12.1660251,9.4023501 C12.0298685,9.60658507 11.7694583,9.67833419 11.5518994,9.58417646 L11.4726499,9.54102515 L10.437,8.851 L9.4023501,9.54102515 C9.19811513,9.6771818 8.93014063,9.64325397 8.76553161,9.47266266 L8.70897485,9.4023501 C8.5728182,9.19811513 8.60674603,8.93014063 8.77733734,8.76553161 L8.8476499,8.70897485 L10.1601499,7.83397485 Z" id="路径" fill="#1890FF"></path>
                <path d="M11.4726499,11.3339749 C11.7024142,11.1807986 12.0128489,11.2428856 12.1660251,11.4726499 C12.3021818,11.6768849 12.268254,11.9448594 12.0976627,12.1094684 L12.0273501,12.1660251 L10.7148501,13.0410251 C10.574892,13.1343305 10.3996207,13.1498814 10.2478915,13.0876778 L10.1601499,13.0410251 L8.8476499,12.1660251 C8.61788556,12.0128489 8.55579862,11.7024142 8.70897485,11.4726499 C8.8451315,11.2684149 9.10554173,11.1966658 9.32310057,11.2908235 L9.4023501,11.3339749 L10.437,12.023 L11.4726499,11.3339749 Z" id="路径" fill="#1890FF"></path>
            </g>
        </g>
    </g>
</svg>