<?xml version="1.0" encoding="UTF-8"?>
<svg width="30px" height="20px" viewBox="0 0 30 20" version="1.1" xmlns="http://www.w3.org/2000/svg" xmlns:xlink="http://www.w3.org/1999/xlink">
    <title>diandiandian</title>
    <g id="页面-1" stroke="none" stroke-width="1" fill="none" fill-rule="evenodd">
        <g id="常用菜单" transform="translate(-1217.000000, -21.000000)">
            <g transform="translate(371.000000, 15.000000)" id="diandiandian">
                <g transform="translate(846.000000, 6.000000)">
                    <rect id="矩形" x="0" y="0" width="30" height="20"></rect>
                    <path d="M14.7142857,7 C16.37114,7 17.7142857,8.34314575 17.7142857,10 C17.7142857,11.6568542 16.37114,13 14.7142857,13 C13.0574315,13 11.7142857,11.6568542 11.7142857,10 C11.7142857,8.34314575 13.0574315,7 14.7142857,7 Z M22.8570855,8.94396295 C23.3875165,8.63772664 24.041055,8.63772664 24.571486,8.94396295 C25.101917,9.25019927 25.4286425,9.81613981 25.4285714,10.4285714 C25.4286425,11.041003 25.101917,11.6069436 24.571486,11.9131799 C24.041055,12.2194162 23.3875165,12.2194162 22.8570855,11.9131799 C22.3266544,11.6069436 21.999929,11.041003 22,10.4285714 C21.999929,9.81613981 22.3266544,9.25019927 22.8570855,8.94396295 Z M4.85708546,8.94396295 C5.38751648,8.63772664 6.04105495,8.63772664 6.57148597,8.94396295 C7.10191699,9.25019927 7.42864246,9.81613981 7.42857143,10.4285714 C7.42864246,11.041003 7.10191699,11.6069436 6.57148597,11.9131799 C6.04105495,12.2194162 5.38751648,12.2194162 4.85708546,11.9131799 C4.32665443,11.6069436 3.99992896,11.041003 4,10.4285714 C3.99992896,9.81613981 4.32665443,9.25019927 4.85708546,8.94396295 Z" id="形状结合" fill="#999999" fill-rule="nonzero"></path>
                </g>
            </g>
        </g>
    </g>
</svg>