<?xml version="1.0" encoding="UTF-8"?>
<svg width="76px" height="70px" viewBox="0 0 76 70" version="1.1" xmlns="http://www.w3.org/2000/svg" xmlns:xlink="http://www.w3.org/1999/xlink">
    <title>icon_jczgzrs</title>
    <defs>
        <linearGradient x1="0%" y1="71.2638942%" x2="100%" y2="33.4261557%" id="linearGradient-1">
            <stop stop-color="#0E1C33" offset="0%"></stop>
            <stop stop-color="#8FDFFE" offset="100%"></stop>
        </linearGradient>
        <linearGradient x1="100%" y1="59.6412731%" x2="0%" y2="38.7530475%" id="linearGradient-2">
            <stop stop-color="#0E1C33" offset="0%"></stop>
            <stop stop-color="#8FDFFE" offset="100%"></stop>
        </linearGradient>
        <linearGradient x1="0%" y1="0%" x2="0%" y2="100%" id="linearGradient-3">
            <stop stop-color="#1DB4FF" stop-opacity="0" offset="0%"></stop>
            <stop stop-color="#1DB4FF" offset="100%"></stop>
        </linearGradient>
        <linearGradient x1="0%" y1="0%" x2="0%" y2="100%" id="linearGradient-4">
            <stop stop-color="#0E1C33" offset="0%"></stop>
            <stop stop-color="#1DB4FF" offset="100%"></stop>
        </linearGradient>
        <linearGradient x1="0%" y1="0%" x2="0%" y2="100%" id="linearGradient-5">
            <stop stop-color="#0060FF" offset="0%"></stop>
            <stop stop-color="#8FDFFE" offset="100%"></stop>
        </linearGradient>
    </defs>
    <g id="图标" stroke="none" stroke-width="1" fill="none" fill-rule="evenodd">
        <g id="icon_jczgzrs">
            <polygon id="路径" fill="url(#linearGradient-1)" points="0 45.06784 38 59.43184 38 69.8489067 0 55.4838933"></polygon>
            <polygon id="路径" fill="url(#linearGradient-2)" points="38 59.4906133 76 45.01008 76 55.4261333 38 69.9066667"></polygon>
            <polygon id="路径" fill="#142747" points="0.0314133333 45.46304 38 31.4405333 75.9675733 45.46304 38 59.48656"></polygon>
            <polygon id="路径" fill="url(#linearGradient-3)" opacity="0.4" points="0 0.29216 76 0.29216 76 45.6972051 38.4086682 60.29216 0 45.6972051"></polygon>
            <path d="M57.354,40.457 C56.367,40.457 55.568,39.659 55.568,38.672 L55.568,37.602 C55.568,33.893 55.568,32.031 54.984,30.885 C54.468,29.871 53.657,29.06 52.644,28.546 C51.766,28.098 51.415,27.024 51.862,26.145 C52.308,25.264 53.38,24.917 54.263,25.362 C55.954,26.222 57.305,27.571 58.166,29.264 C59.139,31.173 59.139,33.321 59.139,37.602 L59.139,38.672 C59.139,39.659 58.341,40.457 57.354,40.457 Z M51.234,19.377 C50.922,19.594 50.566,19.698 50.214,19.698 C49.649,19.698 49.095,19.431 48.748,18.934 C48.185,18.125 48.383,17.012 49.191,16.448 C50.39,15.613 51.105,14.244 51.105,12.784 C51.105,11.325 50.39,9.955 49.191,9.12 C48.383,8.556 48.185,7.444 48.748,6.635 C49.309,5.825 50.421,5.624 51.234,6.191 C53.389,7.693 54.676,10.158 54.676,12.784 C54.676,15.41 53.389,17.875 51.234,19.377 Z M39.5,20.818 C35.07,20.818 31.466,17.214 31.466,12.784 C31.466,8.354 35.07,4.75 39.5,4.75 C43.93,4.75 47.534,8.354 47.534,12.784 C47.534,17.214 43.93,20.818 39.5,20.818 Z M30.06,16.611 C30.904,17.119 31.176,18.217 30.667,19.062 C30.332,19.618 29.742,19.926 29.136,19.926 C28.823,19.926 28.505,19.843 28.217,19.669 C25.816,18.223 24.324,15.585 24.324,12.784 C24.324,10.159 25.611,7.694 27.767,6.191 C28.575,5.628 29.69,5.827 30.252,6.635 C30.816,7.443 30.618,8.556 29.809,9.12 C28.611,9.956 27.895,11.326 27.895,12.784 C27.895,14.364 28.704,15.794 30.06,16.611 Z M27.137,26.145 C27.584,27.024 27.234,28.098 26.356,28.546 C25.342,29.062 24.533,29.871 24.016,30.885 C23.432,32.031 23.432,33.893 23.432,37.602 L23.432,38.672 C23.432,39.659 22.632,40.457 21.646,40.457 C20.66,40.457 19.861,39.659 19.861,38.672 L19.861,37.602 C19.861,33.321 19.861,31.173 20.834,29.264 C21.695,27.573 23.045,26.223 24.736,25.362 C25.619,24.921 26.691,25.266 27.137,26.145 Z M32.513,25.069 C34.154,24.389 35.941,24.389 39.5,24.389 C43.06,24.389 44.847,24.389 46.486,25.069 C48.688,25.981 50.406,27.698 51.318,29.9 C51.998,31.539 51.998,33.326 51.998,36.887 L51.998,38.672 C51.998,39.659 51.199,40.457 50.212,40.457 L28.788,40.457 C27.802,40.457 27.002,39.659 27.002,38.672 L27.002,36.887 C27.002,33.326 27.002,31.539 27.682,29.9 C28.593,27.698 30.309,25.983 32.513,25.069 Z" id="形状" fill="url(#linearGradient-4)" fill-rule="nonzero"></path>
            <path d="M55.354,42.457 C54.367,42.457 53.568,41.659 53.568,40.672 L53.568,39.602 C53.568,35.893 53.568,34.031 52.984,32.885 C52.468,31.871 51.658,31.06 50.644,30.546 C49.766,30.098 49.415,29.024 49.862,28.145 C50.308,27.264 51.38,26.917 52.263,27.362 C53.954,28.222 55.305,29.571 56.166,31.264 C57.139,33.173 57.139,35.321 57.139,39.602 L57.139,40.672 C57.139,41.659 56.34,42.457 55.354,42.457 Z M49.234,21.377 C48.922,21.594 48.566,21.698 48.214,21.698 C47.649,21.698 47.095,21.431 46.748,20.934 C46.185,20.125 46.383,19.012 47.19,18.448 C48.39,17.613 49.105,16.244 49.105,14.784 C49.105,13.325 48.39,11.955 47.19,11.12 C46.383,10.556 46.185,9.444 46.748,8.635 C47.309,7.825 48.421,7.624 49.234,8.191 C51.389,9.693 52.676,12.158 52.676,14.784 C52.676,17.41 51.389,19.875 49.234,21.377 Z M37.5,22.818 C33.07,22.818 29.466,19.214 29.466,14.784 C29.466,10.354 33.07,6.75 37.5,6.75 C41.93,6.75 45.534,10.354 45.534,14.784 C45.534,19.214 41.93,22.818 37.5,22.818 Z M28.06,18.611 C28.904,19.119 29.176,20.217 28.667,21.062 C28.333,21.618 27.742,21.926 27.136,21.926 C26.823,21.926 26.505,21.843 26.217,21.669 C23.816,20.223 22.324,17.585 22.324,14.784 C22.324,12.159 23.611,9.694 25.767,8.191 C26.575,7.628 27.69,7.827 28.252,8.635 C28.816,9.443 28.618,10.556 27.809,11.12 C26.611,11.956 25.895,13.326 25.895,14.784 C25.895,16.364 26.704,17.794 28.06,18.611 Z M25.137,28.145 C25.584,29.024 25.234,30.098 24.356,30.546 C23.342,31.062 22.533,31.871 22.016,32.885 C21.432,34.031 21.432,35.893 21.432,39.602 L21.432,40.672 C21.432,41.659 20.632,42.457 19.646,42.457 C18.66,42.457 17.861,41.659 17.861,40.672 L17.861,39.602 C17.861,35.321 17.861,33.173 18.834,31.264 C19.695,29.573 21.045,28.223 22.736,27.362 C23.619,26.921 24.691,27.266 25.137,28.145 Z M30.513,27.069 C32.154,26.389 33.94,26.389 37.5,26.389 C41.06,26.389 42.847,26.389 44.486,27.069 C46.688,27.981 48.406,29.698 49.318,31.9 C49.998,33.539 49.998,35.326 49.998,38.887 L49.998,40.672 C49.998,41.659 49.199,42.457 48.212,42.457 L26.788,42.457 C25.802,42.457 25.002,41.659 25.002,40.672 L25.002,38.887 C25.002,35.326 25.002,33.539 25.682,31.9 C26.593,29.698 28.309,27.983 30.513,27.069 Z" id="形状" fill="url(#linearGradient-5)" fill-rule="nonzero"></path>
        </g>
    </g>
</svg>
