<?xml version="1.0" encoding="UTF-8"?>
<svg width="76px" height="70px" viewBox="0 0 76 70" version="1.1" xmlns="http://www.w3.org/2000/svg" xmlns:xlink="http://www.w3.org/1999/xlink">
    <title>icon_sjrs</title>
    <defs>
        <linearGradient x1="0%" y1="71.2638942%" x2="100%" y2="33.4261557%" id="linearGradient-1">
            <stop stop-color="#0E1C33" offset="0%"></stop>
            <stop stop-color="#8FDFFE" offset="100%"></stop>
        </linearGradient>
        <linearGradient x1="100%" y1="59.6412731%" x2="0%" y2="38.7530475%" id="linearGradient-2">
            <stop stop-color="#0E1C33" offset="0%"></stop>
            <stop stop-color="#8FDFFE" offset="100%"></stop>
        </linearGradient>
        <linearGradient x1="0%" y1="0%" x2="0%" y2="100%" id="linearGradient-3">
            <stop stop-color="#1DB4FF" stop-opacity="0" offset="0%"></stop>
            <stop stop-color="#1DB4FF" offset="100%"></stop>
        </linearGradient>
        <linearGradient x1="0%" y1="0%" x2="0%" y2="100%" id="linearGradient-4">
            <stop stop-color="#0E1C33" offset="0%"></stop>
            <stop stop-color="#1DB4FF" offset="100%"></stop>
        </linearGradient>
        <linearGradient x1="0%" y1="0%" x2="0%" y2="100%" id="linearGradient-5">
            <stop stop-color="#0060FF" offset="0%"></stop>
            <stop stop-color="#8FDFFE" offset="100%"></stop>
        </linearGradient>
    </defs>
    <g id="页面-1" stroke="none" stroke-width="1" fill="none" fill-rule="evenodd">
        <g id="icon_sjrs">
            <polygon id="路径" fill="url(#linearGradient-1)" points="0 45.06784 38 59.43184 38 69.8489067 0 55.4838933"></polygon>
            <polygon id="路径" fill="url(#linearGradient-2)" points="38 59.4906133 76 45.01008 76 55.4261333 38 69.9066667"></polygon>
            <polygon id="路径" fill="#142747" points="0.0314133333 45.46304 38 31.4405333 75.9675733 45.46304 38 59.48656"></polygon>
            <polygon id="路径" fill="url(#linearGradient-3)" opacity="0.4" points="0 0.29216 76 0.29216 76 45.6972051 38.4086682 60.29216 0 45.6972051"></polygon>
            <path d="M30.092,17.122 C30.092,11.266 34.047,5.755 39.705,5.755 C42.554,5.755 44.806,7.21 46.28,9.354 C47.728,11.459 48.446,14.233 48.446,17.122 C48.446,18.915 47.704,20.57 46.929,21.88 C46.276,22.982 45.494,23.996 44.913,24.756 L44.597,25.171 C44.523,25.264 44.459,25.363 44.404,25.469 L44.445,25.507 C44.483,25.533 44.645,25.644 45.073,25.849 C45.365,25.993 45.684,26.136 46.056,26.304 L46.884,26.682 C48.344,27.357 50.223,28.291 52.116,29.713 C53.069,30.428 53.659,31.535 54.008,32.485 C54.367,33.471 54.567,34.559 54.5630589,35.492 C54.555,37.199 53.755,38.502 52.568,39.395 C51.456,40.229 50.029,40.696 48.627,40.983 C46.115,41.5 43.056,41.55 40.566,41.59 L39.74,41.605 C36.896,41.657 33.221,41.668 30.225,41.063 C28.735,40.765 27.241,40.28 26.082,39.445 C24.848,38.557 23.974,37.24 23.974,35.483 C23.974,33.668 24.088,31.103 26.572,29.613 C28.812,28.267 30.61,27.368 31.925,26.71 L31.932,26.706 C32.459,26.448 32.98,26.179 33.495,25.899 C33.906,25.667 34.058,25.546 34.1,25.503 L34.133,25.469 C34.078,25.364 34.014,25.264 33.941,25.171 L33.624,24.756 C33.041,23.997 32.261,22.982 31.61,21.88 C30.833,20.57 30.092,18.915 30.092,17.122 L30.092,17.122 Z" id="路径" fill="url(#linearGradient-4)" fill-rule="nonzero"></path>
            <path d="M27.358,19.856 C27.358,14.001 31.313,8.489 36.971,8.489 C39.82,8.489 42.072,9.944 43.546,12.088 C44.994,14.194 45.711,16.967 45.711,19.856 C45.711,21.649 44.97,23.304 44.194,24.614 C43.542,25.716 42.76,26.73 42.179,27.491 L41.862,27.905 C41.788,27.998 41.725,28.097 41.67,28.203 L41.71,28.241 C41.748,28.267 41.911,28.378 42.339,28.584 C42.631,28.727 42.95,28.871 43.322,29.038 L44.15,29.416 C45.61,30.091 47.489,31.025 49.382,32.447 C50.335,33.163 50.925,34.269 51.273,35.219 C51.633,36.205 51.832,37.293 51.8290334,38.226 C51.821,39.933 51.021,41.236 49.834,42.129 C48.722,42.963 47.295,43.43 45.893,43.717 C43.381,44.234 40.322,44.284 37.832,44.324 L37.006,44.339 C34.162,44.391 30.487,44.402 27.49,43.798 C26.001,43.499 24.506,43.015 23.348,42.179 C22.114,41.291 21.24,39.974 21.24,38.217 C21.24,36.403 21.354,33.837 23.838,32.347 C26.078,31.001 27.876,30.102 29.191,29.445 L29.198,29.44 C29.725,29.183 30.246,28.914 30.76,28.633 C31.172,28.401 31.324,28.28 31.366,28.238 L31.399,28.203 C31.344,28.098 31.28,27.998 31.207,27.905 L30.89,27.491 C30.307,26.731 29.527,25.716 28.875,24.614 C28.099,23.304 27.358,21.649 27.358,19.856 L27.358,19.856 Z" id="路径" fill="url(#linearGradient-5)" fill-rule="nonzero"></path>
        </g>
    </g>
</svg>