<?xml version="1.0" encoding="UTF-8"?>
<svg width="143px" height="180px" viewBox="0 0 143 180" version="1.1" xmlns="http://www.w3.org/2000/svg" xmlns:xlink="http://www.w3.org/1999/xlink">
    <title>ckpmje_tu</title>
    <defs>
        <linearGradient x1="50%" y1="0%" x2="50%" y2="100%" id="linearGradient-1">
            <stop stop-color="#A0FAF8" offset="0%"></stop>
            <stop stop-color="#A0FAF8" stop-opacity="0" offset="100%"></stop>
        </linearGradient>
        <path d="M79.5,19 C85.023,19 89.5,23.477 89.5,29 C89.5,34.523 85.023,39 79.5,39 C73.977,39 69.5,34.523 69.5,29 C69.5,23.477 73.977,19 79.5,19 Z" id="path-2"></path>
        <filter x="-135.0%" y="-135.0%" width="370.0%" height="370.0%" filterUnits="objectBoundingBox" id="filter-3">
            <feMorphology radius="1" operator="dilate" in="SourceAlpha" result="shadowSpreadOuter1"></feMorphology>
            <feOffset dx="0" dy="0" in="shadowSpreadOuter1" result="shadowOffsetOuter1"></feOffset>
            <feGaussianBlur stdDeviation="8" in="shadowOffsetOuter1" result="shadowBlurOuter1"></feGaussianBlur>
            <feColorMatrix values="0 0 0 0 0.592156863   0 0 0 0 0.980392157   0 0 0 0 0.960784314  0 0 0 1 0" type="matrix" in="shadowBlurOuter1"></feColorMatrix>
        </filter>
        <path d="M115.5,78 C120.471,78 124.5,82.029 124.5,87 C124.5,91.971 120.471,96 115.5,96 C110.529,96 106.5,91.971 106.5,87 C106.5,82.029 110.529,78 115.5,78 Z" id="path-4"></path>
        <filter x="-150.0%" y="-150.0%" width="400.0%" height="400.0%" filterUnits="objectBoundingBox" id="filter-5">
            <feMorphology radius="1" operator="dilate" in="SourceAlpha" result="shadowSpreadOuter1"></feMorphology>
            <feOffset dx="0" dy="0" in="shadowSpreadOuter1" result="shadowOffsetOuter1"></feOffset>
            <feGaussianBlur stdDeviation="8" in="shadowOffsetOuter1" result="shadowBlurOuter1"></feGaussianBlur>
            <feColorMatrix values="0 0 0 0 0.592156863   0 0 0 0 0.980392157   0 0 0 0 0.960784314  0 0 0 1 0" type="matrix" in="shadowBlurOuter1"></feColorMatrix>
        </filter>
        <path d="M88.5,135 C92.918,135 96.5,138.582 96.5,143 C96.5,147.418 92.918,151 88.5,151 C84.082,151 80.5,147.418 80.5,143 C80.5,138.582 84.082,135 88.5,135 Z" id="path-6"></path>
        <filter x="-168.8%" y="-168.8%" width="437.5%" height="437.5%" filterUnits="objectBoundingBox" id="filter-7">
            <feMorphology radius="1" operator="dilate" in="SourceAlpha" result="shadowSpreadOuter1"></feMorphology>
            <feOffset dx="0" dy="0" in="shadowSpreadOuter1" result="shadowOffsetOuter1"></feOffset>
            <feGaussianBlur stdDeviation="8" in="shadowOffsetOuter1" result="shadowBlurOuter1"></feGaussianBlur>
            <feColorMatrix values="0 0 0 0 0.592156863   0 0 0 0 0.980392157   0 0 0 0 0.960784314  0 0 0 1 0" type="matrix" in="shadowBlurOuter1"></feColorMatrix>
        </filter>
        <linearGradient x1="0%" y1="0%" x2="0%" y2="100%" id="linearGradient-8">
            <stop stop-color="#0060FF" offset="0%"></stop>
            <stop stop-color="#8FDFFE" offset="100%"></stop>
        </linearGradient>
        <path d="M28.933,101.411 L28.933,104.418 L39.22,104.418 L39.22,101.411 L36.537,101.411 L36.537,91.151 L39.22,91.151 L39.22,88.144 L28.933,88.144 L28.933,91.151 L31.475,91.151 L31.475,101.411 L28.933,101.411 Z M15.961,101.411 L15.961,104.418 L26.248,104.418 L26.248,101.411 L23.567,101.411 L23.567,91.151 L26.248,91.151 L26.248,88.144 L15.961,88.144 L15.961,91.151 L18.503,91.151 L18.503,101.411 L15.961,101.411 Z M52.108,105.78 L15.894,105.78 L15.894,108.421 L14.193,108.421 L14.193,110.991 L54.375,110.991 L54.375,108.421 L52.108,108.421 L52.108,105.78 Z M56.336,85.513 L34.002,71.058 L11.664,85.513 L14.193,85.513 L14.193,85.491 L19.379,85.491 L19.379,85.596 L49.192,85.596 L49.192,85.491 L54.378,85.491 L54.378,85.513 L56.336,85.513 Z M34.015,84.005 C31.982,84.005 30.34,82.323 30.34,80.25 C30.34,78.177 31.982,76.493 34.015,76.493 C36.042,76.493 37.684,78.177 37.684,80.25 C37.684,82.323 36.042,84.005 34.015,84.005 Z M41.908,101.411 L41.908,104.418 L52.194,104.418 L52.194,101.411 L49.511,101.411 L49.511,91.151 L52.194,91.151 L52.194,88.144 L41.908,88.144 L41.908,91.151 L44.445,91.151 L44.445,101.411 L41.908,101.411 Z" id="path-9"></path>
        <filter x="-33.6%" y="-37.6%" width="167.2%" height="175.1%" filterUnits="objectBoundingBox" id="filter-10">
            <feOffset dx="0" dy="0" in="SourceAlpha" result="shadowOffsetOuter1"></feOffset>
            <feGaussianBlur stdDeviation="5" in="shadowOffsetOuter1" result="shadowBlurOuter1"></feGaussianBlur>
            <feColorMatrix values="0 0 0 0 0.341176471   0 0 0 0 0.490196078   0 0 0 0 0.925490196  0 0 0 0.5 0" type="matrix" in="shadowBlurOuter1"></feColorMatrix>
        </filter>
    </defs>
    <g id="页面-1" stroke="none" stroke-width="1" fill="none" fill-rule="evenodd">
        <g id="ckpmje_tu">
            <path d="M45.46,8.886 C90.217,8.886 126.5,45.168 126.5,89.926 C126.5,134.683 90.217,170.966 45.46,170.966" id="路径" stroke="#1C3EE4" stroke-dasharray="4,2"></path>
            <path d="M45.46,16.631 C85.939,16.631 118.755,49.446 118.755,89.926 C118.755,130.405 85.939,163.22 45.46,163.22 L45.1642228,163.218 L45.1642228,158.219373 C45.2627661,158.219791 45.3613586,158.22 45.46,158.22 C83.1777881,158.22 113.755,127.643364 113.755,89.926 C113.755,52.2077797 83.1779322,21.631 45.46,21.631 L45.1642228,21.633 L45.1643158,16.6315838 C45.2628315,16.6311947 45.361393,16.631 45.46,16.631 Z" id="形状结合" fill="url(#linearGradient-1)" fill-rule="nonzero"></path>
            <path d="M45.46,49.425 C67.828,49.425 85.96,67.558 85.96,89.926 C85.96,112.293 67.828,130.426 45.46,130.426" id="路径" stroke="#1C3EE4" stroke-dasharray="4,2"></path>
            <g id="路径">
                <use fill="black" fill-opacity="1" filter="url(#filter-3)" xlink:href="#path-2"></use>
                <use fill="#A0FAF8" fill-rule="evenodd" xlink:href="#path-2"></use>
            </g>
            <g id="路径">
                <use fill="black" fill-opacity="1" filter="url(#filter-5)" xlink:href="#path-4"></use>
                <use fill="#A0FAF8" fill-rule="evenodd" xlink:href="#path-4"></use>
            </g>
            <g id="路径">
                <use fill="black" fill-opacity="1" filter="url(#filter-7)" xlink:href="#path-6"></use>
                <use fill="#A0FAF8" fill-rule="evenodd" xlink:href="#path-6"></use>
            </g>
            <g id="形状" fill-rule="nonzero">
                <use fill="black" fill-opacity="1" filter="url(#filter-10)" xlink:href="#path-9"></use>
                <use fill="url(#linearGradient-8)" xlink:href="#path-9"></use>
            </g>
            <path d="M63.336,52.577 L63.336,50.82 L65.544,50.82 L65.544,44.046 L63.274,44.558 L63.274,42.747 L67.752,41.803 L67.752,50.82 L69.946,50.82 L69.946,52.577 L63.336,52.577 Z M57.518,48.885 L56.356,48.885 L56.356,52.577 L54.1,52.577 L54.1,41.988 L57.744,41.988 C60.378,41.988 61.695,43.105 61.695,45.338 C61.695,46.422 61.297,47.292 60.502,47.945 C59.707,48.599 58.712,48.913 57.518,48.885 Z M57.354,43.738 L56.356,43.738 L56.356,47.156 L57.334,47.156 C58.66,47.156 59.323,46.579 59.323,45.426 C59.323,44.301 58.667,43.738 57.354,43.738 Z M47.1,52.761 C45.583,52.761 44.35,52.264 43.402,51.268 C42.454,50.272 41.98,48.99 41.98,47.422 C41.98,45.764 42.464,44.414 43.433,43.372 C44.401,42.331 45.681,41.81 47.271,41.81 C48.784,41.81 50.002,42.314 50.925,43.321 C51.848,44.328 52.309,45.622 52.309,47.204 C52.309,48.854 51.829,50.192 50.87,51.22 C49.911,52.248 48.654,52.761 47.1,52.761 Z M49.226,44.726 C48.748,44.085 48.073,43.765 47.203,43.765 C46.319,43.765 45.622,44.093 45.114,44.75 C44.606,45.406 44.352,46.256 44.352,47.299 C44.352,48.329 44.6,49.171 45.097,49.825 C45.594,50.479 46.275,50.806 47.141,50.806 C48.025,50.806 48.713,50.493 49.206,49.866 C49.698,49.24 49.944,48.398 49.944,47.34 C49.944,46.238 49.705,45.366 49.226,44.726 Z M38.172,52.577 L35.91,52.577 L35.91,43.834 L32.895,43.834 L32.895,41.988 L41.194,41.988 L41.194,43.834 L38.172,43.834 L38.172,52.577 Z" id="形状" fill="#FFFFFF"></path>
            <path d="M97.622,88.708 L95.414,90.697 L95.414,90.738 L99.782,90.738 L99.782,92.577 L92.878,92.577 L92.878,90.84 L95.92,87.922 C96.557,87.311 97.004,86.798 97.259,86.383 C97.515,85.969 97.642,85.538 97.642,85.091 C97.642,84.084 97.102,83.581 96.022,83.581 C95.115,83.581 94.238,83.945 93.39,84.674 L93.39,82.713 C94.297,82.111 95.327,81.81 96.48,81.81 C97.524,81.81 98.351,82.076 98.961,82.607 C99.572,83.138 99.878,83.872 99.878,84.811 C99.878,86.051 99.126,87.35 97.622,88.708 Z M87.518,88.885 L86.356,88.885 L86.356,92.577 L84.1,92.577 L84.1,81.988 L87.744,81.988 C90.378,81.988 91.695,83.105 91.695,85.338 C91.695,86.422 91.297,87.292 90.502,87.945 C89.707,88.599 88.712,88.913 87.518,88.885 Z M87.354,83.738 L86.356,83.738 L86.356,87.156 L87.334,87.156 C88.66,87.156 89.323,86.579 89.323,85.426 C89.323,84.301 88.667,83.738 87.354,83.738 Z M77.1,92.761 C75.583,92.761 74.35,92.264 73.402,91.268 C72.454,90.272 71.98,88.99 71.98,87.422 C71.98,85.764 72.464,84.414 73.433,83.372 C74.401,82.331 75.681,81.81 77.271,81.81 C78.784,81.81 80.002,82.314 80.925,83.321 C81.848,84.328 82.309,85.622 82.309,87.204 C82.309,88.854 81.829,90.192 80.87,91.22 C79.911,92.248 78.654,92.761 77.1,92.761 Z M79.226,84.726 C78.748,84.085 78.073,83.765 77.203,83.765 C76.319,83.765 75.622,84.093 75.114,84.75 C74.606,85.406 74.352,86.256 74.352,87.299 C74.352,88.329 74.6,89.171 75.097,89.825 C75.594,90.479 76.275,90.806 77.141,90.806 C78.025,90.806 78.713,90.493 79.206,89.866 C79.698,89.24 79.944,88.398 79.944,87.34 C79.944,86.238 79.705,85.366 79.226,84.726 Z M68.172,92.577 L65.91,92.577 L65.91,83.834 L62.895,83.834 L62.895,81.988 L71.194,81.988 L71.194,83.834 L68.172,83.834 L68.172,92.577 Z" id="形状" fill="#FFFFFF"></path>
            <path d="M70.403,139.04 L70.403,139.074 C71.141,139.156 71.731,139.426 72.173,139.884 C72.615,140.342 72.836,140.899 72.836,141.555 C72.836,142.563 72.468,143.349 71.732,143.914 C70.996,144.479 70.015,144.761 68.79,144.761 C67.7,144.761 66.823,144.581 66.158,144.221 L66.158,142.273 C66.864,142.802 67.689,143.066 68.632,143.066 C69.229,143.066 69.703,142.934 70.054,142.67 C70.405,142.405 70.581,142.029 70.581,141.542 C70.581,141.04 70.372,140.658 69.955,140.393 C69.538,140.129 68.954,139.997 68.202,139.997 L67.258,139.997 L67.258,138.295 L68.127,138.295 C69.548,138.295 70.259,137.816 70.259,136.859 C70.259,135.957 69.715,135.506 68.626,135.506 C67.915,135.506 67.224,135.738 66.554,136.203 L66.554,134.378 C67.283,133.999 68.142,133.81 69.131,133.81 C70.134,133.81 70.947,134.042 71.572,134.504 C72.196,134.967 72.508,135.608 72.508,136.428 C72.508,137.814 71.807,138.684 70.403,139.04 Z M60.518,140.885 L59.356,140.885 L59.356,144.577 L57.1,144.577 L57.1,133.988 L60.744,133.988 C63.378,133.988 64.695,135.105 64.695,137.338 C64.695,138.422 64.297,139.292 63.502,139.945 C62.707,140.599 61.712,140.913 60.518,140.885 Z M60.354,135.738 L59.356,135.738 L59.356,139.156 L60.334,139.156 C61.66,139.156 62.323,138.579 62.323,137.426 C62.323,136.301 61.667,135.738 60.354,135.738 Z M50.1,144.761 C48.583,144.761 47.35,144.264 46.402,143.268 C45.454,142.272 44.98,140.99 44.98,139.422 C44.98,137.764 45.464,136.414 46.433,135.372 C47.401,134.331 48.681,133.81 50.271,133.81 C51.784,133.81 53.002,134.314 53.925,135.321 C54.848,136.328 55.309,137.622 55.309,139.204 C55.309,140.854 54.829,142.192 53.87,143.22 C52.911,144.248 51.654,144.761 50.1,144.761 Z M52.226,136.726 C51.748,136.085 51.073,135.765 50.203,135.765 C49.319,135.765 48.622,136.093 48.114,136.75 C47.606,137.406 47.352,138.256 47.352,139.299 C47.352,140.329 47.6,141.171 48.097,141.825 C48.594,142.479 49.275,142.806 50.141,142.806 C51.025,142.806 51.713,142.493 52.206,141.866 C52.698,141.24 52.944,140.398 52.944,139.34 C52.944,138.238 52.705,137.366 52.226,136.726 Z M41.172,144.577 L38.91,144.577 L38.91,135.834 L35.895,135.834 L35.895,133.988 L44.194,133.988 L44.194,135.834 L41.172,135.834 L41.172,144.577 Z" id="形状" fill="#FFFFFF"></path>
        </g>
    </g>
</svg>