<?xml version="1.0" encoding="UTF-8"?>
<svg width="24px" height="24px" viewBox="0 0 24 24" version="1.1" xmlns="http://www.w3.org/2000/svg" xmlns:xlink="http://www.w3.org/1999/xlink">
    <title>icon_khpm_jin</title>
    <g id="页面-1" stroke="none" stroke-width="1" fill="none" fill-rule="evenodd">
        <g id="icon_khpm_jin" fill-rule="nonzero">
            <path d="M0,7.75 L0.075,7.525 C0.3,6.775 1.125,6.25 2.025,6.55 C2.4,6.7 2.7,6.925 2.85,7.3 C3.15,7.825 3.075,8.575 2.7,9.025 C2.625,9.025 2.625,9.1 2.55,9.175 C3.675,9.85 4.8,10.6 5.85,11.2 C6.225,11.425 6.675,11.725 7.05,11.95 C7.2,12.1 7.425,12.025 7.5,11.875 L7.575,11.8 C8.85,9.475 10.125,7.15 11.4,4.675 C10.875,4.525 10.5,4 10.5,3.325 C10.5,2.875 10.65,2.5 10.95,2.125 C11.55,1.525 12.45,1.6 13.125,2.125 L13.2,2.2 C13.8,2.95 13.575,3.925 12.6,4.6 C12.9,5.2 13.2,5.875 13.575,6.4 C14.475,8.125 15.45,9.775 16.35,11.425 C16.575,11.8 16.725,11.875 17.025,11.65 C18.45,10.825 19.875,9.85 21.3,9.025 L21.525,8.875 C21.225,8.65 21.075,8.275 21,7.9 C20.925,7.075 21.6,6.325 22.35,6.25 C23.025,6.175 23.625,6.625 23.85,7.375 C23.925,7.6 24,7.675 24,7.75 L24,8.275 C23.775,9.025 23.25,9.55 22.425,9.55 C22.425,9.625 22.35,9.7 22.35,9.85 L19.8,18.55 C19.725,18.925 19.575,19 19.2,19 L4.875,19 C4.5,19 4.35,18.925 4.275,18.55 C3.525,16.225 2.85,13.9 2.25,11.5 C2.1,10.9 1.875,10.225 1.725,9.55 C1.125,9.55 0.6,9.25 0.3,8.8 C0.15,8.575 0.075,8.5 0,8.275 C0,8.35 0,7.75 0,7.75 Z M12.075,20.5 L18.825,20.5 C19.425,20.5 19.95,20.95 19.95,21.625 C19.95,22.15 19.575,22.75 19.05,22.825 L5.325,22.825 C4.875,22.825 4.425,22.525 4.275,22.075 C4.125,21.625 4.275,21.1 4.65,20.8 C4.875,20.65 5.1,20.575 5.4,20.575 C7.575,20.425 9.825,20.5 12.075,20.5 L12.075,20.5 Z" id="形状" fill="#FFF142"></path>
            <path d="M12,1.75 C12.225,1.75 12.675,1.825 13.05,2.2 L13.125,2.275 C13.725,3.025 13.5,4 12.525,4.675 C12.825,5.275 13.125,5.95 13.5,6.475 C14.4,8.2 15.375,9.925 16.275,11.575 C16.5,11.95 16.65,12.025 16.95,11.8 C18.45,10.975 19.8,10 21.225,9.175 L21.45,9.025 C21.15,8.8 21,8.425 20.925,8.05 C20.85,7.225 21.525,6.475 22.35,6.4 C23.025,6.325 23.625,6.775 23.925,7.525 C23.925,7.6 24,7.675 24,7.75 L24,8.275 C23.775,9.025 23.25,9.55 22.425,9.55 C22.425,9.625 22.35,9.7 22.35,9.85 L19.8,18.55 C19.725,18.925 19.575,19 19.2,19 L12,19 L12,1.75 L12,1.75 Z M12,20.5 L18.75,20.5 C19.35,20.5 19.875,20.95 19.875,21.625 C19.875,22.15 19.5,22.75 18.975,22.825 L12.075,22.825" id="形状_1_" fill="#FFC41F"></path>
        </g>
    </g>
</svg>