<?xml version="1.0" encoding="UTF-8"?>
<svg width="76px" height="76px" viewBox="0 0 76 76" version="1.1" xmlns="http://www.w3.org/2000/svg" xmlns:xlink="http://www.w3.org/1999/xlink">
    <title>icon_yhhx_yhzs</title>
    <defs>
        <linearGradient x1="0%" y1="25.7932301%" x2="97.03%" y2="3.10219725%" id="linearGradient-1">
            <stop stop-color="#0E1C33" offset="0%"></stop>
            <stop stop-color="#8FDFFE" offset="100%"></stop>
        </linearGradient>
        <linearGradient x1="52.992%" y1="82.343313%" x2="0%" y2="3.53639856%" id="linearGradient-2">
            <stop stop-color="#0E1C33" offset="0%"></stop>
            <stop stop-color="#8FDFFE" offset="100%"></stop>
        </linearGradient>
        <linearGradient x1="0%" y1="0%" x2="0%" y2="100%" id="linearGradient-3">
            <stop stop-color="#1DB4FF" stop-opacity="0" offset="0%"></stop>
            <stop stop-color="#1DB4FF" stop-opacity="0.29" offset="29%"></stop>
            <stop stop-color="#1DB4FF" offset="100%"></stop>
        </linearGradient>
        <linearGradient x1="0%" y1="0%" x2="0%" y2="100%" id="linearGradient-4">
            <stop stop-color="#0E1C33" offset="0%"></stop>
            <stop stop-color="#1DB4FF" offset="100%"></stop>
        </linearGradient>
        <linearGradient x1="0%" y1="0%" x2="0%" y2="100%" id="linearGradient-5">
            <stop stop-color="#0060FF" offset="0%"></stop>
            <stop stop-color="#8FDFFE" offset="100%"></stop>
        </linearGradient>
    </defs>
    <g id="页面-1" stroke="none" stroke-width="1" fill="none" fill-rule="evenodd">
        <g id="icon_yhhx_yhzs">
            <polygon id="路径" fill="url(#linearGradient-1)" points="0 52 38 65.9112656 38 76 0 62.087753"></polygon>
            <polygon id="路径" fill="url(#linearGradient-2)" points="38 65.9590541 76 52 76 62.0409459 38 76"></polygon>
            <polygon id="路径" fill="#142747" points="0.031 52 37.5 39.04 76 52 38.064 66.717"></polygon>
            <polygon id="路径" fill="url(#linearGradient-3)" opacity="0.4" points="0 0.454 76 9.47874123e-14 76 52 38.064 66.717 0.031 52"></polygon>
            <path d="M34.744,34.631 L34.744,37.621 L44.971,37.621 L44.971,34.631 L42.304,34.631 L42.304,24.431 L44.971,24.431 L44.971,21.441 L34.744,21.441 L34.744,24.431 L37.271,24.431 L37.271,34.631 L34.744,34.631 Z M21.847,34.631 L21.847,37.621 L32.074,37.621 L32.074,34.631 L29.409,34.631 L29.409,24.431 L32.074,24.431 L32.074,21.441 L21.847,21.441 L21.847,24.431 L24.374,24.431 L24.374,34.631 L21.847,34.631 Z M57.785,38.976 L21.781,38.976 L21.781,41.602 L20.089,41.602 L20.089,44.157 L60.039,44.157 L60.039,41.602 L57.785,41.602 L57.785,38.976 Z M61.989,18.825 L39.784,4.454 L17.574,18.825 L20.089,18.825 L20.089,18.803 L25.245,18.803 L25.245,18.908 L54.886,18.908 L54.886,18.803 L60.042,18.803 L60.042,18.825 L61.989,18.825 Z M39.796,17.327 C37.775,17.327 36.143,15.654 36.143,13.593 C36.143,11.532 37.775,9.858 39.796,9.858 C41.812,9.858 43.444,11.532 43.444,13.593 C43.444,15.654 41.812,17.327 39.796,17.327 Z M47.643,34.631 L47.643,37.621 L57.871,37.621 L57.871,34.631 L55.203,34.631 L55.203,24.431 L57.871,24.431 L57.871,21.441 L47.643,21.441 L47.643,24.431 L50.166,24.431 L50.166,34.631 L47.643,34.631 Z" id="形状" fill="url(#linearGradient-4)" fill-rule="nonzero"></path>
            <path d="M32.744,36.631 L32.744,39.621 L42.971,39.621 L42.971,36.631 L40.304,36.631 L40.304,26.431 L42.971,26.431 L42.971,23.441 L32.744,23.441 L32.744,26.431 L35.271,26.431 L35.271,36.631 L32.744,36.631 Z M19.847,36.631 L19.847,39.621 L30.074,39.621 L30.074,36.631 L27.409,36.631 L27.409,26.431 L30.074,26.431 L30.074,23.441 L19.847,23.441 L19.847,26.431 L22.374,26.431 L22.374,36.631 L19.847,36.631 Z M55.785,40.976 L19.781,40.976 L19.781,43.602 L18.089,43.602 L18.089,46.157 L58.039,46.157 L58.039,43.602 L55.785,43.602 L55.785,40.976 Z M59.989,20.825 L37.784,6.454 L15.574,20.825 L18.089,20.825 L18.089,20.803 L23.245,20.803 L23.245,20.908 L52.886,20.908 L52.886,20.803 L58.042,20.803 L58.042,20.825 L59.989,20.825 Z M37.796,19.327 C35.775,19.327 34.143,17.654 34.143,15.593 C34.143,13.532 35.775,11.858 37.796,11.858 C39.812,11.858 41.444,13.532 41.444,15.593 C41.444,17.654 39.812,19.327 37.796,19.327 Z M45.644,36.631 L45.644,39.621 L55.871,39.621 L55.871,36.631 L53.203,36.631 L53.203,26.431 L55.871,26.431 L55.871,23.441 L45.644,23.441 L45.644,26.431 L48.166,26.431 L48.166,36.631 L45.644,36.631 Z" id="形状" fill="url(#linearGradient-5)" fill-rule="nonzero"></path>
        </g>
    </g>
</svg>