<?xml version="1.0" encoding="UTF-8"?>
<svg width="24px" height="24px" viewBox="0 0 24 24" version="1.1" xmlns="http://www.w3.org/2000/svg" xmlns:xlink="http://www.w3.org/1999/xlink">
    <title>icon_khpm_5</title>
    <g id="页面-1" stroke="none" stroke-width="1" fill="none" fill-rule="evenodd">
        <g id="icon_khpm_5">
            <path d="M12,2 C17.523,2 22,6.477 22,12 L22,12 C22,17.523 17.523,22 12,22 C6.477,22 2,17.523 2,12 L2,12 C2,6.477 6.477,2 12,2 Z" id="路径" fill="#1C3DA9"></path>
            <path d="M15.723,8.073 L9.787,8.073 L9.483,11.705 C10.208,10.852 11.227,10.457 12.539,10.521 C15.045,10.67 16.315,11.961 16.347,14.393 C16.293,17.124 14.837,18.51 11.979,18.553 C9.557,18.51 8.267,17.683 8.107,16.073 C8.075,15.284 8.448,14.889 9.227,14.889 C9.909,14.9 10.304,15.252 10.411,15.945 C10.613,17.225 11.136,17.843 11.979,17.801 C13.259,17.737 13.925,16.702 13.979,14.697 C14,12.585 13.312,11.524 11.915,11.513 C10.891,11.502 9.995,12.105 9.227,13.321 L8.539,13.017 L9.099,5.769 L15.723,5.769 L15.723,8.073 Z" id="路径" fill="#FFFFFF"></path>
        </g>
    </g>
</svg>