<?xml version="1.0" encoding="UTF-8"?>
<svg width="24px" height="24px" viewBox="0 0 24 24" version="1.1" xmlns="http://www.w3.org/2000/svg" xmlns:xlink="http://www.w3.org/1999/xlink">
    <title>icon_khpm_4</title>
    <g id="页面-1" stroke="none" stroke-width="1" fill="none" fill-rule="evenodd">
        <g id="icon_khpm_4">
            <path d="M12,2 C17.523,2 22,6.477 22,12 L22,12 C22,17.523 17.523,22 12,22 C6.477,22 2,17.523 2,12 L2,12 C2,6.477 6.477,2 12,2 Z" id="路径" fill="#1C3DA9"></path>
            <path d="M10.035,17.577 C11.08,17.609 11.581,17.086 11.539,16.009 L11.539,15.081 L6.483,15.081 L6.483,14.137 L12.035,5.705 L13.731,5.705 L13.731,14.137 L15.475,14.137 L15.475,15.081 L13.731,15.081 L13.731,16.009 C13.677,17.076 14.195,17.598 15.283,17.577 L15.283,18.297 L10.035,18.297 L10.035,17.577 Z M9.027,11.801 C8.28,12.985 7.784,13.764 7.539,14.137 L11.539,14.137 L11.539,7.945 C11.112,8.542 10.275,9.828 9.027,11.801 L9.027,11.801 Z" id="形状" fill="#FFFFFF"></path>
        </g>
    </g>
</svg>