<?xml version="1.0" encoding="UTF-8"?>
<svg width="477px" height="316px" viewBox="0 0 477 316" version="1.1" xmlns="http://www.w3.org/2000/svg" xmlns:xlink="http://www.w3.org/1999/xlink">
    <title>yhhx_kuang_zuo3</title>
    <defs>
        <linearGradient x1="0%" y1="0%" x2="100%" y2="0%" id="linearGradient-1">
            <stop stop-color="#030E6A" stop-opacity="0.8" offset="0%"></stop>
            <stop stop-color="#030E6A" stop-opacity="0" offset="100%"></stop>
        </linearGradient>
        <linearGradient x1="50%" y1="0%" x2="50%" y2="100%" id="linearGradient-2">
            <stop stop-color="#031270" offset="0%"></stop>
            <stop stop-color="#031270" stop-opacity="0.584380463" offset="40.8134834%"></stop>
            <stop stop-color="#031270" offset="100%"></stop>
        </linearGradient>
        <linearGradient x1="19.6284089%" y1="28.0560069%" x2="28.9870627%" y2="71.9439931%" id="linearGradient-3">
            <stop stop-color="#2845FB" offset="0%"></stop>
            <stop stop-color="#2845FB" stop-opacity="0.0366586538" offset="22.8845276%"></stop>
            <stop stop-color="#2845FB" offset="50.2340994%"></stop>
            <stop stop-color="#2845FB" stop-opacity="0" offset="100%"></stop>
        </linearGradient>
        <linearGradient x1="100%" y1="72.4361727%" x2="0%" y2="72.4361727%" id="linearGradient-4">
            <stop stop-color="#0A54FF" stop-opacity="0" offset="0%"></stop>
            <stop stop-color="#0A54FF" offset="100%"></stop>
        </linearGradient>
        <linearGradient x1="0%" y1="0%" x2="100%" y2="0%" id="linearGradient-5">
            <stop stop-color="#4BAAE4" stop-opacity="0" offset="0%"></stop>
            <stop stop-color="#4BAAE4" offset="12.7349213%"></stop>
            <stop stop-color="#005174" stop-opacity="0" offset="100%"></stop>
        </linearGradient>
        <linearGradient x1="0%" y1="0%" x2="100%" y2="0%" id="linearGradient-6">
            <stop stop-color="#4BAAE4" stop-opacity="0" offset="0%"></stop>
            <stop stop-color="#4BAAE4" offset="12.7349213%"></stop>
            <stop stop-color="#005174" stop-opacity="0" offset="100%"></stop>
        </linearGradient>
        <linearGradient x1="0%" y1="0%" x2="99.939%" y2="3.49%" id="linearGradient-7">
            <stop stop-color="#00C0FF" offset="0%"></stop>
            <stop stop-color="#43F0FF" offset="49%"></stop>
            <stop stop-color="#00C0FF" offset="100%"></stop>
        </linearGradient>
    </defs>
    <g id="页面-1" stroke="none" stroke-width="1" fill="none" fill-rule="evenodd">
        <g id="yhhx_kuang_zuo3">
            <polygon id="路径" fill="url(#linearGradient-1)" points="252 0 0 0 0 32 279 32"></polygon>
            <polygon id="路径" fill="url(#linearGradient-2)" opacity="0.302" points="253.13219 0.134990042 279.289771 31.5596718 477 31.0527092 477 316 0 316 0 0"></polygon>
            <path d="M0.5,0.500268707 L252.896823,0.635873617 L279.05501,32.2516072 L476.5,31.7422914 L476.5,315.503 L0.5,315.503 L0.5,0.500268707 Z" id="路径" stroke="url(#linearGradient-3)"></path>
            <polygon id="路径" fill="url(#linearGradient-4)" opacity="0.302" points="0 0 252.544 0 279.544 32 0 32"></polygon>
            <path d="M24.275,7.635 L29.784,7.635 C32.067,7.635 33.917,9.466 33.917,11.725 L25.644,23.901 C24.566,24.843 22.419,26.729 20.142,26.7240099 L14.632,26.7240099 C12.35,26.7240099 10.5,24.892 10.5,22.633 L18.765,10.362 C20.853,8.295 21.448,7.635 24.275,7.635 Z" id="路径" fill="#00D4E8"></path>
            <path d="M31.162,4.908 L36.672,4.908 C38.954,4.908 40.804,6.739 40.804,8.998 L32.531,21.174 C31.453,22.116 29.306,24.002 27.03,23.9970099 L21.52,23.9970099 C19.238,23.9970099 17.387,22.165 17.387,19.906 L25.652,7.635 C27.741,5.568 28.335,4.908 31.162,4.908 Z" id="路径" fill="#2845FB" opacity="0.502"></path>
            <polyline id="路径" stroke="url(#linearGradient-5)" points="430.5 26.5 297.5 26.5 283.5 10.5"></polyline>
            <polyline id="路径" stroke="url(#linearGradient-6)" opacity="0.4" points="434.709 19.479 301.01 19.479 288.5 4.5"></polyline>
            <polygon id="路径" fill="#1050D3" opacity="0.2" points="467.237 12.479 462.422 12.479 470.043 23.099 474.858 23.099"></polygon>
            <polygon id="路径" fill="#2563E1" opacity="0.502" points="457.002 12.479 452.187 12.479 459.807 23.099 464.622 23.099"></polygon>
            <polygon id="路径" fill="#4680F5" points="446.767 12.479 441.952 12.479 449.572 23.099 454.387 23.099"></polygon>
            <path d="M137.857,25.914 L135.15,25.914 L135.15,24.946 L126.899,24.946 L126.899,25.914 L124.281,25.914 L124.281,19.093 C123.203,19.467 122.124,19.753 121.024,20.017 C120.782,19.313 120.166,18.191 119.682,17.597 C122.19,17.113 124.699,16.299 126.943,15.199 C126.085,14.429 125.073,13.592 124.237,12.954 L126.261,11.458 C127.229,12.14 128.417,13.02 129.385,13.879 C131.168,12.756 132.708,11.414 133.874,9.896 L126.833,9.896 C125.447,11.084 123.819,12.206 121.904,13.174 C121.508,12.536 120.694,11.546 120.1,11.084 C123.687,9.522 126.107,7.322 127.449,5.253 L130.376,5.869 C129.98,6.419 129.584,6.97 129.143,7.52 L135.568,7.52 L136.008,7.388 L137.813,8.466 C136.294,11.634 133.786,14.143 130.75,16.057 L137.857,16.057 L137.857,25.914 Z M135.15,18.433 L126.899,18.433 L126.899,22.592 L135.15,22.592 L135.15,18.433 Z M114.999,25.914 L112.49,25.914 L112.49,5.605 L114.999,5.605 L114.999,8.84 L118.013,8.84 L118.013,11.128 L114.999,11.128 L114.999,13.504 L117.837,13.504 L117.837,15.771 L114.999,15.771 L114.999,18.191 L118.277,18.191 L118.277,20.546 L114.999,20.546 L114.999,25.914 Z M108.486,20.501 L105.163,20.501 L105.163,18.147 L108.486,18.147 L108.486,15.771 L105.713,15.771 L105.713,13.504 L108.486,13.504 L108.486,11.128 L105.647,11.128 L105.647,8.84 L108.486,8.84 L108.486,5.627 L110.994,5.627 L110.994,25.87 L108.486,25.87 L108.486,20.501 Z M104.921,14.759 L105.229,17.157 C104.481,17.355 103.733,17.575 102.963,17.773 L102.963,22.988 C102.963,24.22 102.743,24.836 102.039,25.232 C101.357,25.628 100.366,25.694 98.958,25.694 C98.87,25.034 98.54,24.022 98.232,23.362 C99.002,23.384 99.816,23.384 100.08,23.384 C100.366,23.384 100.454,23.296 100.454,23.01 L100.454,18.433 C99.618,18.653 98.826,18.873 98.078,19.049 L97.682,16.497 C98.474,16.343 99.42,16.123 100.454,15.881 L100.454,11.964 L97.968,11.964 L97.968,9.544 L100.454,9.544 L100.454,5.385 L102.963,5.385 L102.963,9.544 L104.943,9.544 L104.943,11.964 L102.963,11.964 L102.963,15.265 L104.921,14.759 Z M90.952,22.394 C88.906,23.89 86.552,25.122 83.867,25.936 C83.537,25.32 82.811,24.286 82.327,23.714 C87.498,22.306 91.634,19.269 93.417,15.793 L96.123,16.761 C95.243,18.235 94.121,19.599 92.823,20.854 C94.143,21.888 95.617,23.142 96.453,24.022 L94.429,25.716 C93.703,24.814 92.294,23.494 90.952,22.394 Z M88.026,13.592 L90.952,13.46 C91.392,12.844 91.81,12.206 92.118,11.59 L94.605,12.426 C92.537,15.991 89.06,19.181 84.901,21.052 C84.571,20.479 83.911,19.533 83.449,19.049 C85.474,18.235 87.344,17.047 88.862,15.683 C85.562,15.925 84.835,16.057 84.373,16.255 C84.285,15.639 83.933,14.429 83.735,13.879 C84.263,13.769 85.055,13.592 85.474,13.152 C85.826,12.756 86.662,11.436 87.344,10.336 L83.691,10.336 L83.691,7.96 L88.84,7.96 C88.664,7.278 88.378,6.529 88.07,5.891 L90.534,5.143 C91.018,6.023 91.48,7.124 91.678,7.96 L96.145,7.96 L96.145,10.336 L90.094,10.336 C89.434,11.392 88.708,12.58 88.026,13.592 Z M81.161,12.58 C81.777,13.394 83.339,15.881 83.713,16.497 L82.195,18.257 C81.975,17.641 81.579,16.783 81.161,15.925 L81.161,25.892 L78.653,25.892 L78.653,17.795 C78.08,19.423 77.442,20.92 76.738,21.954 C76.496,21.206 75.924,20.017 75.484,19.313 C76.826,17.597 77.992,14.517 78.631,11.876 L75.99,11.876 L75.99,9.456 L78.653,9.456 L78.653,5.341 L81.161,5.341 L81.161,9.434 L83.361,9.434 L83.361,11.876 L81.161,11.876 L81.161,12.58 Z M64.024,15.331 L71.549,15.331 L71.549,17.311 L63.055,17.311 C62.813,17.861 62.571,18.411 62.307,18.939 L70.933,18.939 C70.933,18.939 70.845,19.665 70.757,19.995 C70.272,22.9 69.766,24.374 68.996,25.034 C68.336,25.606 67.654,25.76 66.576,25.804 C65.762,25.87 64.31,25.87 62.769,25.804 C62.747,25.056 62.373,24.044 61.889,23.384 C63.385,23.494 65.168,23.538 65.806,23.538 C66.312,23.538 66.642,23.516 66.928,23.318 C67.302,23.054 67.61,22.35 67.896,21.052 L58.457,21.052 C59.029,20.061 59.711,18.785 60.283,17.553 C58.479,18.521 56.653,19.379 54.826,20.083 C54.672,19.489 54.166,18.301 53.836,17.729 C56.719,16.739 59.623,15.375 62.307,13.725 L54.54,13.725 L54.54,11.524 L61.603,11.524 L61.603,9.786 L56.388,9.786 L56.388,7.652 L61.603,7.652 L61.603,5.363 L64.178,5.363 L64.178,7.652 L68.6,7.652 L68.6,8.818 C69.436,8.004 70.184,7.146 70.889,6.265 L72.913,7.41 C71.791,8.862 70.471,10.248 69.018,11.524 L73.749,11.524 L73.749,13.725 L66.334,13.725 C65.586,14.297 64.816,14.803 64.024,15.331 Z M64.178,9.786 L64.178,11.524 L65.476,11.524 C66.224,10.952 66.928,10.402 67.566,9.786 L64.178,9.786 Z" id="形状" fill="url(#linearGradient-7)" fill-rule="nonzero"></path>
        </g>
    </g>
</svg>
