<?xml version="1.0" encoding="UTF-8"?>
<svg width="477px" height="310px" viewBox="0 0 477 310" version="1.1" xmlns="http://www.w3.org/2000/svg" xmlns:xlink="http://www.w3.org/1999/xlink">
    <title>yhhx_kuang_zuo2</title>
    <defs>
        <linearGradient x1="0%" y1="0%" x2="100%" y2="0%" id="linearGradient-1">
            <stop stop-color="#030E6A" stop-opacity="0.8" offset="0%"></stop>
            <stop stop-color="#030E6A" stop-opacity="0" offset="100%"></stop>
        </linearGradient>
        <linearGradient x1="50%" y1="0%" x2="50%" y2="100%" id="linearGradient-2">
            <stop stop-color="#031270" offset="0%"></stop>
            <stop stop-color="#031270" stop-opacity="0.584380463" offset="40.8134834%"></stop>
            <stop stop-color="#031270" offset="100%"></stop>
        </linearGradient>
        <linearGradient x1="19.6284089%" y1="28.8814041%" x2="28.9870627%" y2="71.1185959%" id="linearGradient-3">
            <stop stop-color="#2845FB" offset="0%"></stop>
            <stop stop-color="#2845FB" stop-opacity="0.0366586538" offset="22.8845276%"></stop>
            <stop stop-color="#2845FB" offset="50.2340994%"></stop>
            <stop stop-color="#2845FB" stop-opacity="0" offset="100%"></stop>
        </linearGradient>
        <linearGradient x1="100%" y1="72.4361727%" x2="0%" y2="72.4361727%" id="linearGradient-4">
            <stop stop-color="#0A54FF" stop-opacity="0" offset="0%"></stop>
            <stop stop-color="#0A54FF" offset="100%"></stop>
        </linearGradient>
        <linearGradient x1="0%" y1="0%" x2="100%" y2="0%" id="linearGradient-5">
            <stop stop-color="#4BAAE4" stop-opacity="0" offset="0%"></stop>
            <stop stop-color="#4BAAE4" offset="12.7349213%"></stop>
            <stop stop-color="#005174" stop-opacity="0" offset="100%"></stop>
        </linearGradient>
        <linearGradient x1="0%" y1="0%" x2="100%" y2="0%" id="linearGradient-6">
            <stop stop-color="#4BAAE4" stop-opacity="0" offset="0%"></stop>
            <stop stop-color="#4BAAE4" offset="12.7349213%"></stop>
            <stop stop-color="#005174" stop-opacity="0" offset="100%"></stop>
        </linearGradient>
        <linearGradient x1="0%" y1="-1.11022302e-14%" x2="99.939%" y2="3.49%" id="linearGradient-7">
            <stop stop-color="#00C0FF" offset="0%"></stop>
            <stop stop-color="#43F0FF" offset="49%"></stop>
            <stop stop-color="#00C0FF" offset="100%"></stop>
        </linearGradient>
    </defs>
    <g id="页面-1" stroke="none" stroke-width="1" fill="none" fill-rule="evenodd">
        <g id="yhhx_kuang_zuo2">
            <polygon id="路径" fill="url(#linearGradient-1)" points="252 0 0 0 0 32 279 32"></polygon>
            <polygon id="路径" fill="url(#linearGradient-2)" opacity="0.302" points="253.13219 0.134990042 279.289771 31.5596718 477 31.0527092 477 310 0 310 0 0"></polygon>
            <path d="M0.5,0.500268707 L252.896823,0.635873617 L279.05501,32.2516072 L476.5,31.7422914 L476.5,309.503 L0.5,309.503 L0.5,0.500268707 Z" id="路径" stroke="url(#linearGradient-3)"></path>
            <polygon id="路径" fill="url(#linearGradient-4)" opacity="0.302" points="0 0 252.544 0 279.544 32 0 32"></polygon>
            <path d="M24.275,7.635 L29.784,7.635 C32.067,7.635 33.917,9.466 33.917,11.725 L25.644,23.901 C24.566,24.843 22.419,26.729 20.142,26.7240099 L14.632,26.7240099 C12.35,26.7240099 10.5,24.892 10.5,22.633 L18.765,10.362 C20.853,8.295 21.448,7.635 24.275,7.635 Z" id="路径" fill="#00D4E8"></path>
            <path d="M31.162,4.908 L36.672,4.908 C38.954,4.908 40.804,6.739 40.804,8.998 L32.531,21.174 C31.453,22.116 29.306,24.002 27.03,23.9970099 L21.52,23.9970099 C19.238,23.9970099 17.387,22.165 17.387,19.906 L25.652,7.635 C27.741,5.568 28.335,4.908 31.162,4.908 Z" id="路径" fill="#2845FB" opacity="0.502"></path>
            <polyline id="路径" stroke="url(#linearGradient-5)" points="430.5 26.5 297.5 26.5 283.5 10.5"></polyline>
            <polyline id="路径" stroke="url(#linearGradient-6)" opacity="0.4" points="434.709 19.479 301.01 19.479 288.5 4.5"></polyline>
            <polygon id="路径" fill="#1050D3" opacity="0.2" points="467.237 12.479 462.422 12.479 470.043 23.099 474.858 23.099"></polygon>
            <polygon id="路径" fill="#2563E1" opacity="0.502" points="457.002 12.479 452.187 12.479 459.807 23.099 464.622 23.099"></polygon>
            <polygon id="路径" fill="#4680F5" points="446.767 12.479 441.952 12.479 449.572 23.099 454.387 23.099"></polygon>
            <path d="M224.857,25.914 L222.15,25.914 L222.15,24.946 L213.899,24.946 L213.899,25.914 L211.281,25.914 L211.281,19.093 C210.203,19.467 209.124,19.753 208.024,20.017 C207.782,19.313 207.166,18.191 206.682,17.597 C209.19,17.113 211.699,16.299 213.943,15.199 C213.085,14.429 212.073,13.592 211.237,12.954 L213.261,11.458 C214.229,12.14 215.417,13.02 216.385,13.879 C218.168,12.756 219.708,11.414 220.874,9.896 L213.833,9.896 C212.447,11.084 210.819,12.206 208.904,13.174 C208.508,12.536 207.694,11.546 207.1,11.084 C210.687,9.522 213.107,7.322 214.449,5.253 L217.376,5.869 C216.98,6.419 216.584,6.97 216.143,7.52 L222.568,7.52 L223.008,7.388 L224.813,8.466 C223.294,11.634 220.786,14.143 217.75,16.057 L224.857,16.057 L224.857,25.914 Z M222.15,18.433 L213.899,18.433 L213.899,22.592 L222.15,22.592 L222.15,18.433 Z M201.999,25.914 L199.49,25.914 L199.49,5.605 L201.999,5.605 L201.999,8.84 L205.013,8.84 L205.013,11.128 L201.999,11.128 L201.999,13.504 L204.837,13.504 L204.837,15.771 L201.999,15.771 L201.999,18.191 L205.277,18.191 L205.277,20.546 L201.999,20.546 L201.999,25.914 Z M195.486,20.501 L192.163,20.501 L192.163,18.147 L195.486,18.147 L195.486,15.771 L192.713,15.771 L192.713,13.504 L195.486,13.504 L195.486,11.128 L192.647,11.128 L192.647,8.84 L195.486,8.84 L195.486,5.627 L197.994,5.627 L197.994,25.87 L195.486,25.87 L195.486,20.501 Z M191.921,14.759 L192.229,17.157 C191.481,17.355 190.733,17.575 189.963,17.773 L189.963,22.988 C189.963,24.22 189.743,24.836 189.039,25.232 C188.357,25.628 187.366,25.694 185.958,25.694 C185.87,25.034 185.54,24.022 185.232,23.362 C186.002,23.384 186.816,23.384 187.08,23.384 C187.366,23.384 187.454,23.296 187.454,23.01 L187.454,18.433 C186.618,18.653 185.826,18.873 185.078,19.049 L184.682,16.497 C185.474,16.343 186.42,16.123 187.454,15.881 L187.454,11.964 L184.968,11.964 L184.968,9.544 L187.454,9.544 L187.454,5.385 L189.963,5.385 L189.963,9.544 L191.943,9.544 L191.943,11.964 L189.963,11.964 L189.963,15.265 L191.921,14.759 Z M181.847,25.738 C180.329,24.792 179.118,23.538 178.128,21.998 C176.874,23.67 175.29,24.99 173.244,26.024 C173.002,25.496 172.319,24.396 171.857,23.89 C174.08,22.9 175.708,21.514 176.83,19.687 C176.192,18.301 175.708,16.761 175.268,15.089 C174.916,15.793 174.52,16.453 174.102,17.047 C173.75,16.607 172.76,15.749 172.231,15.375 C173.992,13.086 174.96,9.368 175.466,5.429 L177.842,5.781 C177.666,7.014 177.446,8.246 177.182,9.412 L183.035,9.412 L183.035,11.832 L181.649,11.832 C181.231,14.913 180.571,17.487 179.537,19.643 C180.549,21.382 181.891,22.768 183.541,23.67 C182.969,24.132 182.199,25.078 181.847,25.738 Z M176.808,11.832 C177.138,13.592 177.578,15.287 178.15,16.849 C178.656,15.353 179.008,13.703 179.228,11.832 L176.808,11.832 Z M173.134,12.866 L171.769,14.693 C171.285,14.231 170.427,13.504 169.591,12.844 L169.591,15.243 L167.171,15.243 L167.171,13.262 C166.159,14.275 164.992,15.199 163.892,15.793 C163.606,15.221 163.034,14.363 162.55,13.879 C163.848,13.35 165.234,12.382 166.269,11.304 L163.012,11.304 L163.012,9.236 L164.728,9.236 C164.552,8.488 164.046,7.366 163.562,6.507 L165.41,5.737 C166.005,6.551 166.555,7.696 166.731,8.444 L164.948,9.236 L167.171,9.236 L167.171,5.363 L169.591,5.363 L169.591,9.236 L173.75,9.236 L173.75,11.304 L170.537,11.304 C171.527,11.876 172.76,12.602 173.134,12.866 Z M169.899,8.422 C170.405,7.652 170.999,6.463 171.351,5.649 L173.552,6.507 C172.826,7.498 172.143,8.488 171.571,9.17 L169.899,8.422 Z M151.42,22.328 C151.42,23.252 151.64,23.406 152.872,23.406 L156.7,23.406 C157.735,23.406 157.911,23.032 158.087,21.162 C158.659,21.558 159.715,21.954 160.441,22.108 C160.111,24.858 159.385,25.672 156.942,25.672 L152.586,25.672 C149.593,25.672 148.757,24.924 148.757,22.35 L148.757,21.492 L141.342,22.02 L141.122,19.775 L148.757,19.247 L148.757,17.861 L142.398,18.301 L142.156,16.145 L148.757,15.705 L148.757,14.583 C146.821,14.671 144.907,14.715 143.08,14.737 C143.036,14.099 142.75,13.174 142.508,12.58 C148.053,12.47 154.412,12.03 158.461,11.282 L159.583,13.46 C157.228,13.879 154.39,14.209 151.42,14.407 L151.42,15.551 L159.033,15.045 L159.253,17.135 L151.42,17.685 L151.42,19.071 L160.705,18.455 L160.947,20.656 L151.42,21.316 L151.42,22.328 Z M157.845,10.776 L155.578,11.612 C155.402,10.996 154.962,10.138 154.5,9.368 L153.642,9.368 C153.004,10.336 152.322,11.216 151.64,11.876 C151.134,11.458 150.033,10.732 149.395,10.402 C149.769,10.116 150.121,9.764 150.452,9.368 L147.657,9.368 C148.053,10.028 148.383,10.688 148.581,11.194 L146.315,12.096 C146.095,11.392 145.567,10.292 145.039,9.368 L144.709,9.368 C144.093,10.38 143.41,11.326 142.772,12.03 C142.266,11.634 141.166,10.952 140.572,10.6 C141.958,9.302 143.19,7.234 143.895,5.187 L146.403,5.847 C146.227,6.287 146.051,6.75 145.831,7.19 L150.606,7.19 L150.606,9.192 C151.552,8.048 152.322,6.617 152.806,5.187 L155.358,5.847 C155.204,6.287 155.006,6.75 154.808,7.19 L160.881,7.19 L160.881,9.368 L157.14,9.368 C157.449,9.874 157.713,10.38 157.845,10.776 Z M133.886,20.81 C133.248,22.614 132.17,24.418 130.432,25.98 C129.992,25.408 129.09,24.594 128.452,24.198 C132.082,21.074 132.412,16.893 132.412,14.165 L132.412,13.13 L134.898,13.13 L134.898,14.231 C134.898,14.847 134.876,15.529 134.832,16.277 C135.559,19.555 137.011,22.372 139.497,23.648 C138.925,24.154 138.133,25.166 137.759,25.87 C135.999,24.77 134.766,22.988 133.886,20.81 Z M135.581,15.309 C135.867,14.385 136.175,13.042 136.417,11.7 L132.148,11.7 C131.642,13.372 131.026,14.847 130.3,16.035 C129.948,15.705 129.244,15.133 128.65,14.737 L128.65,15.639 L119.694,15.639 L119.694,13.526 L128.65,13.526 L128.672,13.659 C129.816,11.546 130.498,8.488 130.828,5.407 L133.358,5.759 C133.204,6.97 133.006,8.18 132.764,9.324 L137.121,9.324 L137.495,9.214 L139.321,9.72 C138.881,11.876 138.265,14.363 137.693,15.969 L135.581,15.309 Z M125.393,10.38 L128.782,10.38 L128.782,12.492 L119.562,12.492 L119.562,10.38 L122.951,10.38 L122.951,9.258 L119.012,9.258 L119.012,7.124 L122.951,7.124 L122.951,5.517 L125.393,5.517 L125.393,7.124 L129.266,7.124 L129.266,9.258 L125.393,9.258 L125.393,10.38 Z M129.53,18.829 L125.415,18.829 L125.415,23.45 C125.415,24.528 125.261,25.144 124.535,25.496 C123.853,25.87 122.951,25.914 121.763,25.914 C121.675,25.21 121.344,24.286 121.058,23.648 C121.741,23.67 122.445,23.67 122.687,23.67 C122.907,23.67 122.973,23.604 122.973,23.406 L122.973,18.829 L118.726,18.829 L118.726,16.673 L129.53,16.673 L129.53,18.829 Z M122.247,19.731 C121.829,21.338 121.102,23.208 120.486,24.396 C120.002,24.11 119.034,23.692 118.484,23.516 C119.144,22.394 119.716,20.722 120.112,19.247 L122.247,19.731 Z M115.781,25.782 C114.109,24.902 112.766,23.714 111.666,22.24 C110.456,23.736 108.938,24.968 107.002,25.958 C106.782,25.386 106.033,24.22 105.549,23.67 C107.574,22.746 109.114,21.492 110.258,19.907 C109.576,18.543 109.07,17.025 108.608,15.375 C108.234,16.057 107.838,16.629 107.398,17.179 C107.09,16.761 106.43,16.035 105.857,15.485 C105.747,21.602 105.637,23.978 105.087,24.726 C104.647,25.342 104.251,25.562 103.613,25.694 C103.041,25.782 102.183,25.804 101.259,25.782 C101.193,25.056 100.951,24.066 100.577,23.406 C101.281,23.45 101.919,23.472 102.271,23.472 C102.535,23.472 102.711,23.406 102.887,23.142 C103.173,22.658 103.305,20.81 103.393,15.661 L101.545,15.661 C101.523,19.137 101.039,22.79 98.31,25.804 C97.892,25.232 97.034,24.528 96.396,24.088 C98.75,21.36 99.08,18.213 99.08,15.375 L99.08,11.128 L96.924,11.128 L96.924,8.708 L101.171,8.708 C100.995,7.872 100.599,6.728 100.269,5.847 L102.579,5.297 C102.975,6.199 103.415,7.41 103.635,8.18 L101.831,8.708 L106.628,8.708 L106.628,11.128 L101.545,11.128 L101.545,13.284 L105.901,13.284 C105.901,13.284 105.901,14.033 105.879,14.341 L105.879,14.517 C107.486,12.294 108.498,8.906 109.026,5.363 L111.688,5.781 C111.49,6.992 111.248,8.202 110.94,9.346 L117.321,9.346 L117.321,11.766 L115.671,11.766 C115.209,14.957 114.439,17.663 113.25,19.885 C114.351,21.47 115.759,22.702 117.585,23.538 C116.991,24.066 116.177,25.078 115.781,25.782 Z M110.214,11.766 L110.17,11.854 C110.544,13.769 111.05,15.573 111.732,17.157 C112.37,15.595 112.81,13.813 113.096,11.766 L110.214,11.766 Z M89.886,20.81 C89.248,22.614 88.17,24.418 86.432,25.98 C85.992,25.408 85.09,24.594 84.452,24.198 C88.082,21.074 88.412,16.893 88.412,14.165 L88.412,13.13 L90.898,13.13 L90.898,14.231 C90.898,14.847 90.876,15.529 90.832,16.277 C91.559,19.555 93.011,22.372 95.497,23.648 C94.925,24.154 94.133,25.166 93.759,25.87 C91.999,24.77 90.766,22.988 89.886,20.81 Z M91.581,15.309 C91.867,14.385 92.175,13.042 92.417,11.7 L88.148,11.7 C87.642,13.372 87.026,14.847 86.3,16.035 C85.948,15.705 85.244,15.133 84.65,14.737 L84.65,15.639 L75.694,15.639 L75.694,13.526 L84.65,13.526 L84.672,13.659 C85.816,11.546 86.498,8.488 86.828,5.407 L89.358,5.759 C89.204,6.97 89.006,8.18 88.764,9.324 L93.121,9.324 L93.495,9.214 L95.321,9.72 C94.881,11.876 94.265,14.363 93.693,15.969 L91.581,15.309 Z M81.393,10.38 L84.782,10.38 L84.782,12.492 L75.562,12.492 L75.562,10.38 L78.951,10.38 L78.951,9.258 L75.012,9.258 L75.012,7.124 L78.951,7.124 L78.951,5.517 L81.393,5.517 L81.393,7.124 L85.266,7.124 L85.266,9.258 L81.393,9.258 L81.393,10.38 Z M85.53,18.829 L81.415,18.829 L81.415,23.45 C81.415,24.528 81.261,25.144 80.535,25.496 C79.853,25.87 78.951,25.914 77.763,25.914 C77.675,25.21 77.344,24.286 77.058,23.648 C77.741,23.67 78.445,23.67 78.687,23.67 C78.907,23.67 78.973,23.604 78.973,23.406 L78.973,18.829 L74.726,18.829 L74.726,16.673 L85.53,16.673 L85.53,18.829 Z M78.247,19.731 C77.829,21.338 77.102,23.208 76.486,24.396 C76.002,24.11 75.034,23.692 74.484,23.516 C75.144,22.394 75.716,20.722 76.112,19.247 L78.247,19.731 Z M70.087,12.14 C70.637,12.14 70.791,11.722 70.923,10.424 C71.429,10.864 72.243,11.282 72.881,11.458 C72.507,14.011 71.715,14.517 69.977,14.517 C67.754,14.517 65.466,13.02 63.904,10.6 L59.965,10.864 L59.767,8.796 L62.87,8.598 C62.496,7.63 62.231,6.595 62.099,5.495 L64.608,5.495 C64.762,6.551 65.07,7.542 65.532,8.422 L69.008,8.202 C68.524,7.608 67.688,6.882 67.006,6.331 L68.876,5.231 C69.647,5.781 70.659,6.639 71.165,7.19 L69.647,8.158 L72.969,7.938 L73.167,9.962 L66.918,10.38 C67.93,11.48 69.096,12.14 70.087,12.14 Z M58.755,14.187 L56.203,14.187 L56.203,10.952 C55.631,11.392 55.08,11.788 54.53,12.14 C54.134,11.634 53.232,10.732 52.704,10.292 C54.904,9.17 57.105,7.3 58.381,5.341 L60.713,6.199 C60.163,7.036 59.503,7.85 58.755,8.642 L58.755,14.187 Z M61.461,17.773 L64.234,17.773 L64.234,19.247 C64.234,21.316 63.156,24.088 55.168,25.87 C54.838,25.298 54.046,24.352 53.408,23.846 C60.977,22.504 61.461,20.501 61.461,19.159 L61.461,17.773 Z M55.851,21.866 L55.851,14.803 L70.241,14.803 L70.241,21.712 L67.49,21.712 L67.49,17.201 L58.469,17.201 L58.469,21.866 L55.851,21.866 Z M72.353,23.824 L71.055,25.98 C69.383,25.056 65.994,23.692 63.508,22.922 L64.718,21.008 C67.116,21.668 70.593,22.9 72.353,23.824 Z M85.398,22.57 L83.351,23.428 C83.109,22.548 82.537,21.074 82.031,19.951 L83.967,19.203 C84.518,20.259 85.134,21.668 85.398,22.57 Z M129.398,22.57 L127.351,23.428 C127.109,22.548 126.537,21.074 126.031,19.951 L127.967,19.203 C128.518,20.259 129.134,21.668 129.398,22.57 Z M163.826,20.744 C164.222,20.171 164.64,19.489 165.08,18.741 L163.408,18.741 L163.408,16.629 L166.159,16.629 C166.357,16.189 166.533,15.771 166.687,15.353 L168.997,15.771 C168.887,16.057 168.755,16.343 168.623,16.629 L171.417,16.629 L171.813,16.563 L173.222,17.091 C172.694,19.027 171.813,20.612 170.691,21.888 C171.285,22.218 171.813,22.548 172.253,22.856 L170.713,24.528 C170.273,24.198 169.701,23.802 169.041,23.406 C167.567,24.528 165.807,25.32 163.826,25.87 C163.584,25.276 163.078,24.352 162.638,23.912 C164.222,23.56 165.697,22.988 166.951,22.218 C165.917,21.668 164.816,21.162 163.826,20.744 Z M170.273,18.741 L167.611,18.741 C167.391,19.159 167.171,19.555 166.951,19.907 C167.545,20.193 168.161,20.501 168.733,20.81 C169.349,20.193 169.877,19.511 170.273,18.741 Z" id="形状" fill="url(#linearGradient-7)" fill-rule="nonzero"></path>
        </g>
    </g>
</svg>
