<?xml version="1.0" encoding="UTF-8"?>
<svg width="430px" height="45px" viewBox="0 0 430 45" version="1.1" xmlns="http://www.w3.org/2000/svg" xmlns:xlink="http://www.w3.org/1999/xlink">
    <title>yhhx_dkfkbspm_3</title>
    <defs>
        <linearGradient x1="0%" y1="100%" x2="0%" y2="0%" id="linearGradient-1">
            <stop stop-color="#1F45EB" stop-opacity="0.50196" offset="0%"></stop>
            <stop stop-color="#1F45EB" stop-opacity="0" offset="100%"></stop>
        </linearGradient>
        <polygon id="path-2" points="50.6669 0.866666667 379.3331 0.866666667 430 24.8666667 0 24.8666667"></polygon>
        <linearGradient x1="50%" y1="0%" x2="50%" y2="100%" id="linearGradient-4">
            <stop stop-color="#1ED6FF" offset="0%"></stop>
            <stop stop-color="#1ED6FF" stop-opacity="0.5" offset="100%"></stop>
        </linearGradient>
        <linearGradient x1="50%" y1="0%" x2="50%" y2="100%" id="linearGradient-5">
            <stop stop-color="#F5F384" offset="0%"></stop>
            <stop stop-color="#9E8F3E" offset="100%"></stop>
        </linearGradient>
        <path d="M3,0 L27,0 C28.657,0 30,1.343 30,3 L30,27 C30,28.657 28.657,30 27,30 L3,30 C1.343,30 0,28.657 0,27 L0,3 C0,1.343 1.343,0 3,0 Z" id="path-6"></path>
        <filter x="-73.3%" y="-73.3%" width="246.7%" height="246.7%" filterUnits="objectBoundingBox" id="filter-7">
            <feGaussianBlur stdDeviation="12" in="SourceAlpha" result="shadowBlurInner1"></feGaussianBlur>
            <feOffset dx="0" dy="20" in="shadowBlurInner1" result="shadowOffsetInner1"></feOffset>
            <feComposite in="shadowOffsetInner1" in2="SourceAlpha" operator="arithmetic" k2="-1" k3="1" result="shadowInnerInner1"></feComposite>
            <feColorMatrix values="0 0 0 0 0.858823529   0 0 0 0 0.803921569   0 0 0 0 0.333333333  0 0 0 0.65 0" type="matrix" in="shadowInnerInner1"></feColorMatrix>
        </filter>
        <filter x="-90.0%" y="-300.0%" width="280.0%" height="700.0%" filterUnits="objectBoundingBox" id="filter-8">
            <feGaussianBlur stdDeviation="3" in="SourceGraphic"></feGaussianBlur>
        </filter>
    </defs>
    <g id="页面-1" stroke="none" stroke-width="1" fill="none" fill-rule="evenodd">
        <g id="yhhx_dkfkbspm_3" transform="translate(0.000000, 5.000000)">
            <polygon id="路径" fill="#0A2393" points="0 36 430 36 430 40 0 40"></polygon>
            <polygon id="蒙版" fill="url(#linearGradient-1)" points="50.6669 12 379.3331 12 430 36 0 36"></polygon>
            <g id="编组-2" transform="translate(0.000000, 11.133333)">
                <mask id="mask-3" fill="white">
                    <use xlink:href="#path-2"></use>
                </mask>
                <use id="蒙版备份" fill="url(#linearGradient-1)" xlink:href="#path-2"></use>
                <path d="M427.424924,24.5333333 L397.543632,-7 L398.571436,-7 L428.697787,24.5333333 L427.424924,24.5333333 Z M421.98174,24.5333333 L393.1542,-7 L394.182004,-7 L423.254603,24.5333333 L421.98174,24.5333333 Z M416.538556,24.5333333 L388.763326,-7 L389.791131,-7 L417.81142,24.5333333 L416.538556,24.5333333 Z M411.095372,24.5333333 L384.373894,-7 L385.400257,-7 L412.369677,24.5333333 L411.095372,24.5333333 Z M405.652188,24.5333333 L379.983021,-7 L381.010825,-7 L406.926493,24.5333333 L405.652188,24.5333333 Z M400.209004,24.5333333 L375.592147,-7 L376.619952,-7 L401.483309,24.5333333 L400.209004,24.5333333 Z M394.765821,24.5333333 L371.202715,-7 L372.23052,-7 L396.040125,24.5333333 L394.765821,24.5333333 Z M389.322637,24.5333333 L366.811842,-7 L367.839647,-7 L390.596941,24.5333333 L389.322637,24.5333333 Z M383.879453,24.5333333 L362.42241,-7 L363.448773,-7 L385.153757,24.5333333 L383.879453,24.5333333 Z M378.436269,24.5333333 L358.031536,-7 L359.059341,-7 L379.710573,24.5333333 L378.436269,24.5333333 Z M372.993085,24.5333333 L353.642104,-7 L354.668468,-7 L374.267389,24.5333333 L372.993085,24.5333333 Z M367.551342,24.5333333 L349.251231,-7 L350.279036,-7 L368.824205,24.5333333 L367.551342,24.5333333 Z M362.108158,24.5333333 L344.860357,-7 L345.888162,-7 L363.381022,24.5333333 L362.108158,24.5333333 Z M356.664974,24.5333333 L340.470926,-7 L341.497289,-7 L357.939279,24.5333333 L356.664974,24.5333333 Z M351.22179,24.5333333 L336.080052,-7 L337.107857,-7 L352.496095,24.5333333 L351.22179,24.5333333 Z M345.778606,24.5333333 L331.689179,-7 L332.716983,-7 L347.052911,24.5333333 L345.778606,24.5333333 Z M340.335423,24.5333333 L327.299747,-7 L328.327551,-7 L341.609727,24.5333333 L340.335423,24.5333333 Z M334.892239,24.5333333 L322.908873,-7 L323.936678,-7 L336.166543,24.5333333 L334.892239,24.5333333 Z M329.449055,24.5333333 L318.519441,-7 L319.547246,-7 L330.723359,24.5333333 L329.449055,24.5333333 Z M324.005871,24.5333333 L314.128568,-7 L315.156372,-7 L325.280175,24.5333333 L324.005871,24.5333333 Z M318.564128,24.5333333 L309.737694,-7 L310.765499,-7 L319.836991,24.5333333 L318.564128,24.5333333 Z M313.120944,24.5333333 L305.348262,-7 L306.376067,-7 L314.393807,24.5333333 L313.120944,24.5333333 Z M307.67776,24.5333333 L300.957389,-7 L301.985193,-7 L308.950624,24.5333333 L307.67776,24.5333333 Z M302.234576,24.5333333 L296.567957,-7 L297.59432,-7 L303.508881,24.5333333 L302.234576,24.5333333 Z M296.791392,24.5333333 L292.177083,-7 L293.204888,-7 L298.065697,24.5333333 L296.791392,24.5333333 Z M291.348208,24.5333333 L287.787651,-7 L288.814014,-7 L292.622513,24.5333333 L291.348208,24.5333333 Z M283.396778,-7 L284.424582,-7 L287.179329,24.5333333 L285.905025,24.5333333 L283.396778,-7 Z M279.005904,-7 L280.033709,-7 L281.736145,24.5333333 L280.461841,24.5333333 L279.005904,-7 Z M274.616472,-7 L275.644277,-7 L276.292961,24.5333333 L275.018657,24.5333333 L274.616472,-7 Z M269.575473,24.5333333 L270.225599,-7 L271.253403,-7 L270.849777,24.5333333 L269.575473,24.5333333 Z M264.13373,24.5333333 L265.834725,-7 L266.86253,-7 L265.406593,24.5333333 L264.13373,24.5333333 Z M258.690546,24.5333333 L261.445293,-7 L262.473098,-7 L259.963409,24.5333333 L258.690546,24.5333333 Z M253.247362,24.5333333 L257.05442,-7 L258.082224,-7 L254.520226,24.5333333 L253.247362,24.5333333 Z M247.804178,24.5333333 L252.664988,-7 L253.691351,-7 L249.078483,24.5333333 L247.804178,24.5333333 Z M242.360994,24.5333333 L248.274114,-7 L249.301919,-7 L243.635299,24.5333333 L242.360994,24.5333333 Z M236.91781,24.5333333 L243.883241,-7 L244.911045,-7 L238.192115,24.5333333 L236.91781,24.5333333 Z M231.474627,24.5333333 L239.493809,-7 L240.521613,-7 L232.748931,24.5333333 L231.474627,24.5333333 Z M226.031443,24.5333333 L235.102935,-7 L236.13074,-7 L227.305747,24.5333333 L226.031443,24.5333333 Z M220.588259,24.5333333 L230.713503,-7 L231.739866,-7 L221.862563,24.5333333 L220.588259,24.5333333 Z M215.145075,24.5333333 L226.32263,-7 L227.350434,-7 L216.419379,24.5333333 L215.145075,24.5333333 Z M209.703332,24.5333333 L221.931756,-7 L222.959561,-7 L210.976195,24.5333333 L209.703332,24.5333333 Z M204.260148,24.5333333 L217.542324,-7 L218.570129,-7 L205.533012,24.5333333 L204.260148,24.5333333 Z M198.816964,24.5333333 L213.151451,-7 L214.179256,-7 L200.091269,24.5333333 L198.816964,24.5333333 Z M193.37378,24.5333333 L208.762019,-7 L209.789824,-7 L194.648085,24.5333333 L193.37378,24.5333333 Z M187.930596,24.5333333 L204.371145,-7 L205.39895,-7 L189.204901,24.5333333 L187.930596,24.5333333 Z M182.487413,24.5333333 L199.981713,-7 L201.008077,-7 L183.761717,24.5333333 L182.487413,24.5333333 Z M177.044229,24.5333333 L195.59084,-7 L196.618645,-7 L178.318533,24.5333333 L177.044229,24.5333333 Z M171.601045,24.5333333 L191.199966,-7 L192.227771,-7 L172.875349,24.5333333 L171.601045,24.5333333 Z M166.157861,24.5333333 L186.810535,-7 L187.836898,-7 L167.432165,24.5333333 L166.157861,24.5333333 Z M160.716118,24.5333333 L182.419661,-7 L183.447466,-7 L161.988981,24.5333333 L160.716118,24.5333333 Z M155.272934,24.5333333 L178.028788,-7 L179.056592,-7 L156.545797,24.5333333 L155.272934,24.5333333 Z M149.82975,24.5333333 L173.639356,-7 L174.66716,-7 L151.104055,24.5333333 L149.82975,24.5333333 Z M144.386566,24.5333333 L169.248482,-7 L170.276287,-7 L145.660871,24.5333333 L144.386566,24.5333333 Z M138.943382,24.5333333 L164.85905,-7 L165.886855,-7 L140.217687,24.5333333 L138.943382,24.5333333 Z M133.500198,24.5333333 L160.468177,-7 L161.495981,-7 L134.774503,24.5333333 L133.500198,24.5333333 Z M128.057015,24.5333333 L156.077303,-7 L157.105108,-7 L129.331319,24.5333333 L128.057015,24.5333333 Z M122.613831,24.5333333 L151.687871,-7 L152.715676,-7 L123.888135,24.5333333 L122.613831,24.5333333 Z M117.170647,24.5333333 L147.296998,-7 L148.324802,-7 L118.444951,24.5333333 L117.170647,24.5333333 Z M111.727463,24.5333333 L142.907566,-7 L143.933929,-7 L113.001767,24.5333333 L111.727463,24.5333333 Z M106.28572,24.5333333 L138.516692,-7 L139.544497,-7 L107.558583,24.5333333 L106.28572,24.5333333 Z M100.842536,24.5333333 L134.12726,-7 L135.153623,-7 L102.115399,24.5333333 L100.842536,24.5333333 Z M95.3993523,24.5333333 L129.736387,-7 L130.764191,-7 L96.6722155,24.5333333 L95.3993523,24.5333333 Z M89.9561684,24.5333333 L125.345513,-7 L126.373318,-7 L91.2304731,24.5333333 L89.9561684,24.5333333 Z M84.5129844,24.5333333 L120.956081,-7 L121.983886,-7 L85.7872891,24.5333333 L84.5129844,24.5333333 Z M79.0698005,24.5333333 L116.565208,-7 L117.593012,-7 L80.3441052,24.5333333 L79.0698005,24.5333333 Z M73.6266165,24.5333333 L112.175776,-7 L113.202139,-7 L74.9009212,24.5333333 L73.6266165,24.5333333 Z M68.1834326,24.5333333 L107.784902,-7 L108.812707,-7 L69.4577373,24.5333333 L68.1834326,24.5333333 Z M62.7402486,24.5333333 L103.394029,-7 L104.421833,-7 L64.0145533,24.5333333 L62.7402486,24.5333333 Z M57.2970647,24.5333333 L99.0045968,-7 L100.03096,-7 L58.5713694,24.5333333 L57.2970647,24.5333333 Z M51.8538807,24.5333333 L94.6137233,-7 L95.6415279,-7 L53.1281854,24.5333333 L51.8538807,24.5333333 Z M46.4121383,24.5333333 L90.2228498,-7 L91.2506544,-7 L47.6850015,24.5333333 L46.4121383,24.5333333 Z M40.9689543,24.5333333 L85.8334178,-7 L86.8612224,-7 L42.2418175,24.5333333 L40.9689543,24.5333333 Z M35.5257704,24.5333333 L81.4425443,-7 L82.4703489,-7 L36.8000751,24.5333333 L35.5257704,24.5333333 Z M30.0825864,24.5333333 L77.0531123,-7 L78.0809169,-7 L31.3568911,24.5333333 L30.0825864,24.5333333 Z M24.6394025,24.5333333 L72.6622389,-7 L73.6900434,-7 L25.9137072,24.5333333 L24.6394025,24.5333333 Z M19.1962185,24.5333333 L68.2728069,-7 L69.29917,-7 L20.4705232,24.5333333 L19.1962185,24.5333333 Z M13.7530346,24.5333333 L63.8819334,-7 L64.909738,-7 L15.0273393,24.5333333 L13.7530346,24.5333333 Z M8.30985062,24.5333333 L59.4910599,-7 L60.5188645,-7 L9.58415534,24.5333333 L8.30985062,24.5333333 Z M2.86666667,24.5333333 L55.1016279,-7 L56.1294325,-7 L4.14097138,24.5333333 L2.86666667,24.5333333 Z" id="形状" fill="url(#linearGradient-4)" mask="url(#mask-3)"></path>
            </g>
            <g id="编组" transform="translate(10.000000, 0.000000)">
                <g id="路径">
                    <use fill="#070C4D" fill-rule="evenodd" xlink:href="#path-6"></use>
                    <use fill="black" fill-opacity="1" filter="url(#filter-7)" xlink:href="#path-6"></use>
                    <path stroke="url(#linearGradient-5)" stroke-width="1" d="M27,0.5 C27.6904167,0.5 28.3154234,0.779780226 28.7678216,1.23217839 C29.2202198,1.68457656 29.5,2.30958333 29.5,3 L29.5,3 L29.5,27 C29.5,27.6904167 29.2202198,28.3154234 28.7678216,28.7678216 C28.3154234,29.2202198 27.6904167,29.5 27,29.5 L27,29.5 L3,29.5 C2.30958333,29.5 1.68457656,29.2202198 1.23217839,28.7678216 C0.779780226,28.3154234 0.5,27.6904167 0.5,27 L0.5,27 L0.5,3 C0.5,2.30958333 0.779780226,1.68457656 1.23217839,1.23217839 C1.68457656,0.779780226 2.30958333,0.5 3,0.5 L3,0.5 Z" stroke-linejoin="square"></path>
                </g>
                <path d="M15.5,4 C18.261,4 20.5,4.672 20.5,5.5 C20.5,6.328 18.261,7 15.5,7 C12.739,7 10.5,6.328 10.5,5.5 C10.5,4.672 12.739,4 15.5,4 Z" id="路径" fill="#FCF491" filter="url(#filter-8)"></path>
                <path d="M15.5,0.654 C17.057,0.654 18.32,1.033 18.32,1.5 C18.32,1.967 17.057,2.346 15.5,2.346 C13.943,2.346 12.68,1.967 12.68,1.5 C12.68,1.033 13.943,0.654 15.5,0.654 Z" id="路径" fill="#FCF491"></path>
                <path d="M15.5,27.656 C16.605,27.656 17.5,28.034 17.5,28.5 C17.5,28.966 16.605,29.344 15.5,29.344 C14.395,29.344 13.5,28.966 13.5,28.5 C13.5,28.034 14.395,27.656 15.5,27.656 Z" id="路径" fill="#FCF491"></path>
            </g>
            <path d="M26.659,11.585 C26.616,10.06 26.12,9.286 25.171,9.265 C24.264,9.233 23.784,9.9 23.731,11.265 C23.667,12.001 23.229,12.396 22.419,12.449 C21.629,12.449 21.251,12.033 21.283,11.201 C21.464,9.473 22.76,8.577 25.171,8.513 C27.709,8.513 29,9.553 29.043,11.633 C29.021,13.372 27.875,14.417 25.603,14.769 C28.035,15.036 29.261,16.161 29.283,18.145 C29.229,20.438 27.816,21.59 25.043,21.601 C22.515,21.537 21.181,20.673 21.043,19.009 C21,18.22 21.373,17.804 22.163,17.761 C22.877,17.718 23.293,18.097 23.411,18.897 C23.603,20.134 24.147,20.769 25.043,20.801 C26.291,20.833 26.915,19.948 26.915,18.145 C26.925,16.278 25.8,15.318 23.539,15.265 L23.539,14.385 C25.661,14.257 26.701,13.324 26.659,11.585 L26.659,11.585 Z" id="路径" fill="#FFFFFF"></path>
        </g>
    </g>
</svg>