<?xml version="1.0" encoding="UTF-8"?>
<svg width="477px" height="230px" viewBox="0 0 477 230" version="1.1" xmlns="http://www.w3.org/2000/svg" xmlns:xlink="http://www.w3.org/1999/xlink">
    <title>yhhx_kuang_you2</title>
    <defs>
        <linearGradient x1="0%" y1="0%" x2="100%" y2="0%" id="linearGradient-1">
            <stop stop-color="#030E6A" stop-opacity="0.8" offset="0%"></stop>
            <stop stop-color="#030E6A" stop-opacity="0" offset="100%"></stop>
        </linearGradient>
        <linearGradient x1="50%" y1="0%" x2="50%" y2="100%" id="linearGradient-2">
            <stop stop-color="#031270" offset="0%"></stop>
            <stop stop-color="#031270" stop-opacity="0.584380463" offset="40.8134834%"></stop>
            <stop stop-color="#031270" offset="100%"></stop>
        </linearGradient>
        <linearGradient x1="19.6284089%" y1="38.374805%" x2="28.9870627%" y2="61.625195%" id="linearGradient-3">
            <stop stop-color="#2845FB" offset="0%"></stop>
            <stop stop-color="#2845FB" stop-opacity="0.0366586538" offset="22.8845276%"></stop>
            <stop stop-color="#2845FB" offset="50.2340994%"></stop>
            <stop stop-color="#2845FB" stop-opacity="0" offset="100%"></stop>
        </linearGradient>
        <linearGradient x1="100%" y1="72.4361727%" x2="0%" y2="72.4361727%" id="linearGradient-4">
            <stop stop-color="#0A54FF" stop-opacity="0" offset="0%"></stop>
            <stop stop-color="#0A54FF" offset="100%"></stop>
        </linearGradient>
        <linearGradient x1="0%" y1="0%" x2="100%" y2="0%" id="linearGradient-5">
            <stop stop-color="#4BAAE4" stop-opacity="0" offset="0%"></stop>
            <stop stop-color="#4BAAE4" offset="12.7349213%"></stop>
            <stop stop-color="#005174" stop-opacity="0" offset="100%"></stop>
        </linearGradient>
        <linearGradient x1="0%" y1="0%" x2="100%" y2="0%" id="linearGradient-6">
            <stop stop-color="#4BAAE4" stop-opacity="0" offset="0%"></stop>
            <stop stop-color="#4BAAE4" offset="12.7349213%"></stop>
            <stop stop-color="#005174" stop-opacity="0" offset="100%"></stop>
        </linearGradient>
        <linearGradient x1="0%" y1="-1.11022302e-14%" x2="99.939%" y2="3.49%" id="linearGradient-7">
            <stop stop-color="#00C0FF" offset="0%"></stop>
            <stop stop-color="#43F0FF" offset="49%"></stop>
            <stop stop-color="#00C0FF" offset="100%"></stop>
        </linearGradient>
    </defs>
    <g id="页面-1" stroke="none" stroke-width="1" fill="none" fill-rule="evenodd">
        <g id="yhhx_kuang_you2">
            <polygon id="路径" fill="url(#linearGradient-1)" points="252 0 0 0 0 32 279 32"></polygon>
            <polygon id="路径" fill="url(#linearGradient-2)" opacity="0.302" points="253.13219 0.134990042 279.289771 31.5596718 477 31.0527092 477 230 0 230 0 0"></polygon>
            <path d="M0.5,0.500268707 L252.896823,0.635873617 L279.05501,32.2516072 L476.5,31.7422914 L476.5,229.503 L0.5,229.503 L0.5,0.500268707 Z" id="路径" stroke="url(#linearGradient-3)"></path>
            <polygon id="路径" fill="url(#linearGradient-4)" opacity="0.302" points="0 0 252.544 0 279.544 32 0 32"></polygon>
            <path d="M24.275,7.635 L29.784,7.635 C32.067,7.635 33.917,9.466 33.917,11.725 L25.644,23.901 C24.566,24.843 22.419,26.729 20.142,26.7240099 L14.632,26.7240099 C12.35,26.7240099 10.5,24.892 10.5,22.633 L18.765,10.362 C20.853,8.295 21.448,7.635 24.275,7.635 Z" id="路径" fill="#00D4E8"></path>
            <path d="M31.162,4.908 L36.672,4.908 C38.954,4.908 40.804,6.739 40.804,8.998 L32.531,21.174 C31.453,22.116 29.306,24.002 27.03,23.9970099 L21.52,23.9970099 C19.238,23.9970099 17.387,22.165 17.387,19.906 L25.652,7.635 C27.741,5.568 28.335,4.908 31.162,4.908 Z" id="路径" fill="#2845FB" opacity="0.502"></path>
            <polyline id="路径" stroke="url(#linearGradient-5)" points="430.5 26.5 297.5 26.5 283.5 10.5"></polyline>
            <polyline id="路径" stroke="url(#linearGradient-6)" opacity="0.4" points="434.709 19.479 301.01 19.479 288.5 4.5"></polyline>
            <polygon id="路径" fill="#1050D3" opacity="0.2" points="467.237 12.479 462.422 12.479 470.043 23.099 474.858 23.099"></polygon>
            <polygon id="路径" fill="#2563E1" opacity="0.502" points="457.002 12.479 452.187 12.479 459.807 23.099 464.622 23.099"></polygon>
            <polygon id="路径" fill="#4680F5" points="446.767 12.479 441.952 12.479 449.572 23.099 454.387 23.099"></polygon>
            <path d="M180.857,25.914 L178.15,25.914 L178.15,24.946 L169.899,24.946 L169.899,25.914 L167.281,25.914 L167.281,19.093 C166.203,19.467 165.124,19.753 164.024,20.017 C163.782,19.313 163.166,18.191 162.682,17.597 C165.19,17.113 167.699,16.299 169.943,15.199 C169.085,14.429 168.073,13.592 167.237,12.954 L169.261,11.458 C170.229,12.14 171.417,13.02 172.385,13.879 C174.168,12.756 175.708,11.414 176.874,9.896 L169.833,9.896 C168.447,11.084 166.819,12.206 164.904,13.174 C164.508,12.536 163.694,11.546 163.1,11.084 C166.687,9.522 169.107,7.322 170.449,5.253 L173.376,5.869 C172.98,6.419 172.584,6.97 172.143,7.52 L178.568,7.52 L179.008,7.388 L180.813,8.466 C179.294,11.634 176.786,14.143 173.75,16.057 L180.857,16.057 L180.857,25.914 Z M178.15,18.433 L169.899,18.433 L169.899,22.592 L178.15,22.592 L178.15,18.433 Z M157.999,25.914 L155.49,25.914 L155.49,5.605 L157.999,5.605 L157.999,8.84 L161.013,8.84 L161.013,11.128 L157.999,11.128 L157.999,13.504 L160.837,13.504 L160.837,15.771 L157.999,15.771 L157.999,18.191 L161.277,18.191 L161.277,20.546 L157.999,20.546 L157.999,25.914 Z M151.486,20.501 L148.163,20.501 L148.163,18.147 L151.486,18.147 L151.486,15.771 L148.713,15.771 L148.713,13.504 L151.486,13.504 L151.486,11.128 L148.647,11.128 L148.647,8.84 L151.486,8.84 L151.486,5.627 L153.994,5.627 L153.994,25.87 L151.486,25.87 L151.486,20.501 Z M147.921,14.759 L148.229,17.157 C147.481,17.355 146.733,17.575 145.963,17.773 L145.963,22.988 C145.963,24.22 145.743,24.836 145.039,25.232 C144.357,25.628 143.366,25.694 141.958,25.694 C141.87,25.034 141.54,24.022 141.232,23.362 C142.002,23.384 142.816,23.384 143.08,23.384 C143.366,23.384 143.454,23.296 143.454,23.01 L143.454,18.433 C142.618,18.653 141.826,18.873 141.078,19.049 L140.682,16.497 C141.474,16.343 142.42,16.123 143.454,15.881 L143.454,11.964 L140.968,11.964 L140.968,9.544 L143.454,9.544 L143.454,5.385 L145.963,5.385 L145.963,9.544 L147.943,9.544 L147.943,11.964 L145.963,11.964 L145.963,15.265 L147.921,14.759 Z M134.26,22.636 L135.603,21.03 C136.901,21.91 138.705,23.23 139.563,24.066 L138.155,25.892 C137.341,24.99 135.581,23.604 134.26,22.636 Z M134.502,10.732 L138.507,10.732 L138.507,20.964 L136.263,20.964 L136.263,12.712 L131.686,12.712 L131.686,21.03 L129.53,21.03 L129.53,10.732 L132.302,10.732 C132.5,10.16 132.742,9.5 132.94,8.862 L129.354,8.862 L129.354,6.595 L139.189,6.595 L139.189,8.862 L135.272,8.862 C135.008,9.522 134.766,10.16 134.502,10.732 Z M128.782,12.184 C128.187,13.46 127.373,14.605 126.383,15.595 C127.571,16.211 128.716,16.805 129.508,17.289 L127.791,18.961 L128.033,18.961 L128.033,24.088 C132.676,22.504 132.83,19.687 132.94,13.526 L135.14,13.526 C135.03,20.523 134.59,24.11 129.09,26.024 C128.914,25.54 128.452,24.88 128.033,24.418 L128.033,25.694 L125.635,25.694 L125.635,25.166 L122.863,25.166 L122.863,25.738 L120.574,25.738 L120.574,19.357 C120.244,19.489 119.892,19.599 119.562,19.709 C119.452,19.005 118.99,17.751 118.66,17.245 C119.848,16.937 121.036,16.475 122.093,15.903 L120.948,15.309 L122.643,13.791 C123.127,14.011 123.655,14.275 124.183,14.539 C124.667,14.143 125.085,13.703 125.459,13.24 L122.511,13.24 C121.785,14.033 120.926,14.759 119.914,15.441 C119.584,14.913 118.924,14.099 118.462,13.769 C120.31,12.668 121.609,11.216 122.291,9.918 L124.579,10.336 C124.403,10.666 124.205,10.996 124.007,11.304 L126.647,11.304 L126.647,9.588 L121.256,9.588 L121.256,11.348 L119.012,11.348 L119.012,7.52 L122.951,7.52 C122.731,6.992 122.489,6.419 122.269,5.957 L124.755,5.451 C125.085,6.067 125.459,6.86 125.745,7.52 L129.002,7.52 L129.002,11.348 L127.527,11.348 L128.782,12.184 Z M122.863,23.142 L125.635,23.142 L125.635,20.986 L122.863,20.986 L122.863,23.142 Z M124.513,17.223 C123.567,17.883 122.555,18.477 121.499,18.961 L127.505,18.961 C126.779,18.477 125.679,17.839 124.513,17.223 Z M115.803,14.099 C114.813,13.747 113.801,13.306 112.81,12.822 L112.81,14.121 L108.388,14.121 L108.388,16.409 L115.407,16.409 L115.407,18.763 L111.93,18.763 L114.131,19.555 C113.361,20.788 112.502,22.108 111.82,23.054 L116.551,23.054 L116.551,25.452 L97.518,25.452 L97.518,23.054 L101.853,23.054 C101.501,22.042 100.753,20.59 100.027,19.489 L101.765,18.763 L98.574,18.763 L98.574,16.409 L105.571,16.409 L105.571,14.121 L101.105,14.121 L101.105,13.042 C100.181,13.482 99.234,13.879 98.266,14.231 C97.914,13.46 97.188,12.47 96.528,11.81 C100.665,10.622 104.625,8.4 106.716,5.121 L109.202,6.243 C109.004,6.529 108.806,6.816 108.586,7.124 C110.742,9.06 114.307,10.886 117.607,11.81 C117.013,12.382 116.199,13.416 115.803,14.099 Z M108.388,23.054 L111.138,23.054 L109.664,22.438 C110.346,21.448 111.16,19.907 111.6,18.763 L108.388,18.763 L108.388,23.054 Z M102.249,18.763 C103.019,19.841 103.855,21.294 104.163,22.262 L102.359,23.054 L105.571,23.054 L105.571,18.763 L102.249,18.763 Z M107.068,8.862 C106.011,9.962 104.801,10.886 103.503,11.722 L110.874,11.722 C109.488,10.864 108.19,9.896 107.068,8.862 Z M89.886,20.81 C89.248,22.614 88.17,24.418 86.432,25.98 C85.992,25.408 85.09,24.594 84.452,24.198 C88.082,21.074 88.412,16.893 88.412,14.165 L88.412,13.13 L90.898,13.13 L90.898,14.231 C90.898,14.847 90.876,15.529 90.832,16.277 C91.559,19.555 93.011,22.372 95.497,23.648 C94.925,24.154 94.133,25.166 93.759,25.87 C91.999,24.77 90.766,22.988 89.886,20.81 Z M91.581,15.309 C91.867,14.385 92.175,13.042 92.417,11.7 L88.148,11.7 C87.642,13.372 87.026,14.847 86.3,16.035 C85.948,15.705 85.244,15.133 84.65,14.737 L84.65,15.639 L75.694,15.639 L75.694,13.526 L84.65,13.526 L84.672,13.659 C85.816,11.546 86.498,8.488 86.828,5.407 L89.358,5.759 C89.204,6.97 89.006,8.18 88.764,9.324 L93.121,9.324 L93.495,9.214 L95.321,9.72 C94.881,11.876 94.265,14.363 93.693,15.969 L91.581,15.309 Z M81.393,10.38 L84.782,10.38 L84.782,12.492 L75.562,12.492 L75.562,10.38 L78.951,10.38 L78.951,9.258 L75.012,9.258 L75.012,7.124 L78.951,7.124 L78.951,5.517 L81.393,5.517 L81.393,7.124 L85.266,7.124 L85.266,9.258 L81.393,9.258 L81.393,10.38 Z M85.53,18.829 L81.415,18.829 L81.415,23.45 C81.415,24.528 81.261,25.144 80.535,25.496 C79.853,25.87 78.951,25.914 77.763,25.914 C77.675,25.21 77.344,24.286 77.058,23.648 C77.741,23.67 78.445,23.67 78.687,23.67 C78.907,23.67 78.973,23.604 78.973,23.406 L78.973,18.829 L74.726,18.829 L74.726,16.673 L85.53,16.673 L85.53,18.829 Z M78.247,19.731 C77.829,21.338 77.102,23.208 76.486,24.396 C76.002,24.11 75.034,23.692 74.484,23.516 C75.144,22.394 75.716,20.722 76.112,19.247 L78.247,19.731 Z M67.908,23.142 C67.908,24.462 67.688,25.144 66.742,25.54 C65.818,25.892 64.52,25.936 62.76,25.914 C62.672,25.166 62.363,24.154 62.033,23.406 C63.134,23.472 64.432,23.472 64.784,23.472 C65.158,23.45 65.268,23.362 65.268,23.076 L65.268,20.391 L59.679,20.391 L59.679,17.949 L65.268,17.949 L65.268,16.409 C65.95,15.991 66.676,15.397 67.358,14.781 L61.395,14.781 L61.395,12.426 L69.757,12.426 L70.307,12.272 L71.957,13.615 C70.835,14.803 69.361,16.101 67.908,17.113 L67.908,17.949 L73.123,17.949 L73.123,20.391 L67.908,20.391 L67.908,23.142 Z M58.403,15.221 L58.403,25.87 L55.763,25.87 L55.763,18.191 C55.102,18.785 54.442,19.313 53.694,19.819 C53.43,19.137 52.858,17.971 52.462,17.311 C54.838,15.749 56.753,13.35 58.095,10.71 L53.254,10.71 L53.254,8.202 L59.217,8.202 C59.569,7.234 59.877,6.287 60.119,5.341 L62.848,6.001 C62.628,6.75 62.363,7.454 62.099,8.202 L72.793,8.202 L72.793,10.71 L61.065,10.71 C60.317,12.294 59.437,13.813 58.403,15.221 Z M85.398,22.57 L83.351,23.428 C83.109,22.548 82.537,21.074 82.031,19.951 L83.967,19.203 C84.518,20.259 85.134,21.668 85.398,22.57 Z" id="形状" fill="url(#linearGradient-7)" fill-rule="nonzero"></path>
        </g>
    </g>
</svg>
