<?xml version="1.0" encoding="UTF-8"?>
<svg width="477px" height="390px" viewBox="0 0 477 390" version="1.1" xmlns="http://www.w3.org/2000/svg" xmlns:xlink="http://www.w3.org/1999/xlink">
    <title>yhhx_kuang_you1</title>
    <defs>
        <linearGradient x1="0%" y1="0%" x2="100%" y2="0%" id="linearGradient-1">
            <stop stop-color="#030E6A" stop-opacity="0.8" offset="0%"></stop>
            <stop stop-color="#030E6A" stop-opacity="0" offset="100%"></stop>
        </linearGradient>
        <linearGradient x1="50%" y1="0%" x2="50%" y2="100%" id="linearGradient-2">
            <stop stop-color="#031270" offset="0%"></stop>
            <stop stop-color="#031270" stop-opacity="0.584380463" offset="40.8134834%"></stop>
            <stop stop-color="#031270" offset="100%"></stop>
        </linearGradient>
        <linearGradient x1="19.6284089%" y1="16.575175%" x2="28.9870627%" y2="83.424825%" id="linearGradient-3">
            <stop stop-color="#2845FB" offset="0%"></stop>
            <stop stop-color="#2845FB" stop-opacity="0.0366586538" offset="22.8845276%"></stop>
            <stop stop-color="#2845FB" offset="50.2340994%"></stop>
            <stop stop-color="#2845FB" stop-opacity="0" offset="100%"></stop>
        </linearGradient>
        <linearGradient x1="100%" y1="72.4361727%" x2="0%" y2="72.4361727%" id="linearGradient-4">
            <stop stop-color="#0A54FF" stop-opacity="0" offset="0%"></stop>
            <stop stop-color="#0A54FF" offset="100%"></stop>
        </linearGradient>
        <linearGradient x1="0%" y1="0%" x2="100%" y2="0%" id="linearGradient-5">
            <stop stop-color="#4BAAE4" stop-opacity="0" offset="0%"></stop>
            <stop stop-color="#4BAAE4" offset="12.7349213%"></stop>
            <stop stop-color="#005174" stop-opacity="0" offset="100%"></stop>
        </linearGradient>
        <linearGradient x1="0%" y1="0%" x2="100%" y2="0%" id="linearGradient-6">
            <stop stop-color="#4BAAE4" stop-opacity="0" offset="0%"></stop>
            <stop stop-color="#4BAAE4" offset="12.7349213%"></stop>
            <stop stop-color="#005174" stop-opacity="0" offset="100%"></stop>
        </linearGradient>
        <linearGradient x1="0%" y1="0%" x2="99.939%" y2="3.49%" id="linearGradient-7">
            <stop stop-color="#00C0FF" offset="0%"></stop>
            <stop stop-color="#43F0FF" offset="49%"></stop>
            <stop stop-color="#00C0FF" offset="100%"></stop>
        </linearGradient>
    </defs>
    <g id="页面-1" stroke="none" stroke-width="1" fill="none" fill-rule="evenodd">
        <g id="yhhx_kuang_you1">
            <polygon id="路径" fill="url(#linearGradient-1)" points="252 0 0 0 0 32 279 32"></polygon>
            <polygon id="路径" fill="url(#linearGradient-2)" opacity="0.302" points="253.13219 0.134990042 279.289771 31.5596718 477 31.0527092 477 390 0 390 0 0"></polygon>
            <path d="M0.5,0.500268707 L252.896823,0.635873617 L279.05501,32.2516072 L476.5,31.7422914 L476.5,389.503 L0.5,389.503 L0.5,0.500268707 Z" id="路径" stroke="url(#linearGradient-3)"></path>
            <polygon id="路径" fill="url(#linearGradient-4)" opacity="0.302" points="-5.68434189e-14 0 252.544 0 279.544 32 -5.68434189e-14 32"></polygon>
            <path d="M24.275,7.635 L29.784,7.635 C32.067,7.635 33.917,9.466 33.917,11.725 L25.644,23.901 C24.566,24.843 22.419,26.729 20.142,26.7240099 L14.632,26.7240099 C12.35,26.7240099 10.5,24.892 10.5,22.633 L18.765,10.362 C20.853,8.295 21.448,7.635 24.275,7.635 Z" id="路径" fill="#00D4E8"></path>
            <path d="M31.162,4.908 L36.672,4.908 C38.954,4.908 40.804,6.739 40.804,8.998 L32.531,21.174 C31.453,22.116 29.306,24.002 27.03,23.9970099 L21.52,23.9970099 C19.238,23.9970099 17.387,22.165 17.387,19.906 L25.652,7.635 C27.741,5.568 28.335,4.908 31.162,4.908 Z" id="路径" fill="#2845FB" opacity="0.502"></path>
            <polyline id="路径" stroke="url(#linearGradient-5)" points="430.5 26.5 297.5 26.5 283.5 10.5"></polyline>
            <polyline id="路径" stroke="url(#linearGradient-6)" opacity="0.4" points="434.709 19.479 301.01 19.479 288.5 4.5"></polyline>
            <polygon id="路径" fill="#1050D3" opacity="0.2" points="467.237 12.479 462.422 12.479 470.043 23.099 474.858 23.099"></polygon>
            <polygon id="路径" fill="#2563E1" opacity="0.502" points="457.002 12.479 452.187 12.479 459.807 23.099 464.622 23.099"></polygon>
            <polygon id="路径" fill="#4680F5" points="446.767 12.479 441.952 12.479 449.572 23.099 454.387 23.099"></polygon>
            <path d="M267.857,25.914 L265.15,25.914 L265.15,24.946 L256.899,24.946 L256.899,25.914 L254.281,25.914 L254.281,19.093 C253.203,19.467 252.124,19.753 251.024,20.017 C250.782,19.313 250.166,18.191 249.682,17.597 C252.19,17.113 254.699,16.299 256.943,15.199 C256.085,14.429 255.073,13.592 254.237,12.954 L256.261,11.458 C257.229,12.14 258.417,13.02 259.385,13.879 C261.168,12.756 262.708,11.414 263.874,9.896 L256.833,9.896 C255.447,11.084 253.819,12.206 251.904,13.174 C251.508,12.536 250.694,11.546 250.1,11.084 C253.687,9.522 256.107,7.322 257.449,5.253 L260.376,5.869 C259.98,6.419 259.584,6.97 259.143,7.52 L265.568,7.52 L266.008,7.388 L267.813,8.466 C266.294,11.634 263.786,14.143 260.75,16.057 L267.857,16.057 L267.857,25.914 Z M265.15,18.433 L256.899,18.433 L256.899,22.592 L265.15,22.592 L265.15,18.433 Z M244.999,25.914 L242.49,25.914 L242.49,5.605 L244.999,5.605 L244.999,8.84 L248.013,8.84 L248.013,11.128 L244.999,11.128 L244.999,13.504 L247.837,13.504 L247.837,15.771 L244.999,15.771 L244.999,18.191 L248.277,18.191 L248.277,20.546 L244.999,20.546 L244.999,25.914 Z M238.486,20.501 L235.163,20.501 L235.163,18.147 L238.486,18.147 L238.486,15.771 L235.713,15.771 L235.713,13.504 L238.486,13.504 L238.486,11.128 L235.647,11.128 L235.647,8.84 L238.486,8.84 L238.486,5.627 L240.994,5.627 L240.994,25.87 L238.486,25.87 L238.486,20.501 Z M234.921,14.759 L235.229,17.157 C234.481,17.355 233.733,17.575 232.963,17.773 L232.963,22.988 C232.963,24.22 232.743,24.836 232.039,25.232 C231.357,25.628 230.366,25.694 228.958,25.694 C228.87,25.034 228.54,24.022 228.232,23.362 C229.002,23.384 229.816,23.384 230.08,23.384 C230.366,23.384 230.454,23.296 230.454,23.01 L230.454,18.433 C229.618,18.653 228.826,18.873 228.078,19.049 L227.682,16.497 C228.474,16.343 229.42,16.123 230.454,15.881 L230.454,11.964 L227.968,11.964 L227.968,9.544 L230.454,9.544 L230.454,5.385 L232.963,5.385 L232.963,9.544 L234.943,9.544 L234.943,11.964 L232.963,11.964 L232.963,15.265 L234.921,14.759 Z M222.647,23.296 L223.593,23.296 C224.011,23.296 224.099,22.834 224.165,20.193 C224.693,20.612 225.749,21.03 226.453,21.228 C226.233,24.638 225.595,25.65 223.857,25.65 L222.162,25.65 C220.072,25.65 219.588,24.836 219.588,22.438 L219.588,15.705 L217.718,15.705 C217.476,20.656 216.75,24 212.327,25.892 C212.019,25.232 211.337,24.264 210.787,23.78 C214.527,22.306 214.989,19.775 215.143,15.705 L213.053,15.705 L213.053,6.331 L224.847,6.331 L224.847,15.705 L222.206,15.705 L222.206,22.438 C222.206,23.186 222.25,23.296 222.647,23.296 Z M222.052,8.752 L215.65,8.752 L215.65,13.284 L222.052,13.284 L222.052,8.752 Z M205.572,23.34 C206.76,21.602 208.41,18.741 209.753,16.079 L211.689,17.795 C210.523,20.215 209.159,22.812 207.838,25.034 L205.572,23.34 Z M205.88,7.476 L207.904,6.067 C209.159,7.432 210.853,9.368 211.623,10.622 L209.445,12.228 C208.763,10.952 207.178,8.928 205.88,7.476 Z M189.799,12.316 L195.63,12.316 L195.63,11.37 L191.075,11.37 L191.119,11.48 L189.403,12.316 C189.249,11.678 188.941,10.754 188.589,9.896 L188.589,25.892 L186.234,25.892 L186.234,5.363 L188.589,5.363 L188.589,8.884 L189.843,8.356 C190.305,9.302 190.811,10.534 191.075,11.348 L191.075,9.61 L195.63,9.61 L195.63,8.73 L190.481,8.73 L190.481,6.86 L195.63,6.86 L195.63,5.363 L198.226,5.363 L198.226,6.86 L203.551,6.86 L203.551,8.73 L198.226,8.73 L198.226,9.61 L202.957,9.61 L202.957,11.37 L198.226,11.37 L198.226,12.316 L204.211,12.316 L204.211,14.187 L189.799,14.187 L189.799,12.316 Z M183.44,15.441 C183.902,13.945 184.232,11.48 184.342,9.698 L186.19,9.94 C186.146,11.766 185.794,14.385 185.332,16.079 L183.44,15.441 Z M179.153,23.076 C179.681,23.076 179.945,21.976 180.055,19.225 C180.649,19.841 181.573,20.413 182.277,20.7 C181.859,24.77 180.979,25.738 178.933,25.738 C177.392,25.738 176.182,24.638 175.214,22.834 C174.092,24 172.86,24.99 171.496,25.826 C171.099,25.254 170.153,24.176 169.603,23.67 C171.297,22.746 172.816,21.536 174.092,20.105 C173.344,17.619 172.86,14.539 172.574,11.238 L166.193,11.238 L166.193,13.592 L171.628,13.592 C171.628,13.592 171.606,14.275 171.606,14.583 C171.54,19.203 171.408,21.162 170.901,21.8 C170.483,22.372 170.043,22.57 169.383,22.68 C168.811,22.768 167.865,22.768 166.853,22.746 C166.809,21.976 166.523,20.964 166.127,20.303 C166.919,20.369 167.667,20.391 168.019,20.391 C168.327,20.391 168.503,20.347 168.679,20.127 C168.899,19.819 168.987,18.763 169.053,15.991 L166.193,15.991 C166.105,19.203 165.643,23.494 163.838,26.178 C163.376,25.672 162.21,24.704 161.616,24.396 C163.288,21.756 163.442,17.927 163.442,15.067 L163.442,8.642 L172.42,8.642 C172.376,7.564 172.332,6.485 172.332,5.385 L175.082,5.385 C175.06,6.485 175.082,7.564 175.126,8.642 L178.493,8.642 C177.678,7.982 176.578,7.278 175.676,6.728 L177.26,5.165 C178.471,5.781 180.077,6.794 180.847,7.52 L179.791,8.642 L182.079,8.642 L182.079,11.238 L175.28,11.238 C175.478,13.438 175.786,15.507 176.16,17.267 C177.018,15.793 177.744,14.165 178.272,12.382 L180.891,13.02 C179.989,15.881 178.691,18.433 177.106,20.568 C177.744,22.152 178.449,23.076 179.153,23.076 Z M154.82,23.208 L156.933,23.208 C157.637,23.208 157.747,22.834 157.857,20.568 C158.385,20.964 159.485,21.382 160.211,21.558 C159.925,24.748 159.243,25.606 157.175,25.606 L154.424,25.606 C151.872,25.606 151.256,24.814 151.256,22.438 L151.256,18.213 L148.307,18.213 C148.021,22.416 146.987,24.77 141.178,25.914 C140.98,25.254 140.298,24.22 139.792,23.692 C144.765,22.878 145.425,21.382 145.623,18.213 L140.188,18.213 L140.188,15.749 L159.793,15.749 L159.793,18.213 L153.918,18.213 L153.918,22.416 C153.918,23.12 154.05,23.208 154.82,23.208 Z M144.215,14.143 L144.215,11.722 L155.59,11.722 L155.59,14.143 L144.215,14.143 Z M156.603,10.138 L143.203,10.138 L143.203,13.086 L140.606,13.086 L140.606,7.63 L148.637,7.63 C148.417,7.036 148.153,6.441 147.889,5.913 L150.574,5.121 C151.014,5.891 151.476,6.816 151.762,7.63 L159.353,7.63 L159.353,13.086 L156.603,13.086 L156.603,10.138 Z M138.321,13.813 C137.793,14.385 137.199,15.419 136.869,16.101 C133.502,15.859 130.51,15.331 128.024,14.407 C125.207,15.375 122.105,15.991 119.002,16.365 C118.826,15.705 118.386,14.671 117.99,14.077 C120.388,13.879 122.787,13.504 124.987,12.932 C124.129,12.426 123.381,11.81 122.677,11.106 C121.929,11.634 121.115,12.162 120.19,12.624 C119.882,12.008 119.156,11.018 118.672,10.6 C121.775,9.192 123.821,7.212 124.943,5.341 L127.606,5.891 C127.275,6.419 126.923,6.948 126.527,7.454 L134.757,7.454 L135.131,7.344 L136.781,8.4 C135.461,10.314 133.568,11.81 131.302,12.976 C133.392,13.438 135.769,13.703 138.321,13.813 Z M132.512,9.632 L124.525,9.632 L124.371,9.764 C125.273,10.688 126.483,11.436 128.002,12.03 C129.762,11.392 131.302,10.6 132.512,9.632 Z M110.666,22.658 L115.947,22.658 L115.947,25.166 L102.921,25.166 L102.921,22.658 L108.004,22.658 L108.004,17.025 L102.041,17.025 L102.041,14.495 L108.004,14.495 L108.004,9.61 C106.464,9.874 104.901,10.072 103.427,10.248 C103.317,9.61 102.965,8.686 102.679,8.07 C102.283,8.972 101.821,9.852 101.315,10.71 L101.315,25.892 L98.697,25.892 L98.697,14.627 C98.102,15.375 97.53,16.057 96.914,16.651 C96.65,16.013 95.836,14.561 95.374,13.901 C97.574,11.876 99.665,8.686 100.875,5.429 L103.471,6.243 C103.229,6.838 102.987,7.41 102.701,8.004 C106.662,7.498 110.996,6.661 113.725,5.671 L115.639,7.872 C114.143,8.378 112.449,8.796 110.666,9.126 L110.666,14.495 L116.167,14.495 L116.167,17.025 L110.666,17.025 L110.666,22.658 Z M86.554,25.936 L83.848,25.936 L83.848,21.228 L73.946,21.228 L73.946,18.719 L77.423,18.719 L77.423,12.954 L83.848,12.954 L83.848,10.314 L79.139,10.314 C78.237,11.876 77.181,13.284 76.146,14.319 C75.64,13.879 74.518,12.998 73.88,12.624 C75.86,10.952 77.555,8.136 78.501,5.297 L81.163,5.979 C80.965,6.595 80.723,7.19 80.437,7.784 L92.869,7.784 L92.869,10.314 L86.554,10.314 L86.554,12.954 L92.363,12.954 L92.363,15.375 L86.554,15.375 L86.554,18.719 L94.079,18.719 L94.079,21.228 L86.554,21.228 L86.554,25.936 Z M83.848,15.375 L80.041,15.375 L80.041,18.719 L83.848,18.719 L83.848,15.375 Z M65.5,11.524 C66.358,10.006 67.37,7.74 67.898,6.023 L70.825,6.882 C69.857,8.84 68.735,10.93 67.788,12.316 L65.5,11.524 Z M70.451,25.914 L67.656,25.914 L67.656,25.012 L53.398,25.012 L53.398,22.416 L67.656,22.416 L67.656,20.127 L54.653,20.127 L54.653,17.597 L67.656,17.597 L67.656,15.573 L53.904,15.573 L53.904,12.954 L60.571,12.954 L60.571,5.341 L63.454,5.341 L63.454,12.954 L70.451,12.954 L70.451,25.914 Z M53.376,7.168 L55.753,6.221 C56.919,7.74 57.997,9.764 58.481,11.172 L55.951,12.228 C55.533,10.842 54.454,8.708 53.376,7.168 Z M119.618,19.775 L119.618,17.553 L125.845,17.553 C125.977,16.959 126.109,16.365 126.197,15.683 L128.904,15.903 C128.794,16.497 128.684,17.025 128.53,17.553 L136.517,17.553 C136.517,17.553 136.451,18.257 136.385,18.609 C135.901,22.35 135.351,24.11 134.537,24.814 C133.898,25.408 133.194,25.584 132.204,25.628 C131.39,25.672 129.982,25.672 128.53,25.606 C128.486,24.924 128.156,23.978 127.716,23.362 C129.146,23.494 130.73,23.516 131.39,23.516 C131.852,23.516 132.16,23.494 132.446,23.274 C132.886,22.922 133.304,21.844 133.634,19.775 L127.76,19.775 C126.263,22.988 123.667,24.77 119.684,25.87 C119.42,25.32 118.65,24.22 118.166,23.714 C121.379,23.054 123.601,21.866 124.877,19.775 L119.618,19.775 Z M202.737,23.406 C202.737,24.55 202.517,25.166 201.725,25.518 C200.955,25.892 199.854,25.892 198.336,25.892 C198.248,25.254 197.94,24.308 197.632,23.67 C198.534,23.736 199.568,23.714 199.854,23.714 C200.162,23.714 200.272,23.626 200.272,23.362 L200.272,22.636 L193.694,22.636 L193.694,25.936 L191.273,25.936 L191.273,15.023 L202.737,15.023 L202.737,23.406 Z M200.272,16.937 L193.694,16.937 L193.694,17.971 L200.272,17.971 L200.272,16.937 Z M200.272,19.819 L193.694,19.819 L193.694,20.832 L200.272,20.832 L200.272,19.819 Z" id="形状" fill="url(#linearGradient-7)" fill-rule="nonzero"></path>
        </g>
    </g>
</svg>
