<?xml version="1.0" encoding="UTF-8"?>
<svg width="477px" height="316px" viewBox="0 0 477 316" version="1.1" xmlns="http://www.w3.org/2000/svg" xmlns:xlink="http://www.w3.org/1999/xlink">
    <title>yhhx_kuang_you3</title>
    <defs>
        <linearGradient x1="0%" y1="0%" x2="100%" y2="0%" id="linearGradient-1">
            <stop stop-color="#030E6A" stop-opacity="0.8" offset="0%"></stop>
            <stop stop-color="#030E6A" stop-opacity="0" offset="100%"></stop>
        </linearGradient>
        <linearGradient x1="50%" y1="0%" x2="50%" y2="100%" id="linearGradient-2">
            <stop stop-color="#031270" offset="0%"></stop>
            <stop stop-color="#031270" stop-opacity="0.584380463" offset="40.8134834%"></stop>
            <stop stop-color="#031270" offset="100%"></stop>
        </linearGradient>
        <linearGradient x1="19.6284089%" y1="28.0560069%" x2="28.9870627%" y2="71.9439931%" id="linearGradient-3">
            <stop stop-color="#2845FB" offset="0%"></stop>
            <stop stop-color="#2845FB" stop-opacity="0.0366586538" offset="22.8845276%"></stop>
            <stop stop-color="#2845FB" offset="50.2340994%"></stop>
            <stop stop-color="#2845FB" stop-opacity="0" offset="100%"></stop>
        </linearGradient>
        <linearGradient x1="100%" y1="72.4361727%" x2="0%" y2="72.4361727%" id="linearGradient-4">
            <stop stop-color="#0A54FF" stop-opacity="0" offset="0%"></stop>
            <stop stop-color="#0A54FF" offset="100%"></stop>
        </linearGradient>
        <linearGradient x1="0%" y1="0%" x2="100%" y2="0%" id="linearGradient-5">
            <stop stop-color="#4BAAE4" stop-opacity="0" offset="0%"></stop>
            <stop stop-color="#4BAAE4" offset="12.7349213%"></stop>
            <stop stop-color="#005174" stop-opacity="0" offset="100%"></stop>
        </linearGradient>
        <linearGradient x1="0%" y1="0%" x2="100%" y2="0%" id="linearGradient-6">
            <stop stop-color="#4BAAE4" stop-opacity="0" offset="0%"></stop>
            <stop stop-color="#4BAAE4" offset="12.7349213%"></stop>
            <stop stop-color="#005174" stop-opacity="0" offset="100%"></stop>
        </linearGradient>
        <linearGradient x1="0%" y1="-1.11022302e-14%" x2="99.939%" y2="3.49%" id="linearGradient-7">
            <stop stop-color="#00C0FF" offset="0%"></stop>
            <stop stop-color="#43F0FF" offset="49%"></stop>
            <stop stop-color="#00C0FF" offset="100%"></stop>
        </linearGradient>
    </defs>
    <g id="页面-1" stroke="none" stroke-width="1" fill="none" fill-rule="evenodd">
        <g id="yhhx_kuang_you3">
            <polygon id="路径" fill="url(#linearGradient-1)" points="252 0 0 0 0 32 279 32"></polygon>
            <polygon id="路径" fill="url(#linearGradient-2)" opacity="0.302" points="253.13219 0.134990042 279.289771 31.5596718 477 31.0527092 477 316 0 316 0 0"></polygon>
            <path d="M0.5,0.500268707 L252.896823,0.635873617 L279.05501,32.2516072 L476.5,31.7422914 L476.5,315.503 L0.5,315.503 L0.5,0.500268707 Z" id="路径" stroke="url(#linearGradient-3)"></path>
            <polygon id="路径" fill="url(#linearGradient-4)" opacity="0.302" points="0 0 252.544 0 279.544 32 0 32"></polygon>
            <path d="M24.275,7.635 L29.784,7.635 C32.067,7.635 33.917,9.466 33.917,11.725 L25.644,23.901 C24.566,24.843 22.419,26.729 20.142,26.7240099 L14.632,26.7240099 C12.35,26.7240099 10.5,24.892 10.5,22.633 L18.765,10.362 C20.853,8.295 21.448,7.635 24.275,7.635 Z" id="路径" fill="#00D4E8"></path>
            <path d="M31.162,4.908 L36.672,4.908 C38.954,4.908 40.804,6.739 40.804,8.998 L32.531,21.174 C31.453,22.116 29.306,24.002 27.03,23.9970099 L21.52,23.9970099 C19.238,23.9970099 17.387,22.165 17.387,19.906 L25.652,7.635 C27.741,5.568 28.335,4.908 31.162,4.908 Z" id="路径" fill="#2845FB" opacity="0.502"></path>
            <polyline id="路径" stroke="url(#linearGradient-5)" points="430.5 26.5 297.5 26.5 283.5 10.5"></polyline>
            <polyline id="路径" stroke="url(#linearGradient-6)" opacity="0.4" points="434.709 19.479 301.01 19.479 288.5 4.5"></polyline>
            <polygon id="路径" fill="#1050D3" opacity="0.2" points="467.237 12.479 462.422 12.479 470.043 23.099 474.858 23.099"></polygon>
            <polygon id="路径" fill="#2563E1" opacity="0.502" points="457.002 12.479 452.187 12.479 459.807 23.099 464.622 23.099"></polygon>
            <polygon id="路径" fill="#4680F5" points="446.767 12.479 441.952 12.479 449.572 23.099 454.387 23.099"></polygon>
            <path d="M160.857,25.914 L158.15,25.914 L158.15,24.946 L149.899,24.946 L149.899,25.914 L147.281,25.914 L147.281,19.093 C146.203,19.467 145.124,19.753 144.024,20.017 C143.782,19.313 143.166,18.191 142.682,17.597 C145.19,17.113 147.699,16.299 149.943,15.199 C149.085,14.429 148.073,13.592 147.237,12.954 L149.261,11.458 C150.229,12.14 151.417,13.02 152.385,13.879 C154.168,12.756 155.708,11.414 156.874,9.896 L149.833,9.896 C148.447,11.084 146.819,12.206 144.904,13.174 C144.508,12.536 143.694,11.546 143.1,11.084 C146.687,9.522 149.107,7.322 150.449,5.253 L153.376,5.869 C152.98,6.419 152.584,6.97 152.143,7.52 L158.568,7.52 L159.008,7.388 L160.813,8.466 C159.294,11.634 156.786,14.143 153.75,16.057 L160.857,16.057 L160.857,25.914 Z M158.15,18.433 L149.899,18.433 L149.899,22.592 L158.15,22.592 L158.15,18.433 Z M137.999,25.914 L135.49,25.914 L135.49,5.605 L137.999,5.605 L137.999,8.84 L141.013,8.84 L141.013,11.128 L137.999,11.128 L137.999,13.504 L140.837,13.504 L140.837,15.771 L137.999,15.771 L137.999,18.191 L141.277,18.191 L141.277,20.546 L137.999,20.546 L137.999,25.914 Z M131.486,20.501 L128.163,20.501 L128.163,18.147 L131.486,18.147 L131.486,15.771 L128.713,15.771 L128.713,13.504 L131.486,13.504 L131.486,11.128 L128.647,11.128 L128.647,8.84 L131.486,8.84 L131.486,5.627 L133.994,5.627 L133.994,25.87 L131.486,25.87 L131.486,20.501 Z M127.921,14.759 L128.229,17.157 C127.481,17.355 126.733,17.575 125.963,17.773 L125.963,22.988 C125.963,24.22 125.743,24.836 125.039,25.232 C124.357,25.628 123.366,25.694 121.958,25.694 C121.87,25.034 121.54,24.022 121.232,23.362 C122.002,23.384 122.816,23.384 123.08,23.384 C123.366,23.384 123.454,23.296 123.454,23.01 L123.454,18.433 C122.618,18.653 121.826,18.873 121.078,19.049 L120.682,16.497 C121.474,16.343 122.42,16.123 123.454,15.881 L123.454,11.964 L120.968,11.964 L120.968,9.544 L123.454,9.544 L123.454,5.385 L125.963,5.385 L125.963,9.544 L127.943,9.544 L127.943,11.964 L125.963,11.964 L125.963,15.265 L127.921,14.759 Z M110.674,24.286 C108.584,25.034 106.207,25.496 103.721,25.76 C103.523,25.144 103.039,24.154 102.643,23.582 C104.469,23.428 106.229,23.208 107.835,22.812 C106.823,22.13 105.921,21.316 105.173,20.413 L106.053,20.061 L103.721,20.061 L103.721,18.015 L115.559,18.015 L116.021,17.927 L117.649,18.763 C116.725,20.479 115.405,21.8 113.776,22.834 C115.449,23.23 117.297,23.472 119.299,23.626 C118.793,24.176 118.133,25.232 117.803,25.892 C115.118,25.628 112.742,25.122 110.674,24.286 Z M107.901,20.061 C108.672,20.766 109.662,21.36 110.806,21.844 C111.928,21.36 112.896,20.788 113.71,20.061 L107.901,20.061 Z M106.515,17.135 L106.515,13.703 L103.545,13.703 L103.545,11.656 L106.515,11.656 L106.515,10.204 L108.98,10.204 L108.98,11.656 L112.984,11.656 L112.984,10.204 L115.581,10.204 L115.581,11.656 L118.749,11.656 L118.749,13.703 L115.581,13.703 L115.581,17.135 L106.515,17.135 Z M112.984,13.703 L108.98,13.703 L108.98,15.155 L112.984,15.155 L112.984,13.703 Z M103.105,13.086 C103.105,16.783 102.819,22.284 100.992,25.87 C100.464,25.496 99.276,24.946 98.594,24.748 C100.354,21.36 100.508,16.453 100.508,13.108 L100.508,7.256 L108.716,7.256 C108.562,6.75 108.385,6.221 108.187,5.803 L110.85,5.209 C111.158,5.825 111.466,6.573 111.686,7.256 L118.947,7.256 L118.947,9.698 L103.105,9.698 L103.105,13.086 Z M91.996,21.074 L94.109,20.149 C95.165,21.316 96.309,22.922 96.793,24.044 L94.527,25.056 C94.131,23.978 93.03,22.306 91.996,21.074 Z M77.518,10.16 L82.117,10.16 C82.007,9.742 81.831,9.302 81.677,8.95 L83.327,8.62 L78.596,8.62 L78.596,6.595 L85.725,6.595 C85.615,6.243 85.483,5.869 85.351,5.561 L87.904,5.099 C88.146,5.539 88.366,6.089 88.542,6.595 L95.385,6.595 L95.385,8.62 L90.874,8.62 L92.634,8.928 C92.37,9.368 92.15,9.786 91.93,10.16 L96.551,10.16 L96.551,12.184 L77.518,12.184 L77.518,10.16 Z M84.757,10.16 L89.246,10.16 C89.466,9.654 89.708,9.082 89.862,8.62 L84.141,8.62 C84.383,9.104 84.625,9.698 84.757,10.16 Z M81.809,21.316 C81.149,22.702 80.225,24.308 79.08,25.364 L76.902,24.088 C78.046,23.142 79.036,21.668 79.631,20.347 L81.809,21.316 Z M70.898,14.539 L74.683,14.539 L74.683,23.802 C74.683,24.814 74.485,25.21 73.825,25.518 C73.187,25.782 72.219,25.782 70.898,25.782 C70.788,25.254 70.524,24.594 70.26,24.11 C70.964,24.154 71.735,24.154 71.955,24.132 C72.219,24.132 72.307,24.066 72.307,23.824 L72.307,21.206 L70.898,22.372 C70.722,21.888 70.392,21.272 70.018,20.634 C69.71,21.69 69.248,22.636 68.61,23.45 C68.258,23.142 67.334,22.482 66.85,22.24 C67.422,21.58 67.84,20.81 68.126,19.929 L67.048,21.118 C66.872,20.854 66.608,20.523 66.3,20.215 C65.992,21.272 65.508,22.24 64.804,23.032 C64.54,22.724 63.835,22.108 63.329,21.756 L63.329,25.804 L60.821,25.804 L60.821,14.539 L65.002,14.539 C65.002,14.099 65.002,13.659 65.002,13.196 L60.403,13.196 L60.403,11.018 L75.123,11.018 L75.123,13.196 L70.942,13.196 C70.92,13.659 70.92,14.099 70.898,14.539 Z M63.329,16.805 L63.329,21.404 C64.275,20.215 64.716,18.675 64.892,16.805 L63.329,16.805 Z M66.784,17.993 C67.356,18.455 67.906,19.027 68.258,19.489 C68.5,18.653 68.654,17.773 68.742,16.805 L66.916,16.805 C66.894,17.223 66.85,17.619 66.784,17.993 Z M67.048,13.196 C67.048,13.659 67.048,14.099 67.048,14.539 L68.874,14.539 C68.896,14.099 68.896,13.659 68.896,13.196 L67.048,13.196 Z M70.634,17.905 C71.228,18.697 71.867,19.687 72.307,20.435 L72.307,16.805 L70.744,16.805 C70.722,17.179 70.678,17.553 70.634,17.905 Z M71.757,10.512 L69.292,10.512 L69.292,9.148 L66.212,9.148 L66.212,10.512 L63.791,10.512 L63.791,9.148 L60.645,9.148 L60.645,8.444 L59.061,10.204 C58.379,9.456 56.882,8.356 55.76,7.63 L57.366,5.869 C58.423,6.485 59.831,7.41 60.623,8.114 L60.623,6.97 L63.791,6.97 L63.791,5.363 L66.212,5.363 L66.212,6.97 L69.292,6.97 L69.292,5.363 L71.757,5.363 L71.757,6.97 L74.837,6.97 L74.837,9.148 L71.757,9.148 L71.757,10.512 Z M59.699,14.055 L58.071,16.035 C57.344,15.309 55.804,14.253 54.638,13.57 L56.178,11.788 C57.322,12.404 58.907,13.35 59.699,14.055 Z M60.711,18.631 C59.721,20.92 58.533,23.34 57.41,25.474 L55.1,23.802 C56.134,22.174 57.565,19.489 58.665,16.981 L60.711,18.631 Z M80.005,12.976 L94.175,12.976 L94.175,19.687 L87.442,19.687 C88.3,20.149 89.202,20.7 89.752,21.14 L88.146,22.746 C87.42,22.064 85.923,21.14 84.691,20.568 L85.593,19.687 L80.005,19.687 L80.005,12.976 Z M82.469,18.037 L91.578,18.037 L91.578,17.091 L82.469,17.091 L82.469,18.037 Z M82.469,15.551 L91.578,15.551 L91.578,14.605 L82.469,14.605 L82.469,15.551 Z M84.867,22.944 C84.867,23.516 85.043,23.582 86.033,23.582 L89.07,23.582 C89.884,23.582 90.016,23.34 90.126,21.8 C90.632,22.13 91.666,22.482 92.348,22.614 C92.062,25.056 91.358,25.672 89.312,25.672 L85.769,25.672 C82.997,25.672 82.315,25.034 82.315,22.966 L82.315,20.656 L84.867,20.656 L84.867,22.944 Z" id="形状" fill="url(#linearGradient-7)" fill-rule="nonzero"></path>
        </g>
    </g>
</svg>
