<?xml version="1.0" encoding="UTF-8"?>
<svg width="477px" height="310px" viewBox="0 0 477 310" version="1.1" xmlns="http://www.w3.org/2000/svg" xmlns:xlink="http://www.w3.org/1999/xlink">
    <title>yhhx_kuang_zuo1</title>
    <defs>
        <linearGradient x1="0%" y1="0%" x2="100%" y2="0%" id="linearGradient-1">
            <stop stop-color="#030E6A" stop-opacity="0.8" offset="0%"></stop>
            <stop stop-color="#030E6A" stop-opacity="0" offset="100%"></stop>
        </linearGradient>
        <linearGradient x1="50%" y1="0%" x2="50%" y2="100%" id="linearGradient-2">
            <stop stop-color="#031270" offset="0%"></stop>
            <stop stop-color="#031270" stop-opacity="0.584380463" offset="40.8134834%"></stop>
            <stop stop-color="#031270" offset="100%"></stop>
        </linearGradient>
        <linearGradient x1="19.6284089%" y1="28.8814041%" x2="28.9870627%" y2="71.1185959%" id="linearGradient-3">
            <stop stop-color="#2845FB" offset="0%"></stop>
            <stop stop-color="#2845FB" stop-opacity="0.0366586538" offset="22.8845276%"></stop>
            <stop stop-color="#2845FB" offset="50.2340994%"></stop>
            <stop stop-color="#2845FB" stop-opacity="0" offset="100%"></stop>
        </linearGradient>
        <linearGradient x1="100%" y1="72.4361727%" x2="0%" y2="72.4361727%" id="linearGradient-4">
            <stop stop-color="#0A54FF" stop-opacity="0" offset="0%"></stop>
            <stop stop-color="#0A54FF" offset="100%"></stop>
        </linearGradient>
        <linearGradient x1="0%" y1="0%" x2="100%" y2="0%" id="linearGradient-5">
            <stop stop-color="#4BAAE4" stop-opacity="0" offset="0%"></stop>
            <stop stop-color="#4BAAE4" offset="12.7349213%"></stop>
            <stop stop-color="#005174" stop-opacity="0" offset="100%"></stop>
        </linearGradient>
        <linearGradient x1="0%" y1="0%" x2="100%" y2="0%" id="linearGradient-6">
            <stop stop-color="#4BAAE4" stop-opacity="0" offset="0%"></stop>
            <stop stop-color="#4BAAE4" offset="12.7349213%"></stop>
            <stop stop-color="#005174" stop-opacity="0" offset="100%"></stop>
        </linearGradient>
        <linearGradient x1="0%" y1="0%" x2="99.939%" y2="3.49%" id="linearGradient-7">
            <stop stop-color="#00C0FF" offset="0%"></stop>
            <stop stop-color="#43F0FF" offset="49%"></stop>
            <stop stop-color="#00C0FF" offset="100%"></stop>
        </linearGradient>
    </defs>
    <g id="页面-1" stroke="none" stroke-width="1" fill="none" fill-rule="evenodd">
        <g id="yhhx_kuang_zuo1">
            <polygon id="路径" fill="url(#linearGradient-1)" points="252 0 0 0 0 32 279 32"></polygon>
            <polygon id="路径" fill="url(#linearGradient-2)" opacity="0.302" points="253.13219 0.134990042 279.289771 31.5596718 477 31.0527092 477 310 0 310 0 0"></polygon>
            <path d="M0.5,0.500268707 L252.896823,0.635873617 L279.05501,32.2516072 L476.5,31.7422914 L476.5,309.503 L0.5,309.503 L0.5,0.500268707 Z" id="路径" stroke="url(#linearGradient-3)"></path>
            <polygon id="路径" fill="url(#linearGradient-4)" opacity="0.302" points="-5.68434189e-14 0 252.544 0 279.544 32 -5.68434189e-14 32"></polygon>
            <path d="M24.275,7.635 L29.784,7.635 C32.067,7.635 33.917,9.466 33.917,11.725 L25.644,23.901 C24.566,24.843 22.419,26.729 20.142,26.7240099 L14.632,26.7240099 C12.35,26.7240099 10.5,24.892 10.5,22.633 L18.765,10.362 C20.853,8.295 21.448,7.635 24.275,7.635 Z" id="路径" fill="#00D4E8"></path>
            <path d="M31.162,4.908 L36.672,4.908 C38.954,4.908 40.804,6.739 40.804,8.998 L32.531,21.174 C31.453,22.116 29.306,24.002 27.03,23.9970099 L21.52,23.9970099 C19.238,23.9970099 17.387,22.165 17.387,19.906 L25.652,7.635 C27.741,5.568 28.335,4.908 31.162,4.908 Z" id="路径" fill="#2845FB" opacity="0.502"></path>
            <polyline id="路径" stroke="url(#linearGradient-5)" points="430.5 26.5 297.5 26.5 283.5 10.5"></polyline>
            <polyline id="路径" stroke="url(#linearGradient-6)" opacity="0.4" points="434.709 19.479 301.01 19.479 288.5 4.5"></polyline>
            <polygon id="路径" fill="#1050D3" opacity="0.2" points="467.237 12.479 462.422 12.479 470.043 23.099 474.858 23.099"></polygon>
            <polygon id="路径" fill="#2563E1" opacity="0.502" points="457.002 12.479 452.187 12.479 459.807 23.099 464.622 23.099"></polygon>
            <polygon id="路径" fill="#4680F5" points="446.767 12.479 441.952 12.479 449.572 23.099 454.387 23.099"></polygon>
            <path d="M180.857,25.914 L178.15,25.914 L178.15,24.946 L169.899,24.946 L169.899,25.914 L167.281,25.914 L167.281,19.093 C166.203,19.467 165.124,19.753 164.024,20.017 C163.782,19.313 163.166,18.191 162.682,17.597 C165.19,17.113 167.699,16.299 169.943,15.199 C169.085,14.429 168.073,13.592 167.237,12.954 L169.261,11.458 C170.229,12.14 171.417,13.02 172.385,13.879 C174.168,12.756 175.708,11.414 176.874,9.896 L169.833,9.896 C168.447,11.084 166.819,12.206 164.904,13.174 C164.508,12.536 163.694,11.546 163.1,11.084 C166.687,9.522 169.107,7.322 170.449,5.253 L173.376,5.869 C172.98,6.419 172.584,6.97 172.143,7.52 L178.568,7.52 L179.008,7.388 L180.813,8.466 C179.294,11.634 176.786,14.143 173.75,16.057 L180.857,16.057 L180.857,25.914 Z M178.15,18.433 L169.899,18.433 L169.899,22.592 L178.15,22.592 L178.15,18.433 Z M157.999,25.914 L155.49,25.914 L155.49,5.605 L157.999,5.605 L157.999,8.84 L161.013,8.84 L161.013,11.128 L157.999,11.128 L157.999,13.504 L160.837,13.504 L160.837,15.771 L157.999,15.771 L157.999,18.191 L161.277,18.191 L161.277,20.546 L157.999,20.546 L157.999,25.914 Z M151.486,20.501 L148.163,20.501 L148.163,18.147 L151.486,18.147 L151.486,15.771 L148.713,15.771 L148.713,13.504 L151.486,13.504 L151.486,11.128 L148.647,11.128 L148.647,8.84 L151.486,8.84 L151.486,5.627 L153.994,5.627 L153.994,25.87 L151.486,25.87 L151.486,20.501 Z M147.921,14.759 L148.229,17.157 C147.481,17.355 146.733,17.575 145.963,17.773 L145.963,22.988 C145.963,24.22 145.743,24.836 145.039,25.232 C144.357,25.628 143.366,25.694 141.958,25.694 C141.87,25.034 141.54,24.022 141.232,23.362 C142.002,23.384 142.816,23.384 143.08,23.384 C143.366,23.384 143.454,23.296 143.454,23.01 L143.454,18.433 C142.618,18.653 141.826,18.873 141.078,19.049 L140.682,16.497 C141.474,16.343 142.42,16.123 143.454,15.881 L143.454,11.964 L140.968,11.964 L140.968,9.544 L143.454,9.544 L143.454,5.385 L145.963,5.385 L145.963,9.544 L147.943,9.544 L147.943,11.964 L145.963,11.964 L145.963,15.265 L147.921,14.759 Z M137.847,25.738 C136.329,24.792 135.118,23.538 134.128,21.998 C132.874,23.67 131.29,24.99 129.244,26.024 C129.002,25.496 128.319,24.396 127.857,23.89 C130.08,22.9 131.708,21.514 132.83,19.687 C132.192,18.301 131.708,16.761 131.268,15.089 C130.916,15.793 130.52,16.453 130.102,17.047 C129.75,16.607 128.76,15.749 128.231,15.375 C129.992,13.086 130.96,9.368 131.466,5.429 L133.842,5.781 C133.666,7.014 133.446,8.246 133.182,9.412 L139.035,9.412 L139.035,11.832 L137.649,11.832 C137.231,14.913 136.571,17.487 135.537,19.643 C136.549,21.382 137.891,22.768 139.541,23.67 C138.969,24.132 138.199,25.078 137.847,25.738 Z M132.808,11.832 C133.138,13.592 133.578,15.287 134.15,16.849 C134.656,15.353 135.008,13.703 135.228,11.832 L132.808,11.832 Z M129.134,12.866 L127.769,14.693 C127.285,14.231 126.427,13.504 125.591,12.844 L125.591,15.243 L123.171,15.243 L123.171,13.262 C122.159,14.275 120.992,15.199 119.892,15.793 C119.606,15.221 119.034,14.363 118.55,13.879 C119.848,13.35 121.234,12.382 122.269,11.304 L119.012,11.304 L119.012,9.236 L120.728,9.236 C120.552,8.488 120.046,7.366 119.562,6.507 L121.41,5.737 C122.005,6.551 122.555,7.696 122.731,8.444 L120.948,9.236 L123.171,9.236 L123.171,5.363 L125.591,5.363 L125.591,9.236 L129.75,9.236 L129.75,11.304 L126.537,11.304 C127.527,11.876 128.76,12.602 129.134,12.866 Z M125.899,8.422 C126.405,7.652 126.999,6.463 127.351,5.649 L129.552,6.507 C128.826,7.498 128.143,8.488 127.571,9.17 L125.899,8.422 Z M107.42,22.328 C107.42,23.252 107.64,23.406 108.872,23.406 L112.7,23.406 C113.735,23.406 113.911,23.032 114.087,21.162 C114.659,21.558 115.715,21.954 116.441,22.108 C116.111,24.858 115.385,25.672 112.942,25.672 L108.586,25.672 C105.593,25.672 104.757,24.924 104.757,22.35 L104.757,21.492 L97.342,22.02 L97.122,19.775 L104.757,19.247 L104.757,17.861 L98.398,18.301 L98.156,16.145 L104.757,15.705 L104.757,14.583 C102.821,14.671 100.907,14.715 99.08,14.737 C99.036,14.099 98.75,13.174 98.508,12.58 C104.053,12.47 110.412,12.03 114.461,11.282 L115.583,13.46 C113.228,13.879 110.39,14.209 107.42,14.407 L107.42,15.551 L115.033,15.045 L115.253,17.135 L107.42,17.685 L107.42,19.071 L116.705,18.455 L116.947,20.656 L107.42,21.316 L107.42,22.328 Z M113.845,10.776 L111.578,11.612 C111.402,10.996 110.962,10.138 110.5,9.368 L109.642,9.368 C109.004,10.336 108.322,11.216 107.64,11.876 C107.134,11.458 106.033,10.732 105.395,10.402 C105.769,10.116 106.121,9.764 106.452,9.368 L103.657,9.368 C104.053,10.028 104.383,10.688 104.581,11.194 L102.315,12.096 C102.095,11.392 101.567,10.292 101.039,9.368 L100.709,9.368 C100.093,10.38 99.41,11.326 98.772,12.03 C98.266,11.634 97.166,10.952 96.572,10.6 C97.958,9.302 99.19,7.234 99.895,5.187 L102.403,5.847 C102.227,6.287 102.051,6.75 101.831,7.19 L106.606,7.19 L106.606,9.192 C107.552,8.048 108.322,6.617 108.806,5.187 L111.358,5.847 C111.204,6.287 111.006,6.75 110.808,7.19 L116.881,7.19 L116.881,9.368 L113.14,9.368 C113.449,9.874 113.713,10.38 113.845,10.776 Z M93.715,25.782 C92.307,24.792 91.14,23.582 90.128,22.108 C89.006,23.67 87.664,24.924 86.146,25.958 C85.772,25.32 85.046,24.44 84.518,24 C86.146,23.01 87.554,21.536 88.742,19.687 C87.444,16.981 86.608,13.725 85.992,10.116 L85.222,10.116 L85.222,7.652 L92.703,7.652 L93.143,7.564 L94.771,7.982 C94.287,12.822 93.231,16.695 91.603,19.797 C92.637,21.448 93.913,22.79 95.497,23.758 C94.925,24.198 94.133,25.122 93.715,25.782 Z M92.043,10.116 L88.28,10.116 C88.72,12.58 89.314,14.891 90.15,16.937 C91.008,14.935 91.647,12.646 92.043,10.116 Z M83.791,19.467 L85.486,19.225 L85.618,21.404 L83.791,21.734 L83.791,25.87 L81.239,25.87 L81.239,22.196 C79.083,22.57 77.036,22.922 75.32,23.186 L74.814,20.722 C75.232,20.678 75.738,20.612 76.266,20.546 L76.266,8.576 L75.056,8.576 L75.056,6.243 L85.068,6.243 L85.068,8.576 L83.791,8.576 L83.791,19.467 Z M81.239,8.576 L78.775,8.576 L78.775,10.82 L81.239,10.82 L81.239,8.576 Z M81.239,13.042 L78.775,13.042 L78.775,15.441 L81.239,15.441 L81.239,13.042 Z M81.239,17.663 L78.775,17.663 L78.775,20.193 L81.239,19.841 L81.239,17.663 Z M69.096,23.34 C69.845,23.34 72.573,23.34 73.519,23.318 C73.211,23.846 72.903,24.946 72.815,25.606 L68.986,25.606 C66.104,25.606 63.882,25.078 62.385,22.416 C61.813,23.802 61.043,24.968 60.075,25.87 C59.679,25.452 58.689,24.638 58.161,24.308 C59.987,22.856 60.889,20.413 61.219,17.421 L63.596,17.707 C63.486,18.499 63.354,19.247 63.178,19.929 C63.662,21.206 64.3,21.998 65.092,22.504 L65.092,16.761 L59.921,16.761 L59.921,14.649 L72.925,14.649 L72.925,16.761 L67.556,16.761 L67.556,18.697 L71.759,18.697 L71.759,20.744 L67.556,20.744 L67.556,23.274 C68.062,23.318 68.546,23.34 69.096,23.34 Z M60.999,6.045 L71.825,6.045 L71.825,13.637 L60.999,13.637 L60.999,6.045 Z M63.398,11.788 L69.316,11.788 L69.316,10.666 L63.398,10.666 L63.398,11.788 Z M63.398,8.972 L69.316,8.972 L69.316,7.872 L63.398,7.872 L63.398,8.972 Z M59.525,14.671 L59.877,17.025 L57.545,17.729 L57.545,22.856 C57.545,24.066 57.347,24.704 56.687,25.1 C56.027,25.54 55.058,25.628 53.65,25.606 C53.584,24.968 53.298,23.89 52.968,23.208 C53.782,23.23 54.53,23.23 54.794,23.208 C55.058,23.208 55.168,23.12 55.168,22.834 L55.168,18.433 C54.442,18.631 53.782,18.829 53.144,19.005 L52.55,16.475 C53.298,16.321 54.178,16.079 55.168,15.837 L55.168,11.942 L52.792,11.942 L52.792,9.522 L55.168,9.522 L55.168,5.363 L57.545,5.363 L57.545,9.522 L59.745,9.522 L59.745,11.942 L57.545,11.942 L57.545,15.199 L59.525,14.671 Z M119.826,20.744 C120.222,20.171 120.64,19.489 121.08,18.741 L119.408,18.741 L119.408,16.629 L122.159,16.629 C122.357,16.189 122.533,15.771 122.687,15.353 L124.997,15.771 C124.887,16.057 124.755,16.343 124.623,16.629 L127.417,16.629 L127.813,16.563 L129.222,17.091 C128.694,19.027 127.813,20.612 126.691,21.888 C127.285,22.218 127.813,22.548 128.253,22.856 L126.713,24.528 C126.273,24.198 125.701,23.802 125.041,23.406 C123.567,24.528 121.807,25.32 119.826,25.87 C119.584,25.276 119.078,24.352 118.638,23.912 C120.222,23.56 121.697,22.988 122.951,22.218 C121.917,21.668 120.816,21.162 119.826,20.744 Z M126.273,18.741 L123.611,18.741 C123.391,19.159 123.171,19.555 122.951,19.907 C123.545,20.193 124.161,20.501 124.733,20.81 C125.349,20.193 125.877,19.511 126.273,18.741 Z" id="形状" fill="url(#linearGradient-7)" fill-rule="nonzero"></path>
        </g>
    </g>
</svg>
