<?xml version="1.0" encoding="UTF-8"?>
<svg width="32px" height="42px" viewBox="0 0 32 42" version="1.1" xmlns="http://www.w3.org/2000/svg" xmlns:xlink="http://www.w3.org/1999/xlink">
    <title>icon_ljzzsy</title>
    <g id="图标" stroke="none" stroke-width="1" fill="none" fill-rule="evenodd">
        <g id="icon_ljzzsy" fill="#E59F3D">
            <path d="M29.7517425,41.4064262 L24.7209194,41.4064262 C23.4867569,41.4123478 22.479601,40.4042006 22.479601,39.1621077 L22.479601,18.9545553 C22.479601,17.3982219 23.7385459,16.1382857 25.2928968,16.1382857 L29.1867043,16.1382857 C30.3475109,16.1382857 31.3735014,16.8331836 31.8027323,17.9087389 C31.8334624,17.983086 31.8582448,18.0623896 31.8830272,18.1426846 C31.9633221,18.4073604 32,18.6769927 32,18.9476162 L32,39.15616 C32,40.3972615 30.9928441,41.4064262 29.7517425,41.4064262 Z M29.7457947,3.25243952 L28.0258976,9.66512809 C27.9337071,10.0091075 27.6383012,10.1439237 27.4172423,10.1568105 C27.399399,10.1627583 27.3875035,10.168706 27.3746166,10.168706 C27.251696,10.168706 27.0673151,10.1320281 26.9077166,9.9724296 L24.5494254,7.61711223 L18.3885258,13.7224993 L16.8658963,15.2342245 C16.6012205,15.4989003 16.2453456,15.6466033 15.870636,15.6466033 L15.8587404,15.6466033 C15.5514389,15.6466033 15.2322419,15.5296304 14.9864007,15.333354 L14.9804529,15.3264149 L14.900158,15.2590068 L14.8882624,15.2471113 L14.6364735,14.9953223 L10.8834299,11.2075834 C10.8586475,11.182801 10.8279174,11.1709055 10.7971872,11.1709055 C10.766457,11.1709055 10.7357269,11.182801 10.7109445,11.2075834 L2.57935008,19.2122921 C2.31467427,19.4769679 1.95879929,19.6177318 1.59003748,19.6177318 C1.20938013,19.6177318 0.853505158,19.4700288 0.588829342,19.2003965 C0.325144822,18.9297729 0.177441839,18.5788544 0.183216659,18.2041449 C0.183216659,17.8294353 0.337040364,17.4785168 0.60171618,17.213841 L9.82670921,8.12168148 C10.091385,7.85700567 10.4413122,7.71624175 10.8160218,7.71624175 C11.1966792,7.71624175 11.5525541,7.86295344 11.8172299,8.13357703 L15.0409219,11.3919643 L15.8032279,12.1602181 C15.8280103,12.1850005 15.8587404,12.1978873 15.8894706,12.1978873 C15.9202007,12.1978873 15.9509309,12.1850005 15.974722,12.1602181 L16.4168396,11.7121527 L22.556922,5.62758279 L21.9145627,4.9862148 L20.434559,3.51116756 C20.2620737,3.3386822 20.2006134,3.09878876 20.2620737,2.8648431 C20.323534,2.63188873 20.5019671,2.45345559 20.7349215,2.39199529 L29.5733094,0.0247823797 C29.6347697,0.00693906632 29.69623,0 29.7517425,0 C29.9539667,0 30.1571822,0.0991295189 30.2801028,0.264675815 C30.3534587,0.362814039 30.4644838,0.566029553 30.3901366,0.842600911 L29.7457947,3.25243952 Z M2.81230445,20.7487996 L6.70710325,20.7487996 C7.891701,20.7487996 8.96031721,21.4992101 9.35980918,22.6183823 C9.37269601,22.6550603 9.38459156,22.6917382 9.3964871,22.7353552 C9.47678201,22.9990397 9.5194077,23.2825501 9.5194077,23.5650692 L9.5194077,39.1621077 C9.5194077,40.4042006 8.51225179,41.4123478 7.27214151,41.4123478 L2.24726619,41.4123478 L2.24726619,41.4123478 C2.19869273,41.4123478 2.14912797,41.4123478 2.10055451,41.4064 C2.02620737,41.399461 1.95285152,41.3935132 1.87850438,41.3816177 C0.792044856,41.2031845 0,40.2683932 0,39.1621077 L0,23.5650692 C0,22.0097271 1.25894489,20.7487996 2.81230445,20.7487996 Z M14.0526006,23.3311236 L17.9464081,23.3311236 C19.1131625,23.3311236 20.175831,24.0686472 20.5812707,25.1630371 L20.6556179,25.3850872 C20.7230259,25.6309284 20.7597039,25.8886652 20.7597039,26.1473932 L20.7597039,39.1621077 C20.7597039,40.4042006 19.7525479,41.4123478 18.5114464,41.4123478 L13.4816146,41.4123478 C12.2464608,41.4123478 11.2393049,40.4042006 11.2393049,39.1621077 L11.2393049,26.1473932 C11.2393049,24.5920511 12.4982497,23.3311236 14.0526006,23.3311236 Z" id="形状"></path>
        </g>
    </g>
</svg>