<?xml version="1.0" encoding="UTF-8"?>
<svg width="76px" height="70px" viewBox="0 0 76 70" version="1.1" xmlns="http://www.w3.org/2000/svg" xmlns:xlink="http://www.w3.org/1999/xlink">
    <title>icon_sjdw</title>
    <defs>
        <linearGradient x1="0%" y1="71.2638942%" x2="100%" y2="33.4261557%" id="linearGradient-1">
            <stop stop-color="#0E1C33" offset="0%"></stop>
            <stop stop-color="#8FDFFE" offset="100%"></stop>
        </linearGradient>
        <linearGradient x1="100%" y1="59.6412731%" x2="0%" y2="38.7530475%" id="linearGradient-2">
            <stop stop-color="#0E1C33" offset="0%"></stop>
            <stop stop-color="#8FDFFE" offset="100%"></stop>
        </linearGradient>
        <linearGradient x1="0%" y1="0%" x2="0%" y2="100%" id="linearGradient-3">
            <stop stop-color="#1DB4FF" stop-opacity="0" offset="0%"></stop>
            <stop stop-color="#1DB4FF" offset="100%"></stop>
        </linearGradient>
        <linearGradient x1="0%" y1="0%" x2="0%" y2="100%" id="linearGradient-4">
            <stop stop-color="#0E1C33" offset="0%"></stop>
            <stop stop-color="#1DB4FF" offset="100%"></stop>
        </linearGradient>
        <linearGradient x1="0%" y1="0%" x2="0%" y2="100%" id="linearGradient-5">
            <stop stop-color="#0060FF" offset="0%"></stop>
            <stop stop-color="#8FDFFE" offset="100%"></stop>
        </linearGradient>
    </defs>
    <g id="页面-1" stroke="none" stroke-width="1" fill="none" fill-rule="evenodd">
        <g id="icon_sjdw">
            <polygon id="路径" fill="url(#linearGradient-1)" points="0 45.06784 38 59.43184 38 69.8489067 0 55.4838933"></polygon>
            <polygon id="路径" fill="url(#linearGradient-2)" points="38 59.4906133 76 45.01008 76 55.4261333 38 69.9066667"></polygon>
            <polygon id="路径" fill="#142747" points="0.0314133333 45.46304 38 31.4405333 75.9675733 45.46304 38 59.48656"></polygon>
            <polygon id="路径" fill="url(#linearGradient-3)" opacity="0.4" points="0 0.29216 76 0.29216 76 45.6972051 38.4086682 60.29216 0 45.6972051"></polygon>
            <path d="M54.4261333,41.2658133 L53.9275733,41.7653867 C53.7583467,41.9336 53.5962133,41.9336 52.9223467,41.9336 L49.5631467,41.9336 C49.0645867,41.9336 48.7332267,41.9336 48.5650133,41.7653867 C48.3968,41.5971733 48.2346667,41.5971733 48.06544,41.2658133 C47.8972267,40.9344533 47.8972267,40.76624 47.8972267,40.1045333 L47.8972267,15.1126933 C47.8972267,14.4438933 48.2346667,13.94432 48.7332267,13.7761067 C49.2591467,13.6200533 49.8296533,13.74368 50.2441067,14.1064533 L52.2474667,16.2739733 C53.2597867,17.4413333 53.428,17.7726933 53.7583467,18.2722667 C54.0957867,18.784 54.25792,19.2835733 54.4261333,19.7770667 C54.5943467,20.27664 54.5943467,20.7701333 54.5943467,22.2749333 L54.5943467,40.1045333 C54.5943467,40.76624 54.5943467,41.10368 54.4261333,41.2658133 Z M43.8773333,41.7593067 C43.5398933,41.92752 43.2024533,41.92752 42.5285867,41.92752 L26.2797867,41.92752 C25.612,41.92752 25.4437867,41.92752 25.1124267,41.7593067 C24.9442133,41.59008 24.6138667,41.4279467 24.6138667,41.2597333 C24.44464,40.9283733 24.44464,40.76016 24.44464,40.1045333 L24.44464,19.1021867 C24.44464,17.2660267 24.6138667,16.7664533 24.776,15.9426133 C24.9442133,15.2809067 25.2816533,14.6060267 25.7802133,14.1064533 C26.2737067,13.60688 26.77936,13.1144 28.2770667,12.1152533 L42.19824,5.44549333 C42.64512,5.11413333 43.2612267,5.11413333 43.70912,5.44549333 C44.20768,5.77584 44.54512,6.1072 44.54512,6.78106667 L44.54512,40.0984533 C44.54512,40.76016 44.54512,40.9222933 44.3769067,41.2597333 C44.20768,41.4279467 44.0455467,41.7593067 43.8773333,41.7593067 Z M36.5053333,20.27664 L32.4783467,20.27664 C31.80448,20.27664 31.1296,20.9383467 31.1296,21.9445867 C31.1296,22.9437333 31.80448,23.61152 32.4783467,23.61152 L36.5053333,23.61152 C37.17312,23.61152 37.85408,22.9498133 37.85408,21.9445867 C37.85408,20.94544 37.1792,20.27664 36.5053333,20.27664 Z M31.3049067,26.9464 C31.1366933,27.4915733 31.1366933,28.0752533 31.3049067,28.6143467 C31.4802133,29.1068267 31.94736,29.4381867 32.4722667,29.4442667 L36.49824,29.4442667 C37.1660267,29.4442667 37.8469867,28.78256 37.8469867,27.7773333 C37.8469867,26.7842667 37.17312,26.1093867 36.49824,26.1093867 L32.4722667,26.1093867 L32.4722667,26.12256 C31.9726933,26.12256 31.6423467,26.45392 31.3049067,26.9464 Z M36.5053333,31.9421333 L32.4783467,31.9421333 C31.80448,31.9421333 31.1296,32.60384 31.1296,33.61008 C31.1296,34.6153067 31.80448,35.2770133 32.4783467,35.2770133 L36.5053333,35.2770133 C37.17312,35.2770133 37.85408,34.6153067 37.85408,33.61008 C37.85408,32.60384 37.1792,31.9421333 36.5053333,31.9421333 Z" id="形状" fill="#FFFFFF"></path>
            <path d="M54.4261333,41.2658133 L53.9275733,41.7653867 C53.7583467,41.9336 53.5962133,41.9336 52.9223467,41.9336 L49.5631467,41.9336 C49.0645867,41.9336 48.7332267,41.9336 48.5650133,41.7653867 C48.3968,41.5971733 48.2346667,41.5971733 48.06544,41.2658133 C47.8972267,40.9344533 47.8972267,40.76624 47.8972267,40.1045333 L47.8972267,15.1126933 C47.8972267,14.4438933 48.2346667,13.94432 48.7332267,13.7761067 C49.2591467,13.6200533 49.8296533,13.74368 50.2441067,14.1064533 L52.2474667,16.2739733 C53.2597867,17.4413333 53.428,17.7726933 53.7583467,18.2722667 C54.0957867,18.784 54.25792,19.2835733 54.4261333,19.7770667 C54.5943467,20.27664 54.5943467,20.7701333 54.5943467,22.2749333 L54.5943467,40.1045333 C54.5943467,40.76624 54.5943467,41.10368 54.4261333,41.2658133 Z M43.8773333,41.7593067 C43.5398933,41.92752 43.2024533,41.92752 42.5285867,41.92752 L26.2797867,41.92752 C25.612,41.92752 25.4437867,41.92752 25.1124267,41.7593067 C24.9442133,41.59008 24.6138667,41.4279467 24.6138667,41.2597333 C24.44464,40.9283733 24.44464,40.76016 24.44464,40.1045333 L24.44464,19.1021867 C24.44464,17.2660267 24.6138667,16.7664533 24.776,15.9426133 C24.9442133,15.2809067 25.2816533,14.6060267 25.7802133,14.1064533 C26.2737067,13.60688 26.77936,13.1144 28.2770667,12.1152533 L42.19824,5.44549333 C42.64512,5.11413333 43.2612267,5.11413333 43.70912,5.44549333 C44.20768,5.77584 44.54512,6.1072 44.54512,6.78106667 L44.54512,40.0984533 C44.54512,40.76016 44.54512,40.9222933 44.3769067,41.2597333 C44.20768,41.4279467 44.0455467,41.7593067 43.8773333,41.7593067 Z M36.5053333,20.27664 L32.4783467,20.27664 C31.80448,20.27664 31.1296,20.9383467 31.1296,21.9445867 C31.1296,22.9437333 31.80448,23.61152 32.4783467,23.61152 L36.5053333,23.61152 C37.17312,23.61152 37.85408,22.9498133 37.85408,21.9445867 C37.85408,20.94544 37.1792,20.27664 36.5053333,20.27664 Z M31.3049067,26.9464 C31.1366933,27.4915733 31.1366933,28.0752533 31.3049067,28.6143467 C31.4802133,29.1068267 31.94736,29.4381867 32.4722667,29.4442667 L36.49824,29.4442667 C37.1660267,29.4442667 37.8469867,28.78256 37.8469867,27.7773333 C37.8469867,26.7842667 37.17312,26.1093867 36.49824,26.1093867 L32.4722667,26.1093867 L32.4722667,26.12256 C31.9726933,26.12256 31.6423467,26.45392 31.3049067,26.9464 Z M36.5053333,31.9421333 L32.4783467,31.9421333 C31.80448,31.9421333 31.1296,32.60384 31.1296,33.61008 C31.1296,34.6153067 31.80448,35.2770133 32.4783467,35.2770133 L36.5053333,35.2770133 C37.17312,35.2770133 37.85408,34.6153067 37.85408,33.61008 C37.85408,32.60384 37.1792,31.9421333 36.5053333,31.9421333 Z" id="形状" fill="url(#linearGradient-4)" fill-rule="nonzero"></path>
            <path d="M51.3861333,44.3058133 L50.8875733,44.8053867 C50.7183467,44.9736 50.5562133,44.9736 49.8823467,44.9736 L46.5231467,44.9736 C46.0245867,44.9736 45.6932267,44.9736 45.5250133,44.8053867 C45.3568,44.6371733 45.1946667,44.6371733 45.02544,44.3058133 C44.8572267,43.9744533 44.8572267,43.80624 44.8572267,43.1445333 L44.8572267,18.15168 C44.8572267,17.4838933 45.1946667,16.98432 45.6932267,16.8161067 C46.2191467,16.6600533 46.7896533,16.78368 47.2041067,17.1464533 L49.2074667,19.3139733 C50.2187733,20.4813333 50.388,20.8126933 50.7183467,21.3122667 C51.0557867,21.824 51.21792,22.3245867 51.3861333,22.8170667 C51.55536,23.31664 51.55536,23.8101333 51.55536,25.3149333 L51.55536,43.1445333 C51.55536,43.80624 51.55536,44.14368 51.3861333,44.3058133 Z M40.8373333,44.7993067 C40.4998933,44.96752 40.1624533,44.96752 39.4885867,44.96752 L23.2397867,44.96752 C22.572,44.96752 22.4037867,44.96752 22.07344,44.7993067 C21.9042133,44.63008 21.5738667,44.4679467 21.5738667,44.2997333 C21.40464,43.9683733 21.40464,43.80016 21.40464,43.1445333 L21.40464,22.1421867 C21.40464,20.3060267 21.5738667,19.8064533 21.736,18.9826133 C21.9042133,18.3209067 22.2416533,17.6460267 22.7402133,17.1464533 C23.2337067,16.64688 23.73936,16.1533867 25.2370667,15.1552533 L39.15824,8.48549333 C39.60512,8.15413333 40.2212267,8.15413333 40.6681067,8.48549333 C41.16768,8.81584 41.50512,9.1472 41.50512,9.82106667 L41.50512,43.1384533 C41.50512,43.80016 41.50512,43.9622933 41.3369067,44.2997333 C41.16768,44.4679467 41.0055467,44.7993067 40.8373333,44.7993067 Z M33.4653333,23.31664 L29.4383467,23.31664 C28.76448,23.31664 28.0896,23.9783467 28.0896,24.9845867 C28.0896,25.9837333 28.76448,26.65152 29.4383467,26.65152 L33.4653333,26.65152 C34.13312,26.65152 34.8130667,25.9898133 34.8130667,24.9845867 C34.8130667,23.98544 34.1392,23.31664 33.4653333,23.31664 Z M28.2649067,29.9864 C28.0966933,30.5315733 28.0966933,31.1152533 28.2649067,31.6543467 C28.4402133,32.1468267 28.90736,32.4781867 29.4322667,32.4842667 L33.45824,32.4842667 C34.1260267,32.4842667 34.8069867,31.82256 34.8069867,30.8173333 C34.8069867,29.8242667 34.13312,29.1493867 33.45824,29.1493867 L29.4322667,29.1493867 L29.4322667,29.16256 C28.9326933,29.16256 28.6023467,29.49392 28.2649067,29.9864 Z M33.4653333,34.9821333 L29.4383467,34.9821333 C28.76448,34.9821333 28.0896,35.64384 28.0896,36.65008 C28.0896,37.6553067 28.76448,38.3170133 29.4383467,38.3170133 L33.4653333,38.3170133 C34.13312,38.3170133 34.8130667,37.6553067 34.8130667,36.65008 C34.8130667,35.64384 34.1392,34.9821333 33.4653333,34.9821333 Z" id="形状" fill="#FFFFFF"></path>
            <path d="M51.3861333,44.3058133 L50.8875733,44.8053867 C50.7183467,44.9736 50.5562133,44.9736 49.8823467,44.9736 L46.5231467,44.9736 C46.0245867,44.9736 45.6932267,44.9736 45.5250133,44.8053867 C45.3568,44.6371733 45.1946667,44.6371733 45.02544,44.3058133 C44.8572267,43.9744533 44.8572267,43.80624 44.8572267,43.1445333 L44.8572267,18.15168 C44.8572267,17.4838933 45.1946667,16.98432 45.6932267,16.8161067 C46.2191467,16.6600533 46.7896533,16.78368 47.2041067,17.1464533 L49.2074667,19.3139733 C50.2187733,20.4813333 50.388,20.8126933 50.7183467,21.3122667 C51.0557867,21.824 51.21792,22.3245867 51.3861333,22.8170667 C51.55536,23.31664 51.55536,23.8101333 51.55536,25.3149333 L51.55536,43.1445333 C51.55536,43.80624 51.55536,44.14368 51.3861333,44.3058133 Z M40.8373333,44.7993067 C40.4998933,44.96752 40.1624533,44.96752 39.4885867,44.96752 L23.2397867,44.96752 C22.572,44.96752 22.4037867,44.96752 22.07344,44.7993067 C21.9042133,44.63008 21.5738667,44.4679467 21.5738667,44.2997333 C21.40464,43.9683733 21.40464,43.80016 21.40464,43.1445333 L21.40464,22.1421867 C21.40464,20.3060267 21.5738667,19.8064533 21.736,18.9826133 C21.9042133,18.3209067 22.2416533,17.6460267 22.7402133,17.1464533 C23.2337067,16.64688 23.73936,16.1533867 25.2370667,15.1552533 L39.15824,8.48549333 C39.60512,8.15413333 40.2212267,8.15413333 40.6681067,8.48549333 C41.16768,8.81584 41.50512,9.1472 41.50512,9.82106667 L41.50512,43.1384533 C41.50512,43.80016 41.50512,43.9622933 41.3369067,44.2997333 C41.16768,44.4679467 41.0055467,44.7993067 40.8373333,44.7993067 Z M33.4653333,23.31664 L29.4383467,23.31664 C28.76448,23.31664 28.0896,23.9783467 28.0896,24.9845867 C28.0896,25.9837333 28.76448,26.65152 29.4383467,26.65152 L33.4653333,26.65152 C34.13312,26.65152 34.8130667,25.9898133 34.8130667,24.9845867 C34.8130667,23.98544 34.1392,23.31664 33.4653333,23.31664 Z M28.2649067,29.9864 C28.0966933,30.5315733 28.0966933,31.1152533 28.2649067,31.6543467 C28.4402133,32.1468267 28.90736,32.4781867 29.4322667,32.4842667 L33.45824,32.4842667 C34.1260267,32.4842667 34.8069867,31.82256 34.8069867,30.8173333 C34.8069867,29.8242667 34.13312,29.1493867 33.45824,29.1493867 L29.4322667,29.1493867 L29.4322667,29.16256 C28.9326933,29.16256 28.6023467,29.49392 28.2649067,29.9864 Z M33.4653333,34.9821333 L29.4383467,34.9821333 C28.76448,34.9821333 28.0896,35.64384 28.0896,36.65008 C28.0896,37.6553067 28.76448,38.3170133 29.4383467,38.3170133 L33.4653333,38.3170133 C34.13312,38.3170133 34.8130667,37.6553067 34.8130667,36.65008 C34.8130667,35.64384 34.1392,34.9821333 33.4653333,34.9821333 Z" id="形状" fill="url(#linearGradient-5)" fill-rule="nonzero"></path>
        </g>
    </g>
</svg>