<?xml version="1.0" encoding="UTF-8"?>
<svg width="20px" height="20px" viewBox="0 0 20 20" version="1.1" xmlns="http://www.w3.org/2000/svg" xmlns:xlink="http://www.w3.org/1999/xlink">
    <title>icon_jqbs</title>
    <g id="图标" stroke="none" stroke-width="1" fill="none" fill-rule="evenodd">
        <g id="icon_jqbs" fill="#66CDAA">
            <path d="M15.415963,16.999106 L17.9648853,19.558955 C18.1645475,19.7586173 18.4248038,19.8589451 18.6860534,19.8589451 C18.9463097,19.8589451 19.2075594,19.7586173 19.4062283,19.558955 C19.8045595,19.1586371 19.8045595,18.5109765 19.4062283,18.1116519 L17.5784742,16.2759511 L19.4062283,14.4402503 C19.8045595,14.0399325 19.8045595,13.3922718 19.4062283,12.9929473 C19.0078971,12.5926294 18.3632164,12.5926294 17.9648853,12.9929473 L15.415963,15.5518029 C15.0186252,15.9521208 15.0186252,16.5997815 15.415963,16.999106 Z M18.999702,9.00069534 L13.499553,9.00069534 C12.9472534,9.00069534 12.5002483,8.55269693 12.5002483,8.00039734 L12.5002483,1.000298 C12.5002483,0.447998411 12.9472534,7.10542736e-15 13.499553,7.10542736e-15 L18.999702,7.10542736e-15 C19.5520016,7.10542736e-15 20,0.447998411 20,1.000298 L20,8.00039734 C20,8.55269693 19.5520016,9.00069534 18.999702,9.00069534 Z M13.8869574,12.9929473 L11.3390285,15.5518029 C10.9406973,15.9521208 10.9406973,16.5997815 11.3390285,16.999106 L13.8869574,19.558955 C14.0866196,19.7586173 14.3468759,19.8589451 14.6081256,19.8589451 C14.8683818,19.8589451 15.1296315,19.7586173 15.3283004,19.558955 C15.7266316,19.1586371 15.7266316,18.5109765 15.3283004,18.1116519 L13.5005463,16.2759511 L15.3283004,14.4402503 C15.7266316,14.0399325 15.7266316,13.3922718 15.3283004,12.9929473 C14.9299692,12.5926294 14.2852886,12.5926294 13.8869574,12.9929473 Z M9.49935433,9.00069534 L1.000298,9.00069534 C0.447998411,9.00069534 7.10542736e-15,8.55269693 7.10542736e-15,8.00039734 L7.10542736e-15,1.000298 C7.10542736e-15,0.447998411 0.447998411,7.10542736e-15 1.000298,7.10542736e-15 L9.49935433,7.10542736e-15 C10.0516539,7.10542736e-15 10.4996523,0.447998411 10.4996523,1.000298 L10.4996523,8.00039734 C10.4996523,8.55269693 10.0516539,9.00069534 9.49935433,9.00069534 Z M1.000298,11.000298 L6.49945366,11.000298 C7.05175325,11.000298 7.49975166,11.4473031 7.49975166,12.000596 L7.49975166,19.0006953 C7.49975166,19.5529949 7.05175325,20 6.49945366,20 L1.000298,20 C0.447998411,20 7.10542736e-15,19.5529949 7.10542736e-15,19.0006953 L7.10542736e-15,12.000596 C7.10542736e-15,11.4473031 0.447998411,11.000298 1.000298,11.000298 Z" id="形状"></path>
        </g>
    </g>
</svg>