<?xml version="1.0" encoding="UTF-8"?>
<svg width="20px" height="20px" viewBox="0 0 20 20" version="1.1" xmlns="http://www.w3.org/2000/svg" xmlns:xlink="http://www.w3.org/1999/xlink">
    <title>icon_hsbj</title>
    <g id="图标" stroke="none" stroke-width="1" fill="none" fill-rule="evenodd">
        <g id="icon_hsbj" fill="#EED02A">
            <path d="M10.000464,9.47387774 C10.5257297,9.47387774 10.952624,9.89765589 10.952624,10.4216332 C10.952624,10.9446913 10.5257297,11.3684694 10.000464,11.3684694 L8.095216,11.3684694 L8.095216,13.2630611 C8.095216,13.7870385 7.66832166,14.2108166 7.14305601,14.2108166 C6.61686233,14.2108166 6.18996798,13.7870385 6.18996798,13.2630611 L6.18996798,11.3684694 L4.285648,11.3684694 C3.75945432,11.3684694 3.33348801,10.9446913 3.33348801,10.4216332 C3.33348801,9.89765589 3.75945432,9.47387774 4.285648,9.47387774 L6.18996798,9.47387774 L6.18996798,8.52612226 L4.285648,8.52612226 C3.75945432,8.52612226 3.33348801,8.10234411 3.33348801,7.57928604 C3.33348801,7.05622798 3.75945432,6.63153057 4.285648,6.63153057 L5.10973969,6.63153057 L4.03043942,5.34364946 C3.6935641,4.94101425 3.74831794,4.3444155 4.15201151,4.00888617 C4.5566331,3.67335683 5.15706928,3.72851233 5.49301657,4.13022828 L7.14305601,6.09927991 L8.79216742,4.13022828 C9.12904274,3.72943159 9.72855088,3.67335683 10.1331725,4.00888617 C10.5377941,4.3444155 10.5916199,4.94101425 10.2556726,5.34364946 L9.17637233,6.63153057 L10.000464,6.63153057 C10.5257297,6.63153057 10.952624,7.05622798 10.952624,7.57928604 C10.952624,8.10234411 10.5257297,8.52612226 10.000464,8.52612226 L8.095216,8.52612226 L8.095216,9.47387774 L10.000464,9.47387774 Z M19.04784,10.0005107 C18.5216463,10.0005107 18.09568,9.52862469 18.09568,8.94744906 L18.09568,2.10510188 L1.90431999,2.10510188 L1.90431999,17.8948981 L12.1293675,17.8948981 C12.6555612,17.8948981 13.0815275,18.3657627 13.0815275,18.9479598 C13.0815275,19.5301568 12.6555612,20 12.1293675,20 L1.90431999,20 C0.853788687,20 0,19.056228 0,17.8948981 L0,2.10510188 C0,0.943772024 0.853788687,0 1.90431999,0 L18.09568,0 C19.1452833,0 20,0.943772024 20,2.10510188 L20,8.94744906 C20,9.52862469 19.5740337,10.0005107 19.04784,10.0005107 Z M15.9110946,17.3543741 C16.2832351,16.983913 16.2832351,16.3845565 15.9110946,16.0150146 L14.2035172,14.3162249 L15.9110946,12.6174353 C16.2832351,12.2469741 16.2832351,11.6476176 15.9110946,11.2780757 C15.5389541,10.9076145 14.9366619,10.9076145 14.5645214,11.2780757 L12.1841214,13.6460855 C11.8119809,14.0165467 11.8119809,14.6159032 12.1841214,14.9854451 L14.5645214,17.3543741 C14.7510556,17.5391451 14.9941998,17.6319902 15.238272,17.6319902 C15.4814162,17.6319902 15.7254884,17.5391451 15.9110946,17.3543741 Z M18.0133172,14.3162249 L19.7208946,12.6174353 C20.0930351,12.2469741 20.0930351,11.6476176 19.7208946,11.2780757 C19.3487541,10.9076145 18.7464619,10.9076145 18.3743214,11.2780757 L15.9929934,13.6460855 C15.6217809,14.0165467 15.6217809,14.6159032 15.9929934,14.9854451 L18.3743214,17.3543741 C18.5608556,17.5391451 18.8039998,17.6319902 19.048072,17.6319902 C19.2912162,17.6319902 19.5352884,17.5391451 19.7208946,17.3543741 C20.0930351,16.983913 20.0930351,16.3845565 19.7208946,16.0150146 L18.0133172,14.3162249 Z" id="形状"></path>
        </g>
    </g>
</svg>