<?xml version="1.0" encoding="UTF-8"?>
<svg width="76px" height="70px" viewBox="0 0 76 70" version="1.1" xmlns="http://www.w3.org/2000/svg" xmlns:xlink="http://www.w3.org/1999/xlink">
    <title>icon_shouye_dwzs</title>
    <defs>
        <linearGradient x1="0%" y1="71.2638942%" x2="100%" y2="33.4261557%" id="linearGradient-1">
            <stop stop-color="#0E1C33" offset="0%"></stop>
            <stop stop-color="#8FDFFE" offset="100%"></stop>
        </linearGradient>
        <linearGradient x1="100%" y1="59.6412731%" x2="0%" y2="38.7530475%" id="linearGradient-2">
            <stop stop-color="#0E1C33" offset="0%"></stop>
            <stop stop-color="#8FDFFE" offset="100%"></stop>
        </linearGradient>
        <linearGradient x1="0%" y1="0%" x2="0%" y2="100%" id="linearGradient-3">
            <stop stop-color="#1DB4FF" stop-opacity="0" offset="0%"></stop>
            <stop stop-color="#1DB4FF" offset="100%"></stop>
        </linearGradient>
        <linearGradient x1="0%" y1="0%" x2="0%" y2="100%" id="linearGradient-4">
            <stop stop-color="#0E1C33" offset="0%"></stop>
            <stop stop-color="#1DB4FF" offset="100%"></stop>
        </linearGradient>
        <linearGradient x1="0%" y1="0%" x2="0%" y2="100%" id="linearGradient-5">
            <stop stop-color="#0060FF" offset="0%"></stop>
            <stop stop-color="#8FDFFE" offset="100%"></stop>
        </linearGradient>
    </defs>
    <g id="图标" stroke="none" stroke-width="1" fill="none" fill-rule="evenodd">
        <g id="icon_shouye_dwzs">
            <polygon id="路径" fill="url(#linearGradient-1)" points="0 45.06784 38 59.43184 38 69.8489067 0 55.4838933"></polygon>
            <polygon id="路径" fill="url(#linearGradient-2)" points="38 59.4906133 76 45.01008 76 55.4261333 38 69.9066667"></polygon>
            <polygon id="路径" fill="#142747" points="0.0314133333 45.46304 38 31.4405333 75.9675733 45.46304 38 59.48656"></polygon>
            <polygon id="路径" fill="url(#linearGradient-3)" opacity="0.4" points="0 0.29216 76 0.29216 76 45.6972051 38.4086682 60.29216 0 45.6972051"></polygon>
            <path d="M54.52,33.774 L53.171,34.668 L53.171,38.447 L54.463,39.266 C54.643,39.378 54.788,39.533 54.896,39.732 C55.005,39.93 55.059,40.222 55.059,40.607 C55.059,40.992 54.995,41.299 54.868,41.528 C54.741,41.758 54.523,41.786 54.216,41.612 L47.46,37.777 C47.341,37.715 47.234,37.581 47.14,37.377 C47.046,37.172 46.999,36.896 46.999,36.548 C46.999,36.201 47.046,35.924 47.14,35.72 C47.234,35.515 47.341,35.382 47.46,35.319 L54.239,31.447 C54.523,31.298 54.731,31.338 54.862,31.568 C54.993,31.798 55.059,32.105 55.059,32.489 C55.067,32.874 55.016,33.16 54.907,33.346 C54.799,33.532 54.67,33.675 54.52,33.774 Z M51.9,35.115 L49.113,36.548 L51.9,37.982 L51.9,35.115 Z M54.137,29.79 L47.573,29.79 C47.393,29.79 47.252,29.672 47.151,29.436 C47.05,29.201 46.999,28.915 46.999,28.58 C46.999,28.22 47.05,27.928 47.151,27.705 C47.252,27.481 47.393,27.37 47.573,27.37 L53.643,27.37 L53.643,23.721 C53.643,23.473 53.693,23.249 53.795,23.05 C53.896,22.852 54.063,22.753 54.295,22.753 C54.535,22.753 54.703,22.858 54.801,23.069 C54.898,23.28 54.947,23.497 54.947,23.721 L54.947,28.468 C54.947,28.878 54.868,29.201 54.711,29.436 C54.553,29.672 54.362,29.79 54.137,29.79 Z M54.137,21.263 L47.573,21.263 C47.393,21.263 47.252,21.145 47.151,20.909 C47.05,20.674 46.999,20.388 46.999,20.053 C46.999,19.693 47.05,19.401 47.151,19.178 C47.252,18.955 47.393,18.843 47.573,18.843 L53.643,18.843 L53.643,15.194 C53.643,14.946 53.693,14.722 53.795,14.524 C53.896,14.325 54.063,14.226 54.295,14.226 C54.535,14.226 54.703,14.331 54.801,14.542 C54.898,14.753 54.947,14.97 54.947,15.194 L54.947,19.941 C54.947,20.351 54.868,20.674 54.711,20.909 C54.553,21.145 54.362,21.263 54.137,21.263 Z M43.958,41.535 C43.625,41.701 43.293,41.701 42.627,41.701 L26.592,41.701 C25.934,41.701 25.767,41.701 25.441,41.535 C25.274,41.369 24.948,41.208 24.948,41.042 C24.782,40.716 24.782,40.549 24.782,39.903 L24.782,19.177 C24.782,17.365 24.948,16.872 25.108,16.059 C25.274,15.406 25.607,14.74 26.1,14.247 C26.586,13.754 27.085,13.267 28.563,12.281 L42.301,5.699 C42.743,5.372 43.35,5.372 43.792,5.699 C44.285,6.026 44.617,6.352 44.617,7.018 L44.617,39.896 C44.617,40.549 44.617,40.709 44.451,41.042 C44.285,41.208 44.124,41.535 43.958,41.535 Z M36.683,20.336 L32.709,20.336 C32.044,20.336 31.379,20.989 31.379,21.981 C31.379,22.967 32.044,23.627 32.709,23.627 L36.683,23.627 C37.342,23.627 38.014,22.974 38.014,21.981 C38.014,20.995 37.348,20.336 36.683,20.336 Z M31.551,26.918 C31.385,27.455 31.385,28.032 31.551,28.563 C31.724,29.05 32.185,29.376 32.703,29.383 L36.677,29.383 C37.336,29.383 38.007,28.73 38.007,27.737 C38.007,26.758 37.342,26.092 36.677,26.092 L32.703,26.092 L32.703,26.105 C32.21,26.105 31.884,26.431 31.551,26.918 Z M36.683,31.848 L32.709,31.848 C32.044,31.848 31.379,32.501 31.379,33.493 C31.379,34.486 32.044,35.139 32.709,35.139 L36.683,35.139 C37.342,35.139 38.014,34.486 38.014,33.493 C38.014,32.501 37.348,31.848 36.683,31.848 Z" id="形状" fill="url(#linearGradient-4)" fill-rule="nonzero"></path>
            <path d="M52.52,35.774 L51.171,36.668 L51.171,40.447 L52.463,41.266 C52.643,41.378 52.788,41.533 52.896,41.732 C53.005,41.93 53.059,42.222 53.059,42.607 C53.059,42.992 52.995,43.299 52.868,43.528 C52.741,43.758 52.523,43.786 52.216,43.612 L45.46,39.777 C45.34,39.715 45.234,39.581 45.14,39.377 C45.046,39.172 44.999,38.896 44.999,38.548 C44.999,38.201 45.046,37.924 45.14,37.72 C45.234,37.515 45.34,37.382 45.46,37.319 L52.239,33.447 C52.523,33.298 52.731,33.338 52.862,33.568 C52.993,33.798 53.059,34.105 53.059,34.489 C53.066,34.874 53.016,35.16 52.907,35.346 C52.799,35.532 52.67,35.675 52.52,35.774 Z M49.9,37.115 L47.113,38.548 L49.9,39.982 L49.9,37.115 Z M52.137,31.79 L45.573,31.79 C45.393,31.79 45.252,31.672 45.151,31.436 C45.05,31.201 44.999,30.915 44.999,30.58 C44.999,30.22 45.05,29.928 45.151,29.705 C45.252,29.481 45.393,29.37 45.573,29.37 L51.643,29.37 L51.643,25.721 C51.643,25.473 51.693,25.249 51.795,25.05 C51.896,24.852 52.063,24.753 52.295,24.753 C52.535,24.753 52.703,24.858 52.801,25.069 C52.898,25.28 52.947,25.497 52.947,25.721 L52.947,30.468 C52.947,30.878 52.868,31.201 52.711,31.436 C52.553,31.672 52.362,31.79 52.137,31.79 Z M52.137,23.263 L45.573,23.263 C45.393,23.263 45.252,23.145 45.151,22.909 C45.05,22.674 44.999,22.388 44.999,22.053 C44.999,21.693 45.05,21.401 45.151,21.178 C45.252,20.955 45.393,20.843 45.573,20.843 L51.643,20.843 L51.643,17.194 C51.643,16.946 51.693,16.722 51.795,16.524 C51.896,16.325 52.063,16.226 52.295,16.226 C52.535,16.226 52.703,16.331 52.801,16.542 C52.898,16.753 52.947,16.97 52.947,17.194 L52.947,21.941 C52.947,22.351 52.868,22.674 52.711,22.909 C52.553,23.145 52.362,23.263 52.137,23.263 Z M41.958,43.535 C41.625,43.701 41.293,43.701 40.627,43.701 L24.592,43.701 C23.934,43.701 23.767,43.701 23.441,43.535 C23.274,43.369 22.948,43.208 22.948,43.042 C22.782,42.716 22.782,42.549 22.782,41.903 L22.782,21.177 C22.782,19.365 22.948,18.872 23.108,18.059 C23.274,17.406 23.607,16.74 24.1,16.247 C24.586,15.754 25.085,15.267 26.563,14.281 L40.301,7.699 C40.743,7.372 41.35,7.372 41.792,7.699 C42.285,8.026 42.617,8.352 42.617,9.018 L42.617,41.896 C42.617,42.549 42.617,42.709 42.451,43.042 C42.285,43.208 42.124,43.535 41.958,43.535 Z M34.683,22.336 L30.71,22.336 C30.044,22.336 29.379,22.989 29.379,23.981 C29.379,24.967 30.044,25.627 30.71,25.627 L34.683,25.627 C35.342,25.627 36.014,24.974 36.014,23.981 C36.014,22.995 35.349,22.336 34.683,22.336 Z M29.551,28.918 C29.385,29.455 29.385,30.032 29.551,30.563 C29.724,31.05 30.185,31.376 30.703,31.383 L34.677,31.383 C35.336,31.383 36.007,30.73 36.007,29.737 C36.007,28.758 35.342,28.092 34.677,28.092 L30.703,28.092 L30.703,28.105 C30.21,28.105 29.884,28.431 29.551,28.918 Z M34.683,33.848 L30.71,33.848 C30.044,33.848 29.379,34.501 29.379,35.493 C29.379,36.486 30.044,37.139 30.71,37.139 L34.683,37.139 C35.342,37.139 36.014,36.486 36.014,35.493 C36.014,34.501 35.349,33.848 34.683,33.848 Z" id="形状" fill="url(#linearGradient-5)" fill-rule="nonzero"></path>
        </g>
    </g>
</svg>