<?xml version="1.0" encoding="UTF-8"?>
<svg width="20px" height="20px" viewBox="0 0 20 20" version="1.1" xmlns="http://www.w3.org/2000/svg" xmlns:xlink="http://www.w3.org/1999/xlink">
    <title>icon_fkbs</title>
    <g id="图标" stroke="none" stroke-width="1" fill="none" fill-rule="evenodd">
        <g id="icon_fkbs" fill="#66CDAA">
            <path d="M19.4069733,16.999106 L16.8580511,19.558955 C16.6583888,19.7586173 16.3981325,19.8589451 16.1368829,19.8589451 C15.8766266,19.8589451 15.615377,19.7586173 15.4167081,19.558955 C15.0183769,19.1586371 15.0183769,18.5109765 15.4167081,18.1116519 L17.2444621,16.2759511 L15.4167081,14.4402503 C15.0183769,14.0399325 15.0183769,13.3922718 15.4167081,12.9929473 C15.8150392,12.5926294 16.4597199,12.5926294 16.8580511,12.9929473 L19.4069733,15.5518029 C19.8043111,15.9521208 19.8043111,16.5997815 19.4069733,16.999106 Z M18.999702,9.00069534 L13.499553,9.00069534 C12.9472534,9.00069534 12.5002483,8.55269693 12.5002483,8.00039734 L12.5002483,1.000298 C12.5002483,0.447998411 12.9472534,7.10542736e-15 13.499553,7.10542736e-15 L18.999702,7.10542736e-15 C19.5520016,7.10542736e-15 20,0.447998411 20,1.000298 L20,8.00039734 C20,8.55269693 19.5520016,9.00069534 18.999702,9.00069534 Z M12.7803715,12.9929473 L15.3283004,15.5518029 C15.7266316,15.9521208 15.7266316,16.5997815 15.3283004,16.999106 L12.7803715,19.558955 C12.5807092,19.7586173 12.320453,19.8589451 12.0592033,19.8589451 C11.7989471,19.8589451 11.5376974,19.7586173 11.3390285,19.558955 C10.9406973,19.1586371 10.9406973,18.5109765 11.3390285,18.1116519 L13.1667826,16.2759511 L11.3390285,14.4402503 C10.9406973,14.0399325 10.9406973,13.3922718 11.3390285,12.9929473 C11.7373597,12.5926294 12.3820403,12.5926294 12.7803715,12.9929473 Z M9.49935433,9.00069534 L1.000298,9.00069534 C0.447998411,9.00069534 7.10542736e-15,8.55269693 7.10542736e-15,8.00039734 L7.10542736e-15,1.000298 C7.10542736e-15,0.447998411 0.447998411,7.10542736e-15 1.000298,7.10542736e-15 L9.49935433,7.10542736e-15 C10.0516539,7.10542736e-15 10.4996523,0.447998411 10.4996523,1.000298 L10.4996523,8.00039734 C10.4996523,8.55269693 10.0516539,9.00069534 9.49935433,9.00069534 Z M1.000298,11.000298 L6.49945366,11.000298 C7.05175325,11.000298 7.49975166,11.4473031 7.49975166,12.000596 L7.49975166,19.0006953 C7.49975166,19.5529949 7.05175325,20 6.49945366,20 L1.000298,20 C0.447998411,20 7.10542736e-15,19.5529949 7.10542736e-15,19.0006953 L7.10542736e-15,12.000596 C7.10542736e-15,11.4473031 0.447998411,11.000298 1.000298,11.000298 Z" id="形状"></path>
        </g>
    </g>
</svg>