<?xml version="1.0" encoding="UTF-8"?>
<svg width="734px" height="75px" viewBox="0 0 734 75" version="1.1" xmlns="http://www.w3.org/2000/svg" xmlns:xlink="http://www.w3.org/1999/xlink">
    <title>system_name</title>
    <defs>
        <path d="M699.277,19.525 L696.591,8.205 L690.9,8.205 L686.743,19.525 L678.173,19.525 L683.929,3.217 L702.411,3.217 L707.847,19.525 L699.277,19.525 Z M679.388,29.886 L677.853,29.886 L677.853,43.188 C677.853,44.126 677.682,44.915 677.341,45.554 C677.085,46.28 676.68,46.919 676.126,47.473 C675.827,47.729 675.519,47.975 675.199,48.209 C674.879,48.443 674.527,48.624 674.144,48.752 C673.461,49.051 672.694,49.2 671.841,49.2 L666.213,49.2 L668.707,44.467 L668.899,44.467 C669.496,44.467 669.987,44.275 670.37,43.892 C670.754,43.423 670.946,42.975 670.946,42.549 L670.946,29.886 L660.713,29.886 L660.713,49.2 L653.742,49.2 L653.742,29.886 L651.44,29.886 L651.44,24.514 L653.742,24.514 L653.742,8.013 L655.853,8.013 L657.26,3.601 L665.51,3.601 L664.167,8.013 L673.248,8.013 C674.569,8.013 675.667,8.451 676.542,9.324 C677.415,10.199 677.853,11.254 677.853,12.49 L677.853,24.514 L679.388,24.514 L679.388,29.886 Z M670.818,14.92 C670.818,14.281 670.604,13.737 670.178,13.29 C669.752,12.842 669.219,12.618 668.58,12.618 L660.713,12.618 L660.713,24.514 L670.818,24.514 L670.818,14.92 Z M669.923,22.723 L663.783,22.723 L661.545,14.601 L667.748,14.601 L669.923,22.723 Z M611.725,49.2 L603.602,49.2 L608.079,41.653 L602.963,40.118 L602.963,33.659 L611.277,36.153 L613.579,32.188 L602.963,32.188 L602.963,28.607 L602.963,10.955 L602.963,10.06 L602.963,5.327 L614.666,5.327 L614.666,3.217 L621.893,3.217 L621.893,5.327 L633.597,5.327 L633.597,10.06 L633.597,10.955 L633.597,25.153 C633.597,26.134 633.415,27.051 633.053,27.903 C632.69,28.756 632.19,29.502 631.55,30.141 C630.911,30.781 630.164,31.283 629.312,31.644 C628.459,32.007 627.563,32.188 626.626,32.188 L621.701,32.188 L618.184,38.2 L633.597,42.804 L633.597,49.2 L614.986,43.7 L611.725,49.2 Z M614.666,10.955 L610.509,10.955 L610.509,26.496 L614.666,26.496 L614.666,10.955 Z M621.893,26.496 L624.004,26.496 C624.6,26.496 625.091,26.304 625.475,25.921 C625.858,25.537 626.05,25.068 626.05,24.514 L626.05,10.955 L621.893,10.955 L621.893,26.496 Z M599.861,47.505 C599.327,48.039 598.699,48.454 597.974,48.752 C597.249,49.051 596.481,49.2 595.672,49.2 L586.335,49.2 L588.381,44.659 L592.474,44.659 C592.943,44.659 593.338,44.499 593.658,44.179 C593.977,43.86 594.137,43.466 594.137,42.996 L594.137,29.694 L577.509,29.694 L582.881,12.362 L590.556,12.362 L586.91,24.45 L592.346,24.45 L592.346,10.124 C592.346,9.655 592.187,9.26 591.867,8.941 C591.547,8.621 591.152,8.461 590.684,8.461 L578.596,8.461 L578.596,3.217 L593.881,3.217 C594.691,3.217 595.448,3.367 596.152,3.665 C596.855,3.963 597.473,4.379 598.006,4.912 C598.539,5.445 598.955,6.063 599.254,6.766 C599.551,7.47 599.701,8.227 599.701,9.037 L599.701,24.45 L601.556,24.45 L601.556,43.38 C601.556,44.19 601.406,44.947 601.108,45.65 C600.809,46.354 600.394,46.972 599.861,47.505 Z M590.939,40.246 L577.317,40.246 L577.317,35.002 L590.939,35.002 L590.939,40.246 Z M560.082,47.505 C559.548,48.039 558.909,48.464 558.163,48.784 C557.417,49.104 556.638,49.264 555.829,49.264 L548.73,49.264 L550.649,45.299 L552.631,45.299 C553.313,45.299 553.654,44.958 553.654,44.275 L553.654,37.368 L506.776,37.368 L510.23,29.182 L517.84,29.182 L516.561,32.444 L551.48,32.444 L551.48,29.822 C551.48,29.353 551.32,28.958 551,28.639 C550.681,28.319 550.286,28.159 549.817,28.159 L507.863,28.159 L507.863,23.234 L554.038,23.234 C555.487,23.234 556.724,23.746 557.747,24.769 C558.771,25.793 559.282,27.03 559.282,28.479 L559.282,32.444 L561.841,32.444 L561.841,43.316 C561.841,44.126 561.681,44.894 561.361,45.618 C561.041,46.344 560.614,46.972 560.082,47.505 Z M559.794,19.653 C559.154,20.293 558.408,20.794 557.556,21.156 C556.702,21.519 555.807,21.7 554.87,21.7 L536.131,21.7 L536.131,21.636 L536.131,4.752 L561.841,4.752 L561.841,14.665 C561.841,15.646 561.659,16.562 561.297,17.415 C560.934,18.268 560.434,19.013 559.794,19.653 Z M553.974,9.74 L544.061,9.74 L544.061,16.711 L551.992,16.711 C552.545,16.711 553.015,16.519 553.399,16.136 C553.782,15.752 553.974,15.283 553.974,14.729 L553.974,9.74 Z M529.032,22.083 L519.695,22.083 L521.677,17.607 L524.875,17.607 C525.259,17.607 525.589,17.469 525.866,17.191 C526.143,16.914 526.282,16.583 526.282,16.2 L526.282,9.42 L517.137,9.42 L513.939,21.891 L506.2,21.891 L509.398,9.42 L505.817,9.42 L505.817,5.008 L510.549,5.008 L510.997,3.153 L518.735,3.153 L518.288,5.008 L533.957,5.008 L533.957,17.095 C533.957,18.46 533.477,19.632 532.518,20.612 C531.558,21.594 530.396,22.083 529.032,22.083 Z M456.828,44.147 L469.043,44.147 L469.043,38.264 L457.276,38.264 L457.276,32.892 L469.043,32.892 L469.043,28.735 L465.142,28.735 L458.427,28.735 L457.02,28.735 L457.02,3.025 L458.427,3.025 L465.142,3.025 L489.956,3.025 L489.956,21.7 C489.956,22.681 489.774,23.597 489.413,24.45 C489.05,25.303 488.549,26.048 487.91,26.688 C487.27,27.328 486.524,27.829 485.671,28.191 C484.818,28.554 483.902,28.735 482.921,28.735 L477.933,28.735 L477.933,32.892 L489.637,32.892 L489.637,38.264 L477.933,38.264 L477.933,44.147 L490.148,44.147 L490.148,49.392 L456.828,49.392 L456.828,44.147 Z M469.043,8.269 L465.142,8.269 L465.142,13.13 L469.043,13.13 L469.043,8.269 Z M469.043,18.374 L465.142,18.374 L465.142,23.49 L469.043,23.49 L469.043,18.374 Z M477.933,23.49 L479.788,23.49 C480.341,23.49 480.811,23.298 481.195,22.915 C481.578,22.531 481.77,22.041 481.77,21.444 L481.77,18.374 L477.933,18.374 L477.933,23.49 Z M477.933,13.13 L481.77,13.13 L481.77,8.269 L477.933,8.269 L477.933,13.13 Z M434.188,43.124 L440.008,43.124 L440.008,27.583 L434.828,27.583 L434.828,21.252 L440.008,21.252 L440.008,9.484 L434.188,9.484 L434.188,3.153 L454.718,3.153 L454.718,9.484 L448.898,9.484 L448.898,21.252 L454.142,21.252 L454.142,27.583 L448.898,27.583 L448.898,43.124 L454.718,43.124 L454.718,49.456 L434.188,49.456 L434.188,43.124 Z M414.171,26.88 L414.171,29.63 C414.171,30.995 413.68,32.167 412.7,33.147 C411.719,34.129 410.546,34.618 409.182,34.618 L376.118,34.618 L376.118,36.857 L414.171,36.857 L414.171,37.816 L414.171,41.653 L414.171,44.339 C414.171,45.022 414.043,45.661 413.787,46.258 C413.531,46.855 413.18,47.377 412.732,47.825 C412.284,48.272 411.751,48.624 411.133,48.88 C410.515,49.136 409.864,49.264 409.182,49.264 L367.42,49.264 L367.42,44.595 L367.42,41.653 L367.42,36.857 L367.42,34.618 L367.42,29.886 L367.42,26.88 L367.42,23.362 L362.496,23.362 L362.496,15.368 L385.264,15.368 L384.304,13.641 L393.961,13.641 L394.921,15.368 L411.869,15.368 C412.806,15.368 413.691,15.55 414.523,15.912 C415.354,16.274 416.068,16.765 416.665,17.383 C417.262,18.001 417.741,18.726 418.104,19.557 C418.466,20.389 418.648,21.274 418.648,22.211 L418.648,23.362 L414.171,23.362 L414.171,26.88 Z M376.118,44.595 L404.45,44.595 C405.131,44.595 405.473,44.254 405.473,43.572 L405.473,41.653 L376.118,41.653 L376.118,44.595 Z M376.118,29.886 L404.45,29.886 C405.131,29.886 405.473,29.545 405.473,28.862 L405.473,26.88 L376.118,26.88 L376.118,29.886 Z M409.886,21.316 C409.886,20.847 409.726,20.452 409.406,20.133 C409.087,19.813 408.692,19.653 408.223,19.653 L394.857,19.653 L386.095,19.653 L371.258,19.653 L371.258,22.147 L409.886,22.147 L409.886,21.316 Z M413.467,12.426 L405.985,12.426 L404.258,9.356 L401.188,9.356 L399.781,12.426 L390.956,12.426 L395.304,3.217 L404.13,3.217 L403.235,5.008 L417.688,5.008 L417.688,9.356 L411.741,9.356 L413.467,12.426 Z M384.944,12.426 L377.525,12.426 L375.798,9.356 L372.729,9.356 L371.322,12.426 L362.496,12.426 L366.845,3.217 L375.607,3.217 L374.775,5.008 L389.229,5.008 L389.229,9.356 L383.281,9.356 L384.944,12.426 Z M290.804,42.996 L300.205,42.996 L295.025,35.13 L303.914,35.13 L309.031,42.996 L314.467,42.996 L314.467,33.403 L292.914,33.403 L292.914,27.072 L314.467,27.072 L314.467,21.827 L295.728,21.827 L295.728,19.269 L290.804,19.269 L295.728,3.153 L342.031,3.153 L346.955,19.269 L342.095,19.269 L342.095,21.827 L323.356,21.827 L323.356,27.072 L344.909,27.072 L344.909,33.403 L323.356,33.403 L323.356,42.996 L328.601,42.996 L333.781,35.13 L342.606,35.13 L337.49,42.996 L347.083,42.996 L347.083,49.328 L290.804,49.328 L290.804,42.996 Z M337.874,15.496 L336.083,9.42 L301.676,9.42 L299.885,15.496 L337.874,15.496 Z M262.536,32.636 L271.298,32.636 L274.879,49.136 L266.181,49.136 L262.536,32.636 Z M272.833,26.752 C272.193,27.391 271.447,27.893 270.594,28.255 C269.741,28.618 268.825,28.798 267.844,28.798 L243.03,28.798 L243.03,28.095 L243.03,23.618 L243.03,9.804 L243.03,4.624 L251.728,4.624 L266.181,4.624 L274.879,4.624 L274.879,9.804 L274.879,21.764 C274.879,22.745 274.697,23.661 274.336,24.514 C273.973,25.367 273.472,26.112 272.833,26.752 Z M266.181,9.804 L251.728,9.804 L251.728,23.618 L264.199,23.618 C264.753,23.618 265.222,23.426 265.606,23.043 C265.99,22.659 266.181,22.19 266.181,21.636 L266.181,9.804 Z M235.611,24.002 L240.664,24.002 L241.879,49.136 L236.763,49.136 L235.611,24.002 Z M234.077,49.136 L227.297,49.136 L227.297,21.636 L219.751,21.636 L219.751,16.2 L227.297,16.2 L227.297,10.636 L220.007,11.531 L220.007,5.839 L240.664,3.281 L240.664,8.973 L234.077,9.804 L234.077,16.2 L241.623,16.2 L241.623,21.636 L234.077,21.636 L234.077,49.136 Z M193.21,48.113 L151.64,48.113 L147.739,48.113 L164.175,20.229 L174.599,20.229 L161.169,41.909 L190.14,41.909 L183.361,28.287 L193.466,28.287 L203.762,49.2 L193.722,49.2 L193.21,48.113 Z M181.315,3.217 L190.972,3.217 L203.635,23.426 L193.977,23.426 L181.315,3.217 Z M147.547,23.426 L159.442,3.217 L169.099,3.217 L157.204,23.426 L147.547,23.426 Z M75.982,42.996 L78.796,42.996 L78.796,13.833 L97.599,13.833 L98.174,12.298 L75.982,12.298 L75.982,5.967 L100.477,5.967 L101.5,3.089 L110.773,3.089 L109.75,5.967 L132.134,5.967 L132.134,12.298 L107.448,12.298 L106.872,13.833 L122.285,13.833 C123.265,13.833 124.182,14.015 125.035,14.377 C125.888,14.74 126.634,15.24 127.274,15.88 C127.913,16.519 128.414,17.266 128.776,18.118 C129.138,18.972 129.32,19.888 129.32,20.868 L129.32,42.996 L132.134,42.996 L132.134,49.328 L75.982,49.328 L75.982,42.996 Z M87.686,42.996 L120.43,42.996 L120.43,41.269 L87.686,41.269 L87.686,42.996 Z M87.686,36.345 L120.43,36.345 L120.43,34.235 L87.686,34.235 L87.686,36.345 Z M87.686,29.31 L120.43,29.31 L120.43,27.2 L87.686,27.2 L87.686,29.31 Z M87.686,22.275 L120.43,22.275 L120.43,22.147 C120.43,21.594 120.239,21.124 119.855,20.74 C119.471,20.357 119.001,20.165 118.448,20.165 L87.686,20.165 L87.686,22.275 Z M55.325,49.328 L48.482,49.328 L47.011,49.328 L41.447,49.328 L41.447,4.56 L42.343,4.56 L48.482,4.56 L53.215,4.56 L59.802,4.56 L60.57,4.56 L60.57,44.211 C60.57,45.618 60.058,46.824 59.035,47.825 C58.011,48.827 56.774,49.328 55.325,49.328 Z M53.215,9.868 L48.482,9.868 L48.482,17.223 L53.215,17.223 L53.215,9.868 Z M53.215,22.531 L48.482,22.531 L48.482,30.589 L53.215,30.589 L53.215,22.531 Z M53.215,35.897 L48.482,35.897 L48.482,43.956 L51.744,43.956 C52.17,43.956 52.521,43.818 52.799,43.54 C53.076,43.263 53.215,42.911 53.215,42.485 L53.215,35.897 Z M33.965,14.984 L38.697,14.984 L40.168,49.392 L35.372,49.392 L33.965,14.984 Z M33.005,49.328 L25.715,49.328 L25.715,12.362 L19.191,12.362 L19.191,7.054 L25.715,7.054 L25.715,3.089 L33.005,3.089 L33.005,7.054 L39.529,7.054 L39.529,12.362 L33.005,12.362 L33.005,49.328 Z M24.755,14.984 L23.348,49.392 L18.552,49.392 L20.023,14.984 L24.755,14.984 Z M4.226,49.264 L9.662,31.037 L17.848,31.037 L12.348,49.264 L4.226,49.264 Z M9.662,28.031 L4.226,13.705 L8.255,13.705 L4.226,3.153 L12.348,3.153 L17.848,17.479 L13.819,17.479 L17.848,28.031 L9.662,28.031 Z M226.082,24.002 L224.867,49.136 L219.815,49.136 L220.966,24.002 L226.082,24.002 Z M255.309,32.764 L251.728,49.136 L243.03,49.136 L246.548,32.764 L255.309,32.764 Z M549.881,44.211 L506.2,44.211 L506.2,39.223 L549.881,39.223 L549.881,44.211 Z M670.05,40.886 L663.847,40.886 L661.609,32.764 L667.748,32.764 L670.05,40.886 Z M705.289,35.258 C705.289,36.751 704.799,38.008 703.818,39.031 C702.709,40.012 701.473,40.502 700.109,40.502 L690.963,40.502 L693.777,34.81 L695.76,34.81 C696.186,34.81 696.548,34.661 696.847,34.362 C697.103,34.107 697.231,33.766 697.231,33.339 L697.231,26.432 L689.301,26.432 L689.301,41.014 C689.301,41.568 689.514,42.059 689.94,42.485 C690.281,42.826 690.729,42.996 691.283,42.996 L707.016,42.996 L704.202,49.264 L688.277,49.264 C687.339,49.264 686.444,49.094 685.591,48.752 C684.781,48.411 684.034,47.9 683.353,47.217 C682.755,46.621 682.266,45.896 681.882,45.043 C681.54,44.147 681.37,43.231 681.37,42.293 L681.37,20.74 L705.289,20.74 L705.289,35.258 Z" id="path-1"></path>
        <filter x="-3.1%" y="-45.2%" width="106.2%" height="191.4%" filterUnits="objectBoundingBox" id="filter-2">
            <feMorphology radius="1" operator="dilate" in="SourceAlpha" result="shadowSpreadOuter1"></feMorphology>
            <feOffset dx="0" dy="0" in="shadowSpreadOuter1" result="shadowOffsetOuter1"></feOffset>
            <feGaussianBlur stdDeviation="6" in="shadowOffsetOuter1" result="shadowBlurOuter1"></feGaussianBlur>
            <feComposite in="shadowBlurOuter1" in2="SourceAlpha" operator="out" result="shadowBlurOuter1"></feComposite>
            <feColorMatrix values="0 0 0 0 0.149019608   0 0 0 0 0.580392157   0 0 0 0 0.949019608  0 0 0 1 0" type="matrix" in="shadowBlurOuter1"></feColorMatrix>
        </filter>
        <path d="M702.307,17.447 L699.597,6.025 L693.853,6.025 L689.659,17.447 L681.012,17.447 L686.82,0.991 L705.469,0.991 L710.954,17.447 L702.307,17.447 Z M682.238,27.901 L680.689,27.901 L680.689,41.324 C680.689,42.27 680.517,43.066 680.173,43.711 C679.915,44.443 679.505,45.089 678.947,45.647 C678.645,45.905 678.334,46.153 678.011,46.389 C677.688,46.626 677.333,46.809 676.946,46.938 C676.258,47.239 675.483,47.389 674.623,47.389 L668.944,47.389 L671.461,42.614 L671.655,42.614 C672.257,42.614 672.752,42.421 673.139,42.033 C673.526,41.56 673.72,41.109 673.72,40.678 L673.72,27.901 L663.395,27.901 L663.395,47.389 L656.361,47.389 L656.361,27.901 L654.038,27.901 L654.038,22.48 L656.361,22.48 L656.361,5.831 L658.49,5.831 L659.91,1.379 L668.234,1.379 L666.879,5.831 L676.043,5.831 C677.376,5.831 678.484,6.273 679.366,7.154 C680.247,8.036 680.689,9.101 680.689,10.348 L680.689,22.48 L682.238,22.48 L682.238,27.901 Z M673.591,12.801 C673.591,12.155 673.375,11.607 672.945,11.155 C672.515,10.703 671.977,10.477 671.332,10.477 L663.395,10.477 L663.395,22.48 L673.591,22.48 L673.591,12.801 Z M672.687,20.673 L666.492,20.673 L664.234,12.478 L670.493,12.478 L672.687,20.673 Z M613.964,47.389 L605.768,47.389 L610.285,39.775 L605.123,38.226 L605.123,31.708 L613.512,34.225 L615.835,30.224 L605.123,30.224 L605.123,26.61 L605.123,8.8 L605.123,7.896 L605.123,3.121 L616.932,3.121 L616.932,0.991 L624.224,0.991 L624.224,3.121 L636.033,3.121 L636.033,7.896 L636.033,8.8 L636.033,23.126 C636.033,24.116 635.85,25.04 635.485,25.901 C635.119,26.762 634.614,27.514 633.968,28.159 C633.323,28.804 632.57,29.311 631.71,29.676 C630.849,30.042 629.945,30.224 628.999,30.224 L624.031,30.224 L620.481,36.29 L636.033,40.936 L636.033,47.389 L617.255,41.84 L613.964,47.389 Z M616.932,8.8 L612.738,8.8 L612.738,24.481 L616.932,24.481 L616.932,8.8 Z M624.224,24.481 L626.354,24.481 C626.956,24.481 627.451,24.287 627.838,23.9 C628.225,23.513 628.419,23.04 628.419,22.48 L628.419,8.8 L624.224,8.8 L624.224,24.481 Z M601.993,45.679 C601.455,46.218 600.82,46.637 600.089,46.938 C599.357,47.239 598.583,47.389 597.766,47.389 L588.345,47.389 L590.41,42.808 L594.54,42.808 C595.013,42.808 595.411,42.646 595.734,42.324 C596.056,42.001 596.218,41.604 596.218,41.13 L596.218,27.707 L579.439,27.707 L584.86,10.219 L592.604,10.219 L588.925,22.416 L594.411,22.416 L594.411,7.961 C594.411,7.488 594.249,7.09 593.927,6.767 C593.604,6.444 593.206,6.283 592.733,6.283 L580.536,6.283 L580.536,0.991 L595.959,0.991 C596.776,0.991 597.54,1.143 598.25,1.443 C598.96,1.745 599.583,2.164 600.122,2.701 C600.659,3.24 601.079,3.863 601.38,4.573 C601.681,5.283 601.832,6.047 601.832,6.864 L601.832,22.416 L603.703,22.416 L603.703,41.517 C603.703,42.335 603.552,43.098 603.251,43.808 C602.95,44.518 602.531,45.142 601.993,45.679 Z M592.991,38.355 L579.246,38.355 L579.246,33.063 L592.991,33.063 L592.991,38.355 Z M561.855,45.679 C561.316,46.218 560.671,46.647 559.919,46.97 C559.166,47.293 558.38,47.454 557.563,47.454 L550.4,47.454 L552.336,43.453 L554.337,43.453 C555.024,43.453 555.369,43.109 555.369,42.421 L555.369,35.451 L508.068,35.451 L511.552,27.191 L519.232,27.191 L517.941,30.482 L553.175,30.482 L553.175,27.836 C553.175,27.364 553.014,26.965 552.691,26.643 C552.369,26.32 551.97,26.159 551.497,26.159 L509.165,26.159 L509.165,21.19 L555.756,21.19 C557.218,21.19 558.467,21.706 559.499,22.738 C560.532,23.771 561.048,25.019 561.048,26.481 L561.048,30.482 L563.629,30.482 L563.629,41.453 C563.629,42.27 563.468,43.045 563.145,43.776 C562.823,44.508 562.392,45.142 561.855,45.679 Z M561.564,17.576 C560.919,18.221 560.166,18.727 559.306,19.092 C558.445,19.458 557.541,19.641 556.595,19.641 L537.688,19.641 L537.688,19.576 L537.688,2.54 L563.629,2.54 L563.629,12.542 C563.629,13.533 563.446,14.457 563.081,15.317 C562.715,16.178 562.21,16.931 561.564,17.576 Z M555.692,7.574 L545.69,7.574 L545.69,14.608 L553.691,14.608 C554.25,14.608 554.724,14.414 555.111,14.027 C555.498,13.64 555.692,13.167 555.692,12.607 L555.692,7.574 Z M530.525,20.028 L521.103,20.028 L523.104,15.511 L526.33,15.511 C526.717,15.511 527.05,15.372 527.33,15.091 C527.61,14.812 527.75,14.478 527.75,14.091 L527.75,7.251 L518.522,7.251 L515.295,19.835 L507.487,19.835 L510.714,7.251 L507.1,7.251 L507.1,2.798 L511.875,2.798 L512.327,0.927 L520.135,0.927 L519.683,2.798 L535.494,2.798 L535.494,14.995 C535.494,16.372 535.01,17.555 534.042,18.544 C533.074,19.534 531.901,20.028 530.525,20.028 Z M457.669,42.291 L469.994,42.291 L469.994,36.355 L458.121,36.355 L458.121,30.934 L469.994,30.934 L469.994,26.739 L466.058,26.739 L459.282,26.739 L457.862,26.739 L457.862,0.798 L459.282,0.798 L466.058,0.798 L491.096,0.798 L491.096,19.641 C491.096,20.631 490.913,21.556 490.548,22.416 C490.182,23.277 489.676,24.029 489.031,24.674 C488.386,25.32 487.633,25.826 486.772,26.191 C485.911,26.557 484.987,26.739 483.998,26.739 L478.964,26.739 L478.964,30.934 L490.773,30.934 L490.773,36.355 L478.964,36.355 L478.964,42.291 L491.29,42.291 L491.29,47.583 L457.669,47.583 L457.669,42.291 Z M469.994,6.089 L466.058,6.089 L466.058,10.994 L469.994,10.994 L469.994,6.089 Z M469.994,16.285 L466.058,16.285 L466.058,21.448 L469.994,21.448 L469.994,16.285 Z M478.964,21.448 L480.836,21.448 C481.394,21.448 481.868,21.254 482.255,20.867 C482.642,20.48 482.836,19.986 482.836,19.383 L482.836,16.285 L478.964,16.285 L478.964,21.448 Z M478.964,10.994 L482.836,10.994 L482.836,6.089 L478.964,6.089 L478.964,10.994 Z M434.825,41.259 L440.697,41.259 L440.697,25.578 L435.47,25.578 L435.47,19.189 L440.697,19.189 L440.697,7.315 L434.825,7.315 L434.825,0.927 L455.539,0.927 L455.539,7.315 L449.667,7.315 L449.667,19.189 L454.958,19.189 L454.958,25.578 L449.667,25.578 L449.667,41.259 L455.539,41.259 L455.539,47.648 L434.825,47.648 L434.825,41.259 Z M414.626,24.868 L414.626,27.643 C414.626,29.02 414.131,30.203 413.142,31.192 C412.152,32.182 410.969,32.676 409.593,32.676 L376.23,32.676 L376.23,34.935 L414.626,34.935 L414.626,35.903 L414.626,39.775 L414.626,42.485 C414.626,43.174 414.497,43.819 414.239,44.421 C413.981,45.024 413.626,45.55 413.174,46.002 C412.723,46.454 412.184,46.809 411.561,47.067 C410.937,47.325 410.281,47.454 409.593,47.454 L367.454,47.454 L367.454,42.743 L367.454,39.775 L367.454,34.935 L367.454,32.676 L367.454,27.901 L367.454,24.868 L367.454,21.319 L362.485,21.319 L362.485,13.252 L385.458,13.252 L384.49,11.51 L394.235,11.51 L395.202,13.252 L412.303,13.252 C413.249,13.252 414.142,13.436 414.981,13.801 C415.82,14.167 416.54,14.662 417.143,15.285 C417.745,15.909 418.229,16.64 418.595,17.479 C418.96,18.318 419.144,19.211 419.144,20.157 L419.144,21.319 L414.626,21.319 L414.626,24.868 Z M376.23,42.743 L404.818,42.743 C405.505,42.743 405.85,42.399 405.85,41.711 L405.85,39.775 L376.23,39.775 L376.23,42.743 Z M376.23,27.901 L404.818,27.901 C405.505,27.901 405.85,27.557 405.85,26.868 L405.85,24.868 L376.23,24.868 L376.23,27.901 Z M410.303,19.254 C410.303,18.781 410.142,18.383 409.819,18.06 C409.496,17.737 409.098,17.576 408.625,17.576 L395.138,17.576 L386.297,17.576 L371.326,17.576 L371.326,20.093 L410.303,20.093 L410.303,19.254 Z M413.917,10.284 L406.366,10.284 L404.624,7.186 L401.527,7.186 L400.107,10.284 L391.202,10.284 L395.59,0.991 L404.495,0.991 L403.592,2.798 L418.176,2.798 L418.176,7.186 L412.174,7.186 L413.917,10.284 Z M385.136,10.284 L377.65,10.284 L375.908,7.186 L372.81,7.186 L371.39,10.284 L362.485,10.284 L366.873,0.991 L375.714,0.991 L374.875,2.798 L389.459,2.798 L389.459,7.186 L383.458,7.186 L385.136,10.284 Z M290.145,41.13 L299.632,41.13 L294.405,33.193 L303.374,33.193 L308.537,41.13 L314.022,41.13 L314.022,31.45 L292.275,31.45 L292.275,25.062 L314.022,25.062 L314.022,19.77 L295.114,19.77 L295.114,17.189 L290.145,17.189 L295.114,0.927 L341.835,0.927 L346.804,17.189 L341.9,17.189 L341.9,19.77 L322.992,19.77 L322.992,25.062 L344.739,25.062 L344.739,31.45 L322.992,31.45 L322.992,41.13 L328.284,41.13 L333.511,33.193 L342.416,33.193 L337.253,41.13 L346.933,41.13 L346.933,47.519 L290.145,47.519 L290.145,41.13 Z M337.641,13.381 L335.834,7.251 L301.116,7.251 L299.309,13.381 L337.641,13.381 Z M261.623,30.676 L270.463,30.676 L274.077,47.325 L265.301,47.325 L261.623,30.676 Z M272.012,24.739 C271.367,25.384 270.614,25.89 269.754,26.255 C268.893,26.621 267.968,26.804 266.979,26.804 L241.941,26.804 L241.941,26.094 L241.941,21.577 L241.941,7.638 L241.941,2.411 L250.717,2.411 L265.301,2.411 L274.077,2.411 L274.077,7.638 L274.077,19.705 C274.077,20.696 273.894,21.62 273.529,22.48 C273.163,23.341 272.658,24.094 272.012,24.739 Z M265.301,7.638 L250.717,7.638 L250.717,21.577 L263.3,21.577 C263.859,21.577 264.333,21.383 264.72,20.996 C265.107,20.609 265.301,20.136 265.301,19.576 L265.301,7.638 Z M234.455,21.964 L239.553,21.964 L240.779,47.325 L235.617,47.325 L234.455,21.964 Z M232.906,47.325 L226.066,47.325 L226.066,19.576 L218.451,19.576 L218.451,14.091 L226.066,14.091 L226.066,8.477 L218.709,9.38 L218.709,3.637 L239.553,1.056 L239.553,6.799 L232.906,7.638 L232.906,14.091 L240.521,14.091 L240.521,19.576 L232.906,19.576 L232.906,47.325 Z M191.671,46.292 L149.725,46.292 L145.789,46.292 L162.373,18.157 L172.892,18.157 L159.34,40.033 L188.573,40.033 L181.733,26.288 L191.929,26.288 L202.318,47.389 L192.187,47.389 L191.671,46.292 Z M179.668,0.991 L189.412,0.991 L202.189,21.383 L192.445,21.383 L179.668,0.991 Z M145.595,21.383 L157.598,0.991 L167.342,0.991 L155.34,21.383 L145.595,21.383 Z M73.385,41.13 L76.224,41.13 L76.224,11.704 L95.196,11.704 L95.777,10.155 L73.385,10.155 L73.385,3.766 L98.1,3.766 L99.133,0.862 L108.49,0.862 L107.457,3.766 L130.043,3.766 L130.043,10.155 L105.134,10.155 L104.553,11.704 L120.105,11.704 C121.095,11.704 122.019,11.887 122.88,12.252 C123.74,12.618 124.494,13.123 125.139,13.769 C125.784,14.414 126.289,15.167 126.655,16.027 C127.02,16.888 127.204,17.813 127.204,18.802 L127.204,41.13 L130.043,41.13 L130.043,47.519 L73.385,47.519 L73.385,41.13 Z M85.194,41.13 L118.234,41.13 L118.234,39.388 L85.194,39.388 L85.194,41.13 Z M85.194,34.419 L118.234,34.419 L118.234,32.289 L85.194,32.289 L85.194,34.419 Z M85.194,27.32 L118.234,27.32 L118.234,25.191 L85.194,25.191 L85.194,27.32 Z M85.194,20.222 L118.234,20.222 L118.234,20.093 C118.234,19.534 118.04,19.06 117.653,18.673 C117.266,18.286 116.792,18.092 116.234,18.092 L85.194,18.092 L85.194,20.222 Z M52.541,47.519 L45.636,47.519 L44.152,47.519 L38.538,47.519 L38.538,2.347 L39.441,2.347 L45.636,2.347 L50.412,2.347 L57.058,2.347 L57.833,2.347 L57.833,42.356 C57.833,43.776 57.317,44.992 56.284,46.002 C55.252,47.013 54.003,47.519 52.541,47.519 Z M50.412,7.703 L45.636,7.703 L45.636,15.124 L50.412,15.124 L50.412,7.703 Z M50.412,20.48 L45.636,20.48 L45.636,28.611 L50.412,28.611 L50.412,20.48 Z M50.412,33.967 L45.636,33.967 L45.636,42.098 L48.927,42.098 C49.357,42.098 49.712,41.959 49.992,41.678 C50.271,41.399 50.412,41.044 50.412,40.614 L50.412,33.967 Z M30.988,12.865 L35.763,12.865 L37.247,47.583 L32.407,47.583 L30.988,12.865 Z M30.02,47.519 L22.663,47.519 L22.663,10.219 L16.081,10.219 L16.081,4.863 L22.663,4.863 L22.663,0.862 L30.02,0.862 L30.02,4.863 L36.602,4.863 L36.602,10.219 L30.02,10.219 L30.02,47.519 Z M21.695,12.865 L20.275,47.583 L15.436,47.583 L16.92,12.865 L21.695,12.865 Z M0.981,47.454 L6.466,29.063 L14.726,29.063 L9.176,47.454 L0.981,47.454 Z M6.466,26.03 L0.981,11.575 L5.046,11.575 L0.981,0.927 L9.176,0.927 L14.726,15.382 L10.66,15.382 L14.726,26.03 L6.466,26.03 Z M224.84,21.964 L223.614,47.325 L218.516,47.325 L219.677,21.964 L224.84,21.964 Z M254.331,30.805 L250.717,47.325 L241.941,47.325 L245.49,30.805 L254.331,30.805 Z M551.562,42.356 L507.487,42.356 L507.487,37.323 L551.562,37.323 L551.562,42.356 Z M672.816,39 L666.557,39 L664.298,30.805 L670.493,30.805 L672.816,39 Z M708.373,33.322 C708.373,34.828 707.878,36.096 706.889,37.129 C705.77,38.119 704.522,38.613 703.146,38.613 L693.918,38.613 L696.757,32.87 L698.758,32.87 C699.187,32.87 699.553,32.72 699.855,32.418 C700.113,32.16 700.242,31.816 700.242,31.386 L700.242,24.416 L692.24,24.416 L692.24,39.129 C692.24,39.689 692.455,40.184 692.886,40.614 C693.229,40.959 693.681,41.13 694.241,41.13 L710.115,41.13 L707.276,47.454 L691.208,47.454 C690.261,47.454 689.357,47.283 688.497,46.938 C687.68,46.594 686.926,46.078 686.239,45.389 C685.636,44.787 685.142,44.056 684.755,43.195 C684.41,42.291 684.238,41.367 684.238,40.42 L684.238,18.673 L708.373,18.673 L708.373,33.322 Z" id="path-3"></path>
        <filter x="-0.2%" y="-3.2%" width="100.4%" height="112.8%" filterUnits="objectBoundingBox" id="filter-4">
            <feOffset dx="0" dy="3" in="SourceAlpha" result="shadowOffsetOuter1"></feOffset>
            <feColorMatrix values="0 0 0 0 0.00392156863   0 0 0 0 0.0352941176   0 0 0 0 0.184313725  0 0 0 1 0" type="matrix" in="shadowOffsetOuter1"></feColorMatrix>
        </filter>
    </defs>
    <g id="页面-1" stroke="none" stroke-width="1" fill="none" fill-rule="evenodd">
        <g id="system_name" transform="translate(11.000000, 11.000000)">
            <g id="形状">
                <use fill="black" fill-opacity="1" filter="url(#filter-2)" xlink:href="#path-1"></use>
                <use fill-opacity="0" fill="#FFFFFF" fill-rule="evenodd" xlink:href="#path-1"></use>
            </g>
            <g id="形状">
                <use fill="black" fill-opacity="1" filter="url(#filter-4)" xlink:href="#path-3"></use>
                <use fill="#FFFFFF" fill-rule="evenodd" xlink:href="#path-3"></use>
            </g>
        </g>
    </g>
</svg>