<?xml version="1.0" encoding="UTF-8"?>
<svg width="16px" height="16px" viewBox="0 0 16 16" version="1.1" xmlns="http://www.w3.org/2000/svg" xmlns:xlink="http://www.w3.org/1999/xlink">
    <title>icon_dwhx_zuo2</title>
    <g id="画像" stroke="none" stroke-width="1" fill="none" fill-rule="evenodd">
        <g id="单位画像-邢台" transform="translate(-24.000000, -296.000000)">
            <g id="第三块" transform="translate(10.000000, 282.000000)">
                <g id="icon_dwhx_zuo2" transform="translate(14.000000, 14.000000)">
                    <rect id="矩形" fill-rule="nonzero" x="0" y="0" width="16" height="16"></rect>
                    <circle id="椭圆形" stroke="#BACEDF" stroke-linecap="round" stroke-linejoin="round" cx="4.66666667" cy="9.66666667" r="1.66666667"></circle>
                    <circle id="椭圆形" stroke="#BACEDF" stroke-linecap="round" stroke-linejoin="round" cx="11.3333333" cy="9.66666667" r="1.66666667"></circle>
                    <circle id="椭圆形" stroke="#BACEDF" stroke-linecap="round" stroke-linejoin="round" cx="8" cy="3" r="1.66666667"></circle>
                    <path d="M8,14.6666667 C8,12.8257333 6.5076,11.3333333 4.66666667,11.3333333 C2.82571667,11.3333333 1.33333333,12.8257333 1.33333333,14.6666667" id="路径" stroke="#BACEDF" stroke-linecap="round" stroke-linejoin="round"></path>
                    <path d="M14.6666667,14.6666667 C14.6666667,12.8257333 13.1742667,11.3333333 11.3333333,11.3333333 C9.4924,11.3333333 8,12.8257333 8,14.6666667" id="路径" stroke="#BACEDF" stroke-linecap="round" stroke-linejoin="round"></path>
                    <path d="M11.3333333,8 C11.3333333,6.15906667 9.84093333,4.66666667 8,4.66666667 C6.15906667,4.66666667 4.66666667,6.15906667 4.66666667,8" id="路径" stroke="#BACEDF" stroke-linecap="round" stroke-linejoin="round"></path>
                </g>
            </g>
        </g>
    </g>
</svg>