<?xml version="1.0" encoding="UTF-8"?>
<svg width="16px" height="16px" viewBox="0 0 16 16" version="1.1" xmlns="http://www.w3.org/2000/svg" xmlns:xlink="http://www.w3.org/1999/xlink">
    <title>icon_dwhx_zuo3</title>
    <g id="画像" stroke="none" stroke-width="1" fill="none" fill-rule="evenodd">
        <g id="单位画像-邢台" transform="translate(-26.000000, -561.000000)">
            <g id="第四块" transform="translate(10.000000, 546.000000)">
                <g id="icon_dwhx_zuo3" transform="translate(16.000000, 15.000000)">
                    <rect id="矩形" fill-rule="nonzero" x="0" y="0" width="16" height="16"></rect>
                    <path d="M1.66666667,6.33333333 L14.3333333,6.33333333 L14.3333333,13.3333333 C14.3333333,13.7015333 14.0348667,14 13.6666667,14 L2.33333333,14 C1.96514333,14 1.66666667,13.7015333 1.66666667,13.3333333 L1.66666667,6.33333333 Z" id="路径" stroke="#BACEDF" stroke-linejoin="round"></path>
                    <path d="M1.66666667,3 C1.66666667,2.63181 1.96514333,2.33333333 2.33333333,2.33333333 L13.6666667,2.33333333 C14.0348667,2.33333333 14.3333333,2.63181 14.3333333,3 L14.3333333,6.33333333 L1.66666667,6.33333333 L1.66666667,3 Z" id="路径" stroke="#BACEDF" stroke-linejoin="round"></path>
                    <line x1="5.33333333" y1="1.33333333" x2="5.33333333" y2="4" id="路径" stroke="#BACEDF" stroke-linecap="round" stroke-linejoin="round"></line>
                    <line x1="10.6666667" y1="1.33333333" x2="10.6666667" y2="4" id="路径" stroke="#BACEDF" stroke-linecap="round" stroke-linejoin="round"></line>
                    <line x1="9.33333333" y1="11.3333333" x2="11.3333333" y2="11.3333333" id="路径" stroke="#BACEDF" stroke-linecap="round" stroke-linejoin="round"></line>
                    <line x1="4.66666667" y1="11.3333333" x2="6.66666667" y2="11.3333333" id="路径" stroke="#BACEDF" stroke-linecap="round" stroke-linejoin="round"></line>
                    <line x1="9.33333333" y1="8.66666667" x2="11.3333333" y2="8.66666667" id="路径" stroke="#BACEDF" stroke-linecap="round" stroke-linejoin="round"></line>
                    <line x1="4.66666667" y1="8.66666667" x2="6.66666667" y2="8.66666667" id="路径" stroke="#BACEDF" stroke-linecap="round" stroke-linejoin="round"></line>
                </g>
            </g>
        </g>
    </g>
</svg>