<?xml version="1.0" encoding="UTF-8"?>
<svg width="76px" height="76px" viewBox="0 0 76 76" version="1.1" xmlns="http://www.w3.org/2000/svg" xmlns:xlink="http://www.w3.org/1999/xlink">
    <title>icon_jc_sjdw</title>
    <defs>
        <linearGradient x1="0%" y1="25.7932301%" x2="97.03%" y2="3.10219725%" id="linearGradient-1">
            <stop stop-color="#0E1C33" offset="0%"></stop>
            <stop stop-color="#8FDFFE" offset="100%"></stop>
        </linearGradient>
        <linearGradient x1="52.992%" y1="82.343313%" x2="0%" y2="3.53639856%" id="linearGradient-2">
            <stop stop-color="#0E1C33" offset="0%"></stop>
            <stop stop-color="#8FDFFE" offset="100%"></stop>
        </linearGradient>
        <linearGradient x1="0%" y1="0%" x2="0%" y2="100%" id="linearGradient-3">
            <stop stop-color="#1DB4FF" stop-opacity="0" offset="0%"></stop>
            <stop stop-color="#1DB4FF" stop-opacity="0.29" offset="29%"></stop>
            <stop stop-color="#1DB4FF" offset="100%"></stop>
        </linearGradient>
        <linearGradient x1="0%" y1="0%" x2="0%" y2="100%" id="linearGradient-4">
            <stop stop-color="#0E1C33" offset="0%"></stop>
            <stop stop-color="#1DB4FF" offset="100%"></stop>
        </linearGradient>
        <linearGradient x1="0%" y1="0%" x2="0%" y2="100%" id="linearGradient-5">
            <stop stop-color="#0060FF" offset="0%"></stop>
            <stop stop-color="#8FDFFE" offset="100%"></stop>
        </linearGradient>
    </defs>
    <g id="页面-1" stroke="none" stroke-width="1" fill="none" fill-rule="evenodd">
        <g id="icon_jc_sjdw">
            <polygon id="路径" fill="url(#linearGradient-1)" points="0 52 38 65.9112656 38 76 0 62.087753"></polygon>
            <polygon id="路径" fill="url(#linearGradient-2)" points="38 65.9590541 76 52 76 62.0409459 38 76"></polygon>
            <polygon id="路径" fill="#142747" points="0.031 52 37.5 39.04 76 52 38.064 66.717"></polygon>
            <polygon id="路径" fill="url(#linearGradient-3)" opacity="0.4" points="0 0.454 76 9.47874123e-14 76 52 38.064 66.717 0.031 52"></polygon>
            <path d="M52.519,35.774 L51.171,36.668 L51.171,40.447 L52.463,41.266 C52.643,41.378 52.788,41.533 52.896,41.732 C53.005,41.93 53.059,42.222 53.059,42.607 C53.059,42.992 52.995,43.299 52.868,43.528 C52.741,43.758 52.523,43.786 52.216,43.612 L45.46,39.777 C45.34,39.715 45.234,39.581 45.14,39.377 C45.046,39.172 44.999,38.896 44.999,38.548 C44.999,38.201 45.046,37.924 45.14,37.72 C45.234,37.515 45.34,37.382 45.46,37.319 L52.239,33.447 C52.523,33.298 52.731,33.338 52.862,33.568 C52.993,33.798 53.059,34.105 53.059,34.489 C53.067,34.874 53.016,35.16 52.907,35.346 C52.799,35.532 52.67,35.675 52.519,35.774 Z M49.9,37.115 L47.113,38.548 L49.9,39.982 L49.9,37.115 Z M52.137,31.79 L45.573,31.79 C45.393,31.79 45.252,31.672 45.151,31.436 C45.05,31.201 44.999,30.915 44.999,30.58 C44.999,30.22 45.05,29.928 45.151,29.705 C45.252,29.481 45.393,29.37 45.573,29.37 L51.643,29.37 L51.643,25.721 C51.643,25.473 51.693,25.249 51.794,25.05 C51.896,24.852 52.063,24.753 52.295,24.753 C52.535,24.753 52.703,24.858 52.801,25.069 C52.898,25.28 52.947,25.497 52.947,25.721 L52.947,30.468 C52.947,30.878 52.868,31.201 52.711,31.436 C52.553,31.672 52.362,31.79 52.137,31.79 Z M52.137,23.263 L45.573,23.263 C45.393,23.263 45.252,23.145 45.151,22.909 C45.05,22.674 44.999,22.388 44.999,22.053 C44.999,21.693 45.05,21.401 45.151,21.178 C45.252,20.955 45.393,20.843 45.573,20.843 L51.643,20.843 L51.643,17.194 C51.643,16.946 51.693,16.722 51.794,16.524 C51.896,16.325 52.063,16.226 52.295,16.226 C52.535,16.226 52.703,16.331 52.801,16.542 C52.898,16.753 52.947,16.97 52.947,17.194 L52.947,21.941 C52.947,22.351 52.868,22.674 52.711,22.909 C52.553,23.145 52.362,23.263 52.137,23.263 Z M41.958,43.535 C41.625,43.701 41.293,43.701 40.627,43.701 L24.592,43.701 C23.934,43.701 23.767,43.701 23.441,43.535 C23.274,43.369 22.948,43.208 22.948,43.042 C22.782,42.716 22.782,42.549 22.782,41.903 L22.782,21.177 C22.782,19.365 22.948,18.872 23.108,18.059 C23.274,17.406 23.607,16.74 24.1,16.247 C24.586,15.754 25.085,15.267 26.563,14.281 L40.301,7.699 C40.742,7.372 41.35,7.372 41.792,7.699 C42.284,8.026 42.617,8.352 42.617,9.018 L42.617,41.896 C42.617,42.549 42.617,42.709 42.451,43.042 C42.284,43.208 42.124,43.535 41.958,43.535 Z M34.683,22.336 L30.709,22.336 C30.044,22.336 29.379,22.989 29.379,23.981 C29.379,24.967 30.044,25.627 30.709,25.627 L34.683,25.627 C35.342,25.627 36.014,24.974 36.014,23.981 C36.014,22.995 35.348,22.336 34.683,22.336 Z M29.551,28.918 C29.385,29.455 29.385,30.032 29.551,30.563 C29.724,31.05 30.185,31.376 30.703,31.383 L34.677,31.383 C35.336,31.383 36.007,30.73 36.007,29.737 C36.007,28.758 35.342,28.092 34.677,28.092 L30.703,28.092 L30.703,28.105 C30.21,28.105 29.884,28.431 29.551,28.918 Z M34.683,33.848 L30.709,33.848 C30.044,33.848 29.379,34.501 29.379,35.493 C29.379,36.486 30.044,37.139 30.709,37.139 L34.683,37.139 C35.342,37.139 36.014,36.486 36.014,35.493 C36.014,34.501 35.348,33.848 34.683,33.848 Z" id="形状" fill="url(#linearGradient-4)" fill-rule="nonzero"></path>
            <path d="M50.52,37.774 L49.171,38.668 L49.171,42.447 L50.463,43.266 C50.643,43.378 50.788,43.533 50.896,43.732 C51.005,43.93 51.059,44.222 51.059,44.607 C51.059,44.992 50.995,45.299 50.868,45.528 C50.741,45.758 50.523,45.786 50.216,45.612 L43.46,41.777 C43.34,41.715 43.234,41.581 43.14,41.377 C43.046,41.172 42.999,40.896 42.999,40.548 C42.999,40.201 43.046,39.924 43.14,39.72 C43.234,39.515 43.34,39.382 43.46,39.319 L50.239,35.447 C50.523,35.298 50.731,35.338 50.862,35.568 C50.993,35.798 51.059,36.105 51.059,36.489 C51.066,36.874 51.016,37.16 50.907,37.346 C50.799,37.532 50.67,37.675 50.52,37.774 Z M47.9,39.115 L45.113,40.548 L47.9,41.982 L47.9,39.115 Z M50.137,33.79 L43.573,33.79 C43.393,33.79 43.252,33.672 43.151,33.436 C43.05,33.201 42.999,32.915 42.999,32.58 C42.999,32.22 43.05,31.928 43.151,31.705 C43.252,31.481 43.393,31.37 43.573,31.37 L49.643,31.37 L49.643,27.721 C49.643,27.473 49.693,27.249 49.795,27.05 C49.896,26.852 50.063,26.753 50.295,26.753 C50.535,26.753 50.703,26.858 50.801,27.069 C50.898,27.28 50.947,27.497 50.947,27.721 L50.947,32.468 C50.947,32.878 50.868,33.201 50.711,33.436 C50.553,33.672 50.362,33.79 50.137,33.79 Z M50.137,25.263 L43.573,25.263 C43.393,25.263 43.252,25.145 43.151,24.909 C43.05,24.674 42.999,24.388 42.999,24.053 C42.999,23.693 43.05,23.401 43.151,23.178 C43.252,22.955 43.393,22.843 43.573,22.843 L49.643,22.843 L49.643,19.194 C49.643,18.946 49.693,18.722 49.795,18.524 C49.896,18.325 50.063,18.226 50.295,18.226 C50.535,18.226 50.703,18.331 50.801,18.542 C50.898,18.753 50.947,18.97 50.947,19.194 L50.947,23.941 C50.947,24.351 50.868,24.674 50.711,24.909 C50.553,25.145 50.362,25.263 50.137,25.263 Z M39.958,45.535 C39.625,45.701 39.293,45.701 38.627,45.701 L22.592,45.701 C21.934,45.701 21.767,45.701 21.441,45.535 C21.274,45.369 20.948,45.208 20.948,45.042 C20.782,44.716 20.782,44.549 20.782,43.903 L20.782,23.177 C20.782,21.365 20.948,20.872 21.108,20.059 C21.274,19.406 21.607,18.74 22.1,18.247 C22.586,17.754 23.085,17.267 24.563,16.281 L38.301,9.699 C38.743,9.372 39.35,9.372 39.792,9.699 C40.284,10.026 40.617,10.352 40.617,11.018 L40.617,43.896 C40.617,44.549 40.617,44.709 40.451,45.042 C40.284,45.208 40.124,45.535 39.958,45.535 Z M32.683,24.336 L28.709,24.336 C28.044,24.336 27.379,24.989 27.379,25.981 C27.379,26.967 28.044,27.627 28.709,27.627 L32.683,27.627 C33.342,27.627 34.014,26.974 34.014,25.981 C34.014,24.995 33.348,24.336 32.683,24.336 Z M27.551,30.918 C27.385,31.455 27.385,32.032 27.551,32.563 C27.724,33.05 28.185,33.376 28.703,33.383 L32.677,33.383 C33.336,33.383 34.007,32.73 34.007,31.737 C34.007,30.758 33.342,30.092 32.677,30.092 L28.703,30.092 L28.703,30.105 C28.21,30.105 27.884,30.431 27.551,30.918 Z M32.683,35.848 L28.709,35.848 C28.044,35.848 27.379,36.501 27.379,37.493 C27.379,38.486 28.044,39.139 28.709,39.139 L32.683,39.139 C33.342,39.139 34.014,38.486 34.014,37.493 C34.014,36.501 33.348,35.848 32.683,35.848 Z" id="形状" fill="url(#linearGradient-5)" fill-rule="nonzero"></path>
        </g>
    </g>
</svg>