<?xml version="1.0" encoding="UTF-8"?>
<svg width="76px" height="76px" viewBox="0 0 76 76" version="1.1" xmlns="http://www.w3.org/2000/svg" xmlns:xlink="http://www.w3.org/1999/xlink">
    <title>icon_jc_xkhdw</title>
    <defs>
        <linearGradient x1="0%" y1="25.7932301%" x2="97.03%" y2="3.10219725%" id="linearGradient-1">
            <stop stop-color="#0E1C33" offset="0%"></stop>
            <stop stop-color="#8FDFFE" offset="100%"></stop>
        </linearGradient>
        <linearGradient x1="52.992%" y1="82.343313%" x2="0%" y2="3.53639856%" id="linearGradient-2">
            <stop stop-color="#0E1C33" offset="0%"></stop>
            <stop stop-color="#8FDFFE" offset="100%"></stop>
        </linearGradient>
        <linearGradient x1="0%" y1="0%" x2="0%" y2="100%" id="linearGradient-3">
            <stop stop-color="#1DB4FF" stop-opacity="0" offset="0%"></stop>
            <stop stop-color="#1DB4FF" stop-opacity="0.29" offset="29%"></stop>
            <stop stop-color="#1DB4FF" offset="100%"></stop>
        </linearGradient>
        <linearGradient x1="0%" y1="0%" x2="0%" y2="100%" id="linearGradient-4">
            <stop stop-color="#0E1C33" offset="0%"></stop>
            <stop stop-color="#1DB4FF" offset="100%"></stop>
        </linearGradient>
        <linearGradient x1="0%" y1="0%" x2="0%" y2="100%" id="linearGradient-5">
            <stop stop-color="#0060FF" offset="0%"></stop>
            <stop stop-color="#8FDFFE" offset="100%"></stop>
        </linearGradient>
    </defs>
    <g id="页面-1" stroke="none" stroke-width="1" fill="none" fill-rule="evenodd">
        <g id="icon_jc_xkhdw">
            <polygon id="路径" fill="url(#linearGradient-1)" points="0 52 38 65.9112656 38 76 0 62.087753"></polygon>
            <polygon id="路径" fill="url(#linearGradient-2)" points="38 65.9590541 76 52 76 62.0409459 38 76"></polygon>
            <polygon id="路径" fill="#142747" points="0.031 52 37.5 39.04 76 52 38.064 66.717"></polygon>
            <polygon id="路径" fill="url(#linearGradient-3)" opacity="0.4" points="0 0.454 76 3.79439934e-14 76 52 38.064 66.717 0.031 52"></polygon>
            <path d="M54.71,44.736 L54.218,45.229 C54.051,45.395 53.891,45.395 53.226,45.395 L49.911,45.395 C49.419,45.395 49.092,45.395 48.926,45.229 C48.76,45.063 48.6,45.063 48.433,44.736 C48.267,44.409 48.267,44.243 48.267,43.59 L48.267,18.926 C48.267,18.267 48.6,17.774 49.092,17.608 C49.611,17.454 50.174,17.575 50.583,17.934 L52.56,20.073 C53.559,21.225 53.725,21.552 54.051,22.045 C54.384,22.55 54.544,23.043 54.71,23.53 C54.876,24.023 54.876,24.51 54.876,25.995 L54.876,43.59 C54.876,44.243 54.876,44.576 54.71,44.736 Z M44.3,45.223 C43.967,45.389 43.634,45.389 42.969,45.389 L26.934,45.389 C26.275,45.389 26.109,45.389 25.783,45.223 C25.616,45.056 25.29,44.896 25.29,44.73 C25.123,44.403 25.123,44.237 25.123,43.59 L25.123,22.864 C25.123,21.052 25.29,20.559 25.45,19.746 C25.616,19.093 25.949,18.427 26.441,17.934 C26.928,17.441 27.427,16.954 28.905,15.968 L42.643,9.387 C43.084,9.06 43.692,9.06 44.134,9.387 C44.626,9.713 44.959,10.04 44.959,10.705 L44.959,43.584 C44.959,44.237 44.959,44.397 44.793,44.73 C44.626,44.896 44.466,45.223 44.3,45.223 Z M37.025,24.023 L33.051,24.023 C32.386,24.023 31.72,24.676 31.72,25.669 C31.72,26.655 32.386,27.314 33.051,27.314 L37.025,27.314 C37.684,27.314 38.356,26.661 38.356,25.669 C38.356,24.683 37.69,24.023 37.025,24.023 Z M31.893,30.605 C31.727,31.143 31.727,31.719 31.893,32.251 C32.066,32.737 32.527,33.064 33.045,33.07 L37.018,33.07 C37.677,33.07 38.349,32.417 38.349,31.425 C38.349,30.445 37.684,29.779 37.018,29.779 L33.045,29.779 L33.045,29.792 C32.552,29.792 32.226,30.119 31.893,30.605 Z M37.025,35.535 L33.051,35.535 C32.386,35.535 31.72,36.188 31.72,37.181 C31.72,38.173 32.386,38.826 33.051,38.826 L37.025,38.826 C37.684,38.826 38.356,38.173 38.356,37.181 C38.356,36.188 37.69,35.535 37.025,35.535 Z" id="形状" fill="url(#linearGradient-4)" fill-rule="nonzero"></path>
            <path d="M51.71,47.736 L51.218,48.229 C51.051,48.395 50.891,48.395 50.226,48.395 L46.911,48.395 C46.419,48.395 46.092,48.395 45.926,48.229 C45.76,48.062 45.6,48.062 45.433,47.736 C45.267,47.409 45.267,47.243 45.267,46.59 L45.267,21.926 C45.267,21.267 45.6,20.774 46.092,20.608 C46.611,20.454 47.174,20.576 47.583,20.934 L49.56,23.073 C50.559,24.225 50.725,24.552 51.051,25.045 C51.384,25.55 51.544,26.044 51.71,26.53 C51.877,27.023 51.877,27.51 51.877,28.995 L51.877,46.59 C51.877,47.243 51.877,47.576 51.71,47.736 Z M41.3,48.223 C40.967,48.389 40.634,48.389 39.969,48.389 L23.934,48.389 C23.275,48.389 23.109,48.389 22.783,48.223 C22.616,48.056 22.29,47.896 22.29,47.73 C22.123,47.403 22.123,47.237 22.123,46.59 L22.123,25.864 C22.123,24.052 22.29,23.559 22.45,22.746 C22.616,22.093 22.949,21.427 23.441,20.934 C23.928,20.441 24.427,19.954 25.905,18.969 L39.643,12.387 C40.084,12.06 40.692,12.06 41.134,12.387 C41.626,12.713 41.959,13.04 41.959,13.705 L41.959,46.584 C41.959,47.237 41.959,47.397 41.793,47.73 C41.626,47.896 41.466,48.223 41.3,48.223 Z M34.025,27.023 L30.051,27.023 C29.386,27.023 28.72,27.676 28.72,28.669 C28.72,29.655 29.386,30.314 30.051,30.314 L34.025,30.314 C34.684,30.314 35.355,29.661 35.355,28.669 C35.355,27.683 34.69,27.023 34.025,27.023 Z M28.893,33.605 C28.727,34.143 28.727,34.719 28.893,35.251 C29.066,35.737 29.527,36.064 30.045,36.07 L34.018,36.07 C34.677,36.07 35.349,35.417 35.349,34.425 C35.349,33.445 34.684,32.779 34.018,32.779 L30.045,32.779 L30.045,32.792 C29.552,32.792 29.226,33.119 28.893,33.605 Z M34.025,38.535 L30.051,38.535 C29.386,38.535 28.72,39.188 28.72,40.181 C28.72,41.173 29.386,41.826 30.051,41.826 L34.025,41.826 C34.684,41.826 35.355,41.173 35.355,40.181 C35.355,39.188 34.69,38.535 34.025,38.535 Z" id="形状" fill="url(#linearGradient-5)" fill-rule="nonzero"></path>
        </g>
    </g>
</svg>