<?xml version="1.0" encoding="UTF-8"?>
<svg width="76px" height="76px" viewBox="0 0 76 76" version="1.1" xmlns="http://www.w3.org/2000/svg" xmlns:xlink="http://www.w3.org/1999/xlink">
    <title>icon_jc_sjzg</title>
    <defs>
        <linearGradient x1="0%" y1="25.7932301%" x2="97.03%" y2="3.10219725%" id="linearGradient-1">
            <stop stop-color="#0E1C33" offset="0%"></stop>
            <stop stop-color="#8FDFFE" offset="100%"></stop>
        </linearGradient>
        <linearGradient x1="52.992%" y1="82.343313%" x2="0%" y2="3.53639856%" id="linearGradient-2">
            <stop stop-color="#0E1C33" offset="0%"></stop>
            <stop stop-color="#8FDFFE" offset="100%"></stop>
        </linearGradient>
        <linearGradient x1="0%" y1="0%" x2="0%" y2="100%" id="linearGradient-3">
            <stop stop-color="#1DB4FF" stop-opacity="0" offset="0%"></stop>
            <stop stop-color="#1DB4FF" stop-opacity="0.29" offset="29%"></stop>
            <stop stop-color="#1DB4FF" offset="100%"></stop>
        </linearGradient>
        <linearGradient x1="0%" y1="0%" x2="0%" y2="100%" id="linearGradient-4">
            <stop stop-color="#0E1C33" offset="0%"></stop>
            <stop stop-color="#1DB4FF" offset="100%"></stop>
        </linearGradient>
        <linearGradient x1="0%" y1="0%" x2="0%" y2="100%" id="linearGradient-5">
            <stop stop-color="#0060FF" offset="0%"></stop>
            <stop stop-color="#8FDFFE" offset="100%"></stop>
        </linearGradient>
    </defs>
    <g id="页面-1" stroke="none" stroke-width="1" fill="none" fill-rule="evenodd">
        <g id="icon_jc_sjzg">
            <polygon id="路径" fill="url(#linearGradient-1)" points="0 52 38 65.9112656 38 76 0 62.087753"></polygon>
            <polygon id="路径" fill="url(#linearGradient-2)" points="38 65.9590541 76 52 76 62.0409459 38 76"></polygon>
            <polygon id="路径" fill="#142747" points="0.031 52 37.5 39.04 76 52 38.064 66.717"></polygon>
            <polygon id="路径" fill="url(#linearGradient-3)" opacity="0.4" points="0 0.454 76 9.47874123e-14 76 52 38.064 66.717 0.031 52"></polygon>
            <path d="M58.354,44.457 C57.367,44.457 56.568,43.659 56.568,42.672 L56.568,41.602 C56.568,37.893 56.568,36.031 55.984,34.885 C55.468,33.871 54.657,33.06 53.644,32.546 C52.766,32.098 52.415,31.024 52.861,30.145 C53.308,29.264 54.38,28.917 55.262,29.362 C56.954,30.222 58.305,31.571 59.166,33.264 C60.139,35.173 60.139,37.321 60.139,41.602 L60.139,42.672 C60.139,43.659 59.34,44.457 58.354,44.457 Z M52.234,23.377 C51.922,23.594 51.566,23.698 51.214,23.698 C50.649,23.698 50.095,23.431 49.748,22.934 C49.185,22.125 49.383,21.012 50.19,20.448 C51.39,19.613 52.105,18.244 52.105,16.784 C52.105,15.325 51.39,13.955 50.19,13.12 C49.383,12.556 49.185,11.444 49.748,10.635 C50.309,9.825 51.421,9.624 52.234,10.191 C54.389,11.693 55.676,14.158 55.676,16.784 C55.676,19.41 54.389,21.875 52.234,23.377 Z M40.5,24.818 C36.07,24.818 32.466,21.214 32.466,16.784 C32.466,12.354 36.07,8.75 40.5,8.75 C44.93,8.75 48.534,12.354 48.534,16.784 C48.534,21.214 44.93,24.818 40.5,24.818 Z M31.06,20.611 C31.904,21.119 32.176,22.217 31.667,23.062 C31.332,23.618 30.742,23.926 30.136,23.926 C29.823,23.926 29.505,23.843 29.217,23.669 C26.816,22.223 25.324,19.585 25.324,16.784 C25.324,14.159 26.611,11.694 28.767,10.191 C29.575,9.628 30.69,9.827 31.252,10.635 C31.816,11.443 31.617,12.556 30.809,13.12 C29.611,13.956 28.895,15.326 28.895,16.784 C28.895,18.364 29.704,19.794 31.06,20.611 Z M28.137,30.145 C28.584,31.024 28.234,32.098 27.355,32.546 C26.342,33.062 25.533,33.871 25.016,34.885 C24.432,36.031 24.432,37.893 24.432,41.602 L24.432,42.672 C24.432,43.659 23.632,44.457 22.646,44.457 C21.66,44.457 20.861,43.659 20.861,42.672 L20.861,41.602 C20.861,37.321 20.861,35.173 21.834,33.264 C22.695,31.573 24.044,30.223 25.736,29.362 C26.619,28.921 27.691,29.266 28.137,30.145 Z M33.513,29.069 C35.154,28.389 36.94,28.389 40.5,28.389 C44.06,28.389 45.847,28.389 47.486,29.069 C49.688,29.981 51.406,31.698 52.317,33.9 C52.998,35.539 52.998,37.326 52.998,40.887 L52.998,42.672 C52.998,43.659 52.199,44.457 51.212,44.457 L29.788,44.457 C28.802,44.457 28.002,43.659 28.002,42.672 L28.002,40.887 C28.002,37.326 28.002,35.539 28.682,33.9 C29.593,31.698 31.309,29.983 33.513,29.069 Z" id="形状" fill="url(#linearGradient-4)" fill-rule="nonzero"></path>
            <path d="M56.354,46.457 C55.367,46.457 54.568,45.659 54.568,44.672 L54.568,43.602 C54.568,39.893 54.568,38.031 53.984,36.885 C53.468,35.871 52.657,35.06 51.644,34.546 C50.766,34.098 50.415,33.024 50.862,32.145 C51.308,31.264 52.38,30.917 53.262,31.362 C54.954,32.222 56.305,33.571 57.166,35.264 C58.139,37.173 58.139,39.321 58.139,43.602 L58.139,44.672 C58.139,45.659 57.34,46.457 56.354,46.457 Z M50.234,25.377 C49.922,25.594 49.566,25.698 49.214,25.698 C48.649,25.698 48.095,25.431 47.748,24.934 C47.185,24.125 47.383,23.012 48.19,22.448 C49.39,21.613 50.105,20.244 50.105,18.784 C50.105,17.325 49.39,15.955 48.19,15.12 C47.383,14.556 47.185,13.444 47.748,12.635 C48.309,11.825 49.421,11.624 50.234,12.191 C52.389,13.693 53.676,16.158 53.676,18.784 C53.676,21.41 52.389,23.875 50.234,25.377 Z M38.5,26.818 C34.07,26.818 30.466,23.214 30.466,18.784 C30.466,14.354 34.07,10.75 38.5,10.75 C42.93,10.75 46.534,14.354 46.534,18.784 C46.534,23.214 42.93,26.818 38.5,26.818 Z M29.06,22.611 C29.904,23.119 30.176,24.217 29.667,25.062 C29.332,25.618 28.742,25.926 28.136,25.926 C27.823,25.926 27.505,25.843 27.217,25.669 C24.816,24.223 23.324,21.585 23.324,18.784 C23.324,16.159 24.611,13.694 26.767,12.191 C27.575,11.628 28.69,11.827 29.252,12.635 C29.816,13.443 29.618,14.556 28.809,15.12 C27.611,15.956 26.895,17.326 26.895,18.784 C26.895,20.364 27.704,21.794 29.06,22.611 Z M26.137,32.145 C26.584,33.024 26.234,34.098 25.356,34.546 C24.342,35.062 23.533,35.871 23.016,36.885 C22.432,38.031 22.432,39.893 22.432,43.602 L22.432,44.672 C22.432,45.659 21.632,46.457 20.646,46.457 C19.66,46.457 18.861,45.659 18.861,44.672 L18.861,43.602 C18.861,39.321 18.861,37.173 19.834,35.264 C20.695,33.573 22.045,32.223 23.736,31.362 C24.619,30.921 25.691,31.266 26.137,32.145 Z M31.513,31.069 C33.154,30.389 34.94,30.389 38.5,30.389 C42.06,30.389 43.847,30.389 45.486,31.069 C47.688,31.981 49.406,33.698 50.317,35.9 C50.997,37.539 50.997,39.326 50.997,42.887 L50.997,44.672 C50.997,45.659 50.199,46.457 49.212,46.457 L27.788,46.457 C26.802,46.457 26.002,45.659 26.002,44.672 L26.002,42.887 C26.002,39.326 26.002,37.539 26.682,35.9 C27.593,33.698 29.309,31.983 31.513,31.069 Z" id="形状" fill="url(#linearGradient-5)" fill-rule="nonzero"></path>
        </g>
    </g>
</svg>