<?xml version="1.0" encoding="UTF-8"?>
<svg width="76px" height="76px" viewBox="0 0 76 76" version="1.1" xmlns="http://www.w3.org/2000/svg" xmlns:xlink="http://www.w3.org/1999/xlink">
    <title>icon_jc_xkhzg</title>
    <defs>
        <linearGradient x1="0%" y1="25.7932301%" x2="97.03%" y2="3.10219725%" id="linearGradient-1">
            <stop stop-color="#0E1C33" offset="0%"></stop>
            <stop stop-color="#8FDFFE" offset="100%"></stop>
        </linearGradient>
        <linearGradient x1="52.992%" y1="82.343313%" x2="0%" y2="3.53639856%" id="linearGradient-2">
            <stop stop-color="#0E1C33" offset="0%"></stop>
            <stop stop-color="#8FDFFE" offset="100%"></stop>
        </linearGradient>
        <linearGradient x1="0%" y1="0%" x2="0%" y2="100%" id="linearGradient-3">
            <stop stop-color="#1DB4FF" stop-opacity="0" offset="0%"></stop>
            <stop stop-color="#1DB4FF" stop-opacity="0.29" offset="29%"></stop>
            <stop stop-color="#1DB4FF" offset="100%"></stop>
        </linearGradient>
        <linearGradient x1="0%" y1="0%" x2="0%" y2="100%" id="linearGradient-4">
            <stop stop-color="#0E1C33" offset="0%"></stop>
            <stop stop-color="#1DB4FF" offset="100%"></stop>
        </linearGradient>
        <linearGradient x1="0%" y1="0%" x2="0%" y2="100%" id="linearGradient-5">
            <stop stop-color="#0060FF" offset="0%"></stop>
            <stop stop-color="#8FDFFE" offset="100%"></stop>
        </linearGradient>
    </defs>
    <g id="页面-1" stroke="none" stroke-width="1" fill="none" fill-rule="evenodd">
        <g id="icon_jc_xkhzg">
            <polygon id="路径" fill="url(#linearGradient-1)" points="0 52 38 65.9112656 38 76 0 62.087753"></polygon>
            <polygon id="路径" fill="url(#linearGradient-2)" points="38 65.9590541 76 52 76 62.0409459 38 76"></polygon>
            <polygon id="路径" fill="#142747" points="0.031 52 37.5 39.04 76 52 38.064 66.717"></polygon>
            <polygon id="路径" fill="url(#linearGradient-3)" opacity="0.4" points="0 0.454 76 9.47874123e-14 76 52 38.064 66.717 0.031 52"></polygon>
            <path d="M31.092,20.122 C31.092,14.266 35.047,8.755 40.705,8.755 C43.554,8.755 45.806,10.21 47.28,12.354 C48.728,14.459 49.445,17.233 49.445,20.122 C49.445,21.914 48.704,23.57 47.929,24.88 C47.276,25.982 46.494,26.996 45.913,27.756 L45.596,28.171 C45.523,28.264 45.459,28.363 45.404,28.468 L45.445,28.507 C45.483,28.533 45.645,28.644 46.073,28.849 C46.365,28.993 46.684,29.136 47.056,29.304 L47.884,29.682 C49.344,30.357 51.223,31.291 53.116,32.713 C54.069,33.428 54.659,34.535 55.008,35.485 C55.367,36.471 55.567,37.559 55.5630589,38.492 C55.555,40.199 54.755,41.502 53.568,42.395 C52.456,43.229 51.029,43.696 49.627,43.983 C47.115,44.5 44.056,44.55 41.566,44.59 L40.74,44.605 C37.896,44.657 34.221,44.668 31.225,44.063 C29.735,43.765 28.241,43.28 27.082,42.445 C25.848,41.556 24.974,40.24 24.974,38.483 C24.974,36.668 25.088,34.103 27.572,32.613 C29.812,31.267 31.61,30.368 32.925,29.71 L32.932,29.706 C33.459,29.448 33.98,29.179 34.495,28.899 C34.906,28.667 35.058,28.546 35.1,28.503 L35.133,28.468 C35.078,28.364 35.014,28.264 34.941,28.171 L34.624,27.756 C34.041,26.997 33.261,25.982 32.61,24.88 C31.833,23.57 31.092,21.914 31.092,20.122 L31.092,20.122 Z" id="路径" fill="url(#linearGradient-4)" fill-rule="nonzero"></path>
            <path d="M28.358,22.856 C28.358,17.001 32.313,11.489 37.971,11.489 C40.82,11.489 43.072,12.944 44.546,15.088 C45.994,17.194 46.711,19.967 46.711,22.856 C46.711,24.649 45.97,26.304 45.194,27.614 C44.542,28.716 43.76,29.73 43.179,30.491 L42.862,30.905 C42.788,30.998 42.725,31.097 42.67,31.203 L42.71,31.241 C42.748,31.267 42.911,31.378 43.339,31.584 C43.631,31.727 43.95,31.871 44.322,32.038 L45.15,32.416 C46.61,33.091 48.489,34.025 50.382,35.447 C51.335,36.163 51.925,37.269 52.273,38.219 C52.633,39.205 52.832,40.293 52.8290334,41.226 C52.821,42.933 52.021,44.236 50.834,45.129 C49.722,45.963 48.295,46.43 46.893,46.717 C44.381,47.234 41.322,47.284 38.832,47.324 L38.006,47.339 C35.162,47.391 31.487,47.402 28.49,46.797 C27.001,46.499 25.506,46.015 24.348,45.179 C23.114,44.291 22.24,42.974 22.24,41.217 C22.24,39.403 22.354,36.837 24.838,35.347 C27.078,34.001 28.876,33.102 30.191,32.444 L30.198,32.44 C30.725,32.183 31.246,31.913 31.76,31.633 C32.172,31.401 32.324,31.28 32.366,31.238 L32.399,31.203 C32.344,31.098 32.28,30.998 32.207,30.905 L31.89,30.491 C31.307,29.731 30.527,28.716 29.875,27.614 C29.099,26.304 28.358,24.649 28.358,22.856 L28.358,22.856 Z" id="路径" fill="url(#linearGradient-5)" fill-rule="nonzero"></path>
        </g>
    </g>
</svg>