<?xml version="1.0" encoding="UTF-8"?>
<svg width="78px" height="36px" viewBox="0 0 78 36" version="1.1" xmlns="http://www.w3.org/2000/svg" xmlns:xlink="http://www.w3.org/1999/xlink">
    <title>jc_icon_nan</title>
    <defs>
        <linearGradient x1="0%" y1="100%" x2="0%" y2="0%" id="linearGradient-1">
            <stop stop-color="#05115B" offset="0%"></stop>
            <stop stop-color="#0A1475" stop-opacity="0" offset="100%"></stop>
        </linearGradient>
        <linearGradient x1="50%" y1="0%" x2="50%" y2="100%" id="linearGradient-2">
            <stop stop-color="#22CED4" stop-opacity="0" offset="0%"></stop>
            <stop stop-color="#22CED4" offset="100%"></stop>
        </linearGradient>
    </defs>
    <g id="页面-1" stroke="none" stroke-width="1" fill="none" fill-rule="evenodd">
        <g id="jc_icon_nan">
            <path d="M67.9448255,0.5 C70.5824876,0.5 72.9700198,1.58662197 74.6984263,3.34211723 C76.4297834,5.1006093 77.5,7.53004824 77.5,10.212766 L77.5,10.212766 L77.5,25.787234 C77.5,28.4703146 76.429894,30.8996614 74.6986734,32.6580147 C72.9702452,34.4135321 70.5826086,35.5 67.9448255,35.5 L67.9448255,35.5 L10.0551745,35.5 C7.41739142,35.5 5.02975482,34.4135321 3.30132658,32.6580147 C1.57010604,30.8996614 0.5,28.4703146 0.5,25.787234 L0.5,25.787234 L0.5,10.212766 C0.5,7.53004824 1.57021661,5.1006093 3.3015737,3.34211723 C5.02998022,1.58662197 7.41751238,0.5 10.0551745,0.5 L10.0551745,0.5 Z" id="路径" stroke="url(#linearGradient-2)" fill="url(#linearGradient-1)"></path>
            <path d="M31.638,26.422 C36.084,25.432 37.956,23.632 38.838,21.22 L44.058,21.22 C43.824,23.398 43.554,24.406 43.176,24.73 C42.996,24.892 42.78,24.91 42.402,24.91 C41.952,24.91 40.8,24.892 39.666,24.802 C39.954,25.216 40.17,25.864 40.206,26.314 C41.34,26.368 42.438,26.386 43.014,26.35 C43.698,26.296 44.166,26.17 44.58,25.774 C45.174,25.198 45.516,23.758 45.84,20.41 L45.894,19.726 L39.27,19.726 C39.36,19.24 39.45,18.718 39.522,18.196 L45.3,18.196 L45.3,10.834 L32.7,10.834 L32.7,18.196 L37.758,18.196 C37.686,18.718 37.614,19.24 37.506,19.726 L31.368,19.726 L31.368,21.22 L36.984,21.22 C36.156,22.948 34.482,24.244 30.756,24.982 C31.08,25.324 31.494,25.972 31.638,26.422 Z M38.082,13.84 L34.374,13.84 L34.374,12.238 L38.082,12.238 L38.082,13.84 Z M43.554,13.84 L39.774,13.84 L39.774,12.238 L43.554,12.238 L43.554,13.84 Z M38.082,16.81 L34.374,16.81 L34.374,15.154 L38.082,15.154 L38.082,16.81 Z M43.554,16.81 L39.774,16.81 L39.774,15.154 L43.554,15.154 L43.554,16.81 Z" id="男" fill="#FFFFFF" fill-rule="nonzero"></path>
        </g>
    </g>
</svg>