<?xml version="1.0" encoding="UTF-8"?>
<svg width="78px" height="36px" viewBox="0 0 78 36" version="1.1" xmlns="http://www.w3.org/2000/svg" xmlns:xlink="http://www.w3.org/1999/xlink">
    <title>jc_icon_nv</title>
    <defs>
        <linearGradient x1="0%" y1="100%" x2="0%" y2="0%" id="linearGradient-1">
            <stop stop-color="#05115B" offset="0%"></stop>
            <stop stop-color="#0A1475" stop-opacity="0" offset="100%"></stop>
        </linearGradient>
        <linearGradient x1="50%" y1="0%" x2="50%" y2="100%" id="linearGradient-2">
            <stop stop-color="#22CED4" stop-opacity="0" offset="0%"></stop>
            <stop stop-color="#22CED4" offset="100%"></stop>
        </linearGradient>
    </defs>
    <g id="页面-1" stroke="none" stroke-width="1" fill="none" fill-rule="evenodd">
        <g id="jc_icon_nv">
            <path d="M67.9448255,0.5 C70.5824876,0.5 72.9700198,1.58662197 74.6984263,3.34211723 C76.4297834,5.1006093 77.5,7.53004824 77.5,10.212766 L77.5,10.212766 L77.5,25.787234 C77.5,28.4703146 76.429894,30.8996614 74.6986734,32.6580147 C72.9702452,34.4135321 70.5826086,35.5 67.9448255,35.5 L67.9448255,35.5 L10.0551745,35.5 C7.41739142,35.5 5.02975482,34.4135321 3.30132658,32.6580147 C1.57010604,30.8996614 0.5,28.4703146 0.5,25.787234 L0.5,25.787234 L0.5,10.212766 C0.5,7.53004824 1.57021661,5.1006093 3.3015737,3.34211723 C5.02998022,1.58662197 7.41751238,0.5 10.0551745,0.5 L10.0551745,0.5 Z" id="路径" stroke="url(#linearGradient-2)" fill="url(#linearGradient-1)"></path>
            <path d="M45.354,26.44 L46.686,24.874 C45.246,23.956 43.284,22.894 41.106,21.832 C42.33,20.302 43.14,18.358 43.716,15.838 L46.956,15.838 L46.956,14.038 L37.866,14.038 C38.37,12.688 38.802,11.302 39.144,10.024 L37.344,9.754 C36.984,11.086 36.498,12.58 35.922,14.038 L31.134,14.038 L31.134,15.838 L35.184,15.838 C34.5,17.476 33.762,19.006 33.078,20.194 C34.716,20.824 36.354,21.562 37.92,22.3 C36.228,23.488 33.942,24.208 30.864,24.622 C31.224,25.072 31.602,25.774 31.764,26.296 C35.292,25.72 37.866,24.766 39.756,23.2 C41.97,24.316 43.914,25.45 45.354,26.44 Z M39.36,21.004 C38.136,20.464 36.876,19.906 35.616,19.402 C36.102,18.358 36.66,17.134 37.164,15.838 L41.808,15.838 C41.286,18.034 40.512,19.726 39.36,21.004 Z" id="女" fill="#FFFFFF" fill-rule="nonzero"></path>
        </g>
    </g>
</svg>