<?xml version="1.0" encoding="UTF-8"?>
<svg width="477px" height="261px" viewBox="0 0 477 261" version="1.1" xmlns="http://www.w3.org/2000/svg" xmlns:xlink="http://www.w3.org/1999/xlink">
    <title>jc_kuang_you2</title>
    <defs>
        <linearGradient x1="0%" y1="0%" x2="100%" y2="0%" id="linearGradient-1">
            <stop stop-color="#030E6A" stop-opacity="0.8" offset="0%"></stop>
            <stop stop-color="#030E6A" stop-opacity="0" offset="100%"></stop>
        </linearGradient>
        <linearGradient x1="50%" y1="0%" x2="50%" y2="100%" id="linearGradient-2">
            <stop stop-color="#031270" offset="0%"></stop>
            <stop stop-color="#031270" stop-opacity="0.584380463" offset="40.8134834%"></stop>
            <stop stop-color="#031270" offset="100%"></stop>
        </linearGradient>
        <linearGradient x1="19.6284089%" y1="35.0299157%" x2="28.9870627%" y2="64.9700843%" id="linearGradient-3">
            <stop stop-color="#2845FB" offset="0%"></stop>
            <stop stop-color="#2845FB" stop-opacity="0.0366586538" offset="22.8845276%"></stop>
            <stop stop-color="#2845FB" offset="50.2340994%"></stop>
            <stop stop-color="#2845FB" stop-opacity="0" offset="100%"></stop>
        </linearGradient>
        <linearGradient x1="100%" y1="72.4361727%" x2="0%" y2="72.4361727%" id="linearGradient-4">
            <stop stop-color="#0A54FF" stop-opacity="0" offset="0%"></stop>
            <stop stop-color="#0A54FF" offset="100%"></stop>
        </linearGradient>
        <linearGradient x1="0%" y1="0%" x2="100%" y2="0%" id="linearGradient-5">
            <stop stop-color="#4BAAE4" stop-opacity="0" offset="0%"></stop>
            <stop stop-color="#4BAAE4" offset="12.7349213%"></stop>
            <stop stop-color="#005174" stop-opacity="0" offset="100%"></stop>
        </linearGradient>
        <linearGradient x1="0%" y1="0%" x2="100%" y2="0%" id="linearGradient-6">
            <stop stop-color="#4BAAE4" stop-opacity="0" offset="0%"></stop>
            <stop stop-color="#4BAAE4" offset="12.7349213%"></stop>
            <stop stop-color="#005174" stop-opacity="0" offset="100%"></stop>
        </linearGradient>
        <linearGradient x1="0%" y1="2.22044605e-14%" x2="99.939%" y2="3.49%" id="linearGradient-7">
            <stop stop-color="#00C0FF" offset="0%"></stop>
            <stop stop-color="#43F0FF" offset="49%"></stop>
            <stop stop-color="#00C0FF" offset="100%"></stop>
        </linearGradient>
    </defs>
    <g id="页面-1" stroke="none" stroke-width="1" fill="none" fill-rule="evenodd">
        <g id="jc_kuang_you2">
            <polygon id="路径" fill="url(#linearGradient-1)" points="252 0 0 0 0 32 279 32"></polygon>
            <polygon id="路径" fill="url(#linearGradient-2)" opacity="0.302" points="253.13219 0.134990042 279.289771 31.5596718 477 31.0527092 477 261 0 261 0 0"></polygon>
            <path d="M0.5,0.500268707 L252.896823,0.635873617 L279.05501,32.2516072 L476.5,31.7422914 L476.5,260.503 L0.5,260.503 L0.5,0.500268707 Z" id="路径" stroke="url(#linearGradient-3)"></path>
            <polygon id="路径" fill="url(#linearGradient-4)" opacity="0.302" points="0 0 252.544 0 279.544 32 0 32"></polygon>
            <path d="M24.275,7.635 L29.784,7.635 C32.067,7.635 33.917,9.466 33.917,11.725 L25.644,23.901 C24.566,24.843 22.419,26.729 20.142,26.7240099 L14.632,26.7240099 C12.35,26.7240099 10.5,24.892 10.5,22.633 L18.765,10.362 C20.853,8.295 21.448,7.635 24.275,7.635 Z" id="路径" fill="#00D4E8"></path>
            <path d="M31.162,4.908 L36.672,4.908 C38.954,4.908 40.804,6.739 40.804,8.998 L32.531,21.174 C31.453,22.116 29.306,24.002 27.03,23.9970099 L21.52,23.9970099 C19.238,23.9970099 17.387,22.165 17.387,19.906 L25.652,7.635 C27.741,5.568 28.335,4.908 31.162,4.908 Z" id="路径" fill="#2845FB" opacity="0.502"></path>
            <polyline id="路径" stroke="url(#linearGradient-5)" points="430.5 26.5 297.5 26.5 283.5 10.5"></polyline>
            <polyline id="路径" stroke="url(#linearGradient-6)" opacity="0.4" points="434.709 19.479 301.01 19.479 288.5 4.5"></polyline>
            <polygon id="路径" fill="#1050D3" opacity="0.2" points="467.237 12.479 462.422 12.479 470.043 23.099 474.858 23.099"></polygon>
            <polygon id="路径" fill="#2563E1" opacity="0.502" points="457.002 12.479 452.187 12.479 459.807 23.099 464.622 23.099"></polygon>
            <polygon id="路径" fill="#4680F5" points="446.767 12.479 441.952 12.479 449.572 23.099 454.387 23.099"></polygon>
            <path d="M207.277,11.756 L207.277,14.221 L204.439,14.221 L204.439,24.892 L201.842,24.892 L201.842,14.221 L198.96,14.221 C198.872,17.565 198.41,21.988 196.474,24.848 C195.989,24.452 194.911,23.792 194.295,23.55 C196.297,20.624 196.474,16.377 196.474,13.275 L196.474,6.784 C199.18,6.278 202.106,5.463 203.889,4.583 L206.089,6.652 C204.021,7.51 201.424,8.192 198.96,8.654 L198.96,11.756 L207.277,11.756 Z M192.579,12.196 C193.393,13.187 195.087,15.497 195.483,16.069 L193.965,18.137 C193.657,17.455 193.129,16.443 192.579,15.475 L192.579,24.892 L190.071,24.892 L190.071,16.355 C189.41,18.225 188.618,19.942 187.738,21.13 C187.496,20.382 186.902,19.347 186.506,18.687 C187.892,16.949 189.124,13.957 189.785,11.36 L187.1,11.36 L187.1,8.896 L190.071,8.896 L190.071,4.363 L192.579,4.363 L192.579,8.896 L195.571,8.896 L195.571,11.36 L192.579,11.36 L192.579,12.196 Z M181.999,13.495 L181.999,13.561 C181.779,20.052 181.515,22.648 180.744,23.55 C180.194,24.254 179.6,24.496 178.764,24.584 C177.972,24.694 176.74,24.694 175.42,24.65 C175.376,23.858 175.046,22.758 174.584,22.01 C175.772,22.12 176.938,22.12 177.466,22.12 C177.862,22.12 178.104,22.054 178.346,21.834 C178.808,21.328 179.028,19.457 179.226,14.991 L174.628,14.991 C174.055,19.149 172.603,22.89 166.948,24.98 C166.64,24.276 165.892,23.22 165.298,22.648 C170.205,21.064 171.371,18.159 171.833,14.991 L168.291,14.991 L168.291,13.693 C167.873,14.155 167.432,14.573 166.97,14.947 C166.486,14.397 165.386,13.341 164.748,12.879 C167.322,11.03 169.545,7.95 170.777,4.671 L173.593,5.441 C172.603,7.994 171.129,10.414 169.479,12.394 L181.074,12.394 C179.424,10.348 177.796,7.906 176.652,5.551 L179.116,4.627 C180.436,7.4 183.077,10.656 185.343,12.526 C184.683,13.033 183.715,14.045 183.231,14.749 C182.835,14.353 182.417,13.935 181.999,13.495 Z M158.326,15.981 L147.831,15.981 C147.545,19.127 146.775,22.626 144.926,25.09 C144.42,24.584 143.254,23.748 142.616,23.484 C144.992,20.36 145.212,15.827 145.212,12.637 L145.212,7.664 L152.297,7.664 C152.033,6.828 151.593,5.75 151.219,4.891 L153.838,4.253 C154.322,5.177 154.85,6.454 155.114,7.268 L153.75,7.664 L161.011,7.664 L161.011,17.125 L158.326,17.125 L158.326,15.981 Z M158.326,10.084 L147.963,10.084 L147.963,12.637 C147.963,12.901 147.963,13.231 147.963,13.539 L158.326,13.539 L158.326,10.084 Z M137.052,9.072 C137.647,7.972 138.461,6.19 138.879,4.891 L141.167,5.794 C140.485,7.312 139.671,8.874 139.055,9.93 L137.052,9.072 Z M140.463,10.48 L140.463,22.098 C140.463,23.242 140.265,23.946 139.495,24.342 C138.747,24.738 137.669,24.782 136.106,24.782 C136.04,24.1 135.71,23.044 135.402,22.406 C136.37,22.45 137.405,22.45 137.735,22.428 C138.043,22.406 138.131,22.318 138.131,22.054 L138.131,20.58 L132.08,20.58 L132.08,24.892 L129.769,24.892 L129.769,10.502 L133.994,10.502 L133.994,4.341 L136.37,4.341 L136.37,10.502 L138.131,10.48 L140.463,10.48 Z M132.08,18.379 L138.131,18.379 L138.131,16.729 L132.08,16.729 L132.08,18.379 Z M132.08,12.945 L132.08,14.529 L138.131,14.529 L138.131,12.945 L132.08,12.945 Z M129.395,6.014 L131.398,5.067 C132.212,6.256 133.07,7.862 133.334,8.94 L131.2,10.04 C130.936,8.984 130.165,7.312 129.395,6.014 Z M126.403,20.8 L128.691,19.678 C128.735,20.382 128.933,21.438 129.109,21.944 C125.171,23.99 124.423,24.408 124.005,24.826 C123.829,24.21 123.3,23.154 122.926,22.648 C123.388,22.362 124.005,21.724 124.005,20.778 L124.005,17.411 L121.254,17.411 L121.254,15.079 L124.005,15.079 L124.005,12.923 L122.354,12.923 L122.354,11.14 C122.134,11.404 121.892,11.646 121.65,11.844 C121.474,11.338 120.902,9.974 120.506,9.424 C121.804,8.192 122.992,6.344 123.653,4.429 L125.853,5.111 C125.655,5.661 125.413,6.212 125.193,6.762 L129.087,6.762 L129.087,9.226 L123.807,9.226 C123.499,9.71 123.19,10.15 122.838,10.59 L128.713,10.59 L128.713,12.923 L126.403,12.923 L126.403,15.079 L129.153,15.079 L129.153,17.411 L126.403,17.411 L126.403,20.8 Z M117.957,13.671 C117.407,19.876 116.835,22.494 115.779,23.528 C115.052,24.298 114.326,24.496 113.16,24.606 C112.258,24.672 110.674,24.65 109.068,24.584 C109.024,23.814 108.606,22.714 108.055,21.966 C109.794,22.12 111.576,22.12 112.324,22.12 C112.83,22.12 113.182,22.098 113.512,21.856 C114.238,21.306 114.766,19.127 115.162,14.947 L103.743,14.947 L101.477,14.925 C102.181,12.284 103.017,8.016 103.501,4.715 L106.185,4.979 C106.075,5.639 105.965,6.322 105.833,7.026 L117.495,7.026 L117.495,9.534 L105.371,9.534 C105.173,10.568 104.975,11.58 104.777,12.526 L118.067,12.526 C118.067,12.526 118.023,13.319 117.957,13.671 Z M112.808,19.766 L99.144,19.766 L99.144,17.257 L112.808,17.257 L112.808,19.766 Z M92.326,15.981 L81.831,15.981 C81.545,19.127 80.775,22.626 78.926,25.09 C78.42,24.584 77.254,23.748 76.616,23.484 C78.992,20.36 79.212,15.827 79.212,12.637 L79.212,7.664 L86.297,7.664 C86.033,6.828 85.593,5.75 85.219,4.891 L87.838,4.253 C88.322,5.177 88.85,6.454 89.114,7.268 L87.75,7.664 L95.011,7.664 L95.011,17.125 L92.326,17.125 L92.326,15.981 Z M92.326,10.084 L81.963,10.084 L81.963,12.637 C81.963,12.901 81.963,13.231 81.963,13.539 L92.326,13.539 L92.326,10.084 Z M70.502,24.936 L67.752,24.936 L67.752,15.981 L62.559,15.981 C62.163,19.259 60.931,22.604 57.102,25.002 C56.662,24.408 55.65,23.484 54.99,23.044 C58.203,21.108 59.391,18.577 59.809,15.981 L55.056,15.981 L55.056,13.473 L60.029,13.473 L60.029,12.813 L60.029,8.104 L55.782,8.104 L55.782,5.639 L74.353,5.639 L74.353,8.104 L70.502,8.104 L70.502,13.473 L75.013,13.473 L75.013,15.981 L70.502,15.981 L70.502,24.936 Z M67.752,8.104 L62.713,8.104 L62.713,12.835 L62.713,13.473 L67.752,13.473 L67.752,8.104 Z" id="形状" fill="url(#linearGradient-7)" fill-rule="nonzero"></path>
        </g>
    </g>
</svg>