<?xml version="1.0" encoding="UTF-8"?>
<svg width="878px" height="534px" viewBox="0 0 878 534" version="1.1" xmlns="http://www.w3.org/2000/svg" xmlns:xlink="http://www.w3.org/1999/xlink">
    <title>jc_kuang_zhong</title>
    <defs>
        <linearGradient x1="0%" y1="100%" x2="0%" y2="0%" id="linearGradient-1">
            <stop stop-color="#021888" offset="0%"></stop>
            <stop stop-color="#A2B8F6" offset="100%"></stop>
        </linearGradient>
        <linearGradient x1="0%" y1="0%" x2="0%" y2="100%" id="linearGradient-2">
            <stop stop-color="#5B6DCA" offset="0%"></stop>
            <stop stop-color="#02154C" offset="100%"></stop>
        </linearGradient>
        <linearGradient x1="0%" y1="100%" x2="0%" y2="0%" id="linearGradient-3">
            <stop stop-color="#5B6DCA" offset="0%"></stop>
            <stop stop-color="#02154C" offset="100%"></stop>
        </linearGradient>
        <linearGradient x1="0%" y1="0%" x2="100%" y2="0%" id="linearGradient-4">
            <stop stop-color="#5B6DCA" offset="0%"></stop>
            <stop stop-color="#02154C" offset="100%"></stop>
        </linearGradient>
        <linearGradient x1="100%" y1="0%" x2="0%" y2="0%" id="linearGradient-5">
            <stop stop-color="#5B6DCA" offset="0%"></stop>
            <stop stop-color="#02154C" offset="100%"></stop>
        </linearGradient>
        <linearGradient x1="0%" y1="100%" x2="0%" y2="0%" id="linearGradient-6">
            <stop stop-color="#02154C" offset="0%"></stop>
            <stop stop-color="#0A419C" offset="100%"></stop>
        </linearGradient>
        <linearGradient x1="0%" y1="100%" x2="0%" y2="0%" id="linearGradient-7">
            <stop stop-color="#678DFB" offset="0%"></stop>
            <stop stop-color="#0C55CD" offset="100%"></stop>
        </linearGradient>
        <linearGradient x1="0%" y1="0%" x2="100%" y2="0%" id="linearGradient-8">
            <stop stop-color="#030E6A" stop-opacity="0.8" offset="0%"></stop>
            <stop stop-color="#030E6A" stop-opacity="0" offset="100%"></stop>
        </linearGradient>
        <linearGradient x1="100%" y1="72.4361727%" x2="0%" y2="72.4361727%" id="linearGradient-9">
            <stop stop-color="#0A54FF" stop-opacity="0" offset="0%"></stop>
            <stop stop-color="#0A54FF" offset="100%"></stop>
        </linearGradient>
    </defs>
    <g id="页面-1" stroke="none" stroke-width="1" fill="none" fill-rule="evenodd">
        <g id="jc_kuang_zhong">
            <polygon id="路径" fill="url(#linearGradient-1)" points="50 470 828 470 878 520 0 520"></polygon>
            <polygon id="路径" fill="url(#linearGradient-2)" points="1 520 878 520 878 534 1 534"></polygon>
            <polygon id="路径" fill="url(#linearGradient-3)" opacity="0.502" points="59 54 817 54 827 64 49 64"></polygon>
            <polygon id="路径" fill="url(#linearGradient-4)" points="826 68 768 96 767 446 827 472"></polygon>
            <polygon id="路径" fill="url(#linearGradient-5)" points="50 68 108 96 109 446 49 472"></polygon>
            <polygon id="路径" fill="url(#linearGradient-6)" opacity="0.851" points="107.688 94.844 767.313 94.844 767.313 470.156 107.688 470.156"></polygon>
            <line x1="111" y1="441" x2="50" y2="470" id="路径" stroke="#FFFFFF" opacity="0.102"></line>
            <line x1="764.426" y1="441" x2="825.426" y2="470" id="路径" stroke="#FFFFFF" opacity="0.102"></line>
            <line x1="111" y1="94.375" x2="50" y2="65.375" id="路径" stroke="#FFFFFF" opacity="0.102"></line>
            <line x1="764.426" y1="94.375" x2="825.426" y2="65.375" id="路径" stroke="#FFFFFF" opacity="0.102"></line>
            <path d="M826,64 L826,470 L767.313,470 L767.313,94.844 L107.688,94.844 L107.688,470 L49,470 L49,64 L826,64 Z" id="形状结合" fill="url(#linearGradient-7)" opacity="0.4"></path>
            <g id="zjld_littleTitle_zhong">
                <polygon id="路径" fill="url(#linearGradient-8)" points="252 0 0 0 0 32 279 32"></polygon>
                <polygon id="路径" fill="url(#linearGradient-9)" opacity="0.302" points="-5.68434189e-14 0 252.544 0 279.544 32 -5.68434189e-14 32"></polygon>
                <path d="M24.275,7.635 L29.784,7.635 C32.067,7.635 33.917,9.466 33.917,11.725 L25.644,23.901 C24.566,24.843 22.419,26.729 20.142,26.7240099 L14.632,26.7240099 C12.35,26.7240099 10.5,24.892 10.5,22.633 L18.765,10.362 C20.853,8.295 21.448,7.635 24.275,7.635 Z" id="路径" fill="#00D4E8"></path>
                <path d="M31.162,4.908 L36.672,4.908 C38.954,4.908 40.804,6.739 40.804,8.998 L32.531,21.174 C31.453,22.116 29.306,24.002 27.03,23.9970099 L21.52,23.9970099 C19.238,23.9970099 17.387,22.165 17.387,19.906 L25.652,7.635 C27.741,5.568 28.335,4.908 31.162,4.908 Z" id="路径" fill="#2845FB" opacity="0.502"></path>
            </g>
            <path d="M226.277,12.756 L226.277,15.221 L223.439,15.221 L223.439,25.892 L220.842,25.892 L220.842,15.221 L217.96,15.221 C217.872,18.565 217.41,22.988 215.474,25.848 C214.989,25.452 213.911,24.792 213.295,24.55 C215.297,21.624 215.474,17.377 215.474,14.275 L215.474,7.784 C218.18,7.278 221.106,6.463 222.889,5.583 L225.089,7.652 C223.021,8.51 220.424,9.192 217.96,9.654 L217.96,12.756 L226.277,12.756 Z M211.579,13.196 C212.393,14.187 214.087,16.497 214.483,17.069 L212.965,19.137 C212.657,18.455 212.129,17.443 211.579,16.475 L211.579,25.892 L209.071,25.892 L209.071,17.355 C208.41,19.225 207.618,20.942 206.738,22.13 C206.496,21.382 205.902,20.347 205.506,19.687 C206.892,17.949 208.124,14.957 208.785,12.36 L206.1,12.36 L206.1,9.896 L209.071,9.896 L209.071,5.363 L211.579,5.363 L211.579,9.896 L214.571,9.896 L214.571,12.36 L211.579,12.36 L211.579,13.196 Z M200.999,14.495 L200.999,14.561 C200.779,21.052 200.515,23.648 199.744,24.55 C199.194,25.254 198.6,25.496 197.764,25.584 C196.972,25.694 195.74,25.694 194.42,25.65 C194.376,24.858 194.046,23.758 193.584,23.01 C194.772,23.12 195.938,23.12 196.466,23.12 C196.862,23.12 197.104,23.054 197.346,22.834 C197.808,22.328 198.028,20.457 198.226,15.991 L193.628,15.991 C193.055,20.149 191.603,23.89 185.948,25.98 C185.64,25.276 184.892,24.22 184.298,23.648 C189.205,22.064 190.371,19.159 190.833,15.991 L187.291,15.991 L187.291,14.693 C186.873,15.155 186.432,15.573 185.97,15.947 C185.486,15.397 184.386,14.341 183.748,13.879 C186.322,12.03 188.545,8.95 189.777,5.671 L192.593,6.441 C191.603,8.994 190.129,11.414 188.479,13.394 L200.074,13.394 C198.424,11.348 196.796,8.906 195.652,6.551 L198.116,5.627 C199.436,8.4 202.077,11.656 204.343,13.526 C203.683,14.033 202.715,15.045 202.231,15.749 C201.835,15.353 201.417,14.935 200.999,14.495 Z M179.945,16.453 C177.546,16.453 177.282,13.703 177.304,9.478 L175.434,9.478 C175.324,10.446 175.148,11.326 174.884,12.118 C175.83,12.712 176.688,13.284 177.282,13.747 L175.918,15.771 C175.412,15.353 174.664,14.803 173.872,14.231 C173.3,15.045 172.53,15.727 171.562,16.321 L172.442,16.321 C172.398,16.761 172.332,17.201 172.288,17.619 L180.209,17.619 C180.209,17.619 180.187,18.323 180.121,18.653 C179.769,22.482 179.373,24.22 178.647,24.924 C178.052,25.518 177.392,25.694 176.468,25.76 C175.698,25.848 174.378,25.826 172.97,25.782 C172.926,25.034 172.574,24.066 172.134,23.406 C173.476,23.516 174.862,23.538 175.456,23.538 C175.896,23.538 176.182,23.516 176.424,23.318 C176.798,22.988 177.106,21.976 177.348,19.929 L171.694,19.929 C170.681,22.702 168.525,24.77 163.222,25.98 C162.98,25.276 162.364,24.264 161.858,23.714 C165.973,22.9 167.843,21.624 168.789,19.929 L162.848,19.929 L162.848,17.619 L169.559,17.619 C169.647,17.201 169.691,16.761 169.757,16.321 L170.747,16.321 C170.417,15.771 169.911,15.133 169.493,14.781 C170.527,14.275 171.297,13.681 171.826,12.932 C171.253,12.558 170.681,12.228 170.197,11.942 L170.219,12.602 C169.339,12.734 168.459,12.866 167.579,12.998 L167.579,14.319 C167.579,15.463 167.381,16.035 166.611,16.387 C165.885,16.739 164.851,16.761 163.398,16.761 C163.31,16.101 163.002,15.199 162.716,14.583 C163.596,14.605 164.521,14.605 164.807,14.605 C165.093,14.605 165.181,14.517 165.181,14.275 L165.181,13.35 L162.342,13.747 L161.924,11.392 C162.848,11.304 163.97,11.172 165.181,11.018 L165.181,9.566 L162.276,9.566 L162.276,7.278 L165.181,7.278 L165.181,5.385 L167.579,5.385 L167.579,7.278 L170.021,7.278 L170.021,9.566 L167.579,9.566 L167.579,10.71 C168.437,10.6 169.273,10.468 170.131,10.38 L170.175,11.876 L171.452,10.138 C171.87,10.336 172.31,10.578 172.75,10.864 C172.86,10.424 172.948,9.984 173.014,9.478 L170.527,9.478 L170.527,7.322 L173.19,7.322 C173.234,6.706 173.234,6.067 173.256,5.363 L175.676,5.363 C175.654,6.045 175.654,6.684 175.61,7.322 L177.326,7.322 L177.326,7.3 L179.703,7.3 C179.527,11.612 179.505,14.231 180.055,14.231 C180.319,14.231 180.429,13.659 180.495,12.404 C180.979,12.822 181.771,13.174 182.343,13.328 C182.123,15.771 181.463,16.453 179.945,16.453 Z M154.798,23.12 C155.788,23.142 159.089,23.12 160.365,23.098 C159.991,23.692 159.573,24.88 159.441,25.628 L154.644,25.628 C150.266,25.628 146.811,24.858 144.501,21.558 C143.775,23.296 142.829,24.836 141.486,25.914 C141.046,25.408 140.122,24.594 139.528,24.242 C141.992,22.284 143.027,18.587 143.335,15.507 L146.041,15.815 C145.887,16.761 145.689,17.751 145.425,18.719 C146.195,20.325 147.295,21.36 148.593,22.02 L148.593,14.605 L140.276,14.605 L140.276,12.162 L148.593,12.162 L148.593,10.028 L142.212,10.028 L142.212,7.63 L148.593,7.63 L148.593,5.385 L151.278,5.385 L151.278,7.63 L158.055,7.63 L158.055,10.028 L151.278,10.028 L151.278,12.162 L159.771,12.162 L159.771,14.605 L151.278,14.605 L151.278,17.267 L158.297,17.267 L158.297,19.599 L151.278,19.599 L151.278,22.856 C152.378,23.054 153.566,23.12 154.798,23.12 Z M133.26,22.636 L134.603,21.03 C135.901,21.91 137.705,23.23 138.563,24.066 L137.155,25.892 C136.341,24.99 134.581,23.604 133.26,22.636 Z M133.502,10.732 L137.507,10.732 L137.507,20.964 L135.263,20.964 L135.263,12.712 L130.686,12.712 L130.686,21.03 L128.53,21.03 L128.53,10.732 L131.302,10.732 C131.5,10.16 131.742,9.5 131.94,8.862 L128.354,8.862 L128.354,6.595 L138.189,6.595 L138.189,8.862 L134.272,8.862 C134.008,9.522 133.766,10.16 133.502,10.732 Z M127.782,12.184 C127.187,13.46 126.373,14.605 125.383,15.595 C126.571,16.211 127.716,16.805 128.508,17.289 L126.791,18.961 L127.033,18.961 L127.033,24.088 C131.676,22.504 131.83,19.687 131.94,13.526 L134.14,13.526 C134.03,20.523 133.59,24.11 128.09,26.024 C127.914,25.54 127.452,24.88 127.033,24.418 L127.033,25.694 L124.635,25.694 L124.635,25.166 L121.863,25.166 L121.863,25.738 L119.574,25.738 L119.574,19.357 C119.244,19.489 118.892,19.599 118.562,19.709 C118.452,19.005 117.99,17.751 117.66,17.245 C118.848,16.937 120.036,16.475 121.093,15.903 L119.948,15.309 L121.643,13.791 C122.127,14.011 122.655,14.275 123.183,14.539 C123.667,14.143 124.085,13.703 124.459,13.24 L121.511,13.24 C120.785,14.033 119.926,14.759 118.914,15.441 C118.584,14.913 117.924,14.099 117.462,13.769 C119.31,12.668 120.609,11.216 121.291,9.918 L123.579,10.336 C123.403,10.666 123.205,10.996 123.007,11.304 L125.647,11.304 L125.647,9.588 L120.256,9.588 L120.256,11.348 L118.012,11.348 L118.012,7.52 L121.951,7.52 C121.731,6.992 121.489,6.419 121.269,5.957 L123.755,5.451 C124.085,6.067 124.459,6.86 124.745,7.52 L128.002,7.52 L128.002,11.348 L126.527,11.348 L127.782,12.184 Z M121.863,23.142 L124.635,23.142 L124.635,20.986 L121.863,20.986 L121.863,23.142 Z M123.513,17.223 C122.567,17.883 121.555,18.477 120.499,18.961 L126.505,18.961 C125.779,18.477 124.679,17.839 123.513,17.223 Z M114.803,14.099 C113.813,13.747 112.801,13.306 111.81,12.822 L111.81,14.121 L107.388,14.121 L107.388,16.409 L114.407,16.409 L114.407,18.763 L110.93,18.763 L113.131,19.555 C112.361,20.788 111.502,22.108 110.82,23.054 L115.551,23.054 L115.551,25.452 L96.518,25.452 L96.518,23.054 L100.853,23.054 C100.501,22.042 99.753,20.59 99.027,19.489 L100.765,18.763 L97.574,18.763 L97.574,16.409 L104.571,16.409 L104.571,14.121 L100.105,14.121 L100.105,13.042 C99.181,13.482 98.234,13.879 97.266,14.231 C96.914,13.46 96.188,12.47 95.528,11.81 C99.665,10.622 103.625,8.4 105.716,5.121 L108.202,6.243 C108.004,6.529 107.806,6.816 107.586,7.124 C109.742,9.06 113.307,10.886 116.607,11.81 C116.013,12.382 115.199,13.416 114.803,14.099 Z M107.388,23.054 L110.138,23.054 L108.664,22.438 C109.346,21.448 110.16,19.907 110.6,18.763 L107.388,18.763 L107.388,23.054 Z M101.249,18.763 C102.019,19.841 102.855,21.294 103.163,22.262 L101.359,23.054 L104.571,23.054 L104.571,18.763 L101.249,18.763 Z M106.068,8.862 C105.011,9.962 103.801,10.886 102.503,11.722 L109.874,11.722 C108.488,10.864 107.19,9.896 106.068,8.862 Z M92.759,25.87 C91.967,25.034 91.285,24 90.713,22.812 C90.052,24.066 89.194,25.1 88.182,25.914 C87.896,25.452 87.302,24.836 86.796,24.374 C86.708,24.704 86.598,24.902 86.466,25.056 C86.114,25.452 85.74,25.606 85.234,25.65 C84.838,25.716 84.156,25.716 83.408,25.694 C83.385,25.166 83.209,24.462 82.967,23.978 C83.496,24.044 83.914,24.066 84.134,24.066 C84.376,24.066 84.508,24.022 84.662,23.846 C84.882,23.604 85.036,22.834 85.146,21.074 L83.804,21.074 C83.385,23.12 82.571,24.77 80.811,25.936 C80.569,25.408 79.953,24.682 79.469,24.33 C81.493,23.01 81.889,20.876 82.021,18.169 L80.569,18.169 L80.569,16.145 L83.055,16.145 C82.879,15.727 82.703,15.265 82.527,14.913 L84.508,14.495 L80.657,14.495 L80.657,11.172 L80.657,7.146 L82.725,7.146 C82.813,6.507 82.901,5.869 82.945,5.363 L85.388,5.517 C85.234,6.067 85.058,6.639 84.904,7.146 L87.324,7.146 L87.324,13.262 C88.226,11.106 88.666,8.268 88.908,5.363 L91.087,5.649 C90.933,6.992 90.757,8.312 90.515,9.61 L94.255,9.61 L94.255,11.942 L93.485,11.942 C93.221,14.913 92.759,17.707 91.923,20.127 C92.605,21.646 93.441,22.922 94.497,23.868 C93.947,24.308 93.111,25.21 92.759,25.87 Z M85.234,8.928 L82.681,8.928 L82.681,9.984 L85.234,9.984 L85.234,8.928 Z M85.234,11.634 L82.681,11.634 L82.681,12.69 L85.234,12.69 L85.234,11.634 Z M86.488,14.847 C86.554,14.737 86.642,14.605 86.708,14.495 L84.728,14.495 C84.992,15.001 85.278,15.617 85.454,16.145 L87.72,16.145 C87.346,15.683 86.818,15.133 86.488,14.847 Z M88.666,15.551 C88.468,15.903 88.292,16.255 88.072,16.585 C87.984,16.475 87.874,16.321 87.742,16.167 L87.742,18.169 L84.156,18.169 C84.134,18.543 84.112,18.873 84.068,19.225 L87.412,19.225 C87.412,19.225 87.39,19.731 87.346,19.995 C87.236,21.778 87.104,22.966 86.95,23.78 C88.116,22.834 89.018,21.58 89.678,20.039 C89.282,18.653 88.93,17.135 88.666,15.551 Z M89.964,11.942 C89.942,12.074 89.898,12.206 89.876,12.338 C90.096,13.857 90.383,15.353 90.757,16.783 C91.109,15.287 91.351,13.659 91.527,11.942 L89.964,11.942 Z M79.953,16.409 C79.931,17.025 79.975,17.927 80.041,18.433 C75.706,19.621 74.936,19.929 74.474,20.237 C74.386,19.797 74.012,18.741 73.748,18.169 C74.254,18.059 74.65,17.553 75.222,16.739 C75.486,16.365 76.036,15.529 76.609,14.451 C75.09,14.649 74.606,14.781 74.32,14.935 C74.188,14.451 73.814,13.328 73.528,12.69 C73.946,12.58 74.298,12.074 74.672,11.37 C75.068,10.688 76.3,7.894 76.873,5.341 L79.161,6.375 C78.501,8.4 77.489,10.6 76.432,12.382 L77.709,12.294 C78.061,11.546 78.391,10.798 78.677,10.028 L80.657,11.172 C79.777,13.152 78.655,15.221 77.445,17.025 L79.953,16.409 Z M62.662,22.504 L63.872,20.59 C66.732,21.382 69.835,22.68 71.617,23.714 L70.011,25.804 C68.339,24.66 65.456,23.362 62.662,22.504 Z M54.168,25.87 C53.948,25.21 53.288,24.198 52.716,23.626 C56.281,22.856 58.393,21.712 59.647,20.149 L52.54,20.149 L52.54,17.949 L60.813,17.949 C61.474,16.035 61.54,13.659 61.628,10.82 L64.4,10.82 C64.312,13.526 64.18,15.903 63.63,17.949 L71.595,17.949 L71.595,20.149 L62.838,20.149 C61.518,22.79 59.009,24.704 54.168,25.87 Z M60.923,12.602 L59.273,14.473 C58.657,13.725 57.271,12.69 56.149,12.03 L57.667,10.336 C58.789,10.886 60.241,11.832 60.923,12.602 Z M53.904,15.309 L55.401,13.548 C56.545,14.099 58.019,15.001 58.723,15.727 L57.161,17.663 C56.501,16.937 55.071,15.947 53.904,15.309 Z M68.581,9.874 L55.357,9.874 L55.357,12.448 L52.738,12.448 L52.738,7.432 L60.791,7.432 C60.571,6.904 60.307,6.353 60.043,5.913 L62.662,5.099 C63.102,5.803 63.586,6.661 63.916,7.432 L71.331,7.432 L71.331,12.448 L68.581,12.448 L68.581,9.874 Z M80.283,22.394 C78.237,23.23 76.08,24.11 74.298,24.858 L73.748,22.46 C75.288,21.998 77.577,21.162 79.843,20.325 L80.283,22.394 Z" id="形状" fill="#FFFFFF"></path>
        </g>
    </g>
</svg>