<?xml version="1.0" encoding="UTF-8"?>
<svg width="477px" height="302px" viewBox="0 0 477 302" version="1.1" xmlns="http://www.w3.org/2000/svg" xmlns:xlink="http://www.w3.org/1999/xlink">
    <title>jc_kuang_zuo3</title>
    <defs>
        <linearGradient x1="0%" y1="0%" x2="100%" y2="0%" id="linearGradient-1">
            <stop stop-color="#030E6A" stop-opacity="0.8" offset="0%"></stop>
            <stop stop-color="#030E6A" stop-opacity="0" offset="100%"></stop>
        </linearGradient>
        <linearGradient x1="50%" y1="0%" x2="50%" y2="100%" id="linearGradient-2">
            <stop stop-color="#031270" offset="0%"></stop>
            <stop stop-color="#031270" stop-opacity="0.584380463" offset="40.8134834%"></stop>
            <stop stop-color="#031270" offset="100%"></stop>
        </linearGradient>
        <linearGradient x1="19.6284089%" y1="29.9573215%" x2="28.9870627%" y2="70.0426785%" id="linearGradient-3">
            <stop stop-color="#2845FB" offset="0%"></stop>
            <stop stop-color="#2845FB" stop-opacity="0.0366586538" offset="22.8845276%"></stop>
            <stop stop-color="#2845FB" offset="50.2340994%"></stop>
            <stop stop-color="#2845FB" stop-opacity="0" offset="100%"></stop>
        </linearGradient>
        <linearGradient x1="100%" y1="72.4361727%" x2="0%" y2="72.4361727%" id="linearGradient-4">
            <stop stop-color="#0A54FF" stop-opacity="0" offset="0%"></stop>
            <stop stop-color="#0A54FF" offset="100%"></stop>
        </linearGradient>
        <linearGradient x1="0%" y1="0%" x2="100%" y2="0%" id="linearGradient-5">
            <stop stop-color="#4BAAE4" stop-opacity="0" offset="0%"></stop>
            <stop stop-color="#4BAAE4" offset="12.7349213%"></stop>
            <stop stop-color="#005174" stop-opacity="0" offset="100%"></stop>
        </linearGradient>
        <linearGradient x1="0%" y1="0%" x2="100%" y2="0%" id="linearGradient-6">
            <stop stop-color="#4BAAE4" stop-opacity="0" offset="0%"></stop>
            <stop stop-color="#4BAAE4" offset="12.7349213%"></stop>
            <stop stop-color="#005174" stop-opacity="0" offset="100%"></stop>
        </linearGradient>
        <linearGradient x1="0%" y1="5.55111512e-15%" x2="99.939%" y2="3.49%" id="linearGradient-7">
            <stop stop-color="#00C0FF" offset="0%"></stop>
            <stop stop-color="#43F0FF" offset="49%"></stop>
            <stop stop-color="#00C0FF" offset="100%"></stop>
        </linearGradient>
    </defs>
    <g id="页面-1" stroke="none" stroke-width="1" fill="none" fill-rule="evenodd">
        <g id="jc_kuang_zuo3">
            <polygon id="路径" fill="url(#linearGradient-1)" points="252 0 0 0 0 32 279 32"></polygon>
            <polygon id="路径" fill="url(#linearGradient-2)" opacity="0.302" points="253.13219 0.134990042 279.289771 31.5596718 477 31.0527092 477 302 0 302 0 0"></polygon>
            <path d="M0.5,0.500268707 L252.896823,0.635873617 L279.05501,32.2516072 L476.5,31.7422914 L476.5,301.503 L0.5,301.503 L0.5,0.500268707 Z" id="路径" stroke="url(#linearGradient-3)"></path>
            <polygon id="路径" fill="url(#linearGradient-4)" opacity="0.302" points="0 0 252.544 0 279.544 32 0 32"></polygon>
            <path d="M24.275,7.635 L29.784,7.635 C32.067,7.635 33.917,9.466 33.917,11.725 L25.644,23.901 C24.566,24.843 22.419,26.729 20.142,26.7240099 L14.632,26.7240099 C12.35,26.7240099 10.5,24.892 10.5,22.633 L18.765,10.362 C20.853,8.295 21.448,7.635 24.275,7.635 Z" id="路径" fill="#00D4E8"></path>
            <path d="M31.162,4.908 L36.672,4.908 C38.954,4.908 40.804,6.739 40.804,8.998 L32.531,21.174 C31.453,22.116 29.306,24.002 27.03,23.9970099 L21.52,23.9970099 C19.238,23.9970099 17.387,22.165 17.387,19.906 L25.652,7.635 C27.741,5.568 28.335,4.908 31.162,4.908 Z" id="路径" fill="#2845FB" opacity="0.502"></path>
            <polyline id="路径" stroke="url(#linearGradient-5)" points="430.5 26.5 297.5 26.5 283.5 10.5"></polyline>
            <polyline id="路径" stroke="url(#linearGradient-6)" opacity="0.4" points="434.709 19.479 301.01 19.479 288.5 4.5"></polyline>
            <polygon id="路径" fill="#1050D3" opacity="0.2" points="467.237 12.479 462.422 12.479 470.043 23.099 474.858 23.099"></polygon>
            <polygon id="路径" fill="#2563E1" opacity="0.502" points="457.002 12.479 452.187 12.479 459.807 23.099 464.622 23.099"></polygon>
            <polygon id="路径" fill="#4680F5" points="446.767 12.479 441.952 12.479 449.572 23.099 454.387 23.099"></polygon>
            <path d="M182.277,11.756 L182.277,14.221 L179.439,14.221 L179.439,24.892 L176.842,24.892 L176.842,14.221 L173.96,14.221 C173.872,17.565 173.41,21.988 171.474,24.848 C170.989,24.452 169.911,23.792 169.295,23.55 C171.297,20.624 171.474,16.377 171.474,13.275 L171.474,6.784 C174.18,6.278 177.106,5.463 178.889,4.583 L181.089,6.652 C179.021,7.51 176.424,8.192 173.96,8.654 L173.96,11.756 L182.277,11.756 Z M167.579,12.196 C168.393,13.187 170.087,15.497 170.483,16.069 L168.965,18.137 C168.657,17.455 168.129,16.443 167.579,15.475 L167.579,24.892 L165.071,24.892 L165.071,16.355 C164.41,18.225 163.618,19.942 162.738,21.13 C162.496,20.382 161.902,19.347 161.506,18.687 C162.892,16.949 164.124,13.957 164.785,11.36 L162.1,11.36 L162.1,8.896 L165.071,8.896 L165.071,4.363 L167.579,4.363 L167.579,8.896 L170.571,8.896 L170.571,11.36 L167.579,11.36 L167.579,12.196 Z M156.999,13.495 L156.999,13.561 C156.779,20.052 156.515,22.648 155.744,23.55 C155.194,24.254 154.6,24.496 153.764,24.584 C152.972,24.694 151.74,24.694 150.42,24.65 C150.376,23.858 150.046,22.758 149.584,22.01 C150.772,22.12 151.938,22.12 152.466,22.12 C152.862,22.12 153.104,22.054 153.346,21.834 C153.808,21.328 154.028,19.457 154.226,14.991 L149.628,14.991 C149.055,19.149 147.603,22.89 141.948,24.98 C141.64,24.276 140.892,23.22 140.298,22.648 C145.205,21.064 146.371,18.159 146.833,14.991 L143.291,14.991 L143.291,13.693 C142.873,14.155 142.432,14.573 141.97,14.947 C141.486,14.397 140.386,13.341 139.748,12.879 C142.322,11.03 144.545,7.95 145.777,4.671 L148.593,5.441 C147.603,7.994 146.129,10.414 144.479,12.394 L156.074,12.394 C154.424,10.348 152.796,7.906 151.652,5.551 L154.116,4.627 C155.436,7.4 158.077,10.656 160.343,12.526 C159.683,13.033 158.715,14.045 158.231,14.749 C157.835,14.353 157.417,13.935 156.999,13.495 Z M134.316,24.914 L131.786,24.914 L131.786,20.096 L128.09,20.096 L128.09,17.653 L131.786,17.653 L131.786,15.343 L128.838,15.343 L128.838,12.945 L131.786,12.945 L131.786,10.942 L128.574,10.942 L128.574,8.588 L129.872,8.588 C129.674,7.598 129.168,6.256 128.596,5.221 L130.686,4.495 C131.368,5.595 131.962,7.07 132.182,8.082 L130.774,8.588 L135.571,8.588 L133.744,8.104 C134.206,7.07 134.801,5.485 135.065,4.319 L137.595,4.913 C137.045,6.256 136.451,7.62 135.945,8.588 L137.859,8.588 L137.859,10.942 L134.316,10.942 L134.316,12.945 L137.463,12.945 L137.463,15.343 L134.316,15.343 L134.316,17.653 L138.299,17.653 L138.299,20.096 L134.316,20.096 L134.316,24.914 Z M127.099,14.749 L122.325,14.749 C122.193,15.343 122.017,15.893 121.819,16.443 L127.54,16.443 L127.54,23.858 L122.391,23.858 L122.391,24.936 L120.014,24.936 L120.014,19.832 C119.728,20.162 119.442,20.514 119.112,20.844 C118.87,20.36 117.99,19.369 117.506,18.929 C118.65,17.829 119.398,16.421 119.948,14.749 L118.87,14.749 L118.87,12.548 L120.499,12.548 C120.565,12.108 120.653,11.668 120.719,11.184 L117.77,11.184 L117.748,9.006 L120.917,9.006 C120.961,8.544 120.983,8.06 121.005,7.576 L118.98,7.576 L118.98,5.375 L127.099,5.375 L127.099,9.006 L128.178,9.006 L128.178,11.184 L127.099,11.184 L127.099,14.749 Z M122.391,21.614 L125.009,21.614 L125.009,18.687 L122.391,18.687 L122.391,21.614 Z M124.679,7.576 L123.381,7.576 C123.337,8.06 123.315,8.544 123.271,9.006 L124.679,9.006 L124.679,7.576 Z M124.679,11.184 L123.029,11.184 C122.963,11.646 122.919,12.086 122.831,12.548 L124.679,12.548 L124.679,11.184 Z M114.561,24.738 C109.676,22.406 107.234,18.115 105.958,14.331 C104.747,18.203 102.437,22.186 97.86,24.87 C97.398,24.166 96.562,23.33 95.682,22.736 C104.615,17.961 104.197,8.104 104.285,4.385 L107.3,4.385 C107.278,5.309 107.234,6.498 107.146,7.818 C107.454,10.788 108.796,19.083 116.475,22.472 C115.661,23.11 114.913,23.99 114.561,24.738 Z M88.908,22.142 C88.908,23.462 88.688,24.144 87.742,24.54 C86.818,24.892 85.52,24.936 83.76,24.914 C83.672,24.166 83.363,23.154 83.033,22.406 C84.134,22.472 85.432,22.472 85.784,22.472 C86.158,22.45 86.268,22.362 86.268,22.076 L86.268,19.391 L80.679,19.391 L80.679,16.949 L86.268,16.949 L86.268,15.409 C86.95,14.991 87.676,14.397 88.358,13.781 L82.395,13.781 L82.395,11.426 L90.757,11.426 L91.307,11.272 L92.957,12.615 C91.835,13.803 90.361,15.101 88.908,16.113 L88.908,16.949 L94.123,16.949 L94.123,19.391 L88.908,19.391 L88.908,22.142 Z M79.403,14.221 L79.403,24.87 L76.763,24.87 L76.763,17.191 C76.102,17.785 75.442,18.313 74.694,18.819 C74.43,18.137 73.858,16.971 73.462,16.311 C75.838,14.749 77.753,12.35 79.095,9.71 L74.254,9.71 L74.254,7.202 L80.217,7.202 C80.569,6.234 80.877,5.287 81.119,4.341 L83.848,5.001 C83.628,5.75 83.363,6.454 83.099,7.202 L93.793,7.202 L93.793,9.71 L82.065,9.71 C81.317,11.294 80.437,12.813 79.403,14.221 Z M70.759,24.87 C69.967,24.034 69.285,23 68.713,21.812 C68.052,23.066 67.194,24.1 66.182,24.914 C65.896,24.452 65.302,23.836 64.796,23.374 C64.708,23.704 64.598,23.902 64.466,24.056 C64.114,24.452 63.74,24.606 63.234,24.65 C62.838,24.716 62.156,24.716 61.408,24.694 C61.385,24.166 61.209,23.462 60.967,22.978 C61.496,23.044 61.914,23.066 62.134,23.066 C62.376,23.066 62.508,23.022 62.662,22.846 C62.882,22.604 63.036,21.834 63.146,20.074 L61.804,20.074 C61.385,22.12 60.571,23.77 58.811,24.936 C58.569,24.408 57.953,23.682 57.469,23.33 C59.493,22.01 59.889,19.876 60.021,17.169 L58.569,17.169 L58.569,15.145 L61.055,15.145 C60.879,14.727 60.703,14.265 60.527,13.913 L62.508,13.495 L58.657,13.495 L58.657,10.172 L58.657,6.146 L60.725,6.146 C60.813,5.507 60.901,4.869 60.945,4.363 L63.388,4.517 C63.234,5.067 63.058,5.639 62.904,6.146 L65.324,6.146 L65.324,12.262 C66.226,10.106 66.666,7.268 66.908,4.363 L69.087,4.649 C68.933,5.992 68.757,7.312 68.515,8.61 L72.255,8.61 L72.255,10.942 L71.485,10.942 C71.221,13.913 70.759,16.707 69.923,19.127 C70.605,20.646 71.441,21.922 72.497,22.868 C71.947,23.308 71.111,24.21 70.759,24.87 Z M63.234,7.928 L60.681,7.928 L60.681,8.984 L63.234,8.984 L63.234,7.928 Z M63.234,10.634 L60.681,10.634 L60.681,11.69 L63.234,11.69 L63.234,10.634 Z M64.488,13.847 C64.554,13.737 64.642,13.605 64.708,13.495 L62.728,13.495 C62.992,14.001 63.278,14.617 63.454,15.145 L65.72,15.145 C65.346,14.683 64.818,14.133 64.488,13.847 Z M66.666,14.551 C66.468,14.903 66.292,15.255 66.072,15.585 C65.984,15.475 65.874,15.321 65.742,15.167 L65.742,17.169 L62.156,17.169 C62.134,17.543 62.112,17.873 62.068,18.225 L65.412,18.225 C65.412,18.225 65.39,18.731 65.346,18.995 C65.236,20.778 65.104,21.966 64.95,22.78 C66.116,21.834 67.018,20.58 67.678,19.039 C67.282,17.653 66.93,16.135 66.666,14.551 Z M67.964,10.942 C67.942,11.074 67.898,11.206 67.876,11.338 C68.096,12.857 68.383,14.353 68.757,15.783 C69.109,14.287 69.351,12.659 69.527,10.942 L67.964,10.942 Z M57.953,15.409 C57.931,16.025 57.975,16.927 58.041,17.433 C53.706,18.621 52.936,18.929 52.474,19.237 C52.386,18.797 52.012,17.741 51.748,17.169 C52.254,17.059 52.65,16.553 53.222,15.739 C53.486,15.365 54.036,14.529 54.609,13.451 C53.09,13.649 52.606,13.781 52.32,13.935 C52.188,13.451 51.814,12.328 51.528,11.69 C51.946,11.58 52.298,11.074 52.672,10.37 C53.068,9.688 54.3,6.894 54.873,4.341 L57.161,5.375 C56.501,7.4 55.489,9.6 54.432,11.382 L55.709,11.294 C56.061,10.546 56.391,9.798 56.677,9.028 L58.657,10.172 C57.777,12.152 56.655,14.221 55.445,16.025 L57.953,15.409 Z M58.283,21.394 C56.237,22.23 54.08,23.11 52.298,23.858 L51.748,21.46 C53.288,20.998 55.577,20.162 57.843,19.325 L58.283,21.394 Z" id="形状" fill="url(#linearGradient-7)" fill-rule="nonzero"></path>
        </g>
    </g>
</svg>