<?xml version="1.0" encoding="UTF-8"?>
<svg width="477px" height="302px" viewBox="0 0 477 302" version="1.1" xmlns="http://www.w3.org/2000/svg" xmlns:xlink="http://www.w3.org/1999/xlink">
    <title>jc_kuang_you3</title>
    <defs>
        <linearGradient x1="0%" y1="0%" x2="100%" y2="0%" id="linearGradient-1">
            <stop stop-color="#030E6A" stop-opacity="0.8" offset="0%"></stop>
            <stop stop-color="#030E6A" stop-opacity="0" offset="100%"></stop>
        </linearGradient>
        <linearGradient x1="50%" y1="0%" x2="50%" y2="100%" id="linearGradient-2">
            <stop stop-color="#031270" offset="0%"></stop>
            <stop stop-color="#031270" stop-opacity="0.584380463" offset="40.8134834%"></stop>
            <stop stop-color="#031270" offset="100%"></stop>
        </linearGradient>
        <linearGradient x1="19.6284089%" y1="29.9573215%" x2="28.9870627%" y2="70.0426785%" id="linearGradient-3">
            <stop stop-color="#2845FB" offset="0%"></stop>
            <stop stop-color="#2845FB" stop-opacity="0.0366586538" offset="22.8845276%"></stop>
            <stop stop-color="#2845FB" offset="50.2340994%"></stop>
            <stop stop-color="#2845FB" stop-opacity="0" offset="100%"></stop>
        </linearGradient>
        <linearGradient x1="100%" y1="72.4361727%" x2="0%" y2="72.4361727%" id="linearGradient-4">
            <stop stop-color="#0A54FF" stop-opacity="0" offset="0%"></stop>
            <stop stop-color="#0A54FF" offset="100%"></stop>
        </linearGradient>
        <linearGradient x1="0%" y1="0%" x2="100%" y2="0%" id="linearGradient-5">
            <stop stop-color="#4BAAE4" stop-opacity="0" offset="0%"></stop>
            <stop stop-color="#4BAAE4" offset="12.7349213%"></stop>
            <stop stop-color="#005174" stop-opacity="0" offset="100%"></stop>
        </linearGradient>
        <linearGradient x1="0%" y1="0%" x2="100%" y2="0%" id="linearGradient-6">
            <stop stop-color="#4BAAE4" stop-opacity="0" offset="0%"></stop>
            <stop stop-color="#4BAAE4" offset="12.7349213%"></stop>
            <stop stop-color="#005174" stop-opacity="0" offset="100%"></stop>
        </linearGradient>
        <linearGradient x1="0%" y1="1.11022302e-14%" x2="99.939%" y2="3.49%" id="linearGradient-7">
            <stop stop-color="#00C0FF" offset="0%"></stop>
            <stop stop-color="#43F0FF" offset="49%"></stop>
            <stop stop-color="#00C0FF" offset="100%"></stop>
        </linearGradient>
    </defs>
    <g id="页面-1" stroke="none" stroke-width="1" fill="none" fill-rule="evenodd">
        <g id="jc_kuang_you3">
            <polygon id="路径" fill="url(#linearGradient-1)" points="252 0 0 0 0 32 279 32"></polygon>
            <polygon id="路径" fill="url(#linearGradient-2)" opacity="0.302" points="253.13219 0.134990042 279.289771 31.5596718 477 31.0527092 477 302 0 302 0 0"></polygon>
            <path d="M0.5,0.500268707 L252.896823,0.635873617 L279.05501,32.2516072 L476.5,31.7422914 L476.5,301.503 L0.5,301.503 L0.5,0.500268707 Z" id="路径" stroke="url(#linearGradient-3)"></path>
            <polygon id="路径" fill="url(#linearGradient-4)" opacity="0.302" points="0 0 252.544 0 279.544 32 0 32"></polygon>
            <path d="M24.275,7.635 L29.784,7.635 C32.067,7.635 33.917,9.466 33.917,11.725 L25.644,23.901 C24.566,24.843 22.419,26.729 20.142,26.7240099 L14.632,26.7240099 C12.35,26.7240099 10.5,24.892 10.5,22.633 L18.765,10.362 C20.853,8.295 21.448,7.635 24.275,7.635 Z" id="路径" fill="#00D4E8"></path>
            <path d="M31.162,4.908 L36.672,4.908 C38.954,4.908 40.804,6.739 40.804,8.998 L32.531,21.174 C31.453,22.116 29.306,24.002 27.03,23.9970099 L21.52,23.9970099 C19.238,23.9970099 17.387,22.165 17.387,19.906 L25.652,7.635 C27.741,5.568 28.335,4.908 31.162,4.908 Z" id="路径" fill="#2845FB" opacity="0.502"></path>
            <polyline id="路径" stroke="url(#linearGradient-5)" points="430.5 26.5 297.5 26.5 283.5 10.5"></polyline>
            <polyline id="路径" stroke="url(#linearGradient-6)" opacity="0.4" points="434.709 19.479 301.01 19.479 288.5 4.5"></polyline>
            <polygon id="路径" fill="#1050D3" opacity="0.2" points="467.237 12.479 462.422 12.479 470.043 23.099 474.858 23.099"></polygon>
            <polygon id="路径" fill="#2563E1" opacity="0.502" points="457.002 12.479 452.187 12.479 459.807 23.099 464.622 23.099"></polygon>
            <polygon id="路径" fill="#4680F5" points="446.767 12.479 441.952 12.479 449.572 23.099 454.387 23.099"></polygon>
            <path d="M205.277,11.756 L205.277,14.221 L202.439,14.221 L202.439,24.892 L199.842,24.892 L199.842,14.221 L196.96,14.221 C196.872,17.565 196.41,21.988 194.474,24.848 C193.989,24.452 192.911,23.792 192.295,23.55 C194.297,20.624 194.474,16.377 194.474,13.275 L194.474,6.784 C197.18,6.278 200.106,5.463 201.889,4.583 L204.089,6.652 C202.021,7.51 199.424,8.192 196.96,8.654 L196.96,11.756 L205.277,11.756 Z M190.579,12.196 C191.393,13.187 193.087,15.497 193.483,16.069 L191.965,18.137 C191.657,17.455 191.129,16.443 190.579,15.475 L190.579,24.892 L188.071,24.892 L188.071,16.355 C187.41,18.225 186.618,19.942 185.738,21.13 C185.496,20.382 184.902,19.347 184.506,18.687 C185.892,16.949 187.124,13.957 187.785,11.36 L185.1,11.36 L185.1,8.896 L188.071,8.896 L188.071,4.363 L190.579,4.363 L190.579,8.896 L193.571,8.896 L193.571,11.36 L190.579,11.36 L190.579,12.196 Z M179.999,13.495 L179.999,13.561 C179.779,20.052 179.515,22.648 178.744,23.55 C178.194,24.254 177.6,24.496 176.764,24.584 C175.972,24.694 174.74,24.694 173.42,24.65 C173.376,23.858 173.046,22.758 172.584,22.01 C173.772,22.12 174.938,22.12 175.466,22.12 C175.862,22.12 176.104,22.054 176.346,21.834 C176.808,21.328 177.028,19.457 177.226,14.991 L172.628,14.991 C172.055,19.149 170.603,22.89 164.948,24.98 C164.64,24.276 163.892,23.22 163.298,22.648 C168.205,21.064 169.371,18.159 169.833,14.991 L166.291,14.991 L166.291,13.693 C165.873,14.155 165.432,14.573 164.97,14.947 C164.486,14.397 163.386,13.341 162.748,12.879 C165.322,11.03 167.545,7.95 168.777,4.671 L171.593,5.441 C170.603,7.994 169.129,10.414 167.479,12.394 L179.074,12.394 C177.424,10.348 175.796,7.906 174.652,5.551 L177.116,4.627 C178.436,7.4 181.077,10.656 183.343,12.526 C182.683,13.033 181.715,14.045 181.231,14.749 C180.835,14.353 180.417,13.935 179.999,13.495 Z M159.759,24.914 C157.955,24.408 156.414,23.682 155.094,22.67 C153.642,23.726 151.926,24.452 149.967,25.002 C149.703,24.342 149.153,23.308 148.647,22.758 C150.385,22.384 151.948,21.768 153.268,20.91 C152.278,19.7 151.486,18.313 150.848,16.729 L152.19,16.399 L150.055,16.399 L150.055,14.199 L150.826,14.199 C150.408,13.715 149.549,12.945 149.109,12.637 C151.244,11.316 151.486,9.468 151.486,7.906 L151.486,5.199 L153.906,5.199 L153.906,5.221 L156.062,5.221 L156.062,5.199 L158.461,5.199 L158.461,10.37 C158.461,10.986 158.505,11.206 158.791,11.206 L159.781,11.206 C160.089,11.206 160.595,11.162 160.881,11.074 C160.925,11.69 160.991,12.526 161.079,13.077 C160.749,13.209 160.265,13.231 159.803,13.231 L158.549,13.231 C156.48,13.231 156.062,12.372 156.062,10.326 L156.062,7.422 L153.906,7.422 L153.906,7.972 C153.906,10.018 153.422,12.592 151.134,14.199 L158.087,14.199 L158.527,14.133 L160.133,14.661 C159.539,17.323 158.461,19.391 157.03,20.976 C158.241,21.768 159.693,22.318 161.387,22.67 C160.837,23.198 160.111,24.232 159.759,24.914 Z M153.048,16.399 C153.532,17.521 154.214,18.533 155.05,19.413 C155.886,18.555 156.546,17.543 157.03,16.399 L153.048,16.399 Z M144.841,9.49 L149.285,9.49 L149.285,11.756 L144.841,11.756 L144.841,13.957 L149.219,13.957 L149.219,16.223 L144.841,16.223 L144.841,18.489 C146.337,18.291 147.965,18.049 149.549,17.829 L149.681,20.074 C148.075,20.36 146.403,20.624 144.841,20.888 L144.841,24.452 L142.332,24.452 L142.332,21.284 L140.968,21.504 L140.572,19.039 C141.1,18.973 141.694,18.907 142.332,18.819 L142.332,6.476 L142.42,6.498 L142.398,6.476 C144.467,5.86 146.777,4.891 148.207,4.099 L150.275,6.102 C148.625,6.806 146.689,7.466 144.841,8.016 L144.841,9.49 Z M137.825,13.319 C136.417,12.042 134.964,10.04 133.82,7.994 C132.698,10.04 131.268,11.866 129.596,13.297 C129.42,13.033 129.09,12.659 128.738,12.306 L128.738,12.835 L118.792,12.835 L118.792,10.832 L119.892,10.832 L119.892,5.728 L122.005,5.728 L122.005,10.832 L123.171,10.832 L123.171,4.539 L125.459,4.539 L125.459,6.916 L128.562,6.916 L128.562,8.962 L125.459,8.962 L125.459,10.832 L128.452,10.832 C130.366,9.116 131.994,6.586 132.874,4.253 L135.228,4.957 C135.14,5.155 135.074,5.375 134.986,5.573 C136.065,7.686 138.001,9.974 139.739,11.272 C139.123,11.756 138.243,12.681 137.825,13.319 Z M109.554,24.936 L106.848,24.936 L106.848,20.228 L96.946,20.228 L96.946,17.719 L100.423,17.719 L100.423,11.954 L106.848,11.954 L106.848,9.314 L102.139,9.314 C101.237,10.876 100.181,12.284 99.146,13.319 C98.64,12.879 97.518,11.998 96.88,11.624 C98.86,9.952 100.555,7.136 101.501,4.297 L104.163,4.979 C103.965,5.595 103.723,6.19 103.437,6.784 L115.869,6.784 L115.869,9.314 L109.554,9.314 L109.554,11.954 L115.363,11.954 L115.363,14.375 L109.554,14.375 L109.554,17.719 L117.079,17.719 L117.079,20.228 L109.554,20.228 L109.554,24.936 Z M106.848,14.375 L103.041,14.375 L103.041,17.719 L106.848,17.719 L106.848,14.375 Z M89.908,22.142 C89.908,23.462 89.688,24.144 88.742,24.54 C87.818,24.892 86.52,24.936 84.76,24.914 C84.672,24.166 84.363,23.154 84.033,22.406 C85.134,22.472 86.432,22.472 86.784,22.472 C87.158,22.45 87.268,22.362 87.268,22.076 L87.268,19.391 L81.679,19.391 L81.679,16.949 L87.268,16.949 L87.268,15.409 C87.95,14.991 88.676,14.397 89.358,13.781 L83.395,13.781 L83.395,11.426 L91.757,11.426 L92.307,11.272 L93.957,12.615 C92.835,13.803 91.361,15.101 89.908,16.113 L89.908,16.949 L95.123,16.949 L95.123,19.391 L89.908,19.391 L89.908,22.142 Z M80.403,14.221 L80.403,24.87 L77.763,24.87 L77.763,17.191 C77.102,17.785 76.442,18.313 75.694,18.819 C75.43,18.137 74.858,16.971 74.462,16.311 C76.838,14.749 78.753,12.35 80.095,9.71 L75.254,9.71 L75.254,7.202 L81.217,7.202 C81.569,6.234 81.877,5.287 82.119,4.341 L84.848,5.001 C84.628,5.75 84.363,6.454 84.099,7.202 L94.793,7.202 L94.793,9.71 L83.065,9.71 C82.317,11.294 81.437,12.813 80.403,14.221 Z M71.759,24.87 C70.967,24.034 70.285,23 69.713,21.812 C69.052,23.066 68.194,24.1 67.182,24.914 C66.896,24.452 66.302,23.836 65.796,23.374 C65.708,23.704 65.598,23.902 65.466,24.056 C65.114,24.452 64.74,24.606 64.234,24.65 C63.838,24.716 63.156,24.716 62.408,24.694 C62.385,24.166 62.209,23.462 61.967,22.978 C62.496,23.044 62.914,23.066 63.134,23.066 C63.376,23.066 63.508,23.022 63.662,22.846 C63.882,22.604 64.036,21.834 64.146,20.074 L62.804,20.074 C62.385,22.12 61.571,23.77 59.811,24.936 C59.569,24.408 58.953,23.682 58.469,23.33 C60.493,22.01 60.889,19.876 61.021,17.169 L59.569,17.169 L59.569,15.145 L62.055,15.145 C61.879,14.727 61.703,14.265 61.527,13.913 L63.508,13.495 L59.657,13.495 L59.657,10.172 L59.657,6.146 L61.725,6.146 C61.813,5.507 61.901,4.869 61.945,4.363 L64.388,4.517 C64.234,5.067 64.058,5.639 63.904,6.146 L66.324,6.146 L66.324,12.262 C67.226,10.106 67.666,7.268 67.908,4.363 L70.087,4.649 C69.933,5.992 69.757,7.312 69.515,8.61 L73.255,8.61 L73.255,10.942 L72.485,10.942 C72.221,13.913 71.759,16.707 70.923,19.127 C71.605,20.646 72.441,21.922 73.497,22.868 C72.947,23.308 72.111,24.21 71.759,24.87 Z M64.234,7.928 L61.681,7.928 L61.681,8.984 L64.234,8.984 L64.234,7.928 Z M64.234,10.634 L61.681,10.634 L61.681,11.69 L64.234,11.69 L64.234,10.634 Z M65.488,13.847 C65.554,13.737 65.642,13.605 65.708,13.495 L63.728,13.495 C63.992,14.001 64.278,14.617 64.454,15.145 L66.72,15.145 C66.346,14.683 65.818,14.133 65.488,13.847 Z M67.666,14.551 C67.468,14.903 67.292,15.255 67.072,15.585 C66.984,15.475 66.874,15.321 66.742,15.167 L66.742,17.169 L63.156,17.169 C63.134,17.543 63.112,17.873 63.068,18.225 L66.412,18.225 C66.412,18.225 66.39,18.731 66.346,18.995 C66.236,20.778 66.104,21.966 65.95,22.78 C67.116,21.834 68.018,20.58 68.678,19.039 C68.282,17.653 67.93,16.135 67.666,14.551 Z M68.964,10.942 C68.942,11.074 68.898,11.206 68.876,11.338 C69.096,12.857 69.383,14.353 69.757,15.783 C70.109,14.287 70.351,12.659 70.527,10.942 L68.964,10.942 Z M58.953,15.409 C58.931,16.025 58.975,16.927 59.041,17.433 C54.706,18.621 53.936,18.929 53.474,19.237 C53.386,18.797 53.012,17.741 52.748,17.169 C53.254,17.059 53.65,16.553 54.222,15.739 C54.486,15.365 55.036,14.529 55.609,13.451 C54.09,13.649 53.606,13.781 53.32,13.935 C53.188,13.451 52.814,12.328 52.528,11.69 C52.946,11.58 53.298,11.074 53.672,10.37 C54.068,9.688 55.3,6.894 55.873,4.341 L58.161,5.375 C57.501,7.4 56.489,9.6 55.432,11.382 L56.709,11.294 C57.061,10.546 57.391,9.798 57.677,9.028 L59.657,10.172 C58.777,12.152 57.655,14.221 56.445,16.025 L58.953,15.409 Z M59.283,21.394 C57.237,22.23 55.08,23.11 53.298,23.858 L52.748,21.46 C54.288,20.998 56.577,20.162 58.843,19.325 L59.283,21.394 Z M121.366,20.118 C122.599,18.445 122.973,15.915 123.149,13.121 L125.107,13.297 C124.997,14.683 124.843,15.981 124.579,17.169 C125.261,18.049 125.921,19.039 126.339,19.81 L126.339,13.539 L128.363,13.539 L128.363,24.76 L126.339,24.76 L126.339,23.682 L119.298,24.144 L119.298,13.627 L121.366,13.627 L121.366,20.118 Z M121.366,21.988 L126.339,21.746 L126.339,20.162 L125.019,21.372 C124.777,20.822 124.381,20.14 123.941,19.413 C123.589,20.316 123.149,21.086 122.599,21.768 C122.379,21.46 121.807,20.866 121.366,20.536 L121.366,21.988 Z M133.622,10.766 C134.304,11.58 135.096,12.615 135.493,13.341 L133.424,14.441 C133.072,13.715 132.28,12.526 131.642,11.712 L133.622,10.766 Z M133.116,20.074 C133.864,19.127 134.7,17.983 135.361,16.883 L129.354,16.883 L129.354,14.595 L136.703,14.595 L137.121,14.441 L138.925,15.607 C137.979,17.609 136.395,19.854 135.052,21.57 C135.757,22.12 136.351,22.648 136.813,23.044 L135.339,25.09 C134.04,23.726 131.246,21.526 129.31,19.964 L130.674,18.203 C131.4,18.753 132.236,19.413 133.116,20.074 Z" id="形状" fill="url(#linearGradient-7)" fill-rule="nonzero"></path>
        </g>
    </g>
</svg>