<?xml version="1.0" encoding="UTF-8"?>
<svg width="477px" height="253px" viewBox="0 0 477 253" version="1.1" xmlns="http://www.w3.org/2000/svg" xmlns:xlink="http://www.w3.org/1999/xlink">
    <title>jc_kuang_you1</title>
    <defs>
        <linearGradient x1="0%" y1="0%" x2="100%" y2="0%" id="linearGradient-1">
            <stop stop-color="#030E6A" stop-opacity="0.8" offset="0%"></stop>
            <stop stop-color="#030E6A" stop-opacity="0" offset="100%"></stop>
        </linearGradient>
        <linearGradient x1="50%" y1="0%" x2="50%" y2="100%" id="linearGradient-2">
            <stop stop-color="#031270" offset="0%"></stop>
            <stop stop-color="#031270" stop-opacity="0.584380463" offset="40.8134834%"></stop>
            <stop stop-color="#031270" offset="100%"></stop>
        </linearGradient>
        <linearGradient x1="19.6284089%" y1="35.9335474%" x2="28.9870627%" y2="64.0664526%" id="linearGradient-3">
            <stop stop-color="#2845FB" offset="0%"></stop>
            <stop stop-color="#2845FB" stop-opacity="0.0366586538" offset="22.8845276%"></stop>
            <stop stop-color="#2845FB" offset="50.2340994%"></stop>
            <stop stop-color="#2845FB" stop-opacity="0" offset="100%"></stop>
        </linearGradient>
        <linearGradient x1="100%" y1="72.4361727%" x2="0%" y2="72.4361727%" id="linearGradient-4">
            <stop stop-color="#0A54FF" stop-opacity="0" offset="0%"></stop>
            <stop stop-color="#0A54FF" offset="100%"></stop>
        </linearGradient>
        <linearGradient x1="0%" y1="0%" x2="100%" y2="0%" id="linearGradient-5">
            <stop stop-color="#4BAAE4" stop-opacity="0" offset="0%"></stop>
            <stop stop-color="#4BAAE4" offset="12.7349213%"></stop>
            <stop stop-color="#005174" stop-opacity="0" offset="100%"></stop>
        </linearGradient>
        <linearGradient x1="0%" y1="0%" x2="100%" y2="0%" id="linearGradient-6">
            <stop stop-color="#4BAAE4" stop-opacity="0" offset="0%"></stop>
            <stop stop-color="#4BAAE4" offset="12.7349213%"></stop>
            <stop stop-color="#005174" stop-opacity="0" offset="100%"></stop>
        </linearGradient>
        <linearGradient x1="0%" y1="0%" x2="99.939%" y2="3.49%" id="linearGradient-7">
            <stop stop-color="#00C0FF" offset="0%"></stop>
            <stop stop-color="#43F0FF" offset="49%"></stop>
            <stop stop-color="#00C0FF" offset="100%"></stop>
        </linearGradient>
        <circle id="path-8" cx="363" cy="144" r="64"></circle>
        <filter x="-21.1%" y="-21.1%" width="142.2%" height="142.2%" filterUnits="objectBoundingBox" id="filter-9">
            <feOffset dx="0" dy="0" in="SourceAlpha" result="shadowOffsetOuter1"></feOffset>
            <feGaussianBlur stdDeviation="9" in="shadowOffsetOuter1" result="shadowBlurOuter1"></feGaussianBlur>
            <feComposite in="shadowBlurOuter1" in2="SourceAlpha" operator="out" result="shadowBlurOuter1"></feComposite>
            <feColorMatrix values="0 0 0 0 0   0 0 0 0 0.435294118   0 0 0 0 1  0 0 0 1 0" type="matrix" in="shadowBlurOuter1"></feColorMatrix>
        </filter>
    </defs>
    <g id="页面-1" stroke="none" stroke-width="1" fill="none" fill-rule="evenodd">
        <g id="jc_kuang_you1">
            <polygon id="路径" fill="url(#linearGradient-1)" points="252 0 0 0 0 32 279 32"></polygon>
            <polygon id="路径" fill="url(#linearGradient-2)" opacity="0.302" points="253.13219 0.134990042 279.289771 31.5596718 477 31.0527092 477 253 0 253 0 0"></polygon>
            <path d="M0.5,0.500268707 L252.896823,0.635873617 L279.05501,32.2516072 L476.5,31.7422914 L476.5,252.503 L0.5,252.503 L0.5,0.500268707 Z" id="路径" stroke="url(#linearGradient-3)"></path>
            <polygon id="路径" fill="url(#linearGradient-4)" opacity="0.302" points="-5.68434189e-14 0 252.544 0 279.544 32 -5.68434189e-14 32"></polygon>
            <path d="M24.275,7.635 L29.784,7.635 C32.067,7.635 33.917,9.466 33.917,11.725 L25.644,23.901 C24.566,24.843 22.419,26.729 20.142,26.7240099 L14.632,26.7240099 C12.35,26.7240099 10.5,24.892 10.5,22.633 L18.765,10.362 C20.853,8.295 21.448,7.635 24.275,7.635 Z" id="路径" fill="#00D4E8"></path>
            <path d="M31.162,4.908 L36.672,4.908 C38.954,4.908 40.804,6.739 40.804,8.998 L32.531,21.174 C31.453,22.116 29.306,24.002 27.03,23.9970099 L21.52,23.9970099 C19.238,23.9970099 17.387,22.165 17.387,19.906 L25.652,7.635 C27.741,5.568 28.335,4.908 31.162,4.908 Z" id="路径" fill="#2845FB" opacity="0.502"></path>
            <polyline id="路径" stroke="url(#linearGradient-5)" points="430.5 26.5 297.5 26.5 283.5 10.5"></polyline>
            <polyline id="路径" stroke="url(#linearGradient-6)" opacity="0.4" points="434.709 19.479 301.01 19.479 288.5 4.5"></polyline>
            <polygon id="路径" fill="#1050D3" opacity="0.2" points="467.237 12.479 462.422 12.479 470.043 23.099 474.858 23.099"></polygon>
            <polygon id="路径" fill="#2563E1" opacity="0.502" points="457.002 12.479 452.187 12.479 459.807 23.099 464.622 23.099"></polygon>
            <polygon id="路径" fill="#4680F5" points="446.767 12.479 441.952 12.479 449.572 23.099 454.387 23.099"></polygon>
            <path d="M139.277,12.756 L139.277,15.221 L136.439,15.221 L136.439,25.892 L133.842,25.892 L133.842,15.221 L130.96,15.221 C130.872,18.565 130.41,22.988 128.474,25.848 C127.989,25.452 126.911,24.792 126.295,24.55 C128.297,21.624 128.474,17.377 128.474,14.275 L128.474,7.784 C131.18,7.278 134.106,6.463 135.889,5.583 L138.089,7.652 C136.021,8.51 133.424,9.192 130.96,9.654 L130.96,12.756 L139.277,12.756 Z M124.579,13.196 C125.393,14.187 127.087,16.497 127.483,17.069 L125.965,19.137 C125.657,18.455 125.129,17.443 124.579,16.475 L124.579,25.892 L122.071,25.892 L122.071,17.355 C121.41,19.225 120.618,20.942 119.738,22.13 C119.496,21.382 118.902,20.347 118.506,19.687 C119.892,17.949 121.124,14.957 121.785,12.36 L119.1,12.36 L119.1,9.896 L122.071,9.896 L122.071,5.363 L124.579,5.363 L124.579,9.896 L127.571,9.896 L127.571,12.36 L124.579,12.36 L124.579,13.196 Z M113.999,14.495 L113.999,14.561 C113.779,21.052 113.515,23.648 112.744,24.55 C112.194,25.254 111.6,25.496 110.764,25.584 C109.972,25.694 108.74,25.694 107.42,25.65 C107.376,24.858 107.046,23.758 106.584,23.01 C107.772,23.12 108.938,23.12 109.466,23.12 C109.862,23.12 110.104,23.054 110.346,22.834 C110.808,22.328 111.028,20.457 111.226,15.991 L106.628,15.991 C106.055,20.149 104.603,23.89 98.948,25.98 C98.64,25.276 97.892,24.22 97.298,23.648 C102.205,22.064 103.371,19.159 103.833,15.991 L100.291,15.991 L100.291,14.693 C99.873,15.155 99.432,15.573 98.97,15.947 C98.486,15.397 97.386,14.341 96.748,13.879 C99.322,12.03 101.545,8.95 102.777,5.671 L105.593,6.441 C104.603,8.994 103.129,11.414 101.479,13.394 L113.074,13.394 C111.424,11.348 109.796,8.906 108.652,6.551 L111.116,5.627 C112.436,8.4 115.077,11.656 117.343,13.526 C116.683,14.033 115.715,15.045 115.231,15.749 C114.835,15.353 114.417,14.935 113.999,14.495 Z M93.759,25.87 C92.967,25.034 92.285,24 91.713,22.812 C91.052,24.066 90.194,25.1 89.182,25.914 C88.896,25.452 88.302,24.836 87.796,24.374 C87.708,24.704 87.598,24.902 87.466,25.056 C87.114,25.452 86.74,25.606 86.234,25.65 C85.838,25.716 85.156,25.716 84.408,25.694 C84.385,25.166 84.209,24.462 83.967,23.978 C84.496,24.044 84.914,24.066 85.134,24.066 C85.376,24.066 85.508,24.022 85.662,23.846 C85.882,23.604 86.036,22.834 86.146,21.074 L84.804,21.074 C84.385,23.12 83.571,24.77 81.811,25.936 C81.569,25.408 80.953,24.682 80.469,24.33 C82.493,23.01 82.889,20.876 83.021,18.169 L81.569,18.169 L81.569,16.145 L84.055,16.145 C83.879,15.727 83.703,15.265 83.527,14.913 L85.508,14.495 L81.657,14.495 L81.657,11.172 L81.657,7.146 L83.725,7.146 C83.813,6.507 83.901,5.869 83.945,5.363 L86.388,5.517 C86.234,6.067 86.058,6.639 85.904,7.146 L88.324,7.146 L88.324,13.262 C89.226,11.106 89.666,8.268 89.908,5.363 L92.087,5.649 C91.933,6.992 91.757,8.312 91.515,9.61 L95.255,9.61 L95.255,11.942 L94.485,11.942 C94.221,14.913 93.759,17.707 92.923,20.127 C93.605,21.646 94.441,22.922 95.497,23.868 C94.947,24.308 94.111,25.21 93.759,25.87 Z M86.234,8.928 L83.681,8.928 L83.681,9.984 L86.234,9.984 L86.234,8.928 Z M86.234,11.634 L83.681,11.634 L83.681,12.69 L86.234,12.69 L86.234,11.634 Z M87.488,14.847 C87.554,14.737 87.642,14.605 87.708,14.495 L85.728,14.495 C85.992,15.001 86.278,15.617 86.454,16.145 L88.72,16.145 C88.346,15.683 87.818,15.133 87.488,14.847 Z M89.666,15.551 C89.468,15.903 89.292,16.255 89.072,16.585 C88.984,16.475 88.874,16.321 88.742,16.167 L88.742,18.169 L85.156,18.169 C85.134,18.543 85.112,18.873 85.068,19.225 L88.412,19.225 C88.412,19.225 88.39,19.731 88.346,19.995 C88.236,21.778 88.104,22.966 87.95,23.78 C89.116,22.834 90.018,21.58 90.678,20.039 C90.282,18.653 89.93,17.135 89.666,15.551 Z M90.964,11.942 C90.942,12.074 90.898,12.206 90.876,12.338 C91.096,13.857 91.383,15.353 91.757,16.783 C92.109,15.287 92.351,13.659 92.527,11.942 L90.964,11.942 Z M80.953,16.409 C80.931,17.025 80.975,17.927 81.041,18.433 C76.706,19.621 75.936,19.929 75.474,20.237 C75.386,19.797 75.012,18.741 74.748,18.169 C75.254,18.059 75.65,17.553 76.222,16.739 C76.486,16.365 77.036,15.529 77.609,14.451 C76.09,14.649 75.606,14.781 75.32,14.935 C75.188,14.451 74.814,13.328 74.528,12.69 C74.946,12.58 75.298,12.074 75.672,11.37 C76.068,10.688 77.3,7.894 77.873,5.341 L80.161,6.375 C79.501,8.4 78.489,10.6 77.432,12.382 L78.709,12.294 C79.061,11.546 79.391,10.798 79.677,10.028 L81.657,11.172 C80.777,13.152 79.655,15.221 78.445,17.025 L80.953,16.409 Z M70.857,20.81 L67.402,20.81 L67.402,23.34 C67.402,24.528 67.16,25.144 66.236,25.496 C65.334,25.826 64.08,25.826 62.452,25.826 C62.319,25.122 61.989,24.22 61.681,23.538 C62.716,23.582 63.992,23.582 64.322,23.582 C64.652,23.582 64.762,23.516 64.762,23.252 L64.762,20.81 L60.999,20.81 L60.999,18.763 L70.835,18.763 L70.835,17.619 L60.977,17.619 L60.977,19.555 L58.733,19.555 L58.733,15.573 L73.189,15.573 L73.189,19.555 L70.857,19.555 L70.857,20.81 Z M60.581,14.693 L60.581,10.028 L71.495,10.028 L71.495,14.693 L60.581,14.693 Z M68.986,11.766 L62.936,11.766 L62.936,12.954 L68.986,12.954 L68.986,11.766 Z M59.239,7.146 C58.711,8.444 58.117,9.786 57.457,11.04 L57.457,25.892 L55.08,25.892 L55.08,14.869 C54.684,15.419 54.266,15.925 53.87,16.387 C53.65,15.749 52.968,14.297 52.528,13.681 C54.398,11.678 56.181,8.554 57.215,5.451 L59.591,6.199 C59.481,6.485 59.393,6.75 59.283,7.036 L64.806,7.036 C64.63,6.617 64.432,6.199 64.234,5.847 L66.654,5.187 C66.984,5.759 67.336,6.441 67.578,7.036 L72.991,7.036 L72.991,9.192 L59.239,9.192 L59.239,7.146 Z M81.283,22.394 C79.237,23.23 77.08,24.11 75.298,24.858 L74.748,22.46 C76.288,21.998 78.577,21.162 80.843,20.325 L81.283,22.394 Z" id="形状" fill="url(#linearGradient-7)" fill-rule="nonzero"></path>
            <g id="椭圆形" opacity="0.297215661">
                <use fill="black" fill-opacity="1" filter="url(#filter-9)" xlink:href="#path-8"></use>
                <use fill-opacity="0" fill="#D8D8D8" fill-rule="evenodd" xlink:href="#path-8"></use>
            </g>
        </g>
    </g>
</svg>