<?xml version="1.0" encoding="UTF-8"?>
<svg width="429px" height="302px" viewBox="0 0 429 302" version="1.1" xmlns="http://www.w3.org/2000/svg" xmlns:xlink="http://www.w3.org/1999/xlink">
    <title>jc_kuang_zhongxia2</title>
    <defs>
        <linearGradient x1="0%" y1="0%" x2="100%" y2="0%" id="linearGradient-1">
            <stop stop-color="#030E6A" stop-opacity="0.8" offset="0%"></stop>
            <stop stop-color="#030E6A" stop-opacity="0" offset="100%"></stop>
        </linearGradient>
        <linearGradient x1="50%" y1="0%" x2="50%" y2="100%" id="linearGradient-2">
            <stop stop-color="#031270" offset="0%"></stop>
            <stop stop-color="#031270" stop-opacity="0.584380463" offset="40.8134834%"></stop>
            <stop stop-color="#031270" offset="100%"></stop>
        </linearGradient>
        <linearGradient x1="19.6284089%" y1="25.2213333%" x2="28.9870627%" y2="74.7786667%" id="linearGradient-3">
            <stop stop-color="#2845FB" offset="0%"></stop>
            <stop stop-color="#2845FB" stop-opacity="0.0366586538" offset="22.8845276%"></stop>
            <stop stop-color="#2845FB" offset="50.2340994%"></stop>
            <stop stop-color="#2845FB" stop-opacity="0" offset="100%"></stop>
        </linearGradient>
        <linearGradient x1="100%" y1="72.4361727%" x2="0%" y2="72.4361727%" id="linearGradient-4">
            <stop stop-color="#0A54FF" stop-opacity="0" offset="0%"></stop>
            <stop stop-color="#0A54FF" offset="100%"></stop>
        </linearGradient>
        <linearGradient x1="0%" y1="0%" x2="100%" y2="0%" id="linearGradient-5">
            <stop stop-color="#4BAAE4" stop-opacity="0" offset="0%"></stop>
            <stop stop-color="#4BAAE4" offset="12.7349213%"></stop>
            <stop stop-color="#005174" stop-opacity="0" offset="100%"></stop>
        </linearGradient>
        <linearGradient x1="0%" y1="0%" x2="100%" y2="0%" id="linearGradient-6">
            <stop stop-color="#4BAAE4" stop-opacity="0" offset="0%"></stop>
            <stop stop-color="#4BAAE4" offset="12.7349213%"></stop>
            <stop stop-color="#005174" stop-opacity="0" offset="100%"></stop>
        </linearGradient>
        <linearGradient x1="0%" y1="2.77555756e-14%" x2="99.939%" y2="3.49%" id="linearGradient-7">
            <stop stop-color="#00C0FF" offset="0%"></stop>
            <stop stop-color="#43F0FF" offset="49%"></stop>
            <stop stop-color="#00C0FF" offset="100%"></stop>
        </linearGradient>
    </defs>
    <g id="页面-1" stroke="none" stroke-width="1" fill="none" fill-rule="evenodd">
        <g id="jc_kuang_zhongxia2">
            <polygon id="路径" fill="url(#linearGradient-1)" points="252 0 0 0 0 32 279 32"></polygon>
            <polygon id="路径" fill="url(#linearGradient-2)" opacity="0.302" points="253.13219 0.134990042 279.289771 31.5596718 429 31.0527092 429 302 0 302 0 0"></polygon>
            <path d="M0.5,0.500268707 L252.896823,0.635873617 L279.055172,32.2518021 L428.5,31.7427062 L428.5,301.503 L0.5,301.503 L0.5,0.500268707 Z" id="路径" stroke="url(#linearGradient-3)"></path>
            <polygon id="路径" fill="url(#linearGradient-4)" opacity="0.302" points="0 0 252.544 0 279.544 32 0 32"></polygon>
            <path d="M24.275,7.635 L29.784,7.635 C32.067,7.635 33.917,9.466 33.917,11.725 L25.644,23.901 C24.566,24.843 22.419,26.729 20.142,26.7240099 L14.632,26.7240099 C12.35,26.7240099 10.5,24.892 10.5,22.633 L18.765,10.362 C20.853,8.295 21.448,7.635 24.275,7.635 Z" id="路径" fill="#00D4E8"></path>
            <path d="M31.162,4.908 L36.672,4.908 C38.954,4.908 40.804,6.739 40.804,8.998 L32.531,21.174 C31.453,22.116 29.306,24.002 27.03,23.9970099 L21.52,23.9970099 C19.238,23.9970099 17.387,22.165 17.387,19.906 L25.652,7.635 C27.741,5.568 28.335,4.908 31.162,4.908 Z" id="路径" fill="#2845FB" opacity="0.502"></path>
            <polyline id="路径" stroke="url(#linearGradient-5)" points="382.5 26.5 297.5 26.5 283.5 10.5"></polyline>
            <polyline id="路径" stroke="url(#linearGradient-6)" opacity="0.4" points="386.709 19.479 301.01 19.479 288.5 4.5"></polyline>
            <polygon id="路径" fill="#1050D3" opacity="0.2" points="419.237 12.479 414.422 12.479 422.043 23.099 426.858 23.099"></polygon>
            <polygon id="路径" fill="#2563E1" opacity="0.502" points="409.002 12.479 404.187 12.479 411.807 23.099 416.622 23.099"></polygon>
            <polygon id="路径" fill="#4680F5" points="398.767 12.479 393.952 12.479 401.572 23.099 406.387 23.099"></polygon>
            <path d="M183.277,11.756 L183.277,14.221 L180.439,14.221 L180.439,24.892 L177.842,24.892 L177.842,14.221 L174.96,14.221 C174.872,17.565 174.41,21.988 172.474,24.848 C171.989,24.452 170.911,23.792 170.295,23.55 C172.297,20.624 172.474,16.377 172.474,13.275 L172.474,6.784 C175.18,6.278 178.106,5.463 179.889,4.583 L182.089,6.652 C180.021,7.51 177.424,8.192 174.96,8.654 L174.96,11.756 L183.277,11.756 Z M168.579,12.196 C169.393,13.187 171.087,15.497 171.483,16.069 L169.965,18.137 C169.657,17.455 169.129,16.443 168.579,15.475 L168.579,24.892 L166.071,24.892 L166.071,16.355 C165.41,18.225 164.618,19.942 163.738,21.13 C163.496,20.382 162.902,19.347 162.506,18.687 C163.892,16.949 165.124,13.957 165.785,11.36 L163.1,11.36 L163.1,8.896 L166.071,8.896 L166.071,4.363 L168.579,4.363 L168.579,8.896 L171.571,8.896 L171.571,11.36 L168.579,11.36 L168.579,12.196 Z M157.999,13.495 L157.999,13.561 C157.779,20.052 157.515,22.648 156.744,23.55 C156.194,24.254 155.6,24.496 154.764,24.584 C153.972,24.694 152.74,24.694 151.42,24.65 C151.376,23.858 151.046,22.758 150.584,22.01 C151.772,22.12 152.938,22.12 153.466,22.12 C153.862,22.12 154.104,22.054 154.346,21.834 C154.808,21.328 155.028,19.457 155.226,14.991 L150.628,14.991 C150.055,19.149 148.603,22.89 142.948,24.98 C142.64,24.276 141.892,23.22 141.298,22.648 C146.205,21.064 147.371,18.159 147.833,14.991 L144.291,14.991 L144.291,13.693 C143.873,14.155 143.432,14.573 142.97,14.947 C142.486,14.397 141.386,13.341 140.748,12.879 C143.322,11.03 145.545,7.95 146.777,4.671 L149.593,5.441 C148.603,7.994 147.129,10.414 145.479,12.394 L157.074,12.394 C155.424,10.348 153.796,7.906 152.652,5.551 L155.116,4.627 C156.436,7.4 159.077,10.656 161.343,12.526 C160.683,13.033 159.715,14.045 159.231,14.749 C158.835,14.353 158.417,13.935 157.999,13.495 Z M135.316,24.914 L132.786,24.914 L132.786,20.096 L129.09,20.096 L129.09,17.653 L132.786,17.653 L132.786,15.343 L129.838,15.343 L129.838,12.945 L132.786,12.945 L132.786,10.942 L129.574,10.942 L129.574,8.588 L130.872,8.588 C130.674,7.598 130.168,6.256 129.596,5.221 L131.686,4.495 C132.368,5.595 132.962,7.07 133.182,8.082 L131.774,8.588 L136.571,8.588 L134.744,8.104 C135.206,7.07 135.801,5.485 136.065,4.319 L138.595,4.913 C138.045,6.256 137.451,7.62 136.945,8.588 L138.859,8.588 L138.859,10.942 L135.316,10.942 L135.316,12.945 L138.463,12.945 L138.463,15.343 L135.316,15.343 L135.316,17.653 L139.299,17.653 L139.299,20.096 L135.316,20.096 L135.316,24.914 Z M128.099,14.749 L123.325,14.749 C123.193,15.343 123.017,15.893 122.819,16.443 L128.54,16.443 L128.54,23.858 L123.391,23.858 L123.391,24.936 L121.014,24.936 L121.014,19.832 C120.728,20.162 120.442,20.514 120.112,20.844 C119.87,20.36 118.99,19.369 118.506,18.929 C119.65,17.829 120.398,16.421 120.948,14.749 L119.87,14.749 L119.87,12.548 L121.499,12.548 C121.565,12.108 121.653,11.668 121.719,11.184 L118.77,11.184 L118.748,9.006 L121.917,9.006 C121.961,8.544 121.983,8.06 122.005,7.576 L119.98,7.576 L119.98,5.375 L128.099,5.375 L128.099,9.006 L129.178,9.006 L129.178,11.184 L128.099,11.184 L128.099,14.749 Z M123.391,21.614 L126.009,21.614 L126.009,18.687 L123.391,18.687 L123.391,21.614 Z M125.679,7.576 L124.381,7.576 C124.337,8.06 124.315,8.544 124.271,9.006 L125.679,9.006 L125.679,7.576 Z M125.679,11.184 L124.029,11.184 C123.963,11.646 123.919,12.086 123.831,12.548 L125.679,12.548 L125.679,11.184 Z M115.561,24.738 C110.676,22.406 108.234,18.115 106.958,14.331 C105.747,18.203 103.437,22.186 98.86,24.87 C98.398,24.166 97.562,23.33 96.682,22.736 C105.615,17.961 105.197,8.104 105.285,4.385 L108.3,4.385 C108.278,5.309 108.234,6.498 108.146,7.818 C108.454,10.788 109.796,19.083 117.475,22.472 C116.661,23.11 115.913,23.99 115.561,24.738 Z M90.326,15.981 L79.831,15.981 C79.545,19.127 78.775,22.626 76.926,25.09 C76.42,24.584 75.254,23.748 74.616,23.484 C76.992,20.36 77.212,15.827 77.212,12.637 L77.212,7.664 L84.297,7.664 C84.033,6.828 83.593,5.75 83.219,4.891 L85.838,4.253 C86.322,5.177 86.85,6.454 87.114,7.268 L85.75,7.664 L93.011,7.664 L93.011,17.125 L90.326,17.125 L90.326,15.981 Z M90.326,10.084 L79.963,10.084 L79.963,12.637 C79.963,12.901 79.963,13.231 79.963,13.539 L90.326,13.539 L90.326,10.084 Z M69.052,9.072 C69.647,7.972 70.461,6.19 70.879,4.891 L73.167,5.794 C72.485,7.312 71.671,8.874 71.055,9.93 L69.052,9.072 Z M72.463,10.48 L72.463,22.098 C72.463,23.242 72.265,23.946 71.495,24.342 C70.747,24.738 69.669,24.782 68.106,24.782 C68.04,24.1 67.71,23.044 67.402,22.406 C68.37,22.45 69.405,22.45 69.735,22.428 C70.043,22.406 70.131,22.318 70.131,22.054 L70.131,20.58 L64.08,20.58 L64.08,24.892 L61.769,24.892 L61.769,10.502 L65.994,10.502 L65.994,4.341 L68.37,4.341 L68.37,10.502 L70.131,10.48 L72.463,10.48 Z M64.08,18.379 L70.131,18.379 L70.131,16.729 L64.08,16.729 L64.08,18.379 Z M64.08,12.945 L64.08,14.529 L70.131,14.529 L70.131,12.945 L64.08,12.945 Z M61.395,6.014 L63.398,5.067 C64.212,6.256 65.07,7.862 65.334,8.94 L63.2,10.04 C62.936,8.984 62.165,7.312 61.395,6.014 Z M58.403,20.8 L60.691,19.678 C60.735,20.382 60.933,21.438 61.109,21.944 C57.171,23.99 56.423,24.408 56.005,24.826 C55.829,24.21 55.3,23.154 54.926,22.648 C55.388,22.362 56.005,21.724 56.005,20.778 L56.005,17.411 L53.254,17.411 L53.254,15.079 L56.005,15.079 L56.005,12.923 L54.354,12.923 L54.354,11.14 C54.134,11.404 53.892,11.646 53.65,11.844 C53.474,11.338 52.902,9.974 52.506,9.424 C53.804,8.192 54.992,6.344 55.653,4.429 L57.853,5.111 C57.655,5.661 57.413,6.212 57.193,6.762 L61.087,6.762 L61.087,9.226 L55.807,9.226 C55.499,9.71 55.19,10.15 54.838,10.59 L60.713,10.59 L60.713,12.923 L58.403,12.923 L58.403,15.079 L61.153,15.079 L61.153,17.411 L58.403,17.411 L58.403,20.8 Z" id="形状" fill="url(#linearGradient-7)" fill-rule="nonzero"></path>
        </g>
    </g>
</svg>