<?xml version="1.0" encoding="UTF-8"?>
<svg width="429px" height="302px" viewBox="0 0 429 302" version="1.1" xmlns="http://www.w3.org/2000/svg" xmlns:xlink="http://www.w3.org/1999/xlink">
    <title>jc_kuang_zhongxia1</title>
    <defs>
        <linearGradient x1="0%" y1="0%" x2="100%" y2="0%" id="linearGradient-1">
            <stop stop-color="#030E6A" stop-opacity="0.8" offset="0%"></stop>
            <stop stop-color="#030E6A" stop-opacity="0" offset="100%"></stop>
        </linearGradient>
        <linearGradient x1="50%" y1="0%" x2="50%" y2="100%" id="linearGradient-2">
            <stop stop-color="#031270" offset="0%"></stop>
            <stop stop-color="#031270" stop-opacity="0.584380463" offset="40.8134834%"></stop>
            <stop stop-color="#031270" offset="100%"></stop>
        </linearGradient>
        <linearGradient x1="19.6284089%" y1="25.2213333%" x2="28.9870627%" y2="74.7786667%" id="linearGradient-3">
            <stop stop-color="#2845FB" offset="0%"></stop>
            <stop stop-color="#2845FB" stop-opacity="0.0366586538" offset="22.8845276%"></stop>
            <stop stop-color="#2845FB" offset="50.2340994%"></stop>
            <stop stop-color="#2845FB" stop-opacity="0" offset="100%"></stop>
        </linearGradient>
        <linearGradient x1="100%" y1="72.4361727%" x2="0%" y2="72.4361727%" id="linearGradient-4">
            <stop stop-color="#0A54FF" stop-opacity="0" offset="0%"></stop>
            <stop stop-color="#0A54FF" offset="100%"></stop>
        </linearGradient>
        <linearGradient x1="0%" y1="0%" x2="100%" y2="0%" id="linearGradient-5">
            <stop stop-color="#4BAAE4" stop-opacity="0" offset="0%"></stop>
            <stop stop-color="#4BAAE4" offset="12.7349213%"></stop>
            <stop stop-color="#005174" stop-opacity="0" offset="100%"></stop>
        </linearGradient>
        <linearGradient x1="0%" y1="0%" x2="100%" y2="0%" id="linearGradient-6">
            <stop stop-color="#4BAAE4" stop-opacity="0" offset="0%"></stop>
            <stop stop-color="#4BAAE4" offset="12.7349213%"></stop>
            <stop stop-color="#005174" stop-opacity="0" offset="100%"></stop>
        </linearGradient>
        <linearGradient x1="0%" y1="1.11022302e-14%" x2="99.939%" y2="3.49%" id="linearGradient-7">
            <stop stop-color="#00C0FF" offset="0%"></stop>
            <stop stop-color="#43F0FF" offset="49%"></stop>
            <stop stop-color="#00C0FF" offset="100%"></stop>
        </linearGradient>
    </defs>
    <g id="页面-1" stroke="none" stroke-width="1" fill="none" fill-rule="evenodd">
        <g id="jc_kuang_zhongxia1">
            <polygon id="路径" fill="url(#linearGradient-1)" points="252 0 0 0 0 32 279 32"></polygon>
            <polygon id="路径" fill="url(#linearGradient-2)" opacity="0.302" points="253.13219 0.134990042 279.289771 31.5596718 429 31.0527092 429 302 0 302 0 0"></polygon>
            <path d="M0.5,0.500268707 L252.896823,0.635873617 L279.055172,32.2518021 L428.5,31.7427062 L428.5,301.503 L0.5,301.503 L0.5,0.500268707 Z" id="路径" stroke="url(#linearGradient-3)"></path>
            <polygon id="路径" fill="url(#linearGradient-4)" opacity="0.302" points="0 0 252.544 0 279.544 32 0 32"></polygon>
            <path d="M24.275,7.635 L29.784,7.635 C32.067,7.635 33.917,9.466 33.917,11.725 L25.644,23.901 C24.566,24.843 22.419,26.729 20.142,26.7240099 L14.632,26.7240099 C12.35,26.7240099 10.5,24.892 10.5,22.633 L18.765,10.362 C20.853,8.295 21.448,7.635 24.275,7.635 Z" id="路径" fill="#00D4E8"></path>
            <path d="M31.162,4.908 L36.672,4.908 C38.954,4.908 40.804,6.739 40.804,8.998 L32.531,21.174 C31.453,22.116 29.306,24.002 27.03,23.9970099 L21.52,23.9970099 C19.238,23.9970099 17.387,22.165 17.387,19.906 L25.652,7.635 C27.741,5.568 28.335,4.908 31.162,4.908 Z" id="路径" fill="#2845FB" opacity="0.502"></path>
            <polyline id="路径" stroke="url(#linearGradient-5)" points="382.5 26.5 297.5 26.5 283.5 10.5"></polyline>
            <polyline id="路径" stroke="url(#linearGradient-6)" opacity="0.4" points="386.709 19.479 301.01 19.479 288.5 4.5"></polyline>
            <polygon id="路径" fill="#1050D3" opacity="0.2" points="419.237 12.479 414.422 12.479 422.043 23.099 426.858 23.099"></polygon>
            <polygon id="路径" fill="#2563E1" opacity="0.502" points="409.002 12.479 404.187 12.479 411.807 23.099 416.622 23.099"></polygon>
            <polygon id="路径" fill="#4680F5" points="398.767 12.479 393.952 12.479 401.572 23.099 406.387 23.099"></polygon>
            <path d="M226.277,11.756 L226.277,14.221 L223.439,14.221 L223.439,24.892 L220.842,24.892 L220.842,14.221 L217.96,14.221 C217.872,17.565 217.41,21.988 215.474,24.848 C214.989,24.452 213.911,23.792 213.295,23.55 C215.297,20.624 215.474,16.377 215.474,13.275 L215.474,6.784 C218.18,6.278 221.106,5.463 222.889,4.583 L225.089,6.652 C223.021,7.51 220.424,8.192 217.96,8.654 L217.96,11.756 L226.277,11.756 Z M211.579,12.196 C212.393,13.187 214.087,15.497 214.483,16.069 L212.965,18.137 C212.657,17.455 212.129,16.443 211.579,15.475 L211.579,24.892 L209.071,24.892 L209.071,16.355 C208.41,18.225 207.618,19.942 206.738,21.13 C206.496,20.382 205.902,19.347 205.506,18.687 C206.892,16.949 208.124,13.957 208.785,11.36 L206.1,11.36 L206.1,8.896 L209.071,8.896 L209.071,4.363 L211.579,4.363 L211.579,8.896 L214.571,8.896 L214.571,11.36 L211.579,11.36 L211.579,12.196 Z M200.999,13.495 L200.999,13.561 C200.779,20.052 200.515,22.648 199.744,23.55 C199.194,24.254 198.6,24.496 197.764,24.584 C196.972,24.694 195.74,24.694 194.42,24.65 C194.376,23.858 194.046,22.758 193.584,22.01 C194.772,22.12 195.938,22.12 196.466,22.12 C196.862,22.12 197.104,22.054 197.346,21.834 C197.808,21.328 198.028,19.457 198.226,14.991 L193.628,14.991 C193.055,19.149 191.603,22.89 185.948,24.98 C185.64,24.276 184.892,23.22 184.298,22.648 C189.205,21.064 190.371,18.159 190.833,14.991 L187.291,14.991 L187.291,13.693 C186.873,14.155 186.432,14.573 185.97,14.947 C185.486,14.397 184.386,13.341 183.748,12.879 C186.322,11.03 188.545,7.95 189.777,4.671 L192.593,5.441 C191.603,7.994 190.129,10.414 188.479,12.394 L200.074,12.394 C198.424,10.348 196.796,7.906 195.652,5.551 L198.116,4.627 C199.436,7.4 202.077,10.656 204.343,12.526 C203.683,13.033 202.715,14.045 202.231,14.749 C201.835,14.353 201.417,13.935 200.999,13.495 Z M175.06,20.382 C175.06,21.636 175.17,21.834 176.006,21.834 L178.25,21.834 C179.131,21.834 179.263,20.844 179.417,16.971 C180.077,17.455 181.243,18.005 181.969,18.181 C181.705,22.692 181.067,24.408 178.493,24.408 L175.61,24.408 C173.058,24.408 172.31,23.462 172.31,20.338 L172.31,4.583 L175.06,4.583 L175.06,12.306 C176.842,10.854 178.603,9.094 179.879,7.664 L182.013,10.04 C179.923,11.888 177.414,13.759 175.06,15.343 L175.06,20.382 Z M166.193,20.712 L170.923,19.127 C170.879,19.964 170.945,21.152 171.055,21.79 C165.181,23.902 164.146,24.408 163.53,24.914 C163.31,24.276 162.694,23.176 162.298,22.736 C162.76,22.384 163.398,21.702 163.398,20.668 L163.398,4.693 L166.193,4.693 L166.193,10.898 L171.187,10.898 L171.187,13.495 L166.193,13.495 L166.193,20.712 Z M151.102,14.309 L157.967,14.309 L157.967,24.782 L155.26,24.782 L155.26,23.748 L144.567,23.748 L144.567,24.848 L141.992,24.848 L141.992,14.309 L148.395,14.309 L148.395,4.385 L151.102,4.385 L151.102,8.038 L159.529,8.038 L159.529,10.502 L151.102,10.502 L151.102,14.309 Z M144.567,16.751 L144.567,21.284 L155.26,21.284 L155.26,16.751 L144.567,16.751 Z M135.307,22.164 C135.769,22.164 136.033,20.998 136.143,18.203 C136.737,18.819 137.705,19.479 138.431,19.744 C138.035,23.902 137.155,24.914 135.065,24.914 C131.302,24.914 129.652,18.401 129.124,10.656 L118.188,10.656 L118.188,8.104 L128.992,8.104 C128.948,6.916 128.926,5.684 128.926,4.473 L131.742,4.473 C131.72,5.684 131.72,6.916 131.764,8.104 L135.241,8.104 C134.647,7.356 133.546,6.454 132.666,5.794 L134.405,4.363 C135.395,5.045 136.693,6.08 137.287,6.806 L135.791,8.104 L137.859,8.104 L137.859,10.656 L131.896,10.656 C132.358,17.081 133.7,22.164 135.307,22.164 Z M104.461,13.099 L113.901,13.099 C113.901,13.099 113.879,13.891 113.813,14.243 C113.417,20.206 112.955,22.648 112.052,23.594 C111.392,24.32 110.688,24.518 109.698,24.628 C108.84,24.716 107.388,24.694 105.892,24.628 C105.848,23.88 105.474,22.78 104.967,22.054 C106.464,22.208 108.004,22.23 108.664,22.23 C109.148,22.23 109.434,22.186 109.742,21.944 C110.314,21.46 110.71,19.568 111.018,15.629 L104.087,15.629 C103.339,19.303 101.711,22.736 97.75,25.024 C97.354,24.298 96.54,23.396 95.836,22.846 C101.117,20.052 101.535,15.101 101.755,10.458 L96.21,10.458 L96.21,7.884 L105.496,7.884 C105.143,7.026 104.615,5.926 104.175,5.045 L106.75,4.077 C107.344,5.067 108.004,6.388 108.334,7.224 L106.816,7.884 L115.837,7.884 L115.837,10.458 L104.681,10.458 C104.615,11.338 104.571,12.218 104.461,13.099 Z M88.908,22.142 C88.908,23.462 88.688,24.144 87.742,24.54 C86.818,24.892 85.52,24.936 83.76,24.914 C83.672,24.166 83.363,23.154 83.033,22.406 C84.134,22.472 85.432,22.472 85.784,22.472 C86.158,22.45 86.268,22.362 86.268,22.076 L86.268,19.391 L80.679,19.391 L80.679,16.949 L86.268,16.949 L86.268,15.409 C86.95,14.991 87.676,14.397 88.358,13.781 L82.395,13.781 L82.395,11.426 L90.757,11.426 L91.307,11.272 L92.957,12.615 C91.835,13.803 90.361,15.101 88.908,16.113 L88.908,16.949 L94.123,16.949 L94.123,19.391 L88.908,19.391 L88.908,22.142 Z M79.403,14.221 L79.403,24.87 L76.763,24.87 L76.763,17.191 C76.102,17.785 75.442,18.313 74.694,18.819 C74.43,18.137 73.858,16.971 73.462,16.311 C75.838,14.749 77.753,12.35 79.095,9.71 L74.254,9.71 L74.254,7.202 L80.217,7.202 C80.569,6.234 80.877,5.287 81.119,4.341 L83.848,5.001 C83.628,5.75 83.363,6.454 83.099,7.202 L93.793,7.202 L93.793,9.71 L82.065,9.71 C81.317,11.294 80.437,12.813 79.403,14.221 Z M70.759,24.87 C69.967,24.034 69.285,23 68.713,21.812 C68.052,23.066 67.194,24.1 66.182,24.914 C65.896,24.452 65.302,23.836 64.796,23.374 C64.708,23.704 64.598,23.902 64.466,24.056 C64.114,24.452 63.74,24.606 63.234,24.65 C62.838,24.716 62.156,24.716 61.408,24.694 C61.385,24.166 61.209,23.462 60.967,22.978 C61.496,23.044 61.914,23.066 62.134,23.066 C62.376,23.066 62.508,23.022 62.662,22.846 C62.882,22.604 63.036,21.834 63.146,20.074 L61.804,20.074 C61.385,22.12 60.571,23.77 58.811,24.936 C58.569,24.408 57.953,23.682 57.469,23.33 C59.493,22.01 59.889,19.876 60.021,17.169 L58.569,17.169 L58.569,15.145 L61.055,15.145 C60.879,14.727 60.703,14.265 60.527,13.913 L62.508,13.495 L58.657,13.495 L58.657,10.172 L58.657,6.146 L60.725,6.146 C60.813,5.507 60.901,4.869 60.945,4.363 L63.388,4.517 C63.234,5.067 63.058,5.639 62.904,6.146 L65.324,6.146 L65.324,12.262 C66.226,10.106 66.666,7.268 66.908,4.363 L69.087,4.649 C68.933,5.992 68.757,7.312 68.515,8.61 L72.255,8.61 L72.255,10.942 L71.485,10.942 C71.221,13.913 70.759,16.707 69.923,19.127 C70.605,20.646 71.441,21.922 72.497,22.868 C71.947,23.308 71.111,24.21 70.759,24.87 Z M63.234,7.928 L60.681,7.928 L60.681,8.984 L63.234,8.984 L63.234,7.928 Z M63.234,10.634 L60.681,10.634 L60.681,11.69 L63.234,11.69 L63.234,10.634 Z M64.488,13.847 C64.554,13.737 64.642,13.605 64.708,13.495 L62.728,13.495 C62.992,14.001 63.278,14.617 63.454,15.145 L65.72,15.145 C65.346,14.683 64.818,14.133 64.488,13.847 Z M66.666,14.551 C66.468,14.903 66.292,15.255 66.072,15.585 C65.984,15.475 65.874,15.321 65.742,15.167 L65.742,17.169 L62.156,17.169 C62.134,17.543 62.112,17.873 62.068,18.225 L65.412,18.225 C65.412,18.225 65.39,18.731 65.346,18.995 C65.236,20.778 65.104,21.966 64.95,22.78 C66.116,21.834 67.018,20.58 67.678,19.039 C67.282,17.653 66.93,16.135 66.666,14.551 Z M67.964,10.942 C67.942,11.074 67.898,11.206 67.876,11.338 C68.096,12.857 68.383,14.353 68.757,15.783 C69.109,14.287 69.351,12.659 69.527,10.942 L67.964,10.942 Z M57.953,15.409 C57.931,16.025 57.975,16.927 58.041,17.433 C53.706,18.621 52.936,18.929 52.474,19.237 C52.386,18.797 52.012,17.741 51.748,17.169 C52.254,17.059 52.65,16.553 53.222,15.739 C53.486,15.365 54.036,14.529 54.609,13.451 C53.09,13.649 52.606,13.781 52.32,13.935 C52.188,13.451 51.814,12.328 51.528,11.69 C51.946,11.58 52.298,11.074 52.672,10.37 C53.068,9.688 54.3,6.894 54.873,4.341 L57.161,5.375 C56.501,7.4 55.489,9.6 54.432,11.382 L55.709,11.294 C56.061,10.546 56.391,9.798 56.677,9.028 L58.657,10.172 C57.777,12.152 56.655,14.221 55.445,16.025 L57.953,15.409 Z M58.283,21.394 C56.237,22.23 54.08,23.11 52.298,23.858 L51.748,21.46 C53.288,20.998 55.577,20.162 57.843,19.325 L58.283,21.394 Z M122.347,15.695 L119.024,15.695 L119.024,13.165 L128.464,13.165 L128.464,15.695 L124.943,15.695 L124.943,20.536 C126.285,20.294 127.694,20.03 129.036,19.766 L129.234,22.098 C125.625,22.89 121.753,23.704 118.914,24.298 L118.188,21.658 C119.31,21.482 120.763,21.262 122.347,20.998 L122.347,15.695 Z" id="形状" fill="url(#linearGradient-7)" fill-rule="nonzero"></path>
        </g>
    </g>
</svg>