<?xml version="1.0" encoding="UTF-8"?>
<svg width="477px" height="261px" viewBox="0 0 477 261" version="1.1" xmlns="http://www.w3.org/2000/svg" xmlns:xlink="http://www.w3.org/1999/xlink">
    <title>jc_kuang_zuo2</title>
    <defs>
        <linearGradient x1="0%" y1="0%" x2="100%" y2="0%" id="linearGradient-1">
            <stop stop-color="#030E6A" stop-opacity="0.8" offset="0%"></stop>
            <stop stop-color="#030E6A" stop-opacity="0" offset="100%"></stop>
        </linearGradient>
        <linearGradient x1="50%" y1="0%" x2="50%" y2="100%" id="linearGradient-2">
            <stop stop-color="#031270" offset="0%"></stop>
            <stop stop-color="#031270" stop-opacity="0.584380463" offset="40.8134834%"></stop>
            <stop stop-color="#031270" offset="100%"></stop>
        </linearGradient>
        <linearGradient x1="19.6284089%" y1="35.0299157%" x2="28.9870627%" y2="64.9700843%" id="linearGradient-3">
            <stop stop-color="#2845FB" offset="0%"></stop>
            <stop stop-color="#2845FB" stop-opacity="0.0366586538" offset="22.8845276%"></stop>
            <stop stop-color="#2845FB" offset="50.2340994%"></stop>
            <stop stop-color="#2845FB" stop-opacity="0" offset="100%"></stop>
        </linearGradient>
        <linearGradient x1="100%" y1="72.4361727%" x2="0%" y2="72.4361727%" id="linearGradient-4">
            <stop stop-color="#0A54FF" stop-opacity="0" offset="0%"></stop>
            <stop stop-color="#0A54FF" offset="100%"></stop>
        </linearGradient>
        <linearGradient x1="0%" y1="0%" x2="100%" y2="0%" id="linearGradient-5">
            <stop stop-color="#4BAAE4" stop-opacity="0" offset="0%"></stop>
            <stop stop-color="#4BAAE4" offset="12.7349213%"></stop>
            <stop stop-color="#005174" stop-opacity="0" offset="100%"></stop>
        </linearGradient>
        <linearGradient x1="0%" y1="0%" x2="100%" y2="0%" id="linearGradient-6">
            <stop stop-color="#4BAAE4" stop-opacity="0" offset="0%"></stop>
            <stop stop-color="#4BAAE4" offset="12.7349213%"></stop>
            <stop stop-color="#005174" stop-opacity="0" offset="100%"></stop>
        </linearGradient>
        <linearGradient x1="0%" y1="-1.11022302e-14%" x2="99.939%" y2="3.49%" id="linearGradient-7">
            <stop stop-color="#00C0FF" offset="0%"></stop>
            <stop stop-color="#43F0FF" offset="49%"></stop>
            <stop stop-color="#00C0FF" offset="100%"></stop>
        </linearGradient>
    </defs>
    <g id="页面-1" stroke="none" stroke-width="1" fill="none" fill-rule="evenodd">
        <g id="jc_kuang_zuo2">
            <polygon id="路径" fill="url(#linearGradient-1)" points="252 0 0 0 0 32 279 32"></polygon>
            <polygon id="路径" fill="url(#linearGradient-2)" opacity="0.302" points="253.13219 0.134990042 279.289771 31.5596718 477 31.0527092 477 261 0 261 0 0"></polygon>
            <path d="M0.5,0.500268707 L252.896823,0.635873617 L279.05501,32.2516072 L476.5,31.7422914 L476.5,260.503 L0.5,260.503 L0.5,0.500268707 Z" id="路径" stroke="url(#linearGradient-3)"></path>
            <polygon id="路径" fill="url(#linearGradient-4)" opacity="0.302" points="0 0 252.544 0 279.544 32 0 32"></polygon>
            <path d="M24.275,7.635 L29.784,7.635 C32.067,7.635 33.917,9.466 33.917,11.725 L25.644,23.901 C24.566,24.843 22.419,26.729 20.142,26.7240099 L14.632,26.7240099 C12.35,26.7240099 10.5,24.892 10.5,22.633 L18.765,10.362 C20.853,8.295 21.448,7.635 24.275,7.635 Z" id="路径" fill="#00D4E8"></path>
            <path d="M31.162,4.908 L36.672,4.908 C38.954,4.908 40.804,6.739 40.804,8.998 L32.531,21.174 C31.453,22.116 29.306,24.002 27.03,23.9970099 L21.52,23.9970099 C19.238,23.9970099 17.387,22.165 17.387,19.906 L25.652,7.635 C27.741,5.568 28.335,4.908 31.162,4.908 Z" id="路径" fill="#2845FB" opacity="0.502"></path>
            <polyline id="路径" stroke="url(#linearGradient-5)" points="430.5 26.5 297.5 26.5 283.5 10.5"></polyline>
            <polyline id="路径" stroke="url(#linearGradient-6)" opacity="0.4" points="434.709 19.479 301.01 19.479 288.5 4.5"></polyline>
            <polygon id="路径" fill="#1050D3" opacity="0.2" points="467.237 12.479 462.422 12.479 470.043 23.099 474.858 23.099"></polygon>
            <polygon id="路径" fill="#2563E1" opacity="0.502" points="457.002 12.479 452.187 12.479 459.807 23.099 464.622 23.099"></polygon>
            <polygon id="路径" fill="#4680F5" points="446.767 12.479 441.952 12.479 449.572 23.099 454.387 23.099"></polygon>
            <path d="M184.277,12.756 L184.277,15.221 L181.439,15.221 L181.439,25.892 L178.842,25.892 L178.842,15.221 L175.96,15.221 C175.872,18.565 175.41,22.988 173.474,25.848 C172.989,25.452 171.911,24.792 171.295,24.55 C173.297,21.624 173.474,17.377 173.474,14.275 L173.474,7.784 C176.18,7.278 179.106,6.463 180.889,5.583 L183.089,7.652 C181.021,8.51 178.424,9.192 175.96,9.654 L175.96,12.756 L184.277,12.756 Z M169.579,13.196 C170.393,14.187 172.087,16.497 172.483,17.069 L170.965,19.137 C170.657,18.455 170.129,17.443 169.579,16.475 L169.579,25.892 L167.071,25.892 L167.071,17.355 C166.41,19.225 165.618,20.942 164.738,22.13 C164.496,21.382 163.902,20.347 163.506,19.687 C164.892,17.949 166.124,14.957 166.785,12.36 L164.1,12.36 L164.1,9.896 L167.071,9.896 L167.071,5.363 L169.579,5.363 L169.579,9.896 L172.571,9.896 L172.571,12.36 L169.579,12.36 L169.579,13.196 Z M158.999,14.495 L158.999,14.561 C158.779,21.052 158.515,23.648 157.744,24.55 C157.194,25.254 156.6,25.496 155.764,25.584 C154.972,25.694 153.74,25.694 152.42,25.65 C152.376,24.858 152.046,23.758 151.584,23.01 C152.772,23.12 153.938,23.12 154.466,23.12 C154.862,23.12 155.104,23.054 155.346,22.834 C155.808,22.328 156.028,20.457 156.226,15.991 L151.628,15.991 C151.055,20.149 149.603,23.89 143.948,25.98 C143.64,25.276 142.892,24.22 142.298,23.648 C147.205,22.064 148.371,19.159 148.833,15.991 L145.291,15.991 L145.291,14.693 C144.873,15.155 144.432,15.573 143.97,15.947 C143.486,15.397 142.386,14.341 141.748,13.879 C144.322,12.03 146.545,8.95 147.777,5.671 L150.593,6.441 C149.603,8.994 148.129,11.414 146.479,13.394 L158.074,13.394 C156.424,11.348 154.796,8.906 153.652,6.551 L156.116,5.627 C157.436,8.4 160.077,11.656 162.343,13.526 C161.683,14.033 160.715,15.045 160.231,15.749 C159.835,15.353 159.417,14.935 158.999,14.495 Z M138.847,25.738 C137.329,24.792 136.118,23.538 135.128,21.998 C133.874,23.67 132.29,24.99 130.244,26.024 C130.002,25.496 129.319,24.396 128.857,23.89 C131.08,22.9 132.708,21.514 133.83,19.687 C133.192,18.301 132.708,16.761 132.268,15.089 C131.916,15.793 131.52,16.453 131.102,17.047 C130.75,16.607 129.76,15.749 129.231,15.375 C130.992,13.086 131.96,9.368 132.466,5.429 L134.842,5.781 C134.666,7.014 134.446,8.246 134.182,9.412 L140.035,9.412 L140.035,11.832 L138.649,11.832 C138.231,14.913 137.571,17.487 136.537,19.643 C137.549,21.382 138.891,22.768 140.541,23.67 C139.969,24.132 139.199,25.078 138.847,25.738 Z M133.808,11.832 C134.138,13.592 134.578,15.287 135.15,16.849 C135.656,15.353 136.008,13.703 136.228,11.832 L133.808,11.832 Z M130.134,12.866 L128.769,14.693 C128.285,14.231 127.427,13.504 126.591,12.844 L126.591,15.243 L124.171,15.243 L124.171,13.262 C123.159,14.275 121.992,15.199 120.892,15.793 C120.606,15.221 120.034,14.363 119.55,13.879 C120.848,13.35 122.234,12.382 123.269,11.304 L120.012,11.304 L120.012,9.236 L121.728,9.236 C121.552,8.488 121.046,7.366 120.562,6.507 L122.41,5.737 C123.005,6.551 123.555,7.696 123.731,8.444 L121.948,9.236 L124.171,9.236 L124.171,5.363 L126.591,5.363 L126.591,9.236 L130.75,9.236 L130.75,11.304 L127.537,11.304 C128.527,11.876 129.76,12.602 130.134,12.866 Z M126.899,8.422 C127.405,7.652 127.999,6.463 128.351,5.649 L130.552,6.507 C129.826,7.498 129.143,8.488 128.571,9.17 L126.899,8.422 Z M116.759,22.416 C115.571,21.866 114.383,21.052 113.304,20.105 L113.304,21.734 L109.3,21.734 L109.3,23.164 L116.473,23.164 L116.473,25.32 L99.728,25.32 L99.728,23.164 L106.637,23.164 L106.637,21.734 L102.743,21.734 L102.743,20.369 C101.665,21.272 100.477,22.064 99.244,22.614 C98.87,21.998 98.122,21.074 97.572,20.612 C99.178,20.017 100.807,19.005 102.017,17.839 L97.77,17.839 L97.77,15.705 L101.973,15.705 L101.973,9.148 L98.936,9.148 L98.936,7.036 L101.973,7.036 L101.973,5.385 L104.591,5.385 L104.591,7.036 L111.478,7.036 L111.478,5.385 L114.162,5.385 L114.162,7.036 L117.177,7.036 L117.177,9.148 L114.162,9.148 L114.162,15.705 L118.233,15.705 L118.233,17.839 L114.206,17.839 C115.373,18.895 116.913,19.841 118.497,20.391 C117.925,20.854 117.133,21.778 116.759,22.416 Z M111.478,9.148 L104.591,9.148 L104.591,10.116 L111.478,10.116 L111.478,9.148 Z M111.478,11.92 L104.591,11.92 L104.591,12.888 L111.478,12.888 L111.478,11.92 Z M111.478,14.715 L104.591,14.715 L104.591,15.705 L111.478,15.705 L111.478,14.715 Z M111.236,17.839 L105.031,17.839 C104.591,18.477 104.041,19.093 103.469,19.665 L106.637,19.665 L106.637,18.301 L109.3,18.301 L109.3,19.665 L112.82,19.665 C112.226,19.093 111.698,18.477 111.236,17.839 Z M90.908,23.142 C90.908,24.462 90.688,25.144 89.742,25.54 C88.818,25.892 87.52,25.936 85.76,25.914 C85.672,25.166 85.363,24.154 85.033,23.406 C86.134,23.472 87.432,23.472 87.784,23.472 C88.158,23.45 88.268,23.362 88.268,23.076 L88.268,20.391 L82.679,20.391 L82.679,17.949 L88.268,17.949 L88.268,16.409 C88.95,15.991 89.676,15.397 90.358,14.781 L84.395,14.781 L84.395,12.426 L92.757,12.426 L93.307,12.272 L94.957,13.615 C93.835,14.803 92.361,16.101 90.908,17.113 L90.908,17.949 L96.123,17.949 L96.123,20.391 L90.908,20.391 L90.908,23.142 Z M81.403,15.221 L81.403,25.87 L78.763,25.87 L78.763,18.191 C78.102,18.785 77.442,19.313 76.694,19.819 C76.43,19.137 75.858,17.971 75.462,17.311 C77.838,15.749 79.753,13.35 81.095,10.71 L76.254,10.71 L76.254,8.202 L82.217,8.202 C82.569,7.234 82.877,6.287 83.119,5.341 L85.848,6.001 C85.628,6.75 85.363,7.454 85.099,8.202 L95.793,8.202 L95.793,10.71 L84.065,10.71 C83.317,12.294 82.437,13.813 81.403,15.221 Z M72.759,25.87 C71.967,25.034 71.285,24 70.713,22.812 C70.052,24.066 69.194,25.1 68.182,25.914 C67.896,25.452 67.302,24.836 66.796,24.374 C66.708,24.704 66.598,24.902 66.466,25.056 C66.114,25.452 65.74,25.606 65.234,25.65 C64.838,25.716 64.156,25.716 63.408,25.694 C63.385,25.166 63.209,24.462 62.967,23.978 C63.496,24.044 63.914,24.066 64.134,24.066 C64.376,24.066 64.508,24.022 64.662,23.846 C64.882,23.604 65.036,22.834 65.146,21.074 L63.804,21.074 C63.385,23.12 62.571,24.77 60.811,25.936 C60.569,25.408 59.953,24.682 59.469,24.33 C61.493,23.01 61.889,20.876 62.021,18.169 L60.569,18.169 L60.569,16.145 L63.055,16.145 C62.879,15.727 62.703,15.265 62.527,14.913 L64.508,14.495 L60.657,14.495 L60.657,11.172 L60.657,7.146 L62.725,7.146 C62.813,6.507 62.901,5.869 62.945,5.363 L65.388,5.517 C65.234,6.067 65.058,6.639 64.904,7.146 L67.324,7.146 L67.324,13.262 C68.226,11.106 68.666,8.268 68.908,5.363 L71.087,5.649 C70.933,6.992 70.757,8.312 70.515,9.61 L74.255,9.61 L74.255,11.942 L73.485,11.942 C73.221,14.913 72.759,17.707 71.923,20.127 C72.605,21.646 73.441,22.922 74.497,23.868 C73.947,24.308 73.111,25.21 72.759,25.87 Z M65.234,8.928 L62.681,8.928 L62.681,9.984 L65.234,9.984 L65.234,8.928 Z M65.234,11.634 L62.681,11.634 L62.681,12.69 L65.234,12.69 L65.234,11.634 Z M66.488,14.847 C66.554,14.737 66.642,14.605 66.708,14.495 L64.728,14.495 C64.992,15.001 65.278,15.617 65.454,16.145 L67.72,16.145 C67.346,15.683 66.818,15.133 66.488,14.847 Z M68.666,15.551 C68.468,15.903 68.292,16.255 68.072,16.585 C67.984,16.475 67.874,16.321 67.742,16.167 L67.742,18.169 L64.156,18.169 C64.134,18.543 64.112,18.873 64.068,19.225 L67.412,19.225 C67.412,19.225 67.39,19.731 67.346,19.995 C67.236,21.778 67.104,22.966 66.95,23.78 C68.116,22.834 69.018,21.58 69.678,20.039 C69.282,18.653 68.93,17.135 68.666,15.551 Z M69.964,11.942 C69.942,12.074 69.898,12.206 69.876,12.338 C70.096,13.857 70.383,15.353 70.757,16.783 C71.109,15.287 71.351,13.659 71.527,11.942 L69.964,11.942 Z M59.953,16.409 C59.931,17.025 59.975,17.927 60.041,18.433 C55.706,19.621 54.936,19.929 54.474,20.237 C54.386,19.797 54.012,18.741 53.748,18.169 C54.254,18.059 54.65,17.553 55.222,16.739 C55.486,16.365 56.036,15.529 56.609,14.451 C55.09,14.649 54.606,14.781 54.32,14.935 C54.188,14.451 53.814,13.328 53.528,12.69 C53.946,12.58 54.298,12.074 54.672,11.37 C55.068,10.688 56.3,7.894 56.873,5.341 L59.161,6.375 C58.501,8.4 57.489,10.6 56.432,12.382 L57.709,12.294 C58.061,11.546 58.391,10.798 58.677,10.028 L60.657,11.172 C59.777,13.152 58.655,15.221 57.445,17.025 L59.953,16.409 Z M60.283,22.394 C58.237,23.23 56.08,24.11 54.298,24.858 L53.748,22.46 C55.288,21.998 57.577,21.162 59.843,20.325 L60.283,22.394 Z M120.826,20.744 C121.222,20.171 121.64,19.489 122.08,18.741 L120.408,18.741 L120.408,16.629 L123.159,16.629 C123.357,16.189 123.533,15.771 123.687,15.353 L125.997,15.771 C125.887,16.057 125.755,16.343 125.623,16.629 L128.417,16.629 L128.813,16.563 L130.222,17.091 C129.694,19.027 128.813,20.612 127.691,21.888 C128.285,22.218 128.813,22.548 129.253,22.856 L127.713,24.528 C127.273,24.198 126.701,23.802 126.041,23.406 C124.567,24.528 122.807,25.32 120.826,25.87 C120.584,25.276 120.078,24.352 119.638,23.912 C121.222,23.56 122.697,22.988 123.951,22.218 C122.917,21.668 121.816,21.162 120.826,20.744 Z M127.273,18.741 L124.611,18.741 C124.391,19.159 124.171,19.555 123.951,19.907 C124.545,20.193 125.161,20.501 125.733,20.81 C126.349,20.193 126.877,19.511 127.273,18.741 Z" id="形状" fill="url(#linearGradient-7)" fill-rule="nonzero"></path>
        </g>
    </g>
</svg>