<?xml version="1.0" encoding="UTF-8"?>
<svg width="16px" height="16px" viewBox="0 0 16 16" version="1.1" xmlns="http://www.w3.org/2000/svg" xmlns:xlink="http://www.w3.org/1999/xlink">
    <title>icon_grhx_zuo2</title>
    <g id="画像" stroke="none" stroke-width="1" fill="none" fill-rule="evenodd">
        <g id="个人画像-邢台" transform="translate(-26.000000, -560.000000)">
            <g id="第三块" transform="translate(10.000000, 546.000000)">
                <g id="icon_grhx_zuo2" transform="translate(16.000000, 14.000000)">
                    <rect id="矩形" fill-rule="nonzero" x="0" y="0" width="16" height="16"></rect>
                    <path d="M4,4.25 C4,3.0073625 5.02335238,2 6.28571429,2 L9.71428571,2 C10.9766476,2 12,3.0073625 12,4.25 L12,5 L4,5 L4,4.25 Z" id="路径" stroke="#BACEDF" stroke-linecap="round" stroke-linejoin="round"></path>
                    <path d="M1,8 L7.830215,9.62623333 C7.94169,9.6528 8.05831,9.6528 8.169785,9.62623333 L15,8 L15,12.3333333 C15,12.7015333 14.68661,13 14.3,13 L1.7,13 C1.3134005,13 1,12.7015333 1,12.3333333 L1,8 Z" id="路径" stroke="#BACEDF" stroke-linecap="round" stroke-linejoin="round"></path>
                    <path d="M15,9 L15,5.72727273 C15,5.3256 14.68661,5 14.3,5 L1.7,5 C1.3134005,5 1,5.3256 1,5.72727273 L1,9" id="路径" stroke="#BACEDF" stroke-linecap="round" stroke-linejoin="round"></path>
                    <path d="M9,7 C9,7.55228 8.55228,8 8,8 C7.44772,8 7,7.55228 7,7 C7,6.44772 7.44772,6 8,6 C8.55228,6 9,6.44772 9,7 Z" id="路径" fill="#BACEDF" fill-rule="nonzero"></path>
                </g>
            </g>
        </g>
    </g>
</svg>