<?xml version="1.0" encoding="UTF-8"?>
<svg width="16px" height="16px" viewBox="0 0 16 16" version="1.1" xmlns="http://www.w3.org/2000/svg" xmlns:xlink="http://www.w3.org/1999/xlink">
    <title>icon_grhx_zuo1</title>
    <g id="画像" stroke="none" stroke-width="1" fill="none" fill-rule="evenodd">
        <g id="个人画像-邢台" transform="translate(-26.000000, -297.000000)">
            <g id="第四块" transform="translate(10.000000, 282.000000)">
                <g id="icon_grhx_zuo1" transform="translate(16.000000, 15.000000)">
                    <rect id="矩形" fill-opacity="0.01" fill="#FFFFFF" fill-rule="nonzero" x="0" y="0" width="16" height="16"></rect>
                    <path d="M8,14.9333333 C11.829176,14.9333333 14.9333333,11.829176 14.9333333,8 C14.9333333,4.170824 11.829176,1.06666667 8,1.06666667 C4.170824,1.06666667 1.06666667,4.170824 1.06666667,8 C1.06666667,11.829176 4.170824,14.9333333 8,14.9333333 Z" id="路径" stroke="#BACEDF" stroke-linejoin="round"></path>
                    <path d="M7.33333333,6.33335594 L8.66666667,6.33335594 C9.21895142,6.33335594 9.66666667,6.78107119 9.66666667,7.33335594 L9.66666667,8.66668927 C9.66666667,9.21897402 9.21895142,9.66668927 8.66666667,9.66668927 L7.33333333,9.66668927 C6.78104858,9.66668927 6.33333333,9.21897402 6.33333333,8.66668927 L6.33333333,7.33335594 C6.33333333,6.78107119 6.78104858,6.33335594 7.33333333,6.33335594 Z" id="矩形" stroke="#BACEDF" stroke-linejoin="round" transform="translate(8.000000, 8.000023) rotate(45.000000) translate(-8.000000, -8.000023) "></path>
                </g>
            </g>
        </g>
    </g>
</svg>