<?xml version="1.0" encoding="UTF-8"?>
<svg width="16px" height="16px" viewBox="0 0 16 16" version="1.1" xmlns="http://www.w3.org/2000/svg" xmlns:xlink="http://www.w3.org/1999/xlink">
    <title>icon_grhx_you1</title>
    <g id="画像" stroke="none" stroke-width="1" fill="none" fill-rule="evenodd">
        <g id="个人画像-邢台" transform="translate(-760.000000, -55.000000)" fill-rule="nonzero">
            <g id="第二块" transform="translate(744.000000, 40.000000)">
                <g id="icon_grhx_you1" transform="translate(16.000000, 15.000000)">
                    <rect id="矩形" x="0" y="0" width="16" height="16"></rect>
                    <path d="M2,3.25188128 L8.00288067,1.5 L14,3.25188128 L14,6.84455993 C14,10.6207278 11.5834074,13.9731411 8.00087483,15.1668345 L8.00087483,15.1668345 C4.41735973,13.9731619 2,10.6199934 2,6.84289997 L2,3.25188128 Z" id="路径" stroke="#BACEDF" stroke-linejoin="round"></path>
                    <path d="M6.4296875,10.7939453 L6.4296875,6.63964844 C6.6015625,6.20019531 6.75585938,5.73339844 6.89257812,5.23925781 L6.89257812,5.23925781 L6.10742188,5.00488281 C5.83789062,6.10644531 5.49804688,7.01074219 5.08789062,7.71777344 C5.17382812,8.08105469 5.23828125,8.45214844 5.28125,8.83105469 C5.42382812,8.62597656 5.56054688,8.41113281 5.69140625,8.18652344 L5.69140625,8.18652344 L5.69140625,10.7939453 L6.4296875,10.7939453 Z M9.13671875,10.7939453 L9.13671875,9.11523438 C9.44726562,9.65429688 9.88671875,10.1025391 10.4550781,10.4599609 C10.5683594,10.2646484 10.7226562,10.0107422 10.9179688,9.69824219 C10.2851562,9.41113281 9.81347656,9.05761719 9.50292969,8.63769531 L9.50292969,8.63769531 L10.8476562,8.63769531 L10.8476562,7.96972656 L9.13671875,7.96972656 L9.13671875,7.44238281 L10.4609375,7.44238281 L10.4609375,5.25097656 L7.02734375,5.25097656 L7.02734375,7.44238281 L8.3046875,7.44238281 L8.3046875,7.96972656 L6.64648438,7.96972656 L6.64648438,8.63769531 L7.87402344,8.63769531 C7.47558594,9.12597656 7.01171875,9.52246094 6.48242188,9.82714844 C6.65429688,10.0654297 6.80273438,10.2998047 6.92773438,10.5302734 C7.45703125,10.1611328 7.91601562,9.70214844 8.3046875,9.15332031 L8.3046875,9.15332031 L8.3046875,10.7939453 L9.13671875,10.7939453 Z M9.68164062,6.74511719 L7.80664062,6.74511719 L7.80664062,5.94824219 L9.68164062,5.94824219 L9.68164062,6.74511719 Z" id="保" fill="#BACEDF"></path>
                </g>
            </g>
        </g>
    </g>
</svg>