<?xml version="1.0" encoding="UTF-8"?>
<svg width="477px" height="302px" viewBox="0 0 477 302" version="1.1" xmlns="http://www.w3.org/2000/svg" xmlns:xlink="http://www.w3.org/1999/xlink">
    <title>fk_kuang_you3</title>
    <defs>
        <linearGradient x1="0%" y1="0%" x2="100%" y2="0%" id="linearGradient-1">
            <stop stop-color="#030E6A" stop-opacity="0.8" offset="0%"></stop>
            <stop stop-color="#030E6A" stop-opacity="0" offset="100%"></stop>
        </linearGradient>
        <linearGradient x1="50%" y1="0%" x2="50%" y2="100%" id="linearGradient-2">
            <stop stop-color="#031270" offset="0%"></stop>
            <stop stop-color="#031270" stop-opacity="0.584380463" offset="40.8134834%"></stop>
            <stop stop-color="#031270" offset="100%"></stop>
        </linearGradient>
        <linearGradient x1="19.6284089%" y1="29.9573215%" x2="28.9870627%" y2="70.0426785%" id="linearGradient-3">
            <stop stop-color="#2845FB" offset="0%"></stop>
            <stop stop-color="#2845FB" stop-opacity="0.0366586538" offset="22.8845276%"></stop>
            <stop stop-color="#2845FB" offset="50.2340994%"></stop>
            <stop stop-color="#2845FB" stop-opacity="0" offset="100%"></stop>
        </linearGradient>
        <linearGradient x1="100%" y1="72.4361727%" x2="0%" y2="72.4361727%" id="linearGradient-4">
            <stop stop-color="#0A54FF" stop-opacity="0" offset="0%"></stop>
            <stop stop-color="#0A54FF" offset="100%"></stop>
        </linearGradient>
        <linearGradient x1="0%" y1="0%" x2="100%" y2="0%" id="linearGradient-5">
            <stop stop-color="#4BAAE4" stop-opacity="0" offset="0%"></stop>
            <stop stop-color="#4BAAE4" offset="12.7349213%"></stop>
            <stop stop-color="#005174" stop-opacity="0" offset="100%"></stop>
        </linearGradient>
        <linearGradient x1="0%" y1="0%" x2="100%" y2="0%" id="linearGradient-6">
            <stop stop-color="#4BAAE4" stop-opacity="0" offset="0%"></stop>
            <stop stop-color="#4BAAE4" offset="12.7349213%"></stop>
            <stop stop-color="#005174" stop-opacity="0" offset="100%"></stop>
        </linearGradient>
        <linearGradient x1="0%" y1="5.55111512e-15%" x2="99.939%" y2="3.49%" id="linearGradient-7">
            <stop stop-color="#00C0FF" offset="0%"></stop>
            <stop stop-color="#43F0FF" offset="49%"></stop>
            <stop stop-color="#00C0FF" offset="100%"></stop>
        </linearGradient>
    </defs>
    <g id="页面-1" stroke="none" stroke-width="1" fill="none" fill-rule="evenodd">
        <g id="fk_kuang_you3">
            <polygon id="路径" fill="url(#linearGradient-1)" points="252 0 0 0 0 32 279 32"></polygon>
            <polygon id="路径" fill="url(#linearGradient-2)" opacity="0.302" points="253.13219 0.134990042 279.289771 31.5596718 477 31.0527092 477 302 0 302 0 0"></polygon>
            <path d="M0.5,0.500268707 L252.896823,0.635873617 L279.05501,32.2516072 L476.5,31.7422914 L476.5,301.503 L0.5,301.503 L0.5,0.500268707 Z" id="路径" stroke="url(#linearGradient-3)"></path>
            <polygon id="路径" fill="url(#linearGradient-4)" opacity="0.302" points="0 0 252.544 0 279.544 32 0 32"></polygon>
            <path d="M24.275,7.635 L29.784,7.635 C32.067,7.635 33.917,9.466 33.917,11.725 L25.644,23.901 C24.566,24.843 22.419,26.729 20.142,26.7240099 L14.632,26.7240099 C12.35,26.7240099 10.5,24.892 10.5,22.633 L18.765,10.362 C20.853,8.295 21.448,7.635 24.275,7.635 Z" id="路径" fill="#00D4E8"></path>
            <path d="M31.162,4.908 L36.672,4.908 C38.954,4.908 40.804,6.739 40.804,8.998 L32.531,21.174 C31.453,22.116 29.306,24.002 27.03,23.9970099 L21.52,23.9970099 C19.238,23.9970099 17.387,22.165 17.387,19.906 L25.652,7.635 C27.741,5.568 28.335,4.908 31.162,4.908 Z" id="路径" fill="#2845FB" opacity="0.502"></path>
            <polyline id="路径" stroke="url(#linearGradient-5)" points="430.5 26.5 297.5 26.5 283.5 10.5"></polyline>
            <polyline id="路径" stroke="url(#linearGradient-6)" opacity="0.4" points="434.709 19.479 301.01 19.479 288.5 4.5"></polyline>
            <polygon id="路径" fill="#1050D3" opacity="0.2" points="467.237 12.479 462.422 12.479 470.043 23.099 474.858 23.099"></polygon>
            <polygon id="路径" fill="#2563E1" opacity="0.502" points="457.002 12.479 452.187 12.479 459.807 23.099 464.622 23.099"></polygon>
            <polygon id="路径" fill="#4680F5" points="446.767 12.479 441.952 12.479 449.572 23.099 454.387 23.099"></polygon>
            <path d="M236.857,15.573 C238.705,16.079 240.113,17.443 240.113,19.577 C240.113,22.57 237.495,24.308 234.392,24.308 C231.818,24.308 230.08,23.34 228.936,22.042 L230.454,19.995 C231.422,20.942 232.61,21.668 234.084,21.668 C235.735,21.668 236.857,20.854 236.857,19.401 C236.857,17.795 235.911,16.805 232.368,16.805 L232.368,14.473 C235.361,14.473 236.329,13.438 236.329,11.986 C236.329,10.71 235.537,9.962 234.15,9.94 C232.984,9.962 232.038,10.512 231.07,11.392 L229.42,9.412 C230.828,8.18 232.39,7.41 234.304,7.41 C237.451,7.41 239.585,8.95 239.585,11.744 C239.585,13.504 238.595,14.781 236.857,15.463 L236.857,15.573 Z M221.127,18.213 L218.949,18.213 L218.949,24 L215.692,24 L215.692,7.718 L221.039,7.718 C224.647,7.718 227.42,8.972 227.42,12.822 C227.42,16.541 224.625,18.213 221.127,18.213 Z M220.797,10.292 L218.949,10.292 L218.949,15.639 L220.907,15.639 C223.151,15.639 224.229,14.693 224.229,12.822 C224.229,10.93 223.041,10.292 220.797,10.292 Z M205.221,24.308 C200.909,24.308 197.938,21.074 197.938,15.793 C197.938,10.49 200.909,7.41 205.221,7.41 C209.534,7.41 212.504,10.512 212.504,15.793 C212.504,21.074 209.534,24.308 205.221,24.308 Z M205.221,10.204 C202.801,10.204 201.261,12.294 201.261,15.793 C201.261,19.269 202.801,21.492 205.221,21.492 C207.642,21.492 209.182,19.269 209.182,15.793 C209.182,12.294 207.642,10.204 205.221,10.204 Z M191.493,24 L188.237,24 L188.237,10.424 L183.66,10.424 L183.66,7.718 L196.114,7.718 L196.114,10.424 L191.493,10.424 L191.493,24 Z M162.012,23.45 L170.703,23.45 L170.703,22.68 L163.97,22.68 L163.97,20.986 L170.703,20.986 L170.703,20.281 L164.432,20.281 L164.432,14.649 L179.637,14.649 L179.637,20.281 L173.212,20.281 L173.212,20.986 L179.945,20.986 L179.945,22.68 L173.212,22.68 L173.212,23.45 L182.013,23.45 L182.013,25.364 L162.012,25.364 L162.012,23.45 Z M170.703,16.057 L166.875,16.057 L166.875,16.827 L170.703,16.827 L170.703,16.057 Z M170.703,18.081 L166.875,18.081 L166.875,18.873 L170.703,18.873 L170.703,18.081 Z M173.212,18.873 L177.062,18.873 L177.062,18.081 L173.212,18.081 L173.212,18.873 Z M173.212,16.827 L177.062,16.827 L177.062,16.057 L173.212,16.057 L173.212,16.827 Z M162.056,12.118 L181.947,12.118 L181.947,14.011 L162.056,14.011 L162.056,12.118 Z M164.829,6.045 L179.109,6.045 L179.109,11.502 L164.829,11.502 L164.829,6.045 Z M167.337,10.16 L176.468,10.16 L176.468,9.368 L167.337,9.368 L167.337,10.16 Z M167.337,8.158 L176.468,8.158 L176.468,7.388 L167.337,7.388 L167.337,8.158 Z M158.847,25.738 C157.329,24.792 156.118,23.538 155.128,21.998 C153.874,23.67 152.29,24.99 150.244,26.024 C150.002,25.496 149.319,24.396 148.857,23.89 C151.08,22.9 152.708,21.514 153.83,19.687 C153.192,18.301 152.708,16.761 152.268,15.089 C151.916,15.793 151.52,16.453 151.102,17.047 C150.75,16.607 149.76,15.749 149.231,15.375 C150.992,13.086 151.96,9.368 152.466,5.429 L154.842,5.781 C154.666,7.014 154.446,8.246 154.182,9.412 L160.035,9.412 L160.035,11.832 L158.649,11.832 C158.231,14.913 157.571,17.487 156.537,19.643 C157.549,21.382 158.891,22.768 160.541,23.67 C159.969,24.132 159.199,25.078 158.847,25.738 Z M153.808,11.832 C154.138,13.592 154.578,15.287 155.15,16.849 C155.656,15.353 156.008,13.703 156.228,11.832 L153.808,11.832 Z M150.134,12.866 L148.769,14.693 C148.285,14.231 147.427,13.504 146.591,12.844 L146.591,15.243 L144.171,15.243 L144.171,13.262 C143.159,14.275 141.992,15.199 140.892,15.793 C140.606,15.221 140.034,14.363 139.55,13.879 C140.848,13.35 142.234,12.382 143.269,11.304 L140.012,11.304 L140.012,9.236 L141.728,9.236 C141.552,8.488 141.046,7.366 140.562,6.507 L142.41,5.737 C143.005,6.551 143.555,7.696 143.731,8.444 L141.948,9.236 L144.171,9.236 L144.171,5.363 L146.591,5.363 L146.591,9.236 L150.75,9.236 L150.75,11.304 L147.537,11.304 C148.527,11.876 149.76,12.602 150.134,12.866 Z M146.899,8.422 C147.405,7.652 147.999,6.463 148.351,5.649 L150.552,6.507 C149.826,7.498 149.143,8.488 148.571,9.17 L146.899,8.422 Z M132.996,21.03 L135.351,20.193 C136.407,21.58 137.683,23.494 138.233,24.792 L135.703,25.76 C135.241,24.506 134.052,22.504 132.996,21.03 Z M129.234,11.832 L135.659,11.832 L135.659,19.467 L120.41,19.467 L120.41,11.832 L126.571,11.832 L126.571,5.363 L129.234,5.363 L129.234,7.3 L137.111,7.3 L137.111,9.742 L129.234,9.742 L129.234,11.832 Z M122.897,14.253 L122.897,17.047 L132.996,17.047 L132.996,14.253 L122.897,14.253 Z M122.963,20.986 C122.325,22.746 121.269,24.66 120.102,25.826 L117.682,24.66 C118.76,23.692 119.816,21.954 120.432,20.369 L122.963,20.986 Z M113.571,23.56 C114.033,23.56 115.749,23.56 116.409,23.538 C116.123,24.044 115.837,25.056 115.749,25.65 L113.395,25.65 C110.974,25.65 108.95,25.056 107.542,22.658 C107.146,23.956 106.552,25.056 105.738,26.002 C105.363,25.628 104.329,24.858 103.779,24.594 C105.628,22.812 106.046,19.907 106.112,16.321 L108.4,16.409 C108.356,17.619 108.29,18.763 108.136,19.797 C108.51,20.832 108.95,21.58 109.478,22.13 L109.478,15.243 L105.43,15.243 L105.43,13.086 L111.568,13.086 C110.204,12.162 108.136,11.062 106.464,10.336 L107.982,8.774 C108.642,9.038 109.368,9.346 110.138,9.698 C110.82,9.236 111.524,8.642 112.118,8.026 L105.848,8.026 L105.848,6.001 L113.857,6.001 L114.319,5.869 L115.881,6.882 C114.979,8.268 113.659,9.698 112.25,10.798 C112.911,11.172 113.461,11.524 113.901,11.832 L112.779,13.086 L114.275,13.086 L114.627,13.02 L116.233,13.372 C115.859,14.847 115.353,16.497 114.825,17.531 L112.977,17.003 C113.175,16.541 113.351,15.903 113.527,15.243 L111.788,15.243 L111.788,18.169 L115.375,18.169 L115.375,20.325 L111.788,20.325 L111.788,23.384 C112.361,23.516 112.977,23.56 113.571,23.56 Z M100.171,10.842 L102.635,10.842 C103.317,10.842 103.449,10.622 103.537,9.082 C104.021,9.434 104.967,9.764 105.628,9.918 C105.363,12.338 104.703,12.976 102.877,12.976 L99.885,12.976 C97.42,12.976 96.848,12.316 96.848,10.16 L96.848,5.561 L99.181,5.561 L99.181,7.41 C100.721,7.014 102.261,6.485 103.273,5.979 L104.901,7.696 C103.229,8.4 101.117,8.972 99.181,9.368 L99.181,10.116 C99.181,10.776 99.335,10.842 100.171,10.842 Z M97.684,12.778 L99.929,13.262 C99.841,13.615 99.731,13.967 99.599,14.297 L104.725,14.297 L104.747,16.387 L102.151,16.387 L102.151,17.949 L102.151,17.971 L105.209,17.971 L105.209,20.127 L101.953,20.127 L101.931,20.171 C102.943,20.986 104.153,22.086 104.747,22.79 L103.141,24.506 C102.701,23.934 101.931,23.12 101.139,22.394 C100.457,23.67 99.269,24.924 97.354,25.958 C97.002,25.452 96.298,24.704 95.704,24.308 C98.102,23.142 99.115,21.58 99.533,20.127 L96.034,20.127 L96.034,17.971 L97.156,17.971 C96.716,17.575 96.034,17.091 95.594,16.827 C96.606,15.837 97.31,14.297 97.684,12.778 Z M99.819,17.971 L99.819,17.905 L99.819,16.387 L98.719,16.387 C98.388,16.981 98.036,17.509 97.662,17.971 L99.819,17.971 Z M89.986,17.047 L92.143,16.321 C93.133,18.543 94.101,21.338 94.387,23.164 L92.033,24.044 C91.791,22.218 90.911,19.313 89.986,17.047 Z M89.238,22.834 C89.238,24.132 89.04,24.858 88.226,25.298 C87.434,25.738 86.356,25.782 84.86,25.782 C84.794,25.012 84.464,23.868 84.112,23.098 C84.992,23.142 85.916,23.12 86.202,23.12 C86.488,23.12 86.576,23.054 86.576,22.768 L86.576,14.407 L82.285,14.407 L82.285,11.964 L94.145,11.964 L94.145,14.407 L89.238,14.407 L89.238,22.834 Z M83.275,6.728 L92.935,6.728 L92.935,9.17 L83.275,9.17 L83.275,6.728 Z M79.447,12.58 C80.129,13.284 81.955,15.529 82.351,16.057 L80.943,18.125 C80.635,17.465 80.041,16.453 79.447,15.507 L79.447,25.892 L76.851,25.892 L76.851,16.981 C76.256,18.763 75.552,20.413 74.76,21.558 C74.474,20.832 73.836,19.687 73.44,18.983 C74.65,17.421 75.772,14.561 76.344,12.118 L73.792,12.118 L73.792,9.698 L76.851,9.698 L76.851,5.363 L79.447,5.363 L79.447,9.698 L82.021,9.698 L82.021,12.118 L79.447,12.118 L79.447,12.58 Z M64.642,12.272 L68.471,12.272 C69.571,12.272 69.747,11.92 69.901,9.742 C70.451,10.138 71.551,10.556 72.277,10.688 C71.947,13.791 71.177,14.627 68.669,14.627 L64.4,14.627 C61.341,14.627 60.549,13.879 60.549,11.348 L60.549,5.385 L63.168,5.385 L63.168,8.268 C65.368,7.718 67.568,7.014 69.021,6.331 L70.957,8.224 C68.713,9.126 65.786,9.874 63.168,10.402 L63.168,11.326 C63.168,12.162 63.388,12.272 64.642,12.272 Z M71.199,25.826 L68.603,25.826 L68.603,24.968 L62.992,24.968 L62.992,25.914 L60.505,25.914 L60.505,15.881 L71.199,15.881 L71.199,25.826 Z M68.603,18.037 L62.992,18.037 L62.992,19.379 L68.603,19.379 L68.603,18.037 Z M68.603,21.426 L62.992,21.426 L62.992,22.878 L68.603,22.878 L68.603,21.426 Z M57.161,23.076 C57.161,24.374 56.941,24.99 56.193,25.408 C55.467,25.804 54.41,25.87 52.87,25.87 C52.804,25.21 52.452,24.154 52.144,23.472 C53.002,23.516 53.882,23.516 54.168,23.516 C54.477,23.494 54.587,23.406 54.587,23.098 L54.587,18.411 L52.144,19.027 L51.528,16.541 C52.408,16.343 53.464,16.101 54.587,15.837 L54.587,11.92 L51.858,11.92 L51.858,9.5 L54.587,9.5 L54.587,5.385 L57.161,5.385 L57.161,9.5 L59.405,9.5 L59.405,11.92 L57.161,11.92 L57.161,15.221 C57.931,15.023 58.701,14.825 59.449,14.627 L59.757,17.003 C58.899,17.245 58.041,17.487 57.161,17.729 L57.161,23.076 Z M85.586,16.937 C84.97,19.511 83.848,22.196 82.747,23.912 C82.263,23.538 81.251,22.856 80.679,22.57 C81.801,21.052 82.725,18.675 83.231,16.431 L85.586,16.937 Z M127.143,25.43 L124.481,25.76 C124.481,24.616 124.305,22.658 124.041,21.14 L126.527,20.898 C126.857,22.394 127.099,24.286 127.143,25.43 Z M132.6,24.99 L130.07,25.65 C129.828,24.506 129.168,22.614 128.53,21.162 L130.928,20.634 C131.61,22.02 132.336,23.846 132.6,24.99 Z M140.826,20.744 C141.222,20.171 141.64,19.489 142.08,18.741 L140.408,18.741 L140.408,16.629 L143.159,16.629 C143.357,16.189 143.533,15.771 143.687,15.353 L145.997,15.771 C145.887,16.057 145.755,16.343 145.623,16.629 L148.417,16.629 L148.813,16.563 L150.222,17.091 C149.694,19.027 148.813,20.612 147.691,21.888 C148.285,22.218 148.813,22.548 149.253,22.856 L147.713,24.528 C147.273,24.198 146.701,23.802 146.041,23.406 C144.567,24.528 142.807,25.32 140.826,25.87 C140.584,25.276 140.078,24.352 139.638,23.912 C141.222,23.56 142.697,22.988 143.951,22.218 C142.917,21.668 141.816,21.162 140.826,20.744 Z M147.273,18.741 L144.611,18.741 C144.391,19.159 144.171,19.555 143.951,19.907 C144.545,20.193 145.161,20.501 145.733,20.81 C146.349,20.193 146.877,19.511 147.273,18.741 Z" id="形状" fill="url(#linearGradient-7)" fill-rule="nonzero"></path>
        </g>
    </g>
</svg>