<?xml version="1.0" encoding="UTF-8"?>
<svg width="477px" height="387px" viewBox="0 0 477 387" version="1.1" xmlns="http://www.w3.org/2000/svg" xmlns:xlink="http://www.w3.org/1999/xlink">
    <title>fk_kuang_you2</title>
    <defs>
        <linearGradient x1="0%" y1="0%" x2="100%" y2="0%" id="linearGradient-1">
            <stop stop-color="#030E6A" stop-opacity="0.8" offset="0%"></stop>
            <stop stop-color="#030E6A" stop-opacity="0" offset="100%"></stop>
        </linearGradient>
        <linearGradient x1="50%" y1="0%" x2="50%" y2="100%" id="linearGradient-2">
            <stop stop-color="#031270" offset="0%"></stop>
            <stop stop-color="#031270" stop-opacity="0.584380463" offset="40.8134834%"></stop>
            <stop stop-color="#031270" offset="100%"></stop>
        </linearGradient>
        <linearGradient x1="19.6284089%" y1="17.0874214%" x2="28.9870627%" y2="82.9125786%" id="linearGradient-3">
            <stop stop-color="#2845FB" offset="0%"></stop>
            <stop stop-color="#2845FB" stop-opacity="0.0366586538" offset="22.8845276%"></stop>
            <stop stop-color="#2845FB" offset="50.2340994%"></stop>
            <stop stop-color="#2845FB" stop-opacity="0" offset="100%"></stop>
        </linearGradient>
        <linearGradient x1="100%" y1="72.4361727%" x2="0%" y2="72.4361727%" id="linearGradient-4">
            <stop stop-color="#0A54FF" stop-opacity="0" offset="0%"></stop>
            <stop stop-color="#0A54FF" offset="100%"></stop>
        </linearGradient>
        <linearGradient x1="0%" y1="0%" x2="100%" y2="0%" id="linearGradient-5">
            <stop stop-color="#4BAAE4" stop-opacity="0" offset="0%"></stop>
            <stop stop-color="#4BAAE4" offset="12.7349213%"></stop>
            <stop stop-color="#005174" stop-opacity="0" offset="100%"></stop>
        </linearGradient>
        <linearGradient x1="0%" y1="0%" x2="100%" y2="0%" id="linearGradient-6">
            <stop stop-color="#4BAAE4" stop-opacity="0" offset="0%"></stop>
            <stop stop-color="#4BAAE4" offset="12.7349213%"></stop>
            <stop stop-color="#005174" stop-opacity="0" offset="100%"></stop>
        </linearGradient>
        <linearGradient x1="0%" y1="5.55111512e-15%" x2="99.939%" y2="3.49%" id="linearGradient-7">
            <stop stop-color="#00C0FF" offset="0%"></stop>
            <stop stop-color="#43F0FF" offset="49%"></stop>
            <stop stop-color="#00C0FF" offset="100%"></stop>
        </linearGradient>
    </defs>
    <g id="页面-1" stroke="none" stroke-width="1" fill="none" fill-rule="evenodd">
        <g id="fk_kuang_you2">
            <polygon id="路径" fill="url(#linearGradient-1)" points="252 0 0 0 0 32 279 32"></polygon>
            <polygon id="路径" fill="url(#linearGradient-2)" opacity="0.302" points="253.13219 0.134990042 279.289771 31.5596718 477 31.0527092 477 387 0 387 0 0"></polygon>
            <path d="M0.5,0.500268707 L252.896823,0.635873617 L279.05501,32.2516072 L476.5,31.7422914 L476.5,386.503 L0.5,386.503 L0.5,0.500268707 Z" id="路径" stroke="url(#linearGradient-3)"></path>
            <polygon id="路径" fill="url(#linearGradient-4)" opacity="0.302" points="0 0 252.544 0 279.544 32 0 32"></polygon>
            <path d="M24.275,7.635 L29.784,7.635 C32.067,7.635 33.917,9.466 33.917,11.725 L25.644,23.901 C24.566,24.843 22.419,26.729 20.142,26.7240099 L14.632,26.7240099 C12.35,26.7240099 10.5,24.892 10.5,22.633 L18.765,10.362 C20.853,8.295 21.448,7.635 24.275,7.635 Z" id="路径" fill="#00D4E8"></path>
            <path d="M31.162,4.908 L36.672,4.908 C38.954,4.908 40.804,6.739 40.804,8.998 L32.531,21.174 C31.453,22.116 29.306,24.002 27.03,23.9970099 L21.52,23.9970099 C19.238,23.9970099 17.387,22.165 17.387,19.906 L25.652,7.635 C27.741,5.568 28.335,4.908 31.162,4.908 Z" id="路径" fill="#2845FB" opacity="0.502"></path>
            <polyline id="路径" stroke="url(#linearGradient-5)" points="430.5 26.5 297.5 26.5 283.5 10.5"></polyline>
            <polyline id="路径" stroke="url(#linearGradient-6)" opacity="0.4" points="434.709 19.479 301.01 19.479 288.5 4.5"></polyline>
            <polygon id="路径" fill="#1050D3" opacity="0.2" points="467.237 12.479 462.422 12.479 470.043 23.099 474.858 23.099"></polygon>
            <polygon id="路径" fill="#2563E1" opacity="0.502" points="457.002 12.479 452.187 12.479 459.807 23.099 464.622 23.099"></polygon>
            <polygon id="路径" fill="#4680F5" points="446.767 12.479 441.952 12.479 449.572 23.099 454.387 23.099"></polygon>
            <path d="M201.857,25.914 L199.15,25.914 L199.15,24.946 L190.899,24.946 L190.899,25.914 L188.281,25.914 L188.281,19.093 C187.203,19.467 186.124,19.753 185.024,20.017 C184.782,19.313 184.166,18.191 183.682,17.597 C186.19,17.113 188.699,16.299 190.943,15.199 C190.085,14.429 189.073,13.592 188.237,12.954 L190.261,11.458 C191.229,12.14 192.417,13.02 193.385,13.879 C195.168,12.756 196.708,11.414 197.874,9.896 L190.833,9.896 C189.447,11.084 187.819,12.206 185.904,13.174 C185.508,12.536 184.694,11.546 184.1,11.084 C187.687,9.522 190.107,7.322 191.449,5.253 L194.376,5.869 C193.98,6.419 193.584,6.97 193.143,7.52 L199.568,7.52 L200.008,7.388 L201.813,8.466 C200.294,11.634 197.786,14.143 194.75,16.057 L201.857,16.057 L201.857,25.914 Z M199.15,18.433 L190.899,18.433 L190.899,22.592 L199.15,22.592 L199.15,18.433 Z M178.999,25.914 L176.49,25.914 L176.49,5.605 L178.999,5.605 L178.999,8.84 L182.013,8.84 L182.013,11.128 L178.999,11.128 L178.999,13.504 L181.837,13.504 L181.837,15.771 L178.999,15.771 L178.999,18.191 L182.277,18.191 L182.277,20.546 L178.999,20.546 L178.999,25.914 Z M172.486,20.501 L169.163,20.501 L169.163,18.147 L172.486,18.147 L172.486,15.771 L169.713,15.771 L169.713,13.504 L172.486,13.504 L172.486,11.128 L169.647,11.128 L169.647,8.84 L172.486,8.84 L172.486,5.627 L174.994,5.627 L174.994,25.87 L172.486,25.87 L172.486,20.501 Z M168.921,14.759 L169.229,17.157 C168.481,17.355 167.733,17.575 166.963,17.773 L166.963,22.988 C166.963,24.22 166.743,24.836 166.039,25.232 C165.357,25.628 164.366,25.694 162.958,25.694 C162.87,25.034 162.54,24.022 162.232,23.362 C163.002,23.384 163.816,23.384 164.08,23.384 C164.366,23.384 164.454,23.296 164.454,23.01 L164.454,18.433 C163.618,18.653 162.826,18.873 162.078,19.049 L161.682,16.497 C162.474,16.343 163.42,16.123 164.454,15.881 L164.454,11.964 L161.968,11.964 L161.968,9.544 L164.454,9.544 L164.454,5.385 L166.963,5.385 L166.963,9.544 L168.943,9.544 L168.943,11.964 L166.963,11.964 L166.963,15.265 L168.921,14.759 Z M151.41,25.87 L148.615,25.87 L148.615,21.866 L140.012,21.866 L140.012,19.445 L148.615,19.445 L148.615,17.971 L151.41,17.971 L151.41,19.445 L160.035,19.445 L160.035,21.866 L151.41,21.866 L151.41,25.87 Z M143.819,13.857 C143.159,13.13 141.706,12.074 140.584,11.37 L142.3,9.984 C143.423,10.6 144.941,11.612 145.667,12.316 L143.819,13.857 Z M156.933,9.896 L159.111,11.15 C158.165,12.162 156.955,13.152 156.052,13.835 L154.116,12.624 C155.018,11.942 156.25,10.754 156.933,9.896 Z M157.967,18.367 C157.219,17.641 155.766,16.629 154.446,15.837 C154.82,16.453 155.128,17.091 155.304,17.619 L153.258,18.389 C153.17,18.081 153.016,17.707 152.84,17.311 C147.581,17.839 146.745,17.971 146.195,18.213 C146.085,17.795 145.755,16.695 145.491,16.123 C144.039,16.893 142.499,17.685 141.2,18.301 L139.946,16.211 C141.332,15.705 143.401,14.825 145.425,13.989 L145.909,15.903 L145.513,16.123 C146.063,16.013 146.613,15.617 147.383,15.001 C147.713,14.737 148.351,14.209 149.121,13.46 C147.427,13.592 146.943,13.703 146.613,13.835 C146.481,13.372 146.151,12.36 145.909,11.788 C146.239,11.7 146.591,11.436 146.921,11.04 C147.119,10.798 147.581,10.226 148.087,9.478 L140.584,9.478 L140.584,7.124 L148.769,7.124 C148.527,6.684 148.263,6.221 148.021,5.869 L150.684,5.253 C151.124,5.803 151.586,6.507 151.894,7.124 L159.727,7.124 L159.727,9.478 L150.64,9.478 C150.178,10.16 149.672,10.82 149.121,11.436 L151.124,11.37 C151.63,10.798 152.114,10.204 152.532,9.588 L154.534,10.776 C153.038,12.536 151.278,14.253 149.518,15.661 L151.828,15.485 C151.586,15.089 151.344,14.715 151.08,14.385 L152.994,13.703 C153.324,14.143 153.698,14.627 154.028,15.133 L155.48,13.989 C156.911,14.737 158.891,15.947 159.859,16.783 L157.967,18.367 Z M132.996,21.03 L135.351,20.193 C136.407,21.58 137.683,23.494 138.233,24.792 L135.703,25.76 C135.241,24.506 134.052,22.504 132.996,21.03 Z M129.234,11.832 L135.659,11.832 L135.659,19.467 L120.41,19.467 L120.41,11.832 L126.571,11.832 L126.571,5.363 L129.234,5.363 L129.234,7.3 L137.111,7.3 L137.111,9.742 L129.234,9.742 L129.234,11.832 Z M122.897,14.253 L122.897,17.047 L132.996,17.047 L132.996,14.253 L122.897,14.253 Z M122.963,20.986 C122.325,22.746 121.269,24.66 120.102,25.826 L117.682,24.66 C118.76,23.692 119.816,21.954 120.432,20.369 L122.963,20.986 Z M113.571,23.56 C114.033,23.56 115.749,23.56 116.409,23.538 C116.123,24.044 115.837,25.056 115.749,25.65 L113.395,25.65 C110.974,25.65 108.95,25.056 107.542,22.658 C107.146,23.956 106.552,25.056 105.738,26.002 C105.363,25.628 104.329,24.858 103.779,24.594 C105.628,22.812 106.046,19.907 106.112,16.321 L108.4,16.409 C108.356,17.619 108.29,18.763 108.136,19.797 C108.51,20.832 108.95,21.58 109.478,22.13 L109.478,15.243 L105.43,15.243 L105.43,13.086 L111.568,13.086 C110.204,12.162 108.136,11.062 106.464,10.336 L107.982,8.774 C108.642,9.038 109.368,9.346 110.138,9.698 C110.82,9.236 111.524,8.642 112.118,8.026 L105.848,8.026 L105.848,6.001 L113.857,6.001 L114.319,5.869 L115.881,6.882 C114.979,8.268 113.659,9.698 112.25,10.798 C112.911,11.172 113.461,11.524 113.901,11.832 L112.779,13.086 L114.275,13.086 L114.627,13.02 L116.233,13.372 C115.859,14.847 115.353,16.497 114.825,17.531 L112.977,17.003 C113.175,16.541 113.351,15.903 113.527,15.243 L111.788,15.243 L111.788,18.169 L115.375,18.169 L115.375,20.325 L111.788,20.325 L111.788,23.384 C112.361,23.516 112.977,23.56 113.571,23.56 Z M100.171,10.842 L102.635,10.842 C103.317,10.842 103.449,10.622 103.537,9.082 C104.021,9.434 104.967,9.764 105.628,9.918 C105.363,12.338 104.703,12.976 102.877,12.976 L99.885,12.976 C97.42,12.976 96.848,12.316 96.848,10.16 L96.848,5.561 L99.181,5.561 L99.181,7.41 C100.721,7.014 102.261,6.485 103.273,5.979 L104.901,7.696 C103.229,8.4 101.117,8.972 99.181,9.368 L99.181,10.116 C99.181,10.776 99.335,10.842 100.171,10.842 Z M97.684,12.778 L99.929,13.262 C99.841,13.615 99.731,13.967 99.599,14.297 L104.725,14.297 L104.747,16.387 L102.151,16.387 L102.151,17.949 L102.151,17.971 L105.209,17.971 L105.209,20.127 L101.953,20.127 L101.931,20.171 C102.943,20.986 104.153,22.086 104.747,22.79 L103.141,24.506 C102.701,23.934 101.931,23.12 101.139,22.394 C100.457,23.67 99.269,24.924 97.354,25.958 C97.002,25.452 96.298,24.704 95.704,24.308 C98.102,23.142 99.115,21.58 99.533,20.127 L96.034,20.127 L96.034,17.971 L97.156,17.971 C96.716,17.575 96.034,17.091 95.594,16.827 C96.606,15.837 97.31,14.297 97.684,12.778 Z M99.819,17.971 L99.819,17.905 L99.819,16.387 L98.719,16.387 C98.388,16.981 98.036,17.509 97.662,17.971 L99.819,17.971 Z M90.162,10.512 C88.622,12.206 86.488,13.526 84.068,14.539 L91.483,14.539 L91.483,25.826 L88.82,25.826 L88.82,25.1 L80.129,25.1 L80.129,25.936 L77.599,25.936 L77.599,16.497 C76.763,16.673 75.948,16.827 75.112,16.959 C74.782,16.365 74.012,15.243 73.506,14.693 C76.741,14.297 79.931,13.637 82.571,12.624 L82.571,5.385 L85.168,5.385 L85.168,11.37 C86.18,10.776 87.082,10.094 87.764,9.302 L90.008,10.314 C89.15,9.346 88.16,8.378 87.258,7.564 L89.326,6.309 C91.043,7.718 93.111,9.742 94.079,11.238 L91.791,12.668 C91.439,12.03 90.867,11.282 90.162,10.512 Z M80.129,23.164 L88.82,23.164 L88.82,22.086 L80.129,22.086 L80.129,23.164 Z M80.129,20.325 L88.82,20.325 L88.82,19.247 L80.129,19.247 L80.129,20.325 Z M80.129,16.497 L80.129,17.465 L88.82,17.465 L88.82,16.497 L80.129,16.497 Z M74.606,11.436 C76.124,10.27 77.533,8.378 78.325,6.529 L80.921,7.212 C79.931,9.39 78.347,11.59 76.851,12.954 C76.344,12.514 75.244,11.766 74.606,11.436 Z M70.891,15.353 C70.165,14.957 69.439,14.561 68.779,14.187 L68.779,15.595 L63.366,15.595 L63.366,18.125 L68.603,18.125 L68.603,20.413 L63.366,20.413 L63.366,23.054 L71.419,23.054 L71.419,25.408 L52.716,25.408 L52.716,23.054 L60.615,23.054 L60.615,20.413 L55.599,20.413 L55.599,18.125 L60.615,18.125 L60.615,15.595 L55.291,15.595 L55.291,14.121 C54.609,14.517 53.904,14.891 53.178,15.243 C52.826,14.561 52.056,13.681 51.396,13.064 C55.335,11.436 59.339,8.576 61.54,5.165 L63.872,6.243 C63.74,6.441 63.608,6.639 63.476,6.838 C66.094,9.632 69.131,11.568 72.651,13.108 C71.991,13.703 71.221,14.583 70.891,15.353 Z M61.98,8.708 C60.395,10.446 58.569,12.008 56.633,13.284 L67.37,13.284 C65.434,12.008 63.674,10.534 61.98,8.708 Z M127.143,25.43 L124.481,25.76 C124.481,24.616 124.305,22.658 124.041,21.14 L126.527,20.898 C126.857,22.394 127.099,24.286 127.143,25.43 Z M132.6,24.99 L130.07,25.65 C129.828,24.506 129.168,22.614 128.53,21.162 L130.928,20.634 C131.61,22.02 132.336,23.846 132.6,24.99 Z" id="形状" fill="url(#linearGradient-7)" fill-rule="nonzero"></path>
        </g>
    </g>
</svg>