<?xml version="1.0" encoding="UTF-8"?>
<svg width="477px" height="302px" viewBox="0 0 477 302" version="1.1" xmlns="http://www.w3.org/2000/svg" xmlns:xlink="http://www.w3.org/1999/xlink">
    <title>fk_kuang_zuo2</title>
    <defs>
        <linearGradient x1="0%" y1="0%" x2="100%" y2="0%" id="linearGradient-1">
            <stop stop-color="#030E6A" stop-opacity="0.8" offset="0%"></stop>
            <stop stop-color="#030E6A" stop-opacity="0" offset="100%"></stop>
        </linearGradient>
        <linearGradient x1="50%" y1="0%" x2="50%" y2="100%" id="linearGradient-2">
            <stop stop-color="#031270" offset="0%"></stop>
            <stop stop-color="#031270" stop-opacity="0.584380463" offset="40.8134834%"></stop>
            <stop stop-color="#031270" offset="100%"></stop>
        </linearGradient>
        <linearGradient x1="19.6284089%" y1="29.9573215%" x2="28.9870627%" y2="70.0426785%" id="linearGradient-3">
            <stop stop-color="#2845FB" offset="0%"></stop>
            <stop stop-color="#2845FB" stop-opacity="0.0366586538" offset="22.8845276%"></stop>
            <stop stop-color="#2845FB" offset="50.2340994%"></stop>
            <stop stop-color="#2845FB" stop-opacity="0" offset="100%"></stop>
        </linearGradient>
        <linearGradient x1="100%" y1="72.4361727%" x2="0%" y2="72.4361727%" id="linearGradient-4">
            <stop stop-color="#0A54FF" stop-opacity="0" offset="0%"></stop>
            <stop stop-color="#0A54FF" offset="100%"></stop>
        </linearGradient>
        <linearGradient x1="0%" y1="0%" x2="100%" y2="0%" id="linearGradient-5">
            <stop stop-color="#4BAAE4" stop-opacity="0" offset="0%"></stop>
            <stop stop-color="#4BAAE4" offset="12.7349213%"></stop>
            <stop stop-color="#005174" stop-opacity="0" offset="100%"></stop>
        </linearGradient>
        <linearGradient x1="0%" y1="0%" x2="100%" y2="0%" id="linearGradient-6">
            <stop stop-color="#4BAAE4" stop-opacity="0" offset="0%"></stop>
            <stop stop-color="#4BAAE4" offset="12.7349213%"></stop>
            <stop stop-color="#005174" stop-opacity="0" offset="100%"></stop>
        </linearGradient>
        <linearGradient x1="0%" y1="0%" x2="99.939%" y2="3.49%" id="linearGradient-7">
            <stop stop-color="#00C0FF" offset="0%"></stop>
            <stop stop-color="#43F0FF" offset="49%"></stop>
            <stop stop-color="#00C0FF" offset="100%"></stop>
        </linearGradient>
    </defs>
    <g id="页面-1" stroke="none" stroke-width="1" fill="none" fill-rule="evenodd">
        <g id="fk_kuang_zuo2">
            <polygon id="路径" fill="url(#linearGradient-1)" points="252 0 0 0 0 32 279 32"></polygon>
            <polygon id="路径" fill="url(#linearGradient-2)" opacity="0.302" points="253.13219 0.134990042 279.289771 31.5596718 477 31.0527092 477 302 0 302 0 0"></polygon>
            <path d="M0.5,0.500268707 L252.896823,0.635873617 L279.05501,32.2516072 L476.5,31.7422914 L476.5,301.503 L0.5,301.503 L0.5,0.500268707 Z" id="路径" stroke="url(#linearGradient-3)"></path>
            <polygon id="路径" fill="url(#linearGradient-4)" opacity="0.302" points="0 0 252.544 0 279.544 32 0 32"></polygon>
            <path d="M24.275,7.635 L29.784,7.635 C32.067,7.635 33.917,9.466 33.917,11.725 L25.644,23.901 C24.566,24.843 22.419,26.729 20.142,26.7240099 L14.632,26.7240099 C12.35,26.7240099 10.5,24.892 10.5,22.633 L18.765,10.362 C20.853,8.295 21.448,7.635 24.275,7.635 Z" id="路径" fill="#00D4E8"></path>
            <path d="M31.162,4.908 L36.672,4.908 C38.954,4.908 40.804,6.739 40.804,8.998 L32.531,21.174 C31.453,22.116 29.306,24.002 27.03,23.9970099 L21.52,23.9970099 C19.238,23.9970099 17.387,22.165 17.387,19.906 L25.652,7.635 C27.741,5.568 28.335,4.908 31.162,4.908 Z" id="路径" fill="#2845FB" opacity="0.502"></path>
            <polyline id="路径" stroke="url(#linearGradient-5)" points="430.5 26.5 297.5 26.5 283.5 10.5"></polyline>
            <polyline id="路径" stroke="url(#linearGradient-6)" opacity="0.4" points="434.709 19.479 301.01 19.479 288.5 4.5"></polyline>
            <polygon id="路径" fill="#1050D3" opacity="0.2" points="467.237 12.479 462.422 12.479 470.043 23.099 474.858 23.099"></polygon>
            <polygon id="路径" fill="#2563E1" opacity="0.502" points="457.002 12.479 452.187 12.479 459.807 23.099 464.622 23.099"></polygon>
            <polygon id="路径" fill="#4680F5" points="446.767 12.479 441.952 12.479 449.572 23.099 454.387 23.099"></polygon>
            <path d="M179.206,22.438 C179.206,23.186 179.25,23.296 179.647,23.296 L180.593,23.296 C181.011,23.296 181.099,22.834 181.165,20.193 C181.693,20.612 182.749,21.03 183.453,21.228 C183.233,24.638 182.595,25.65 180.857,25.65 L179.162,25.65 C177.072,25.65 176.588,24.836 176.588,22.438 L176.588,15.705 L174.718,15.705 C174.476,20.656 173.75,24 169.327,25.892 C169.019,25.232 168.337,24.264 167.787,23.78 C171.527,22.306 171.989,19.775 172.143,15.705 L170.053,15.705 L170.053,6.331 L181.847,6.331 L181.847,15.705 L179.206,15.705 L179.206,22.438 Z M179.052,8.752 L172.65,8.752 L172.65,13.284 L179.052,13.284 L179.052,8.752 Z M162.572,23.34 C163.76,21.602 165.41,18.741 166.753,16.079 L168.689,17.795 C167.523,20.215 166.159,22.812 164.838,25.034 L162.572,23.34 Z M162.88,7.476 L164.904,6.067 C166.159,7.432 167.853,9.368 168.623,10.622 L166.445,12.228 C165.763,10.952 164.178,8.928 162.88,7.476 Z M146.799,12.316 L152.63,12.316 L152.63,11.37 L148.075,11.37 L148.119,11.48 L146.403,12.316 C146.249,11.678 145.941,10.754 145.589,9.896 L145.589,25.892 L143.234,25.892 L143.234,5.363 L145.589,5.363 L145.589,8.884 L146.843,8.356 C147.305,9.302 147.811,10.534 148.075,11.348 L148.075,9.61 L152.63,9.61 L152.63,8.73 L147.481,8.73 L147.481,6.86 L152.63,6.86 L152.63,5.363 L155.226,5.363 L155.226,6.86 L160.551,6.86 L160.551,8.73 L155.226,8.73 L155.226,9.61 L159.957,9.61 L159.957,11.37 L155.226,11.37 L155.226,12.316 L161.211,12.316 L161.211,14.187 L146.799,14.187 L146.799,12.316 Z M140.44,15.441 C140.902,13.945 141.232,11.48 141.342,9.698 L143.19,9.94 C143.146,11.766 142.794,14.385 142.332,16.079 L140.44,15.441 Z M133.996,21.03 L136.351,20.193 C137.407,21.58 138.683,23.494 139.233,24.792 L136.703,25.76 C136.241,24.506 135.052,22.504 133.996,21.03 Z M130.234,11.832 L136.659,11.832 L136.659,19.467 L121.41,19.467 L121.41,11.832 L127.571,11.832 L127.571,5.363 L130.234,5.363 L130.234,7.3 L138.111,7.3 L138.111,9.742 L130.234,9.742 L130.234,11.832 Z M123.897,14.253 L123.897,17.047 L133.996,17.047 L133.996,14.253 L123.897,14.253 Z M123.963,20.986 C123.325,22.746 122.269,24.66 121.102,25.826 L118.682,24.66 C119.76,23.692 120.816,21.954 121.432,20.369 L123.963,20.986 Z M114.571,23.56 C115.033,23.56 116.749,23.56 117.409,23.538 C117.123,24.044 116.837,25.056 116.749,25.65 L114.395,25.65 C111.974,25.65 109.95,25.056 108.542,22.658 C108.146,23.956 107.552,25.056 106.738,26.002 C106.363,25.628 105.329,24.858 104.779,24.594 C106.628,22.812 107.046,19.907 107.112,16.321 L109.4,16.409 C109.356,17.619 109.29,18.763 109.136,19.797 C109.51,20.832 109.95,21.58 110.478,22.13 L110.478,15.243 L106.43,15.243 L106.43,13.086 L112.568,13.086 C111.204,12.162 109.136,11.062 107.464,10.336 L108.982,8.774 C109.642,9.038 110.368,9.346 111.138,9.698 C111.82,9.236 112.524,8.642 113.118,8.026 L106.848,8.026 L106.848,6.001 L114.857,6.001 L115.319,5.869 L116.881,6.882 C115.979,8.268 114.659,9.698 113.25,10.798 C113.911,11.172 114.461,11.524 114.901,11.832 L113.779,13.086 L115.275,13.086 L115.627,13.02 L117.233,13.372 C116.859,14.847 116.353,16.497 115.825,17.531 L113.977,17.003 C114.175,16.541 114.351,15.903 114.527,15.243 L112.788,15.243 L112.788,18.169 L116.375,18.169 L116.375,20.325 L112.788,20.325 L112.788,23.384 C113.361,23.516 113.977,23.56 114.571,23.56 Z M101.171,10.842 L103.635,10.842 C104.317,10.842 104.449,10.622 104.537,9.082 C105.021,9.434 105.967,9.764 106.628,9.918 C106.363,12.338 105.703,12.976 103.877,12.976 L100.885,12.976 C98.42,12.976 97.848,12.316 97.848,10.16 L97.848,5.561 L100.181,5.561 L100.181,7.41 C101.721,7.014 103.261,6.485 104.273,5.979 L105.901,7.696 C104.229,8.4 102.117,8.972 100.181,9.368 L100.181,10.116 C100.181,10.776 100.335,10.842 101.171,10.842 Z M98.684,12.778 L100.929,13.262 C100.841,13.615 100.731,13.967 100.599,14.297 L105.725,14.297 L105.747,16.387 L103.151,16.387 L103.151,17.949 L103.151,17.971 L106.209,17.971 L106.209,20.127 L102.953,20.127 L102.931,20.171 C103.943,20.986 105.153,22.086 105.747,22.79 L104.141,24.506 C103.701,23.934 102.931,23.12 102.139,22.394 C101.457,23.67 100.269,24.924 98.354,25.958 C98.002,25.452 97.298,24.704 96.704,24.308 C99.102,23.142 100.115,21.58 100.533,20.127 L97.034,20.127 L97.034,17.971 L98.156,17.971 C97.716,17.575 97.034,17.091 96.594,16.827 C97.606,15.837 98.31,14.297 98.684,12.778 Z M100.819,17.971 L100.819,17.905 L100.819,16.387 L99.719,16.387 C99.388,16.981 99.036,17.509 98.662,17.971 L100.819,17.971 Z M82.141,8.532 L84.76,8.532 C84.43,7.828 83.901,6.926 83.395,6.221 L85.64,5.319 C86.234,6.067 86.894,7.146 87.202,7.828 L85.706,8.532 L89.138,8.532 C89.71,7.586 90.392,6.287 90.744,5.297 L93.495,6.133 C92.923,6.97 92.329,7.806 91.779,8.532 L94.309,8.532 L94.309,16.145 L82.141,16.145 L82.141,8.532 Z M89.094,14.429 L92.109,14.429 L92.109,11.172 L92.109,10.226 L89.094,10.226 L89.094,14.429 Z M84.209,14.429 L87.202,14.429 L87.202,10.226 L84.209,10.226 L84.209,14.429 Z M84.385,11.062 L85.75,10.578 C86.344,11.524 86.894,12.756 87.048,13.615 L85.64,14.143 C85.486,13.328 84.958,12.03 84.385,11.062 Z M89.204,13.659 C89.666,12.822 90.216,11.524 90.502,10.622 L92.109,11.172 C91.515,12.206 90.92,13.372 90.414,14.121 L89.204,13.659 Z M81.327,18.367 L81.811,20.7 C79.677,21.58 77.388,22.504 75.518,23.274 L74.682,20.656 C75.364,20.457 76.156,20.193 77.058,19.885 L77.058,12.998 L75.056,12.998 L75.056,10.578 L77.058,10.578 L77.058,5.649 L79.479,5.649 L79.479,10.578 L81.415,10.578 L81.415,12.998 L79.479,12.998 L79.479,19.027 L81.327,18.367 Z M71.187,25.826 L68.634,25.826 L68.634,15.023 L66.478,15.023 L66.478,15.177 C66.478,18.411 66.192,22.9 64.3,25.65 C63.882,25.188 62.848,24.374 62.297,24.088 C62.716,23.472 63.046,22.746 63.266,21.976 L61.527,23.076 C61.175,22.174 60.427,20.788 59.811,19.775 L61.527,18.829 C62.187,19.819 62.914,21.118 63.288,21.932 C63.97,19.775 64.036,17.289 64.036,15.177 L64.036,7.454 C66.456,7.014 69.118,6.331 70.703,5.583 L72.727,7.498 C70.901,8.202 68.634,8.752 66.478,9.148 L66.478,12.602 L73.233,12.602 L73.233,15.023 L71.187,15.023 L71.187,25.826 Z M59.437,16.255 L63.068,16.255 L63.068,18.455 L59.437,18.455 L59.437,23.164 C59.437,24.22 59.261,24.77 58.601,25.144 C57.941,25.496 57.061,25.518 55.895,25.518 C55.807,24.902 55.499,24 55.19,23.384 C55.851,23.406 56.533,23.406 56.775,23.406 C57.017,23.406 57.083,23.34 57.083,23.098 L57.083,18.455 L53.034,18.455 L53.034,16.255 L57.083,16.255 L57.083,14.561 L52.902,14.561 L52.902,12.404 L55.058,12.404 C54.948,11.722 54.706,10.798 54.398,10.116 L56.203,9.676 L53.232,9.676 L53.232,7.542 L56.995,7.542 C56.797,6.948 56.555,6.331 56.335,5.803 L58.667,5.253 C58.997,5.957 59.371,6.816 59.613,7.542 L63.09,7.542 L63.09,9.676 L60.317,9.676 L62.121,10.028 C61.769,10.864 61.461,11.722 61.131,12.404 L63.42,12.404 L63.42,14.561 L59.437,14.561 L59.437,16.255 Z M59.745,9.676 L56.511,9.676 C56.885,10.424 57.171,11.458 57.259,12.118 L56.203,12.404 L58.799,12.404 C59.129,11.612 59.525,10.49 59.745,9.676 Z M56.555,19.555 C56.027,21.008 55.19,22.57 54.332,23.538 C53.936,23.208 53.122,22.592 52.638,22.306 C53.474,21.47 54.134,20.215 54.53,19.049 L56.555,19.555 Z M93.385,25.914 L90.92,25.914 L90.92,24.858 L85.552,24.858 L85.552,25.914 L83.175,25.914 L83.175,17.069 L93.385,17.069 L93.385,25.914 Z M90.92,18.961 L85.552,18.961 L85.552,20.149 L90.92,20.149 L90.92,18.961 Z M90.92,21.954 L85.552,21.954 L85.552,22.966 L90.92,22.966 L90.92,21.954 Z M128.143,25.43 L125.481,25.76 C125.481,24.616 125.305,22.658 125.041,21.14 L127.527,20.898 C127.857,22.394 128.099,24.286 128.143,25.43 Z M133.6,24.99 L131.07,25.65 C130.828,24.506 130.168,22.614 129.53,21.162 L131.928,20.634 C132.61,22.02 133.336,23.846 133.6,24.99 Z M159.737,23.406 C159.737,24.55 159.517,25.166 158.725,25.518 C157.955,25.892 156.854,25.892 155.336,25.892 C155.248,25.254 154.94,24.308 154.632,23.67 C155.534,23.736 156.568,23.714 156.854,23.714 C157.162,23.714 157.272,23.626 157.272,23.362 L157.272,22.636 L150.694,22.636 L150.694,25.936 L148.273,25.936 L148.273,15.023 L159.737,15.023 L159.737,23.406 Z M157.272,16.937 L150.694,16.937 L150.694,17.971 L157.272,17.971 L157.272,16.937 Z M157.272,19.819 L150.694,19.819 L150.694,20.832 L157.272,20.832 L157.272,19.819 Z" id="形状" fill="url(#linearGradient-7)" fill-rule="nonzero"></path>
        </g>
    </g>
</svg>