<?xml version="1.0" encoding="UTF-8"?>
<svg width="878px" height="302px" viewBox="0 0 878 302" version="1.1" xmlns="http://www.w3.org/2000/svg" xmlns:xlink="http://www.w3.org/1999/xlink">
    <title>fk_kuang_zhongxia</title>
    <defs>
        <linearGradient x1="0%" y1="0%" x2="100%" y2="0%" id="linearGradient-1">
            <stop stop-color="#030E6A" stop-opacity="0.8" offset="0%"></stop>
            <stop stop-color="#030E6A" stop-opacity="0" offset="100%"></stop>
        </linearGradient>
        <linearGradient x1="50%" y1="0%" x2="50%" y2="100%" id="linearGradient-2">
            <stop stop-color="#031270" offset="0%"></stop>
            <stop stop-color="#031270" stop-opacity="0.584380463" offset="40.8134834%"></stop>
            <stop stop-color="#031270" offset="100%"></stop>
        </linearGradient>
        <linearGradient x1="19.6284089%" y1="44.0843362%" x2="28.9870627%" y2="55.9156638%" id="linearGradient-3">
            <stop stop-color="#2845FB" offset="0%"></stop>
            <stop stop-color="#2845FB" stop-opacity="0.0366586538" offset="22.8845276%"></stop>
            <stop stop-color="#2845FB" offset="50.2340994%"></stop>
            <stop stop-color="#2845FB" stop-opacity="0" offset="100%"></stop>
        </linearGradient>
        <linearGradient x1="100%" y1="72.4361727%" x2="0%" y2="72.4361727%" id="linearGradient-4">
            <stop stop-color="#0A54FF" stop-opacity="0" offset="0%"></stop>
            <stop stop-color="#0A54FF" offset="100%"></stop>
        </linearGradient>
        <linearGradient x1="0%" y1="0%" x2="100%" y2="0%" id="linearGradient-5">
            <stop stop-color="#4BAAE4" stop-opacity="0" offset="0%"></stop>
            <stop stop-color="#4BAAE4" offset="12.7349213%"></stop>
            <stop stop-color="#005174" stop-opacity="0" offset="100%"></stop>
        </linearGradient>
        <linearGradient x1="0%" y1="0%" x2="100%" y2="0%" id="linearGradient-6">
            <stop stop-color="#4BAAE4" stop-opacity="0" offset="0%"></stop>
            <stop stop-color="#4BAAE4" offset="12.7349213%"></stop>
            <stop stop-color="#005174" stop-opacity="0" offset="100%"></stop>
        </linearGradient>
        <linearGradient x1="0%" y1="-1.11022302e-14%" x2="99.939%" y2="3.49%" id="linearGradient-7">
            <stop stop-color="#00C0FF" offset="0%"></stop>
            <stop stop-color="#43F0FF" offset="49%"></stop>
            <stop stop-color="#00C0FF" offset="100%"></stop>
        </linearGradient>
    </defs>
    <g id="页面-1" stroke="none" stroke-width="1" fill="none" fill-rule="evenodd">
        <g id="fk_kuang_zhongxia">
            <polygon id="路径" fill="url(#linearGradient-1)" points="252 0 0 0 0 32 279 32"></polygon>
            <polygon id="路径" fill="url(#linearGradient-2)" opacity="0.302" points="253.13219 0.134990042 279.289771 31.5596718 878 31.0527092 878 302 0 302 0 0"></polygon>
            <path d="M0.5,0.500268707 L252.896823,0.635873617 L279.054674,32.2512004 L877.5,31.7414261 L877.5,301.503 L0.5,301.503 L0.5,0.500268707 Z" id="路径" stroke="url(#linearGradient-3)"></path>
            <polygon id="路径" fill="url(#linearGradient-4)" opacity="0.302" points="-5.68434189e-14 0 252.544 0 279.544 32 -5.68434189e-14 32"></polygon>
            <path d="M24.275,7.635 L29.784,7.635 C32.067,7.635 33.917,9.466 33.917,11.725 L25.644,23.901 C24.566,24.843 22.419,26.729 20.142,26.7240099 L14.632,26.7240099 C12.35,26.7240099 10.5,24.892 10.5,22.633 L18.765,10.362 C20.853,8.295 21.448,7.635 24.275,7.635 Z" id="路径" fill="#00D4E8"></path>
            <path d="M31.162,4.908 L36.672,4.908 C38.954,4.908 40.804,6.739 40.804,8.998 L32.531,21.174 C31.453,22.116 29.306,24.002 27.03,23.9970099 L21.52,23.9970099 C19.238,23.9970099 17.387,22.165 17.387,19.906 L25.652,7.635 C27.741,5.568 28.335,4.908 31.162,4.908 Z" id="路径" fill="#2845FB" opacity="0.502"></path>
            <polyline id="路径" stroke="url(#linearGradient-5)" points="831.5 26.5 297.5 26.5 283.5 10.5"></polyline>
            <polyline id="路径" stroke="url(#linearGradient-6)" opacity="0.4" points="835.709 19.479 301.01 19.479 288.5 4.5"></polyline>
            <polygon id="路径" fill="#1050D3" opacity="0.2" points="868.237 12.479 863.422 12.479 871.043 23.099 875.858 23.099"></polygon>
            <polygon id="路径" fill="#2563E1" opacity="0.502" points="858.002 12.479 853.187 12.479 860.807 23.099 865.622 23.099"></polygon>
            <polygon id="路径" fill="#4680F5" points="847.767 12.479 842.952 12.479 850.572 23.099 855.387 23.099"></polygon>
            <path d="M244.206,23.438 C244.206,24.186 244.25,24.296 244.647,24.296 L245.593,24.296 C246.011,24.296 246.099,23.834 246.165,21.193 C246.693,21.612 247.749,22.03 248.453,22.228 C248.233,25.638 247.595,26.65 245.857,26.65 L244.162,26.65 C242.072,26.65 241.588,25.836 241.588,23.438 L241.588,16.705 L239.718,16.705 C239.476,21.656 238.75,25 234.327,26.892 C234.019,26.232 233.337,25.264 232.787,24.78 C236.527,23.306 236.989,20.775 237.143,16.705 L235.053,16.705 L235.053,7.331 L246.847,7.331 L246.847,16.705 L244.206,16.705 L244.206,23.438 Z M244.052,9.752 L237.65,9.752 L237.65,14.284 L244.052,14.284 L244.052,9.752 Z M227.572,24.34 C228.76,22.602 230.41,19.741 231.753,17.079 L233.689,18.795 C232.523,21.215 231.159,23.812 229.838,26.034 L227.572,24.34 Z M227.88,8.476 L229.904,7.067 C231.159,8.432 232.853,10.368 233.623,11.622 L231.445,13.228 C230.763,11.952 229.178,9.928 227.88,8.476 Z M211.799,13.316 L217.63,13.316 L217.63,12.37 L213.075,12.37 L213.119,12.48 L211.403,13.316 C211.249,12.678 210.941,11.754 210.589,10.896 L210.589,26.892 L208.234,26.892 L208.234,6.363 L210.589,6.363 L210.589,9.884 L211.843,9.356 C212.305,10.302 212.811,11.534 213.075,12.348 L213.075,10.61 L217.63,10.61 L217.63,9.73 L212.481,9.73 L212.481,7.86 L217.63,7.86 L217.63,6.363 L220.226,6.363 L220.226,7.86 L225.551,7.86 L225.551,9.73 L220.226,9.73 L220.226,10.61 L224.957,10.61 L224.957,12.37 L220.226,12.37 L220.226,13.316 L226.211,13.316 L226.211,15.187 L211.799,15.187 L211.799,13.316 Z M205.44,16.441 C205.902,14.945 206.232,12.48 206.342,10.698 L208.19,10.94 C208.146,12.766 207.794,15.385 207.332,17.079 L205.44,16.441 Z M202.759,26.782 C201.131,25.946 199.81,24.802 198.688,23.438 C197.434,24.89 195.872,26.078 193.914,27.002 C193.672,26.386 192.901,25.154 192.395,24.582 C194.398,23.746 195.938,22.58 197.148,21.105 C196.356,19.653 195.74,18.003 195.234,16.221 C194.882,16.815 194.508,17.365 194.112,17.849 C193.826,17.497 193.187,16.793 192.659,16.265 L192.659,16.573 L187.357,16.573 L187.357,22.228 L192.637,20.401 C192.637,21.193 192.791,22.294 192.923,22.866 C186.565,25.264 185.552,25.77 184.892,26.276 C184.76,25.55 184.32,24.208 183.902,23.57 C184.342,23.372 184.716,22.998 184.716,22.162 L184.716,13.998 L190.063,13.998 L190.063,10.302 L184.496,10.302 L184.496,7.728 L192.659,7.728 L192.659,15.275 C194.222,13.052 195.3,9.73 195.894,6.363 L198.468,6.825 C198.248,7.992 197.984,9.158 197.654,10.28 L204.079,10.28 L204.079,12.7 L203.089,12.7 C202.539,16.089 201.681,18.905 200.316,21.215 C201.439,22.624 202.825,23.79 204.541,24.538 C203.947,25.066 203.133,26.1 202.759,26.782 Z M200.361,12.7 L196.862,12.7 L196.818,12.81 C197.236,14.923 197.852,16.881 198.688,18.597 C199.48,16.925 200.03,14.967 200.361,12.7 Z M180.935,18.003 C179.439,17.497 178.162,16.771 177.128,15.869 C176.028,16.749 174.752,17.431 173.234,17.959 C173.014,17.475 172.244,16.529 171.782,16.089 C173.278,15.671 174.554,15.099 175.544,14.306 C175.06,13.69 174.62,13.052 174.246,12.392 C173.938,12.766 173.63,13.118 173.3,13.404 C173.036,13.052 172.442,12.392 171.958,11.908 L171.958,14.152 L169.867,14.152 C170.637,14.592 171.452,15.121 171.914,15.517 L170.835,16.969 C170.329,16.463 169.339,15.759 168.481,15.253 L168.481,17.497 L166.193,17.497 L166.193,15.759 C165.291,16.661 164.212,17.431 163.2,17.937 C162.87,17.431 162.21,16.661 161.726,16.287 C162.98,15.825 164.3,15.033 165.269,14.152 L162.694,14.152 L162.694,9.972 L166.193,9.972 L166.193,9.224 L162.188,9.224 L162.188,7.397 L166.193,7.397 L166.193,6.341 L168.481,6.341 L168.481,7.397 L172.288,7.397 L172.288,9.224 L168.481,9.224 L168.481,9.972 L171.958,9.972 L171.958,11.27 C173.212,10.06 174.18,8.278 174.686,6.385 L177.018,6.935 C176.842,7.507 176.644,8.058 176.446,8.608 L181.947,8.608 L181.947,10.698 L180.495,10.698 C180.077,12.106 179.461,13.294 178.691,14.284 C179.681,15.011 180.935,15.605 182.365,15.979 C181.881,16.441 181.221,17.409 180.935,18.003 Z M166.193,11.512 L164.719,11.512 L164.719,12.634 L166.193,12.634 L166.193,11.512 Z M168.481,14.879 L169.075,14.152 L168.481,14.152 L168.481,14.879 Z M169.823,11.512 L168.481,11.512 L168.481,12.634 L169.823,12.634 L169.823,11.512 Z M175.588,10.698 C175.94,11.424 176.402,12.106 177.018,12.788 C177.458,12.172 177.788,11.49 178.052,10.698 L175.588,10.698 Z M154.996,22.03 L157.351,21.193 C158.407,22.58 159.683,24.494 160.233,25.792 L157.703,26.76 C157.241,25.506 156.052,23.504 154.996,22.03 Z M151.234,12.832 L157.659,12.832 L157.659,20.467 L142.41,20.467 L142.41,12.832 L148.571,12.832 L148.571,6.363 L151.234,6.363 L151.234,8.3 L159.111,8.3 L159.111,10.742 L151.234,10.742 L151.234,12.832 Z M144.897,15.253 L144.897,18.047 L154.996,18.047 L154.996,15.253 L144.897,15.253 Z M144.963,21.986 C144.325,23.746 143.269,25.66 142.102,26.826 L139.682,25.66 C140.76,24.692 141.816,22.954 142.432,21.369 L144.963,21.986 Z M135.571,24.56 C136.033,24.56 137.749,24.56 138.409,24.538 C138.123,25.044 137.837,26.056 137.749,26.65 L135.395,26.65 C132.974,26.65 130.95,26.056 129.542,23.658 C129.146,24.956 128.552,26.056 127.738,27.002 C127.363,26.628 126.329,25.858 125.779,25.594 C127.628,23.812 128.046,20.907 128.112,17.321 L130.4,17.409 C130.356,18.619 130.29,19.763 130.136,20.797 C130.51,21.832 130.95,22.58 131.478,23.13 L131.478,16.243 L127.43,16.243 L127.43,14.086 L133.568,14.086 C132.204,13.162 130.136,12.062 128.464,11.336 L129.982,9.774 C130.642,10.038 131.368,10.346 132.138,10.698 C132.82,10.236 133.524,9.642 134.118,9.026 L127.848,9.026 L127.848,7.001 L135.857,7.001 L136.319,6.869 L137.881,7.882 C136.979,9.268 135.659,10.698 134.25,11.798 C134.911,12.172 135.461,12.524 135.901,12.832 L134.779,14.086 L136.275,14.086 L136.627,14.02 L138.233,14.372 C137.859,15.847 137.353,17.497 136.825,18.531 L134.977,18.003 C135.175,17.541 135.351,16.903 135.527,16.243 L133.788,16.243 L133.788,19.169 L137.375,19.169 L137.375,21.325 L133.788,21.325 L133.788,24.384 C134.361,24.516 134.977,24.56 135.571,24.56 Z M122.171,11.842 L124.635,11.842 C125.317,11.842 125.449,11.622 125.537,10.082 C126.021,10.434 126.967,10.764 127.628,10.918 C127.363,13.338 126.703,13.976 124.877,13.976 L121.885,13.976 C119.42,13.976 118.848,13.316 118.848,11.16 L118.848,6.561 L121.181,6.561 L121.181,8.41 C122.721,8.014 124.261,7.485 125.273,6.979 L126.901,8.696 C125.229,9.4 123.117,9.972 121.181,10.368 L121.181,11.116 C121.181,11.776 121.335,11.842 122.171,11.842 Z M119.684,13.778 L121.929,14.262 C121.841,14.615 121.731,14.967 121.599,15.297 L126.725,15.297 L126.747,17.387 L124.151,17.387 L124.151,18.949 L124.151,18.971 L127.209,18.971 L127.209,21.127 L123.953,21.127 L123.931,21.171 C124.943,21.986 126.153,23.086 126.747,23.79 L125.141,25.506 C124.701,24.934 123.931,24.12 123.139,23.394 C122.457,24.67 121.269,25.924 119.354,26.958 C119.002,26.452 118.298,25.704 117.704,25.308 C120.102,24.142 121.115,22.58 121.533,21.127 L118.034,21.127 L118.034,18.971 L119.156,18.971 C118.716,18.575 118.034,18.091 117.594,17.827 C118.606,16.837 119.31,15.297 119.684,13.778 Z M121.819,18.971 L121.819,18.905 L121.819,17.387 L120.719,17.387 C120.388,17.981 120.036,18.509 119.662,18.971 L121.819,18.971 Z M115.881,20.115 C115.881,21.7 115.529,22.778 114.715,23.35 C114.319,23.636 113.835,23.79 113.263,23.878 C112.779,23.944 112.14,23.966 111.568,23.922 C111.524,23.24 111.326,22.206 110.93,21.501 C111.414,21.546 111.854,21.546 112.162,21.546 C112.471,21.546 112.735,21.479 112.977,21.325 C113.351,21.105 113.483,20.555 113.483,19.807 C113.483,18.619 113.021,17.035 111.348,15.275 C111.964,13.668 112.647,11.424 113.153,9.752 L110.688,9.752 L110.688,26.826 L108.4,26.826 L108.4,7.397 L114.077,7.397 L114.451,7.309 L116.277,8.432 C115.529,10.544 114.627,13.074 113.791,14.967 C115.551,16.947 115.881,18.685 115.881,20.115 Z M95.968,14.659 L98.785,14.659 C98.565,13.756 98.146,12.502 97.684,11.578 L99.467,11.138 L96.518,11.138 L96.518,8.784 L100.677,8.784 C100.501,8.146 100.237,7.463 99.973,6.869 L102.371,6.187 C102.767,7.001 103.163,7.992 103.427,8.784 L107.146,8.784 L107.146,11.138 L104.571,11.138 L106.354,11.534 C105.892,12.59 105.452,13.734 105.011,14.659 L107.586,14.659 L107.586,17.035 L95.968,17.035 L95.968,14.659 Z M102.503,14.659 C102.965,13.624 103.449,12.216 103.735,11.138 L99.995,11.138 C100.523,12.128 100.985,13.426 101.205,14.284 L99.885,14.659 L102.503,14.659 Z M80.261,23.856 L86.334,23.856 L86.334,21.766 L81.779,21.766 L81.779,19.411 L86.334,19.411 L86.334,17.519 L81.933,17.519 L81.933,7.287 L93.419,7.287 L93.419,17.519 L88.996,17.519 L88.996,19.411 L93.661,19.411 L93.661,21.766 L88.996,21.766 L88.996,23.856 L94.409,23.856 L94.409,26.232 L80.261,26.232 L80.261,23.856 Z M86.554,9.51 L84.288,9.51 L84.288,11.336 L86.554,11.336 L86.554,9.51 Z M88.754,15.297 L90.933,15.297 L90.933,13.404 L88.754,13.404 L88.754,15.297 Z M88.754,11.336 L90.933,11.336 L90.933,9.51 L88.754,9.51 L88.754,11.336 Z M86.554,13.404 L84.288,13.404 L84.288,15.297 L86.554,15.297 L86.554,13.404 Z M80.899,20.049 L81.339,22.514 C78.919,23.372 76.278,24.208 74.166,24.89 L73.572,22.228 C74.342,22.03 75.244,21.788 76.256,21.501 L76.256,16.331 L74.034,16.331 L74.034,13.932 L76.256,13.932 L76.256,10.06 L73.836,10.06 L73.836,7.617 L81.097,7.617 L81.097,10.06 L78.743,10.06 L78.743,13.932 L80.723,13.932 L80.723,16.331 L78.743,16.331 L78.743,20.731 C79.469,20.511 80.195,20.291 80.899,20.049 Z M69.857,11.182 L67.656,12.172 C67.414,11.512 66.732,10.566 66.072,9.752 L65.17,9.752 C64.796,10.412 64.378,11.006 63.938,11.468 C63.454,11.138 62.376,10.61 61.782,10.346 C62.794,9.334 63.564,7.75 63.982,6.209 L66.512,6.671 C66.38,7.089 66.226,7.529 66.05,7.948 L71.903,7.948 L71.903,9.752 L68.867,9.752 C69.263,10.28 69.637,10.786 69.857,11.182 Z M60.087,11.292 L57.865,12.106 C57.667,11.49 57.117,10.566 56.611,9.752 L55.731,9.752 C55.181,10.742 54.565,11.6 53.948,12.282 C53.42,11.952 52.298,11.38 51.682,11.116 C52.914,9.928 53.992,8.058 54.565,6.209 L57.139,6.693 C56.985,7.089 56.831,7.507 56.633,7.926 L61.892,7.926 L61.892,9.752 L59.185,9.752 C59.581,10.324 59.911,10.874 60.087,11.292 Z M60.285,11.248 L62.618,10.786 C62.948,11.27 63.278,11.93 63.498,12.48 L71.463,12.48 L71.463,16.309 L68.779,16.309 L68.779,14.438 L55.203,14.438 L55.203,16.309 L52.672,16.309 L52.672,12.48 L60.857,12.48 C60.703,12.062 60.505,11.6 60.285,11.248 Z M68.713,20.247 L57.975,20.247 L57.975,21.259 L69.879,21.259 L69.879,26.936 L67.26,26.936 L67.26,26.342 L57.975,26.342 L57.975,26.936 L55.313,26.936 L55.313,15.341 L68.713,15.341 L68.713,20.247 Z M57.975,24.406 L67.26,24.406 L67.26,23.174 L57.975,23.174 L57.975,24.406 Z M66.16,17.233 L57.975,17.233 L57.975,18.377 L66.16,18.377 L66.16,17.233 Z M106.75,26.782 L104.175,26.782 L104.175,25.902 L99.467,25.902 L99.467,26.892 L96.98,26.892 L96.98,18.619 L106.75,18.619 L106.75,26.782 Z M104.175,20.951 L99.467,20.951 L99.467,23.636 L104.175,23.636 L104.175,20.951 Z M149.143,26.43 L146.481,26.76 C146.481,25.616 146.305,23.658 146.041,22.14 L148.527,21.898 C148.857,23.394 149.099,25.286 149.143,26.43 Z M154.6,25.99 L152.07,26.65 C151.828,25.506 151.168,23.614 150.53,22.162 L152.928,21.634 C153.61,23.02 154.336,24.846 154.6,25.99 Z M165.247,20.907 L167.755,20.907 L167.755,24.23 L170.659,24.23 L170.659,20.093 L163.31,20.093 L163.31,17.981 L180.671,17.981 L180.671,20.093 L173.234,20.093 L173.234,21.193 L178.911,21.193 L178.911,23.108 L173.234,23.108 L173.234,24.23 L182.035,24.23 L182.035,26.386 L161.99,26.386 L161.99,24.23 L165.247,24.23 L165.247,20.907 Z M224.737,24.406 C224.737,25.55 224.517,26.166 223.725,26.518 C222.955,26.892 221.854,26.892 220.336,26.892 C220.248,26.254 219.94,25.308 219.632,24.67 C220.534,24.736 221.568,24.714 221.854,24.714 C222.162,24.714 222.272,24.626 222.272,24.362 L222.272,23.636 L215.694,23.636 L215.694,26.936 L213.273,26.936 L213.273,16.023 L224.737,16.023 L224.737,24.406 Z M222.272,17.937 L215.694,17.937 L215.694,18.971 L222.272,18.971 L222.272,17.937 Z M222.272,20.819 L215.694,20.819 L215.694,21.832 L222.272,21.832 L222.272,20.819 Z" id="形状" fill="url(#linearGradient-7)" fill-rule="nonzero"></path>
        </g>
    </g>
</svg>