<?xml version="1.0" encoding="UTF-8"?>
<svg width="477px" height="332px" viewBox="0 0 477 332" version="1.1" xmlns="http://www.w3.org/2000/svg" xmlns:xlink="http://www.w3.org/1999/xlink">
    <title>fk_kuang_zuo1</title>
    <defs>
        <linearGradient x1="0%" y1="0%" x2="100%" y2="0%" id="linearGradient-1">
            <stop stop-color="#030E6A" stop-opacity="0.8" offset="0%"></stop>
            <stop stop-color="#030E6A" stop-opacity="0" offset="100%"></stop>
        </linearGradient>
        <linearGradient x1="50%" y1="0%" x2="50%" y2="100%" id="linearGradient-2">
            <stop stop-color="#031270" offset="0%"></stop>
            <stop stop-color="#031270" stop-opacity="0.584380463" offset="40.8134834%"></stop>
            <stop stop-color="#031270" offset="100%"></stop>
        </linearGradient>
        <linearGradient x1="19.6284089%" y1="25.7775949%" x2="28.9870627%" y2="74.2224051%" id="linearGradient-3">
            <stop stop-color="#2845FB" offset="0%"></stop>
            <stop stop-color="#2845FB" stop-opacity="0.0366586538" offset="22.8845276%"></stop>
            <stop stop-color="#2845FB" offset="50.2340994%"></stop>
            <stop stop-color="#2845FB" stop-opacity="0" offset="100%"></stop>
        </linearGradient>
        <linearGradient x1="100%" y1="72.4361727%" x2="0%" y2="72.4361727%" id="linearGradient-4">
            <stop stop-color="#0A54FF" stop-opacity="0" offset="0%"></stop>
            <stop stop-color="#0A54FF" offset="100%"></stop>
        </linearGradient>
        <linearGradient x1="0%" y1="0%" x2="100%" y2="0%" id="linearGradient-5">
            <stop stop-color="#4BAAE4" stop-opacity="0" offset="0%"></stop>
            <stop stop-color="#4BAAE4" offset="12.7349213%"></stop>
            <stop stop-color="#005174" stop-opacity="0" offset="100%"></stop>
        </linearGradient>
        <linearGradient x1="0%" y1="0%" x2="100%" y2="0%" id="linearGradient-6">
            <stop stop-color="#4BAAE4" stop-opacity="0" offset="0%"></stop>
            <stop stop-color="#4BAAE4" offset="12.7349213%"></stop>
            <stop stop-color="#005174" stop-opacity="0" offset="100%"></stop>
        </linearGradient>
        <linearGradient x1="0%" y1="1.11022302e-14%" x2="99.939%" y2="3.49%" id="linearGradient-7">
            <stop stop-color="#00C0FF" offset="0%"></stop>
            <stop stop-color="#43F0FF" offset="49%"></stop>
            <stop stop-color="#00C0FF" offset="100%"></stop>
        </linearGradient>
    </defs>
    <g id="页面-1" stroke="none" stroke-width="1" fill="none" fill-rule="evenodd">
        <g id="fk_kuang_zuo1">
            <polygon id="路径" fill="url(#linearGradient-1)" points="252 0 0 0 0 32 279 32"></polygon>
            <polygon id="路径" fill="url(#linearGradient-2)" opacity="0.302" points="253.13219 0.134990042 279.289771 31.5596718 477 31.0527092 477 332 0 332 0 0"></polygon>
            <path d="M0.5,0.500268707 L252.896823,0.635873617 L279.05501,32.2516072 L476.5,31.7422914 L476.5,331.503 L0.5,331.503 L0.5,0.500268707 Z" id="路径" stroke="url(#linearGradient-3)"></path>
            <polygon id="路径" fill="url(#linearGradient-4)" opacity="0.302" points="-5.68434189e-14 0 252.544 0 279.544 32 -5.68434189e-14 32"></polygon>
            <path d="M24.275,7.635 L29.784,7.635 C32.067,7.635 33.917,9.466 33.917,11.725 L25.644,23.901 C24.566,24.843 22.419,26.729 20.142,26.7240099 L14.632,26.7240099 C12.35,26.7240099 10.5,24.892 10.5,22.633 L18.765,10.362 C20.853,8.295 21.448,7.635 24.275,7.635 Z" id="路径" fill="#00D4E8"></path>
            <path d="M31.162,4.908 L36.672,4.908 C38.954,4.908 40.804,6.739 40.804,8.998 L32.531,21.174 C31.453,22.116 29.306,24.002 27.03,23.9970099 L21.52,23.9970099 C19.238,23.9970099 17.387,22.165 17.387,19.906 L25.652,7.635 C27.741,5.568 28.335,4.908 31.162,4.908 Z" id="路径" fill="#2845FB" opacity="0.502"></path>
            <polyline id="路径" stroke="url(#linearGradient-5)" points="430.5 26.5 297.5 26.5 283.5 10.5"></polyline>
            <polyline id="路径" stroke="url(#linearGradient-6)" opacity="0.4" points="434.709 19.479 301.01 19.479 288.5 4.5"></polyline>
            <polygon id="路径" fill="#1050D3" opacity="0.2" points="467.237 12.479 462.422 12.479 470.043 23.099 474.858 23.099"></polygon>
            <polygon id="路径" fill="#2563E1" opacity="0.502" points="457.002 12.479 452.187 12.479 459.807 23.099 464.622 23.099"></polygon>
            <polygon id="路径" fill="#4680F5" points="446.767 12.479 441.952 12.479 449.572 23.099 454.387 23.099"></polygon>
            <path d="M181.837,10.996 L170.065,10.996 C169.537,12.14 168.965,13.262 168.283,14.319 L171.826,14.319 L171.826,11.788 L174.466,11.788 L174.466,14.319 L180.781,14.319 L180.781,21.14 C180.781,22.35 180.539,23.01 179.659,23.406 C178.823,23.78 177.634,23.802 175.984,23.802 C175.874,23.076 175.5,22.086 175.17,21.426 C176.182,21.47 177.348,21.47 177.656,21.47 C178.008,21.47 178.118,21.382 178.118,21.096 L178.118,16.805 L174.466,16.805 L174.466,25.892 L171.826,25.892 L171.826,16.805 L168.349,16.805 L168.349,23.956 L165.731,23.956 L165.731,17.597 C164.873,18.499 163.97,19.291 162.936,20.017 C162.606,19.357 161.924,18.301 161.462,17.707 C163.904,16.123 165.775,13.681 167.139,10.996 L162.232,10.996 L162.232,8.488 L168.261,8.488 C168.679,7.41 169.009,6.353 169.251,5.297 L171.958,5.913 C171.694,6.772 171.408,7.63 171.099,8.488 L181.837,8.488 L181.837,10.996 Z M156.999,14.495 L156.999,14.561 C156.779,21.052 156.515,23.648 155.744,24.55 C155.194,25.254 154.6,25.496 153.764,25.584 C152.972,25.694 151.74,25.694 150.42,25.65 C150.376,24.858 150.046,23.758 149.584,23.01 C150.772,23.12 151.938,23.12 152.466,23.12 C152.862,23.12 153.104,23.054 153.346,22.834 C153.808,22.328 154.028,20.457 154.226,15.991 L149.628,15.991 C149.055,20.149 147.603,23.89 141.948,25.98 C141.64,25.276 140.892,24.22 140.298,23.648 C145.205,22.064 146.371,19.159 146.833,15.991 L143.291,15.991 L143.291,14.693 C142.873,15.155 142.432,15.573 141.97,15.947 C141.486,15.397 140.386,14.341 139.748,13.879 C142.322,12.03 144.545,8.95 145.777,5.671 L148.593,6.441 C147.603,8.994 146.129,11.414 144.479,13.394 L156.074,13.394 C154.424,11.348 152.796,8.906 151.652,6.551 L154.116,5.627 C155.436,8.4 158.077,11.656 160.343,13.526 C159.683,14.033 158.715,15.045 158.231,15.749 C157.835,15.353 157.417,14.935 156.999,14.495 Z M132.996,21.03 L135.351,20.193 C136.407,21.58 137.683,23.494 138.233,24.792 L135.703,25.76 C135.241,24.506 134.052,22.504 132.996,21.03 Z M129.234,11.832 L135.659,11.832 L135.659,19.467 L120.41,19.467 L120.41,11.832 L126.571,11.832 L126.571,5.363 L129.234,5.363 L129.234,7.3 L137.111,7.3 L137.111,9.742 L129.234,9.742 L129.234,11.832 Z M122.897,14.253 L122.897,17.047 L132.996,17.047 L132.996,14.253 L122.897,14.253 Z M122.963,20.986 C122.325,22.746 121.269,24.66 120.102,25.826 L117.682,24.66 C118.76,23.692 119.816,21.954 120.432,20.369 L122.963,20.986 Z M113.571,23.56 C114.033,23.56 115.749,23.56 116.409,23.538 C116.123,24.044 115.837,25.056 115.749,25.65 L113.395,25.65 C110.974,25.65 108.95,25.056 107.542,22.658 C107.146,23.956 106.552,25.056 105.738,26.002 C105.363,25.628 104.329,24.858 103.779,24.594 C105.628,22.812 106.046,19.907 106.112,16.321 L108.4,16.409 C108.356,17.619 108.29,18.763 108.136,19.797 C108.51,20.832 108.95,21.58 109.478,22.13 L109.478,15.243 L105.43,15.243 L105.43,13.086 L111.568,13.086 C110.204,12.162 108.136,11.062 106.464,10.336 L107.982,8.774 C108.642,9.038 109.368,9.346 110.138,9.698 C110.82,9.236 111.524,8.642 112.118,8.026 L105.848,8.026 L105.848,6.001 L113.857,6.001 L114.319,5.869 L115.881,6.882 C114.979,8.268 113.659,9.698 112.25,10.798 C112.911,11.172 113.461,11.524 113.901,11.832 L112.779,13.086 L114.275,13.086 L114.627,13.02 L116.233,13.372 C115.859,14.847 115.353,16.497 114.825,17.531 L112.977,17.003 C113.175,16.541 113.351,15.903 113.527,15.243 L111.788,15.243 L111.788,18.169 L115.375,18.169 L115.375,20.325 L111.788,20.325 L111.788,23.384 C112.361,23.516 112.977,23.56 113.571,23.56 Z M100.171,10.842 L102.635,10.842 C103.317,10.842 103.449,10.622 103.537,9.082 C104.021,9.434 104.967,9.764 105.628,9.918 C105.363,12.338 104.703,12.976 102.877,12.976 L99.885,12.976 C97.42,12.976 96.848,12.316 96.848,10.16 L96.848,5.561 L99.181,5.561 L99.181,7.41 C100.721,7.014 102.261,6.485 103.273,5.979 L104.901,7.696 C103.229,8.4 101.117,8.972 99.181,9.368 L99.181,10.116 C99.181,10.776 99.335,10.842 100.171,10.842 Z M97.684,12.778 L99.929,13.262 C99.841,13.615 99.731,13.967 99.599,14.297 L104.725,14.297 L104.747,16.387 L102.151,16.387 L102.151,17.949 L102.151,17.971 L105.209,17.971 L105.209,20.127 L101.953,20.127 L101.931,20.171 C102.943,20.986 104.153,22.086 104.747,22.79 L103.141,24.506 C102.701,23.934 101.931,23.12 101.139,22.394 C100.457,23.67 99.269,24.924 97.354,25.958 C97.002,25.452 96.298,24.704 95.704,24.308 C98.102,23.142 99.115,21.58 99.533,20.127 L96.034,20.127 L96.034,17.971 L97.156,17.971 C96.716,17.575 96.034,17.091 95.594,16.827 C96.606,15.837 97.31,14.297 97.684,12.778 Z M99.819,17.971 L99.819,17.905 L99.819,16.387 L98.719,16.387 C98.388,16.981 98.036,17.509 97.662,17.971 L99.819,17.971 Z M92.715,22.614 C92.099,21.932 91.527,21.14 90.955,20.281 L90.955,22.218 L88.006,22.218 L88.006,25.76 L85.454,25.76 L85.454,22.218 L82.571,22.218 L82.571,20.193 C81.955,21.118 81.317,21.976 80.613,22.68 C80.173,22.064 79.337,21.14 78.743,20.7 C80.965,18.719 83.011,15.243 84.222,11.766 L79.887,11.766 L79.887,9.28 L85.454,9.28 L85.454,5.473 L88.006,5.473 L88.006,9.28 L94.079,9.28 L94.079,11.766 L89.304,11.766 C90.515,15.155 92.539,18.587 94.673,20.59 C94.079,21.052 93.177,21.932 92.715,22.614 Z M85.454,14.297 C84.728,16.321 83.804,18.257 82.769,19.885 L85.454,19.885 L85.454,14.297 Z M88.006,14.143 L88.006,19.885 L90.713,19.885 C89.678,18.191 88.754,16.211 88.006,14.143 Z M78.633,25.87 L76.146,25.87 L76.146,14.693 C75.706,15.287 75.244,15.881 74.804,16.409 C74.562,15.771 73.836,14.341 73.352,13.681 C75.2,11.678 76.917,8.554 77.907,5.451 L80.393,6.199 C79.909,7.608 79.315,9.038 78.633,10.446 L78.633,25.87 Z M70.935,17.003 C69.439,16.497 68.162,15.771 67.128,14.869 C66.028,15.749 64.752,16.431 63.234,16.959 C63.014,16.475 62.244,15.529 61.782,15.089 C63.278,14.671 64.554,14.099 65.544,13.306 C65.06,12.69 64.62,12.052 64.246,11.392 C63.938,11.766 63.63,12.118 63.3,12.404 C63.036,12.052 62.442,11.392 61.958,10.908 L61.958,13.152 L59.867,13.152 C60.637,13.592 61.452,14.121 61.914,14.517 L60.835,15.969 C60.329,15.463 59.339,14.759 58.481,14.253 L58.481,16.497 L56.193,16.497 L56.193,14.759 C55.291,15.661 54.212,16.431 53.2,16.937 C52.87,16.431 52.21,15.661 51.726,15.287 C52.98,14.825 54.3,14.033 55.269,13.152 L52.694,13.152 L52.694,8.972 L56.193,8.972 L56.193,8.224 L52.188,8.224 L52.188,6.397 L56.193,6.397 L56.193,5.341 L58.481,5.341 L58.481,6.397 L62.288,6.397 L62.288,8.224 L58.481,8.224 L58.481,8.972 L61.958,8.972 L61.958,10.27 C63.212,9.06 64.18,7.278 64.686,5.385 L67.018,5.935 C66.842,6.507 66.644,7.058 66.446,7.608 L71.947,7.608 L71.947,9.698 L70.495,9.698 C70.077,11.106 69.461,12.294 68.691,13.284 C69.681,14.011 70.935,14.605 72.365,14.979 C71.881,15.441 71.221,16.409 70.935,17.003 Z M56.193,10.512 L54.719,10.512 L54.719,11.634 L56.193,11.634 L56.193,10.512 Z M58.481,13.879 L59.075,13.152 L58.481,13.152 L58.481,13.879 Z M59.823,10.512 L58.481,10.512 L58.481,11.634 L59.823,11.634 L59.823,10.512 Z M65.588,9.698 C65.94,10.424 66.402,11.106 67.018,11.788 C67.458,11.172 67.788,10.49 68.052,9.698 L65.588,9.698 Z M55.247,19.907 L57.755,19.907 L57.755,23.23 L60.659,23.23 L60.659,19.093 L53.31,19.093 L53.31,16.981 L70.671,16.981 L70.671,19.093 L63.234,19.093 L63.234,20.193 L68.911,20.193 L68.911,22.108 L63.234,22.108 L63.234,23.23 L72.035,23.23 L72.035,25.386 L51.99,25.386 L51.99,23.23 L55.247,23.23 L55.247,19.907 Z M127.143,25.43 L124.481,25.76 C124.481,24.616 124.305,22.658 124.041,21.14 L126.527,20.898 C126.857,22.394 127.099,24.286 127.143,25.43 Z M132.6,24.99 L130.07,25.65 C129.828,24.506 129.168,22.614 128.53,21.162 L130.928,20.634 C131.61,22.02 132.336,23.846 132.6,24.99 Z" id="形状" fill="url(#linearGradient-7)" fill-rule="nonzero"></path>
        </g>
    </g>
</svg>