<?xml version="1.0" encoding="UTF-8"?>
<svg width="477px" height="302px" viewBox="0 0 477 302" version="1.1" xmlns="http://www.w3.org/2000/svg" xmlns:xlink="http://www.w3.org/1999/xlink">
    <title>fk_kuang_zuo3</title>
    <defs>
        <linearGradient x1="0%" y1="0%" x2="100%" y2="0%" id="linearGradient-1">
            <stop stop-color="#030E6A" stop-opacity="0.8" offset="0%"></stop>
            <stop stop-color="#030E6A" stop-opacity="0" offset="100%"></stop>
        </linearGradient>
        <linearGradient x1="50%" y1="0%" x2="50%" y2="100%" id="linearGradient-2">
            <stop stop-color="#031270" offset="0%"></stop>
            <stop stop-color="#031270" stop-opacity="0.584380463" offset="40.8134834%"></stop>
            <stop stop-color="#031270" offset="100%"></stop>
        </linearGradient>
        <linearGradient x1="19.6284089%" y1="29.9573215%" x2="28.9870627%" y2="70.0426785%" id="linearGradient-3">
            <stop stop-color="#2845FB" offset="0%"></stop>
            <stop stop-color="#2845FB" stop-opacity="0.0366586538" offset="22.8845276%"></stop>
            <stop stop-color="#2845FB" offset="50.2340994%"></stop>
            <stop stop-color="#2845FB" stop-opacity="0" offset="100%"></stop>
        </linearGradient>
        <linearGradient x1="100%" y1="72.4361727%" x2="0%" y2="72.4361727%" id="linearGradient-4">
            <stop stop-color="#0A54FF" stop-opacity="0" offset="0%"></stop>
            <stop stop-color="#0A54FF" offset="100%"></stop>
        </linearGradient>
        <linearGradient x1="0%" y1="0%" x2="100%" y2="0%" id="linearGradient-5">
            <stop stop-color="#4BAAE4" stop-opacity="0" offset="0%"></stop>
            <stop stop-color="#4BAAE4" offset="12.7349213%"></stop>
            <stop stop-color="#005174" stop-opacity="0" offset="100%"></stop>
        </linearGradient>
        <linearGradient x1="0%" y1="0%" x2="100%" y2="0%" id="linearGradient-6">
            <stop stop-color="#4BAAE4" stop-opacity="0" offset="0%"></stop>
            <stop stop-color="#4BAAE4" offset="12.7349213%"></stop>
            <stop stop-color="#005174" stop-opacity="0" offset="100%"></stop>
        </linearGradient>
        <linearGradient x1="0%" y1="0%" x2="99.939%" y2="3.49%" id="linearGradient-7">
            <stop stop-color="#00C0FF" offset="0%"></stop>
            <stop stop-color="#43F0FF" offset="49%"></stop>
            <stop stop-color="#00C0FF" offset="100%"></stop>
        </linearGradient>
    </defs>
    <g id="页面-1" stroke="none" stroke-width="1" fill="none" fill-rule="evenodd">
        <g id="fk_kuang_zuo3">
            <polygon id="路径" fill="url(#linearGradient-1)" points="252 0 0 0 0 32 279 32"></polygon>
            <polygon id="路径" fill="url(#linearGradient-2)" opacity="0.302" points="253.13219 0.134990042 279.289771 31.5596718 477 31.0527092 477 302 0 302 0 0"></polygon>
            <path d="M0.5,0.500268707 L252.896823,0.635873617 L279.05501,32.2516072 L476.5,31.7422914 L476.5,301.503 L0.5,301.503 L0.5,0.500268707 Z" id="路径" stroke="url(#linearGradient-3)"></path>
            <polygon id="路径" fill="url(#linearGradient-4)" opacity="0.302" points="0 0 252.544 0 279.544 32 0 32"></polygon>
            <path d="M24.275,7.635 L29.784,7.635 C32.067,7.635 33.917,9.466 33.917,11.725 L25.644,23.901 C24.566,24.843 22.419,26.729 20.142,26.7240099 L14.632,26.7240099 C12.35,26.7240099 10.5,24.892 10.5,22.633 L18.765,10.362 C20.853,8.295 21.448,7.635 24.275,7.635 Z" id="路径" fill="#00D4E8"></path>
            <path d="M31.162,4.908 L36.672,4.908 C38.954,4.908 40.804,6.739 40.804,8.998 L32.531,21.174 C31.453,22.116 29.306,24.002 27.03,23.9970099 L21.52,23.9970099 C19.238,23.9970099 17.387,22.165 17.387,19.906 L25.652,7.635 C27.741,5.568 28.335,4.908 31.162,4.908 Z" id="路径" fill="#2845FB" opacity="0.502"></path>
            <polyline id="路径" stroke="url(#linearGradient-5)" points="430.5 26.5 297.5 26.5 283.5 10.5"></polyline>
            <polyline id="路径" stroke="url(#linearGradient-6)" opacity="0.4" points="434.709 19.479 301.01 19.479 288.5 4.5"></polyline>
            <polygon id="路径" fill="#1050D3" opacity="0.2" points="467.237 12.479 462.422 12.479 470.043 23.099 474.858 23.099"></polygon>
            <polygon id="路径" fill="#2563E1" opacity="0.502" points="457.002 12.479 452.187 12.479 459.807 23.099 464.622 23.099"></polygon>
            <polygon id="路径" fill="#4680F5" points="446.767 12.479 441.952 12.479 449.572 23.099 454.387 23.099"></polygon>
            <path d="M222.206,22.438 C222.206,23.186 222.25,23.296 222.647,23.296 L223.593,23.296 C224.011,23.296 224.099,22.834 224.165,20.193 C224.693,20.612 225.749,21.03 226.453,21.228 C226.233,24.638 225.595,25.65 223.857,25.65 L222.162,25.65 C220.072,25.65 219.588,24.836 219.588,22.438 L219.588,15.705 L217.718,15.705 C217.476,20.656 216.75,24 212.327,25.892 C212.019,25.232 211.337,24.264 210.787,23.78 C214.527,22.306 214.989,19.775 215.143,15.705 L213.053,15.705 L213.053,6.331 L224.847,6.331 L224.847,15.705 L222.206,15.705 L222.206,22.438 Z M222.052,8.752 L215.65,8.752 L215.65,13.284 L222.052,13.284 L222.052,8.752 Z M205.572,23.34 C206.76,21.602 208.41,18.741 209.753,16.079 L211.689,17.795 C210.523,20.215 209.159,22.812 207.838,25.034 L205.572,23.34 Z M205.88,7.476 L207.904,6.067 C209.159,7.432 210.853,9.368 211.623,10.622 L209.445,12.228 C208.763,10.952 207.178,8.928 205.88,7.476 Z M189.799,12.316 L195.63,12.316 L195.63,11.37 L191.075,11.37 L191.119,11.48 L189.403,12.316 C189.249,11.678 188.941,10.754 188.589,9.896 L188.589,25.892 L186.234,25.892 L186.234,5.363 L188.589,5.363 L188.589,8.884 L189.843,8.356 C190.305,9.302 190.811,10.534 191.075,11.348 L191.075,9.61 L195.63,9.61 L195.63,8.73 L190.481,8.73 L190.481,6.86 L195.63,6.86 L195.63,5.363 L198.226,5.363 L198.226,6.86 L203.551,6.86 L203.551,8.73 L198.226,8.73 L198.226,9.61 L202.957,9.61 L202.957,11.37 L198.226,11.37 L198.226,12.316 L204.211,12.316 L204.211,14.187 L189.799,14.187 L189.799,12.316 Z M183.44,15.441 C183.902,13.945 184.232,11.48 184.342,9.698 L186.19,9.94 C186.146,11.766 185.794,14.385 185.332,16.079 L183.44,15.441 Z M168.283,14.319 L171.826,14.319 L171.826,11.788 L174.466,11.788 L174.466,14.319 L180.781,14.319 L180.781,21.14 C180.781,22.35 180.539,23.01 179.659,23.406 C178.823,23.78 177.634,23.802 175.984,23.802 C175.874,23.076 175.5,22.086 175.17,21.426 C176.182,21.47 177.348,21.47 177.656,21.47 C178.008,21.47 178.118,21.382 178.118,21.096 L178.118,16.805 L174.466,16.805 L174.466,25.892 L171.826,25.892 L171.826,16.805 L168.349,16.805 L168.349,23.956 L165.731,23.956 L165.731,17.597 C164.873,18.499 163.97,19.291 162.936,20.017 C162.606,19.357 161.924,18.301 161.462,17.707 C163.904,16.123 165.775,13.681 167.139,10.996 L162.232,10.996 L162.232,8.488 L168.261,8.488 C168.679,7.41 169.009,6.353 169.251,5.297 L171.958,5.913 C171.694,6.772 171.408,7.63 171.099,8.488 L181.837,8.488 L181.837,10.996 L170.065,10.996 C169.537,12.14 168.965,13.262 168.283,14.319 Z M156.999,14.495 L156.999,14.561 C156.779,21.052 156.515,23.648 155.744,24.55 C155.194,25.254 154.6,25.496 153.764,25.584 C152.972,25.694 151.74,25.694 150.42,25.65 C150.376,24.858 150.046,23.758 149.584,23.01 C150.772,23.12 151.938,23.12 152.466,23.12 C152.862,23.12 153.104,23.054 153.346,22.834 C153.808,22.328 154.028,20.457 154.226,15.991 L149.628,15.991 C149.055,20.149 147.603,23.89 141.948,25.98 C141.64,25.276 140.892,24.22 140.298,23.648 C145.205,22.064 146.371,19.159 146.833,15.991 L143.291,15.991 L143.291,14.693 C142.873,15.155 142.432,15.573 141.97,15.947 C141.486,15.397 140.386,14.341 139.748,13.879 C142.322,12.03 144.545,8.95 145.777,5.671 L148.593,6.441 C147.603,8.994 146.129,11.414 144.479,13.394 L156.074,13.394 C154.424,11.348 152.796,8.906 151.652,6.551 L154.116,5.627 C155.436,8.4 158.077,11.656 160.343,13.526 C159.683,14.033 158.715,15.045 158.231,15.749 C157.835,15.353 157.417,14.935 156.999,14.495 Z M132.996,21.03 L135.351,20.193 C136.407,21.58 137.683,23.494 138.233,24.792 L135.703,25.76 C135.241,24.506 134.052,22.504 132.996,21.03 Z M129.234,11.832 L135.659,11.832 L135.659,19.467 L120.41,19.467 L120.41,11.832 L126.571,11.832 L126.571,5.363 L129.234,5.363 L129.234,7.3 L137.111,7.3 L137.111,9.742 L129.234,9.742 L129.234,11.832 Z M122.897,14.253 L122.897,17.047 L132.996,17.047 L132.996,14.253 L122.897,14.253 Z M122.963,20.986 C122.325,22.746 121.269,24.66 120.102,25.826 L117.682,24.66 C118.76,23.692 119.816,21.954 120.432,20.369 L122.963,20.986 Z M113.571,23.56 C114.033,23.56 115.749,23.56 116.409,23.538 C116.123,24.044 115.837,25.056 115.749,25.65 L113.395,25.65 C110.974,25.65 108.95,25.056 107.542,22.658 C107.146,23.956 106.552,25.056 105.738,26.002 C105.363,25.628 104.329,24.858 103.779,24.594 C105.628,22.812 106.046,19.907 106.112,16.321 L108.4,16.409 C108.356,17.619 108.29,18.763 108.136,19.797 C108.51,20.832 108.95,21.58 109.478,22.13 L109.478,15.243 L105.43,15.243 L105.43,13.086 L111.568,13.086 C110.204,12.162 108.136,11.062 106.464,10.336 L107.982,8.774 C108.642,9.038 109.368,9.346 110.138,9.698 C110.82,9.236 111.524,8.642 112.118,8.026 L105.848,8.026 L105.848,6.001 L113.857,6.001 L114.319,5.869 L115.881,6.882 C114.979,8.268 113.659,9.698 112.25,10.798 C112.911,11.172 113.461,11.524 113.901,11.832 L112.779,13.086 L114.275,13.086 L114.627,13.02 L116.233,13.372 C115.859,14.847 115.353,16.497 114.825,17.531 L112.977,17.003 C113.175,16.541 113.351,15.903 113.527,15.243 L111.788,15.243 L111.788,18.169 L115.375,18.169 L115.375,20.325 L111.788,20.325 L111.788,23.384 C112.361,23.516 112.977,23.56 113.571,23.56 Z M100.171,10.842 L102.635,10.842 C103.317,10.842 103.449,10.622 103.537,9.082 C104.021,9.434 104.967,9.764 105.628,9.918 C105.363,12.338 104.703,12.976 102.877,12.976 L99.885,12.976 C97.42,12.976 96.848,12.316 96.848,10.16 L96.848,5.561 L99.181,5.561 L99.181,7.41 C100.721,7.014 102.261,6.485 103.273,5.979 L104.901,7.696 C103.229,8.4 101.117,8.972 99.181,9.368 L99.181,10.116 C99.181,10.776 99.335,10.842 100.171,10.842 Z M97.684,12.778 L99.929,13.262 C99.841,13.615 99.731,13.967 99.599,14.297 L104.725,14.297 L104.747,16.387 L102.151,16.387 L102.151,17.949 L102.151,17.971 L105.209,17.971 L105.209,20.127 L101.953,20.127 L101.931,20.171 C102.943,20.986 104.153,22.086 104.747,22.79 L103.141,24.506 C102.701,23.934 101.931,23.12 101.139,22.394 C100.457,23.67 99.269,24.924 97.354,25.958 C97.002,25.452 96.298,24.704 95.704,24.308 C98.102,23.142 99.115,21.58 99.533,20.127 L96.034,20.127 L96.034,17.971 L97.156,17.971 C96.716,17.575 96.034,17.091 95.594,16.827 C96.606,15.837 97.31,14.297 97.684,12.778 Z M99.819,17.971 L99.819,17.905 L99.819,16.387 L98.719,16.387 C98.388,16.981 98.036,17.509 97.662,17.971 L99.819,17.971 Z M74.012,23.45 L82.703,23.45 L82.703,22.68 L75.97,22.68 L75.97,20.986 L82.703,20.986 L82.703,20.281 L76.432,20.281 L76.432,14.649 L91.637,14.649 L91.637,20.281 L85.212,20.281 L85.212,20.986 L91.945,20.986 L91.945,22.68 L85.212,22.68 L85.212,23.45 L94.013,23.45 L94.013,25.364 L74.012,25.364 L74.012,23.45 Z M82.703,16.057 L78.875,16.057 L78.875,16.827 L82.703,16.827 L82.703,16.057 Z M82.703,18.081 L78.875,18.081 L78.875,18.873 L82.703,18.873 L82.703,18.081 Z M85.212,18.873 L89.062,18.873 L89.062,18.081 L85.212,18.081 L85.212,18.873 Z M85.212,16.827 L89.062,16.827 L89.062,16.057 L85.212,16.057 L85.212,16.827 Z M74.056,12.118 L93.947,12.118 L93.947,14.011 L74.056,14.011 L74.056,12.118 Z M76.829,6.045 L91.109,6.045 L91.109,11.502 L76.829,11.502 L76.829,6.045 Z M79.337,10.16 L88.468,10.16 L88.468,9.368 L79.337,9.368 L79.337,10.16 Z M79.337,8.158 L88.468,8.158 L88.468,7.388 L79.337,7.388 L79.337,8.158 Z M66.908,23.142 C66.908,24.462 66.688,25.144 65.742,25.54 C64.818,25.892 63.52,25.936 61.76,25.914 C61.672,25.166 61.363,24.154 61.033,23.406 C62.134,23.472 63.432,23.472 63.784,23.472 C64.158,23.45 64.268,23.362 64.268,23.076 L64.268,20.391 L58.679,20.391 L58.679,17.949 L64.268,17.949 L64.268,16.409 C64.95,15.991 65.676,15.397 66.358,14.781 L60.395,14.781 L60.395,12.426 L68.757,12.426 L69.307,12.272 L70.957,13.615 C69.835,14.803 68.361,16.101 66.908,17.113 L66.908,17.949 L72.123,17.949 L72.123,20.391 L66.908,20.391 L66.908,23.142 Z M57.403,15.221 L57.403,25.87 L54.763,25.87 L54.763,18.191 C54.102,18.785 53.442,19.313 52.694,19.819 C52.43,19.137 51.858,17.971 51.462,17.311 C53.838,15.749 55.753,13.35 57.095,10.71 L52.254,10.71 L52.254,8.202 L58.217,8.202 C58.569,7.234 58.877,6.287 59.119,5.341 L61.848,6.001 C61.628,6.75 61.363,7.454 61.099,8.202 L71.793,8.202 L71.793,10.71 L60.065,10.71 C59.317,12.294 58.437,13.813 57.403,15.221 Z M127.143,25.43 L124.481,25.76 C124.481,24.616 124.305,22.658 124.041,21.14 L126.527,20.898 C126.857,22.394 127.099,24.286 127.143,25.43 Z M132.6,24.99 L130.07,25.65 C129.828,24.506 129.168,22.614 128.53,21.162 L130.928,20.634 C131.61,22.02 132.336,23.846 132.6,24.99 Z M202.737,23.406 C202.737,24.55 202.517,25.166 201.725,25.518 C200.955,25.892 199.854,25.892 198.336,25.892 C198.248,25.254 197.94,24.308 197.632,23.67 C198.534,23.736 199.568,23.714 199.854,23.714 C200.162,23.714 200.272,23.626 200.272,23.362 L200.272,22.636 L193.694,22.636 L193.694,25.936 L191.273,25.936 L191.273,15.023 L202.737,15.023 L202.737,23.406 Z M200.272,16.937 L193.694,16.937 L193.694,17.971 L200.272,17.971 L200.272,16.937 Z M200.272,19.819 L193.694,19.819 L193.694,20.832 L200.272,20.832 L200.272,19.819 Z" id="形状" fill="url(#linearGradient-7)" fill-rule="nonzero"></path>
        </g>
    </g>
</svg>