<?xml version="1.0" encoding="UTF-8"?>
<svg width="80px" height="85px" viewBox="0 0 80 85" version="1.1" xmlns="http://www.w3.org/2000/svg" xmlns:xlink="http://www.w3.org/1999/xlink">
    <title>icon_no3</title>
    <defs>
        <linearGradient x1="50%" y1="0%" x2="50%" y2="100%" id="linearGradient-1">
            <stop stop-color="#F8AF9C" offset="0%"></stop>
            <stop stop-color="#D18A59" offset="99.5137675%"></stop>
        </linearGradient>
        <path d="M41.7777778,11.9259259 C40.7407407,11.3333333 39.4814815,11.3333333 38.5185185,11.9259259 L16.5925926,24.5925926 C15.5555556,25.1851852 14.962963,26.2962963 14.962963,27.4074074 L14.962963,52.7407407 C14.962963,53.9259259 15.5555556,55.037037 16.5925926,55.5555556 L38.5185185,68.2222222 C39.5555556,68.8148148 40.8148148,68.8148148 41.7777778,68.2222222 L63.7037037,55.5555556 C64.7407407,54.962963 65.3333333,53.8518519 65.3333333,52.7407407 L65.3333333,27.4074074 C65.3333333,26.2222222 64.7407407,25.1111111 63.7037037,24.5925926 L41.7777778,11.9259259 Z M43.4814815,9.11111111 L65.4074074,21.7777778 C67.4814815,22.962963 68.6666667,25.1111111 68.6666667,27.4814815 L68.6666667,52.8148148 C68.6666667,55.1851852 67.4074074,57.3333333 65.4074074,58.5185185 L43.4814815,71.1851852 C41.4074074,72.3703704 38.962963,72.3703704 36.8888889,71.1851852 L14.962963,58.5185185 C12.8888889,57.3333333 11.7037037,55.1851852 11.7037037,52.8148148 L11.7037037,27.4814815 C11.7037037,25.1111111 12.962963,22.962963 14.962963,21.7777778 L36.8888889,9.11111111 C38.8888889,7.92592593 41.4074074,7.92592593 43.4814815,9.11111111 L43.4814815,9.11111111 Z" id="path-2"></path>
        <filter x="-26.3%" y="-23.5%" width="152.7%" height="147.0%" filterUnits="objectBoundingBox" id="filter-3">
            <feOffset dx="0" dy="0" in="SourceAlpha" result="shadowOffsetOuter1"></feOffset>
            <feGaussianBlur stdDeviation="5" in="shadowOffsetOuter1" result="shadowBlurOuter1"></feGaussianBlur>
            <feColorMatrix values="0 0 0 0 0.819607843   0 0 0 0 0.541176471   0 0 0 0 0.349019608  0 0 0 0.75 0" type="matrix" in="shadowBlurOuter1"></feColorMatrix>
        </filter>
        <path d="M39.4363704,56.2011111 C45.5993333,56.1774074 48.7400741,53.6174074 48.8585926,48.5211111 C48.8111852,44.1122222 46.0852593,41.6114815 40.6808148,41.0188889 C45.7297037,40.2366667 48.2778519,37.9137037 48.3252593,34.05 C48.2304444,29.4277778 45.3622963,27.1166667 39.7208148,27.1166667 C34.3637778,27.2588889 31.4837778,29.25 31.0808148,33.09 C31.0097037,34.9388889 31.8511852,35.8633333 33.6052593,35.8633333 C35.4067407,35.7448148 36.3785926,34.8677778 36.5208148,33.2322222 C36.6393333,30.1981481 37.706,28.7166667 39.7208148,28.7877778 C41.8304444,28.8351852 42.9326667,30.5537037 43.0274815,33.9433333 C43.1222963,37.807037 40.8111852,39.8811111 36.0941481,40.1655556 L36.0941481,42.1211111 C41.1193333,42.2396296 43.6200741,44.372963 43.5963704,48.5211111 C43.5963704,52.527037 42.2097037,54.4944444 39.4363704,54.4233333 C37.4452593,54.3522222 36.2363704,52.9418519 35.8097037,50.1922222 C35.548963,48.4144444 34.6245185,47.572963 33.0363704,47.6677778 C31.2822963,47.7625926 30.4526667,48.687037 30.5474815,50.4411111 C30.8556296,54.1388889 33.8185926,56.0588889 39.4363704,56.2011111 Z" id="path-4"></path>
        <path d="M39.4363704,55.4603704 C45.5993333,55.4366667 48.7400741,52.8766667 48.8585926,47.7803704 C48.8111852,43.3714815 46.0852593,40.8707407 40.6808148,40.2781481 C45.7297037,39.4959259 48.2778519,37.172963 48.3252593,33.3092593 C48.2304444,28.687037 45.3622963,26.3759259 39.7208148,26.3759259 C34.3637778,26.5181481 31.4837778,28.5092593 31.0808148,32.3492593 C31.0097037,34.1981481 31.8511852,35.1225926 33.6052593,35.1225926 C35.4067407,35.0040741 36.3785926,34.127037 36.5208148,32.4914815 C36.6393333,29.4574074 37.706,27.9759259 39.7208148,28.047037 C41.8304444,28.0944444 42.9326667,29.812963 43.0274815,33.2025926 C43.1222963,37.0662963 40.8111852,39.1403704 36.0941481,39.4248148 L36.0941481,41.3803704 C41.1193333,41.4988889 43.6200741,43.6322222 43.5963704,47.7803704 C43.5963704,51.7862963 42.2097037,53.7537037 39.4363704,53.6825926 C37.4452593,53.6114815 36.2363704,52.2011111 35.8097037,49.4514815 C35.548963,47.6737037 34.6245185,46.8322222 33.0363704,46.927037 C31.2822963,47.0218519 30.4526667,47.9462963 30.5474815,49.7003704 C30.8556296,53.3981481 33.8185926,55.3181481 39.4363704,55.4603704 Z" id="path-5"></path>
    </defs>
    <g id="页面-1" stroke="none" stroke-width="1" fill="none" fill-rule="evenodd">
        <g id="icon_no3" transform="translate(0.000000, 2.000000)" fill-rule="nonzero">
            <path d="M43.4814815,9.11111111 L65.4074074,21.7777778 C67.4814815,22.962963 68.6666667,25.1111111 68.6666667,27.4814815 L68.6666667,52.8148148 C68.6666667,55.1851852 67.4074074,57.3333333 65.4074074,58.5185185 L43.4814815,71.1851852 C41.4074074,72.3703704 38.962963,72.3703704 36.8888889,71.1851852 L14.962963,58.5185185 C12.8888889,57.3333333 11.7037037,55.1851852 11.7037037,52.8148148 L11.7037037,27.4814815 C11.7037037,25.1111111 12.962963,22.962963 14.962963,21.7777778 L36.8888889,9.11111111 C38.8888889,7.92592593 41.4074074,7.92592593 43.4814815,9.11111111 L43.4814815,9.11111111 Z" id="路径" fill="#A2642A"></path>
            <polygon id="路径" fill="#F8AF9C" opacity="0.2" points="44.4444444 36 44.4444444 36 54.6666667 17.9259259 48.2222222 13.8518519 40.1481481 33.5555556 32 13.6296296 25.6296296 17.9259259 35.9259259 35.9259259 35.8518519 36 13.2592593 29.1851852 13.1851852 37.1851852 34.5925926 40.6666667 34.6666667 40.8888889 14.2962963 55.3333333 20.5925926 60.5185185 37.7777778 44.6666667 36.1481481 69.7777778 44.2222222 69.7777778 42.5925926 44.6666667 59.6296296 60.3703704 66.0740741 55.3333333 45.7037037 40.8888889 45.7777778 40.6666667 67.1111111 37.1851852 66.8148148 29.2592593"></polygon>
            <g id="形状">
                <use fill="black" fill-opacity="1" filter="url(#filter-3)" xlink:href="#path-2"></use>
                <use fill="url(#linearGradient-1)" xlink:href="#path-2"></use>
            </g>
            <g id="3">
                <use fill="#000000" xlink:href="#path-4"></use>
                <use fill="#661704" xlink:href="#path-4"></use>
            </g>
            <g id="3">
                <use fill="#000000" xlink:href="#path-5"></use>
                <use fill="#FFFFFF" xlink:href="#path-5"></use>
            </g>
        </g>
    </g>
</svg>