<?xml version="1.0" encoding="UTF-8"?>
<svg width="76px" height="70px" viewBox="0 0 76 70" version="1.1" xmlns="http://www.w3.org/2000/svg" xmlns:xlink="http://www.w3.org/1999/xlink">
    <title>icon_zydgs</title>
    <defs>
        <linearGradient x1="0%" y1="71.2638942%" x2="100%" y2="33.4261557%" id="linearGradient-1">
            <stop stop-color="#0E1C33" offset="0%"></stop>
            <stop stop-color="#8FDFFE" offset="100%"></stop>
        </linearGradient>
        <linearGradient x1="100%" y1="59.6412731%" x2="0%" y2="38.7530475%" id="linearGradient-2">
            <stop stop-color="#0E1C33" offset="0%"></stop>
            <stop stop-color="#8FDFFE" offset="100%"></stop>
        </linearGradient>
        <linearGradient x1="0%" y1="0%" x2="0%" y2="100%" id="linearGradient-3">
            <stop stop-color="#1DB4FF" stop-opacity="0" offset="0%"></stop>
            <stop stop-color="#1DB4FF" offset="100%"></stop>
        </linearGradient>
        <linearGradient x1="0%" y1="0%" x2="0%" y2="100%" id="linearGradient-4">
            <stop stop-color="#0E1C33" offset="0%"></stop>
            <stop stop-color="#1DB4FF" offset="100%"></stop>
        </linearGradient>
        <linearGradient x1="0%" y1="0%" x2="0%" y2="100%" id="linearGradient-5">
            <stop stop-color="#0060FF" offset="0%"></stop>
            <stop stop-color="#8FDFFE" offset="100%"></stop>
        </linearGradient>
    </defs>
    <g id="图标" stroke="none" stroke-width="1" fill="none" fill-rule="evenodd">
        <g id="icon_zydgs">
            <polygon id="路径" fill="url(#linearGradient-1)" points="0 45.06784 38 59.43184 38 69.8489067 0 55.4838933"></polygon>
            <polygon id="路径" fill="url(#linearGradient-2)" points="38 59.4906133 76 45.01008 76 55.4261333 38 69.9066667"></polygon>
            <polygon id="路径" fill="#142747" points="0.0314133333 45.46304 38 31.4405333 75.9675733 45.46304 38 59.48656"></polygon>
            <polygon id="路径" fill="url(#linearGradient-3)" opacity="0.4" points="0 0.29216 76 0.29216 76 45.6972051 38.4086682 60.29216 0 45.6972051"></polygon>
            <path d="M38.188,5.056 C28.191,5.056 20.06,13.188 20.06,23.184 C20.06,33.179 28.191,41.312 38.188,41.312 C48.183,41.312 56.315,33.179 56.315,23.184 C56.315,13.188 48.183,5.056 38.188,5.056 Z M38.188,35.533 C36.936,35.533 35.921,34.519 35.921,33.267 C35.921,32.016 36.936,31.001 38.188,31.001 C39.439,31.001 40.453,32.016 40.453,33.267 C40.453,34.519 39.439,35.533 38.188,35.533 Z M40,25.333 L40,27.376 C40,28.378 39.189,29.189 38.188,29.189 C37.187,29.189 36.375,28.378 36.375,27.376 L36.375,23.75 C36.375,22.749 37.187,21.937 38.188,21.937 C40.186,21.937 41.813,20.311 41.813,18.312 C41.813,16.312 40.186,14.686 38.188,14.686 C36.188,14.686 34.562,16.312 34.562,18.312 C34.562,19.313 33.75,20.125 32.749,20.125 C31.748,20.125 30.936,19.313 30.936,18.312 C30.936,14.314 34.189,11.061 38.188,11.061 C42.187,11.061 45.439,14.314 45.439,18.312 C45.439,21.684 43.125,24.526 40,25.333 Z" id="形状" fill="url(#linearGradient-4)" fill-rule="nonzero"></path>
            <path d="M36.188,7.056 C26.191,7.056 18.06,15.188 18.06,25.184 C18.06,35.179 26.191,43.312 36.188,43.312 C46.183,43.312 54.315,35.179 54.315,25.184 C54.315,15.188 46.183,7.056 36.188,7.056 Z M36.188,37.533 C34.936,37.533 33.922,36.519 33.922,35.267 C33.922,34.016 34.936,33.001 36.188,33.001 C37.439,33.001 38.453,34.016 38.453,35.267 C38.453,36.519 37.439,37.533 36.188,37.533 Z M38,27.333 L38,29.376 C38,30.378 37.189,31.189 36.188,31.189 C35.186,31.189 34.375,30.378 34.375,29.376 L34.375,25.75 C34.375,24.749 35.186,23.937 36.188,23.937 C38.186,23.937 39.813,22.311 39.813,20.312 C39.813,18.312 38.186,16.686 36.188,16.686 C34.188,16.686 32.562,18.312 32.562,20.312 C32.562,21.313 31.75,22.125 30.749,22.125 C29.748,22.125 28.936,21.313 28.936,20.312 C28.936,16.313 32.189,13.061 36.188,13.061 C40.187,13.061 43.439,16.313 43.439,20.312 C43.439,23.684 41.125,26.526 38,27.333 Z" id="形状" fill="url(#linearGradient-5)" fill-rule="nonzero"></path>
        </g>
    </g>
</svg>