<?xml version="1.0" encoding="UTF-8"?>
<svg width="80px" height="87px" viewBox="0 0 80 87" version="1.1" xmlns="http://www.w3.org/2000/svg" xmlns:xlink="http://www.w3.org/1999/xlink">
    <title>icon_no1</title>
    <defs>
        <linearGradient x1="50%" y1="0%" x2="50%" y2="100%" id="linearGradient-1">
            <stop stop-color="#FDD176" offset="0%"></stop>
            <stop stop-color="#F65E35" offset="100%"></stop>
        </linearGradient>
        <path d="M41.4615385,10.3076923 C40.3846154,9.69230769 39.0769231,9.69230769 38.0769231,10.3076923 L15.3076923,23.4615385 C14.2307692,24.0769231 13.6153846,25.2307692 13.6153846,26.3846154 L13.6153846,52.6923077 C13.6153846,53.9230769 14.2307692,55.0769231 15.3076923,55.6153846 L38.0769231,68.7692308 C39.1538462,69.3846154 40.4615385,69.3846154 41.4615385,68.7692308 L64.2307692,55.6153846 C65.3076923,55 65.9230769,53.8461538 65.9230769,52.6923077 L65.9230769,26.4615385 C65.9230769,25.2307692 65.3076923,24.0769231 64.2307692,23.5384615 L41.4615385,10.3076923 Z M43.2307692,7.38461538 L66,20.5384615 C68.1538462,21.7692308 69.3846154,24 69.3846154,26.4615385 L69.3846154,52.7692308 C69.3846154,55.2307692 68.0769231,57.4615385 66,58.6923077 L43.2307692,71.8461538 C41.0769231,73.0769231 38.5384615,73.0769231 36.3846154,71.8461538 L13.6153846,58.6923077 C11.4615385,57.4615385 10.2307692,55.2307692 10.2307692,52.7692308 L10.2307692,26.4615385 C10.2307692,24 11.5384615,21.7692308 13.6153846,20.5384615 L36.3846154,7.38461538 C38.4615385,6.15384615 41.0769231,6.15384615 43.2307692,7.38461538 L43.2307692,7.38461538 Z" id="path-2"></path>
        <filter x="-25.4%" y="-22.6%" width="150.7%" height="145.2%" filterUnits="objectBoundingBox" id="filter-3">
            <feOffset dx="0" dy="0" in="SourceAlpha" result="shadowOffsetOuter1"></feOffset>
            <feGaussianBlur stdDeviation="5" in="shadowOffsetOuter1" result="shadowBlurOuter1"></feGaussianBlur>
            <feColorMatrix values="0 0 0 0 0.964705882   0 0 0 0 0.368627451   0 0 0 0 0.207843137  0 0 0 0.75 0" type="matrix" in="shadowBlurOuter1"></feColorMatrix>
        </filter>
        <path d="M47.6923077,56.2406154 L47.6923077,54.4406154 C44.9723077,54.3872821 43.5723077,52.8806154 43.4923077,49.9206154 L43.4923077,24.2806154 L33.7723077,26.4806154 L33.7723077,28.3606154 C35.2923077,28.3606154 36.345641,28.7872821 36.9323077,29.6406154 C37.4389744,30.3339487 37.6923077,31.3606154 37.6923077,32.7206154 L37.6923077,49.9206154 C37.6923077,52.8539487 36.2389744,54.3606154 33.3323077,54.4406154 L33.3323077,56.2406154 L47.6923077,56.2406154 Z" id="path-4"></path>
        <path d="M47.6923077,55.4713846 L47.6923077,53.6713846 C44.9723077,53.6180513 43.5723077,52.1113846 43.4923077,49.1513846 L43.4923077,23.5113846 L33.7723077,25.7113846 L33.7723077,27.5913846 C35.2923077,27.5913846 36.345641,28.0180513 36.9323077,28.8713846 C37.4389744,29.5647179 37.6923077,30.5913846 37.6923077,31.9513846 L37.6923077,49.1513846 C37.6923077,52.0847179 36.2389744,53.5913846 33.3323077,53.6713846 L33.3323077,55.4713846 L47.6923077,55.4713846 Z" id="path-5"></path>
    </defs>
    <g id="页面-1" stroke="none" stroke-width="1" fill="none" fill-rule="evenodd">
        <g id="icon_no1" transform="translate(0.000000, 4.000000)" fill-rule="nonzero">
            <path d="M43.2307692,7.38461538 L66,20.5384615 C68.1538462,21.7692308 69.3846154,24 69.3846154,26.4615385 L69.3846154,52.7692308 C69.3846154,55.2307692 68.0769231,57.4615385 66,58.6923077 L43.2307692,71.8461538 C41.0769231,73.0769231 38.5384615,73.0769231 36.3846154,71.8461538 L13.6153846,58.6923077 C11.4615385,57.4615385 10.2307692,55.2307692 10.2307692,52.7692308 L10.2307692,26.4615385 C10.2307692,24 11.5384615,21.7692308 13.6153846,20.5384615 L36.3846154,7.38461538 C38.4615385,6.15384615 41.0769231,6.15384615 43.2307692,7.38461538 L43.2307692,7.38461538 Z" id="路径" fill="#AF4B3E"></path>
            <polygon id="路径" fill="#FEDB58" opacity="0.2" points="44.2307692 35.3076923 44.2307692 35.3076923 54.8461538 16.5384615 48.1538462 12.3076923 39.7692308 32.7692308 31.3076923 12.0769231 24.6923077 16.5384615 35.3846154 35.2307692 35.3076923 35.3076923 11.8461538 28.2307692 11.7692308 36.5384615 34 40.1538462 34.0769231 40.3846154 12.9230769 55.3846154 19.4615385 60.7692308 37.3076923 44.3076923 35.6153846 70.3846154 44 70.3846154 42.3076923 44.3076923 60 60.6153846 66.6923077 55.3846154 45.5384615 40.3846154 45.6153846 40.1538462 67.7692308 36.5384615 67.4615385 28.3076923"></polygon>
            <g id="形状">
                <use fill="black" fill-opacity="1" filter="url(#filter-3)" xlink:href="#path-2"></use>
                <use fill="url(#linearGradient-1)" xlink:href="#path-2"></use>
            </g>
            <g id="1">
                <use fill="#000000" xlink:href="#path-4"></use>
                <use fill="#661704" xlink:href="#path-4"></use>
            </g>
            <g id="1">
                <use fill="#000000" xlink:href="#path-5"></use>
                <use fill="#FFFFFF" xlink:href="#path-5"></use>
            </g>
        </g>
    </g>
</svg>