<?xml version="1.0" encoding="UTF-8"?>
<svg width="76px" height="76px" viewBox="0 0 76 76" version="1.1" xmlns="http://www.w3.org/2000/svg" xmlns:xlink="http://www.w3.org/1999/xlink">
    <title>icon_fk_dyxz</title>
    <defs>
        <linearGradient x1="0%" y1="25.7932301%" x2="97.03%" y2="3.10219725%" id="linearGradient-1">
            <stop stop-color="#0E1C33" offset="0%"></stop>
            <stop stop-color="#8FDFFE" offset="100%"></stop>
        </linearGradient>
        <linearGradient x1="52.992%" y1="82.343313%" x2="0%" y2="3.53639856%" id="linearGradient-2">
            <stop stop-color="#0E1C33" offset="0%"></stop>
            <stop stop-color="#8FDFFE" offset="100%"></stop>
        </linearGradient>
        <linearGradient x1="0%" y1="0%" x2="0%" y2="100%" id="linearGradient-3">
            <stop stop-color="#1DB4FF" stop-opacity="0" offset="0%"></stop>
            <stop stop-color="#1DB4FF" stop-opacity="0.29" offset="29%"></stop>
            <stop stop-color="#1DB4FF" offset="100%"></stop>
        </linearGradient>
        <linearGradient x1="0%" y1="0%" x2="0%" y2="100%" id="linearGradient-4">
            <stop stop-color="#0E1C33" offset="0%"></stop>
            <stop stop-color="#1DB4FF" offset="100%"></stop>
        </linearGradient>
        <linearGradient x1="0%" y1="0%" x2="0%" y2="100%" id="linearGradient-5">
            <stop stop-color="#0060FF" offset="0%"></stop>
            <stop stop-color="#8FDFFE" offset="100%"></stop>
        </linearGradient>
    </defs>
    <g id="页面-1" stroke="none" stroke-width="1" fill="none" fill-rule="evenodd">
        <g id="icon_fk_dyxz">
            <polygon id="路径" fill="url(#linearGradient-1)" points="0 52 38 65.9112656 38 76 0 62.087753"></polygon>
            <polygon id="路径" fill="url(#linearGradient-2)" points="38 65.9590541 76 52 76 62.0409459 38 76"></polygon>
            <polygon id="路径" fill="#142747" points="0.031 52 37.5 39.04 76 52 38.064 66.717"></polygon>
            <polygon id="路径" fill="url(#linearGradient-3)" opacity="0.4" points="0 0.454 76 9.47874123e-14 76 52 38.064 66.717 0.031 52"></polygon>
            <path d="M53.16,45.722 L27.027,45.722 C25.426,45.722 24.124,44.419 24.124,42.818 L24.124,16.685 C24.124,15.084 25.426,13.781 27.027,13.781 L53.16,13.781 C54.761,13.781 56.064,15.084 56.064,16.685 L56.064,42.818 C56.064,44.419 54.761,45.722 53.16,45.722 Z M41.545,38.462 C41.545,39.265 42.195,39.914 42.997,39.914 L48.805,39.914 C49.607,39.914 50.256,39.265 50.256,38.462 L50.256,28.3 C50.256,27.498 49.607,26.848 48.805,26.848 L42.997,26.848 C42.195,26.848 41.545,27.498 41.545,28.3 L41.545,38.462 Z M32.835,31.929 C32.033,31.929 31.383,32.579 31.383,33.381 C31.383,34.183 32.033,34.833 32.835,34.833 L35.738,34.833 L35.738,37.011 L31.383,37.011 C30.581,37.011 29.931,37.66 29.931,38.462 C29.931,39.265 30.581,39.914 31.383,39.914 L37.19,39.914 C37.992,39.914 38.642,39.265 38.642,38.462 L38.642,28.3 C38.642,27.498 37.992,26.848 37.19,26.848 L31.383,26.848 C30.581,26.848 29.931,27.498 29.931,28.3 C29.931,29.101 30.581,29.751 31.383,29.751 L35.738,29.751 L35.738,31.929 L32.835,31.929 Z M51.972,21.04 L28.215,21.04 C27.559,21.04 27.027,21.691 27.027,22.492 C27.027,23.294 27.559,23.944 28.215,23.944 L51.972,23.944 C52.629,23.944 53.16,23.294 53.16,22.492 C53.16,21.691 52.629,21.04 51.972,21.04 Z M47.353,37.011 L44.449,37.011 L44.449,29.751 L47.353,29.751 L47.353,37.011 Z" id="形状" fill="url(#linearGradient-4)" fill-rule="nonzero"></path>
            <path d="M51.16,47.722 L25.027,47.722 C23.426,47.722 22.124,46.419 22.124,44.818 L22.124,18.685 C22.124,17.084 23.426,15.781 25.027,15.781 L51.16,15.781 C52.761,15.781 54.064,17.084 54.064,18.685 L54.064,44.818 C54.064,46.419 52.761,47.722 51.16,47.722 Z M39.545,40.462 C39.545,41.265 40.195,41.914 40.997,41.914 L46.805,41.914 C47.607,41.914 48.257,41.265 48.257,40.462 L48.257,30.3 C48.257,29.498 47.607,28.848 46.805,28.848 L40.997,28.848 C40.195,28.848 39.545,29.498 39.545,30.3 L39.545,40.462 Z M30.835,33.929 C30.033,33.929 29.383,34.579 29.383,35.381 C29.383,36.183 30.033,36.833 30.835,36.833 L33.738,36.833 L33.738,39.011 L29.383,39.011 C28.581,39.011 27.931,39.66 27.931,40.462 C27.931,41.265 28.581,41.914 29.383,41.914 L35.19,41.914 C35.992,41.914 36.642,41.265 36.642,40.462 L36.642,30.3 C36.642,29.498 35.992,28.848 35.19,28.848 L29.383,28.848 C28.581,28.848 27.931,29.498 27.931,30.3 C27.931,31.101 28.581,31.751 29.383,31.751 L33.738,31.751 L33.738,33.929 L30.835,33.929 Z M49.972,23.04 L26.215,23.04 C25.559,23.04 25.027,23.69 25.027,24.492 C25.027,25.294 25.559,25.944 26.215,25.944 L49.972,25.944 C50.629,25.944 51.16,25.294 51.16,24.492 C51.16,23.69 50.629,23.04 49.972,23.04 Z M45.353,39.011 L42.449,39.011 L42.449,31.751 L45.353,31.751 L45.353,39.011 Z" id="形状" fill="url(#linearGradient-5)" fill-rule="nonzero"></path>
        </g>
    </g>
</svg>