<?xml version="1.0" encoding="UTF-8"?>
<svg width="76px" height="70px" viewBox="0 0 76 70" version="1.1" xmlns="http://www.w3.org/2000/svg" xmlns:xlink="http://www.w3.org/1999/xlink">
    <title>icon_dyxz</title>
    <defs>
        <linearGradient x1="0%" y1="71.2638942%" x2="100%" y2="33.4261557%" id="linearGradient-1">
            <stop stop-color="#0E1C33" offset="0%"></stop>
            <stop stop-color="#8FDFFE" offset="100%"></stop>
        </linearGradient>
        <linearGradient x1="100%" y1="59.6412731%" x2="0%" y2="38.7530475%" id="linearGradient-2">
            <stop stop-color="#0E1C33" offset="0%"></stop>
            <stop stop-color="#8FDFFE" offset="100%"></stop>
        </linearGradient>
        <linearGradient x1="0%" y1="0%" x2="0%" y2="100%" id="linearGradient-3">
            <stop stop-color="#1DB4FF" stop-opacity="0" offset="0%"></stop>
            <stop stop-color="#1DB4FF" offset="100%"></stop>
        </linearGradient>
        <linearGradient x1="0%" y1="0%" x2="0%" y2="100%" id="linearGradient-4">
            <stop stop-color="#0E1C33" offset="0%"></stop>
            <stop stop-color="#1DB4FF" offset="100%"></stop>
        </linearGradient>
        <linearGradient x1="0%" y1="0%" x2="0%" y2="100%" id="linearGradient-5">
            <stop stop-color="#0060FF" offset="0%"></stop>
            <stop stop-color="#8FDFFE" offset="100%"></stop>
        </linearGradient>
    </defs>
    <g id="图标" stroke="none" stroke-width="1" fill="none" fill-rule="evenodd">
        <g id="icon_dyxz">
            <polygon id="路径" fill="url(#linearGradient-1)" points="0 45.06784 38 59.43184 38 69.8489067 0 55.4838933"></polygon>
            <polygon id="路径" fill="url(#linearGradient-2)" points="38 59.4906133 76 45.01008 76 55.4261333 38 69.9066667"></polygon>
            <polygon id="路径" fill="#142747" points="0.0314133333 45.46304 38 31.4405333 75.9675733 45.46304 38 59.48656"></polygon>
            <polygon id="路径" fill="url(#linearGradient-3)" opacity="0.4" points="0 0.29216 76 0.29216 76 45.6972051 38.4086682 60.29216 0 45.6972051"></polygon>
            <path d="M52.16,38.722 L26.027,38.722 C24.426,38.722 23.124,37.419 23.124,35.818 L23.124,9.685 C23.124,8.084 24.426,6.781 26.027,6.781 L52.16,6.781 C53.761,6.781 55.064,8.084 55.064,9.685 L55.064,35.818 C55.064,37.419 53.761,38.722 52.16,38.722 Z M40.546,31.462 C40.546,32.265 41.195,32.914 41.997,32.914 L47.805,32.914 C48.607,32.914 49.257,32.265 49.257,31.462 L49.257,21.3 C49.257,20.498 48.607,19.848 47.805,19.848 L41.997,19.848 C41.195,19.848 40.546,20.498 40.546,21.3 L40.546,31.462 Z M31.835,24.929 C31.033,24.929 30.383,25.579 30.383,26.381 C30.383,27.183 31.033,27.833 31.835,27.833 L34.738,27.833 L34.738,30.011 L30.383,30.011 C29.581,30.011 28.931,30.66 28.931,31.462 C28.931,32.265 29.581,32.914 30.383,32.914 L36.19,32.914 C36.992,32.914 37.642,32.265 37.642,31.462 L37.642,21.3 C37.642,20.498 36.992,19.848 36.19,19.848 L30.383,19.848 C29.581,19.848 28.931,20.498 28.931,21.3 C28.931,22.101 29.581,22.751 30.383,22.751 L34.738,22.751 L34.738,24.929 L31.835,24.929 Z M50.972,14.04 L27.215,14.04 C26.559,14.04 26.027,14.691 26.027,15.492 C26.027,16.294 26.559,16.944 27.215,16.944 L50.972,16.944 C51.629,16.944 52.16,16.294 52.16,15.492 C52.16,14.691 51.629,14.04 50.972,14.04 Z M46.353,30.011 L43.449,30.011 L43.449,22.751 L46.353,22.751 L46.353,30.011 Z" id="形状" fill="url(#linearGradient-4)" fill-rule="nonzero"></path>
            <path d="M50.16,40.722 L24.027,40.722 C22.426,40.722 21.124,39.419 21.124,37.818 L21.124,11.685 C21.124,10.084 22.426,8.781 24.027,8.781 L50.16,8.781 C51.761,8.781 53.064,10.084 53.064,11.685 L53.064,37.818 C53.064,39.419 51.761,40.722 50.16,40.722 Z M38.546,33.462 C38.546,34.265 39.195,34.914 39.997,34.914 L45.805,34.914 C46.607,34.914 47.257,34.265 47.257,33.462 L47.257,23.3 C47.257,22.498 46.607,21.848 45.805,21.848 L39.997,21.848 C39.195,21.848 38.546,22.498 38.546,23.3 L38.546,33.462 Z M29.835,26.929 C29.033,26.929 28.383,27.579 28.383,28.381 C28.383,29.183 29.033,29.833 29.835,29.833 L32.738,29.833 L32.738,32.011 L28.383,32.011 C27.581,32.011 26.931,32.66 26.931,33.462 C26.931,34.265 27.581,34.914 28.383,34.914 L34.19,34.914 C34.992,34.914 35.642,34.265 35.642,33.462 L35.642,23.3 C35.642,22.498 34.992,21.848 34.19,21.848 L28.383,21.848 C27.581,21.848 26.931,22.498 26.931,23.3 C26.931,24.101 27.581,24.751 28.383,24.751 L32.738,24.751 L32.738,26.929 L29.835,26.929 Z M48.972,16.04 L25.215,16.04 C24.559,16.04 24.027,16.69 24.027,17.492 C24.027,18.294 24.559,18.944 25.215,18.944 L48.972,18.944 C49.629,18.944 50.16,18.294 50.16,17.492 C50.16,16.69 49.629,16.04 48.972,16.04 Z M44.353,32.011 L41.449,32.011 L41.449,24.751 L44.353,24.751 L44.353,32.011 Z" id="形状" fill="url(#linearGradient-5)" fill-rule="nonzero"></path>
        </g>
    </g>
</svg>