<?xml version="1.0" encoding="UTF-8"?>
<svg width="80px" height="87px" viewBox="0 0 80 87" version="1.1" xmlns="http://www.w3.org/2000/svg" xmlns:xlink="http://www.w3.org/1999/xlink">
    <title>icon_no2</title>
    <defs>
        <linearGradient x1="50%" y1="0%" x2="50%" y2="100%" id="linearGradient-1">
            <stop stop-color="#AFD6E6" offset="0%"></stop>
            <stop stop-color="#627399" offset="100%"></stop>
        </linearGradient>
        <path d="M41.4615385,11.6153846 C40.3846154,11 39.0769231,11 38.0769231,11.6153846 L15.3076923,24.7692308 C14.2307692,25.3846154 13.6153846,26.5384615 13.6153846,27.6923077 L13.6153846,54 C13.6153846,55.2307692 14.2307692,56.3846154 15.3076923,56.9230769 L38.0769231,70.0769231 C39.1538462,70.6923077 40.4615385,70.6923077 41.4615385,70.0769231 L64.2307692,56.9230769 C65.3076923,56.3076923 65.9230769,55.1538462 65.9230769,54 L65.9230769,27.6923077 C65.9230769,26.4615385 65.3076923,25.3076923 64.2307692,24.7692308 L41.4615385,11.6153846 Z M43.2307692,8.61538462 L66,21.7692308 C68.1538462,23 69.3846154,25.2307692 69.3846154,27.6923077 L69.3846154,54 C69.3846154,56.4615385 68.0769231,58.6923077 66,59.9230769 L43.2307692,73.0769231 C41.0769231,74.3076923 38.5384615,74.3076923 36.3846154,73.0769231 L13.6153846,59.9230769 C11.4615385,58.6923077 10.2307692,56.4615385 10.2307692,54 L10.2307692,27.6923077 C10.2307692,25.2307692 11.5384615,23 13.6153846,21.7692308 L36.3846154,8.61538462 C38.4615385,7.38461538 41.0769231,7.38461538 43.2307692,8.61538462 L43.2307692,8.61538462 Z" id="path-2"></path>
        <filter x="-25.4%" y="-22.6%" width="150.7%" height="145.2%" filterUnits="objectBoundingBox" id="filter-3">
            <feOffset dx="0" dy="0" in="SourceAlpha" result="shadowOffsetOuter1"></feOffset>
            <feGaussianBlur stdDeviation="5" in="shadowOffsetOuter1" result="shadowBlurOuter1"></feGaussianBlur>
            <feColorMatrix values="0 0 0 0 0.384313725   0 0 0 0 0.450980392   0 0 0 0 0.6  0 0 0 0.75 0" type="matrix" in="shadowBlurOuter1"></feColorMatrix>
        </filter>
        <path d="M47.8892308,55.787 L49.3292308,46.6300769 L47.5938462,46.0393077 C46.7323077,49.6085385 45.2430769,51.2454615 43.1261538,50.9500769 L33.4523077,50.9500769 C34.5353846,47.9716154 36.9846154,45.6208462 40.8,43.8977692 C46.3138462,41.3623846 49.0092308,37.9900769 48.8861538,33.7808462 C48.6892308,28.7346923 45.6123077,26.2362308 39.6553846,26.2854615 C33.6984615,26.4331538 30.5723077,28.747 30.2769231,33.227 C30.2030769,35.1962308 31.0769231,36.2054615 32.8984615,36.2546923 C34.5723077,36.2054615 35.5815385,35.2454615 35.9261538,33.3746923 C36.4676923,29.8054615 37.7107692,28.0700769 39.6553846,28.1685385 C42.0184615,28.2423846 43.2246154,29.9285385 43.2738462,33.227 C43.2492308,36.2546923 41.6123077,38.987 38.3630769,41.4239231 C32.8738462,45.5346923 30.0430769,50.3223846 29.8707692,55.787 L47.8892308,55.787 Z" id="path-4"></path>
        <path d="M47.8892308,55.0177692 L49.3292308,45.8608462 L47.5938462,45.2700769 C46.7323077,48.8393077 45.2430769,50.4762308 43.1261538,50.1808462 L33.4523077,50.1808462 C34.5353846,47.2023846 36.9846154,44.8516154 40.8,43.1285385 C46.3138462,40.5931538 49.0092308,37.2208462 48.8861538,33.0116154 C48.6892308,27.9654615 45.6123077,25.467 39.6553846,25.5162308 C33.6984615,25.6639231 30.5723077,27.9777692 30.2769231,32.4577692 C30.2030769,34.427 31.0769231,35.4362308 32.8984615,35.4854615 C34.5723077,35.4362308 35.5815385,34.4762308 35.9261538,32.6054615 C36.4676923,29.0362308 37.7107692,27.3008462 39.6553846,27.3993077 C42.0184615,27.4731538 43.2246154,29.1593077 43.2738462,32.4577692 C43.2492308,35.4854615 41.6123077,38.2177692 38.3630769,40.6546923 C32.8738462,44.7654615 30.0430769,49.5531538 29.8707692,55.0177692 L47.8892308,55.0177692 Z" id="path-5"></path>
    </defs>
    <g id="页面-1" stroke="none" stroke-width="1" fill="none" fill-rule="evenodd">
        <g id="icon_no2" transform="translate(0.000000, 3.000000)" fill-rule="nonzero">
            <path d="M43.2307692,8.61538462 L66,21.7692308 C68.1538462,23 69.3846154,25.2307692 69.3846154,27.6923077 L69.3846154,54 C69.3846154,56.4615385 68.0769231,58.6923077 66,59.9230769 L43.2307692,73.0769231 C41.0769231,74.3076923 38.5384615,74.3076923 36.3846154,73.0769231 L13.6153846,59.9230769 C11.4615385,58.6923077 10.2307692,56.4615385 10.2307692,54 L10.2307692,27.6923077 C10.2307692,25.2307692 11.5384615,23 13.6153846,21.7692308 L36.3846154,8.61538462 C38.4615385,7.38461538 41.0769231,7.38461538 43.2307692,8.61538462 L43.2307692,8.61538462 Z" id="路径" fill="#596E99"></path>
            <polygon id="路径" fill="#AFD6E6" opacity="0.1" points="44.2307692 36.5384615 44.2307692 36.5384615 54.8461538 17.7692308 48.1538462 13.5384615 39.7692308 34 31.3076923 13.3076923 24.6923077 17.7692308 35.3846154 36.4615385 35.3076923 36.5384615 11.8461538 29.4615385 11.7692308 37.7692308 34 41.3846154 34.0769231 41.6153846 12.9230769 56.6153846 19.4615385 62 37.3076923 45.5384615 35.6153846 71.6153846 44 71.6153846 42.3076923 45.5384615 60 61.8461538 66.6923077 56.6153846 45.5384615 41.6153846 45.6153846 41.3846154 67.7692308 37.7692308 67.4615385 29.5384615"></polygon>
            <g id="形状">
                <use fill="black" fill-opacity="1" filter="url(#filter-3)" xlink:href="#path-2"></use>
                <use fill="url(#linearGradient-1)" xlink:href="#path-2"></use>
            </g>
            <g id="2">
                <use fill="#000000" xlink:href="#path-4"></use>
                <use fill="#661704" xlink:href="#path-4"></use>
            </g>
            <g id="2">
                <use fill="#000000" xlink:href="#path-5"></use>
                <use fill="#FFFFFF" xlink:href="#path-5"></use>
            </g>
        </g>
    </g>
</svg>