<?xml version="1.0" encoding="UTF-8"?>
<svg width="120px" height="32px" viewBox="0 0 120 32" version="1.1" xmlns="http://www.w3.org/2000/svg" xmlns:xlink="http://www.w3.org/1999/xlink">
    <title>tab_5zi_defult</title>
    <defs>
        <linearGradient x1="0%" y1="100%" x2="0%" y2="0%" id="linearGradient-1">
            <stop stop-color="#0060E3" offset="0%"></stop>
            <stop stop-color="#0060E3" stop-opacity="0.33" offset="100%"></stop>
        </linearGradient>
        <linearGradient x1="0%" y1="100%" x2="0%" y2="0%" id="linearGradient-2">
            <stop stop-color="#0060E3" offset="0%"></stop>
            <stop stop-color="#0060E3" stop-opacity="0.34" offset="100%"></stop>
            <stop stop-color="#0060E3" offset="100%"></stop>
        </linearGradient>
        <linearGradient x1="59.3836825%" y1="46.7681701%" x2="80.4615627%" y2="53.4933427%" id="linearGradient-3">
            <stop stop-color="#0060E3" offset="0%"></stop>
            <stop stop-color="#979797" stop-opacity="0" offset="100%"></stop>
        </linearGradient>
    </defs>
    <g id="页面-1" stroke="none" stroke-width="1" fill="none" fill-rule="evenodd">
        <g id="tab_5zi_defult">
            <path d="M116.411546,2 L18.7447744,2 C16.7627152,2 15.3466709,2.82691779 13.9608409,5.67370085 L2,28.3262991 C2,30.355444 3.60639451,32 5.58845369,32 L104.450705,32 C106.432765,32 108.543738,30.8720099 109.832882,28.3262991 L120,5.67370085 C120,3.64455595 118.393605,2 116.411546,2 Z" id="路径" fill-opacity="0.2" fill="url(#linearGradient-1)"></path>
            <path d="M114.412553,0 L16.7457815,0 C14.7637223,0 13.3466709,0.826917789 11.9608409,3.67370085 L0,26.3273302 C0,28.355444 1.60740165,30 3.58845369,30 L102.451713,30 C104.432765,30 106.544745,28.8720099 107.83389,26.3273302 L118,3.67370085 C118,1.64558702 116.393605,0 114.412553,0 Z" id="路径" fill="url(#linearGradient-2)" opacity="0.600000024"></path>
            <path d="M114.412553,0.5 C115.263631,0.5 116.033649,0.854430849 116.591307,1.42549669 C117.131124,1.97829311 117.47231,2.73381154 117.498389,3.57024181 L117.498389,3.57024181 L107.382609,26.1117183 C106.815175,27.2279502 106.080028,28.0531456 105.264445,28.6096802 C104.37796,29.2145967 103.398769,29.5 102.451713,29.5 L102.451713,29.5 L3.58845369,29.5 C2.73718205,29.5 1.9667714,29.1456787 1.40882553,28.5746386 C0.872505575,28.0257319 0.532161887,27.2768369 0.502162215,26.4471277 L0.502162215,26.4471277 L12.4068467,3.89985753 C13.0296732,2.61883057 13.6502783,1.76585024 14.3431213,1.23391092 C15.0529133,0.688958808 15.8338182,0.5 16.7457815,0.5 L16.7457815,0.5 Z" id="路径备份-8" stroke="url(#linearGradient-3)"></path>
        </g>
    </g>
</svg>