<?xml version="1.0" encoding="UTF-8"?>
<svg width="102px" height="32px" viewBox="0 0 102 32" version="1.1" xmlns="http://www.w3.org/2000/svg" xmlns:xlink="http://www.w3.org/1999/xlink">
    <title>tab_defult</title>
    <defs>
        <linearGradient x1="0%" y1="100%" x2="0%" y2="0%" id="linearGradient-1">
            <stop stop-color="#0060E3" offset="0%"></stop>
            <stop stop-color="#0060E3" stop-opacity="0.32941" offset="100%"></stop>
        </linearGradient>
        <linearGradient x1="33.1938086%" y1="44.878804%" x2="46.673184%" y2="53.8316494%" id="linearGradient-2">
            <stop stop-color="#0060E3" offset="0%"></stop>
            <stop stop-color="#00BAFF" stop-opacity="0" offset="100%"></stop>
        </linearGradient>
    </defs>
    <g id="页面-1" stroke="none" stroke-width="1" fill="none" fill-rule="evenodd">
        <g id="tab_defult" fill="url(#linearGradient-1)">
            <path d="M98.4079344,2 L18.7673427,2 C16.7827315,2 15.3638555,2.82588672 13.9762411,5.67370085 L2,28.3262991 C2,30.355444 3.60846283,32 5.59307403,32 L86.4316933,32 C88.415296,32 90.5299961,30.8720099 91.8208001,28.3262991 L102,5.67370085 C102,3.64455595 100.391537,2 98.4079344,2 Z" id="路径" fill-opacity="0.2"></path>
            <path d="M96.406926,0.5 C97.259899,0.5 98.0315198,0.854274651 98.590238,1.42553019 C99.1307071,1.97812713 99.4722525,2.73347159 99.4983844,3.5701077 L99.4983844,3.5701077 L89.3686077,26.1104875 C88.8003724,27.2273288 88.0643725,28.0528532 87.2477388,28.6095443 C86.3601159,29.2146281 85.3795557,29.5 84.4306848,29.5 L84.4306848,29.5 L3.59307403,29.5 C2.74010099,29.5 1.96848015,29.1457253 1.40976198,28.5744698 C0.872815282,28.0254743 0.532207881,27.2763654 0.502166671,26.4462397 L0.502166671,26.4462397 L12.4221444,3.90006145 C13.0457447,2.61862072 13.6669099,1.7656204 14.3603791,1.23377301 C15.071049,0.688733783 15.852941,0.5 16.7663342,0.5 L16.7663342,0.5 Z" id="路径" stroke="url(#linearGradient-2)" fill-opacity="0.6"></path>
        </g>
    </g>
</svg>
