<?xml version="1.0" encoding="UTF-8"?>
<svg width="170px" height="466px" viewBox="0 0 170 466" version="1.1" xmlns="http://www.w3.org/2000/svg" xmlns:xlink="http://www.w3.org/1999/xlink">
    <title>shang1_cheng</title>
    <defs>
        <linearGradient x1="100%" y1="50%" x2="0%" y2="50%" id="linearGradient-1">
            <stop stop-color="#94BBF4" stop-opacity="0" offset="0%"></stop>
            <stop stop-color="#5B86E5" stop-opacity="0.75" offset="100%"></stop>
        </linearGradient>
        <linearGradient x1="100%" y1="50%" x2="0%" y2="50%" id="linearGradient-2">
            <stop stop-color="#62A2CD" stop-opacity="0" offset="0%"></stop>
            <stop stop-color="#62A2CD" offset="100%"></stop>
        </linearGradient>
        <linearGradient x1="58.2730254%" y1="100%" x2="58.2730254%" y2="0%" id="linearGradient-3">
            <stop stop-color="#C38B29" offset="0%"></stop>
            <stop stop-color="#FFC35A" offset="100%"></stop>
        </linearGradient>
        <polygon id="path-4" points="-9 40 -3.95302074 28 15.9530207 28 21 40"></polygon>
        <filter x="-10.0%" y="-25.0%" width="120.0%" height="150.0%" filterUnits="objectBoundingBox" id="filter-5">
            <feGaussianBlur stdDeviation="3" in="SourceAlpha" result="shadowBlurInner1"></feGaussianBlur>
            <feOffset dx="0" dy="0" in="shadowBlurInner1" result="shadowOffsetInner1"></feOffset>
            <feComposite in="shadowOffsetInner1" in2="SourceAlpha" operator="arithmetic" k2="-1" k3="1" result="shadowInnerInner1"></feComposite>
            <feColorMatrix values="0 0 0 0 1   0 0 0 0 0.764705882   0 0 0 0 0.352941176  0 0 0 0.75 0" type="matrix" in="shadowInnerInner1"></feColorMatrix>
        </filter>
        <polygon id="path-6" points="149 28 154.046979 40 173.953021 40 179 28"></polygon>
        <filter x="-10.0%" y="-25.0%" width="120.0%" height="150.0%" filterUnits="objectBoundingBox" id="filter-7">
            <feGaussianBlur stdDeviation="3" in="SourceAlpha" result="shadowBlurInner1"></feGaussianBlur>
            <feOffset dx="0" dy="0" in="shadowBlurInner1" result="shadowOffsetInner1"></feOffset>
            <feComposite in="shadowOffsetInner1" in2="SourceAlpha" operator="arithmetic" k2="-1" k3="1" result="shadowInnerInner1"></feComposite>
            <feColorMatrix values="0 0 0 0 1   0 0 0 0 0.764705882   0 0 0 0 0.352941176  0 0 0 0.75 0" type="matrix" in="shadowInnerInner1"></feColorMatrix>
        </filter>
    </defs>
    <g id="页面-1" stroke="none" stroke-width="1" fill="none" fill-rule="evenodd">
        <g id="shang1_cheng">
            <rect id="矩形" stroke="url(#linearGradient-2)" fill="url(#linearGradient-1)" opacity="0.5" transform="translate(85.000000, 233.000000) rotate(90.000000) translate(-85.000000, -233.000000) " x="-147.5" y="148.5" width="465" height="169" rx="10"></rect>
            <path d="M61,-51 L68.1459854,-51 L68.1459854,-51 L74.0838879,-37.3650931 L95.9732155,-37.3650931 L101.854015,-51 L109,-51 C114.522847,-51 119,-46.5228475 119,-41 L119,109 C119,114.522847 114.522847,119 109,119 L101.854015,119 L101.854015,119 L95.9732155,105 L74.0838879,105 L68.1459854,119 L61,119 C55.4771525,119 51,114.522847 51,109 L51,-41 C51,-46.5228475 55.4771525,-51 61,-51 Z" id="矩形" fill="url(#linearGradient-3)" transform="translate(85.000000, 34.000000) rotate(90.000000) translate(-85.000000, -34.000000) "></path>
            <path d="M128.188,29.365 C127.773,29.862 127.137,30.156 126.282,30.245 C125.426,30.335 124.3,30.369 122.903,30.347 C122.66,29.245 122.373,28.206 122.044,27.232 C123.519,27.318 124.321,27.361 124.45,27.361 C125.353,27.361 125.804,26.924 125.804,26.051 L125.804,24.095 L121.335,24.095 L121.335,30.111 L118.306,30.111 L118.306,24.095 L113.654,24.095 C113.432,27.254 112.827,29.459 111.839,30.713 C110.922,30.054 109.998,29.452 109.067,28.908 C110.228,27.333 110.786,24.532 110.743,20.508 L110.743,10.388 L128.812,10.388 L128.812,27.254 C128.812,28.163 128.604,28.867 128.188,29.365 Z M118.306,13.224 L113.751,13.224 L113.751,15.888 L118.306,15.888 L118.306,13.224 Z M118.306,18.66 L113.751,18.66 L113.751,21.324 L118.306,21.324 L118.306,18.66 Z M125.804,13.224 L121.335,13.224 L121.335,15.888 L125.804,15.888 L125.804,13.224 Z M125.804,18.66 L121.335,18.66 L121.335,21.324 L125.804,21.324 L125.804,18.66 Z M111.56,37.594 L111.56,45.059 C113.228,43.641 114.775,42.098 116.2,40.429 L118.886,42.492 C116.752,44.87 114.31,47.1 111.56,49.184 L111.56,53.578 C111.56,54.652 112.025,55.189 112.956,55.189 L113.88,55.189 C114.589,55.189 115.056,54.953 115.282,54.48 C115.507,54.008 115.692,52.59 115.835,50.226 C117.009,50.599 118.098,50.914 119.101,51.172 C118.843,53.241 118.619,54.713 118.429,55.587 C118.239,56.46 117.781,57.124 117.054,57.579 C116.327,58.034 115.326,58.261 114.052,58.261 L112.204,58.261 C109.626,58.261 108.337,56.979 108.337,54.416 L108.337,51.472 C107.506,52.024 106.654,52.561 105.78,53.084 C105.322,52.325 104.692,51.386 103.89,50.269 C105.444,49.439 106.926,48.529 108.337,47.541 L108.337,37.594 L111.56,37.594 Z M106.597,30.541 C103.718,30.24 101.211,29.567 99.077,28.521 C97.931,29.295 96.177,30.039 93.813,30.756 C93.427,30.111 92.89,29.28 92.202,28.263 C94.078,27.848 95.504,27.404 96.478,26.931 C95.475,26.172 94.58,25.292 93.792,24.289 L95.597,22.871 L93.577,22.871 L93.577,15.631 L98.819,15.631 L98.819,13.976 L92.954,13.976 L92.954,11.506 L98.819,11.506 L98.819,9.486 L101.677,9.486 L101.677,11.506 L107.8,11.506 L107.8,13.976 L101.677,13.976 L101.677,15.631 L106.962,15.631 L106.962,23.752 L104.212,23.752 L104.212,22.871 L101.634,22.871 C101.548,24.318 101.319,25.47 100.946,26.33 C102.937,27.003 105.329,27.376 108.122,27.447 C107.449,28.793 106.94,29.825 106.597,30.541 Z M98.347,25.148 C98.576,24.561 98.726,23.802 98.798,22.871 L95.769,22.871 C96.442,23.759 97.301,24.518 98.347,25.148 Z M98.819,18.015 L96.327,18.015 L96.327,20.486 L98.819,20.486 L98.819,18.015 Z M101.677,20.486 L104.212,20.486 L104.212,18.015 L101.677,18.015 L101.677,20.486 Z M91.772,30.713 L89.087,30.713 L89.087,20.765 C88.586,21.696 88.056,22.606 87.497,23.494 C87.339,22.176 87.103,20.816 86.788,19.412 C88.406,16.39 89.61,13.095 90.397,9.529 L93.255,10.238 C92.839,11.814 92.345,13.361 91.772,14.879 L91.772,30.713 Z M80.944,25.75 L83.479,24.719 C84.324,26.179 85.155,27.784 85.972,29.531 L83.329,30.541 C82.441,28.664 81.646,27.068 80.944,25.75 Z M84.709,16.506 C84.298,16.968 83.778,17.253 83.152,17.36 C82.525,17.468 81.367,17.486 79.677,17.414 C79.505,16.511 79.319,15.717 79.118,15.029 C80.278,15.144 81.123,15.201 81.653,15.201 C82.104,15.201 82.38,15.065 82.48,14.793 C82.581,14.521 82.642,13.826 82.663,12.709 L79.333,12.709 C79.011,15.194 77.965,16.956 76.196,17.994 C75.666,17.349 75.015,16.648 74.241,15.888 C75.609,15.308 76.433,14.249 76.712,12.709 L74.585,12.709 L74.585,10.345 L85.456,10.345 L85.327,14.406 C85.327,15.344 85.121,16.044 84.709,16.506 Z M65.905,10.431 L73.64,10.431 L73.64,24.482 L65.905,24.482 L65.905,10.431 Z M68.569,22.033 L70.976,22.033 L70.976,18.638 L68.569,18.638 L68.569,22.033 Z M68.569,16.189 L70.976,16.189 L70.976,12.881 L68.569,12.881 L68.569,16.189 Z M70.03,25.943 C69.3,27.476 68.412,29.101 67.366,30.82 L64.874,29.467 C65.848,28.006 66.707,26.452 67.452,24.804 L70.03,25.943 Z M48.89,26.76 L50.651,26.76 L50.651,16.039 L53.552,16.039 L53.552,26.76 L55.872,26.76 L55.872,13.654 L49.577,13.654 L49.577,10.818 L63.843,10.818 L63.843,13.654 L58.772,13.654 L58.772,18.51 L63.327,18.51 L63.327,21.324 L58.772,21.324 L58.772,26.76 L64.101,26.76 L64.101,29.638 L48.89,29.638 L48.89,26.76 Z M45.323,29.488 L43.991,27.125 C44.349,26.681 44.535,26.144 44.55,25.513 L44.55,18.681 L42.831,18.681 L42.831,15.888 L47.472,15.888 L47.472,24.461 L49.384,22.957 C49.441,23.573 49.613,24.554 49.899,25.9 C48.539,26.86 47.013,28.056 45.323,29.488 Z M45.882,14.879 C45.108,13.489 44.313,12.15 43.497,10.861 L45.86,9.379 C46.691,10.553 47.565,11.871 48.481,13.332 C47.808,13.69 46.942,14.206 45.882,14.879 Z M61.77,47.713 L54.003,47.713 L54.003,44.898 L62.296,44.898 C62.425,43.881 62.514,42.743 62.564,41.482 L55.378,41.482 L55.378,38.668 L73.554,38.668 L73.554,41.482 L65.776,41.482 C65.705,42.693 65.597,43.831 65.454,44.898 L74.886,44.898 L74.886,47.713 L64.949,47.713 C64.842,48.2 64.72,48.665 64.584,49.109 L67.645,49.109 L67.645,53.836 C67.645,54.853 68.168,55.361 69.214,55.361 L69.88,55.361 C70.245,55.361 70.598,55.3 70.938,55.178 C71.278,55.057 71.523,54.695 71.674,54.094 C71.824,53.492 71.964,52.647 72.093,51.558 C73.425,52.06 74.427,52.418 75.101,52.633 C74.785,54.38 74.488,55.592 74.209,56.269 C73.93,56.946 73.498,57.425 72.915,57.708 C72.331,57.991 71.57,58.133 70.632,58.133 L68.011,58.133 C65.69,58.133 64.53,57.087 64.53,54.996 L64.53,49.313 C63.47,53.059 60.756,56.149 56.388,58.584 C55.657,57.853 54.798,57.044 53.81,56.156 C58.436,53.635 61.089,50.821 61.77,47.713 Z M70.847,25.922 L73.575,25.213 C74.177,26.674 74.728,28.127 75.229,29.574 L72.351,30.261 C71.821,28.6 71.319,27.153 70.847,25.922 Z M74.972,18.209 L85.005,18.209 L85.005,24.633 L74.972,24.633 L74.972,18.209 Z M77.571,22.398 L82.405,22.398 L82.405,20.443 L77.571,20.443 L77.571,22.398 Z M75.938,25.814 L78.581,25.041 C79.097,26.072 79.727,27.476 80.472,29.252 L77.679,30.068 C77.02,28.349 76.44,26.931 75.938,25.814 Z M81.868,38.324 C80.651,40.53 79.541,42.442 78.538,44.06 C79.233,44.039 79.881,44.01 80.482,43.974 L82.04,41.16 L84.081,42.116 L84.081,39.119 C88.793,38.761 92.668,38.231 95.704,37.529 L96.95,40.322 C95.518,40.58 94.025,40.805 92.471,40.999 C92.492,42.718 92.539,44.297 92.61,45.736 L96.735,45.736 L96.735,48.293 L92.761,48.293 C92.854,49.747 93.036,51.231 93.309,52.745 C93.581,54.26 93.863,55.017 94.157,55.017 C94.494,55.017 94.737,53.771 94.888,51.279 C95.718,51.823 96.478,52.253 97.165,52.568 C96.979,54.681 96.664,56.215 96.22,57.171 C95.776,58.127 95.103,58.605 94.2,58.605 C92.861,58.605 91.887,57.805 91.278,56.204 C90.67,54.604 90.197,51.967 89.86,48.293 L86.917,48.293 L86.917,54.308 C87.905,53.736 88.879,53.155 89.839,52.568 C89.853,54.001 89.875,55.068 89.903,55.769 C88.17,56.657 86.509,57.653 84.919,58.756 L83.437,56.371 C83.866,56.013 84.081,55.139 84.081,53.75 L84.081,42.889 C83.093,44.601 81.632,46.853 79.698,49.646 C81.231,49.403 82.477,49.181 83.437,48.98 C83.322,49.911 83.243,50.806 83.2,51.666 C80.321,52.024 78.18,52.332 76.776,52.59 L76.132,50.205 C77.077,49.46 78.04,48.218 79.021,46.477 C77.861,46.578 76.948,46.696 76.282,46.832 L75.702,44.383 C76.762,42.907 77.944,40.544 79.247,37.293 L81.868,38.324 Z M86.917,45.736 L89.678,45.736 C89.606,44.354 89.556,42.879 89.527,41.31 C88.675,41.389 87.805,41.461 86.917,41.525 L86.917,45.736 Z M83.265,56.306 C80.429,56.793 78.108,57.223 76.304,57.595 L75.745,54.588 L83.394,53.449 C83.308,54.48 83.265,55.433 83.265,56.306 Z M106.017,38.496 C105.343,40.157 104.613,41.726 103.825,43.201 L103.825,58.455 L100.731,58.455 L100.731,48.185 C100.037,49.138 99.313,50.04 98.562,50.892 C98.318,49.546 98.046,48.293 97.745,47.133 C99.979,44.311 101.741,41.103 103.03,37.508 L106.017,38.496 Z" id="形状" fill="#FFFFFF"></path>
            <g id="路径" transform="translate(6.000000, 34.000000) rotate(90.000000) translate(-6.000000, -34.000000) ">
                <use fill="#FFC35A" fill-rule="evenodd" xlink:href="#path-4"></use>
                <use fill="black" fill-opacity="1" filter="url(#filter-5)" xlink:href="#path-4"></use>
            </g>
            <g id="路径" transform="translate(164.000000, 34.000000) rotate(90.000000) translate(-164.000000, -34.000000) ">
                <use fill="#FFC35A" fill-rule="evenodd" xlink:href="#path-6"></use>
                <use fill="black" fill-opacity="1" filter="url(#filter-7)" xlink:href="#path-6"></use>
            </g>
        </g>
    </g>
</svg>