<?xml version="1.0" encoding="UTF-8"?>
<svg width="170px" height="466px" viewBox="0 0 170 466" version="1.1" xmlns="http://www.w3.org/2000/svg" xmlns:xlink="http://www.w3.org/1999/xlink">
    <title>shang1_lv</title>
    <defs>
        <linearGradient x1="100%" y1="50%" x2="0%" y2="50%" id="linearGradient-1">
            <stop stop-color="#94BBF4" stop-opacity="0" offset="0%"></stop>
            <stop stop-color="#5B86E5" stop-opacity="0.75" offset="100%"></stop>
        </linearGradient>
        <linearGradient x1="100%" y1="50%" x2="0%" y2="50%" id="linearGradient-2">
            <stop stop-color="#62A2CD" stop-opacity="0" offset="0%"></stop>
            <stop stop-color="#62A2CD" offset="100%"></stop>
        </linearGradient>
        <linearGradient x1="58.2730254%" y1="100%" x2="58.2730254%" y2="0%" id="linearGradient-3">
            <stop stop-color="#11B149" offset="0%"></stop>
            <stop stop-color="#28EF6E" offset="100%"></stop>
        </linearGradient>
        <polygon id="path-4" points="-9 40 -3.95302074 28 15.9530207 28 21 40"></polygon>
        <filter x="-10.0%" y="-25.0%" width="120.0%" height="150.0%" filterUnits="objectBoundingBox" id="filter-5">
            <feGaussianBlur stdDeviation="3" in="SourceAlpha" result="shadowBlurInner1"></feGaussianBlur>
            <feOffset dx="0" dy="0" in="shadowBlurInner1" result="shadowOffsetInner1"></feOffset>
            <feComposite in="shadowOffsetInner1" in2="SourceAlpha" operator="arithmetic" k2="-1" k3="1" result="shadowInnerInner1"></feComposite>
            <feColorMatrix values="0 0 0 0 0.156862745   0 0 0 0 0.937254902   0 0 0 0 0.431372549  0 0 0 0.75 0" type="matrix" in="shadowInnerInner1"></feColorMatrix>
        </filter>
        <polygon id="path-6" points="149 28 154.046979 40 173.953021 40 179 28"></polygon>
        <filter x="-10.0%" y="-25.0%" width="120.0%" height="150.0%" filterUnits="objectBoundingBox" id="filter-7">
            <feGaussianBlur stdDeviation="3" in="SourceAlpha" result="shadowBlurInner1"></feGaussianBlur>
            <feOffset dx="0" dy="0" in="shadowBlurInner1" result="shadowOffsetInner1"></feOffset>
            <feComposite in="shadowOffsetInner1" in2="SourceAlpha" operator="arithmetic" k2="-1" k3="1" result="shadowInnerInner1"></feComposite>
            <feColorMatrix values="0 0 0 0 0.156862745   0 0 0 0 0.937254902   0 0 0 0 0.431372549  0 0 0 0.75 0" type="matrix" in="shadowInnerInner1"></feColorMatrix>
        </filter>
    </defs>
    <g id="页面-1" stroke="none" stroke-width="1" fill="none" fill-rule="evenodd">
        <g id="shang1_lv">
            <rect id="矩形" stroke="url(#linearGradient-2)" fill="url(#linearGradient-1)" opacity="0.5" transform="translate(85.000000, 233.000000) rotate(90.000000) translate(-85.000000, -233.000000) " x="-147.5" y="148.5" width="465" height="169" rx="10"></rect>
            <path d="M61,-51 L68.1459854,-51 L68.1459854,-51 L74.0838879,-37.3650931 L95.9732155,-37.3650931 L101.854015,-51 L109,-51 C114.522847,-51 119,-46.5228475 119,-41 L119,109 C119,114.522847 114.522847,119 109,119 L101.854015,119 L101.854015,119 L95.9732155,105 L74.0838879,105 L68.1459854,119 L61,119 C55.4771525,119 51,114.522847 51,109 L51,-41 C51,-46.5228475 55.4771525,-51 61,-51 Z" id="矩形" fill="url(#linearGradient-3)" transform="translate(85.000000, 34.000000) rotate(90.000000) translate(-85.000000, -34.000000) "></path>
            <path d="M129.165,27.426 L129.165,29.875 L114.427,29.875 L114.427,27.608 C112.536,28.131 110.502,28.743 108.325,29.445 L107.724,26.394 L110.28,25.814 L110.28,20.529 L108.218,20.529 L108.218,17.865 L110.28,17.865 L110.28,13.353 L108.132,13.353 L108.132,10.646 L115.179,10.646 L115.179,13.353 L113.03,13.353 L113.03,17.865 L115.028,17.865 L115.028,20.529 L113.03,20.529 L113.03,25.116 C113.796,24.908 114.541,24.697 115.265,24.482 C115.207,25.499 115.2,26.48 115.243,27.426 L120.571,27.426 L120.571,25.556 L115.673,25.556 L115.673,23.107 L120.571,23.107 L120.571,21.56 L115.78,21.56 L115.78,10.41 L128.112,10.41 L128.112,21.56 L123.321,21.56 L123.321,23.107 L128.22,23.107 L128.22,25.556 L123.321,25.556 L123.321,27.426 L129.165,27.426 Z M120.571,12.816 L118.466,12.816 L118.466,14.857 L120.571,14.857 L120.571,12.816 Z M120.571,17.092 L118.466,17.092 L118.466,19.154 L120.571,19.154 L120.571,17.092 Z M125.427,12.816 L123.321,12.816 L123.321,14.857 L125.427,14.857 L125.427,12.816 Z M125.427,19.154 L125.427,17.092 L123.321,17.092 L123.321,19.154 L125.427,19.154 Z M110.56,37.594 L110.56,45.059 C112.228,43.641 113.775,42.098 115.2,40.429 L117.886,42.492 C115.752,44.87 113.31,47.1 110.56,49.184 L110.56,53.578 C110.56,54.652 111.025,55.189 111.956,55.189 L112.88,55.189 C113.589,55.189 114.056,54.953 114.282,54.48 C114.507,54.008 114.692,52.59 114.835,50.226 C116.009,50.599 117.098,50.914 118.101,51.172 C117.843,53.241 117.619,54.713 117.429,55.587 C117.239,56.46 116.781,57.124 116.054,57.579 C115.327,58.034 114.326,58.261 113.052,58.261 L111.204,58.261 C108.626,58.261 107.337,56.979 107.337,54.416 L107.337,51.472 C106.506,52.024 105.654,52.561 104.78,53.084 C104.322,52.325 103.692,51.386 102.89,50.269 C104.444,49.439 105.926,48.529 107.337,47.541 L107.337,37.594 L110.56,37.594 Z M104.544,14.148 L103.04,15.244 L106.542,15.244 L106.542,18.338 L103.62,18.338 L103.62,17.435 L89.354,17.435 L89.354,18.338 L86.433,18.338 L86.433,15.244 L87.55,15.244 C87.22,14.814 86.647,14.163 85.831,13.289 C87.392,12.143 88.524,10.84 89.226,9.379 L92.19,9.379 C91.961,9.894 91.718,10.388 91.46,10.861 L97.003,10.861 L97.003,12.902 L92.878,12.902 C93.308,13.375 93.73,13.847 94.145,14.32 L92.899,15.244 L94.983,15.244 C94.854,14.872 94.726,14.492 94.597,14.105 L97.024,13.697 C97.182,14.198 97.339,14.714 97.497,15.244 L102.438,15.244 C101.851,14.499 101.336,13.89 100.892,13.418 L101.558,12.902 L100.591,12.902 C100.118,13.647 99.588,14.342 99.001,14.986 C98.586,14.671 97.826,14.148 96.724,13.418 C97.755,12.286 98.6,10.94 99.259,9.379 L102.245,9.379 C102.073,9.894 101.88,10.388 101.665,10.861 L106.628,10.861 L106.628,12.902 L103.405,12.902 C103.792,13.318 104.171,13.733 104.544,14.148 Z M91.46,12.902 L90.042,12.902 C89.326,13.776 88.509,14.556 87.593,15.244 L91.933,15.244 C91.546,14.757 91.095,14.206 90.579,13.59 L91.46,12.902 Z M75.927,26.76 L75.927,30.67 L73.091,30.67 L73.091,26.684 C71.057,28.367 68.371,29.638 65.034,30.498 C64.662,29.567 64.268,28.722 63.853,27.963 C66.574,27.476 68.905,26.688 70.846,25.599 L64.304,25.599 L64.304,23.365 L73.091,23.365 L73.091,21.775 L75.927,21.775 L75.927,23.365 L84.671,23.365 L84.671,25.599 L78.032,25.599 C79.858,26.602 82.25,27.361 85.208,27.877 C84.75,28.808 84.356,29.681 84.026,30.498 C80.689,29.66 77.989,28.414 75.927,26.76 Z M78.827,19.186 L83.962,20.271 L82.544,22.849 C80.324,22.112 78.064,21.439 75.766,20.83 C73.56,21.646 70.369,22.305 66.194,22.806 C65.851,21.933 65.478,21.109 65.077,20.336 C67.498,20.214 69.549,20.01 71.232,19.723 C69.85,19.408 68.457,19.118 67.054,18.853 C67.662,18.194 68.246,17.521 68.805,16.834 L64.304,16.834 L64.304,14.814 L70.352,14.814 C70.724,14.299 71.086,13.776 71.437,13.246 L74.681,13.826 L73.875,14.814 L84.757,14.814 L84.757,16.834 L81.104,16.834 C80.431,17.751 79.672,18.535 78.827,19.186 Z M72.178,16.834 L71.415,17.715 L75.465,18.499 C76.367,18.069 77.119,17.514 77.721,16.834 L72.178,16.834 Z M81.47,13.181 L67.462,13.181 L67.462,14.428 L64.583,14.428 L64.583,10.969 L72.758,10.969 C72.557,10.453 72.367,10.002 72.188,9.615 L75.819,9.314 C75.984,9.765 76.17,10.317 76.378,10.969 L84.349,10.969 L84.349,14.428 L81.47,14.428 L81.47,13.181 Z M57.901,14.793 C58.947,13.318 59.885,11.799 60.716,10.238 L63.187,11.57 C62.284,13.146 61.296,14.685 60.222,16.189 L57.901,14.793 Z M62.37,30.584 L59.448,30.584 L59.448,29.51 L49.093,29.51 L49.093,26.888 L59.448,26.888 L59.448,24.418 L49.974,24.418 L49.974,21.84 L59.448,21.84 L59.448,19.412 L49.694,19.412 L49.694,16.791 L54.507,16.791 L54.507,9.336 L57.493,9.336 L57.493,16.791 L62.37,16.791 L62.37,30.584 Z M49.007,11.441 L51.37,10.26 C52.229,11.577 53.117,13.117 54.034,14.879 L51.478,16.146 C50.647,14.399 49.823,12.831 49.007,11.441 Z M49.522,16.426 L47.181,16.426 L47.181,18.091 C48.455,18.921 49.529,19.663 50.403,20.314 L48.835,22.763 C48.298,22.226 47.746,21.704 47.181,21.195 L47.181,30.605 L44.452,30.605 L44.452,21.539 C43.879,22.921 43.199,24.282 42.411,25.621 C42.254,24.633 42.017,23.322 41.702,21.689 C42.697,20.021 43.5,18.266 44.108,16.426 L41.874,16.426 L41.874,13.633 L44.452,13.633 L44.452,9.336 L47.181,9.336 L47.181,13.633 L49.522,13.633 L49.522,16.426 Z M53.003,47.713 L53.003,44.898 L61.296,44.898 C61.425,43.881 61.514,42.743 61.564,41.482 L54.378,41.482 L54.378,38.668 L72.554,38.668 L72.554,41.482 L64.776,41.482 C64.705,42.693 64.597,43.831 64.454,44.898 L73.886,44.898 L73.886,47.713 L63.949,47.713 C63.842,48.2 63.72,48.665 63.584,49.109 L66.645,49.109 L66.645,53.836 C66.645,54.853 67.168,55.361 68.214,55.361 L68.88,55.361 C69.245,55.361 69.598,55.3 69.938,55.178 C70.278,55.057 70.523,54.695 70.674,54.094 C70.824,53.492 70.964,52.647 71.093,51.558 C72.425,52.06 73.427,52.418 74.101,52.633 C73.785,54.38 73.488,55.592 73.209,56.269 C72.93,56.946 72.498,57.425 71.915,57.708 C71.331,57.991 70.57,58.133 69.632,58.133 L67.011,58.133 C64.69,58.133 63.53,57.087 63.53,54.996 L63.53,49.313 C62.47,53.059 59.756,56.149 55.388,58.584 C54.657,57.853 53.798,57.044 52.81,56.156 C57.436,53.635 60.089,50.821 60.77,47.713 L53.003,47.713 Z M80.868,38.324 C79.651,40.53 78.541,42.442 77.538,44.06 C78.233,44.039 78.881,44.01 79.482,43.974 L81.04,41.16 L83.081,42.116 L83.081,39.119 C87.793,38.761 91.668,38.231 94.704,37.529 L95.95,40.322 C94.518,40.58 93.025,40.805 91.471,40.999 C91.492,42.718 91.539,44.297 91.61,45.736 L95.735,45.736 L95.735,48.293 L91.761,48.293 C91.854,49.747 92.036,51.231 92.309,52.745 C92.581,54.26 92.863,55.017 93.157,55.017 C93.494,55.017 93.737,53.771 93.888,51.279 C94.718,51.823 95.478,52.253 96.165,52.568 C95.979,54.681 95.664,56.215 95.22,57.171 C94.776,58.127 94.103,58.605 93.2,58.605 C91.861,58.605 90.887,57.805 90.278,56.204 C89.67,54.604 89.197,51.967 88.86,48.293 L85.917,48.293 L85.917,54.308 C86.905,53.736 87.879,53.155 88.839,52.568 C88.853,54.001 88.875,55.068 88.903,55.769 C87.17,56.657 85.509,57.653 83.919,58.756 L82.437,56.371 C82.866,56.013 83.081,55.139 83.081,53.75 L83.081,42.889 C82.093,44.601 80.632,46.853 78.698,49.646 C80.231,49.403 81.477,49.181 82.437,48.98 C82.322,49.911 82.243,50.806 82.2,51.666 C79.321,52.024 77.18,52.332 75.776,52.59 L75.132,50.205 C76.077,49.46 77.04,48.218 78.021,46.477 C76.861,46.578 75.948,46.696 75.282,46.832 L74.702,44.383 C75.762,42.907 76.944,40.544 78.247,37.293 L80.868,38.324 Z M85.917,45.736 L88.678,45.736 C88.606,44.354 88.556,42.879 88.527,41.31 C87.675,41.389 86.805,41.461 85.917,41.525 L85.917,45.736 Z M82.265,56.306 C79.429,56.793 77.108,57.223 75.304,57.595 L74.745,54.588 L82.394,53.449 C82.308,54.48 82.265,55.433 82.265,56.306 Z M105.081,24.783 L105.081,30.648 L102.288,30.648 L102.288,29.961 L91.374,29.961 L91.374,30.648 L88.452,30.648 L88.452,18.724 L104.394,18.724 L104.394,23.838 L91.374,23.838 L91.374,24.783 L105.081,24.783 Z M91.374,28.006 L102.288,28.006 L102.288,26.76 L91.374,26.76 L91.374,28.006 Z M101.601,21.861 L101.601,20.701 L91.374,20.701 L91.374,21.861 L101.601,21.861 Z M105.017,38.496 C104.343,40.157 103.613,41.726 102.825,43.201 L102.825,58.455 L99.731,58.455 L99.731,48.185 C99.037,49.138 98.313,50.04 97.562,50.892 C97.318,49.546 97.046,48.293 96.745,47.133 C98.979,44.311 100.741,41.103 102.03,37.508 L105.017,38.496 Z" id="形状" fill="#FFFFFF"></path>
            <g id="路径" transform="translate(6.000000, 34.000000) rotate(90.000000) translate(-6.000000, -34.000000) ">
                <use fill="#28EF6E" fill-rule="evenodd" xlink:href="#path-4"></use>
                <use fill="black" fill-opacity="1" filter="url(#filter-5)" xlink:href="#path-4"></use>
            </g>
            <g id="路径" transform="translate(164.000000, 34.000000) rotate(90.000000) translate(-164.000000, -34.000000) ">
                <use fill="#28EF6E" fill-rule="evenodd" xlink:href="#path-6"></use>
                <use fill="black" fill-opacity="1" filter="url(#filter-7)" xlink:href="#path-6"></use>
            </g>
        </g>
    </g>
</svg>