<?xml version="1.0" encoding="UTF-8"?>
<svg width="170px" height="466px" viewBox="0 0 170 466" version="1.1" xmlns="http://www.w3.org/2000/svg" xmlns:xlink="http://www.w3.org/1999/xlink">
    <title>shang1_lan</title>
    <defs>
        <linearGradient x1="100%" y1="50%" x2="0%" y2="50%" id="linearGradient-1">
            <stop stop-color="#94BBF4" stop-opacity="0" offset="0%"></stop>
            <stop stop-color="#5B86E5" stop-opacity="0.75" offset="100%"></stop>
        </linearGradient>
        <linearGradient x1="100%" y1="50%" x2="0%" y2="50%" id="linearGradient-2">
            <stop stop-color="#62A2CD" stop-opacity="0" offset="0%"></stop>
            <stop stop-color="#62A2CD" offset="100%"></stop>
        </linearGradient>
        <linearGradient x1="58.2730254%" y1="100%" x2="58.2730254%" y2="0%" id="linearGradient-3">
            <stop stop-color="#006AE1" offset="0%"></stop>
            <stop stop-color="#16B7FF" offset="100%"></stop>
        </linearGradient>
        <polygon id="path-4" points="-9 40 -3.95302074 28 15.9530207 28 21 40"></polygon>
        <filter x="-10.0%" y="-25.0%" width="120.0%" height="150.0%" filterUnits="objectBoundingBox" id="filter-5">
            <feGaussianBlur stdDeviation="3" in="SourceAlpha" result="shadowBlurInner1"></feGaussianBlur>
            <feOffset dx="0" dy="0" in="shadowBlurInner1" result="shadowOffsetInner1"></feOffset>
            <feComposite in="shadowOffsetInner1" in2="SourceAlpha" operator="arithmetic" k2="-1" k3="1" result="shadowInnerInner1"></feComposite>
            <feColorMatrix values="0 0 0 0 0.00784313725   0 0 0 0 0.682352941   0 0 0 0 1  0 0 0 0.75 0" type="matrix" in="shadowInnerInner1"></feColorMatrix>
        </filter>
        <polygon id="path-6" points="149 28 154.046979 40 173.953021 40 179 28"></polygon>
        <filter x="-10.0%" y="-25.0%" width="120.0%" height="150.0%" filterUnits="objectBoundingBox" id="filter-7">
            <feGaussianBlur stdDeviation="3" in="SourceAlpha" result="shadowBlurInner1"></feGaussianBlur>
            <feOffset dx="0" dy="0" in="shadowBlurInner1" result="shadowOffsetInner1"></feOffset>
            <feComposite in="shadowOffsetInner1" in2="SourceAlpha" operator="arithmetic" k2="-1" k3="1" result="shadowInnerInner1"></feComposite>
            <feColorMatrix values="0 0 0 0 0.00784313725   0 0 0 0 0.682352941   0 0 0 0 1  0 0 0 0.75 0" type="matrix" in="shadowInnerInner1"></feColorMatrix>
        </filter>
    </defs>
    <g id="页面-1" stroke="none" stroke-width="1" fill="none" fill-rule="evenodd">
        <g id="shang1_lan">
            <rect id="矩形" stroke="url(#linearGradient-2)" fill="url(#linearGradient-1)" opacity="0.5" transform="translate(85.000000, 233.000000) rotate(90.000000) translate(-85.000000, -233.000000) " x="-147.5" y="148.5" width="465" height="169" rx="10"></rect>
            <path d="M61,-51 L68.1459854,-51 L68.1459854,-51 L74.0838879,-37.3650931 L95.9732155,-37.3650931 L101.854015,-51 L109,-51 C114.522847,-51 119,-46.5228475 119,-41 L119,109 C119,114.522847 114.522847,119 109,119 L101.854015,119 L101.854015,119 L95.9732155,105 L74.0838879,105 L68.1459854,119 L61,119 C55.4771525,119 51,114.522847 51,109 L51,-41 C51,-46.5228475 55.4771525,-51 61,-51 Z" id="矩形" fill="url(#linearGradient-3)" transform="translate(85.000000, 34.000000) rotate(90.000000) translate(-85.000000, -34.000000) "></path>
            <path d="M129.165,27.426 L129.165,29.875 L114.427,29.875 L114.427,27.608 C112.536,28.131 110.502,28.743 108.325,29.445 L107.724,26.394 L110.28,25.814 L110.28,20.529 L108.218,20.529 L108.218,17.865 L110.28,17.865 L110.28,13.353 L108.132,13.353 L108.132,10.646 L115.179,10.646 L115.179,13.353 L113.03,13.353 L113.03,17.865 L115.028,17.865 L115.028,20.529 L113.03,20.529 L113.03,25.116 C113.796,24.908 114.541,24.697 115.265,24.482 C115.207,25.499 115.2,26.48 115.243,27.426 L120.571,27.426 L120.571,25.556 L115.673,25.556 L115.673,23.107 L120.571,23.107 L120.571,21.56 L115.78,21.56 L115.78,10.41 L128.112,10.41 L128.112,21.56 L123.321,21.56 L123.321,23.107 L128.22,23.107 L128.22,25.556 L123.321,25.556 L123.321,27.426 L129.165,27.426 Z M120.571,12.816 L118.466,12.816 L118.466,14.857 L120.571,14.857 L120.571,12.816 Z M120.571,17.092 L118.466,17.092 L118.466,19.154 L120.571,19.154 L120.571,17.092 Z M125.427,12.816 L123.321,12.816 L123.321,14.857 L125.427,14.857 L125.427,12.816 Z M125.427,19.154 L125.427,17.092 L123.321,17.092 L123.321,19.154 L125.427,19.154 Z M110.56,37.594 L110.56,45.059 C112.228,43.641 113.775,42.098 115.2,40.429 L117.886,42.492 C115.752,44.87 113.31,47.1 110.56,49.184 L110.56,53.578 C110.56,54.652 111.025,55.189 111.956,55.189 L112.88,55.189 C113.589,55.189 114.056,54.953 114.282,54.48 C114.507,54.008 114.692,52.59 114.835,50.226 C116.009,50.599 117.098,50.914 118.101,51.172 C117.843,53.241 117.619,54.713 117.429,55.587 C117.239,56.46 116.781,57.124 116.054,57.579 C115.327,58.034 114.326,58.261 113.052,58.261 L111.204,58.261 C108.626,58.261 107.337,56.979 107.337,54.416 L107.337,51.472 C106.506,52.024 105.654,52.561 104.78,53.084 C104.322,52.325 103.692,51.386 102.89,50.269 C104.444,49.439 105.926,48.529 107.337,47.541 L107.337,37.594 L110.56,37.594 Z M90.665,18.015 C89.877,20.436 89.097,22.52 88.323,24.267 C87.306,23.766 86.433,23.401 85.702,23.172 C86.547,21.467 87.321,19.476 88.022,17.199 L90.665,18.015 Z M102.718,19.67 C102.617,23.444 102.523,25.718 102.433,26.491 C102.343,27.264 102.068,27.977 101.606,28.629 C101.144,29.28 100.544,29.723 99.807,29.955 C99.069,30.188 97.461,30.304 94.983,30.304 C94.726,29.087 94.475,28.027 94.231,27.125 C95.592,27.196 96.602,27.232 97.261,27.232 C98.657,27.232 99.407,26.563 99.511,25.223 C99.615,23.884 99.71,20.694 99.796,15.652 L95.402,15.652 C95.309,17.478 95.187,19.014 95.037,20.261 C94.887,21.507 94.582,22.747 94.124,23.983 C93.666,25.218 92.971,26.409 92.04,27.554 C91.109,28.7 89.97,29.731 88.624,30.648 C87.865,29.688 87.113,28.815 86.368,28.027 C87.872,27.125 89.077,26.077 89.983,24.885 C90.889,23.693 91.48,22.423 91.755,21.077 C92.031,19.731 92.237,17.922 92.373,15.652 L86.97,15.652 L86.97,12.881 L92.513,12.881 L92.62,9.486 L95.649,9.486 L95.531,12.881 L102.847,12.881 L102.75,17.994 L104.479,17.178 C105.525,19.025 106.47,20.923 107.315,22.871 L104.802,24.138 C104.093,22.534 103.398,21.045 102.718,19.67 Z M83.94,20.615 C80.274,20.271 77.126,19.612 74.498,18.638 C71.727,19.62 68.543,20.372 64.948,20.894 C64.647,20.135 64.261,19.24 63.788,18.209 C66.459,17.958 68.88,17.561 71.05,17.016 C70.04,16.408 69.148,15.735 68.375,14.997 C67.537,15.677 66.645,16.311 65.7,16.898 C65.213,16.239 64.633,15.516 63.96,14.728 C66.738,13.138 68.808,11.362 70.169,9.4 L73.413,9.4 C73.005,10.03 72.568,10.639 72.103,11.226 L83.296,11.226 L83.296,13.547 C81.921,14.85 80.267,16.003 78.333,17.006 C80.367,17.457 82.623,17.708 85.101,17.758 C84.656,18.818 84.27,19.77 83.94,20.615 Z M78.999,13.611 L70.631,13.611 C71.805,14.513 73.145,15.269 74.648,15.878 C76.303,15.24 77.753,14.485 78.999,13.611 Z M70.319,24.418 L64.519,24.418 L64.519,21.818 L71.232,21.818 C71.368,21.188 71.479,20.515 71.565,19.799 L74.638,19.799 C74.566,20.486 74.469,21.159 74.348,21.818 L83.425,21.818 L83.06,26.717 C82.988,27.533 82.748,28.206 82.34,28.736 C81.932,29.266 81.373,29.658 80.664,29.912 C79.955,30.166 78.566,30.294 76.496,30.294 C75.78,30.294 75.024,30.276 74.229,30.24 C74.101,29.395 73.871,28.428 73.542,27.34 C75.125,27.469 76.507,27.533 77.688,27.533 C78.304,27.533 78.784,27.44 79.128,27.254 C79.472,27.068 79.685,26.806 79.767,26.469 C79.849,26.133 79.916,25.449 79.966,24.418 L73.692,24.418 C72.597,27.44 69.961,29.524 65.786,30.67 C65.228,29.911 64.554,29.087 63.767,28.199 C67.061,27.411 69.245,26.151 70.319,24.418 Z M41.874,26.674 L47.933,26.674 L47.933,22.42 L45.526,23.451 C44.352,20.114 43.177,17.049 42.003,14.256 L44.581,13.074 C45.82,15.853 46.937,18.531 47.933,21.109 L47.933,9.787 L51.069,9.787 L51.069,26.674 L53.819,26.674 L53.819,9.787 L56.913,9.787 L56.913,21.399 C58.08,19.079 59.219,16.404 60.329,13.375 L63.101,14.556 C62.012,17.278 60.709,20.228 59.19,23.408 L56.913,22.344 L56.913,26.674 L63.101,26.674 L63.101,29.617 L41.874,29.617 L41.874,26.674 Z M53.003,47.713 L53.003,44.898 L61.296,44.898 C61.425,43.881 61.514,42.743 61.564,41.482 L54.378,41.482 L54.378,38.668 L72.554,38.668 L72.554,41.482 L64.776,41.482 C64.705,42.693 64.597,43.831 64.454,44.898 L73.886,44.898 L73.886,47.713 L63.949,47.713 C63.842,48.2 63.72,48.665 63.584,49.109 L66.645,49.109 L66.645,53.836 C66.645,54.853 67.168,55.361 68.214,55.361 L68.88,55.361 C69.245,55.361 69.598,55.3 69.938,55.178 C70.278,55.057 70.523,54.695 70.674,54.094 C70.824,53.492 70.964,52.647 71.093,51.558 C72.425,52.06 73.427,52.418 74.101,52.633 C73.785,54.38 73.488,55.592 73.209,56.269 C72.93,56.946 72.498,57.425 71.915,57.708 C71.331,57.991 70.57,58.133 69.632,58.133 L67.011,58.133 C64.69,58.133 63.53,57.087 63.53,54.996 L63.53,49.313 C62.47,53.059 59.756,56.149 55.388,58.584 C54.657,57.853 53.798,57.044 52.81,56.156 C57.436,53.635 60.089,50.821 60.77,47.713 L53.003,47.713 Z M80.868,38.324 C79.651,40.53 78.541,42.442 77.538,44.06 C78.233,44.039 78.881,44.01 79.482,43.974 L81.04,41.16 L83.081,42.116 L83.081,39.119 C87.793,38.761 91.668,38.231 94.704,37.529 L95.95,40.322 C94.518,40.58 93.025,40.805 91.471,40.999 C91.492,42.718 91.539,44.297 91.61,45.736 L95.735,45.736 L95.735,48.293 L91.761,48.293 C91.854,49.747 92.036,51.231 92.309,52.745 C92.581,54.26 92.863,55.017 93.157,55.017 C93.494,55.017 93.737,53.771 93.888,51.279 C94.718,51.823 95.478,52.253 96.165,52.568 C95.979,54.681 95.664,56.215 95.22,57.171 C94.776,58.127 94.103,58.605 93.2,58.605 C91.861,58.605 90.887,57.805 90.278,56.204 C89.67,54.604 89.197,51.967 88.86,48.293 L85.917,48.293 L85.917,54.308 C86.905,53.736 87.879,53.155 88.839,52.568 C88.853,54.001 88.875,55.068 88.903,55.769 C87.17,56.657 85.509,57.653 83.919,58.756 L82.437,56.371 C82.866,56.013 83.081,55.139 83.081,53.75 L83.081,42.889 C82.093,44.601 80.632,46.853 78.698,49.646 C80.231,49.403 81.477,49.181 82.437,48.98 C82.322,49.911 82.243,50.806 82.2,51.666 C79.321,52.024 77.18,52.332 75.776,52.59 L75.132,50.205 C76.077,49.46 77.04,48.218 78.021,46.477 C76.861,46.578 75.948,46.696 75.282,46.832 L74.702,44.383 C75.762,42.907 76.944,40.544 78.247,37.293 L80.868,38.324 Z M85.917,45.736 L88.678,45.736 C88.606,44.354 88.556,42.879 88.527,41.31 C87.675,41.389 86.805,41.461 85.917,41.525 L85.917,45.736 Z M82.265,56.306 C79.429,56.793 77.108,57.223 75.304,57.595 L74.745,54.588 L82.394,53.449 C82.308,54.48 82.265,55.433 82.265,56.306 Z M105.017,38.496 C104.343,40.157 103.613,41.726 102.825,43.201 L102.825,58.455 L99.731,58.455 L99.731,48.185 C99.037,49.138 98.313,50.04 97.562,50.892 C97.318,49.546 97.046,48.293 96.745,47.133 C98.979,44.311 100.741,41.103 102.03,37.508 L105.017,38.496 Z" id="形状" fill="#FFFFFF"></path>
            <g id="路径" transform="translate(6.000000, 34.000000) rotate(90.000000) translate(-6.000000, -34.000000) ">
                <use fill="#02AEFF" fill-rule="evenodd" xlink:href="#path-4"></use>
                <use fill="black" fill-opacity="1" filter="url(#filter-5)" xlink:href="#path-4"></use>
            </g>
            <g id="路径" transform="translate(164.000000, 34.000000) rotate(90.000000) translate(-164.000000, -34.000000) ">
                <use fill="#02AEFF" fill-rule="evenodd" xlink:href="#path-6"></use>
                <use fill="black" fill-opacity="1" filter="url(#filter-7)" xlink:href="#path-6"></use>
            </g>
        </g>
    </g>
</svg>