<?xml version="1.0" encoding="UTF-8"?>
<svg width="376px" height="124px" viewBox="0 0 376 124" version="1.1" xmlns="http://www.w3.org/2000/svg" xmlns:xlink="http://www.w3.org/1999/xlink">
    <title>xia3_kuang2</title>
    <defs>
        <polygon id="path-1" points="0 0 136 0 136 124 0 124"></polygon>
        <filter x="-11.0%" y="-12.1%" width="122.1%" height="124.2%" filterUnits="objectBoundingBox" id="filter-2">
            <feGaussianBlur stdDeviation="15" in="SourceAlpha" result="shadowBlurInner1"></feGaussianBlur>
            <feOffset dx="0" dy="0" in="shadowBlurInner1" result="shadowOffsetInner1"></feOffset>
            <feComposite in="shadowOffsetInner1" in2="SourceAlpha" operator="arithmetic" k2="-1" k3="1" result="shadowInnerInner1"></feComposite>
            <feColorMatrix values="0 0 0 0 0.97254902   0 0 0 0 0.964705882   0 0 0 0 0.443137255  0 0 0 0.35 0" type="matrix" in="shadowInnerInner1"></feColorMatrix>
        </filter>
        <linearGradient x1="0%" y1="0%" x2="100%" y2="0%" id="linearGradient-3">
            <stop stop-color="#B5B32D" offset="0%"></stop>
            <stop stop-color="#F8F671" offset="100%"></stop>
        </linearGradient>
        <path d="M345.395,26.627 L343.611,26.627 L344.674,22.417 L347.144,22.417 L345.395,26.627 Z M339.796,26.627 L340.868,22.417 L343.329,22.417 L341.554,26.627 L339.796,26.627 Z M337.151,28.816 C336.19,28.371 335.293,27.902 334.461,27.41 L334.461,28.904 L331.016,28.904 L331.016,30.38 L336.571,30.38 L336.571,32.525 L333.934,32.525 L336.078,33.65 C335.434,34.482 334.813,35.255 334.215,35.97 L338.012,35.97 L338.012,38.115 L321.453,38.115 L321.453,35.97 L325.215,35.97 C324.758,35.361 324.178,34.634 323.475,33.79 L325.514,32.56 C326.123,33.263 326.756,34.042 327.412,34.898 L325.707,35.97 L328.397,35.97 L328.397,32.525 L322.86,32.525 L322.86,30.38 L328.397,30.38 L328.397,28.904 L325.039,28.904 L325.039,27.48 C324.184,28.031 323.276,28.57 322.315,29.097 C321.893,28.406 321.406,27.644 320.856,26.812 C324.395,25.289 326.985,23.472 328.625,21.363 L332.194,21.363 L331.403,22.154 C333.219,24.052 335.609,25.482 338.574,26.443 C338.024,27.345 337.549,28.136 337.151,28.816 Z M331.016,35.97 L333.74,35.97 L332.053,35.038 C332.697,34.195 333.295,33.357 333.846,32.525 L331.016,32.525 L331.016,35.97 Z M329.75,23.665 C328.696,24.744 327.471,25.775 326.076,26.759 L333.424,26.759 C332.006,25.822 330.781,24.79 329.75,23.665 Z M314.879,26.056 L317.358,25.23 C318.471,27.796 319.549,30.498 320.592,33.333 L317.815,34.406 C316.854,31.371 315.875,28.587 314.879,26.056 Z M311.368,38.264 C310.802,38.364 309.512,38.413 307.496,38.413 C307.321,37.417 307.104,36.492 306.846,35.636 C307.783,35.742 308.604,35.794 309.307,35.794 C310.139,35.794 310.555,35.308 310.555,34.335 L310.555,21.433 L313.297,21.433 L313.297,34.74 C313.297,35.894 313.117,36.745 312.757,37.293 C312.396,37.841 311.933,38.164 311.368,38.264 Z M303.031,33.527 C304.063,30.855 304.959,28.095 305.721,25.247 L308.358,25.88 C307.502,29.021 306.594,31.898 305.633,34.511 L303.031,33.527 Z M298.118,26.627 L299.867,22.417 L301.634,22.417 L300.562,26.627 L298.118,26.627 Z M294.286,26.627 L296.027,22.417 L297.802,22.417 L296.765,26.627 L294.286,26.627 Z M283.01,38.519 C282.09,37.992 281.255,37.365 280.505,36.638 C279.767,37.4 278.932,38.074 278,38.66 C277.69,38.038 277.338,37.426 276.946,36.823 L276.946,38.537 L274.696,38.537 L274.696,21.978 L283.766,21.978 C283.766,23.777 283.709,24.95 283.594,25.498 C283.48,26.046 283.274,26.477 282.975,26.79 C282.676,27.103 282.319,27.303 281.903,27.388 C281.486,27.473 280.315,27.503 278.387,27.48 C278.281,26.789 278.129,26.074 277.93,25.335 C278.944,25.406 279.693,25.441 280.18,25.441 C280.514,25.441 280.782,25.369 280.984,25.225 C281.186,25.082 281.287,24.691 281.287,24.052 L276.946,24.052 L276.946,28.271 L283.994,28.271 L283.994,30.292 C283.537,31.968 282.878,33.456 282.017,34.757 C282.737,35.326 283.561,35.794 284.487,36.163 C284.018,36.831 283.525,37.617 283.01,38.519 Z M276.946,30.328 L276.946,36.137 C277.678,35.75 278.334,35.296 278.914,34.775 C278.188,33.744 277.578,32.578 277.086,31.277 L279.037,30.468 C279.383,31.441 279.834,32.305 280.391,33.061 C280.924,32.258 281.346,31.347 281.656,30.328 L276.946,30.328 Z M270.354,38.431 C270.201,37.575 269.996,36.779 269.738,36.04 C270.125,36.099 270.483,36.128 270.811,36.128 C271.373,36.128 271.654,35.789 271.654,35.109 L271.654,32.929 L270.055,32.929 C269.973,35.49 269.481,37.417 268.578,38.712 C268.086,37.962 267.547,37.294 266.961,36.708 C267.401,35.783 267.689,34.746 267.827,33.597 C267.964,32.449 268.033,30.58 268.033,27.99 L268.033,21.995 L273.729,21.995 L273.729,36.199 C273.729,36.855 273.556,37.385 273.21,37.789 C272.864,38.194 271.912,38.408 270.354,38.431 Z M271.654,24.245 L270.143,24.245 L270.143,26.495 L271.654,26.495 L271.654,24.245 Z M271.654,28.587 L270.143,28.587 C270.143,29.402 270.137,30.152 270.125,30.837 L271.654,30.837 L271.654,28.587 Z M266.451,30.767 L265.572,32.929 C265.016,32.847 264.477,32.762 263.955,32.674 L263.955,38.695 L261.565,38.695 L261.565,37.851 L253.865,37.851 L253.865,38.695 L251.475,38.695 L251.475,32.797 C250.947,32.897 250.403,32.994 249.84,33.087 C249.57,32.372 249.278,31.699 248.961,31.066 C251.41,30.761 253.479,30.401 255.166,29.985 C254.545,29.604 253.959,29.162 253.408,28.658 C252.693,29.126 251.92,29.572 251.088,29.994 C250.654,29.396 250.215,28.857 249.77,28.376 C251.762,27.521 253.385,26.443 254.639,25.142 L257.363,25.142 C257.176,25.382 256.977,25.617 256.766,25.845 L263.34,25.845 L263.34,24.755 L252.072,24.755 L252.072,26.953 L249.664,26.953 L249.664,22.769 L256.485,22.769 L255.94,21.503 L258.946,21.204 C259.109,21.626 259.294,22.148 259.499,22.769 L265.748,22.769 L265.748,26.953 L263.639,26.953 L263.639,27.515 C262.76,28.447 261.679,29.267 260.396,29.976 C262.089,30.363 264.108,30.626 266.451,30.767 Z M253.865,35.847 L261.565,35.847 L261.565,34.546 L253.865,34.546 L253.865,35.847 Z M260.457,27.638 L255.14,27.638 C255.913,28.259 256.789,28.772 257.768,29.176 C258.758,28.772 259.654,28.259 260.457,27.638 Z M257.741,31.171 C256.341,31.669 254.665,32.126 252.714,32.542 L263.208,32.542 C261.058,32.15 259.236,31.693 257.741,31.171 Z M246.887,37.961 C246.477,38.163 245.967,38.267 245.358,38.273 L243.512,38.273 C241.707,38.273 240.805,37.388 240.805,35.619 L240.805,30.029 L243.037,30.029 L243.037,32.217 C244.332,31.573 245.545,30.908 246.676,30.222 L248.223,32.068 C246.623,32.83 244.895,33.597 243.037,34.37 L243.037,35.267 C243.037,35.982 243.371,36.339 244.039,36.339 L244.778,36.339 C245.293,36.339 245.636,36.228 245.806,36.005 C245.976,35.783 246.131,34.974 246.272,33.579 C246.986,33.873 247.719,34.16 248.469,34.441 C248.246,35.8 248.029,36.676 247.819,37.069 C247.608,37.461 247.297,37.759 246.887,37.961 Z M244.215,27.62 L244.778,27.62 C245.416,27.62 245.784,27.436 245.881,27.067 C245.977,26.698 246.09,26.091 246.219,25.247 C247.098,25.658 247.824,25.956 248.399,26.144 C248.235,26.835 248.072,27.449 247.911,27.985 C247.75,28.521 247.454,28.917 247.023,29.172 C246.592,29.427 246.031,29.554 245.34,29.554 L243.529,29.554 C241.725,29.554 240.817,28.675 240.805,26.917 L240.805,21.38 L243.037,21.38 L243.037,24.035 C244.484,23.372 245.703,22.757 246.694,22.189 L248.24,23.982 C246.969,24.562 245.235,25.265 243.037,26.091 L243.037,26.636 C243.037,27.292 243.43,27.62 244.215,27.62 Z M238.397,26.786 L231.612,27.269 L230.996,25.3 C231.781,24.89 232.936,23.525 234.459,21.204 L236.692,22.048 L234.125,25.16 L237.333,25.028 C237.046,24.571 236.756,24.122 236.463,23.683 L238.151,22.769 C239.006,23.941 239.873,25.207 240.752,26.566 C240.037,26.988 239.416,27.345 238.889,27.638 L238.397,26.786 Z M222.594,22.523 L229.608,22.523 L229.608,29.097 L222.594,29.097 L222.594,22.523 Z M224.774,27.234 L227.428,27.234 L227.428,24.386 L224.774,24.386 L224.774,27.234 Z M222.084,28.798 L220.942,30.099 L228.465,30.099 L228.465,38.642 L226.11,38.642 L226.11,37.869 L217.356,37.869 L217.356,38.642 L215,38.642 L215,30.802 C214.807,30.884 214.608,30.966 214.403,31.048 C213.969,30.427 213.529,29.882 213.084,29.413 C214.877,28.71 215.982,27.949 216.398,27.128 L213.242,27.128 L213.242,25.406 L214.332,25.406 C213.981,24.849 213.635,24.363 213.295,23.947 C213.928,23.337 214.567,22.429 215.211,21.222 L217.479,21.222 C217.285,21.656 217.083,22.066 216.872,22.453 L221.785,22.453 L221.785,24.193 L219.333,24.193 C219.304,24.621 219.257,25.025 219.193,25.406 L222.313,25.406 L222.313,27.128 L219.579,27.128 L222.084,28.798 Z M217.356,36.023 L226.11,36.023 L226.11,34.88 L217.356,34.88 L217.356,36.023 Z M217.356,33.175 L226.11,33.175 L226.11,31.945 L217.356,31.945 L217.356,33.175 Z M215.782,24.193 C215.443,24.644 215.088,25.048 214.719,25.406 L216.934,25.406 C216.992,25.042 217.033,24.638 217.057,24.193 L215.782,24.193 Z M218.296,28.245 C217.857,28.936 217.2,29.554 216.327,30.099 L220.362,30.099 C219.617,29.402 218.929,28.784 218.296,28.245 Z M211.151,28.816 C210.19,28.371 209.293,27.902 208.461,27.41 L208.461,28.904 L205.016,28.904 L205.016,30.38 L210.571,30.38 L210.571,32.525 L207.934,32.525 L210.078,33.65 C209.434,34.482 208.813,35.255 208.215,35.97 L212.012,35.97 L212.012,38.115 L195.453,38.115 L195.453,35.97 L199.215,35.97 C198.758,35.361 198.178,34.634 197.475,33.79 L199.514,32.56 C200.123,33.263 200.756,34.042 201.412,34.898 L199.707,35.97 L202.397,35.97 L202.397,32.525 L196.86,32.525 L196.86,30.38 L202.397,30.38 L202.397,28.904 L199.039,28.904 L199.039,27.48 C198.184,28.031 197.276,28.57 196.315,29.097 C195.893,28.406 195.406,27.644 194.856,26.812 C198.395,25.289 200.985,23.472 202.625,21.363 L206.194,21.363 L205.403,22.154 C207.219,24.052 209.609,25.482 212.574,26.443 C212.024,27.345 211.549,28.136 211.151,28.816 Z M205.016,35.97 L207.74,35.97 L206.053,35.038 C206.697,34.195 207.295,33.357 207.846,32.525 L205.016,32.525 L205.016,35.97 Z M203.75,23.665 C202.696,24.744 201.471,25.775 200.076,26.759 L207.424,26.759 C206.006,25.822 204.781,24.79 203.75,23.665 Z M189.336,33.456 L191.305,32.367 C192.442,33.913 193.525,35.56 194.557,37.306 L192.395,38.642 C191.293,36.591 190.274,34.863 189.336,33.456 Z M184.59,22.329 L193.52,22.329 L193.52,31.751 L184.59,31.751 L184.59,22.329 Z M186.981,29.537 L191.129,29.537 L191.129,24.544 L186.981,24.544 L186.981,29.537 Z M181.813,30.556 L182.463,29.888 C183.119,30.462 183.834,31.142 184.608,31.927 L183.201,33.316 C182.686,32.718 182.223,32.194 181.813,31.743 L181.813,38.607 L179.528,38.607 L179.528,32.824 C178.994,33.96 178.408,34.986 177.77,35.9 C177.57,35.126 177.301,34.189 176.961,33.087 C178.033,31.792 178.871,30.31 179.475,28.64 L177.119,28.64 L177.119,26.372 L179.528,26.372 L179.528,24.395 C178.9,24.465 178.238,24.533 177.541,24.597 C177.424,23.8 177.289,23.103 177.137,22.505 C179.117,22.318 181.192,22.072 183.36,21.767 L183.887,23.824 C183.26,23.929 182.569,24.032 181.813,24.131 L181.813,26.372 L183.975,26.372 L183.975,28.64 L181.813,28.64 L181.813,30.556 Z M169.069,22.663 L171.371,21.574 C172.695,24.257 174.395,26.472 176.469,28.218 C175.613,29.074 174.945,29.771 174.465,30.31 C172.391,28.388 170.592,25.839 169.069,22.663 Z M164.252,35.056 C166.549,35.003 168.755,34.93 170.87,34.836 C170.191,33.864 169.443,32.847 168.629,31.787 L170.721,30.468 C172.561,32.695 174.213,34.904 175.678,37.095 L173.375,38.695 C173.088,38.208 172.78,37.707 172.452,37.192 L163.294,37.666 C162.702,37.731 162.096,37.839 161.475,37.992 L160.385,35.619 C161.176,35.162 162.229,33.966 163.545,32.033 C164.86,30.099 165.858,28.47 166.537,27.146 L169.139,28.306 C167.147,31.388 165.518,33.638 164.252,35.056 Z M159.067,28.447 C161.199,26.56 162.834,24.328 163.971,21.749 L166.379,22.769 C165.09,25.687 163.238,28.259 160.824,30.486 C160.426,29.97 159.84,29.29 159.067,28.447 Z M188.317,33.509 C187.121,35.537 185.938,37.259 184.766,38.677 C184.168,38.22 183.494,37.74 182.744,37.236 C183.963,36.04 185.106,34.429 186.172,32.402 L188.317,33.509 Z M239.451,36.146 C239.451,36.831 239.325,37.362 239.073,37.737 C238.821,38.112 238.441,38.331 237.931,38.396 C237.421,38.46 236.592,38.484 235.444,38.466 C235.279,37.786 235.092,37.089 234.881,36.374 C235.461,36.41 235.918,36.427 236.252,36.427 C236.709,36.427 236.99,36.345 237.096,36.181 C237.201,36.017 237.254,35.829 237.254,35.619 L237.254,35.197 L234.125,35.197 L234.125,38.501 L231.928,38.501 L231.928,27.884 L239.451,27.884 L239.451,36.146 Z M237.254,29.783 L234.125,29.783 L234.125,30.785 L237.254,30.785 L237.254,29.783 Z M237.254,32.49 L234.125,32.49 L234.125,33.492 L237.254,33.492 L237.254,32.49 Z" id="path-4"></path>
        <filter x="-9.6%" y="-102.8%" width="119.1%" height="305.6%" filterUnits="objectBoundingBox" id="filter-5">
            <feOffset dx="0" dy="0" in="SourceAlpha" result="shadowOffsetOuter1"></feOffset>
            <feGaussianBlur stdDeviation="6" in="shadowOffsetOuter1" result="shadowBlurOuter1"></feGaussianBlur>
            <feColorMatrix values="0 0 0 0 0.0235294118   0 0 0 0 0.0470588235   0 0 0 0 0.28627451  0 0 0 1 0" type="matrix" in="shadowBlurOuter1"></feColorMatrix>
        </filter>
    </defs>
    <g id="页面-1" stroke="none" stroke-width="1" fill="none" fill-rule="evenodd">
        <g id="xia3_kuang2">
            <polygon id="路径" fill-opacity="0.502" fill="#F8F671" opacity="0.6" points="2.27373675e-13 0 376 0 376 124 2.27373675e-13 124"></polygon>
            <g id="路径" opacity="0.6">
                <use fill-opacity="0" fill="#F8F671" fill-rule="evenodd" xlink:href="#path-1"></use>
                <use fill="black" fill-opacity="1" filter="url(#filter-2)" xlink:href="#path-1"></use>
                <path stroke="#457AFF" stroke-width="1" d="M135.5,0.5 L135.5,123.5 L0.5,123.5 L0.5,0.5 L135.5,0.5 Z" stroke-linejoin="square"></path>
            </g>
            <polygon id="路径" fill="#F8F671" points="4.885 4.906 14.532 4.906 4.885 14.6"></polygon>
            <polygon id="路径" fill="#F8F671" points="4.885 119.094 14.532 119.094 4.885 109.4"></polygon>
            <polygon id="路径" fill="#F8F671" points="131.408 4.906 121.761 4.906 131.408 14.6"></polygon>
            <polygon id="路径" fill="#F8F671" points="131.408 119.094 121.761 119.094 131.408 109.4"></polygon>
            <path d="M22.7831469,70 L113.217857,70 C114.754459,70 116,71.5669367 116,73.4996253 L116,94.4993754 C116,96.4330633 114.754459,98 113.217857,98 L22.7831469,98 C21.2465447,98 20,96.4330633 20,94.4993754 L20,73.4996253 C20,71.5669367 21.2465447,70 22.7831469,70 Z" id="路径" fill="url(#linearGradient-3)" fill-rule="nonzero"></path>
            <path d="M89.738,87.462 C90.578,88.608 91.646,89.545 92.942,90.274 C92.61,90.733 92.33,91.144 92.102,91.509 C90.837,90.686 89.785,89.707 88.945,88.571 C87.992,89.759 86.857,90.79 85.54,91.665 C85.312,91.363 85.017,91.035 84.654,90.681 C86.105,89.722 87.282,88.634 88.183,87.415 C87.344,85.957 86.789,84.274 86.52,82.368 C86.302,82.754 86.074,83.113 85.836,83.446 C85.628,83.144 85.369,82.811 85.058,82.446 C86.26,80.707 87.064,78.587 87.468,76.087 L88.712,76.274 C88.494,77.285 88.24,78.228 87.95,79.103 L92.708,79.103 L92.708,80.165 L91.729,80.165 C91.47,83.228 90.806,85.66 89.738,87.462 Z M87.577,80.165 C87.525,80.301 87.468,80.431 87.406,80.556 C87.593,82.764 88.111,84.655 88.961,86.228 C89.79,84.707 90.298,82.686 90.485,80.165 L87.577,80.165 Z M83.052,78.681 C83.591,78.045 84.12,77.358 84.638,76.618 L85.602,77.259 C85.032,78.009 84.462,78.702 83.892,79.337 C83.653,79.129 83.374,78.91 83.052,78.681 Z M85.338,80.759 L82.352,80.759 L82.352,81.712 L82.819,81.181 C83.783,81.889 84.592,82.514 85.245,83.056 L84.498,83.931 C83.928,83.389 83.213,82.78 82.352,82.103 L82.352,83.884 L81.202,83.884 L81.202,81.696 C80.258,82.686 79.16,83.556 77.905,84.306 C77.708,84.004 77.486,83.686 77.237,83.353 C78.543,82.644 79.74,81.78 80.829,80.759 L77.626,80.759 L77.626,79.728 L81.202,79.728 L81.202,76.228 L82.352,76.228 L82.352,79.728 L85.338,79.728 L85.338,80.759 Z M78.03,77.306 L78.916,76.696 C79.383,77.269 79.865,77.884 80.362,78.54 L79.398,79.228 C78.942,78.551 78.486,77.91 78.03,77.306 Z M81.062,89.024 C80.17,88.566 79.237,88.097 78.263,87.618 C78.595,87.139 78.916,86.644 79.227,86.134 L77.454,86.134 L77.454,85.103 L79.818,85.103 C80.046,84.707 80.269,84.301 80.487,83.884 L81.606,84.243 C81.44,84.535 81.274,84.821 81.109,85.103 L84.918,85.103 L84.918,86.118 C84.524,87.139 83.928,88.035 83.13,88.806 C83.7,89.077 84.281,89.347 84.871,89.618 L84.187,90.696 C83.545,90.332 82.876,89.967 82.181,89.603 C81.01,90.446 79.533,91.113 77.75,91.603 C77.584,91.269 77.408,90.905 77.221,90.509 C78.735,90.165 80.015,89.67 81.062,89.024 Z M83.736,86.134 L80.502,86.134 C80.264,86.519 80.025,86.894 79.787,87.259 C80.523,87.592 81.28,87.941 82.057,88.306 C82.772,87.691 83.332,86.967 83.736,86.134 Z M73.533,84.415 L63.714,84.415 C63.574,87.415 62.804,89.811 61.404,91.603 C61.125,91.259 60.824,90.915 60.503,90.571 C61.829,88.946 62.493,86.509 62.493,83.259 L62.493,78.306 L68.425,78.306 C68.047,77.722 67.619,77.139 67.142,76.556 L68.262,75.884 C68.759,76.478 69.252,77.123 69.739,77.821 L68.977,78.306 L74.777,78.306 L74.777,85.228 L73.533,85.228 L73.533,84.415 Z M73.533,79.431 L63.737,79.431 L63.737,83.29 L73.533,83.29 L73.533,79.431 Z M51.745,84.548 C49.734,85.36 47.272,85.952 44.359,86.321 C44.183,85.936 43.965,85.561 43.706,85.196 C46.324,84.931 48.547,84.493 50.377,83.884 C49.382,83.311 48.576,82.629 47.959,81.837 C47.181,82.587 46.375,83.259 45.541,83.853 C45.313,83.582 45.043,83.301 44.732,83.009 C46.567,81.748 47.977,80.41 48.962,78.993 L50.097,79.478 C49.858,79.774 49.62,80.061 49.382,80.337 L56.55,80.337 L56.55,81.321 C55.689,82.327 54.549,83.194 53.129,83.923 C54.85,84.459 56.949,84.733 59.427,84.743 C59.147,85.149 58.887,85.571 58.649,86.009 C55.876,85.795 53.575,85.308 51.745,84.548 Z M54.902,81.337 L48.954,81.337 C49.654,82.17 50.574,82.85 51.714,83.376 C53.036,82.808 54.098,82.129 54.902,81.337 Z M57.452,78.931 L45.852,78.931 L45.852,80.806 L44.701,80.806 L44.701,77.899 L51.411,77.899 C51.131,77.467 50.791,77.009 50.392,76.524 L51.45,75.853 C51.864,76.332 52.295,76.863 52.74,77.446 L52.025,77.899 L58.602,77.899 L58.602,80.821 L57.452,80.821 L57.452,78.931 Z M56.705,91.384 L55.555,91.384 L55.555,90.728 L47.718,90.728 L47.718,91.384 L46.567,91.384 L46.567,86.415 L56.705,86.415 L56.705,91.384 Z M55.555,87.415 L47.718,87.415 L47.718,89.728 L55.555,89.728 L55.555,87.415 Z" id="形状" fill="#000000"></path>
            <path d="M330.409,65.053 C330.086,65.823 329.804,66.516 329.565,67.131 C326.898,66.881 324.609,66.402 322.698,65.693 C320.682,66.407 318.367,66.954 315.752,67.334 C315.534,66.782 315.252,66.131 314.909,65.381 C316.851,65.198 318.612,64.909 320.19,64.513 C319.456,64.071 318.807,63.581 318.245,63.045 C317.635,63.54 316.987,64.001 316.299,64.428 C315.945,63.948 315.523,63.422 315.034,62.849 C317.054,61.693 318.56,60.402 319.549,58.974 L321.909,58.974 C321.612,59.433 321.294,59.876 320.956,60.303 L329.096,60.303 L329.096,61.99 C328.096,62.938 326.893,63.777 325.487,64.506 C326.966,64.834 328.607,65.016 330.409,65.053 Z M325.971,62.037 L319.885,62.037 C320.739,62.693 321.713,63.243 322.807,63.685 C324.01,63.222 325.065,62.672 325.971,62.037 Z M315.44,69.896 L315.44,68.006 L320.323,68.006 C320.422,67.547 320.502,67.058 320.565,66.537 L322.799,66.537 C322.747,67.037 322.677,67.527 322.588,68.006 L329.19,68.006 L328.924,71.568 C328.872,72.162 328.698,72.651 328.401,73.037 C328.104,73.422 327.698,73.707 327.182,73.892 C326.666,74.077 325.656,74.17 324.151,74.17 C323.63,74.17 323.081,74.157 322.502,74.131 C322.409,73.516 322.242,72.813 322.002,72.021 C323.153,72.115 324.159,72.162 325.018,72.162 C325.466,72.162 325.815,72.094 326.065,71.959 C326.315,71.823 326.47,71.633 326.53,71.388 C326.59,71.144 326.638,70.646 326.674,69.896 L322.112,69.896 C321.315,72.094 319.398,73.61 316.362,74.443 C315.956,73.891 315.466,73.292 314.893,72.646 C317.289,72.073 318.877,71.157 319.659,69.896 L315.44,69.896 Z M313.143,74.303 C312.325,73.834 311.583,73.276 310.916,72.631 C310.26,73.308 309.518,73.907 308.69,74.428 C308.414,73.875 308.101,73.331 307.752,72.795 L307.752,74.318 L305.752,74.318 L305.752,59.599 L313.815,59.599 C313.815,61.198 313.764,62.241 313.663,62.728 C313.561,63.215 313.377,63.598 313.112,63.877 C312.846,64.155 312.528,64.333 312.159,64.408 C311.789,64.484 310.747,64.511 309.034,64.49 C308.94,63.876 308.804,63.24 308.627,62.584 C309.528,62.646 310.195,62.678 310.627,62.678 C310.924,62.678 311.163,62.614 311.342,62.486 C311.522,62.359 311.612,62.011 311.612,61.443 L307.752,61.443 L307.752,65.193 L314.018,65.193 L314.018,66.99 C313.612,68.48 313.026,69.803 312.26,70.959 C312.901,71.464 313.633,71.881 314.456,72.209 C314.039,72.803 313.601,73.5 313.143,74.303 Z M307.752,67.021 L307.752,72.185 C308.403,71.842 308.987,71.438 309.502,70.974 C308.857,70.058 308.315,69.021 307.877,67.865 L309.612,67.146 C309.919,68.011 310.32,68.779 310.815,69.451 C311.289,68.737 311.664,67.928 311.94,67.021 L307.752,67.021 Z M301.893,74.224 C301.758,73.464 301.575,72.756 301.346,72.099 C301.69,72.152 302.008,72.178 302.299,72.178 C302.799,72.178 303.049,71.876 303.049,71.271 L303.049,69.334 L301.627,69.334 C301.554,71.61 301.117,73.323 300.315,74.474 C299.877,73.808 299.398,73.214 298.877,72.693 C299.268,71.87 299.524,70.948 299.647,69.928 C299.769,68.907 299.831,67.245 299.831,64.943 L299.831,59.615 L304.893,59.615 L304.893,72.24 C304.893,72.823 304.739,73.295 304.432,73.654 C304.125,74.013 303.278,74.204 301.893,74.224 Z M303.049,61.615 L301.706,61.615 L301.706,63.615 L303.049,63.615 L303.049,61.615 Z M303.049,65.474 L301.706,65.474 C301.706,66.198 301.7,66.865 301.69,67.474 L303.049,67.474 L303.049,65.474 Z M298.518,71.943 C298.278,72.579 298.06,73.235 297.862,73.912 C295.612,73.933 294.138,73.852 293.44,73.67 C292.742,73.487 292.166,73.079 291.713,72.443 C291.442,73.188 291.101,73.891 290.69,74.553 C290.169,74.178 289.56,73.771 288.862,73.334 C290.133,71.73 290.711,69.62 290.596,67.006 L292.487,67.006 C292.534,68.214 292.458,69.349 292.26,70.412 C292.531,70.943 292.898,71.329 293.362,71.568 L293.362,66.146 L290.065,66.146 L290.065,64.396 L293.237,64.396 L291.002,62.709 L292.221,61.506 L290.596,61.506 L290.596,59.756 L298.096,59.756 L298.096,61.584 L295.245,64.396 L298.362,64.396 L298.362,66.021 L297.518,67.928 L295.909,67.428 L296.518,66.146 L295.331,66.146 L295.331,68.256 L298.034,68.256 L298.034,70.006 L295.331,70.006 L295.331,71.888 C296.456,71.935 297.518,71.954 298.518,71.943 Z M295.799,61.506 L292.299,61.506 L294.213,62.998 L295.799,61.506 Z M289.209,64.213 C288.769,64.429 288.31,64.537 287.831,64.537 L285.909,64.537 C284.419,64.537 283.674,63.756 283.674,62.193 L283.674,59.162 L285.502,59.162 L285.502,60.568 C287.065,60.058 288.221,59.626 288.971,59.271 L290.081,60.849 C289.711,60.974 289.281,61.112 288.791,61.263 C289.38,61.519 289.888,61.724 290.315,61.881 C290.018,63.219 289.649,63.997 289.209,64.213 Z M285.502,62.178 C285.502,62.709 285.815,62.974 286.44,62.974 L287.393,62.974 C287.742,62.974 287.989,62.895 288.135,62.736 C288.281,62.577 288.422,62.11 288.557,61.334 C287.713,61.579 286.695,61.86 285.502,62.178 Z M284.206,64.678 L286.049,64.678 C285.982,64.922 285.909,65.162 285.831,65.396 L289.612,65.396 L289.612,67.115 L287.909,67.115 C287.909,67.636 287.901,68.079 287.885,68.443 L289.909,68.443 L289.909,70.162 L287.612,70.162 C287.57,70.318 287.523,70.472 287.471,70.623 C288.143,71.097 288.789,71.584 289.409,72.084 L288.174,73.615 C287.674,73.125 287.179,72.662 286.69,72.224 C286.112,73.11 285.331,73.891 284.346,74.568 C283.909,74.079 283.388,73.537 282.784,72.943 C284.143,72.256 285.073,71.329 285.573,70.162 L283.018,70.162 L283.018,68.443 L284.112,68.443 C283.773,68.126 283.388,67.797 282.956,67.459 C283.539,66.573 283.956,65.646 284.206,64.678 Z M285.979,68.443 C285.995,68.245 286.002,67.803 286.002,67.115 L285.166,67.115 C284.953,67.584 284.724,68.027 284.479,68.443 L285.979,68.443 Z M281.174,68.396 C280.19,68.053 279.268,67.657 278.409,67.209 L278.409,67.943 L270.94,67.943 L270.94,67.193 C270.091,67.626 269.153,68.032 268.127,68.412 C267.836,67.922 267.419,67.308 266.877,66.568 C270.242,65.693 272.596,64.402 273.94,62.693 L274.815,62.693 L274.331,62.334 C275.133,61.428 275.825,60.292 276.409,58.928 L278.565,58.928 C278.445,59.36 278.294,59.787 278.112,60.209 L282.19,60.209 L282.19,61.803 L279.081,61.803 C279.669,62.266 280.252,62.792 280.831,63.381 L279.362,64.646 C278.726,63.99 278.117,63.396 277.534,62.865 L278.916,61.803 L277.26,61.803 C276.937,62.303 276.567,62.795 276.151,63.279 C277.578,64.763 279.674,65.792 282.44,66.365 C281.95,67.115 281.528,67.792 281.174,68.396 Z M274.752,64.584 C274.117,65.209 273.351,65.797 272.456,66.349 L276.956,66.349 C276.153,65.818 275.419,65.23 274.752,64.584 Z M273.034,63.209 L271.502,64.412 C271.075,63.818 270.653,63.256 270.237,62.724 L271.487,61.803 L270.549,61.803 C269.903,62.849 269.127,63.777 268.221,64.584 C267.867,64.094 267.429,63.558 266.909,62.974 C268.148,61.818 269.081,60.469 269.706,58.928 L271.893,58.928 C271.742,59.37 271.575,59.797 271.393,60.209 L274.737,60.209 L274.737,61.803 L271.776,61.803 C272.286,62.334 272.706,62.803 273.034,63.209 Z M265.127,74.318 C264.075,73.599 263.172,72.745 262.416,71.756 C261.479,72.813 260.336,73.714 258.987,74.459 C258.549,73.813 258.07,73.214 257.549,72.662 C259.028,71.876 260.242,70.92 261.19,69.795 C260.607,68.633 260.169,67.336 259.877,65.904 C259.622,66.362 259.351,66.823 259.065,67.287 C258.893,67.016 258.698,66.717 258.479,66.388 L257.752,66.935 L257.956,66.99 C257.633,68.073 257.195,69.076 256.643,69.998 C257.304,70.665 257.877,71.256 258.362,71.771 L256.846,73.224 C256.419,72.704 255.963,72.172 255.479,71.631 C254.557,72.719 253.435,73.662 252.112,74.459 C251.726,73.823 251.289,73.178 250.799,72.521 C252.133,71.87 253.224,71.068 254.073,70.115 C253.484,69.501 252.862,68.87 252.206,68.224 L253.581,66.99 L255.174,68.545 C255.528,67.894 255.799,67.193 255.987,66.443 L257.604,66.896 C257.015,66.058 256.32,65.188 255.518,64.287 L257.034,63.209 C257.518,63.724 257.963,64.219 258.37,64.693 C259.317,62.954 260.044,61.021 260.549,58.896 L262.581,59.178 C262.409,59.907 262.19,60.641 261.924,61.381 L266.393,61.381 L266.393,63.459 L265.487,63.459 C265.232,66.131 264.633,68.303 263.69,69.974 C264.445,70.933 265.367,71.688 266.456,72.24 C266.091,72.74 265.648,73.433 265.127,74.318 Z M261.299,63.459 C261.502,65.141 261.883,66.61 262.44,67.865 C262.982,66.683 263.343,65.214 263.526,63.459 L261.299,63.459 Z M254.815,64.115 C254.044,65.501 253.179,66.667 252.221,67.615 C251.627,66.928 251.169,66.433 250.846,66.131 C251.7,65.266 252.429,64.313 253.034,63.271 L254.815,64.115 Z M251.159,60.912 L254.127,60.912 C253.971,60.422 253.784,59.902 253.565,59.349 L255.659,58.896 C255.929,59.626 256.146,60.297 256.307,60.912 L258.971,60.912 L258.971,62.849 L251.159,62.849 L251.159,60.912 Z M235.002,60.162 L241.495,60.162 C241.349,59.813 241.211,59.495 241.081,59.209 L243.596,58.834 C243.784,59.303 243.953,59.745 244.104,60.162 L250.346,60.162 L250.346,61.756 L235.002,61.756 L235.002,60.162 Z M248.143,62.412 L248.143,65.912 L237.237,65.912 L237.237,62.412 L248.143,62.412 Z M239.331,64.568 L246.049,64.568 L246.049,63.756 L239.331,63.756 L239.331,64.568 Z M249.659,71.74 C249.659,72.485 249.513,73.06 249.221,73.467 C248.929,73.873 248.539,74.119 248.049,74.205 C247.56,74.291 246.56,74.334 245.049,74.334 C244.935,73.698 244.799,73.089 244.643,72.506 C245.237,72.558 245.872,72.584 246.549,72.584 C247.247,72.584 247.596,72.245 247.596,71.568 L247.596,68.146 L237.815,68.146 L237.815,74.287 L235.752,74.287 L235.752,66.584 L249.659,66.584 L249.659,71.74 Z M246.206,72.381 L241.049,72.381 L241.049,72.865 L239.174,72.865 L239.174,68.834 L246.206,68.834 L246.206,72.381 Z M244.331,70.146 L241.049,70.146 L241.049,71.068 L244.331,71.068 L244.331,70.146 Z M280.143,74.459 L278.018,74.459 L278.018,73.709 L271.331,73.709 L271.331,74.474 L269.206,74.474 L269.206,68.756 L280.143,68.756 L280.143,74.459 Z M278.018,70.537 L271.331,70.537 L271.331,71.928 L278.018,71.928 L278.018,70.537 Z" id="形状" fill="#FFFFFF"></path>
            <path d="M225.971,99.099 C225.992,103.006 225.471,105.808 224.409,107.506 C223.836,106.954 223.268,106.464 222.706,106.037 C223.591,104.381 224.013,101.974 223.971,98.818 L223.971,93.365 L230.19,93.365 C230.075,93.063 229.924,92.698 229.737,92.271 L232.331,91.896 C232.518,92.376 232.706,92.865 232.893,93.365 L238.299,93.365 L238.299,95.115 L225.971,95.115 L225.971,99.099 Z M219.159,104.131 L220.877,103.209 C221.565,104.084 222.107,104.917 222.502,105.709 L220.768,106.74 C220.247,105.761 219.711,104.891 219.159,104.131 Z M207.096,95.553 L210.713,95.553 C210.505,95.261 210.32,95.021 210.159,94.834 L211.385,94.381 L207.877,94.381 L207.877,93.037 L213.487,93.037 L213.081,92.115 L215.737,91.881 C215.877,92.193 216.028,92.579 216.19,93.037 L221.362,93.037 L221.362,94.381 L217.651,94.381 L219.065,94.881 L218.479,95.553 L222.252,95.553 L222.252,96.959 L207.096,96.959 L207.096,95.553 Z M213.104,95.553 L216.143,95.553 C216.466,95.073 216.718,94.683 216.901,94.381 L212.206,94.381 C212.534,94.797 212.833,95.188 213.104,95.553 Z M210.034,103.865 C209.607,104.948 209.133,105.954 208.612,106.881 L206.877,106.021 C207.44,105.001 207.872,104.042 208.174,103.146 L210.034,103.865 Z M203.784,95.912 L201.752,95.912 L201.752,94.912 L199.284,94.912 L199.284,95.912 L197.252,95.912 L197.252,94.912 L194.674,94.912 L194.674,94.326 L193.456,95.646 C192.778,94.969 192.023,94.266 191.19,93.537 L192.471,92.099 C193.133,92.584 193.867,93.172 194.674,93.865 L194.674,93.287 L197.252,93.287 L197.252,91.99 L199.284,91.99 L199.284,93.287 L201.752,93.287 L201.752,91.974 L203.784,91.974 L203.784,93.287 L206.346,93.287 L206.346,94.912 L203.784,94.912 L203.784,95.912 Z M194.627,98.224 L193.221,99.896 C192.409,99.115 191.627,98.391 190.877,97.724 L192.159,96.24 C192.95,96.823 193.773,97.485 194.627,98.224 Z M189.565,100.131 C186.898,99.881 184.609,99.402 182.698,98.693 C180.682,99.407 178.367,99.954 175.752,100.334 C175.534,99.782 175.252,99.131 174.909,98.381 C176.851,98.198 178.612,97.909 180.19,97.513 C179.456,97.071 178.807,96.581 178.245,96.045 C177.635,96.54 176.987,97.001 176.299,97.428 C175.945,96.948 175.523,96.422 175.034,95.849 C177.054,94.693 178.56,93.402 179.549,91.974 L181.909,91.974 C181.612,92.433 181.294,92.876 180.956,93.303 L189.096,93.303 L189.096,94.99 C188.096,95.938 186.893,96.777 185.487,97.506 C186.966,97.834 188.607,98.016 190.409,98.053 C190.086,98.823 189.804,99.516 189.565,100.131 Z M185.971,95.037 L179.885,95.037 C180.739,95.693 181.713,96.243 182.807,96.685 C184.01,96.222 185.065,95.672 185.971,95.037 Z M175.44,102.896 L175.44,101.006 L180.323,101.006 C180.422,100.547 180.502,100.058 180.565,99.537 L182.799,99.537 C182.747,100.037 182.677,100.527 182.588,101.006 L189.19,101.006 L188.924,104.568 C188.872,105.162 188.698,105.651 188.401,106.037 C188.104,106.422 187.698,106.707 187.182,106.892 C186.666,107.077 185.656,107.17 184.151,107.17 C183.63,107.17 183.081,107.157 182.502,107.131 C182.409,106.516 182.242,105.813 182.002,105.021 C183.153,105.115 184.159,105.162 185.018,105.162 C185.466,105.162 185.815,105.094 186.065,104.959 C186.315,104.823 186.47,104.633 186.53,104.388 C186.59,104.144 186.638,103.646 186.674,102.896 L182.112,102.896 C181.315,105.094 179.398,106.61 176.362,107.443 C175.956,106.891 175.466,106.292 174.893,105.646 C177.289,105.073 178.877,104.157 179.659,102.896 L175.44,102.896 Z M173.143,107.303 C172.325,106.834 171.583,106.276 170.916,105.631 C170.26,106.308 169.518,106.907 168.69,107.428 C168.414,106.875 168.101,106.331 167.752,105.795 L167.752,107.318 L165.752,107.318 L165.752,92.599 L173.815,92.599 C173.815,94.198 173.764,95.241 173.663,95.728 C173.561,96.215 173.377,96.598 173.112,96.877 C172.846,97.155 172.528,97.333 172.159,97.408 C171.789,97.484 170.747,97.511 169.034,97.49 C168.94,96.876 168.804,96.24 168.627,95.584 C169.528,95.646 170.195,95.678 170.627,95.678 C170.924,95.678 171.163,95.614 171.342,95.486 C171.522,95.359 171.612,95.011 171.612,94.443 L167.752,94.443 L167.752,98.193 L174.018,98.193 L174.018,99.99 C173.612,101.48 173.026,102.803 172.26,103.959 C172.901,104.464 173.633,104.881 174.456,105.209 C174.039,105.803 173.601,106.5 173.143,107.303 Z M167.752,100.021 L167.752,105.185 C168.403,104.842 168.987,104.438 169.502,103.974 C168.857,103.058 168.315,102.021 167.877,100.865 L169.612,100.146 C169.919,101.011 170.32,101.779 170.815,102.451 C171.289,101.737 171.664,100.928 171.94,100.021 L167.752,100.021 Z M161.893,107.224 C161.758,106.464 161.575,105.756 161.346,105.099 C161.69,105.152 162.008,105.178 162.299,105.178 C162.799,105.178 163.049,104.876 163.049,104.271 L163.049,102.334 L161.627,102.334 C161.554,104.61 161.117,106.323 160.315,107.474 C159.877,106.808 159.398,106.214 158.877,105.693 C159.268,104.87 159.524,103.948 159.647,102.928 C159.769,101.907 159.831,100.245 159.831,97.943 L159.831,92.615 L164.893,92.615 L164.893,105.24 C164.893,105.823 164.739,106.295 164.432,106.654 C164.125,107.013 163.278,107.204 161.893,107.224 Z M163.049,94.615 L161.706,94.615 L161.706,96.615 L163.049,96.615 L163.049,94.615 Z M163.049,98.474 L161.706,98.474 C161.706,99.198 161.7,99.865 161.69,100.474 L163.049,100.474 L163.049,98.474 Z M194.768,101.443 L193.284,107.349 C192.586,107.099 191.898,106.886 191.221,106.709 C191.773,104.876 192.284,102.876 192.752,100.709 C193.596,101.053 194.268,101.297 194.768,101.443 Z M198.096,97.693 L194.69,97.693 L194.69,96.068 L206.315,96.068 L206.315,97.693 L203.081,97.693 L203.081,99.006 L205.846,99.006 L205.846,105.209 C205.846,105.808 205.711,106.269 205.44,106.592 C205.169,106.914 204.81,107.103 204.362,107.158 C203.914,107.213 202.987,107.25 201.581,107.271 C201.456,106.74 201.312,106.235 201.151,105.756 L199.534,104.756 C200.018,104.266 200.403,103.688 200.69,103.021 L199.909,103.724 C199.742,103.495 199.567,103.269 199.385,103.045 C199.067,103.909 198.596,104.797 197.971,105.709 C197.836,105.558 197.56,105.326 197.143,105.013 L197.143,107.334 L195.19,107.334 L195.19,99.006 L198.096,99.006 L198.096,97.693 Z M201.315,97.693 L199.862,97.693 L199.862,99.006 L201.315,99.006 L201.315,97.693 Z M203.987,100.459 L203.073,100.459 C203.067,100.917 203.028,101.365 202.956,101.803 L203.987,102.857 L203.987,100.459 Z M202.987,105.693 C203.581,105.693 203.883,105.407 203.893,104.834 L203.893,103.904 L203.284,104.49 C203.034,104.157 202.771,103.826 202.495,103.498 C202.198,104.263 201.789,104.982 201.268,105.654 C201.956,105.68 202.528,105.693 202.987,105.693 Z M200.87,102.553 C201.088,101.922 201.226,101.224 201.284,100.459 L199.862,100.459 C199.851,100.891 199.828,101.219 199.791,101.443 L200.87,102.553 Z M197.049,100.459 L197.049,103.818 C197.669,102.87 198.015,101.751 198.088,100.459 L197.049,100.459 Z M208.643,97.662 L220.659,97.662 L220.659,102.881 L215.26,102.881 C215.75,103.266 216.138,103.594 216.424,103.865 L214.956,105.193 C214.539,104.693 213.982,104.126 213.284,103.49 L213.995,102.881 L208.643,102.881 L208.643,97.662 Z M210.659,101.599 L218.643,101.599 L218.643,100.834 L210.659,100.834 L210.659,101.599 Z M210.659,99.709 L218.643,99.709 L218.643,98.943 L210.659,98.943 L210.659,99.709 Z M212.706,104.662 C212.706,105.162 212.987,105.412 213.549,105.412 L215.534,105.412 C216.096,105.412 216.484,105.306 216.698,105.095 C216.911,104.885 217.06,104.344 217.143,103.474 C217.633,103.756 218.284,104.058 219.096,104.381 C218.815,105.594 218.453,106.356 218.01,106.666 C217.567,106.976 216.966,107.131 216.206,107.131 L213.018,107.131 C211.435,107.131 210.643,106.495 210.643,105.224 L210.643,103.209 L212.706,103.209 L212.706,104.662 Z M235.893,95.428 L235.893,96.084 L238.018,96.084 L238.018,97.771 L235.893,97.771 L235.893,100.318 L228.018,100.318 L228.018,97.771 L226.315,97.771 L226.315,96.084 L228.018,96.084 L228.018,95.428 L230.018,95.428 L230.018,96.084 L233.893,96.084 L233.893,95.428 L235.893,95.428 Z M230.018,97.771 L230.018,98.724 L233.893,98.724 L233.893,97.771 L230.018,97.771 Z M229.877,105.099 C229.013,104.474 228.221,103.688 227.502,102.74 L226.502,102.74 L226.502,101.053 L236.799,101.053 L236.799,102.74 C235.966,103.698 235.133,104.469 234.299,105.053 C235.445,105.271 236.82,105.407 238.424,105.459 C238.112,106.063 237.804,106.693 237.502,107.349 C235.2,107.068 233.351,106.678 231.956,106.178 C230.466,106.678 228.612,107.11 226.393,107.474 C226.133,106.891 225.794,106.313 225.377,105.74 C227.065,105.657 228.565,105.443 229.877,105.099 Z M232.049,104.349 C232.997,103.912 233.804,103.376 234.471,102.74 L229.721,102.74 C230.388,103.407 231.164,103.943 232.049,104.349 Z" id="形状" fill="#FFFFFF"></path>
            <g id="形状">
                <use fill="black" fill-opacity="1" filter="url(#filter-5)" xlink:href="#path-4"></use>
                <use fill="#FFC35A" fill-rule="evenodd" xlink:href="#path-4"></use>
            </g>
        </g>
    </g>
</svg>