<?xml version="1.0" encoding="UTF-8"?>
<svg width="564px" height="138px" viewBox="0 0 564 138" version="1.1" xmlns="http://www.w3.org/2000/svg" xmlns:xlink="http://www.w3.org/1999/xlink">
    <title>xia3_kuang1</title>
    <defs>
        <path d="M8,-1.8189894e-12 L10,1 L1.353,8.69253896 L1.63218569,112.975203 L10,121 L8,122 L0.391,114.03 L0,7.77 L8,-1.8189894e-12 Z M540,-1.8189894e-12 L548,7.77 L547.609,114.03 L540,122 L538,121 L546.367814,112.975203 L546.647,8.69253896 L538,1 L540,-1.8189894e-12 Z" id="path-1"></path>
        <filter x="-2.2%" y="-9.8%" width="104.4%" height="119.7%" filterUnits="objectBoundingBox" id="filter-2">
            <feOffset dx="0" dy="0" in="SourceAlpha" result="shadowOffsetOuter1"></feOffset>
            <feGaussianBlur stdDeviation="4" in="shadowOffsetOuter1" result="shadowBlurOuter1"></feGaussianBlur>
            <feColorMatrix values="0 0 0 0 0.97254902   0 0 0 0 0.964705882   0 0 0 0 0.443137255  0 0 0 1 0" type="matrix" in="shadowBlurOuter1"></feColorMatrix>
        </filter>
        <path d="M314.494,27.68 L316.294,28.49 C315.448,29.823 314.368,31.011 313.125,32.001 C313.521,32.92 313.953,33.478 314.404,33.478 C314.746,33.478 314.908,33.01 314.998,31.569 C315.412,32.073 316.042,32.542 316.492,32.758 C316.15,34.972 315.592,35.548 314.17,35.548 C312.999,35.548 312.117,34.666 311.397,33.226 C310.064,34.072 308.606,34.738 307.057,35.296 C306.805,34.756 306.265,34.036 305.761,33.532 C307.508,33.01 309.2,32.289 310.677,31.353 C310.406,30.363 310.154,29.265 309.956,28.076 L306.751,28.652 L306.409,26.762 L309.704,26.15 C309.632,25.591 309.578,25.015 309.524,24.439 L307.129,24.817 L306.769,22.891 L309.398,22.495 C309.326,21.234 309.29,19.956 309.29,18.695 L311.415,18.695 C311.397,19.866 311.415,21.036 311.469,22.17 L315.322,21.594 L315.682,23.449 L311.595,24.097 C311.649,24.673 311.703,25.231 311.757,25.772 L315.808,25.051 L316.15,26.906 L312.027,27.68 C312.171,28.508 312.315,29.301 312.477,30.003 C313.287,29.319 313.971,28.526 314.494,27.68 Z M311.721,20.046 L312.963,18.93 C313.701,19.362 314.71,20.028 315.232,20.478 L313.953,21.738 C313.449,21.27 312.441,20.532 311.721,20.046 Z M304.933,22.387 L306.661,23.485 C305.707,25.177 304.537,26.852 303.312,28.292 L306.139,27.824 C306.067,28.364 306.049,29.175 306.085,29.607 C301.692,30.453 300.972,30.669 300.503,30.939 C300.395,30.543 300.071,29.589 299.837,29.067 C300.305,28.958 300.72,28.562 301.278,27.914 C301.566,27.626 302.088,26.96 302.7,26.132 C301.098,26.312 300.666,26.42 300.377,26.564 C300.269,26.168 299.927,25.159 299.693,24.601 C300.071,24.493 300.377,24.115 300.774,23.539 C301.17,23.017 302.394,20.838 303.042,18.785 L305.041,19.758 C304.357,21.342 303.366,23.017 302.376,24.403 L303.888,24.277 C304.267,23.665 304.627,23.035 304.933,22.387 Z M296.53,30.903 C294.225,30.903 294.225,27.878 294.315,23.035 L292.641,23.035 C292.55,24.259 292.406,25.375 292.172,26.348 C293.019,26.87 293.775,27.374 294.297,27.788 L293.235,29.517 C292.821,29.139 292.208,28.688 291.524,28.22 C290.948,29.445 290.084,30.435 288.805,31.227 C288.553,30.723 287.959,30.003 287.473,29.643 C288.571,28.958 289.31,28.13 289.778,27.104 C289.255,26.78 288.751,26.456 288.283,26.186 L288.319,26.132 L286.429,26.618 L286.429,28.814 C286.429,29.787 286.249,30.291 285.654,30.615 C285.06,30.921 284.214,30.975 283.008,30.975 C282.954,30.417 282.684,29.607 282.431,29.049 C283.17,29.085 283.908,29.085 284.142,29.085 C284.376,29.067 284.466,29.013 284.466,28.778 L284.466,27.122 L282.089,27.716 L281.675,25.646 C282.449,25.501 283.422,25.285 284.466,25.051 L284.466,23.107 L282.071,23.107 L282.071,21.144 L284.466,21.144 L284.466,18.785 L286.429,18.785 L286.429,21.144 L288.283,21.144 L288.283,23.107 L286.429,23.107 L286.429,24.601 C287.005,24.457 287.599,24.313 288.193,24.169 L288.391,26.024 L289.292,24.691 C289.616,24.871 289.976,25.069 290.354,25.285 C290.498,24.601 290.588,23.863 290.642,23.035 L288.589,23.035 L288.589,21.234 L290.714,21.234 C290.732,20.442 290.75,19.614 290.75,18.713 L292.767,18.713 C292.749,19.614 292.749,20.442 292.713,21.234 L296.332,21.234 C296.116,26.222 296.044,29.067 296.602,29.049 C296.854,29.049 296.962,28.526 297.016,27.266 C297.412,27.59 298.114,27.932 298.6,28.04 C298.402,30.255 297.844,30.903 296.53,30.903 Z M285.906,31.821 C285.348,33.118 284.43,34.648 283.692,35.638 L281.657,34.81 C282.377,33.946 283.296,32.542 283.854,31.281 L285.906,31.821 Z M274.999,34.252 C273.342,34.252 272.136,33.55 271.344,32.74 L272.73,31.155 C273.216,31.677 274.044,32.091 274.837,32.091 C276.331,32.091 277.573,30.957 277.681,27.608 C276.997,28.508 275.863,29.067 274.945,29.067 C272.73,29.067 271.127,27.698 271.127,24.871 C271.127,22.134 273.036,20.424 275.323,20.424 C277.843,20.424 280.112,22.405 280.112,27.032 C280.112,32.073 277.645,34.252 274.999,34.252 Z M275.359,22.423 C274.368,22.423 273.558,23.233 273.558,24.871 C273.558,26.438 274.296,27.176 275.449,27.176 C276.169,27.176 276.997,26.78 277.645,25.754 C277.411,23.323 276.493,22.423 275.359,22.423 Z M260.58,32.47 C264.199,29.229 266.341,26.726 266.341,24.673 C266.341,23.323 265.603,22.513 264.343,22.513 C263.37,22.513 262.56,23.143 261.894,23.881 L260.454,22.441 C261.678,21.144 262.866,20.424 264.685,20.424 C267.206,20.424 268.88,22.044 268.88,24.529 C268.88,26.942 266.882,29.535 264.451,31.911 C265.117,31.839 265.999,31.767 266.611,31.767 L269.51,31.767 L269.51,34 L260.58,34 L260.58,32.47 Z M258.818,30.381 C258.818,32.83 256.676,34.252 254.137,34.252 C252.03,34.252 250.608,33.46 249.672,32.398 L250.914,30.723 C251.706,31.497 252.679,32.091 253.885,32.091 C255.235,32.091 256.154,31.425 256.154,30.237 C256.154,28.922 255.379,28.112 252.481,28.112 L252.481,26.204 C254.929,26.204 255.722,25.357 255.722,24.169 C255.722,23.125 255.073,22.513 253.939,22.495 C252.985,22.513 252.211,22.963 251.418,23.683 L250.068,22.062 C251.22,21.054 252.499,20.424 254.065,20.424 C256.64,20.424 258.386,21.684 258.386,23.971 C258.386,25.411 257.576,26.456 256.154,27.014 L256.154,27.104 C257.666,27.518 258.818,28.634 258.818,30.381 Z M239.376,32.47 C242.995,29.229 245.138,26.726 245.138,24.673 C245.138,23.323 244.4,22.513 243.139,22.513 C242.167,22.513 241.357,23.143 240.69,23.881 L239.25,22.441 C240.474,21.144 241.663,20.424 243.481,20.424 C246.002,20.424 247.677,22.044 247.677,24.529 C247.677,26.942 245.678,29.535 243.247,31.911 C243.913,31.839 244.796,31.767 245.408,31.767 L248.307,31.767 L248.307,34 L239.376,34 L239.376,32.47 Z M229.476,31.857 L232.339,31.857 L232.339,23.431 L229.927,23.431 L229.927,21.792 C231.259,21.54 232.177,21.198 233.023,20.676 L234.986,20.676 L234.986,31.857 L237.489,31.857 L237.489,34 L229.476,34 L229.476,31.857 Z M289.346,35.17 L287.239,35.458 C287.239,34.594 287.113,33.136 286.897,32.001 L288.895,31.803 C289.129,32.884 289.328,34.288 289.346,35.17 Z M293.631,34.99 L291.506,35.404 C291.398,34.522 290.984,33.082 290.57,31.965 L292.586,31.641 C293.037,32.686 293.487,34.09 293.631,34.99 Z M298.402,34.738 L296.368,35.638 C295.99,34.684 295.035,33.1 294.225,31.929 L296.134,31.155 C296.944,32.235 297.952,33.73 298.402,34.738 Z M306.337,32.632 C304.285,33.352 302.088,34.144 300.341,34.72 L299.909,32.704 C301.422,32.307 303.762,31.569 306.013,30.885 L306.337,32.632 Z" id="path-3"></path>
        <filter x="-20.7%" y="-106.2%" width="141.4%" height="312.5%" filterUnits="objectBoundingBox" id="filter-4">
            <feOffset dx="0" dy="0" in="SourceAlpha" result="shadowOffsetOuter1"></feOffset>
            <feGaussianBlur stdDeviation="6" in="shadowOffsetOuter1" result="shadowBlurOuter1"></feGaussianBlur>
            <feColorMatrix values="0 0 0 0 0.0235294118   0 0 0 0 0.0470588235   0 0 0 0 0.28627451  0 0 0 1 0" type="matrix" in="shadowBlurOuter1"></feColorMatrix>
        </filter>
        <linearGradient x1="0%" y1="100%" x2="0%" y2="0%" id="linearGradient-5">
            <stop stop-color="#62A2CD" stop-opacity="0" offset="0%"></stop>
            <stop stop-color="#62A2CD" offset="49%"></stop>
            <stop stop-color="#62A2CD" stop-opacity="0.98" offset="50%"></stop>
            <stop stop-color="#62A2CD" stop-opacity="0" offset="100%"></stop>
        </linearGradient>
    </defs>
    <g id="页面-1" stroke="none" stroke-width="1" fill="none" fill-rule="evenodd">
        <g id="xia3_kuang1" transform="translate(8.000000, 8.000000)">
            <polygon id="路径" fill="#20A8E8" opacity="0.102" points="8 1 1 8 1 114 8 121 540 121 547 114 547 8 540 1"></polygon>
            <polygon id="路径备份-5" fill="#F8F671" opacity="0.200000003" points="8 1 1 8 1 114 8 121 540 121 547 114 547 8 540 1"></polygon>
            <g id="形状结合">
                <use fill="black" fill-opacity="1" filter="url(#filter-2)" xlink:href="#path-1"></use>
                <use fill="#F8F671" fill-rule="evenodd" xlink:href="#path-1"></use>
            </g>
            <g id="形状">
                <use fill="black" fill-opacity="1" filter="url(#filter-4)" xlink:href="#path-3"></use>
                <use fill="#FFC35A" fill-rule="evenodd" xlink:href="#path-3"></use>
            </g>
            <polygon id="路径" fill="url(#linearGradient-5)" opacity="0.502" points="157 42 159 42 159 109 157 109"></polygon>
            <polygon id="路径" fill="url(#linearGradient-5)" opacity="0.502" points="273 42 275 42 275 109 273 109"></polygon>
            <polygon id="路径" fill="url(#linearGradient-5)" opacity="0.502" points="410 42 412 42 412 109 410 109"></polygon>
        </g>
    </g>
</svg>