<?xml version="1.0" encoding="UTF-8"?>
<svg width="151px" height="25px" viewBox="0 0 151 25" version="1.1" xmlns="http://www.w3.org/2000/svg" xmlns:xlink="http://www.w3.org/1999/xlink">
    <title>dk_bingtu_bg</title>
    <defs>
        <linearGradient x1="0%" y1="100%" x2="0%" y2="0%" id="linearGradient-1">
            <stop stop-color="#4FACFE" offset="0%"></stop>
            <stop stop-color="#00F2FE" offset="100%"></stop>
        </linearGradient>
    </defs>
    <g id="图标" stroke="none" stroke-width="1" fill="none" fill-rule="evenodd">
        <g id="dk_bingtu_bg">
            <polygon id="路径" fill-opacity="0.2" fill="url(#linearGradient-1)" points="0.5 24.5 150.5 24.5 150.5 0.5 0.5 0.5"></polygon>
            <path d="M150.5,4.5 C150.5,9.125 150.5,15.893 150.5,20.5 M0.5,20.5 C0.5,15.884 0.5,9.106 0.5,4.5" id="形状" stroke="#00CDE2"></path>
            <path d="M150.5,22.5 C150.5,23.672 150.5,24.5 150.5,24.5 C150.5,24.5 146.757,24.5 140.5,24.5 M10.5,24.5 C4.46,24.5 0.5,24.5 0.5,24.5 C0.5,24.5 0.5,23.725 0.5,22.5 M0.5,2.5 C0.5,1.235 0.5,0.5 0.5,0.5 C0.5,0.5 4.085,0.5 10.5,0.5 M140.5,0.5 C146.652,0.5 150.5,0.5 150.5,0.5 C150.5,0.5 150.5,1.3 150.5,2.5" id="形状" stroke="#FFFFFF"></path>
        </g>
    </g>
</svg>