<?xml version="1.0" encoding="UTF-8"?>
<svg width="429px" height="302px" viewBox="0 0 429 302" version="1.1" xmlns="http://www.w3.org/2000/svg" xmlns:xlink="http://www.w3.org/1999/xlink">
    <title>dk_kuang_zhongxia1</title>
    <defs>
        <linearGradient x1="0%" y1="0%" x2="100%" y2="0%" id="linearGradient-1">
            <stop stop-color="#030E6A" stop-opacity="0.8" offset="0%"></stop>
            <stop stop-color="#030E6A" stop-opacity="0" offset="100%"></stop>
        </linearGradient>
        <linearGradient x1="50%" y1="0%" x2="50%" y2="100%" id="linearGradient-2">
            <stop stop-color="#031270" offset="0%"></stop>
            <stop stop-color="#031270" stop-opacity="0.584380463" offset="40.8134834%"></stop>
            <stop stop-color="#031270" offset="100%"></stop>
        </linearGradient>
        <linearGradient x1="19.6284089%" y1="25.2213333%" x2="28.9870627%" y2="74.7786667%" id="linearGradient-3">
            <stop stop-color="#2845FB" offset="0%"></stop>
            <stop stop-color="#2845FB" stop-opacity="0.0366586538" offset="22.8845276%"></stop>
            <stop stop-color="#2845FB" offset="50.2340994%"></stop>
            <stop stop-color="#2845FB" stop-opacity="0" offset="100%"></stop>
        </linearGradient>
        <linearGradient x1="100%" y1="72.4361727%" x2="0%" y2="72.4361727%" id="linearGradient-4">
            <stop stop-color="#0A54FF" stop-opacity="0" offset="0%"></stop>
            <stop stop-color="#0A54FF" offset="100%"></stop>
        </linearGradient>
        <linearGradient x1="0%" y1="0%" x2="100%" y2="0%" id="linearGradient-5">
            <stop stop-color="#4BAAE4" stop-opacity="0" offset="0%"></stop>
            <stop stop-color="#4BAAE4" offset="12.7349213%"></stop>
            <stop stop-color="#005174" stop-opacity="0" offset="100%"></stop>
        </linearGradient>
        <linearGradient x1="0%" y1="0%" x2="100%" y2="0%" id="linearGradient-6">
            <stop stop-color="#4BAAE4" stop-opacity="0" offset="0%"></stop>
            <stop stop-color="#4BAAE4" offset="12.7349213%"></stop>
            <stop stop-color="#005174" stop-opacity="0" offset="100%"></stop>
        </linearGradient>
        <linearGradient x1="0%" y1="0%" x2="99.939%" y2="3.49%" id="linearGradient-7">
            <stop stop-color="#00C0FF" offset="0%"></stop>
            <stop stop-color="#43F0FF" offset="49%"></stop>
            <stop stop-color="#00C0FF" offset="100%"></stop>
        </linearGradient>
    </defs>
    <g id="页面-1" stroke="none" stroke-width="1" fill="none" fill-rule="evenodd">
        <g id="dk_kuang_zhongxia1">
            <polygon id="路径" fill="url(#linearGradient-1)" points="252 0 0 0 0 32 279 32"></polygon>
            <polygon id="路径" fill="url(#linearGradient-2)" opacity="0.302" points="253.13219 0.134990042 279.289771 31.5596718 429 31.0527092 429 302 0 302 0 0"></polygon>
            <path d="M0.5,0.500268707 L252.896823,0.635873617 L279.055172,32.2518021 L428.5,31.7427062 L428.5,301.503 L0.5,301.503 L0.5,0.500268707 Z" id="路径" stroke="url(#linearGradient-3)"></path>
            <polygon id="路径" fill="url(#linearGradient-4)" opacity="0.302" points="0 0 252.544 0 279.544 32 0 32"></polygon>
            <path d="M24.275,7.635 L29.784,7.635 C32.067,7.635 33.917,9.466 33.917,11.725 L25.644,23.901 C24.566,24.843 22.419,26.729 20.142,26.7240099 L14.632,26.7240099 C12.35,26.7240099 10.5,24.892 10.5,22.633 L18.765,10.362 C20.853,8.295 21.448,7.635 24.275,7.635 Z" id="路径" fill="#00D4E8"></path>
            <path d="M31.162,4.908 L36.672,4.908 C38.954,4.908 40.804,6.739 40.804,8.998 L32.531,21.174 C31.453,22.116 29.306,24.002 27.03,23.9970099 L21.52,23.9970099 C19.238,23.9970099 17.387,22.165 17.387,19.906 L25.652,7.635 C27.741,5.568 28.335,4.908 31.162,4.908 Z" id="路径" fill="#2845FB" opacity="0.502"></path>
            <polyline id="路径" stroke="url(#linearGradient-5)" points="382.5 26.5 297.5 26.5 283.5 10.5"></polyline>
            <polyline id="路径" stroke="url(#linearGradient-6)" opacity="0.4" points="386.709 19.479 301.01 19.479 288.5 4.5"></polyline>
            <polygon id="路径" fill="#1050D3" opacity="0.2" points="419.237 12.479 414.422 12.479 422.043 23.099 426.858 23.099"></polygon>
            <polygon id="路径" fill="#2563E1" opacity="0.502" points="409.002 12.479 404.187 12.479 411.807 23.099 416.622 23.099"></polygon>
            <polygon id="路径" fill="#4680F5" points="398.767 12.479 393.952 12.479 401.572 23.099 406.387 23.099"></polygon>
            <path d="M182.277,12.756 L182.277,15.221 L179.439,15.221 L179.439,25.892 L176.842,25.892 L176.842,15.221 L173.96,15.221 C173.872,18.565 173.41,22.988 171.474,25.848 C170.989,25.452 169.911,24.792 169.295,24.55 C171.297,21.624 171.474,17.377 171.474,14.275 L171.474,7.784 C174.18,7.278 177.106,6.463 178.889,5.583 L181.089,7.652 C179.021,8.51 176.424,9.192 173.96,9.654 L173.96,12.756 L182.277,12.756 Z M167.579,13.196 C168.393,14.187 170.087,16.497 170.483,17.069 L168.965,19.137 C168.657,18.455 168.129,17.443 167.579,16.475 L167.579,25.892 L165.071,25.892 L165.071,17.355 C164.41,19.225 163.618,20.942 162.738,22.13 C162.496,21.382 161.902,20.347 161.506,19.687 C162.892,17.949 164.124,14.957 164.785,12.36 L162.1,12.36 L162.1,9.896 L165.071,9.896 L165.071,5.363 L167.579,5.363 L167.579,9.896 L170.571,9.896 L170.571,12.36 L167.579,12.36 L167.579,13.196 Z M156.999,14.495 L156.999,14.561 C156.779,21.052 156.515,23.648 155.744,24.55 C155.194,25.254 154.6,25.496 153.764,25.584 C152.972,25.694 151.74,25.694 150.42,25.65 C150.376,24.858 150.046,23.758 149.584,23.01 C150.772,23.12 151.938,23.12 152.466,23.12 C152.862,23.12 153.104,23.054 153.346,22.834 C153.808,22.328 154.028,20.457 154.226,15.991 L149.628,15.991 C149.055,20.149 147.603,23.89 141.948,25.98 C141.64,25.276 140.892,24.22 140.298,23.648 C145.205,22.064 146.371,19.159 146.833,15.991 L143.291,15.991 L143.291,14.693 C142.873,15.155 142.432,15.573 141.97,15.947 C141.486,15.397 140.386,14.341 139.748,13.879 C142.322,12.03 144.545,8.95 145.777,5.671 L148.593,6.441 C147.603,8.994 146.129,11.414 144.479,13.394 L156.074,13.394 C154.424,11.348 152.796,8.906 151.652,6.551 L154.116,5.627 C155.436,8.4 158.077,11.656 160.343,13.526 C159.683,14.033 158.715,15.045 158.231,15.749 C157.835,15.353 157.417,14.935 156.999,14.495 Z M135.945,16.453 C133.546,16.453 133.282,13.703 133.304,9.478 L131.434,9.478 C131.324,10.446 131.148,11.326 130.884,12.118 C131.83,12.712 132.688,13.284 133.282,13.747 L131.918,15.771 C131.412,15.353 130.664,14.803 129.872,14.231 C129.3,15.045 128.53,15.727 127.562,16.321 L128.442,16.321 C128.398,16.761 128.332,17.201 128.288,17.619 L136.209,17.619 C136.209,17.619 136.187,18.323 136.121,18.653 C135.769,22.482 135.373,24.22 134.647,24.924 C134.052,25.518 133.392,25.694 132.468,25.76 C131.698,25.848 130.378,25.826 128.97,25.782 C128.926,25.034 128.574,24.066 128.134,23.406 C129.476,23.516 130.862,23.538 131.456,23.538 C131.896,23.538 132.182,23.516 132.424,23.318 C132.798,22.988 133.106,21.976 133.348,19.929 L127.694,19.929 C126.681,22.702 124.525,24.77 119.222,25.98 C118.98,25.276 118.364,24.264 117.858,23.714 C121.973,22.9 123.843,21.624 124.789,19.929 L118.848,19.929 L118.848,17.619 L125.559,17.619 C125.647,17.201 125.691,16.761 125.757,16.321 L126.747,16.321 C126.417,15.771 125.911,15.133 125.493,14.781 C126.527,14.275 127.297,13.681 127.826,12.932 C127.253,12.558 126.681,12.228 126.197,11.942 L126.219,12.602 C125.339,12.734 124.459,12.866 123.579,12.998 L123.579,14.319 C123.579,15.463 123.381,16.035 122.611,16.387 C121.885,16.739 120.851,16.761 119.398,16.761 C119.31,16.101 119.002,15.199 118.716,14.583 C119.596,14.605 120.521,14.605 120.807,14.605 C121.093,14.605 121.181,14.517 121.181,14.275 L121.181,13.35 L118.342,13.747 L117.924,11.392 C118.848,11.304 119.97,11.172 121.181,11.018 L121.181,9.566 L118.276,9.566 L118.276,7.278 L121.181,7.278 L121.181,5.385 L123.579,5.385 L123.579,7.278 L126.021,7.278 L126.021,9.566 L123.579,9.566 L123.579,10.71 C124.437,10.6 125.273,10.468 126.131,10.38 L126.175,11.876 L127.452,10.138 C127.87,10.336 128.31,10.578 128.75,10.864 C128.86,10.424 128.948,9.984 129.014,9.478 L126.527,9.478 L126.527,7.322 L129.19,7.322 C129.234,6.706 129.234,6.067 129.256,5.363 L131.676,5.363 C131.654,6.045 131.654,6.684 131.61,7.322 L133.326,7.322 L133.326,7.3 L135.703,7.3 C135.527,11.612 135.505,14.231 136.055,14.231 C136.319,14.231 136.429,13.659 136.495,12.404 C136.979,12.822 137.771,13.174 138.343,13.328 C138.123,15.771 137.463,16.453 135.945,16.453 Z M110.798,23.12 C111.788,23.142 115.089,23.12 116.365,23.098 C115.991,23.692 115.573,24.88 115.441,25.628 L110.644,25.628 C106.266,25.628 102.811,24.858 100.501,21.558 C99.775,23.296 98.829,24.836 97.486,25.914 C97.046,25.408 96.122,24.594 95.528,24.242 C97.992,22.284 99.027,18.587 99.335,15.507 L102.041,15.815 C101.887,16.761 101.689,17.751 101.425,18.719 C102.195,20.325 103.295,21.36 104.593,22.02 L104.593,14.605 L96.276,14.605 L96.276,12.162 L104.593,12.162 L104.593,10.028 L98.212,10.028 L98.212,7.63 L104.593,7.63 L104.593,5.385 L107.278,5.385 L107.278,7.63 L114.055,7.63 L114.055,10.028 L107.278,10.028 L107.278,12.162 L115.771,12.162 L115.771,14.605 L107.278,14.605 L107.278,17.267 L114.297,17.267 L114.297,19.599 L107.278,19.599 L107.278,22.856 C108.378,23.054 109.566,23.12 110.798,23.12 Z M88.886,20.81 C88.248,22.614 87.17,24.418 85.432,25.98 C84.992,25.408 84.09,24.594 83.452,24.198 C87.082,21.074 87.412,16.893 87.412,14.165 L87.412,13.13 L89.898,13.13 L89.898,14.231 C89.898,14.847 89.876,15.529 89.832,16.277 C90.559,19.555 92.011,22.372 94.497,23.648 C93.925,24.154 93.133,25.166 92.759,25.87 C90.999,24.77 89.766,22.988 88.886,20.81 Z M90.581,15.309 C90.867,14.385 91.175,13.042 91.417,11.7 L87.148,11.7 C86.642,13.372 86.026,14.847 85.3,16.035 C84.948,15.705 84.244,15.133 83.65,14.737 L83.65,15.639 L74.694,15.639 L74.694,13.526 L83.65,13.526 L83.672,13.659 C84.816,11.546 85.498,8.488 85.828,5.407 L88.358,5.759 C88.204,6.97 88.006,8.18 87.764,9.324 L92.121,9.324 L92.495,9.214 L94.321,9.72 C93.881,11.876 93.265,14.363 92.693,15.969 L90.581,15.309 Z M80.393,10.38 L83.782,10.38 L83.782,12.492 L74.562,12.492 L74.562,10.38 L77.951,10.38 L77.951,9.258 L74.012,9.258 L74.012,7.124 L77.951,7.124 L77.951,5.517 L80.393,5.517 L80.393,7.124 L84.266,7.124 L84.266,9.258 L80.393,9.258 L80.393,10.38 Z M84.53,18.829 L80.415,18.829 L80.415,23.45 C80.415,24.528 80.261,25.144 79.535,25.496 C78.853,25.87 77.951,25.914 76.763,25.914 C76.675,25.21 76.344,24.286 76.058,23.648 C76.741,23.67 77.445,23.67 77.687,23.67 C77.907,23.67 77.973,23.604 77.973,23.406 L77.973,18.829 L73.726,18.829 L73.726,16.673 L84.53,16.673 L84.53,18.829 Z M77.247,19.731 C76.829,21.338 76.102,23.208 75.486,24.396 C75.002,24.11 74.034,23.692 73.484,23.516 C74.144,22.394 74.716,20.722 75.112,19.247 L77.247,19.731 Z M68.559,24.726 L55.335,24.726 L55.335,25.892 L52.606,25.892 L52.606,6.089 L71.419,6.089 L71.419,25.892 L68.559,25.892 L68.559,24.726 Z M68.559,8.774 L55.335,8.774 L55.335,22.284 L68.559,22.284 L68.559,8.774 Z M66.424,19.731 L57.447,19.731 L57.447,11.37 L66.424,11.37 L66.424,19.731 Z M63.784,13.659 L59.911,13.659 L59.911,17.465 L63.784,17.465 L63.784,13.659 Z M84.398,22.57 L82.351,23.428 C82.109,22.548 81.537,21.074 81.031,19.951 L82.967,19.203 C83.518,20.259 84.134,21.668 84.398,22.57 Z" id="形状" fill="url(#linearGradient-7)" fill-rule="nonzero"></path>
        </g>
    </g>
</svg>