<?xml version="1.0" encoding="UTF-8"?>
<svg width="878px" height="534px" viewBox="0 0 878 534" version="1.1" xmlns="http://www.w3.org/2000/svg" xmlns:xlink="http://www.w3.org/1999/xlink">
    <title>dk_kuang_zhong</title>
    <defs>
        <linearGradient x1="0%" y1="100%" x2="0%" y2="0%" id="linearGradient-1">
            <stop stop-color="#021888" offset="0%"></stop>
            <stop stop-color="#A2B8F6" offset="100%"></stop>
        </linearGradient>
        <linearGradient x1="0%" y1="0%" x2="0%" y2="100%" id="linearGradient-2">
            <stop stop-color="#5B6DCA" offset="0%"></stop>
            <stop stop-color="#02154C" offset="100%"></stop>
        </linearGradient>
        <linearGradient x1="0%" y1="100%" x2="0%" y2="0%" id="linearGradient-3">
            <stop stop-color="#5B6DCA" offset="0%"></stop>
            <stop stop-color="#02154C" offset="100%"></stop>
        </linearGradient>
        <linearGradient x1="0%" y1="0%" x2="100%" y2="0%" id="linearGradient-4">
            <stop stop-color="#5B6DCA" offset="0%"></stop>
            <stop stop-color="#02154C" offset="100%"></stop>
        </linearGradient>
        <linearGradient x1="100%" y1="0%" x2="0%" y2="0%" id="linearGradient-5">
            <stop stop-color="#5B6DCA" offset="0%"></stop>
            <stop stop-color="#02154C" offset="100%"></stop>
        </linearGradient>
        <linearGradient x1="0%" y1="100%" x2="0%" y2="0%" id="linearGradient-6">
            <stop stop-color="#02154C" offset="0%"></stop>
            <stop stop-color="#0A419C" offset="100%"></stop>
        </linearGradient>
        <linearGradient x1="0%" y1="100%" x2="0%" y2="0%" id="linearGradient-7">
            <stop stop-color="#678DFB" offset="0%"></stop>
            <stop stop-color="#0C55CD" offset="100%"></stop>
        </linearGradient>
        <linearGradient x1="0%" y1="0%" x2="100%" y2="0%" id="linearGradient-8">
            <stop stop-color="#030E6A" stop-opacity="0.8" offset="0%"></stop>
            <stop stop-color="#030E6A" stop-opacity="0" offset="100%"></stop>
        </linearGradient>
        <linearGradient x1="100%" y1="72.4361727%" x2="0%" y2="72.4361727%" id="linearGradient-9">
            <stop stop-color="#0A54FF" stop-opacity="0" offset="0%"></stop>
            <stop stop-color="#0A54FF" offset="100%"></stop>
        </linearGradient>
    </defs>
    <g id="页面-1" stroke="none" stroke-width="1" fill="none" fill-rule="evenodd">
        <g id="dk_kuang_zhong">
            <polygon id="路径" fill="url(#linearGradient-1)" points="50 470 828 470 878 520 0 520"></polygon>
            <polygon id="路径" fill="url(#linearGradient-2)" points="1 520 878 520 878 534 1 534"></polygon>
            <polygon id="路径" fill="url(#linearGradient-3)" opacity="0.502" points="59 54 817 54 827 64 49 64"></polygon>
            <polygon id="路径" fill="url(#linearGradient-4)" points="826 68 768 96 767 446 827 472"></polygon>
            <polygon id="路径" fill="url(#linearGradient-5)" points="50 68 108 96 109 446 49 472"></polygon>
            <polygon id="路径" fill="url(#linearGradient-6)" opacity="0.851" points="107.688 94.844 767.313 94.844 767.313 470.156 107.688 470.156"></polygon>
            <line x1="111" y1="441" x2="50" y2="470" id="路径" stroke="#FFFFFF" opacity="0.102"></line>
            <line x1="764.426" y1="441" x2="825.426" y2="470" id="路径" stroke="#FFFFFF" opacity="0.102"></line>
            <line x1="111" y1="94.375" x2="50" y2="65.375" id="路径" stroke="#FFFFFF" opacity="0.102"></line>
            <line x1="764.426" y1="94.375" x2="825.426" y2="65.375" id="路径" stroke="#FFFFFF" opacity="0.102"></line>
            <path d="M826,64 L826,470 L767.313,470 L767.313,94.844 L107.688,94.844 L107.688,470 L49,470 L49,64 L826,64 Z" id="形状结合" fill="url(#linearGradient-7)" opacity="0.4"></path>
            <g id="zjld_littleTitle_zhong">
                <polygon id="路径" fill="url(#linearGradient-8)" points="252 0 0 0 0 32 279 32"></polygon>
                <polygon id="路径" fill="url(#linearGradient-9)" opacity="0.302" points="-5.68434189e-14 0 252.544 0 279.544 32 -5.68434189e-14 32"></polygon>
                <path d="M24.275,7.635 L29.784,7.635 C32.067,7.635 33.917,9.466 33.917,11.725 L25.644,23.901 C24.566,24.843 22.419,26.729 20.142,26.7240099 L14.632,26.7240099 C12.35,26.7240099 10.5,24.892 10.5,22.633 L18.765,10.362 C20.853,8.295 21.448,7.635 24.275,7.635 Z" id="路径" fill="#00D4E8"></path>
                <path d="M31.162,4.908 L36.672,4.908 C38.954,4.908 40.804,6.739 40.804,8.998 L32.531,21.174 C31.453,22.116 29.306,24.002 27.03,23.9970099 L21.52,23.9970099 C19.238,23.9970099 17.387,22.165 17.387,19.906 L25.652,7.635 C27.741,5.568 28.335,4.908 31.162,4.908 Z" id="路径" fill="#2845FB" opacity="0.502"></path>
            </g>
            <path d="M184.277,12.756 L184.277,15.221 L181.439,15.221 L181.439,25.892 L178.842,25.892 L178.842,15.221 L175.96,15.221 C175.872,18.565 175.41,22.988 173.474,25.848 C172.989,25.452 171.911,24.792 171.295,24.55 C173.297,21.624 173.474,17.377 173.474,14.275 L173.474,7.784 C176.18,7.278 179.106,6.463 180.889,5.583 L183.089,7.652 C181.021,8.51 178.424,9.192 175.96,9.654 L175.96,12.756 L184.277,12.756 Z M169.579,13.196 C170.393,14.187 172.087,16.497 172.483,17.069 L170.965,19.137 C170.657,18.455 170.129,17.443 169.579,16.475 L169.579,25.892 L167.071,25.892 L167.071,17.355 C166.41,19.225 165.618,20.942 164.738,22.13 C164.496,21.382 163.902,20.347 163.506,19.687 C164.892,17.949 166.124,14.957 166.785,12.36 L164.1,12.36 L164.1,9.896 L167.071,9.896 L167.071,5.363 L169.579,5.363 L169.579,9.896 L172.571,9.896 L172.571,12.36 L169.579,12.36 L169.579,13.196 Z M158.999,14.495 L158.999,14.561 C158.779,21.052 158.515,23.648 157.744,24.55 C157.194,25.254 156.6,25.496 155.764,25.584 C154.972,25.694 153.74,25.694 152.42,25.65 C152.376,24.858 152.046,23.758 151.584,23.01 C152.772,23.12 153.938,23.12 154.466,23.12 C154.862,23.12 155.104,23.054 155.346,22.834 C155.808,22.328 156.028,20.457 156.226,15.991 L151.628,15.991 C151.055,20.149 149.603,23.89 143.948,25.98 C143.64,25.276 142.892,24.22 142.298,23.648 C147.205,22.064 148.371,19.159 148.833,15.991 L145.291,15.991 L145.291,14.693 C144.873,15.155 144.432,15.573 143.97,15.947 C143.486,15.397 142.386,14.341 141.748,13.879 C144.322,12.03 146.545,8.95 147.777,5.671 L150.593,6.441 C149.603,8.994 148.129,11.414 146.479,13.394 L158.074,13.394 C156.424,11.348 154.796,8.906 153.652,6.551 L156.116,5.627 C157.436,8.4 160.077,11.656 162.343,13.526 C161.683,14.033 160.715,15.045 160.231,15.749 C159.835,15.353 159.417,14.935 158.999,14.495 Z M137.945,16.453 C135.546,16.453 135.282,13.703 135.304,9.478 L133.434,9.478 C133.324,10.446 133.148,11.326 132.884,12.118 C133.83,12.712 134.688,13.284 135.282,13.747 L133.918,15.771 C133.412,15.353 132.664,14.803 131.872,14.231 C131.3,15.045 130.53,15.727 129.562,16.321 L130.442,16.321 C130.398,16.761 130.332,17.201 130.288,17.619 L138.209,17.619 C138.209,17.619 138.187,18.323 138.121,18.653 C137.769,22.482 137.373,24.22 136.647,24.924 C136.052,25.518 135.392,25.694 134.468,25.76 C133.698,25.848 132.378,25.826 130.97,25.782 C130.926,25.034 130.574,24.066 130.134,23.406 C131.476,23.516 132.862,23.538 133.456,23.538 C133.896,23.538 134.182,23.516 134.424,23.318 C134.798,22.988 135.106,21.976 135.348,19.929 L129.694,19.929 C128.681,22.702 126.525,24.77 121.222,25.98 C120.98,25.276 120.364,24.264 119.858,23.714 C123.973,22.9 125.843,21.624 126.789,19.929 L120.848,19.929 L120.848,17.619 L127.559,17.619 C127.647,17.201 127.691,16.761 127.757,16.321 L128.747,16.321 C128.417,15.771 127.911,15.133 127.493,14.781 C128.527,14.275 129.297,13.681 129.826,12.932 C129.253,12.558 128.681,12.228 128.197,11.942 L128.219,12.602 C127.339,12.734 126.459,12.866 125.579,12.998 L125.579,14.319 C125.579,15.463 125.381,16.035 124.611,16.387 C123.885,16.739 122.851,16.761 121.398,16.761 C121.31,16.101 121.002,15.199 120.716,14.583 C121.596,14.605 122.521,14.605 122.807,14.605 C123.093,14.605 123.181,14.517 123.181,14.275 L123.181,13.35 L120.342,13.747 L119.924,11.392 C120.848,11.304 121.97,11.172 123.181,11.018 L123.181,9.566 L120.276,9.566 L120.276,7.278 L123.181,7.278 L123.181,5.385 L125.579,5.385 L125.579,7.278 L128.021,7.278 L128.021,9.566 L125.579,9.566 L125.579,10.71 C126.437,10.6 127.273,10.468 128.131,10.38 L128.175,11.876 L129.452,10.138 C129.87,10.336 130.31,10.578 130.75,10.864 C130.86,10.424 130.948,9.984 131.014,9.478 L128.527,9.478 L128.527,7.322 L131.19,7.322 C131.234,6.706 131.234,6.067 131.256,5.363 L133.676,5.363 C133.654,6.045 133.654,6.684 133.61,7.322 L135.326,7.322 L135.326,7.3 L137.703,7.3 C137.527,11.612 137.505,14.231 138.055,14.231 C138.319,14.231 138.429,13.659 138.495,12.404 C138.979,12.822 139.771,13.174 140.343,13.328 C140.123,15.771 139.463,16.453 137.945,16.453 Z M112.798,23.12 C113.788,23.142 117.089,23.12 118.365,23.098 C117.991,23.692 117.573,24.88 117.441,25.628 L112.644,25.628 C108.266,25.628 104.811,24.858 102.501,21.558 C101.775,23.296 100.829,24.836 99.486,25.914 C99.046,25.408 98.122,24.594 97.528,24.242 C99.992,22.284 101.027,18.587 101.335,15.507 L104.041,15.815 C103.887,16.761 103.689,17.751 103.425,18.719 C104.195,20.325 105.295,21.36 106.593,22.02 L106.593,14.605 L98.276,14.605 L98.276,12.162 L106.593,12.162 L106.593,10.028 L100.212,10.028 L100.212,7.63 L106.593,7.63 L106.593,5.385 L109.278,5.385 L109.278,7.63 L116.055,7.63 L116.055,10.028 L109.278,10.028 L109.278,12.162 L117.771,12.162 L117.771,14.605 L109.278,14.605 L109.278,17.267 L116.297,17.267 L116.297,19.599 L109.278,19.599 L109.278,22.856 C110.378,23.054 111.566,23.12 112.798,23.12 Z M90.886,20.81 C90.248,22.614 89.17,24.418 87.432,25.98 C86.992,25.408 86.09,24.594 85.452,24.198 C89.082,21.074 89.412,16.893 89.412,14.165 L89.412,13.13 L91.898,13.13 L91.898,14.231 C91.898,14.847 91.876,15.529 91.832,16.277 C92.559,19.555 94.011,22.372 96.497,23.648 C95.925,24.154 95.133,25.166 94.759,25.87 C92.999,24.77 91.766,22.988 90.886,20.81 Z M92.581,15.309 C92.867,14.385 93.175,13.042 93.417,11.7 L89.148,11.7 C88.642,13.372 88.026,14.847 87.3,16.035 C86.948,15.705 86.244,15.133 85.65,14.737 L85.65,15.639 L76.694,15.639 L76.694,13.526 L85.65,13.526 L85.672,13.659 C86.816,11.546 87.498,8.488 87.828,5.407 L90.358,5.759 C90.204,6.97 90.006,8.18 89.764,9.324 L94.121,9.324 L94.495,9.214 L96.321,9.72 C95.881,11.876 95.265,14.363 94.693,15.969 L92.581,15.309 Z M82.393,10.38 L85.782,10.38 L85.782,12.492 L76.562,12.492 L76.562,10.38 L79.951,10.38 L79.951,9.258 L76.012,9.258 L76.012,7.124 L79.951,7.124 L79.951,5.517 L82.393,5.517 L82.393,7.124 L86.266,7.124 L86.266,9.258 L82.393,9.258 L82.393,10.38 Z M86.53,18.829 L82.415,18.829 L82.415,23.45 C82.415,24.528 82.261,25.144 81.535,25.496 C80.853,25.87 79.951,25.914 78.763,25.914 C78.675,25.21 78.344,24.286 78.058,23.648 C78.741,23.67 79.445,23.67 79.687,23.67 C79.907,23.67 79.973,23.604 79.973,23.406 L79.973,18.829 L75.726,18.829 L75.726,16.673 L86.53,16.673 L86.53,18.829 Z M79.247,19.731 C78.829,21.338 78.102,23.208 77.486,24.396 C77.002,24.11 76.034,23.692 75.484,23.516 C76.144,22.394 76.716,20.722 77.112,19.247 L79.247,19.731 Z M72.781,25.782 C71.109,24.902 69.766,23.714 68.666,22.24 C67.456,23.736 65.938,24.968 64.002,25.958 C63.782,25.386 63.033,24.22 62.549,23.67 C64.574,22.746 66.114,21.492 67.258,19.907 C66.576,18.543 66.07,17.025 65.608,15.375 C65.234,16.057 64.838,16.629 64.398,17.179 C64.09,16.761 63.43,16.035 62.857,15.485 C62.747,21.602 62.637,23.978 62.087,24.726 C61.647,25.342 61.251,25.562 60.613,25.694 C60.041,25.782 59.183,25.804 58.259,25.782 C58.193,25.056 57.951,24.066 57.577,23.406 C58.281,23.45 58.919,23.472 59.271,23.472 C59.535,23.472 59.711,23.406 59.887,23.142 C60.173,22.658 60.305,20.81 60.393,15.661 L58.545,15.661 C58.523,19.137 58.039,22.79 55.31,25.804 C54.892,25.232 54.034,24.528 53.396,24.088 C55.75,21.36 56.08,18.213 56.08,15.375 L56.08,11.128 L53.924,11.128 L53.924,8.708 L58.171,8.708 C57.995,7.872 57.599,6.728 57.269,5.847 L59.579,5.297 C59.975,6.199 60.415,7.41 60.635,8.18 L58.831,8.708 L63.628,8.708 L63.628,11.128 L58.545,11.128 L58.545,13.284 L62.901,13.284 C62.901,13.284 62.901,14.033 62.879,14.341 L62.879,14.517 C64.486,12.294 65.498,8.906 66.026,5.363 L68.688,5.781 C68.49,6.992 68.248,8.202 67.94,9.346 L74.321,9.346 L74.321,11.766 L72.671,11.766 C72.209,14.957 71.439,17.663 70.25,19.885 C71.351,21.47 72.759,22.702 74.585,23.538 C73.991,24.066 73.177,25.078 72.781,25.782 Z M67.214,11.766 L67.17,11.854 C67.544,13.769 68.05,15.573 68.732,17.157 C69.37,15.595 69.81,13.813 70.096,11.766 L67.214,11.766 Z M86.398,22.57 L84.351,23.428 C84.109,22.548 83.537,21.074 83.031,19.951 L84.967,19.203 C85.518,20.259 86.134,21.668 86.398,22.57 Z" id="形状" fill="#FFFFFF"></path>
        </g>
    </g>
</svg>