<?xml version="1.0" encoding="UTF-8"?>
<svg width="477px" height="283px" viewBox="0 0 477 283" version="1.1" xmlns="http://www.w3.org/2000/svg" xmlns:xlink="http://www.w3.org/1999/xlink">
    <title>dk_kuang_you2</title>
    <defs>
        <linearGradient x1="0%" y1="0%" x2="100%" y2="0%" id="linearGradient-1">
            <stop stop-color="#030E6A" stop-opacity="0.8" offset="0%"></stop>
            <stop stop-color="#030E6A" stop-opacity="0" offset="100%"></stop>
        </linearGradient>
        <linearGradient x1="50%" y1="0%" x2="50%" y2="100%" id="linearGradient-2">
            <stop stop-color="#031270" offset="0%"></stop>
            <stop stop-color="#031270" stop-opacity="0.584380463" offset="40.8134834%"></stop>
            <stop stop-color="#031270" offset="100%"></stop>
        </linearGradient>
        <linearGradient x1="19.6284089%" y1="32.3998923%" x2="28.9870627%" y2="67.6001077%" id="linearGradient-3">
            <stop stop-color="#2845FB" offset="0%"></stop>
            <stop stop-color="#2845FB" stop-opacity="0.0366586538" offset="22.8845276%"></stop>
            <stop stop-color="#2845FB" offset="50.2340994%"></stop>
            <stop stop-color="#2845FB" stop-opacity="0" offset="100%"></stop>
        </linearGradient>
        <linearGradient x1="100%" y1="72.4361727%" x2="0%" y2="72.4361727%" id="linearGradient-4">
            <stop stop-color="#0A54FF" stop-opacity="0" offset="0%"></stop>
            <stop stop-color="#0A54FF" offset="100%"></stop>
        </linearGradient>
        <linearGradient x1="0%" y1="0%" x2="100%" y2="0%" id="linearGradient-5">
            <stop stop-color="#4BAAE4" stop-opacity="0" offset="0%"></stop>
            <stop stop-color="#4BAAE4" offset="12.7349213%"></stop>
            <stop stop-color="#005174" stop-opacity="0" offset="100%"></stop>
        </linearGradient>
        <linearGradient x1="0%" y1="0%" x2="100%" y2="0%" id="linearGradient-6">
            <stop stop-color="#4BAAE4" stop-opacity="0" offset="0%"></stop>
            <stop stop-color="#4BAAE4" offset="12.7349213%"></stop>
            <stop stop-color="#005174" stop-opacity="0" offset="100%"></stop>
        </linearGradient>
        <linearGradient x1="0%" y1="5.55111512e-15%" x2="99.939%" y2="3.49%" id="linearGradient-7">
            <stop stop-color="#00C0FF" offset="0%"></stop>
            <stop stop-color="#43F0FF" offset="49%"></stop>
            <stop stop-color="#00C0FF" offset="100%"></stop>
        </linearGradient>
    </defs>
    <g id="页面-1" stroke="none" stroke-width="1" fill="none" fill-rule="evenodd">
        <g id="dk_kuang_you2">
            <polygon id="路径" fill="url(#linearGradient-1)" points="252 0 0 0 0 32 279 32"></polygon>
            <polygon id="路径" fill="url(#linearGradient-2)" opacity="0.302" points="253.13219 0.134990042 279.289771 31.5596718 477 31.0527092 477 283 0 283 0 0"></polygon>
            <path d="M0.5,0.500268707 L252.896823,0.635873617 L279.05501,32.2516072 L476.5,31.7422914 L476.5,282.503 L0.5,282.503 L0.5,0.500268707 Z" id="路径" stroke="url(#linearGradient-3)"></path>
            <polygon id="路径" fill="url(#linearGradient-4)" opacity="0.302" points="-5.68434189e-14 0 252.544 0 279.544 32 -5.68434189e-14 32"></polygon>
            <path d="M24.275,7.635 L29.784,7.635 C32.067,7.635 33.917,9.466 33.917,11.725 L25.644,23.901 C24.566,24.843 22.419,26.729 20.142,26.7240099 L14.632,26.7240099 C12.35,26.7240099 10.5,24.892 10.5,22.633 L18.765,10.362 C20.853,8.295 21.448,7.635 24.275,7.635 Z" id="路径" fill="#00D4E8"></path>
            <path d="M31.162,4.908 L36.672,4.908 C38.954,4.908 40.804,6.739 40.804,8.998 L32.531,21.174 C31.453,22.116 29.306,24.002 27.03,23.9970099 L21.52,23.9970099 C19.238,23.9970099 17.387,22.165 17.387,19.906 L25.652,7.635 C27.741,5.568 28.335,4.908 31.162,4.908 Z" id="路径" fill="#2845FB" opacity="0.502"></path>
            <polyline id="路径" stroke="url(#linearGradient-5)" points="430.5 26.5 297.5 26.5 283.5 10.5"></polyline>
            <polyline id="路径" stroke="url(#linearGradient-6)" opacity="0.4" points="434.709 19.479 301.01 19.479 288.5 4.5"></polyline>
            <polygon id="路径" fill="#1050D3" opacity="0.2" points="467.237 12.479 462.422 12.479 470.043 23.099 474.858 23.099"></polygon>
            <polygon id="路径" fill="#2563E1" opacity="0.502" points="457.002 12.479 452.187 12.479 459.807 23.099 464.622 23.099"></polygon>
            <polygon id="路径" fill="#4680F5" points="446.767 12.479 441.952 12.479 449.572 23.099 454.387 23.099"></polygon>
            <path d="M185.277,12.756 L185.277,15.221 L182.439,15.221 L182.439,25.892 L179.842,25.892 L179.842,15.221 L176.96,15.221 C176.872,18.565 176.41,22.988 174.474,25.848 C173.989,25.452 172.911,24.792 172.295,24.55 C174.297,21.624 174.474,17.377 174.474,14.275 L174.474,7.784 C177.18,7.278 180.106,6.463 181.889,5.583 L184.089,7.652 C182.021,8.51 179.424,9.192 176.96,9.654 L176.96,12.756 L185.277,12.756 Z M170.579,13.196 C171.393,14.187 173.087,16.497 173.483,17.069 L171.965,19.137 C171.657,18.455 171.129,17.443 170.579,16.475 L170.579,25.892 L168.071,25.892 L168.071,17.355 C167.41,19.225 166.618,20.942 165.738,22.13 C165.496,21.382 164.902,20.347 164.506,19.687 C165.892,17.949 167.124,14.957 167.785,12.36 L165.1,12.36 L165.1,9.896 L168.071,9.896 L168.071,5.363 L170.579,5.363 L170.579,9.896 L173.571,9.896 L173.571,12.36 L170.579,12.36 L170.579,13.196 Z M159.999,14.495 L159.999,14.561 C159.779,21.052 159.515,23.648 158.744,24.55 C158.194,25.254 157.6,25.496 156.764,25.584 C155.972,25.694 154.74,25.694 153.42,25.65 C153.376,24.858 153.046,23.758 152.584,23.01 C153.772,23.12 154.938,23.12 155.466,23.12 C155.862,23.12 156.104,23.054 156.346,22.834 C156.808,22.328 157.028,20.457 157.226,15.991 L152.628,15.991 C152.055,20.149 150.603,23.89 144.948,25.98 C144.64,25.276 143.892,24.22 143.298,23.648 C148.205,22.064 149.371,19.159 149.833,15.991 L146.291,15.991 L146.291,14.693 C145.873,15.155 145.432,15.573 144.97,15.947 C144.486,15.397 143.386,14.341 142.748,13.879 C145.322,12.03 147.545,8.95 148.777,5.671 L151.593,6.441 C150.603,8.994 149.129,11.414 147.479,13.394 L159.074,13.394 C157.424,11.348 155.796,8.906 154.652,6.551 L157.116,5.627 C158.436,8.4 161.077,11.656 163.343,13.526 C162.683,14.033 161.715,15.045 161.231,15.749 C160.835,15.353 160.417,14.935 159.999,14.495 Z M139.847,25.738 C138.329,24.792 137.118,23.538 136.128,21.998 C134.874,23.67 133.29,24.99 131.244,26.024 C131.002,25.496 130.319,24.396 129.857,23.89 C132.08,22.9 133.708,21.514 134.83,19.687 C134.192,18.301 133.708,16.761 133.268,15.089 C132.916,15.793 132.52,16.453 132.102,17.047 C131.75,16.607 130.76,15.749 130.231,15.375 C131.992,13.086 132.96,9.368 133.466,5.429 L135.842,5.781 C135.666,7.014 135.446,8.246 135.182,9.412 L141.035,9.412 L141.035,11.832 L139.649,11.832 C139.231,14.913 138.571,17.487 137.537,19.643 C138.549,21.382 139.891,22.768 141.541,23.67 C140.969,24.132 140.199,25.078 139.847,25.738 Z M134.808,11.832 C135.138,13.592 135.578,15.287 136.15,16.849 C136.656,15.353 137.008,13.703 137.228,11.832 L134.808,11.832 Z M131.134,12.866 L129.769,14.693 C129.285,14.231 128.427,13.504 127.591,12.844 L127.591,15.243 L125.171,15.243 L125.171,13.262 C124.159,14.275 122.992,15.199 121.892,15.793 C121.606,15.221 121.034,14.363 120.55,13.879 C121.848,13.35 123.234,12.382 124.269,11.304 L121.012,11.304 L121.012,9.236 L122.728,9.236 C122.552,8.488 122.046,7.366 121.562,6.507 L123.41,5.737 C124.005,6.551 124.555,7.696 124.731,8.444 L122.948,9.236 L125.171,9.236 L125.171,5.363 L127.591,5.363 L127.591,9.236 L131.75,9.236 L131.75,11.304 L128.537,11.304 C129.527,11.876 130.76,12.602 131.134,12.866 Z M127.899,8.422 C128.405,7.652 128.999,6.463 129.351,5.649 L131.552,6.507 C130.826,7.498 130.143,8.488 129.571,9.17 L127.899,8.422 Z M111.818,19.489 C110.828,21.866 108.936,24.286 105.371,26.09 C104.953,25.474 104.007,24.484 103.347,24 C109.486,21.052 110.08,16.299 110.08,13.416 L110.08,12.052 L112.896,12.052 L112.896,13.482 C112.896,13.967 112.874,14.495 112.83,15.045 C113.82,19.027 115.735,22.064 119.409,23.406 C118.837,23.934 118.045,25.056 117.671,25.76 C114.81,24.506 113.028,22.372 111.818,19.489 Z M114.348,15.045 C114.766,14.143 115.272,12.756 115.647,11.392 L108.826,11.392 C108.121,13.174 107.285,14.759 106.405,15.969 C105.833,15.551 104.535,14.825 103.809,14.517 C105.635,12.448 106.955,8.928 107.593,5.385 L110.454,5.869 C110.234,6.86 109.992,7.828 109.706,8.774 L116.461,8.774 L116.967,8.642 L118.881,9.764 C118.331,12.096 117.385,14.473 116.593,16.123 C116.065,15.837 114.986,15.309 114.348,15.045 Z M98.924,8.752 L100.508,6.838 C102.005,7.63 104.007,8.862 104.975,9.808 L103.303,11.964 C102.423,10.996 100.42,9.632 98.924,8.752 Z M105.107,17.025 C103.897,19.357 102.445,21.8 101.102,23.934 L98.682,22.152 C99.892,20.523 101.653,17.839 103.017,15.287 L105.107,17.025 Z M91.886,20.81 C91.248,22.614 90.17,24.418 88.432,25.98 C87.992,25.408 87.09,24.594 86.452,24.198 C90.082,21.074 90.412,16.893 90.412,14.165 L90.412,13.13 L92.898,13.13 L92.898,14.231 C92.898,14.847 92.876,15.529 92.832,16.277 C93.559,19.555 95.011,22.372 97.497,23.648 C96.925,24.154 96.133,25.166 95.759,25.87 C93.999,24.77 92.766,22.988 91.886,20.81 Z M93.581,15.309 C93.867,14.385 94.175,13.042 94.417,11.7 L90.148,11.7 C89.642,13.372 89.026,14.847 88.3,16.035 C87.948,15.705 87.244,15.133 86.65,14.737 L86.65,15.639 L77.694,15.639 L77.694,13.526 L86.65,13.526 L86.672,13.659 C87.816,11.546 88.498,8.488 88.828,5.407 L91.358,5.759 C91.204,6.97 91.006,8.18 90.764,9.324 L95.121,9.324 L95.495,9.214 L97.321,9.72 C96.881,11.876 96.265,14.363 95.693,15.969 L93.581,15.309 Z M83.393,10.38 L86.782,10.38 L86.782,12.492 L77.562,12.492 L77.562,10.38 L80.951,10.38 L80.951,9.258 L77.012,9.258 L77.012,7.124 L80.951,7.124 L80.951,5.517 L83.393,5.517 L83.393,7.124 L87.266,7.124 L87.266,9.258 L83.393,9.258 L83.393,10.38 Z M87.53,18.829 L83.415,18.829 L83.415,23.45 C83.415,24.528 83.261,25.144 82.535,25.496 C81.853,25.87 80.951,25.914 79.763,25.914 C79.675,25.21 79.344,24.286 79.058,23.648 C79.741,23.67 80.445,23.67 80.687,23.67 C80.907,23.67 80.973,23.604 80.973,23.406 L80.973,18.829 L76.726,18.829 L76.726,16.673 L87.53,16.673 L87.53,18.829 Z M80.247,19.731 C79.829,21.338 79.102,23.208 78.486,24.396 C78.002,24.11 77.034,23.692 76.484,23.516 C77.144,22.394 77.716,20.722 78.112,19.247 L80.247,19.731 Z M72.087,12.14 C72.637,12.14 72.791,11.722 72.923,10.424 C73.429,10.864 74.243,11.282 74.881,11.458 C74.507,14.011 73.715,14.517 71.977,14.517 C69.754,14.517 67.466,13.02 65.904,10.6 L61.965,10.864 L61.767,8.796 L64.87,8.598 C64.496,7.63 64.231,6.595 64.099,5.495 L66.608,5.495 C66.762,6.551 67.07,7.542 67.532,8.422 L71.008,8.202 C70.524,7.608 69.688,6.882 69.006,6.331 L70.876,5.231 C71.647,5.781 72.659,6.639 73.165,7.19 L71.647,8.158 L74.969,7.938 L75.167,9.962 L68.918,10.38 C69.93,11.48 71.096,12.14 72.087,12.14 Z M60.755,14.187 L58.203,14.187 L58.203,10.952 C57.631,11.392 57.08,11.788 56.53,12.14 C56.134,11.634 55.232,10.732 54.704,10.292 C56.904,9.17 59.105,7.3 60.381,5.341 L62.713,6.199 C62.163,7.036 61.503,7.85 60.755,8.642 L60.755,14.187 Z M63.461,17.773 L66.234,17.773 L66.234,19.247 C66.234,21.316 65.156,24.088 57.168,25.87 C56.838,25.298 56.046,24.352 55.408,23.846 C62.977,22.504 63.461,20.501 63.461,19.159 L63.461,17.773 Z M57.851,21.866 L57.851,14.803 L72.241,14.803 L72.241,21.712 L69.49,21.712 L69.49,17.201 L60.469,17.201 L60.469,21.866 L57.851,21.866 Z M74.353,23.824 L73.055,25.98 C71.383,25.056 67.994,23.692 65.508,22.922 L66.718,21.008 C69.116,21.668 72.593,22.9 74.353,23.824 Z M87.398,22.57 L85.351,23.428 C85.109,22.548 84.537,21.074 84.031,19.951 L85.967,19.203 C86.518,20.259 87.134,21.668 87.398,22.57 Z M121.826,20.744 C122.222,20.171 122.64,19.489 123.08,18.741 L121.408,18.741 L121.408,16.629 L124.159,16.629 C124.357,16.189 124.533,15.771 124.687,15.353 L126.997,15.771 C126.887,16.057 126.755,16.343 126.623,16.629 L129.417,16.629 L129.813,16.563 L131.222,17.091 C130.694,19.027 129.813,20.612 128.691,21.888 C129.285,22.218 129.813,22.548 130.253,22.856 L128.713,24.528 C128.273,24.198 127.701,23.802 127.041,23.406 C125.567,24.528 123.807,25.32 121.826,25.87 C121.584,25.276 121.078,24.352 120.638,23.912 C122.222,23.56 123.697,22.988 124.951,22.218 C123.917,21.668 122.816,21.162 121.826,20.744 Z M128.273,18.741 L125.611,18.741 C125.391,19.159 125.171,19.555 124.951,19.907 C125.545,20.193 126.161,20.501 126.733,20.81 C127.349,20.193 127.877,19.511 128.273,18.741 Z" id="形状" fill="url(#linearGradient-7)" fill-rule="nonzero"></path>
        </g>
    </g>
</svg>