<?xml version="1.0" encoding="UTF-8"?>
<svg width="429px" height="302px" viewBox="0 0 429 302" version="1.1" xmlns="http://www.w3.org/2000/svg" xmlns:xlink="http://www.w3.org/1999/xlink">
    <title>dk_kuang_zhongxia2</title>
    <defs>
        <linearGradient x1="0%" y1="0%" x2="100%" y2="0%" id="linearGradient-1">
            <stop stop-color="#030E6A" stop-opacity="0.8" offset="0%"></stop>
            <stop stop-color="#030E6A" stop-opacity="0" offset="100%"></stop>
        </linearGradient>
        <linearGradient x1="50%" y1="0%" x2="50%" y2="100%" id="linearGradient-2">
            <stop stop-color="#031270" offset="0%"></stop>
            <stop stop-color="#031270" stop-opacity="0.584380463" offset="40.8134834%"></stop>
            <stop stop-color="#031270" offset="100%"></stop>
        </linearGradient>
        <linearGradient x1="19.6284089%" y1="25.2213333%" x2="28.9870627%" y2="74.7786667%" id="linearGradient-3">
            <stop stop-color="#2845FB" offset="0%"></stop>
            <stop stop-color="#2845FB" stop-opacity="0.0366586538" offset="22.8845276%"></stop>
            <stop stop-color="#2845FB" offset="50.2340994%"></stop>
            <stop stop-color="#2845FB" stop-opacity="0" offset="100%"></stop>
        </linearGradient>
        <linearGradient x1="100%" y1="72.4361727%" x2="0%" y2="72.4361727%" id="linearGradient-4">
            <stop stop-color="#0A54FF" stop-opacity="0" offset="0%"></stop>
            <stop stop-color="#0A54FF" offset="100%"></stop>
        </linearGradient>
        <linearGradient x1="0%" y1="0%" x2="100%" y2="0%" id="linearGradient-5">
            <stop stop-color="#4BAAE4" stop-opacity="0" offset="0%"></stop>
            <stop stop-color="#4BAAE4" offset="12.7349213%"></stop>
            <stop stop-color="#005174" stop-opacity="0" offset="100%"></stop>
        </linearGradient>
        <linearGradient x1="0%" y1="0%" x2="100%" y2="0%" id="linearGradient-6">
            <stop stop-color="#4BAAE4" stop-opacity="0" offset="0%"></stop>
            <stop stop-color="#4BAAE4" offset="12.7349213%"></stop>
            <stop stop-color="#005174" stop-opacity="0" offset="100%"></stop>
        </linearGradient>
        <linearGradient x1="0%" y1="5.55111512e-15%" x2="99.939%" y2="3.49%" id="linearGradient-7">
            <stop stop-color="#00C0FF" offset="0%"></stop>
            <stop stop-color="#43F0FF" offset="49%"></stop>
            <stop stop-color="#00C0FF" offset="100%"></stop>
        </linearGradient>
    </defs>
    <g id="页面-1" stroke="none" stroke-width="1" fill="none" fill-rule="evenodd">
        <g id="dk_kuang_zhongxia2">
            <polygon id="路径" fill="url(#linearGradient-1)" points="252 0 0 0 0 32 279 32"></polygon>
            <polygon id="路径" fill="url(#linearGradient-2)" opacity="0.302" points="253.13219 0.134990042 279.289771 31.5596718 429 31.0527092 429 302 0 302 0 0"></polygon>
            <path d="M0.5,0.500268707 L252.896823,0.635873617 L279.055172,32.2518021 L428.5,31.7427062 L428.5,301.503 L0.5,301.503 L0.5,0.500268707 Z" id="路径" stroke="url(#linearGradient-3)"></path>
            <polygon id="路径" fill="url(#linearGradient-4)" opacity="0.302" points="0 0 252.544 0 279.544 32 0 32"></polygon>
            <path d="M24.275,7.635 L29.784,7.635 C32.067,7.635 33.917,9.466 33.917,11.725 L25.644,23.901 C24.566,24.843 22.419,26.729 20.142,26.7240099 L14.632,26.7240099 C12.35,26.7240099 10.5,24.892 10.5,22.633 L18.765,10.362 C20.853,8.295 21.448,7.635 24.275,7.635 Z" id="路径" fill="#00D4E8"></path>
            <path d="M31.162,4.908 L36.672,4.908 C38.954,4.908 40.804,6.739 40.804,8.998 L32.531,21.174 C31.453,22.116 29.306,24.002 27.03,23.9970099 L21.52,23.9970099 C19.238,23.9970099 17.387,22.165 17.387,19.906 L25.652,7.635 C27.741,5.568 28.335,4.908 31.162,4.908 Z" id="路径" fill="#2845FB" opacity="0.502"></path>
            <polyline id="路径" stroke="url(#linearGradient-5)" points="382.5 26.5 297.5 26.5 283.5 10.5"></polyline>
            <polyline id="路径" stroke="url(#linearGradient-6)" opacity="0.4" points="386.709 19.479 301.01 19.479 288.5 4.5"></polyline>
            <polygon id="路径" fill="#1050D3" opacity="0.2" points="419.237 12.479 414.422 12.479 422.043 23.099 426.858 23.099"></polygon>
            <polygon id="路径" fill="#2563E1" opacity="0.502" points="409.002 12.479 404.187 12.479 411.807 23.099 416.622 23.099"></polygon>
            <polygon id="路径" fill="#4680F5" points="398.767 12.479 393.952 12.479 401.572 23.099 406.387 23.099"></polygon>
            <path d="M227.277,12.756 L227.277,15.221 L224.439,15.221 L224.439,25.892 L221.842,25.892 L221.842,15.221 L218.96,15.221 C218.872,18.565 218.41,22.988 216.474,25.848 C215.989,25.452 214.911,24.792 214.295,24.55 C216.297,21.624 216.474,17.377 216.474,14.275 L216.474,7.784 C219.18,7.278 222.106,6.463 223.889,5.583 L226.089,7.652 C224.021,8.51 221.424,9.192 218.96,9.654 L218.96,12.756 L227.277,12.756 Z M212.579,13.196 C213.393,14.187 215.087,16.497 215.483,17.069 L213.965,19.137 C213.657,18.455 213.129,17.443 212.579,16.475 L212.579,25.892 L210.071,25.892 L210.071,17.355 C209.41,19.225 208.618,20.942 207.738,22.13 C207.496,21.382 206.902,20.347 206.506,19.687 C207.892,17.949 209.124,14.957 209.785,12.36 L207.1,12.36 L207.1,9.896 L210.071,9.896 L210.071,5.363 L212.579,5.363 L212.579,9.896 L215.571,9.896 L215.571,12.36 L212.579,12.36 L212.579,13.196 Z M201.999,14.495 L201.999,14.561 C201.779,21.052 201.515,23.648 200.744,24.55 C200.194,25.254 199.6,25.496 198.764,25.584 C197.972,25.694 196.74,25.694 195.42,25.65 C195.376,24.858 195.046,23.758 194.584,23.01 C195.772,23.12 196.938,23.12 197.466,23.12 C197.862,23.12 198.104,23.054 198.346,22.834 C198.808,22.328 199.028,20.457 199.226,15.991 L194.628,15.991 C194.055,20.149 192.603,23.89 186.948,25.98 C186.64,25.276 185.892,24.22 185.298,23.648 C190.205,22.064 191.371,19.159 191.833,15.991 L188.291,15.991 L188.291,14.693 C187.873,15.155 187.432,15.573 186.97,15.947 C186.486,15.397 185.386,14.341 184.748,13.879 C187.322,12.03 189.545,8.95 190.777,5.671 L193.593,6.441 C192.603,8.994 191.129,11.414 189.479,13.394 L201.074,13.394 C199.424,11.348 197.796,8.906 196.652,6.551 L199.116,5.627 C200.436,8.4 203.077,11.656 205.343,13.526 C204.683,14.033 203.715,15.045 203.231,15.749 C202.835,15.353 202.417,14.935 201.999,14.495 Z M180.945,16.453 C178.546,16.453 178.282,13.703 178.304,9.478 L176.434,9.478 C176.324,10.446 176.148,11.326 175.884,12.118 C176.83,12.712 177.688,13.284 178.282,13.747 L176.918,15.771 C176.412,15.353 175.664,14.803 174.872,14.231 C174.3,15.045 173.53,15.727 172.562,16.321 L173.442,16.321 C173.398,16.761 173.332,17.201 173.288,17.619 L181.209,17.619 C181.209,17.619 181.187,18.323 181.121,18.653 C180.769,22.482 180.373,24.22 179.647,24.924 C179.052,25.518 178.392,25.694 177.468,25.76 C176.698,25.848 175.378,25.826 173.97,25.782 C173.926,25.034 173.574,24.066 173.134,23.406 C174.476,23.516 175.862,23.538 176.456,23.538 C176.896,23.538 177.182,23.516 177.424,23.318 C177.798,22.988 178.106,21.976 178.348,19.929 L172.694,19.929 C171.681,22.702 169.525,24.77 164.222,25.98 C163.98,25.276 163.364,24.264 162.858,23.714 C166.973,22.9 168.843,21.624 169.789,19.929 L163.848,19.929 L163.848,17.619 L170.559,17.619 C170.647,17.201 170.691,16.761 170.757,16.321 L171.747,16.321 C171.417,15.771 170.911,15.133 170.493,14.781 C171.527,14.275 172.297,13.681 172.826,12.932 C172.253,12.558 171.681,12.228 171.197,11.942 L171.219,12.602 C170.339,12.734 169.459,12.866 168.579,12.998 L168.579,14.319 C168.579,15.463 168.381,16.035 167.611,16.387 C166.885,16.739 165.851,16.761 164.398,16.761 C164.31,16.101 164.002,15.199 163.716,14.583 C164.596,14.605 165.521,14.605 165.807,14.605 C166.093,14.605 166.181,14.517 166.181,14.275 L166.181,13.35 L163.342,13.747 L162.924,11.392 C163.848,11.304 164.97,11.172 166.181,11.018 L166.181,9.566 L163.276,9.566 L163.276,7.278 L166.181,7.278 L166.181,5.385 L168.579,5.385 L168.579,7.278 L171.021,7.278 L171.021,9.566 L168.579,9.566 L168.579,10.71 C169.437,10.6 170.273,10.468 171.131,10.38 L171.175,11.876 L172.452,10.138 C172.87,10.336 173.31,10.578 173.75,10.864 C173.86,10.424 173.948,9.984 174.014,9.478 L171.527,9.478 L171.527,7.322 L174.19,7.322 C174.234,6.706 174.234,6.067 174.256,5.363 L176.676,5.363 C176.654,6.045 176.654,6.684 176.61,7.322 L178.326,7.322 L178.326,7.3 L180.703,7.3 C180.527,11.612 180.505,14.231 181.055,14.231 C181.319,14.231 181.429,13.659 181.495,12.404 C181.979,12.822 182.771,13.174 183.343,13.328 C183.123,15.771 182.463,16.453 180.945,16.453 Z M155.798,23.12 C156.788,23.142 160.089,23.12 161.365,23.098 C160.991,23.692 160.573,24.88 160.441,25.628 L155.644,25.628 C151.266,25.628 147.811,24.858 145.501,21.558 C144.775,23.296 143.829,24.836 142.486,25.914 C142.046,25.408 141.122,24.594 140.528,24.242 C142.992,22.284 144.027,18.587 144.335,15.507 L147.041,15.815 C146.887,16.761 146.689,17.751 146.425,18.719 C147.195,20.325 148.295,21.36 149.593,22.02 L149.593,14.605 L141.276,14.605 L141.276,12.162 L149.593,12.162 L149.593,10.028 L143.212,10.028 L143.212,7.63 L149.593,7.63 L149.593,5.385 L152.278,5.385 L152.278,7.63 L159.055,7.63 L159.055,10.028 L152.278,10.028 L152.278,12.162 L160.771,12.162 L160.771,14.605 L152.278,14.605 L152.278,17.267 L159.297,17.267 L159.297,19.599 L152.278,19.599 L152.278,22.856 C153.378,23.054 154.566,23.12 155.798,23.12 Z M134.26,22.636 L135.603,21.03 C136.901,21.91 138.705,23.23 139.563,24.066 L138.155,25.892 C137.341,24.99 135.581,23.604 134.26,22.636 Z M134.502,10.732 L138.507,10.732 L138.507,20.964 L136.263,20.964 L136.263,12.712 L131.686,12.712 L131.686,21.03 L129.53,21.03 L129.53,10.732 L132.302,10.732 C132.5,10.16 132.742,9.5 132.94,8.862 L129.354,8.862 L129.354,6.595 L139.189,6.595 L139.189,8.862 L135.272,8.862 C135.008,9.522 134.766,10.16 134.502,10.732 Z M128.782,12.184 C128.187,13.46 127.373,14.605 126.383,15.595 C127.571,16.211 128.716,16.805 129.508,17.289 L127.791,18.961 L128.033,18.961 L128.033,24.088 C132.676,22.504 132.83,19.687 132.94,13.526 L135.14,13.526 C135.03,20.523 134.59,24.11 129.09,26.024 C128.914,25.54 128.452,24.88 128.033,24.418 L128.033,25.694 L125.635,25.694 L125.635,25.166 L122.863,25.166 L122.863,25.738 L120.574,25.738 L120.574,19.357 C120.244,19.489 119.892,19.599 119.562,19.709 C119.452,19.005 118.99,17.751 118.66,17.245 C119.848,16.937 121.036,16.475 122.093,15.903 L120.948,15.309 L122.643,13.791 C123.127,14.011 123.655,14.275 124.183,14.539 C124.667,14.143 125.085,13.703 125.459,13.24 L122.511,13.24 C121.785,14.033 120.926,14.759 119.914,15.441 C119.584,14.913 118.924,14.099 118.462,13.769 C120.31,12.668 121.609,11.216 122.291,9.918 L124.579,10.336 C124.403,10.666 124.205,10.996 124.007,11.304 L126.647,11.304 L126.647,9.588 L121.256,9.588 L121.256,11.348 L119.012,11.348 L119.012,7.52 L122.951,7.52 C122.731,6.992 122.489,6.419 122.269,5.957 L124.755,5.451 C125.085,6.067 125.459,6.86 125.745,7.52 L129.002,7.52 L129.002,11.348 L127.527,11.348 L128.782,12.184 Z M122.863,23.142 L125.635,23.142 L125.635,20.986 L122.863,20.986 L122.863,23.142 Z M124.513,17.223 C123.567,17.883 122.555,18.477 121.499,18.961 L127.505,18.961 C126.779,18.477 125.679,17.839 124.513,17.223 Z M115.957,14.517 C114.791,13.989 113.691,13.438 112.546,12.778 L112.546,14.341 L108.388,14.341 L108.388,16.343 L115.913,16.343 L115.913,18.807 L108.388,18.807 L108.388,23.076 C108.388,24.396 108.102,25.056 107.2,25.474 C106.319,25.87 105.109,25.936 103.503,25.936 C103.349,25.188 102.843,24.088 102.447,23.406 C103.525,23.45 104.779,23.45 105.131,23.45 C105.483,23.428 105.615,23.34 105.615,23.032 L105.615,18.807 L98.332,18.807 L98.332,16.343 L105.615,16.343 L105.615,14.341 L101.259,14.341 L101.259,12.954 C100.203,13.592 99.146,14.187 98.112,14.693 C97.716,13.989 97.012,13.086 96.352,12.448 C100.181,10.886 104.493,8.246 106.914,5.143 L108.916,6.265 C108.784,6.419 108.652,6.573 108.52,6.728 C111.534,9.544 114.593,11.084 117.695,12.206 C117.057,12.778 116.309,13.703 115.957,14.517 Z M106.958,8.466 C105.659,9.742 104.229,10.93 102.689,11.986 L111.292,11.986 C109.862,11.04 108.454,9.918 106.958,8.466 Z M89.886,20.81 C89.248,22.614 88.17,24.418 86.432,25.98 C85.992,25.408 85.09,24.594 84.452,24.198 C88.082,21.074 88.412,16.893 88.412,14.165 L88.412,13.13 L90.898,13.13 L90.898,14.231 C90.898,14.847 90.876,15.529 90.832,16.277 C91.559,19.555 93.011,22.372 95.497,23.648 C94.925,24.154 94.133,25.166 93.759,25.87 C91.999,24.77 90.766,22.988 89.886,20.81 Z M91.581,15.309 C91.867,14.385 92.175,13.042 92.417,11.7 L88.148,11.7 C87.642,13.372 87.026,14.847 86.3,16.035 C85.948,15.705 85.244,15.133 84.65,14.737 L84.65,15.639 L75.694,15.639 L75.694,13.526 L84.65,13.526 L84.672,13.659 C85.816,11.546 86.498,8.488 86.828,5.407 L89.358,5.759 C89.204,6.97 89.006,8.18 88.764,9.324 L93.121,9.324 L93.495,9.214 L95.321,9.72 C94.881,11.876 94.265,14.363 93.693,15.969 L91.581,15.309 Z M81.393,10.38 L84.782,10.38 L84.782,12.492 L75.562,12.492 L75.562,10.38 L78.951,10.38 L78.951,9.258 L75.012,9.258 L75.012,7.124 L78.951,7.124 L78.951,5.517 L81.393,5.517 L81.393,7.124 L85.266,7.124 L85.266,9.258 L81.393,9.258 L81.393,10.38 Z M85.53,18.829 L81.415,18.829 L81.415,23.45 C81.415,24.528 81.261,25.144 80.535,25.496 C79.853,25.87 78.951,25.914 77.763,25.914 C77.675,25.21 77.344,24.286 77.058,23.648 C77.741,23.67 78.445,23.67 78.687,23.67 C78.907,23.67 78.973,23.604 78.973,23.406 L78.973,18.829 L74.726,18.829 L74.726,16.673 L85.53,16.673 L85.53,18.829 Z M78.247,19.731 C77.829,21.338 77.102,23.208 76.486,24.396 C76.002,24.11 75.034,23.692 74.484,23.516 C75.144,22.394 75.716,20.722 76.112,19.247 L78.247,19.731 Z M70.087,12.14 C70.637,12.14 70.791,11.722 70.923,10.424 C71.429,10.864 72.243,11.282 72.881,11.458 C72.507,14.011 71.715,14.517 69.977,14.517 C67.754,14.517 65.466,13.02 63.904,10.6 L59.965,10.864 L59.767,8.796 L62.87,8.598 C62.496,7.63 62.231,6.595 62.099,5.495 L64.608,5.495 C64.762,6.551 65.07,7.542 65.532,8.422 L69.008,8.202 C68.524,7.608 67.688,6.882 67.006,6.331 L68.876,5.231 C69.647,5.781 70.659,6.639 71.165,7.19 L69.647,8.158 L72.969,7.938 L73.167,9.962 L66.918,10.38 C67.93,11.48 69.096,12.14 70.087,12.14 Z M58.755,14.187 L56.203,14.187 L56.203,10.952 C55.631,11.392 55.08,11.788 54.53,12.14 C54.134,11.634 53.232,10.732 52.704,10.292 C54.904,9.17 57.105,7.3 58.381,5.341 L60.713,6.199 C60.163,7.036 59.503,7.85 58.755,8.642 L58.755,14.187 Z M61.461,17.773 L64.234,17.773 L64.234,19.247 C64.234,21.316 63.156,24.088 55.168,25.87 C54.838,25.298 54.046,24.352 53.408,23.846 C60.977,22.504 61.461,20.501 61.461,19.159 L61.461,17.773 Z M55.851,21.866 L55.851,14.803 L70.241,14.803 L70.241,21.712 L67.49,21.712 L67.49,17.201 L58.469,17.201 L58.469,21.866 L55.851,21.866 Z M72.353,23.824 L71.055,25.98 C69.383,25.056 65.994,23.692 63.508,22.922 L64.718,21.008 C67.116,21.668 70.593,22.9 72.353,23.824 Z M85.398,22.57 L83.351,23.428 C83.109,22.548 82.537,21.074 82.031,19.951 L83.967,19.203 C84.518,20.259 85.134,21.668 85.398,22.57 Z M103.855,20.457 C102.579,22.196 100.599,24.088 98.992,25.254 C98.53,24.77 97.584,23.89 97.012,23.494 C98.618,22.526 100.357,21.008 101.435,19.555 L103.855,20.457 Z M116.573,23.78 L114.219,25.232 C113.339,24.022 111.38,22.13 109.774,20.788 L111.974,19.511 C113.537,20.744 115.605,22.548 116.573,23.78 Z" id="形状" fill="url(#linearGradient-7)" fill-rule="nonzero"></path>
        </g>
    </g>
</svg>