<?xml version="1.0" encoding="UTF-8"?>
<svg width="477px" height="247px" viewBox="0 0 477 247" version="1.1" xmlns="http://www.w3.org/2000/svg" xmlns:xlink="http://www.w3.org/1999/xlink">
    <title>dk_kuang_you1</title>
    <defs>
        <linearGradient x1="0%" y1="0%" x2="100%" y2="0%" id="linearGradient-1">
            <stop stop-color="#030E6A" stop-opacity="0.8" offset="0%"></stop>
            <stop stop-color="#030E6A" stop-opacity="0" offset="100%"></stop>
        </linearGradient>
        <linearGradient x1="50%" y1="0%" x2="50%" y2="100%" id="linearGradient-2">
            <stop stop-color="#031270" offset="0%"></stop>
            <stop stop-color="#031270" stop-opacity="0.584380463" offset="40.8134834%"></stop>
            <stop stop-color="#031270" offset="100%"></stop>
        </linearGradient>
        <linearGradient x1="19.6284089%" y1="36.5928119%" x2="28.9870627%" y2="63.4071881%" id="linearGradient-3">
            <stop stop-color="#2845FB" offset="0%"></stop>
            <stop stop-color="#2845FB" stop-opacity="0.0366586538" offset="22.8845276%"></stop>
            <stop stop-color="#2845FB" offset="50.2340994%"></stop>
            <stop stop-color="#2845FB" stop-opacity="0" offset="100%"></stop>
        </linearGradient>
        <linearGradient x1="100%" y1="72.4361727%" x2="0%" y2="72.4361727%" id="linearGradient-4">
            <stop stop-color="#0A54FF" stop-opacity="0" offset="0%"></stop>
            <stop stop-color="#0A54FF" offset="100%"></stop>
        </linearGradient>
        <linearGradient x1="0%" y1="0%" x2="100%" y2="0%" id="linearGradient-5">
            <stop stop-color="#4BAAE4" stop-opacity="0" offset="0%"></stop>
            <stop stop-color="#4BAAE4" offset="12.7349213%"></stop>
            <stop stop-color="#005174" stop-opacity="0" offset="100%"></stop>
        </linearGradient>
        <linearGradient x1="0%" y1="0%" x2="100%" y2="0%" id="linearGradient-6">
            <stop stop-color="#4BAAE4" stop-opacity="0" offset="0%"></stop>
            <stop stop-color="#4BAAE4" offset="12.7349213%"></stop>
            <stop stop-color="#005174" stop-opacity="0" offset="100%"></stop>
        </linearGradient>
        <linearGradient x1="0%" y1="0%" x2="99.939%" y2="3.49%" id="linearGradient-7">
            <stop stop-color="#00C0FF" offset="0%"></stop>
            <stop stop-color="#43F0FF" offset="49%"></stop>
            <stop stop-color="#00C0FF" offset="100%"></stop>
        </linearGradient>
    </defs>
    <g id="页面-1" stroke="none" stroke-width="1" fill="none" fill-rule="evenodd">
        <g id="dk_kuang_you1">
            <polygon id="路径" fill="url(#linearGradient-1)" points="252 0 0 0 0 32 279 32"></polygon>
            <polygon id="路径" fill="url(#linearGradient-2)" opacity="0.302" points="253.13219 0.134990042 279.289771 31.5596718 477 31.0527092 477 247 0 247 0 0"></polygon>
            <path d="M0.5,0.500268707 L252.896823,0.635873617 L279.05501,32.2516072 L476.5,31.7422914 L476.5,246.503 L0.5,246.503 L0.5,0.500268707 Z" id="路径" stroke="url(#linearGradient-3)"></path>
            <polygon id="路径" fill="url(#linearGradient-4)" opacity="0.302" points="-5.68434189e-14 0 252.544 0 279.544 32 -5.68434189e-14 32"></polygon>
            <path d="M24.275,7.635 L29.784,7.635 C32.067,7.635 33.917,9.466 33.917,11.725 L25.644,23.901 C24.566,24.843 22.419,26.729 20.142,26.7240099 L14.632,26.7240099 C12.35,26.7240099 10.5,24.892 10.5,22.633 L18.765,10.362 C20.853,8.295 21.448,7.635 24.275,7.635 Z" id="路径" fill="#00D4E8"></path>
            <path d="M31.162,4.908 L36.672,4.908 C38.954,4.908 40.804,6.739 40.804,8.998 L32.531,21.174 C31.453,22.116 29.306,24.002 27.03,23.9970099 L21.52,23.9970099 C19.238,23.9970099 17.387,22.165 17.387,19.906 L25.652,7.635 C27.741,5.568 28.335,4.908 31.162,4.908 Z" id="路径" fill="#2845FB" opacity="0.502"></path>
            <polyline id="路径" stroke="url(#linearGradient-5)" points="430.5 26.5 297.5 26.5 283.5 10.5"></polyline>
            <polyline id="路径" stroke="url(#linearGradient-6)" opacity="0.4" points="434.709 19.479 301.01 19.479 288.5 4.5"></polyline>
            <path d="M184.277,12.756 L184.277,15.221 L181.439,15.221 L181.439,25.892 L178.842,25.892 L178.842,15.221 L175.96,15.221 C175.872,18.565 175.41,22.988 173.474,25.848 C172.989,25.452 171.911,24.792 171.295,24.55 C173.297,21.624 173.474,17.377 173.474,14.275 L173.474,7.784 C176.18,7.278 179.106,6.463 180.889,5.583 L183.089,7.652 C181.021,8.51 178.424,9.192 175.96,9.654 L175.96,12.756 L184.277,12.756 Z M169.579,13.196 C170.393,14.187 172.087,16.497 172.483,17.069 L170.965,19.137 C170.657,18.455 170.129,17.443 169.579,16.475 L169.579,25.892 L167.071,25.892 L167.071,17.355 C166.41,19.225 165.618,20.942 164.738,22.13 C164.496,21.382 163.902,20.347 163.506,19.687 C164.892,17.949 166.124,14.957 166.785,12.36 L164.1,12.36 L164.1,9.896 L167.071,9.896 L167.071,5.363 L169.579,5.363 L169.579,9.896 L172.571,9.896 L172.571,12.36 L169.579,12.36 L169.579,13.196 Z M158.999,14.495 L158.999,14.561 C158.779,21.052 158.515,23.648 157.744,24.55 C157.194,25.254 156.6,25.496 155.764,25.584 C154.972,25.694 153.74,25.694 152.42,25.65 C152.376,24.858 152.046,23.758 151.584,23.01 C152.772,23.12 153.938,23.12 154.466,23.12 C154.862,23.12 155.104,23.054 155.346,22.834 C155.808,22.328 156.028,20.457 156.226,15.991 L151.628,15.991 C151.055,20.149 149.603,23.89 143.948,25.98 C143.64,25.276 142.892,24.22 142.298,23.648 C147.205,22.064 148.371,19.159 148.833,15.991 L145.291,15.991 L145.291,14.693 C144.873,15.155 144.432,15.573 143.97,15.947 C143.486,15.397 142.386,14.341 141.748,13.879 C144.322,12.03 146.545,8.95 147.777,5.671 L150.593,6.441 C149.603,8.994 148.129,11.414 146.479,13.394 L158.074,13.394 C156.424,11.348 154.796,8.906 153.652,6.551 L156.116,5.627 C157.436,8.4 160.077,11.656 162.343,13.526 C161.683,14.033 160.715,15.045 160.231,15.749 C159.835,15.353 159.417,14.935 158.999,14.495 Z M120.056,22.79 L128.659,22.79 L128.659,21.03 L122.278,21.03 L122.278,18.653 L128.637,18.653 L128.637,17.267 L127.009,17.267 L127.009,13.042 L124.985,13.042 C124.633,14.847 123.709,16.651 121.53,17.861 C121.2,17.377 120.276,16.387 119.814,16.035 C121.442,15.199 122.168,14.143 122.499,13.042 L120.276,13.042 L120.276,10.732 L122.763,10.732 L122.763,8.422 L121.024,8.422 L121.024,6.133 L131.014,6.133 L131.014,8.422 L129.452,8.422 L129.452,10.732 L131.52,10.732 L131.52,13.042 L129.452,13.042 L129.452,16.893 L131.344,16.893 L131.344,18.653 L137.703,18.653 L137.703,21.03 L131.344,21.03 L131.344,22.79 L139.881,22.79 L139.881,25.21 L120.056,25.21 L120.056,22.79 Z M127.009,8.422 L125.161,8.422 L125.161,10.732 L127.009,10.732 L127.009,8.422 Z M134.424,17.619 C134.314,16.937 133.962,15.947 133.654,15.309 C134.644,15.353 135.7,15.353 136.03,15.331 C136.339,15.309 136.449,15.243 136.449,14.957 L136.449,5.605 L138.935,5.605 L138.935,15.001 C138.935,16.211 138.715,16.827 137.879,17.201 C137.087,17.553 135.964,17.619 134.424,17.619 Z M132.444,6.617 L134.842,6.617 L134.842,14.055 L132.444,14.055 L132.444,6.617 Z M118.409,23.428 C117.815,23.978 117.089,25.122 116.803,25.892 C112.578,25.298 109.85,23.912 108.002,21.36 C106.747,23.538 104.239,25.056 99.09,25.914 C98.892,25.21 98.254,24.066 97.748,23.472 C102.061,22.878 104.195,21.888 105.317,20.457 L98.276,20.457 L98.276,18.015 L106.351,18.015 C106.461,17.443 106.549,16.849 106.615,16.189 L109.366,16.189 C109.3,16.827 109.234,17.421 109.124,18.015 L117.815,18.015 L117.815,20.457 L110.4,20.457 C112.05,22.174 114.691,23.12 118.409,23.428 Z M116.429,17.003 C114.823,16.123 111.874,14.715 109.3,13.504 L109.3,15.749 L106.659,15.749 L106.659,13.042 C104.789,14.869 102.237,16.277 99.574,17.025 C99.2,16.387 98.452,15.375 97.902,14.869 C100.432,14.297 102.941,13.196 104.679,11.832 L98.474,11.832 L98.474,9.434 L102.567,9.434 C102.127,8.576 101.335,7.52 100.609,6.706 L102.897,5.737 C103.755,6.617 104.745,7.894 105.163,8.774 L103.689,9.434 L106.659,9.434 L106.659,5.385 L109.3,5.385 L109.3,9.434 L112.556,9.434 L110.884,8.862 C111.61,7.96 112.446,6.617 112.908,5.671 L115.725,6.419 C114.867,7.564 113.964,8.642 113.216,9.434 L117.617,9.434 L117.617,11.832 L110.95,11.832 C113.37,12.866 116.121,14.077 117.683,14.913 L116.429,17.003 Z M79.797,23.318 L86.464,23.318 L86.464,21.8 L81.293,21.8 L81.293,19.731 L86.464,19.731 L86.464,18.455 C83.009,18.719 82.239,18.829 81.689,19.027 C81.557,18.565 81.205,17.399 80.941,16.805 C81.337,16.717 81.733,16.475 82.195,16.123 C82.437,15.947 82.965,15.529 83.515,14.979 L80.501,14.979 C80.347,18.565 79.775,22.922 77.97,25.892 C77.442,25.474 76.298,24.792 75.616,24.55 C77.728,21.162 77.904,16.233 77.904,12.734 L77.904,6.375 L94.759,6.375 L94.759,11.942 L80.545,11.942 L80.545,12.734 L80.545,12.932 L95.375,12.932 L95.375,14.979 L91.898,14.979 C93.175,15.969 94.627,17.201 95.375,18.103 L93.285,19.357 C92.999,18.983 92.581,18.543 92.118,18.081 L89.016,18.279 L89.016,19.731 L94.275,19.731 L94.275,21.8 L89.016,21.8 L89.016,23.318 L95.859,23.318 L95.859,25.386 L79.797,25.386 L79.797,23.318 Z M92.118,9.83 L92.118,8.488 L80.545,8.488 L80.545,9.83 L92.118,9.83 Z M90.028,16.211 C89.764,15.969 89.456,15.749 89.17,15.529 L90.094,14.979 L86.794,14.979 C86.266,15.485 85.672,15.991 85.099,16.475 L90.028,16.211 Z M64.618,19.247 L70.316,19.247 L70.316,19.269 L72.275,19.269 C72.275,19.269 72.253,19.885 72.209,20.193 C71.967,23.076 71.681,24.418 71.087,24.968 C70.625,25.474 70.008,25.628 69.26,25.672 C68.622,25.738 67.412,25.738 66.202,25.694 C66.158,25.034 65.872,24.176 65.52,23.604 C66.598,23.714 67.676,23.736 68.116,23.736 C68.512,23.736 68.732,23.692 68.93,23.516 C69.194,23.296 69.392,22.614 69.524,21.25 L64.09,21.25 C63.385,23.23 61.999,24.792 59.271,25.87 C59.029,25.254 58.347,24.352 57.819,23.912 C61.229,22.68 61.955,20.59 62.241,17.861 L58.809,17.861 L58.809,15.793 L64.882,15.793 C64.684,15.199 64.31,14.407 64.024,13.791 L65.762,13.262 L58.281,13.262 C58.215,17.069 57.797,22.46 55.992,26.068 C55.442,25.672 54.254,25.056 53.572,24.836 C55.464,21.228 55.618,15.903 55.618,12.36 L55.618,7.366 L63.077,7.366 C62.901,6.86 62.725,6.353 62.549,5.957 L65.146,5.341 C65.432,5.957 65.74,6.706 65.938,7.366 L73.001,7.366 L73.001,13.262 L66.444,13.262 C66.818,13.945 67.214,14.737 67.412,15.309 L65.96,15.793 L73.595,15.793 L73.595,17.861 L64.816,17.861 C64.75,18.345 64.706,18.785 64.618,19.247 Z M70.405,11.084 L70.405,9.544 L58.281,9.544 L58.281,11.084 L70.405,11.084 Z" id="形状" fill="url(#linearGradient-7)" fill-rule="nonzero"></path>
        </g>
    </g>
</svg>