<?xml version="1.0" encoding="UTF-8"?>
<svg width="477px" height="302px" viewBox="0 0 477 302" version="1.1" xmlns="http://www.w3.org/2000/svg" xmlns:xlink="http://www.w3.org/1999/xlink">
    <title>dk_kuang_zuo3</title>
    <defs>
        <linearGradient x1="0%" y1="0%" x2="100%" y2="0%" id="linearGradient-1">
            <stop stop-color="#030E6A" stop-opacity="0.8" offset="0%"></stop>
            <stop stop-color="#030E6A" stop-opacity="0" offset="100%"></stop>
        </linearGradient>
        <linearGradient x1="50%" y1="0%" x2="50%" y2="100%" id="linearGradient-2">
            <stop stop-color="#031270" offset="0%"></stop>
            <stop stop-color="#031270" stop-opacity="0.584380463" offset="40.8134834%"></stop>
            <stop stop-color="#031270" offset="100%"></stop>
        </linearGradient>
        <linearGradient x1="19.6284089%" y1="29.9573215%" x2="28.9870627%" y2="70.0426785%" id="linearGradient-3">
            <stop stop-color="#2845FB" offset="0%"></stop>
            <stop stop-color="#2845FB" stop-opacity="0.0366586538" offset="22.8845276%"></stop>
            <stop stop-color="#2845FB" offset="50.2340994%"></stop>
            <stop stop-color="#2845FB" stop-opacity="0" offset="100%"></stop>
        </linearGradient>
        <linearGradient x1="100%" y1="72.4361727%" x2="0%" y2="72.4361727%" id="linearGradient-4">
            <stop stop-color="#0A54FF" stop-opacity="0" offset="0%"></stop>
            <stop stop-color="#0A54FF" offset="100%"></stop>
        </linearGradient>
        <linearGradient x1="0%" y1="0%" x2="100%" y2="0%" id="linearGradient-5">
            <stop stop-color="#4BAAE4" stop-opacity="0" offset="0%"></stop>
            <stop stop-color="#4BAAE4" offset="12.7349213%"></stop>
            <stop stop-color="#005174" stop-opacity="0" offset="100%"></stop>
        </linearGradient>
        <linearGradient x1="0%" y1="0%" x2="100%" y2="0%" id="linearGradient-6">
            <stop stop-color="#4BAAE4" stop-opacity="0" offset="0%"></stop>
            <stop stop-color="#4BAAE4" offset="12.7349213%"></stop>
            <stop stop-color="#005174" stop-opacity="0" offset="100%"></stop>
        </linearGradient>
        <linearGradient x1="0%" y1="-3.33066907e-14%" x2="99.939%" y2="3.49%" id="linearGradient-7">
            <stop stop-color="#00C0FF" offset="0%"></stop>
            <stop stop-color="#43F0FF" offset="49%"></stop>
            <stop stop-color="#00C0FF" offset="100%"></stop>
        </linearGradient>
    </defs>
    <g id="页面-1" stroke="none" stroke-width="1" fill="none" fill-rule="evenodd">
        <g id="dk_kuang_zuo3">
            <polygon id="路径" fill="url(#linearGradient-1)" points="252 0 0 0 0 32 279 32"></polygon>
            <polygon id="路径" fill="url(#linearGradient-2)" opacity="0.302" points="253.13219 0.134990042 279.289771 31.5596718 477 31.0527092 477 302 0 302 0 0"></polygon>
            <path d="M0.5,0.500268707 L252.896823,0.635873617 L279.05501,32.2516072 L476.5,31.7422914 L476.5,301.503 L0.5,301.503 L0.5,0.500268707 Z" id="路径" stroke="url(#linearGradient-3)"></path>
            <polygon id="路径" fill="url(#linearGradient-4)" opacity="0.302" points="0 0 252.544 0 279.544 32 0 32"></polygon>
            <path d="M24.275,7.635 L29.784,7.635 C32.067,7.635 33.917,9.466 33.917,11.725 L25.644,23.901 C24.566,24.843 22.419,26.729 20.142,26.7240099 L14.632,26.7240099 C12.35,26.7240099 10.5,24.892 10.5,22.633 L18.765,10.362 C20.853,8.295 21.448,7.635 24.275,7.635 Z" id="路径" fill="#00D4E8"></path>
            <path d="M31.162,4.908 L36.672,4.908 C38.954,4.908 40.804,6.739 40.804,8.998 L32.531,21.174 C31.453,22.116 29.306,24.002 27.03,23.9970099 L21.52,23.9970099 C19.238,23.9970099 17.387,22.165 17.387,19.906 L25.652,7.635 C27.741,5.568 28.335,4.908 31.162,4.908 Z" id="路径" fill="#2845FB" opacity="0.502"></path>
            <polyline id="路径" stroke="url(#linearGradient-5)" points="430.5 26.5 297.5 26.5 283.5 10.5"></polyline>
            <polyline id="路径" stroke="url(#linearGradient-6)" opacity="0.4" points="434.709 19.479 301.01 19.479 288.5 4.5"></polyline>
            <polygon id="路径" fill="#1050D3" opacity="0.2" points="467.237 12.479 462.422 12.479 470.043 23.099 474.858 23.099"></polygon>
            <polygon id="路径" fill="#2563E1" opacity="0.502" points="457.002 12.479 452.187 12.479 459.807 23.099 464.622 23.099"></polygon>
            <polygon id="路径" fill="#4680F5" points="446.767 12.479 441.952 12.479 449.572 23.099 454.387 23.099"></polygon>
            <path d="M176.06,16.343 L176.06,21.382 C176.06,22.636 176.17,22.834 177.006,22.834 L179.25,22.834 C180.131,22.834 180.263,21.844 180.417,17.971 C181.077,18.455 182.243,19.005 182.969,19.181 C182.705,23.692 182.067,25.408 179.493,25.408 L176.61,25.408 C174.058,25.408 173.31,24.462 173.31,21.338 L173.31,5.583 L176.06,5.583 L176.06,13.307 C177.842,11.854 179.603,10.094 180.879,8.664 L183.013,11.04 C180.923,12.889 178.414,14.759 176.06,16.343 Z M167.193,21.712 L171.923,20.128 C171.879,20.964 171.945,22.152 172.055,22.79 C166.181,24.902 165.146,25.408 164.53,25.914 C164.31,25.276 163.694,24.176 163.298,23.736 C163.76,23.384 164.398,22.702 164.398,21.668 L164.398,5.693 L167.193,5.693 L167.193,11.898 L172.187,11.898 L172.187,14.495 L167.193,14.495 L167.193,21.712 Z M152.102,15.309 L158.967,15.309 L158.967,25.782 L156.26,25.782 L156.26,24.748 L145.567,24.748 L145.567,25.848 L142.992,25.848 L142.992,15.309 L149.395,15.309 L149.395,5.385 L152.102,5.385 L152.102,9.038 L160.529,9.038 L160.529,11.502 L152.102,11.502 L152.102,15.309 Z M145.567,17.751 L145.567,22.284 L156.26,22.284 L156.26,17.751 L145.567,17.751 Z M131.532,25.628 C128.892,25.628 126.999,25.364 125.349,24.55 C124.337,24.044 123.611,23.45 123.061,23.45 C122.291,23.45 121.168,24.726 120.178,25.98 L118.594,23.78 C119.606,22.834 120.662,22.064 121.631,21.646 L121.631,15.639 L119.034,15.639 L119.034,13.219 L124.139,13.219 L124.139,21.58 C124.579,21.822 125.085,22.152 125.767,22.46 C127.263,23.208 129.266,23.362 131.62,23.362 C133.864,23.362 137.209,23.164 139.343,22.878 C139.057,23.538 138.683,24.682 138.639,25.408 C137.187,25.496 133.666,25.628 131.532,25.628 Z M132.324,11.414 L137.319,11.414 L137.319,22.02 L126.339,22.02 L126.339,11.414 L129.86,11.414 C129.97,10.996 130.08,10.556 130.168,10.116 L124.887,10.116 L124.887,7.982 L127.879,7.982 C127.593,7.388 127.175,6.684 126.779,6.112 L129.002,5.187 C129.53,5.891 130.168,6.882 130.454,7.498 L129.354,7.982 L132.786,7.982 C133.292,7.19 133.864,6.134 134.172,5.363 L136.703,6.068 C136.241,6.75 135.801,7.388 135.383,7.982 L138.903,7.982 L138.903,10.116 L132.962,10.116 C132.742,10.578 132.522,11.018 132.324,11.414 Z M128.804,20.172 L134.744,20.172 L134.744,18.961 L128.804,18.961 L128.804,20.172 Z M128.804,17.289 L134.744,17.289 L134.744,16.101 L128.804,16.101 L128.804,17.289 Z M128.804,13.241 L128.804,14.451 L134.744,14.451 L134.744,13.241 L128.804,13.241 Z M119.034,7.476 L121.036,6.2 C122.159,7.234 123.567,8.752 124.227,9.786 L122.071,11.238 C121.499,10.226 120.156,8.62 119.034,7.476 Z M115.693,25.672 C113.052,24.77 110.346,23.164 108.322,21.25 L108.322,25.892 L105.659,25.892 L105.659,21.206 C103.679,23.12 100.973,24.748 98.354,25.672 C98.002,25.056 97.21,24.066 96.66,23.56 C99.058,22.9 101.567,21.668 103.371,20.26 L97.254,20.26 L97.254,17.993 L105.659,17.993 L105.659,16.915 L108.322,16.915 L108.322,17.993 L116.771,17.993 L116.771,20.26 L110.566,20.26 C112.414,21.668 114.945,22.878 117.365,23.538 C116.815,24.044 116.023,25.034 115.693,25.672 Z M103.965,6.024 L116.199,6.024 L116.199,7.982 L106.518,7.982 L106.518,8.994 L115.407,8.994 L115.407,13.527 L106.518,13.527 L106.518,14.627 L116.639,14.627 L116.639,16.563 L103.965,16.563 L103.965,6.024 Z M106.518,11.81 L112.832,11.81 L112.832,10.71 L106.518,10.71 L106.518,11.81 Z M97.43,15.551 C98.618,14.649 100.357,13.109 101.831,11.634 L103.239,13.417 C101.941,14.803 100.511,16.189 99.146,17.421 L97.43,15.551 Z M98.508,7.058 L99.631,5.429 C100.797,5.825 102.425,6.508 103.239,6.992 L102.095,8.818 C101.303,8.29 99.719,7.52 98.508,7.058 Z M100.775,11.92 C99.983,11.392 98.376,10.644 97.166,10.16 L98.354,8.444 C99.499,8.84 101.149,9.522 102.007,10.028 L100.775,11.92 Z M81.261,22.856 L87.334,22.856 L87.334,20.766 L82.779,20.766 L82.779,18.411 L87.334,18.411 L87.334,16.519 L82.933,16.519 L82.933,6.288 L94.419,6.288 L94.419,16.519 L89.996,16.519 L89.996,18.411 L94.661,18.411 L94.661,20.766 L89.996,20.766 L89.996,22.856 L95.409,22.856 L95.409,25.232 L81.261,25.232 L81.261,22.856 Z M87.554,8.51 L85.288,8.51 L85.288,10.336 L87.554,10.336 L87.554,8.51 Z M89.754,14.297 L91.933,14.297 L91.933,12.404 L89.754,12.404 L89.754,14.297 Z M89.754,10.336 L91.933,10.336 L91.933,8.51 L89.754,8.51 L89.754,10.336 Z M87.554,12.404 L85.288,12.404 L85.288,14.297 L87.554,14.297 L87.554,12.404 Z M81.899,19.049 L82.339,21.514 C79.919,22.372 77.278,23.208 75.166,23.89 L74.572,21.228 C75.342,21.03 76.244,20.788 77.256,20.502 L77.256,15.331 L75.034,15.331 L75.034,12.933 L77.256,12.933 L77.256,9.06 L74.836,9.06 L74.836,6.618 L82.097,6.618 L82.097,9.06 L79.743,9.06 L79.743,12.933 L81.723,12.933 L81.723,15.331 L79.743,15.331 L79.743,19.731 C80.469,19.511 81.195,19.291 81.899,19.049 Z M63.002,23.34 C60.471,24.55 57.545,25.276 54.442,25.694 C54.178,25.078 53.452,23.912 52.902,23.384 C55.653,23.098 58.205,22.592 60.383,21.778 C59.041,20.832 57.875,19.665 56.907,18.323 L57.633,18.015 L56.599,18.015 L56.599,15.617 L67.71,15.617 L68.194,15.507 L69.955,16.585 C68.964,18.741 67.512,20.414 65.73,21.712 C67.842,22.46 70.307,22.966 73.013,23.208 C72.463,23.802 71.759,24.946 71.407,25.65 C68.216,25.254 65.378,24.506 63.002,23.34 Z M66.016,18.015 L59.679,18.015 C60.581,19.005 61.703,19.842 63.024,20.568 C64.19,19.864 65.224,19.027 66.016,18.015 Z M70.065,13.923 L55.873,13.923 L55.873,16.431 L53.43,16.431 L53.43,11.656 L56.577,11.656 C56.357,10.974 55.939,10.094 55.543,9.39 L57.501,8.84 C56.401,8.906 55.278,8.95 54.222,8.972 C54.178,8.312 53.87,7.322 53.628,6.75 C59.415,6.552 66.038,6.024 70.043,5.253 L71.803,7.366 C69.427,7.806 66.588,8.158 63.662,8.422 C64.102,9.302 64.52,10.468 64.652,11.26 L63.024,11.656 L66.852,11.656 C67.38,10.644 67.952,9.346 68.282,8.356 L71.077,9.016 C70.571,9.94 69.999,10.842 69.493,11.656 L72.617,11.656 L72.617,16.431 L70.065,16.431 L70.065,13.923 Z M63.508,8.422 C61.659,8.598 59.745,8.73 57.875,8.818 C58.381,9.632 58.887,10.622 59.107,11.326 L57.963,11.656 L62.165,11.656 C62.033,10.886 61.703,9.786 61.329,8.928 L63.508,8.422 Z" id="形状" fill="url(#linearGradient-7)" fill-rule="nonzero"></path>
        </g>
    </g>
</svg>
