<?xml version="1.0" encoding="UTF-8"?>
<svg width="76px" height="76px" viewBox="0 0 76 76" version="1.1" xmlns="http://www.w3.org/2000/svg" xmlns:xlink="http://www.w3.org/1999/xlink">
    <title>icon_dk_lpzr</title>
    <defs>
        <linearGradient x1="0%" y1="25.7932301%" x2="97.03%" y2="3.10219725%" id="linearGradient-1">
            <stop stop-color="#0E1C33" offset="0%"></stop>
            <stop stop-color="#8FDFFE" offset="100%"></stop>
        </linearGradient>
        <linearGradient x1="52.992%" y1="82.343313%" x2="0%" y2="3.53639856%" id="linearGradient-2">
            <stop stop-color="#0E1C33" offset="0%"></stop>
            <stop stop-color="#8FDFFE" offset="100%"></stop>
        </linearGradient>
        <linearGradient x1="0%" y1="0%" x2="0%" y2="100%" id="linearGradient-3">
            <stop stop-color="#1DB4FF" stop-opacity="0" offset="0%"></stop>
            <stop stop-color="#1DB4FF" stop-opacity="0.29" offset="29%"></stop>
            <stop stop-color="#1DB4FF" offset="100%"></stop>
        </linearGradient>
        <linearGradient x1="0%" y1="0%" x2="0%" y2="100%" id="linearGradient-4">
            <stop stop-color="#0E1C33" offset="0%"></stop>
            <stop stop-color="#1DB4FF" offset="100%"></stop>
        </linearGradient>
        <linearGradient x1="0%" y1="0%" x2="0%" y2="100%" id="linearGradient-5">
            <stop stop-color="#0060FF" offset="0%"></stop>
            <stop stop-color="#8FDFFE" offset="100%"></stop>
        </linearGradient>
    </defs>
    <g id="页面-1" stroke="none" stroke-width="1" fill="none" fill-rule="evenodd">
        <g id="icon_dk_lpzr">
            <polygon id="路径" fill="url(#linearGradient-1)" points="0 52 38 65.9112656 38 76 0 62.087753"></polygon>
            <polygon id="路径" fill="url(#linearGradient-2)" points="38 65.9590541 76 52 76 62.0409459 38 76"></polygon>
            <polygon id="路径" fill="#142747" points="0.031 52 37.5 39.04 76 52 38.064 66.717"></polygon>
            <polygon id="路径" fill="url(#linearGradient-3)" opacity="0.4" points="0 0.454 76 9.47874123e-14 76 52 38.064 66.717 0.031 52"></polygon>
            <path d="M56.951,43.313 L24.056,43.313 C22.576,43.312 21.377,42.114 21.375,40.635 C21.375,39.158 22.577,37.958 24.056,37.958 L56.945,37.958 C58.423,37.958 59.625,39.158 59.625,40.635 C59.625,42.112 58.43,43.313 56.951,43.313 Z M44.752,37.593 L53.148,37.593 L53.148,17.036 C53.148,15.208 51.86,13.725 50.265,13.725 L46.32,13.725 C45.432,13.725 44.718,14.353 44.718,15.132 L44.718,21.993 M30.322,8.109 C28.182,8.109 26.454,9.707 26.454,11.682 L26.454,37.593 L43.313,37.593 L43.313,11.682 C43.313,9.713 41.585,8.109 39.446,8.109 L30.322,8.109 Z M32.331,34.851 C32.331,35.384 31.895,35.82 31.362,35.82 L28.959,35.82 C28.425,35.82 27.99,35.384 27.99,34.851 L27.99,32.45 C27.99,31.917 28.425,31.481 28.959,31.481 L31.362,31.481 C31.895,31.481 32.331,31.917 32.331,32.45 L32.331,34.851 Z M32.331,27.766 C32.331,28.3 31.895,28.735 31.362,28.735 L28.959,28.735 C28.425,28.735 27.99,28.3 27.99,27.766 L27.99,25.366 C27.99,24.832 28.425,24.397 28.959,24.397 L31.362,24.397 C31.895,24.397 32.331,24.832 32.331,25.366 L32.331,27.766 Z M32.331,20.683 C32.331,21.217 31.895,21.652 31.362,21.652 L28.959,21.652 C28.425,21.652 27.99,21.217 27.99,20.683 L27.99,18.282 C27.99,17.749 28.425,17.312 28.959,17.312 L31.362,17.312 C31.895,17.312 32.331,17.748 32.331,18.281 L32.331,20.682 L32.331,20.683 Z M32.331,13.599 C32.331,14.132 31.895,14.568 31.362,14.568 L28.959,14.568 C28.425,14.568 27.99,14.132 27.99,13.599 L27.99,11.198 C27.99,10.664 28.425,10.229 28.959,10.229 L31.362,10.229 C31.895,10.229 32.331,10.664 32.331,11.198 L32.331,13.599 Z" id="形状" fill="url(#linearGradient-4)" fill-rule="nonzero"></path>
            <path d="M54.951,45.313 L22.056,45.313 C20.576,45.312 19.377,44.114 19.375,42.635 C19.375,41.158 20.577,39.958 22.056,39.958 L54.945,39.958 C56.423,39.958 57.625,41.158 57.625,42.635 C57.625,44.112 56.43,45.313 54.951,45.313 Z M42.752,39.593 L51.148,39.593 L51.148,19.036 C51.148,17.208 49.86,15.725 48.265,15.725 L44.32,15.725 C43.432,15.725 42.718,16.353 42.718,17.132 L42.718,23.993 M28.322,10.109 C26.182,10.109 24.454,11.707 24.454,13.682 L24.454,39.593 L41.313,39.593 L41.313,13.682 C41.313,11.713 39.585,10.109 37.446,10.109 L28.322,10.109 Z M30.331,36.851 C30.331,37.384 29.896,37.82 29.362,37.82 L26.959,37.82 C26.425,37.82 25.99,37.384 25.99,36.851 L25.99,34.45 C25.99,33.917 26.425,33.481 26.959,33.481 L29.362,33.481 C29.896,33.481 30.331,33.917 30.331,34.45 L30.331,36.851 Z M30.331,29.766 C30.331,30.3 29.896,30.735 29.362,30.735 L26.959,30.735 C26.425,30.735 25.99,30.3 25.99,29.766 L25.99,27.366 C25.99,26.832 26.425,26.397 26.959,26.397 L29.362,26.397 C29.896,26.397 30.331,26.832 30.331,27.366 L30.331,29.766 Z M30.331,22.683 C30.331,23.217 29.896,23.652 29.362,23.652 L26.959,23.652 C26.425,23.652 25.99,23.217 25.99,22.683 L25.99,20.282 C25.99,19.749 26.425,19.312 26.959,19.312 L29.362,19.312 C29.896,19.312 30.331,19.748 30.331,20.281 L30.331,22.682 L30.331,22.683 Z M30.331,15.599 C30.331,16.132 29.896,16.568 29.362,16.568 L26.959,16.568 C26.425,16.568 25.99,16.132 25.99,15.599 L25.99,13.198 C25.99,12.664 26.425,12.229 26.959,12.229 L29.362,12.229 C29.896,12.229 30.331,12.664 30.331,13.198 L30.331,15.599 Z" id="形状" fill="url(#linearGradient-5)" fill-rule="nonzero"></path>
        </g>
    </g>
</svg>