<?xml version="1.0" encoding="UTF-8"?>
<svg width="76px" height="70px" viewBox="0 0 76 70" version="1.1" xmlns="http://www.w3.org/2000/svg" xmlns:xlink="http://www.w3.org/1999/xlink">
    <title>icon_tqje</title>
    <defs>
        <linearGradient x1="0%" y1="71.2638942%" x2="100%" y2="33.4261557%" id="linearGradient-1">
            <stop stop-color="#0E1C33" offset="0%"></stop>
            <stop stop-color="#8FDFFE" offset="100%"></stop>
        </linearGradient>
        <linearGradient x1="100%" y1="59.6412731%" x2="0%" y2="38.7530475%" id="linearGradient-2">
            <stop stop-color="#0E1C33" offset="0%"></stop>
            <stop stop-color="#8FDFFE" offset="100%"></stop>
        </linearGradient>
        <linearGradient x1="0%" y1="0%" x2="0%" y2="100%" id="linearGradient-3">
            <stop stop-color="#1DB4FF" stop-opacity="0" offset="0%"></stop>
            <stop stop-color="#1DB4FF" offset="100%"></stop>
        </linearGradient>
        <linearGradient x1="0%" y1="0%" x2="0%" y2="100%" id="linearGradient-4">
            <stop stop-color="#0E1C33" offset="0%"></stop>
            <stop stop-color="#1DB4FF" offset="100%"></stop>
        </linearGradient>
        <linearGradient x1="0%" y1="0%" x2="0%" y2="100%" id="linearGradient-5">
            <stop stop-color="#0060FF" offset="0%"></stop>
            <stop stop-color="#8FDFFE" offset="100%"></stop>
        </linearGradient>
    </defs>
    <g id="页面-1" stroke="none" stroke-width="1" fill="none" fill-rule="evenodd">
        <g id="icon_tqje">
            <polygon id="路径" fill="url(#linearGradient-1)" points="0 45.06784 38 59.43184 38 69.8489067 0 55.4838933"></polygon>
            <polygon id="路径" fill="url(#linearGradient-2)" points="38 59.4906133 76 45.01008 76 55.4261333 38 69.9066667"></polygon>
            <polygon id="路径" fill="#142747" points="0.0314133333 45.46304 38 31.4405333 75.9675733 45.46304 38 59.48656"></polygon>
            <polygon id="路径" fill="url(#linearGradient-3)" opacity="0.4" points="0 0.29216 76 0.29216 76 45.6972051 38.4086682 60.29216 0 45.6972051"></polygon>
            <g id="编组" transform="translate(23.000000, 5.000000)" fill-rule="nonzero">
                <path d="M27.278,5.692 L21.592,11.66 L25.036,11.66 C26.788,11.66 28.207,13.15 28.207,14.988 C28.207,16.826 26.788,18.317 25.036,18.317 L18.707,18.317 L18.707,21.645 L25.036,21.645 C26.788,21.645 28.207,23.134 28.207,24.973 C28.207,26.813 26.788,28.302 25.036,28.302 L18.707,28.302 L18.707,34.959 C18.707,36.798 17.287,38.287 15.536,38.287 C13.785,38.287 12.365,36.798 12.365,34.959 L12.365,28.302 L6.011,28.302 C4.26,28.302 2.84,26.813 2.84,24.973 C2.84,23.134 4.26,21.645 6.011,21.645 L12.365,21.645 L12.365,18.317 L6.011,18.317 C4.26,18.317 2.84,16.826 2.84,14.988 C2.84,13.15 4.26,11.66 6.011,11.66 L9.454,11.66 L3.769,5.692 C2.531,4.392 2.531,2.286 3.769,0.986 C5.008,-0.315 7.014,-0.315 8.253,0.986 L15.523,8.617 L22.794,0.986 C24.033,-0.315 26.039,-0.315 27.278,0.986 C28.516,2.286 28.516,4.392 27.278,5.692 Z" id="路径" fill="url(#linearGradient-4)"></path>
                <path d="M25.137,7.833 L19.452,13.801 L22.895,13.801 C24.648,13.801 26.06625,15.291 26.06625,17.129 C26.06625,18.967 24.648,20.457 22.895,20.457 L16.566,20.457 L16.566,23.786 L22.895,23.786 C24.648,23.786 26.06625,25.274 26.06625,27.114 C26.06625,28.954 24.648,30.442 22.895,30.442 L16.566,30.442 L16.566,37.099 C16.566,38.939 15.146,40.428 13.395,40.428 C11.644,40.428 10.224,38.939 10.224,37.099 L10.224,30.442 L3.87,30.442 C2.119,30.442 0.69975,28.954 0.69975,27.114 C0.69975,25.274 2.119,23.786 3.87,23.786 L10.224,23.786 L10.224,20.457 L3.87,20.457 C2.119,20.457 0.69975,18.967 0.69975,17.129 C0.69975,15.291 2.119,13.801 3.87,13.801 L7.314,13.801 L1.629,7.833 C0.39,6.533 0.39,4.427 1.629,3.126 C2.867,1.826 4.874,1.826 6.112,3.126 L13.383,10.758 L20.653,3.126 C21.892,1.826 23.898,1.826 25.137,3.126 C26.376,4.427 26.376,6.533 25.137,7.833 Z" id="路径" fill="url(#linearGradient-5)"></path>
            </g>
        </g>
    </g>
</svg>