<?xml version="1.0" encoding="UTF-8"?>
<svg width="76px" height="70px" viewBox="0 0 76 70" version="1.1" xmlns="http://www.w3.org/2000/svg" xmlns:xlink="http://www.w3.org/1999/xlink">
    <title>icon_yhck</title>
    <defs>
        <linearGradient x1="0%" y1="71.2638942%" x2="100%" y2="33.4261557%" id="linearGradient-1">
            <stop stop-color="#0E1C33" offset="0%"></stop>
            <stop stop-color="#8FDFFE" offset="100%"></stop>
        </linearGradient>
        <linearGradient x1="100%" y1="59.6412731%" x2="0%" y2="38.7530475%" id="linearGradient-2">
            <stop stop-color="#0E1C33" offset="0%"></stop>
            <stop stop-color="#8FDFFE" offset="100%"></stop>
        </linearGradient>
        <linearGradient x1="0%" y1="0%" x2="0%" y2="100%" id="linearGradient-3">
            <stop stop-color="#1DB4FF" stop-opacity="0" offset="0%"></stop>
            <stop stop-color="#1DB4FF" offset="100%"></stop>
        </linearGradient>
        <linearGradient x1="0%" y1="0%" x2="0%" y2="100%" id="linearGradient-4">
            <stop stop-color="#0E1C33" offset="0%"></stop>
            <stop stop-color="#1DB4FF" offset="100%"></stop>
        </linearGradient>
        <linearGradient x1="0%" y1="0%" x2="0%" y2="100%" id="linearGradient-5">
            <stop stop-color="#0060FF" offset="0%"></stop>
            <stop stop-color="#8FDFFE" offset="100%"></stop>
        </linearGradient>
    </defs>
    <g id="图标" stroke="none" stroke-width="1" fill="none" fill-rule="evenodd">
        <g id="icon_yhck">
            <polygon id="路径" fill="url(#linearGradient-1)" points="0 45.06784 38 59.43184 38 69.8489067 0 55.4838933"></polygon>
            <polygon id="路径" fill="url(#linearGradient-2)" points="38 59.4906133 76 45.01008 76 55.4261333 38 69.9066667"></polygon>
            <polygon id="路径" fill="#142747" points="0.0314133333 45.46304 38 31.4405333 75.9675733 45.46304 38 59.48656"></polygon>
            <polygon id="路径" fill="url(#linearGradient-3)" opacity="0.4" points="0 0.29216 76 0.29216 76 45.6972051 38.4086682 60.29216 0 45.6972051"></polygon>
            <path d="M33.744,35.631 L33.744,38.621 L43.971,38.621 L43.971,35.631 L41.304,35.631 L41.304,25.431 L43.971,25.431 L43.971,22.441 L33.744,22.441 L33.744,25.431 L36.271,25.431 L36.271,35.631 L33.744,35.631 Z M20.847,35.631 L20.847,38.621 L31.074,38.621 L31.074,35.631 L28.409,35.631 L28.409,25.431 L31.074,25.431 L31.074,22.441 L20.847,22.441 L20.847,25.431 L23.374,25.431 L23.374,35.631 L20.847,35.631 Z M56.785,39.976 L20.78,39.976 L20.78,42.602 L19.089,42.602 L19.089,45.157 L59.039,45.157 L59.039,42.602 L56.785,42.602 L56.785,39.976 Z M60.989,19.825 L38.784,5.454 L16.574,19.825 L19.089,19.825 L19.089,19.803 L24.245,19.803 L24.245,19.908 L53.886,19.908 L53.886,19.803 L59.042,19.803 L59.042,19.825 L60.989,19.825 Z M38.796,18.327 C36.775,18.327 35.143,16.654 35.143,14.593 C35.143,12.532 36.775,10.858 38.796,10.858 C40.812,10.858 42.444,12.532 42.444,14.593 C42.444,16.654 40.812,18.327 38.796,18.327 Z M46.643,35.631 L46.643,38.621 L56.871,38.621 L56.871,35.631 L54.203,35.631 L54.203,25.431 L56.871,25.431 L56.871,22.441 L46.643,22.441 L46.643,25.431 L49.166,25.431 L49.166,35.631 L46.643,35.631 Z" id="形状" fill="url(#linearGradient-4)" fill-rule="nonzero"></path>
            <path d="M31.744,37.631 L31.744,40.621 L41.971,40.621 L41.971,37.631 L39.304,37.631 L39.304,27.431 L41.971,27.431 L41.971,24.441 L31.744,24.441 L31.744,27.431 L34.271,27.431 L34.271,37.631 L31.744,37.631 Z M18.847,37.631 L18.847,40.621 L29.074,40.621 L29.074,37.631 L26.409,37.631 L26.409,27.431 L29.074,27.431 L29.074,24.441 L18.847,24.441 L18.847,27.431 L21.374,27.431 L21.374,37.631 L18.847,37.631 Z M54.785,41.976 L18.781,41.976 L18.781,44.602 L17.089,44.602 L17.089,47.157 L57.039,47.157 L57.039,44.602 L54.785,44.602 L54.785,41.976 Z M58.989,21.825 L36.784,7.454 L14.574,21.825 L17.089,21.825 L17.089,21.803 L22.245,21.803 L22.245,21.908 L51.886,21.908 L51.886,21.803 L57.042,21.803 L57.042,21.825 L58.989,21.825 Z M36.796,20.327 C34.775,20.327 33.143,18.654 33.143,16.593 C33.143,14.532 34.775,12.858 36.796,12.858 C38.812,12.858 40.444,14.532 40.444,16.593 C40.444,18.654 38.812,20.327 36.796,20.327 Z M44.643,37.631 L44.643,40.621 L54.871,40.621 L54.871,37.631 L52.203,37.631 L52.203,27.431 L54.871,27.431 L54.871,24.441 L44.643,24.441 L44.643,27.431 L47.166,27.431 L47.166,37.631 L44.643,37.631 Z" id="形状" fill="url(#linearGradient-5)" fill-rule="nonzero"></path>
        </g>
    </g>
</svg>