<?xml version="1.0" encoding="UTF-8"?>
<svg width="76px" height="76px" viewBox="0 0 76 76" version="1.1" xmlns="http://www.w3.org/2000/svg" xmlns:xlink="http://www.w3.org/1999/xlink">
    <title>icon_zjld_zzsyck</title>
    <defs>
        <linearGradient x1="0%" y1="25.7932301%" x2="97.03%" y2="3.10219725%" id="linearGradient-1">
            <stop stop-color="#0E1C33" offset="0%"></stop>
            <stop stop-color="#8FDFFE" offset="100%"></stop>
        </linearGradient>
        <linearGradient x1="52.992%" y1="82.343313%" x2="0%" y2="3.53639856%" id="linearGradient-2">
            <stop stop-color="#0E1C33" offset="0%"></stop>
            <stop stop-color="#8FDFFE" offset="100%"></stop>
        </linearGradient>
        <linearGradient x1="0%" y1="0%" x2="0%" y2="100%" id="linearGradient-3">
            <stop stop-color="#1DB4FF" stop-opacity="0" offset="0%"></stop>
            <stop stop-color="#1DB4FF" stop-opacity="0.29" offset="29%"></stop>
            <stop stop-color="#1DB4FF" offset="100%"></stop>
        </linearGradient>
        <linearGradient x1="0%" y1="0%" x2="0%" y2="100%" id="linearGradient-4">
            <stop stop-color="#0E1C33" offset="0%"></stop>
            <stop stop-color="#1DB4FF" offset="100%"></stop>
        </linearGradient>
        <linearGradient x1="0%" y1="0%" x2="0%" y2="100%" id="linearGradient-5">
            <stop stop-color="#0060FF" offset="0%"></stop>
            <stop stop-color="#8FDFFE" offset="100%"></stop>
        </linearGradient>
    </defs>
    <g id="页面-1" stroke="none" stroke-width="1" fill="none" fill-rule="evenodd">
        <g id="icon_zjld_zzsyck">
            <polygon id="路径" fill="url(#linearGradient-1)" points="0 52 38 65.9112656 38 76 0 62.087753"></polygon>
            <polygon id="路径" fill="url(#linearGradient-2)" points="38 65.9590541 76 52 76 62.0409459 38 76"></polygon>
            <polygon id="路径" fill="#142747" points="0.031 52 37.5 39.04 76 52 38.064 66.717"></polygon>
            <polygon id="路径" fill="url(#linearGradient-3)" opacity="0.4" points="0 0.454 76 3.79439934e-14 76 52 38.064 66.717 0.031 52"></polygon>
            <path d="M53.498,49.3630247 L48.075,49.3630247 C46.744,49.369 45.658,48.282 45.658,46.943 L45.658,25.157 C45.658,23.48 47.015,22.121 48.691,22.121 L52.889,22.121 C54.14,22.121 55.246,22.87 55.71,24.03 C55.743,24.109 55.769,24.196 55.796,24.282 C55.882,24.567 55.922,24.858 55.922,25.15 L55.922,46.937 C55.922,48.276 54.836,49.3630247 53.498,49.3630247 Z M53.491,8.228 L51.637,15.142 C51.538,15.513 51.22,15.659 50.982,15.672 C50.962,15.678 50.949,15.685 50.935,15.685 C50.803,15.685 50.604,15.645 50.432,15.473 L47.889,12.934 L41.247,19.516 L39.605,21.147 C39.321,21.432 38.936,21.591 38.533,21.591 L38.519,21.591 C38.188,21.591 37.844,21.465 37.579,21.253 L37.572,21.246 L37.486,21.173 L37.473,21.16 L37.201,20.888 L33.155,16.805 C33.129,16.779 33.096,16.765 33.063,16.765 C33.03,16.765 32.997,16.779 32.97,16.805 L24.203,25.435 C23.918,25.72 23.534,25.873 23.136,25.873 C22.726,25.873 22.342,25.714 22.057,25.422 C21.772,25.13 21.613,24.752 21.6197782,24.348 C21.6197782,23.944 21.786,23.566 22.07,23.281 L32.016,13.478 C32.301,13.193 32.679,13.04 33.083,13.04 C33.493,13.04 33.877,13.2 34.162,13.491 L37.638,17.004 L38.46,17.833 C38.486,17.859 38.519,17.872 38.552,17.872 C38.585,17.872 38.619,17.859 38.645,17.833 L39.122,17.349 L45.741,10.789 L45.049,10.098 L43.453,8.507 C43.267,8.321 43.201,8.063 43.267,7.811 C43.333,7.559 43.525,7.367 43.777,7.3 L53.306,4.749 C53.372,4.729 53.439,4.722 53.498,4.722 C53.717,4.722 53.935,4.828 54.068,5.007 C54.147,5.113 54.266,5.332 54.187,5.63 L53.491,8.228 Z M24.454,27.092 L28.653,27.092 C29.931,27.092 31.083,27.901 31.513,29.107 C31.526,29.147 31.54,29.187 31.553,29.233 C31.639,29.518 31.685,29.823 31.685,30.128 L31.685,46.943 C31.685,48.282 30.599,49.369 29.262,49.369 L23.845,49.369 L23.845,49.369 C23.792,49.369 23.739,49.369 23.686,49.363 C23.607,49.356 23.527,49.35 23.448,49.336 C22.276,49.144 21.421,48.137 21.421,46.943 L21.421,30.128 C21.421,28.451 22.779,27.092 24.454,27.092 Z M36.572,29.876 L40.771,29.876 C42.029,29.876 43.174,30.671 43.612,31.851 L43.691,32.09 C43.764,32.355 43.804,32.633 43.804,32.912 L43.804,46.943 C43.804,48.282 42.718,49.369 41.38,49.369 L35.957,49.369 C34.625,49.369 33.54,48.282 33.54,46.943 L33.54,32.912 C33.54,31.235 34.897,29.876 36.572,29.876 Z" id="形状" fill="url(#linearGradient-4)" fill-rule="nonzero"></path>
            <path d="M51.498,51.3630247 L46.075,51.3630247 C44.744,51.369 43.658,50.282 43.658,48.944 L43.658,27.157 C43.658,25.48 45.015,24.121 46.691,24.121 L50.889,24.121 C52.14,24.121 53.246,24.87 53.71,26.03 C53.743,26.109 53.769,26.196 53.796,26.282 C53.882,26.567 53.922,26.858 53.922,27.15 L53.922,48.937 C53.922,50.276 52.836,51.3630247 51.498,51.3630247 Z M51.491,10.228 L49.637,17.142 C49.538,17.513 49.22,17.659 48.982,17.672 C48.962,17.678 48.949,17.685 48.935,17.685 C48.803,17.685 48.604,17.645 48.432,17.473 L45.889,14.934 L39.248,21.516 L37.605,23.147 C37.32,23.432 36.936,23.591 36.533,23.591 L36.519,23.591 C36.188,23.591 35.844,23.465 35.579,23.253 L35.572,23.246 L35.486,23.173 L35.473,23.16 L35.201,22.888 L31.155,18.805 C31.129,18.779 31.096,18.765 31.063,18.765 C31.03,18.765 30.997,18.779 30.97,18.805 L22.203,27.435 C21.918,27.72 21.534,27.873 21.136,27.873 C20.726,27.873 20.342,27.713 20.057,27.422 C19.772,27.13 19.613,26.752 19.6197782,26.348 C19.6197782,25.944 19.786,25.566 20.07,25.281 L30.016,15.478 C30.301,15.193 30.679,15.04 31.083,15.04 C31.493,15.04 31.877,15.2 32.162,15.491 L35.639,19.004 L36.46,19.833 C36.486,19.859 36.519,19.872 36.552,19.872 C36.585,19.872 36.619,19.859 36.645,19.833 L37.122,19.349 L43.741,12.789 L43.048,12.098 L41.453,10.507 C41.267,10.321 41.201,10.063 41.267,9.811 C41.333,9.559 41.525,9.367 41.777,9.3 L51.306,6.749 C51.372,6.729 51.438,6.722 51.498,6.722 C51.717,6.722 51.935,6.828 52.068,7.007 C52.147,7.113 52.266,7.332 52.187,7.63 L51.491,10.228 Z M22.454,29.092 L26.653,29.092 C27.931,29.092 29.083,29.901 29.513,31.107 C29.526,31.147 29.54,31.187 29.553,31.233 C29.639,31.518 29.685,31.823 29.685,32.128 L29.685,48.944 C29.685,50.282 28.599,51.369 27.262,51.369 L21.845,51.369 L21.845,51.369 C21.792,51.369 21.739,51.369 21.686,51.363 C21.607,51.356 21.527,51.35 21.448,51.336 C20.276,51.144 19.421,50.137 19.421,48.944 L19.421,32.128 C19.421,30.451 20.779,29.092 22.454,29.092 Z M34.572,31.876 L38.771,31.876 C40.029,31.876 41.174,32.671 41.612,33.851 L41.691,34.09 C41.764,34.355 41.804,34.633 41.804,34.912 L41.804,48.944 C41.804,50.282 40.718,51.369 39.38,51.369 L33.957,51.369 C32.626,51.369 31.54,50.282 31.54,48.944 L31.539,48.944 L31.539,34.912 C31.539,33.235 32.897,31.876 34.572,31.876 Z" id="形状" fill="url(#linearGradient-5)" fill-rule="nonzero"></path>
        </g>
    </g>
</svg>