<?xml version="1.0" encoding="UTF-8"?>
<svg width="76px" height="70px" viewBox="0 0 76 70" version="1.1" xmlns="http://www.w3.org/2000/svg" xmlns:xlink="http://www.w3.org/1999/xlink">
    <title>icon_gjjck</title>
    <defs>
        <linearGradient x1="0%" y1="71.2638942%" x2="100%" y2="33.4261557%" id="linearGradient-1">
            <stop stop-color="#0E1C33" offset="0%"></stop>
            <stop stop-color="#8FDFFE" offset="100%"></stop>
        </linearGradient>
        <linearGradient x1="100%" y1="59.6412731%" x2="0%" y2="38.7530475%" id="linearGradient-2">
            <stop stop-color="#0E1C33" offset="0%"></stop>
            <stop stop-color="#8FDFFE" offset="100%"></stop>
        </linearGradient>
        <linearGradient x1="0%" y1="0%" x2="0%" y2="100%" id="linearGradient-3">
            <stop stop-color="#1DB4FF" stop-opacity="0" offset="0%"></stop>
            <stop stop-color="#1DB4FF" offset="100%"></stop>
        </linearGradient>
        <linearGradient x1="0%" y1="0%" x2="0%" y2="100%" id="linearGradient-4">
            <stop stop-color="#0E1C33" offset="0%"></stop>
            <stop stop-color="#1DB4FF" offset="100%"></stop>
        </linearGradient>
        <linearGradient x1="0%" y1="0%" x2="0%" y2="100%" id="linearGradient-5">
            <stop stop-color="#0060FF" offset="0%"></stop>
            <stop stop-color="#8FDFFE" offset="100%"></stop>
        </linearGradient>
    </defs>
    <g id="图标" stroke="none" stroke-width="1" fill="none" fill-rule="evenodd">
        <g id="icon_gjjck">
            <polygon id="路径" fill="url(#linearGradient-1)" points="0 45.06784 38 59.43184 38 69.8489067 0 55.4838933"></polygon>
            <polygon id="路径" fill="url(#linearGradient-2)" points="38 59.4906133 76 45.01008 76 55.4261333 38 69.9066667"></polygon>
            <polygon id="路径" fill="#142747" points="0.0314133333 45.46304 38 31.4405333 75.9675733 45.46304 38 59.48656"></polygon>
            <polygon id="路径" fill="url(#linearGradient-3)" opacity="0.4" points="0 0.29216 76 0.29216 76 45.6972051 38.4086682 60.29216 0 45.6972051"></polygon>
            <g id="编组" transform="translate(14.000000, 0.000000)" fill-rule="nonzero">
                <path d="M47.299,20.951 L26.928,0.846 C26.477,0.395 25.936,0.125 25.395,0.125 C24.854,0.125 24.314,0.305 23.863,0.756 L3.402,20.951 C2.049,22.214 3.041,24.558 4.934,24.558 L8.359,24.558 C9.531,24.558 9.621,25.459 9.621,26.631 L9.621,39.885 C9.621,41.057 11.334,41.958 12.505,41.958 L38.826,41.958 C39.998,41.958 41.71,41.057 41.71,39.885 L41.71,26.631 C41.71,25.459 41.891,24.558 42.972,24.558 L45.676,24.558 C47.75,24.558 48.741,22.214 47.299,20.951 Z M31.705,30.328 C32.967,30.328 33.598,31.049 33.598,31.861 C33.598,32.672 32.967,33.483 31.705,33.483 L27.018,33.483 L27.018,33.754 C27.018,35.557 26.387,36.008 25.215,36.008 C23.953,36.008 23.412,35.557 23.412,33.754 L23.412,33.483 L18.815,33.483 C17.553,33.483 16.922,32.672 16.922,31.861 C17.012,30.959 17.643,30.238 18.905,30.238 L18.905,30.238 L23.502,30.238 L23.502,28.344 L18.905,28.344 C17.643,28.344 17.012,27.533 17.012,26.722 C17.012,25.91 17.643,25.189 18.905,25.189 L22.24,25.189 L18.184,18.878 C17.824,18.337 17.643,17.976 17.553,17.796 C17.463,17.616 17.373,17.345 17.373,17.075 C17.373,16.624 17.553,16.263 17.824,15.993 C18.094,15.722 18.455,15.542 18.905,15.542 C19.356,15.542 19.717,15.722 19.987,15.993 C20.257,16.263 20.618,16.714 20.979,17.345 L25.305,24.107 L29.181,17.706 C29.361,17.435 29.452,17.165 29.632,16.894 C29.812,16.624 29.992,16.353 30.082,16.173 C30.263,15.993 30.443,15.812 30.623,15.722 C30.894,15.632 31.164,15.542 31.435,15.542 C31.885,15.542 32.246,15.722 32.516,15.993 C32.787,16.263 32.967,16.624 32.967,16.985 C32.967,17.255 32.877,17.616 32.787,17.886 C32.697,18.157 32.516,18.427 32.246,18.878 L28.37,25.279 L31.705,25.279 C32.967,25.279 33.598,26 33.598,26.812 C33.598,27.623 32.967,28.435 31.705,28.435 L27.018,28.435 L27.018,30.328 L31.705,30.328 Z" id="形状" fill="url(#linearGradient-4)"></path>
                <path d="M45.299,22.952 L24.928,2.846 C24.477,2.395 23.936,2.125 23.395,2.125 C22.854,2.125 22.314,2.305 21.863,2.756 L1.402,22.952 C0.049,24.214 1.041,26.558 2.934,26.558 L6.359,26.558 C7.531,26.558 7.621,27.459 7.621,28.631 L7.621,41.885 C7.621,43.057 9.334,43.958 10.505,43.958 L36.826,43.958 C37.998,43.958 39.71,43.057 39.71,41.885 L39.71,28.631 C39.71,27.459 39.891,26.558 40.972,26.558 L43.676,26.558 C45.75,26.558 46.741,24.214 45.299,22.952 Z M29.705,32.328 C30.967,32.328 31.598,33.049 31.598,33.861 C31.598,34.672 30.967,35.483 29.705,35.483 L25.018,35.483 L25.018,35.754 C25.018,37.557 24.387,38.008 23.215,38.008 C21.953,38.008 21.412,37.557 21.412,35.754 L21.412,35.483 L16.815,35.483 C15.553,35.483 14.922,34.672 14.922,33.861 C15.012,32.959 15.643,32.238 16.905,32.238 L16.905,32.238 L21.502,32.238 L21.502,30.344 L16.905,30.344 C15.643,30.344 15.012,29.533 15.012,28.722 C15.012,27.91 15.643,27.189 16.905,27.189 L20.24,27.189 L16.184,20.878 C15.824,20.337 15.643,19.976 15.553,19.796 C15.463,19.616 15.373,19.345 15.373,19.075 C15.373,18.624 15.553,18.263 15.824,17.993 C16.094,17.722 16.455,17.542 16.905,17.542 C17.356,17.542 17.717,17.722 17.987,17.993 C18.257,18.263 18.618,18.714 18.979,19.345 L23.305,26.107 L27.181,19.706 C27.361,19.435 27.452,19.165 27.632,18.894 C27.812,18.624 27.992,18.353 28.082,18.173 C28.263,17.993 28.443,17.812 28.623,17.722 C28.894,17.632 29.164,17.542 29.435,17.542 C29.885,17.542 30.246,17.722 30.516,17.993 C30.787,18.263 30.967,18.624 30.967,18.985 C30.967,19.255 30.877,19.616 30.787,19.886 C30.697,20.157 30.516,20.427 30.246,20.878 L26.37,27.279 L29.705,27.279 C30.967,27.279 31.598,28 31.598,28.812 C31.598,29.623 30.967,30.435 29.705,30.435 L25.018,30.435 L25.018,32.328 L29.705,32.328 Z" id="形状" fill="url(#linearGradient-5)"></path>
            </g>
        </g>
    </g>
</svg>