<?xml version="1.0" encoding="UTF-8"?>
<svg width="76px" height="76px" viewBox="0 0 76 76" version="1.1" xmlns="http://www.w3.org/2000/svg" xmlns:xlink="http://www.w3.org/1999/xlink">
    <title>icon_zjld_gjjck</title>
    <defs>
        <linearGradient x1="0%" y1="25.7932301%" x2="97.03%" y2="3.10219725%" id="linearGradient-1">
            <stop stop-color="#0E1C33" offset="0%"></stop>
            <stop stop-color="#8FDFFE" offset="100%"></stop>
        </linearGradient>
        <linearGradient x1="52.992%" y1="82.343313%" x2="0%" y2="3.53639856%" id="linearGradient-2">
            <stop stop-color="#0E1C33" offset="0%"></stop>
            <stop stop-color="#8FDFFE" offset="100%"></stop>
        </linearGradient>
        <linearGradient x1="0%" y1="0%" x2="0%" y2="100%" id="linearGradient-3">
            <stop stop-color="#1DB4FF" stop-opacity="0" offset="0%"></stop>
            <stop stop-color="#1DB4FF" stop-opacity="0.29" offset="29%"></stop>
            <stop stop-color="#1DB4FF" offset="100%"></stop>
        </linearGradient>
        <linearGradient x1="0%" y1="0%" x2="0%" y2="100%" id="linearGradient-4">
            <stop stop-color="#0E1C33" offset="0%"></stop>
            <stop stop-color="#1DB4FF" offset="100%"></stop>
        </linearGradient>
        <linearGradient x1="0%" y1="0%" x2="0%" y2="100%" id="linearGradient-5">
            <stop stop-color="#0060FF" offset="0%"></stop>
            <stop stop-color="#8FDFFE" offset="100%"></stop>
        </linearGradient>
    </defs>
    <g id="页面-1" stroke="none" stroke-width="1" fill="none" fill-rule="evenodd">
        <g id="icon_zjld_gjjck">
            <polygon id="路径" fill="url(#linearGradient-1)" points="0 52 38 65.9112656 38 76 0 62.087753"></polygon>
            <polygon id="路径" fill="url(#linearGradient-2)" points="38 65.9590541 76 52 76 62.0409459 38 76"></polygon>
            <polygon id="路径" fill="#142747" points="0.031 52 37.5 39.04 76 52 38.064 66.717"></polygon>
            <polygon id="路径" fill="url(#linearGradient-3)" opacity="0.4" points="0 0.454 76 3.79439934e-14 76 52 38.064 66.717 0.031 52"></polygon>
            <path d="M61.299,28.951 L40.928,8.846 C40.477,8.395 39.936,8.125 39.395,8.125 C38.854,8.125 38.314,8.305 37.863,8.756 L17.402,28.951 C16.049,30.214 17.041,32.558 18.934,32.558 L22.359,32.558 C23.531,32.558 23.621,33.459 23.621,34.631 L23.621,47.885 C23.621,49.057 25.334,49.958 26.505,49.958 L52.826,49.958 C53.998,49.958 55.71,49.057 55.71,47.885 L55.71,34.631 C55.71,33.459 55.891,32.558 56.972,32.558 L59.676,32.558 C61.75,32.558 62.741,30.214 61.299,28.951 Z M45.705,38.328 C46.967,38.328 47.598,39.049 47.598,39.861 C47.598,40.672 46.967,41.483 45.705,41.483 L41.018,41.483 L41.018,41.754 C41.018,43.557 40.387,44.008 39.215,44.008 C37.953,44.008 37.412,43.557 37.412,41.754 L37.412,41.483 L32.815,41.483 C31.553,41.483 30.922,40.672 30.922,39.861 C31.012,38.959 31.643,38.238 32.905,38.238 L32.905,38.238 L37.502,38.238 L37.502,36.344 L32.905,36.344 C31.643,36.344 31.012,35.533 31.012,34.722 C31.012,33.91 31.643,33.189 32.905,33.189 L36.24,33.189 L32.184,26.878 C31.824,26.337 31.643,25.976 31.553,25.796 C31.463,25.616 31.373,25.345 31.373,25.075 C31.373,24.624 31.553,24.263 31.824,23.993 C32.094,23.722 32.455,23.542 32.905,23.542 C33.356,23.542 33.717,23.722 33.987,23.993 C34.257,24.263 34.618,24.714 34.979,25.345 L39.305,32.107 L43.181,25.706 C43.361,25.435 43.452,25.165 43.632,24.894 C43.812,24.624 43.992,24.353 44.082,24.173 C44.263,23.993 44.443,23.812 44.623,23.722 C44.894,23.632 45.164,23.542 45.435,23.542 C45.885,23.542 46.246,23.722 46.516,23.993 C46.787,24.263 46.967,24.624 46.967,24.985 C46.967,25.255 46.877,25.616 46.787,25.886 C46.697,26.157 46.516,26.427 46.246,26.878 L42.37,33.279 L45.705,33.279 C46.967,33.279 47.598,34 47.598,34.812 C47.598,35.623 46.967,36.435 45.705,36.435 L41.018,36.435 L41.018,38.328 L45.705,38.328 Z" id="形状" fill="url(#linearGradient-4)" fill-rule="nonzero"></path>
            <path d="M59.299,30.952 L38.928,10.846 C38.477,10.395 37.936,10.125 37.395,10.125 C36.854,10.125 36.314,10.305 35.863,10.756 L15.402,30.952 C14.049,32.214 15.041,34.558 16.934,34.558 L20.359,34.558 C21.531,34.558 21.621,35.459 21.621,36.631 L21.621,49.885 C21.621,51.057 23.334,51.958 24.505,51.958 L50.826,51.958 C51.998,51.958 53.71,51.057 53.71,49.885 L53.71,36.631 C53.71,35.459 53.891,34.558 54.972,34.558 L57.676,34.558 C59.75,34.558 60.741,32.214 59.299,30.952 Z M43.705,40.328 C44.967,40.328 45.598,41.049 45.598,41.861 C45.598,42.672 44.967,43.483 43.705,43.483 L39.018,43.483 L39.018,43.754 C39.018,45.557 38.387,46.008 37.215,46.008 C35.953,46.008 35.412,45.557 35.412,43.754 L35.412,43.483 L30.815,43.483 C29.553,43.483 28.922,42.672 28.922,41.861 C29.012,40.959 29.643,40.238 30.905,40.238 L30.905,40.238 L35.502,40.238 L35.502,38.344 L30.905,38.344 C29.643,38.344 29.012,37.533 29.012,36.722 C29.012,35.91 29.643,35.189 30.905,35.189 L34.24,35.189 L30.184,28.878 C29.824,28.337 29.643,27.976 29.553,27.796 C29.463,27.616 29.373,27.345 29.373,27.075 C29.373,26.624 29.553,26.263 29.824,25.993 C30.094,25.722 30.455,25.542 30.905,25.542 C31.356,25.542 31.717,25.722 31.987,25.993 C32.257,26.263 32.618,26.714 32.979,27.345 L37.305,34.107 L41.181,27.706 C41.361,27.435 41.452,27.165 41.632,26.894 C41.812,26.624 41.992,26.353 42.082,26.173 C42.263,25.993 42.443,25.812 42.623,25.722 C42.894,25.632 43.164,25.542 43.435,25.542 C43.885,25.542 44.246,25.722 44.516,25.993 C44.787,26.263 44.967,26.624 44.967,26.985 C44.967,27.255 44.877,27.616 44.787,27.886 C44.697,28.157 44.516,28.427 44.246,28.878 L40.37,35.279 L43.705,35.279 C44.967,35.279 45.598,36 45.598,36.812 C45.598,37.623 44.967,38.435 43.705,38.435 L39.018,38.435 L39.018,40.328 L43.705,40.328 Z" id="形状" fill="url(#linearGradient-5)" fill-rule="nonzero"></path>
        </g>
    </g>
</svg>