<?xml version="1.0" encoding="UTF-8"?>
<svg width="76px" height="76px" viewBox="0 0 76 76" version="1.1" xmlns="http://www.w3.org/2000/svg" xmlns:xlink="http://www.w3.org/1999/xlink">
    <title>icon_zjld_ckze</title>
    <defs>
        <linearGradient x1="0%" y1="25.7932301%" x2="97.03%" y2="3.10219725%" id="linearGradient-1">
            <stop stop-color="#0E1C33" offset="0%"></stop>
            <stop stop-color="#8FDFFE" offset="100%"></stop>
        </linearGradient>
        <linearGradient x1="52.992%" y1="82.343313%" x2="0%" y2="3.53639856%" id="linearGradient-2">
            <stop stop-color="#0E1C33" offset="0%"></stop>
            <stop stop-color="#8FDFFE" offset="100%"></stop>
        </linearGradient>
        <linearGradient x1="0%" y1="0%" x2="0%" y2="100%" id="linearGradient-3">
            <stop stop-color="#1DB4FF" stop-opacity="0" offset="0%"></stop>
            <stop stop-color="#1DB4FF" stop-opacity="0.29" offset="29%"></stop>
            <stop stop-color="#1DB4FF" offset="100%"></stop>
        </linearGradient>
        <linearGradient x1="0%" y1="0%" x2="0%" y2="100%" id="linearGradient-4">
            <stop stop-color="#0E1C33" offset="0%"></stop>
            <stop stop-color="#1DB4FF" offset="100%"></stop>
        </linearGradient>
        <linearGradient x1="0%" y1="0%" x2="0%" y2="100%" id="linearGradient-5">
            <stop stop-color="#0060FF" offset="0%"></stop>
            <stop stop-color="#8FDFFE" offset="100%"></stop>
        </linearGradient>
    </defs>
    <g id="页面-1" stroke="none" stroke-width="1" fill="none" fill-rule="evenodd">
        <g id="icon_zjld_ckze">
            <polygon id="路径" fill="url(#linearGradient-1)" points="0 52 38 65.9112656 38 76 0 62.087753"></polygon>
            <polygon id="路径" fill="url(#linearGradient-2)" points="38 65.9590541 76 52 76 62.0409459 38 76"></polygon>
            <polygon id="路径" fill="#142747" points="0.031 52 37.5 39.04 76 52 38.064 66.717"></polygon>
            <polygon id="路径" fill="url(#linearGradient-3)" opacity="0.4" points="0 0.454 76 3.79439934e-14 76 52 38.064 66.717 0.031 52"></polygon>
            <path d="M34.744,39.631 L34.744,42.621 L44.971,42.621 L44.971,39.631 L42.304,39.631 L42.304,29.431 L44.971,29.431 L44.971,26.441 L34.744,26.441 L34.744,29.431 L37.271,29.431 L37.271,39.631 L34.744,39.631 Z M21.847,39.631 L21.847,42.621 L32.074,42.621 L32.074,39.631 L29.409,39.631 L29.409,29.431 L32.074,29.431 L32.074,26.441 L21.847,26.441 L21.847,29.431 L24.374,29.431 L24.374,39.631 L21.847,39.631 Z M57.785,43.976 L21.78,43.976 L21.78,46.602 L20.089,46.602 L20.089,49.157 L60.039,49.157 L60.039,46.602 L57.785,46.602 L57.785,43.976 Z M61.989,23.825 L39.784,9.454 L17.574,23.825 L20.089,23.825 L20.089,23.803 L25.245,23.803 L25.245,23.908 L54.886,23.908 L54.886,23.803 L60.042,23.803 L60.042,23.825 L61.989,23.825 Z M39.796,22.327 C37.775,22.327 36.143,20.654 36.143,18.593 C36.143,16.532 37.775,14.858 39.796,14.858 C41.812,14.858 43.444,16.532 43.444,18.593 C43.444,20.654 41.812,22.327 39.796,22.327 Z M47.643,39.631 L47.643,42.621 L57.871,42.621 L57.871,39.631 L55.203,39.631 L55.203,29.431 L57.871,29.431 L57.871,26.441 L47.643,26.441 L47.643,29.431 L50.166,29.431 L50.166,39.631 L47.643,39.631 Z" id="形状" fill="url(#linearGradient-4)" fill-rule="nonzero"></path>
            <path d="M32.744,41.631 L32.744,44.621 L42.971,44.621 L42.971,41.631 L40.304,41.631 L40.304,31.431 L42.971,31.431 L42.971,28.441 L32.744,28.441 L32.744,31.431 L35.271,31.431 L35.271,41.631 L32.744,41.631 Z M19.847,41.631 L19.847,44.621 L30.074,44.621 L30.074,41.631 L27.409,41.631 L27.409,31.431 L30.074,31.431 L30.074,28.441 L19.847,28.441 L19.847,31.431 L22.374,31.431 L22.374,41.631 L19.847,41.631 Z M55.785,45.976 L19.781,45.976 L19.781,48.602 L18.089,48.602 L18.089,51.157 L58.039,51.157 L58.039,48.602 L55.785,48.602 L55.785,45.976 Z M59.989,25.825 L37.784,11.454 L15.574,25.825 L18.089,25.825 L18.089,25.803 L23.245,25.803 L23.245,25.908 L52.886,25.908 L52.886,25.803 L58.042,25.803 L58.042,25.825 L59.989,25.825 Z M37.796,24.327 C35.775,24.327 34.143,22.654 34.143,20.593 C34.143,18.532 35.775,16.858 37.796,16.858 C39.812,16.858 41.444,18.532 41.444,20.593 C41.444,22.654 39.812,24.327 37.796,24.327 Z M45.643,41.631 L45.643,44.621 L55.871,44.621 L55.871,41.631 L53.203,41.631 L53.203,31.431 L55.871,31.431 L55.871,28.441 L45.643,28.441 L45.643,31.431 L48.166,31.431 L48.166,41.631 L45.643,41.631 Z" id="形状" fill="url(#linearGradient-5)" fill-rule="nonzero"></path>
        </g>
    </g>
</svg>