<?xml version="1.0" encoding="UTF-8"?>
<svg width="477px" height="302px" viewBox="0 0 477 302" version="1.1" xmlns="http://www.w3.org/2000/svg" xmlns:xlink="http://www.w3.org/1999/xlink">
    <title>zjld_kuang_zuo3</title>
    <defs>
        <linearGradient x1="0%" y1="0%" x2="100%" y2="0%" id="linearGradient-1">
            <stop stop-color="#030E6A" stop-opacity="0.8" offset="0%"></stop>
            <stop stop-color="#030E6A" stop-opacity="0" offset="100%"></stop>
        </linearGradient>
        <linearGradient x1="50%" y1="0%" x2="50%" y2="100%" id="linearGradient-2">
            <stop stop-color="#031270" offset="0%"></stop>
            <stop stop-color="#031270" stop-opacity="0.584380463" offset="40.8134834%"></stop>
            <stop stop-color="#031270" offset="100%"></stop>
        </linearGradient>
        <linearGradient x1="19.6284089%" y1="29.9573215%" x2="28.9870627%" y2="70.0426785%" id="linearGradient-3">
            <stop stop-color="#2845FB" offset="0%"></stop>
            <stop stop-color="#2845FB" stop-opacity="0.0366586538" offset="22.8845276%"></stop>
            <stop stop-color="#2845FB" offset="50.2340994%"></stop>
            <stop stop-color="#2845FB" stop-opacity="0" offset="100%"></stop>
        </linearGradient>
        <linearGradient x1="100%" y1="72.4361727%" x2="0%" y2="72.4361727%" id="linearGradient-4">
            <stop stop-color="#0A54FF" stop-opacity="0" offset="0%"></stop>
            <stop stop-color="#0A54FF" offset="100%"></stop>
        </linearGradient>
        <linearGradient x1="0%" y1="0%" x2="100%" y2="0%" id="linearGradient-5">
            <stop stop-color="#4BAAE4" stop-opacity="0" offset="0%"></stop>
            <stop stop-color="#4BAAE4" offset="12.7349213%"></stop>
            <stop stop-color="#005174" stop-opacity="0" offset="100%"></stop>
        </linearGradient>
        <linearGradient x1="0%" y1="0%" x2="100%" y2="0%" id="linearGradient-6">
            <stop stop-color="#4BAAE4" stop-opacity="0" offset="0%"></stop>
            <stop stop-color="#4BAAE4" offset="12.7349213%"></stop>
            <stop stop-color="#005174" stop-opacity="0" offset="100%"></stop>
        </linearGradient>
        <linearGradient x1="0%" y1="0%" x2="99.939%" y2="3.49%" id="linearGradient-7">
            <stop stop-color="#00C0FF" offset="0%"></stop>
            <stop stop-color="#43F0FF" offset="49%"></stop>
            <stop stop-color="#00C0FF" offset="100%"></stop>
        </linearGradient>
    </defs>
    <g id="页面-1" stroke="none" stroke-width="1" fill="none" fill-rule="evenodd">
        <g id="zjld_kuang_zuo3">
            <polygon id="路径" fill="url(#linearGradient-1)" points="252 0 0 0 0 32 279 32"></polygon>
            <polygon id="路径" fill="url(#linearGradient-2)" opacity="0.302" points="253.13219 0.134990042 279.289771 31.5596718 477 31.0527092 477 302 0 302 0 0"></polygon>
            <path d="M0.5,0.500268707 L252.896823,0.635873617 L279.05501,32.2516072 L476.5,31.7422914 L476.5,301.503 L0.5,301.503 L0.5,0.500268707 Z" id="路径" stroke="url(#linearGradient-3)"></path>
            <polygon id="路径" fill="url(#linearGradient-4)" opacity="0.302" points="-5.68434189e-14 0 252.544 0 279.544 32 -5.68434189e-14 32"></polygon>
            <path d="M24.275,7.635 L29.784,7.635 C32.067,7.635 33.917,9.466 33.917,11.725 L25.644,23.901 C24.566,24.843 22.419,26.729 20.142,26.7240099 L14.632,26.7240099 C12.35,26.7240099 10.5,24.892 10.5,22.633 L18.765,10.362 C20.853,8.295 21.448,7.635 24.275,7.635 Z" id="路径" fill="#00D4E8"></path>
            <path d="M31.162,4.908 L36.672,4.908 C38.954,4.908 40.804,6.739 40.804,8.998 L32.531,21.174 C31.453,22.116 29.306,24.002 27.03,23.9970099 L21.52,23.9970099 C19.238,23.9970099 17.387,22.165 17.387,19.906 L25.652,7.635 C27.741,5.568 28.335,4.908 31.162,4.908 Z" id="路径" fill="#2845FB" opacity="0.502"></path>
            <polyline id="路径" stroke="url(#linearGradient-5)" points="430.5 26.5 297.5 26.5 283.5 10.5"></polyline>
            <polyline id="路径" stroke="url(#linearGradient-6)" opacity="0.4" points="434.709 19.479 301.01 19.479 288.5 4.5"></polyline>
            <polygon id="路径" fill="#1050D3" opacity="0.2" points="467.237 12.479 462.422 12.479 470.043 23.099 474.858 23.099"></polygon>
            <polygon id="路径" fill="#2563E1" opacity="0.502" points="457.002 12.479 452.187 12.479 459.807 23.099 464.622 23.099"></polygon>
            <polygon id="路径" fill="#4680F5" points="446.767 12.479 441.952 12.479 449.572 23.099 454.387 23.099"></polygon>
            <path d="M117.286,25.075 L117.286,22.765 L119.817,22.765 L119.817,16.56 C119.508,16.692 119.222,16.824 118.936,16.956 C118.606,16.318 117.99,15.35 117.44,14.8 C119.508,14.184 122.391,12.885 123.843,11.851 L125.669,13.149 C124.283,14.184 122.083,15.438 120.169,16.384 L134.867,16.384 L134.867,22.765 L137.353,22.765 L137.353,25.075 L117.286,25.075 Z M123.953,18.584 L122.127,18.584 L122.127,22.765 L123.953,22.765 L123.953,18.584 Z M128.178,18.584 L126.351,18.584 L126.351,22.765 L128.178,22.765 L128.178,18.584 Z M132.446,18.584 L130.576,18.584 L130.576,22.765 L132.446,22.765 L132.446,18.584 Z M129.058,13.656 L130.422,11.829 C132.534,12.555 135.659,13.766 137.265,14.602 L135.813,16.67 C134.295,15.812 131.236,14.492 129.058,13.656 Z M117.572,9.343 L122.765,9.343 C122.303,8.375 121.511,7.143 120.829,6.174 L123.051,5.206 C123.975,6.284 124.921,7.759 125.339,8.727 L124.151,9.343 L130.554,9.343 L129.344,8.925 C130.026,7.913 130.906,6.35 131.368,5.206 L134.031,5.998 C133.282,7.209 132.468,8.441 131.786,9.343 L137.067,9.343 L137.067,11.653 L117.572,11.653 L117.572,9.343 Z M113.967,25.691 C112.449,24.811 111.15,23.645 110.028,22.237 C108.862,23.689 107.41,24.877 105.672,25.845 C105.364,25.295 104.505,24.195 103.977,23.711 C105.892,22.787 107.366,21.577 108.554,20.014 C107.718,18.584 107.014,16.978 106.464,15.218 C106.112,15.79 105.716,16.318 105.32,16.802 C105.034,16.296 104.285,15.328 103.735,14.756 L103.735,25.801 L101.139,25.801 L101.139,20.124 C97.64,21.357 96.914,21.753 96.43,22.149 C96.254,21.511 95.814,20.322 95.418,19.75 C95.836,19.508 96.232,19.09 96.232,18.188 L96.232,7.583 L98.807,7.583 L98.807,18.32 L101.139,17.616 L101.139,5.558 L103.735,5.558 L103.735,14.228 C105.452,12.093 106.464,8.749 106.992,5.206 L109.654,5.646 C109.434,6.879 109.192,8.111 108.884,9.277 L115.595,9.277 L115.595,11.763 L114.275,11.763 C113.703,15.02 112.845,17.77 111.546,20.036 C112.713,21.511 114.099,22.699 115.749,23.535 C115.177,23.997 114.363,24.987 113.967,25.691 Z M111.679,11.763 L108.092,11.763 C108.026,11.961 107.938,12.159 107.872,12.357 C108.378,14.25 109.082,16.054 109.962,17.638 C110.776,15.966 111.326,14.008 111.679,11.763 Z M78.743,23.139 L80.635,23.139 L80.635,10.949 L84.442,10.949 C84.53,10.487 84.618,9.981 84.706,9.453 L79.711,9.453 L79.711,7.209 L85.014,7.209 C85.08,6.504 85.146,5.866 85.19,5.25 L87.962,5.338 C87.874,5.954 87.742,6.571 87.632,7.209 L93.045,7.209 L93.045,9.453 L87.17,9.453 C87.038,10.003 86.928,10.487 86.796,10.949 L91.879,10.949 L91.879,23.139 L93.551,23.139 L93.551,25.339 L78.743,25.339 L78.743,23.139 Z M82.946,23.139 L89.458,23.139 L89.458,21.907 L82.946,21.907 L82.946,23.139 Z M82.946,20.102 L89.458,20.102 L89.458,18.848 L82.946,18.848 L82.946,20.102 Z M82.946,17.088 L89.458,17.088 L89.458,15.878 L82.946,15.878 L82.946,17.088 Z M82.946,14.074 L89.458,14.074 L89.458,12.863 L82.946,12.863 L82.946,14.074 Z M77.819,25.735 L75.398,25.735 L75.398,14.756 C75.002,15.262 74.584,15.768 74.188,16.23 C73.968,15.592 73.264,14.162 72.824,13.502 C74.716,11.499 76.521,8.397 77.577,5.272 L79.931,6.064 C79.381,7.671 78.633,9.299 77.819,10.861 L77.819,25.735 Z M58.459,8.375 L61.078,8.375 C60.748,7.671 60.219,6.769 59.713,6.064 L61.958,5.162 C62.552,5.91 63.212,6.989 63.52,7.671 L62.024,8.375 L65.456,8.375 C66.028,7.429 66.71,6.13 67.062,5.14 L69.813,5.976 C69.241,6.813 68.647,7.649 68.097,8.375 L70.627,8.375 L70.627,15.988 L58.459,15.988 L58.459,8.375 Z M65.412,14.272 L68.427,14.272 L68.427,11.015 L68.427,10.069 L65.412,10.069 L65.412,14.272 Z M60.527,14.272 L63.52,14.272 L63.52,10.069 L60.527,10.069 L60.527,14.272 Z M60.703,10.905 L62.068,10.421 C62.662,11.367 63.212,12.599 63.366,13.458 L61.958,13.986 C61.804,13.171 61.276,11.873 60.703,10.905 Z M65.522,13.502 C65.984,12.665 66.534,11.367 66.82,10.465 L68.427,11.015 C67.833,12.049 67.238,13.215 66.732,13.964 L65.522,13.502 Z M57.645,18.21 L58.129,20.543 C55.995,21.423 53.706,22.347 51.836,23.117 L51,20.499 C51.682,20.3 52.474,20.036 53.376,19.728 L53.376,12.841 L51.374,12.841 L51.374,10.421 L53.376,10.421 L53.376,5.492 L55.797,5.492 L55.797,10.421 L57.733,10.421 L57.733,12.841 L55.797,12.841 L55.797,18.87 L57.645,18.21 Z M69.703,25.757 L67.238,25.757 L67.238,24.701 L61.87,24.701 L61.87,25.757 L59.493,25.757 L59.493,16.912 L69.703,16.912 L69.703,25.757 Z M67.238,18.804 L61.87,18.804 L61.87,19.992 L67.238,19.992 L67.238,18.804 Z M67.238,21.797 L61.87,21.797 L61.87,22.809 L67.238,22.809 L67.238,21.797 Z" id="形状" fill="url(#linearGradient-7)" fill-rule="nonzero"></path>
        </g>
    </g>
</svg>