<?xml version="1.0" encoding="UTF-8"?>
<svg width="878px" height="302px" viewBox="0 0 878 302" version="1.1" xmlns="http://www.w3.org/2000/svg" xmlns:xlink="http://www.w3.org/1999/xlink">
    <title>zjld_kuang_zhongxia</title>
    <defs>
        <linearGradient x1="0%" y1="0%" x2="100%" y2="0%" id="linearGradient-1">
            <stop stop-color="#030E6A" stop-opacity="0.8" offset="0%"></stop>
            <stop stop-color="#030E6A" stop-opacity="0" offset="100%"></stop>
        </linearGradient>
        <linearGradient x1="50%" y1="0%" x2="50%" y2="100%" id="linearGradient-2">
            <stop stop-color="#031270" offset="0%"></stop>
            <stop stop-color="#031270" stop-opacity="0.584380463" offset="40.8134834%"></stop>
            <stop stop-color="#031270" offset="100%"></stop>
        </linearGradient>
        <linearGradient x1="19.6284089%" y1="44.0843362%" x2="28.9870627%" y2="55.9156638%" id="linearGradient-3">
            <stop stop-color="#2845FB" offset="0%"></stop>
            <stop stop-color="#2845FB" stop-opacity="0.0366586538" offset="22.8845276%"></stop>
            <stop stop-color="#2845FB" offset="50.2340994%"></stop>
            <stop stop-color="#2845FB" stop-opacity="0" offset="100%"></stop>
        </linearGradient>
        <linearGradient x1="100%" y1="72.4361727%" x2="0%" y2="72.4361727%" id="linearGradient-4">
            <stop stop-color="#0A54FF" stop-opacity="0" offset="0%"></stop>
            <stop stop-color="#0A54FF" offset="100%"></stop>
        </linearGradient>
        <linearGradient x1="0%" y1="0%" x2="100%" y2="0%" id="linearGradient-5">
            <stop stop-color="#4BAAE4" stop-opacity="0" offset="0%"></stop>
            <stop stop-color="#4BAAE4" offset="12.7349213%"></stop>
            <stop stop-color="#005174" stop-opacity="0" offset="100%"></stop>
        </linearGradient>
        <linearGradient x1="0%" y1="0%" x2="100%" y2="0%" id="linearGradient-6">
            <stop stop-color="#4BAAE4" stop-opacity="0" offset="0%"></stop>
            <stop stop-color="#4BAAE4" offset="12.7349213%"></stop>
            <stop stop-color="#005174" stop-opacity="0" offset="100%"></stop>
        </linearGradient>
        <linearGradient x1="0%" y1="-1.11022302e-14%" x2="99.939%" y2="3.49%" id="linearGradient-7">
            <stop stop-color="#00C0FF" offset="0%"></stop>
            <stop stop-color="#43F0FF" offset="49%"></stop>
            <stop stop-color="#00C0FF" offset="100%"></stop>
        </linearGradient>
        <circle id="path-8" cx="439" cy="145" r="103"></circle>
        <filter x="-13.1%" y="-13.1%" width="126.2%" height="126.2%" filterUnits="objectBoundingBox" id="filter-9">
            <feOffset dx="0" dy="0" in="SourceAlpha" result="shadowOffsetOuter1"></feOffset>
            <feGaussianBlur stdDeviation="9" in="shadowOffsetOuter1" result="shadowBlurOuter1"></feGaussianBlur>
            <feComposite in="shadowBlurOuter1" in2="SourceAlpha" operator="out" result="shadowBlurOuter1"></feComposite>
            <feColorMatrix values="0 0 0 0 0   0 0 0 0 0.435294118   0 0 0 0 1  0 0 0 1 0" type="matrix" in="shadowBlurOuter1"></feColorMatrix>
        </filter>
        <path d="M24,248 C80.8853292,248 127,201.885329 127,145 C127,88.1146708 80.8853292,42 24,42" id="path-10"></path>
        <filter x="-28.2%" y="-14.1%" width="156.3%" height="128.2%" filterUnits="objectBoundingBox" id="filter-11">
            <feMorphology radius="2" operator="dilate" in="SourceAlpha" result="shadowSpreadOuter1"></feMorphology>
            <feOffset dx="0" dy="0" in="shadowSpreadOuter1" result="shadowOffsetOuter1"></feOffset>
            <feMorphology radius="2" operator="erode" in="SourceAlpha" result="shadowInner"></feMorphology>
            <feOffset dx="0" dy="0" in="shadowInner" result="shadowInner"></feOffset>
            <feComposite in="shadowOffsetOuter1" in2="shadowInner" operator="out" result="shadowOffsetOuter1"></feComposite>
            <feGaussianBlur stdDeviation="9" in="shadowOffsetOuter1" result="shadowBlurOuter1"></feGaussianBlur>
            <feColorMatrix values="0 0 0 0 0   0 0 0 0 0.435294118   0 0 0 0 1  0 0 0 1 0" type="matrix" in="shadowBlurOuter1"></feColorMatrix>
        </filter>
        <path d="M751,248 C807.885329,248 854,201.885329 854,145 C854,88.1146708 807.885329,42 751,42" id="path-12"></path>
        <filter x="-28.2%" y="-14.1%" width="156.3%" height="128.2%" filterUnits="objectBoundingBox" id="filter-13">
            <feMorphology radius="2" operator="dilate" in="SourceAlpha" result="shadowSpreadOuter1"></feMorphology>
            <feOffset dx="0" dy="0" in="shadowSpreadOuter1" result="shadowOffsetOuter1"></feOffset>
            <feMorphology radius="2" operator="erode" in="SourceAlpha" result="shadowInner"></feMorphology>
            <feOffset dx="0" dy="0" in="shadowInner" result="shadowInner"></feOffset>
            <feComposite in="shadowOffsetOuter1" in2="shadowInner" operator="out" result="shadowOffsetOuter1"></feComposite>
            <feGaussianBlur stdDeviation="9" in="shadowOffsetOuter1" result="shadowBlurOuter1"></feGaussianBlur>
            <feColorMatrix values="0 0 0 0 0   0 0 0 0 0.435294118   0 0 0 0 1  0 0 0 1 0" type="matrix" in="shadowBlurOuter1"></feColorMatrix>
        </filter>
    </defs>
    <g id="页面-1" stroke="none" stroke-width="1" fill="none" fill-rule="evenodd">
        <g id="zjld_kuang_zhongxia">
            <polygon id="路径" fill="url(#linearGradient-1)" points="252 0 0 0 0 32 279 32"></polygon>
            <polygon id="路径" fill="url(#linearGradient-2)" opacity="0.302" points="253.13219 0.134990042 279.289771 31.5596718 878 31.0527092 878 302 0 302 0 0"></polygon>
            <path d="M0.5,0.500268707 L252.896823,0.635873617 L279.054674,32.2512004 L877.5,31.7414261 L877.5,301.503 L0.5,301.503 L0.5,0.500268707 Z" id="路径" stroke="url(#linearGradient-3)"></path>
            <polygon id="路径" fill="url(#linearGradient-4)" opacity="0.302" points="-5.68434189e-14 0 252.544 0 279.544 32 -5.68434189e-14 32"></polygon>
            <path d="M24.275,7.635 L29.784,7.635 C32.067,7.635 33.917,9.466 33.917,11.725 L25.644,23.901 C24.566,24.843 22.419,26.729 20.142,26.7240099 L14.632,26.7240099 C12.35,26.7240099 10.5,24.892 10.5,22.633 L18.765,10.362 C20.853,8.295 21.448,7.635 24.275,7.635 Z" id="路径" fill="#00D4E8"></path>
            <path d="M31.162,4.908 L36.672,4.908 C38.954,4.908 40.804,6.739 40.804,8.998 L32.531,21.174 C31.453,22.116 29.306,24.002 27.03,23.9970099 L21.52,23.9970099 C19.238,23.9970099 17.387,22.165 17.387,19.906 L25.652,7.635 C27.741,5.568 28.335,4.908 31.162,4.908 Z" id="路径" fill="#2845FB" opacity="0.502"></path>
            <polyline id="路径" stroke="url(#linearGradient-5)" points="831.5 26.5 297.5 26.5 283.5 10.5"></polyline>
            <polyline id="路径" stroke="url(#linearGradient-6)" opacity="0.4" points="835.709 19.479 301.01 19.479 288.5 4.5"></polyline>
            <polygon id="路径" fill="#1050D3" opacity="0.2" points="868.237 12.479 863.422 12.479 871.043 23.099 875.858 23.099"></polygon>
            <polygon id="路径" fill="#2563E1" opacity="0.502" points="858.002 12.479 853.187 12.479 860.807 23.099 865.622 23.099"></polygon>
            <polygon id="路径" fill="#4680F5" points="847.767 12.479 842.952 12.479 850.572 23.099 855.387 23.099"></polygon>
            <path d="M242.908,10.732 L246.913,10.732 L246.913,20.964 L244.669,20.964 L244.669,12.712 L240.092,12.712 L240.092,21.03 L237.936,21.03 L237.936,10.732 L240.708,10.732 C240.906,10.16 241.148,9.5 241.346,8.862 L237.76,8.862 L237.76,6.595 L247.595,6.595 L247.595,8.862 L243.678,8.862 C243.414,9.522 243.172,10.16 242.908,10.732 Z M237.188,12.184 C236.593,13.46 235.779,14.605 234.789,15.595 C235.977,16.211 237.122,16.805 237.914,17.289 L236.197,18.961 L236.439,18.961 L236.439,24.088 C241.082,22.504 241.236,19.687 241.346,13.526 L243.546,13.526 C243.436,20.523 242.996,24.11 237.496,26.024 C237.32,25.54 236.858,24.88 236.439,24.418 L236.439,25.694 L234.041,25.694 L234.041,25.166 L231.269,25.166 L231.269,25.738 L228.98,25.738 L228.98,19.357 C228.65,19.489 228.298,19.599 227.968,19.709 C227.858,19.005 227.396,17.751 227.066,17.245 C228.254,16.937 229.442,16.475 230.499,15.903 L229.354,15.309 L231.049,13.791 C231.533,14.011 232.061,14.275 232.589,14.539 C233.073,14.143 233.491,13.703 233.865,13.24 L230.917,13.24 C230.191,14.033 229.332,14.759 228.32,15.441 C227.99,14.913 227.33,14.099 226.868,13.769 C228.716,12.668 230.015,11.216 230.697,9.918 L232.985,10.336 C232.809,10.666 232.611,10.996 232.413,11.304 L235.053,11.304 L235.053,9.588 L229.662,9.588 L229.662,11.348 L227.418,11.348 L227.418,7.52 L231.357,7.52 C231.137,6.992 230.895,6.419 230.675,5.957 L233.161,5.451 C233.491,6.067 233.865,6.86 234.151,7.52 L237.408,7.52 L237.408,11.348 L235.933,11.348 L237.188,12.184 Z M231.269,23.142 L234.041,23.142 L234.041,20.986 L231.269,20.986 L231.269,23.142 Z M232.919,17.223 C231.973,17.883 230.961,18.477 229.905,18.961 L235.911,18.961 C235.185,18.477 234.085,17.839 232.919,17.223 Z M224.363,14.517 C223.197,13.989 222.097,13.438 220.952,12.778 L220.952,14.341 L216.794,14.341 L216.794,16.343 L224.319,16.343 L224.319,18.807 L216.794,18.807 L216.794,23.076 C216.794,24.396 216.508,25.056 215.606,25.474 C214.725,25.87 213.515,25.936 211.909,25.936 C211.755,25.188 211.249,24.088 210.853,23.406 C211.931,23.45 213.185,23.45 213.537,23.45 C213.889,23.428 214.021,23.34 214.021,23.032 L214.021,18.807 L206.738,18.807 L206.738,16.343 L214.021,16.343 L214.021,14.341 L209.665,14.341 L209.665,12.954 C208.609,13.592 207.552,14.187 206.518,14.693 C206.122,13.989 205.418,13.086 204.758,12.448 C208.587,10.886 212.899,8.246 215.32,5.143 L217.322,6.265 C217.19,6.419 217.058,6.573 216.926,6.728 C219.94,9.544 222.999,11.084 226.101,12.206 C225.463,12.778 224.715,13.703 224.363,14.517 Z M215.364,8.466 C214.065,9.742 212.635,10.93 211.095,11.986 L219.698,11.986 C218.268,11.04 216.86,9.918 215.364,8.466 Z M198.292,20.81 C197.654,22.614 196.576,24.418 194.838,25.98 C194.398,25.408 193.496,24.594 192.858,24.198 C196.488,21.074 196.818,16.893 196.818,14.165 L196.818,13.13 L199.304,13.13 L199.304,14.231 C199.304,14.847 199.282,15.529 199.238,16.277 C199.965,19.555 201.417,22.372 203.903,23.648 C203.331,24.154 202.539,25.166 202.165,25.87 C200.405,24.77 199.172,22.988 198.292,20.81 Z M199.987,15.309 C200.273,14.385 200.581,13.042 200.823,11.7 L196.554,11.7 C196.048,13.372 195.432,14.847 194.706,16.035 C194.354,15.705 193.65,15.133 193.056,14.737 L193.056,15.639 L184.1,15.639 L184.1,13.526 L193.056,13.526 L193.078,13.659 C194.222,11.546 194.904,8.488 195.234,5.407 L197.764,5.759 C197.61,6.97 197.412,8.18 197.17,9.324 L201.527,9.324 L201.901,9.214 L203.727,9.72 C203.287,11.876 202.671,14.363 202.099,15.969 L199.987,15.309 Z M189.799,10.38 L193.188,10.38 L193.188,12.492 L183.968,12.492 L183.968,10.38 L187.357,10.38 L187.357,9.258 L183.418,9.258 L183.418,7.124 L187.357,7.124 L187.357,5.517 L189.799,5.517 L189.799,7.124 L193.672,7.124 L193.672,9.258 L189.799,9.258 L189.799,10.38 Z M193.936,18.829 L189.821,18.829 L189.821,23.45 C189.821,24.528 189.667,25.144 188.941,25.496 C188.259,25.87 187.357,25.914 186.169,25.914 C186.081,25.21 185.75,24.286 185.464,23.648 C186.147,23.67 186.851,23.67 187.093,23.67 C187.313,23.67 187.379,23.604 187.379,23.406 L187.379,18.829 L183.132,18.829 L183.132,16.673 L193.936,16.673 L193.936,18.829 Z M186.653,19.731 C186.235,21.338 185.508,23.208 184.892,24.396 C184.408,24.11 183.44,23.692 182.89,23.516 C183.55,22.394 184.122,20.722 184.518,19.247 L186.653,19.731 Z M176.314,23.142 C176.314,24.462 176.094,25.144 175.148,25.54 C174.224,25.892 172.926,25.936 171.166,25.914 C171.078,25.166 170.769,24.154 170.439,23.406 C171.54,23.472 172.838,23.472 173.19,23.472 C173.564,23.45 173.674,23.362 173.674,23.076 L173.674,20.391 L168.085,20.391 L168.085,17.949 L173.674,17.949 L173.674,16.409 C174.356,15.991 175.082,15.397 175.764,14.781 L169.801,14.781 L169.801,12.426 L178.163,12.426 L178.713,12.272 L180.363,13.615 C179.241,14.803 177.767,16.101 176.314,17.113 L176.314,17.949 L181.529,17.949 L181.529,20.391 L176.314,20.391 L176.314,23.142 Z M166.809,15.221 L166.809,25.87 L164.169,25.87 L164.169,18.191 C163.508,18.785 162.848,19.313 162.1,19.819 C161.836,19.137 161.264,17.971 160.868,17.311 C163.244,15.749 165.159,13.35 166.501,10.71 L161.66,10.71 L161.66,8.202 L167.623,8.202 C167.975,7.234 168.283,6.287 168.525,5.341 L171.254,6.001 C171.034,6.75 170.769,7.454 170.505,8.202 L181.199,8.202 L181.199,10.71 L169.471,10.71 C168.723,12.294 167.843,13.813 166.809,15.221 Z M156.471,22.9 C156.471,24.308 156.185,25.012 155.194,25.386 C154.248,25.782 152.84,25.826 150.948,25.826 C150.838,25.056 150.486,23.956 150.134,23.23 C151.366,23.274 152.84,23.274 153.258,23.274 C153.654,23.274 153.786,23.186 153.786,22.856 L153.786,15.155 L147.317,15.155 L147.317,12.668 L159.485,12.668 L159.485,15.155 L156.471,15.155 L156.471,22.9 Z M148.241,6.617 L158.935,6.617 L158.935,9.104 L148.241,9.104 L148.241,6.617 Z M145.029,25.958 L142.411,25.958 L142.411,17.289 C141.772,17.905 141.156,18.477 140.54,18.961 C140.166,18.433 139.286,17.267 138.736,16.739 C141.002,15.177 143.423,12.624 144.875,10.116 L147.361,11.062 C146.701,12.184 145.909,13.306 145.029,14.385 L145.029,25.958 Z M139.066,10.05 C140.892,8.884 143.005,6.904 144.039,5.363 L146.569,6.375 C144.985,8.466 142.631,10.732 140.54,12.184 C140.188,11.612 139.506,10.578 139.066,10.05 Z M136.143,25.848 C133.018,24.044 131.346,20.656 130.378,16.321 L129.19,16.321 L129.19,22.526 L132.292,21.844 C132.27,22.592 132.314,23.67 132.402,24.242 C128.068,25.32 127.254,25.65 126.725,25.98 C126.549,25.408 125.999,24.374 125.625,23.934 C126.065,23.648 126.637,23.054 126.637,22.02 L126.637,6.243 L136.429,6.243 L136.429,16.321 L132.49,16.321 C132.754,17.201 133.018,18.037 133.392,18.807 C134.273,18.125 135.241,17.267 135.857,16.563 L137.485,18.411 C136.539,19.181 135.395,20.039 134.449,20.678 C135.329,21.91 136.451,22.922 137.815,23.582 C137.265,24.088 136.517,25.122 136.143,25.848 Z M134.009,8.488 L129.19,8.488 L129.19,10.204 L134.009,10.204 L134.009,8.488 Z M134.009,14.077 L134.009,12.316 L129.19,12.316 L129.19,14.077 L134.009,14.077 Z M125.493,20.744 C125.537,21.448 125.691,22.482 125.823,23.032 C121.643,25.078 120.873,25.518 120.433,25.936 C120.279,25.32 119.816,24.264 119.42,23.78 C119.883,23.538 120.455,23.032 120.455,22.086 L120.455,18.411 L117.814,18.411 L117.814,16.079 L120.455,16.079 L120.455,13.923 L119.112,13.923 L119.112,12.14 C118.848,12.448 118.584,12.734 118.298,12.976 C118.122,12.426 117.506,11.04 117.11,10.424 C118.408,9.214 119.574,7.366 120.213,5.429 L122.523,6.133 C122.347,6.573 122.171,7.058 121.951,7.52 L125.405,7.52 L125.405,10.006 L120.653,10.006 C120.323,10.578 119.971,11.084 119.574,11.59 L125.229,11.59 L125.229,13.923 L122.963,13.923 L122.963,16.079 L125.713,16.079 L125.713,18.411 L122.963,18.411 L122.963,21.888 L125.493,20.744 Z M110.754,23.164 L112.493,23.164 C113.109,23.164 113.197,22.504 113.307,19.731 C113.901,20.193 114.957,20.656 115.683,20.832 C115.419,24.396 114.781,25.65 112.735,25.65 L110.314,25.65 C108.048,25.65 107.432,24.792 107.432,21.998 L107.432,16.783 L103.647,17.377 L103.229,14.891 L107.432,14.275 L107.432,9.368 C106.288,9.566 105.122,9.742 103.999,9.874 C103.889,9.28 103.515,8.312 103.207,7.74 C106.442,7.278 110.028,6.463 112.141,5.561 L114.341,7.542 C113.043,8.048 111.59,8.444 110.05,8.818 L110.05,13.879 L115.221,13.108 L115.639,15.529 L110.05,16.409 L110.05,21.998 C110.05,23.01 110.138,23.164 110.754,23.164 Z M102.811,14.649 L103.119,17.047 C102.261,17.289 101.403,17.531 100.523,17.751 L100.523,22.966 C100.523,24.242 100.303,24.88 99.555,25.254 C98.829,25.672 97.772,25.738 96.21,25.738 C96.144,25.056 95.814,24.022 95.484,23.362 C96.364,23.384 97.266,23.384 97.552,23.384 C97.86,23.384 97.971,23.274 97.971,22.966 L97.971,18.411 L95.704,18.983 L95.022,16.497 C95.858,16.321 96.87,16.101 97.971,15.837 L97.971,11.964 L95.264,11.964 L95.264,9.544 L97.971,9.544 L97.971,5.385 L100.523,5.385 L100.523,9.544 L102.987,9.544 L102.987,11.964 L100.523,11.964 L100.523,15.221 C101.293,15.023 102.041,14.825 102.811,14.649 Z M92.055,16.607 C89.304,15.815 86.62,14.319 84.662,12.448 L84.662,15.661 L83.1,15.661 L83.694,15.815 C83.452,16.255 83.21,16.695 82.924,17.135 L93.441,17.135 L93.441,19.335 L88.952,19.335 C88.424,20.413 87.786,21.294 87.016,22.042 C89.37,22.658 91.483,23.296 93.133,23.846 L90.845,25.738 C89.26,25.122 87.104,24.44 84.64,23.736 C82.219,24.968 78.985,25.562 74.738,25.936 C74.562,25.166 74.144,24.242 73.726,23.648 C76.587,23.516 78.919,23.252 80.855,22.724 C79.381,22.372 77.841,22.02 76.301,21.69 L76.235,21.69 L76.191,21.668 L76.521,21.382 C77.071,20.766 77.665,20.083 78.237,19.335 L73.418,19.335 L73.418,17.135 L79.821,17.135 C80.283,16.453 80.701,15.793 81.009,15.133 L82.087,15.397 L82.087,12.404 C80.129,14.319 77.401,15.837 74.606,16.673 C74.276,16.079 73.572,15.133 73.044,14.649 C75.288,14.121 77.555,13.13 79.271,11.942 L73.638,11.942 L73.638,9.742 L82.087,9.742 L82.087,8.29 C79.931,8.422 77.775,8.488 75.772,8.488 C75.706,7.916 75.442,7.014 75.2,6.485 C80.195,6.419 86.048,6.067 89.348,5.385 L91.241,7.19 C89.348,7.586 87.06,7.894 84.662,8.114 L84.662,9.742 L93.089,9.742 L93.089,11.942 L87.522,11.942 C89.238,13.064 91.483,13.967 93.727,14.473 C93.155,14.957 92.407,15.969 92.055,16.607 Z M81.361,19.335 C81.075,19.731 80.789,20.105 80.481,20.457 C81.691,20.722 82.902,21.008 84.09,21.294 C84.86,20.766 85.498,20.127 85.982,19.335 L81.361,19.335 Z M70.275,18.345 C69.571,18.213 68.911,18.037 68.229,17.861 L68.229,25.87 L65.412,25.87 L65.412,25.144 L57.447,25.144 L57.447,25.958 L54.785,25.958 L54.785,17.839 C53.949,18.081 53.112,18.301 52.276,18.477 C52.012,17.773 51.462,16.717 51,16.123 C53.728,15.617 56.567,14.759 59.097,13.615 C58.151,12.91 57.271,12.14 56.457,11.304 C55.467,12.206 54.411,12.976 53.376,13.637 C52.958,13.108 51.99,12.118 51.44,11.678 C54.235,10.226 56.919,7.806 58.437,5.143 L60.924,6.001 C60.615,6.485 60.307,6.992 59.955,7.476 L66.93,7.476 L67.37,7.344 L69.263,8.554 C68.009,10.556 66.248,12.25 64.18,13.659 C66.512,14.693 69.175,15.463 71.969,15.903 C71.397,16.497 70.649,17.619 70.275,18.345 Z M57.447,22.834 L65.412,22.834 L65.412,20.083 L57.447,20.083 L57.447,22.834 Z M64.928,9.72 L58.195,9.72 C59.119,10.666 60.285,11.524 61.562,12.316 C62.86,11.524 64.004,10.688 64.928,9.72 Z M61.562,15.199 C59.603,16.255 57.447,17.069 55.269,17.707 L67.634,17.707 C65.456,17.069 63.41,16.255 61.562,15.199 Z M193.804,22.57 L191.757,23.428 C191.515,22.548 190.943,21.074 190.437,19.951 L192.373,19.203 C192.924,20.259 193.54,21.668 193.804,22.57 Z M212.261,20.457 C210.985,22.196 209.005,24.088 207.398,25.254 C206.936,24.77 205.99,23.89 205.418,23.494 C207.024,22.526 208.763,21.008 209.841,19.555 L212.261,20.457 Z M224.979,23.78 L222.625,25.232 C221.745,24.022 219.786,22.13 218.18,20.788 L220.38,19.511 C221.943,20.744 224.011,22.548 224.979,23.78 Z M247.969,24.066 L246.561,25.892 C245.747,24.99 243.987,23.604 242.666,22.636 L244.009,21.03 C245.307,21.91 247.111,23.23 247.969,24.066 Z" id="形状" fill="url(#linearGradient-7)" fill-rule="nonzero"></path>
            <g id="椭圆形" opacity="0.300000012">
                <use fill="black" fill-opacity="1" filter="url(#filter-9)" xlink:href="#path-8"></use>
                <use fill-opacity="0" fill="#D8D8D8" fill-rule="evenodd" xlink:href="#path-8"></use>
            </g>
            <g id="蒙版" opacity="0.300000012">
                <use fill="black" fill-opacity="1" filter="url(#filter-11)" xlink:href="#path-10"></use>
                <use stroke-opacity="0" stroke="#979797" stroke-width="4" xlink:href="#path-10"></use>
            </g>
            <g id="蒙版备份" opacity="0.300000012" transform="translate(802.500000, 145.000000) scale(-1, 1) translate(-802.500000, -145.000000) ">
                <use fill="black" fill-opacity="1" filter="url(#filter-13)" xlink:href="#path-12"></use>
                <use stroke-opacity="0" stroke="#979797" stroke-width="4" xlink:href="#path-12"></use>
            </g>
        </g>
    </g>
</svg>
