<?xml version="1.0" encoding="UTF-8"?>
<svg width="477px" height="302px" viewBox="0 0 477 302" version="1.1" xmlns="http://www.w3.org/2000/svg" xmlns:xlink="http://www.w3.org/1999/xlink">
    <title>zjld_kuang_you3</title>
    <defs>
        <linearGradient x1="0%" y1="0%" x2="100%" y2="0%" id="linearGradient-1">
            <stop stop-color="#030E6A" stop-opacity="0.8" offset="0%"></stop>
            <stop stop-color="#030E6A" stop-opacity="0" offset="100%"></stop>
        </linearGradient>
        <linearGradient x1="50%" y1="0%" x2="50%" y2="100%" id="linearGradient-2">
            <stop stop-color="#031270" offset="0%"></stop>
            <stop stop-color="#031270" stop-opacity="0.584380463" offset="40.8134834%"></stop>
            <stop stop-color="#031270" offset="100%"></stop>
        </linearGradient>
        <linearGradient x1="19.6284089%" y1="29.9573215%" x2="28.9870627%" y2="70.0426785%" id="linearGradient-3">
            <stop stop-color="#2845FB" offset="0%"></stop>
            <stop stop-color="#2845FB" stop-opacity="0.0366586538" offset="22.8845276%"></stop>
            <stop stop-color="#2845FB" offset="50.2340994%"></stop>
            <stop stop-color="#2845FB" stop-opacity="0" offset="100%"></stop>
        </linearGradient>
        <linearGradient x1="100%" y1="72.4361727%" x2="0%" y2="72.4361727%" id="linearGradient-4">
            <stop stop-color="#0A54FF" stop-opacity="0" offset="0%"></stop>
            <stop stop-color="#0A54FF" offset="100%"></stop>
        </linearGradient>
        <linearGradient x1="0%" y1="0%" x2="100%" y2="0%" id="linearGradient-5">
            <stop stop-color="#4BAAE4" stop-opacity="0" offset="0%"></stop>
            <stop stop-color="#4BAAE4" offset="12.7349213%"></stop>
            <stop stop-color="#005174" stop-opacity="0" offset="100%"></stop>
        </linearGradient>
        <linearGradient x1="0%" y1="0%" x2="100%" y2="0%" id="linearGradient-6">
            <stop stop-color="#4BAAE4" stop-opacity="0" offset="0%"></stop>
            <stop stop-color="#4BAAE4" offset="12.7349213%"></stop>
            <stop stop-color="#005174" stop-opacity="0" offset="100%"></stop>
        </linearGradient>
        <linearGradient x1="0%" y1="0%" x2="99.939%" y2="3.49%" id="linearGradient-7">
            <stop stop-color="#00C0FF" offset="0%"></stop>
            <stop stop-color="#43F0FF" offset="49%"></stop>
            <stop stop-color="#00C0FF" offset="100%"></stop>
        </linearGradient>
    </defs>
    <g id="页面-1" stroke="none" stroke-width="1" fill="none" fill-rule="evenodd">
        <g id="zjld_kuang_you3">
            <polygon id="路径" fill="url(#linearGradient-1)" points="252 0 0 0 0 32 279 32"></polygon>
            <polygon id="路径" fill="url(#linearGradient-2)" opacity="0.302" points="253.13219 0.134990042 279.289771 31.5596718 477 31.0527092 477 302 0 302 0 0"></polygon>
            <path d="M0.5,0.500268707 L252.896823,0.635873617 L279.05501,32.2516072 L476.5,31.7422914 L476.5,301.503 L0.5,301.503 L0.5,0.500268707 Z" id="路径" stroke="url(#linearGradient-3)"></path>
            <polygon id="路径" fill="url(#linearGradient-4)" opacity="0.302" points="-5.68434189e-14 0 252.544 0 279.544 32 -5.68434189e-14 32"></polygon>
            <path d="M24.275,7.635 L29.784,7.635 C32.067,7.635 33.917,9.466 33.917,11.725 L25.644,23.901 C24.566,24.843 22.419,26.729 20.142,26.7240099 L14.632,26.7240099 C12.35,26.7240099 10.5,24.892 10.5,22.633 L18.765,10.362 C20.853,8.295 21.448,7.635 24.275,7.635 Z" id="路径" fill="#00D4E8"></path>
            <path d="M31.162,4.908 L36.672,4.908 C38.954,4.908 40.804,6.739 40.804,8.998 L32.531,21.174 C31.453,22.116 29.306,24.002 27.03,23.9970099 L21.52,23.9970099 C19.238,23.9970099 17.387,22.165 17.387,19.906 L25.652,7.635 C27.741,5.568 28.335,4.908 31.162,4.908 Z" id="路径" fill="#2845FB" opacity="0.502"></path>
            <polyline id="路径" stroke="url(#linearGradient-5)" points="430.5 26.5 297.5 26.5 283.5 10.5"></polyline>
            <polyline id="路径" stroke="url(#linearGradient-6)" opacity="0.4" points="434.709 19.479 301.01 19.479 288.5 4.5"></polyline>
            <polygon id="路径" fill="#1050D3" opacity="0.2" points="467.237 12.479 462.422 12.479 470.043 23.099 474.858 23.099"></polygon>
            <polygon id="路径" fill="#2563E1" opacity="0.502" points="457.002 12.479 452.187 12.479 459.807 23.099 464.622 23.099"></polygon>
            <polygon id="路径" fill="#4680F5" points="446.767 12.479 441.952 12.479 449.572 23.099 454.387 23.099"></polygon>
            <path d="M291.277,12.756 L291.277,15.221 L288.439,15.221 L288.439,25.892 L285.842,25.892 L285.842,15.221 L282.96,15.221 C282.872,18.565 282.41,22.988 280.474,25.848 C279.989,25.452 278.911,24.792 278.295,24.55 C280.297,21.624 280.474,17.377 280.474,14.275 L280.474,7.784 C283.18,7.278 286.106,6.463 287.889,5.583 L290.089,7.652 C288.021,8.51 285.424,9.192 282.96,9.654 L282.96,12.756 L291.277,12.756 Z M276.579,13.196 C277.393,14.187 279.087,16.497 279.483,17.069 L277.965,19.137 C277.657,18.455 277.129,17.443 276.579,16.475 L276.579,25.892 L274.071,25.892 L274.071,17.355 C273.41,19.225 272.618,20.942 271.738,22.13 C271.496,21.382 270.902,20.347 270.506,19.687 C271.892,17.949 273.124,14.957 273.785,12.36 L271.1,12.36 L271.1,9.896 L274.071,9.896 L274.071,5.363 L276.579,5.363 L276.579,9.896 L279.571,9.896 L279.571,12.36 L276.579,12.36 L276.579,13.196 Z M265.999,14.495 L265.999,14.561 C265.779,21.052 265.515,23.648 264.744,24.55 C264.194,25.254 263.6,25.496 262.764,25.584 C261.972,25.694 260.74,25.694 259.42,25.65 C259.376,24.858 259.046,23.758 258.584,23.01 C259.772,23.12 260.938,23.12 261.466,23.12 C261.862,23.12 262.104,23.054 262.346,22.834 C262.808,22.328 263.028,20.457 263.226,15.991 L258.628,15.991 C258.055,20.149 256.603,23.89 250.948,25.98 C250.64,25.276 249.892,24.22 249.298,23.648 C254.205,22.064 255.371,19.159 255.833,15.991 L252.291,15.991 L252.291,14.693 C251.873,15.155 251.432,15.573 250.97,15.947 C250.486,15.397 249.386,14.341 248.748,13.879 C251.322,12.03 253.545,8.95 254.777,5.671 L257.593,6.441 C256.603,8.994 255.129,11.414 253.479,13.394 L265.074,13.394 C263.424,11.348 261.796,8.906 260.652,6.551 L263.116,5.627 C264.436,8.4 267.077,11.656 269.343,13.526 C268.683,14.033 267.715,15.045 267.231,15.749 C266.835,15.353 266.417,14.935 265.999,14.495 Z M244.945,16.453 C242.546,16.453 242.282,13.703 242.304,9.478 L240.434,9.478 C240.324,10.446 240.148,11.326 239.884,12.118 C240.83,12.712 241.688,13.284 242.282,13.747 L240.918,15.771 C240.412,15.353 239.664,14.803 238.872,14.231 C238.3,15.045 237.53,15.727 236.562,16.321 L237.442,16.321 C237.398,16.761 237.332,17.201 237.288,17.619 L245.209,17.619 C245.209,17.619 245.187,18.323 245.121,18.653 C244.769,22.482 244.373,24.22 243.647,24.924 C243.052,25.518 242.392,25.694 241.468,25.76 C240.698,25.848 239.378,25.826 237.97,25.782 C237.926,25.034 237.574,24.066 237.134,23.406 C238.476,23.516 239.862,23.538 240.456,23.538 C240.896,23.538 241.182,23.516 241.424,23.318 C241.798,22.988 242.106,21.976 242.348,19.929 L236.694,19.929 C235.681,22.702 233.525,24.77 228.222,25.98 C227.98,25.276 227.364,24.264 226.858,23.714 C230.973,22.9 232.843,21.624 233.789,19.929 L227.848,19.929 L227.848,17.619 L234.559,17.619 C234.647,17.201 234.691,16.761 234.757,16.321 L235.747,16.321 C235.417,15.771 234.911,15.133 234.493,14.781 C235.527,14.275 236.297,13.681 236.826,12.932 C236.253,12.558 235.681,12.228 235.197,11.942 L235.219,12.602 C234.339,12.734 233.459,12.866 232.579,12.998 L232.579,14.319 C232.579,15.463 232.381,16.035 231.611,16.387 C230.885,16.739 229.851,16.761 228.398,16.761 C228.31,16.101 228.002,15.199 227.716,14.583 C228.596,14.605 229.521,14.605 229.807,14.605 C230.093,14.605 230.181,14.517 230.181,14.275 L230.181,13.35 L227.342,13.747 L226.924,11.392 C227.848,11.304 228.97,11.172 230.181,11.018 L230.181,9.566 L227.276,9.566 L227.276,7.278 L230.181,7.278 L230.181,5.385 L232.579,5.385 L232.579,7.278 L235.021,7.278 L235.021,9.566 L232.579,9.566 L232.579,10.71 C233.437,10.6 234.273,10.468 235.131,10.38 L235.175,11.876 L236.452,10.138 C236.87,10.336 237.31,10.578 237.75,10.864 C237.86,10.424 237.948,9.984 238.014,9.478 L235.527,9.478 L235.527,7.322 L238.19,7.322 C238.234,6.706 238.234,6.067 238.256,5.363 L240.676,5.363 C240.654,6.045 240.654,6.684 240.61,7.322 L242.326,7.322 L242.326,7.3 L244.703,7.3 C244.527,11.612 244.505,14.231 245.055,14.231 C245.319,14.231 245.429,13.659 245.495,12.404 C245.979,12.822 246.771,13.174 247.343,13.328 C247.123,15.771 246.463,16.453 244.945,16.453 Z M219.798,23.12 C220.788,23.142 224.089,23.12 225.365,23.098 C224.991,23.692 224.573,24.88 224.441,25.628 L219.644,25.628 C215.266,25.628 211.811,24.858 209.501,21.558 C208.775,23.296 207.829,24.836 206.486,25.914 C206.046,25.408 205.122,24.594 204.528,24.242 C206.992,22.284 208.027,18.587 208.335,15.507 L211.041,15.815 C210.887,16.761 210.689,17.751 210.425,18.719 C211.195,20.325 212.295,21.36 213.593,22.02 L213.593,14.605 L205.276,14.605 L205.276,12.162 L213.593,12.162 L213.593,10.028 L207.212,10.028 L207.212,7.63 L213.593,7.63 L213.593,5.385 L216.278,5.385 L216.278,7.63 L223.055,7.63 L223.055,10.028 L216.278,10.028 L216.278,12.162 L224.771,12.162 L224.771,14.605 L216.278,14.605 L216.278,17.267 L223.297,17.267 L223.297,19.599 L216.278,19.599 L216.278,22.856 C217.378,23.054 218.566,23.12 219.798,23.12 Z M197.886,20.81 C197.248,22.614 196.17,24.418 194.432,25.98 C193.992,25.408 193.09,24.594 192.452,24.198 C196.082,21.074 196.412,16.893 196.412,14.165 L196.412,13.13 L198.898,13.13 L198.898,14.231 C198.898,14.847 198.876,15.529 198.832,16.277 C199.559,19.555 201.011,22.372 203.497,23.648 C202.925,24.154 202.133,25.166 201.759,25.87 C199.999,24.77 198.766,22.988 197.886,20.81 Z M199.581,15.309 C199.867,14.385 200.175,13.042 200.417,11.7 L196.148,11.7 C195.642,13.372 195.026,14.847 194.3,16.035 C193.948,15.705 193.244,15.133 192.65,14.737 L192.65,15.639 L183.694,15.639 L183.694,13.526 L192.65,13.526 L192.672,13.659 C193.816,11.546 194.498,8.488 194.828,5.407 L197.358,5.759 C197.204,6.97 197.006,8.18 196.764,9.324 L201.121,9.324 L201.495,9.214 L203.321,9.72 C202.881,11.876 202.265,14.363 201.693,15.969 L199.581,15.309 Z M189.393,10.38 L192.782,10.38 L192.782,12.492 L183.562,12.492 L183.562,10.38 L186.951,10.38 L186.951,9.258 L183.012,9.258 L183.012,7.124 L186.951,7.124 L186.951,5.517 L189.393,5.517 L189.393,7.124 L193.266,7.124 L193.266,9.258 L189.393,9.258 L189.393,10.38 Z M193.53,18.829 L189.415,18.829 L189.415,23.45 C189.415,24.528 189.261,25.144 188.535,25.496 C187.853,25.87 186.951,25.914 185.763,25.914 C185.675,25.21 185.344,24.286 185.058,23.648 C185.741,23.67 186.445,23.67 186.687,23.67 C186.907,23.67 186.973,23.604 186.973,23.406 L186.973,18.829 L182.726,18.829 L182.726,16.673 L193.53,16.673 L193.53,18.829 Z M186.247,19.731 C185.829,21.338 185.102,23.208 184.486,24.396 C184.002,24.11 183.034,23.692 182.484,23.516 C183.144,22.394 183.716,20.722 184.112,19.247 L186.247,19.731 Z M175.908,23.142 C175.908,24.462 175.688,25.144 174.742,25.54 C173.818,25.892 172.52,25.936 170.76,25.914 C170.672,25.166 170.363,24.154 170.033,23.406 C171.134,23.472 172.432,23.472 172.784,23.472 C173.158,23.45 173.268,23.362 173.268,23.076 L173.268,20.391 L167.679,20.391 L167.679,17.949 L173.268,17.949 L173.268,16.409 C173.95,15.991 174.676,15.397 175.358,14.781 L169.395,14.781 L169.395,12.426 L177.757,12.426 L178.307,12.272 L179.957,13.615 C178.835,14.803 177.361,16.101 175.908,17.113 L175.908,17.949 L181.123,17.949 L181.123,20.391 L175.908,20.391 L175.908,23.142 Z M166.403,15.221 L166.403,25.87 L163.763,25.87 L163.763,18.191 C163.102,18.785 162.442,19.313 161.694,19.819 C161.43,19.137 160.858,17.971 160.462,17.311 C162.838,15.749 164.753,13.35 166.095,10.71 L161.254,10.71 L161.254,8.202 L167.217,8.202 C167.569,7.234 167.877,6.287 168.119,5.341 L170.848,6.001 C170.628,6.75 170.363,7.454 170.099,8.202 L180.793,8.202 L180.793,10.71 L169.065,10.71 C168.317,12.294 167.437,13.813 166.403,15.221 Z M157.803,14.099 C156.813,13.747 155.801,13.306 154.81,12.822 L154.81,14.121 L150.388,14.121 L150.388,16.409 L157.407,16.409 L157.407,18.763 L153.93,18.763 L156.131,19.555 C155.361,20.788 154.502,22.108 153.82,23.054 L158.551,23.054 L158.551,25.452 L139.518,25.452 L139.518,23.054 L143.853,23.054 C143.501,22.042 142.753,20.59 142.027,19.489 L143.765,18.763 L140.574,18.763 L140.574,16.409 L147.571,16.409 L147.571,14.121 L143.105,14.121 L143.105,13.042 C142.181,13.482 141.234,13.879 140.266,14.231 C139.914,13.46 139.188,12.47 138.528,11.81 C142.665,10.622 146.625,8.4 148.716,5.121 L151.202,6.243 C151.004,6.529 150.806,6.816 150.586,7.124 C152.742,9.06 156.307,10.886 159.607,11.81 C159.013,12.382 158.199,13.416 157.803,14.099 Z M150.388,23.054 L153.138,23.054 L151.664,22.438 C152.346,21.448 153.16,19.907 153.6,18.763 L150.388,18.763 L150.388,23.054 Z M144.249,18.763 C145.019,19.841 145.855,21.294 146.163,22.262 L144.359,23.054 L147.571,23.054 L147.571,18.763 L144.249,18.763 Z M149.068,8.862 C148.011,9.962 146.801,10.886 145.503,11.722 L152.874,11.722 C151.488,10.864 150.19,9.896 149.068,8.862 Z M132.26,19.709 L134.571,18.851 C135.693,20.7 136.947,23.164 137.387,24.792 L134.901,25.782 C134.505,24.198 133.339,21.646 132.26,19.709 Z M126.518,6.772 L136.353,6.772 L136.353,17.201 L126.518,17.201 L126.518,6.772 Z M129.026,14.693 L133.735,14.693 L133.735,9.258 L129.026,9.258 L129.026,14.693 Z M126.187,17.597 L124.757,19.731 C124.383,19.005 123.679,17.883 122.997,16.871 L122.997,25.914 L120.511,25.914 L120.511,17.795 C119.697,19.599 118.772,21.294 117.782,22.46 C117.54,21.69 116.924,20.568 116.528,19.907 C117.848,18.477 119.19,16.123 120.049,14.011 L116.902,14.011 L116.902,11.568 L120.511,11.568 L120.511,8.928 C119.432,9.104 118.354,9.236 117.342,9.346 C117.254,8.774 116.924,7.894 116.66,7.322 C119.432,6.926 122.535,6.265 124.581,5.495 L125.967,7.652 C125.087,7.96 124.053,8.224 122.997,8.444 L122.997,11.568 L126.011,11.568 L126.011,14.011 L122.997,14.011 L122.997,14.341 C123.723,14.957 125.725,17.047 126.187,17.597 Z M106.586,6.75 L109.182,5.693 C110.502,8.422 113.143,11.634 115.321,13.548 C114.617,14.055 113.649,15.089 113.121,15.793 C110.898,13.526 108.258,9.962 106.586,6.75 Z M109.05,20.942 C108.39,19.951 107.708,18.939 107.092,18.059 L109.578,16.915 C111.405,19.335 113.495,22.46 114.551,24.506 L111.933,25.914 C111.603,25.188 111.118,24.33 110.568,23.406 C99.919,24.308 98.423,24.396 97.344,24.792 C97.212,24.264 96.706,22.812 96.332,22.042 C97.058,21.844 97.587,21.294 98.401,20.303 C99.325,19.357 101.987,15.573 103.615,11.876 L106.542,13.13 C104.936,16.167 102.867,19.115 100.843,21.492 L109.05,20.942 Z M94.88,13.923 C97.256,12.096 99.369,9.016 100.557,5.847 L103.417,6.661 C101.987,10.226 99.655,13.659 97.344,15.793 C96.794,15.309 95.584,14.363 94.88,13.923 Z M83.618,19.247 L89.316,19.247 L89.316,19.269 L91.275,19.269 C91.275,19.269 91.253,19.885 91.209,20.193 C90.967,23.076 90.681,24.418 90.087,24.968 C89.625,25.474 89.008,25.628 88.26,25.672 C87.622,25.738 86.412,25.738 85.202,25.694 C85.158,25.034 84.872,24.176 84.52,23.604 C85.598,23.714 86.676,23.736 87.116,23.736 C87.512,23.736 87.732,23.692 87.93,23.516 C88.194,23.296 88.392,22.614 88.524,21.25 L83.09,21.25 C82.385,23.23 80.999,24.792 78.271,25.87 C78.029,25.254 77.347,24.352 76.819,23.912 C80.229,22.68 80.955,20.59 81.241,17.861 L77.809,17.861 L77.809,15.793 L83.882,15.793 C83.684,15.199 83.31,14.407 83.024,13.791 L84.762,13.262 L77.281,13.262 C77.215,17.069 76.797,22.46 74.992,26.068 C74.442,25.672 73.254,25.056 72.572,24.836 C74.464,21.228 74.618,15.903 74.618,12.36 L74.618,7.366 L82.077,7.366 C81.901,6.86 81.725,6.353 81.549,5.957 L84.146,5.341 C84.432,5.957 84.74,6.706 84.938,7.366 L92.001,7.366 L92.001,13.262 L85.444,13.262 C85.818,13.945 86.214,14.737 86.412,15.309 L84.96,15.793 L92.595,15.793 L92.595,17.861 L83.816,17.861 C83.75,18.345 83.706,18.785 83.618,19.247 Z M89.405,11.084 L89.405,9.544 L77.281,9.544 L77.281,11.084 L89.405,11.084 Z M57.151,22.746 L63.004,22.746 L63.004,18.323 L58.361,18.323 L58.361,15.859 L63.004,15.859 L63.004,11.986 L57.635,11.986 L57.635,9.5 L63.554,9.5 C63.29,8.576 62.63,7.168 61.992,6.089 L64.412,5.275 C65.072,6.309 65.842,7.74 66.15,8.686 L63.884,9.5 L71.035,9.5 L71.035,11.986 L65.666,11.986 L65.666,15.859 L70.419,15.859 L70.419,18.323 L65.666,18.323 L65.666,22.746 L71.343,22.746 L71.343,25.232 L57.151,25.232 L57.151,22.746 Z M55.985,25.892 L53.344,25.892 L53.344,14.891 C52.882,15.441 52.42,15.991 51.98,16.475 C51.738,15.837 50.99,14.341 50.528,13.681 C52.53,11.7 54.445,8.576 55.545,5.451 L58.097,6.243 C57.525,7.784 56.799,9.346 55.985,10.82 L55.985,25.892 Z M130.5,19.555 C129.818,21.998 128.542,24.396 127.2,25.892 C126.672,25.452 125.593,24.726 124.977,24.374 C126.297,23.076 127.354,21.03 127.904,18.961 L130.5,19.555 Z M193.398,22.57 L191.351,23.428 C191.109,22.548 190.537,21.074 190.031,19.951 L191.967,19.203 C192.518,20.259 193.134,21.668 193.398,22.57 Z" id="形状" fill="url(#linearGradient-7)" fill-rule="nonzero"></path>
        </g>
    </g>
</svg>