<?xml version="1.0" encoding="UTF-8"?>
<svg width="477px" height="258px" viewBox="0 0 477 258" version="1.1" xmlns="http://www.w3.org/2000/svg" xmlns:xlink="http://www.w3.org/1999/xlink">
    <title>zjld_kuang_you1</title>
    <defs>
        <linearGradient x1="50%" y1="0%" x2="50%" y2="100%" id="linearGradient-1">
            <stop stop-color="#2845FB" offset="0%"></stop>
            <stop stop-color="#2845FB" stop-opacity="0.5" offset="100%"></stop>
        </linearGradient>
        <linearGradient x1="0%" y1="0%" x2="100%" y2="0%" id="linearGradient-2">
            <stop stop-color="#0E6DE9" stop-opacity="0.2" offset="0%"></stop>
            <stop stop-color="#0E6DE9" offset="100%"></stop>
        </linearGradient>
        <linearGradient x1="0%" y1="0%" x2="100%" y2="0%" id="linearGradient-3">
            <stop stop-color="#00D4E8" stop-opacity="0.2" offset="0%"></stop>
            <stop stop-color="#00D4E8" offset="100%"></stop>
        </linearGradient>
    </defs>
    <g id="页面-1" stroke="none" stroke-width="1" fill="none" fill-rule="evenodd">
        <g id="zjld_kuang_you1">
            <path d="M145,0.5 C146.242293,0.5 147.367077,1.00522433 148.181336,1.82172652 C148.996092,2.63872728 149.5,3.76736345 149.5,5.0137741 L149.5,5.0137741 L149.5,176.986226 C149.5,178.232637 148.996092,179.361273 148.181336,180.178273 C147.367077,180.994776 146.242293,181.5 145,181.5 L145,181.5 L5,181.5 C3.75770694,181.5 2.63292342,180.994776 1.81866437,180.178273 C1.00390812,179.361273 0.5,178.232637 0.5,176.986226 L0.5,176.986226 L0.5,5.0137741 C0.5,3.76736345 1.00390812,2.63872728 1.81866437,1.82172652 C2.63292342,1.00522433 3.75770694,0.5 5,0.5 L5,0.5 Z" id="路径" stroke="url(#linearGradient-1)" fill-opacity="0.102" fill="#23B9FF"></path>
            <path d="M309,0.5 C310.242293,0.5 311.367077,1.00522433 312.181336,1.82172652 C312.996092,2.63872728 313.5,3.76736345 313.5,5.0137741 L313.5,5.0137741 L313.5,176.986226 C313.5,178.232637 312.996092,179.361273 312.181336,180.178273 C311.367077,180.994776 310.242293,181.5 309,181.5 L309,181.5 L169,181.5 C167.757707,181.5 166.632923,180.994776 165.818664,180.178273 C165.003908,179.361273 164.5,178.232637 164.5,176.986226 L164.5,176.986226 L164.5,5.0137741 C164.5,3.76736345 165.003908,2.63872728 165.818664,1.82172652 C166.632923,1.00522433 167.757707,0.5 169,0.5 L169,0.5 Z" id="路径备份-2" stroke="url(#linearGradient-1)" fill-opacity="0.102" fill="#23B9FF"></path>
            <path d="M472,0.5 C473.242293,0.5 474.367077,1.00522433 475.181336,1.82172652 C475.996092,2.63872728 476.5,3.76736345 476.5,5.0137741 L476.5,5.0137741 L476.5,176.986226 C476.5,178.232637 475.996092,179.361273 475.181336,180.178273 C474.367077,180.994776 473.242293,181.5 472,181.5 L472,181.5 L332,181.5 C330.757707,181.5 329.632923,180.994776 328.818664,180.178273 C328.003908,179.361273 327.5,178.232637 327.5,176.986226 L327.5,176.986226 L327.5,5.0137741 C327.5,3.76736345 328.003908,2.63872728 328.818664,1.82172652 C329.632923,1.00522433 330.757707,0.5 332,0.5 L332,0.5 Z" id="路径备份-3" stroke="url(#linearGradient-1)" fill-opacity="0.102" fill="#23B9FF"></path>
            <path d="M471.021126,192.5 C472.257583,192.5 473.37708,193.002884 474.187513,193.815598 C474.998454,194.628822 475.5,195.752241 475.5,196.992889 L475.5,196.992889 L475.5,253.007111 C475.5,254.247759 474.998454,255.371178 474.187513,256.184402 C473.37708,256.997116 472.257583,257.5 471.021126,257.5 L471.021126,257.5 L258.5,257.5 L258.5,192.5 Z" id="路径" stroke="#0E6DE9" fill="url(#linearGradient-2)"></path>
            <path d="M257.5,192.5 L257.5,257.5 L5.03082845,257.5 C3.77943133,257.5 2.64617387,256.996688 1.8258681,256.182569 C1.00693756,255.369814 0.5,254.247168 0.5,253.007111 L0.5,253.007111 L0.5,196.992889 C0.5,195.752832 1.00693756,194.630186 1.8258681,193.817431 C2.64617387,193.003312 3.77943133,192.5 5.03082845,192.5 L5.03082845,192.5 L257.5,192.5 Z" id="路径" stroke="#00D4E8" fill="url(#linearGradient-3)"></path>
            <path d="M60.73,235.803 C61.117,234.877 61.451,233.957 61.733,233.043 L56.85,233.043 C56.498,234.233 56.096,235.358 55.644,236.418 C55.222,236.184 54.823,235.984 54.448,235.82 C55.41,233.688 56.072,231.42 56.436,229.018 L57.738,229.246 C57.574,230.131 57.389,230.986 57.184,231.813 L63.088,231.813 L63.088,233.025 C62.771,234.033 62.395,235.129 61.961,236.313 C61.633,236.113 61.222,235.943 60.73,235.803 Z M60.695,222.121 C60.038,222.121 59.392,222.104 58.759,222.068 C58.712,221.682 58.641,221.23 58.548,220.715 C59.404,220.797 60.02,220.838 60.395,220.838 C61.041,220.838 61.363,220.516 61.363,219.871 L61.363,216.18 L57.598,216.18 C57.468,218.746 56.688,220.879 55.257,222.578 C54.94,222.25 54.589,221.922 54.201,221.594 C55.152,220.504 55.756,219.373 56.014,218.201 C56.295,217.076 56.436,215.119 56.436,212.33 L56.436,205.791 L62.665,205.791 L62.665,220.047 C62.665,221.43 62.008,222.121 60.695,222.121 Z M61.363,206.986 L57.738,206.986 L57.738,210.414 L61.363,210.414 L61.363,206.986 Z M61.363,211.574 L57.738,211.574 C57.75,213.086 57.73,214.234 57.677,215.02 L61.363,215.02 L61.363,211.574 Z M54.096,216.83 L55.504,216.83 L55.504,218.025 L46.178,218.025 L46.178,216.83 L47.832,216.83 L47.832,208.709 L46.389,208.709 L46.389,207.514 L47.832,207.514 L47.832,205.369 L49.134,205.369 L49.134,207.514 L52.794,207.514 L52.794,205.299 L54.096,205.299 L54.096,207.514 L55.521,207.514 L55.521,208.709 L54.096,208.709 L54.096,216.83 Z M52.794,208.709 L49.134,208.709 L49.134,210.66 L52.794,210.66 L52.794,208.709 Z M52.794,211.785 L49.134,211.785 L49.134,213.736 L52.794,213.736 L52.794,211.785 Z M52.794,214.861 L49.134,214.861 L49.134,216.83 L52.794,216.83 L52.794,214.861 Z M50.207,219.203 C49.022,220.48 47.943,221.553 46.969,222.42 C46.723,222.139 46.412,221.828 46.037,221.488 C47.151,220.539 48.183,219.496 49.134,218.359 L50.207,219.203 Z M40.406,244.24 C40.406,245.576 39.737,246.244 38.4,246.244 C37.766,246.244 36.916,246.227 35.848,246.191 C35.79,245.746 35.713,245.271 35.62,244.768 C36.746,244.885 37.579,244.943 38.118,244.943 C38.74,244.943 39.051,244.633 39.051,244.012 L39.051,240.285 L32.98,240.285 L32.98,239.002 L39.051,239.002 L39.051,237.842 C40.294,237.045 41.385,236.254 42.324,235.469 L34.159,235.469 L34.159,234.186 L44.33,234.186 L44.33,235.609 C43.133,236.559 41.825,237.514 40.406,238.475 L40.406,239.002 L45.597,239.002 L45.597,240.285 L40.406,240.285 L40.406,244.24 Z M45.562,220.363 C45.362,220.82 45.192,221.307 45.051,221.822 C42.177,221.857 39.667,221.84 37.52,221.77 C34.875,221.77 32.93,220.697 31.687,218.553 C31.018,220.105 30.112,221.418 28.968,222.49 C28.698,222.033 28.388,221.576 28.036,221.119 C29.983,219.443 31.109,216.983 31.414,213.736 L32.892,213.965 C32.751,215.049 32.537,216.06 32.25,216.997 C33.159,218.931 34.57,220.041 36.482,220.328 L36.482,212.594 L28.44,212.594 L28.44,211.275 L45.157,211.275 L45.157,212.594 L37.942,212.594 L37.942,215.441 L44.066,215.441 L44.066,216.742 L37.942,216.742 L37.942,220.425 C40.277,220.483 42.817,220.463 45.562,220.363 Z M43.257,208.516 L30.464,208.516 L30.464,210.52 L29.074,210.52 L29.074,207.197 L36.579,207.197 C36.233,206.693 35.866,206.201 35.479,205.721 L36.816,205 C37.274,205.527 37.772,206.119 38.312,206.775 L37.52,207.197 L44.647,207.197 L44.647,210.537 L43.257,210.537 L43.257,208.516 Z M32.716,232.287 L28.282,232.287 L28.282,230.986 L33.227,230.986 C33.467,230.33 33.69,229.656 33.895,228.965 L35.338,229.334 C35.156,229.897 34.966,230.447 34.766,230.986 L45.474,230.986 L45.474,232.287 L34.256,232.287 C33.64,233.776 32.957,235.152 32.206,236.418 L32.206,246.279 L30.851,246.279 L30.851,238.457 C30.223,239.313 29.555,240.104 28.845,240.83 C28.61,240.42 28.329,239.998 28,239.564 C29.959,237.508 31.531,235.082 32.716,232.287 Z M49.028,241.217 C48.371,242.436 47.708,243.543 47.04,244.539 C46.77,244.328 46.441,244.123 46.054,243.924 C46.688,243.022 47.304,241.932 47.902,240.654 L49.028,241.217 Z M47.128,237.438 L47.128,236.313 L54.201,236.313 L54.201,237.438 L47.128,237.438 Z M54.606,220.17 L53.674,221.172 C53.017,220.516 52.272,219.854 51.439,219.186 L52.283,218.324 C53.105,218.934 53.879,219.549 54.606,220.17 Z M54.36,233.676 L54.36,234.801 L46.776,234.801 L46.776,233.676 L50.066,233.676 L50.066,231.936 L46.178,231.936 L46.178,230.811 L50.066,230.811 L50.066,229.035 L51.368,229.035 L51.368,230.811 L55.24,230.811 L55.24,231.936 L51.368,231.936 L51.368,233.676 L54.36,233.676 Z M50.101,243.625 L50.101,240.092 L46.23,240.092 L46.23,238.967 L55.169,238.967 L55.169,240.092 L51.404,240.092 L51.404,243.959 C51.404,245.295 50.741,245.963 49.415,245.963 C48.793,245.963 48.254,245.957 47.796,245.945 C47.726,245.476 47.638,245.025 47.532,244.592 C48.013,244.662 48.524,244.697 49.063,244.697 C49.755,244.697 50.101,244.34 50.101,243.625 Z M54.729,243.168 L53.621,243.783 C53.163,242.846 52.688,242.002 52.195,241.252 L53.216,240.707 C53.779,241.504 54.284,242.324 54.729,243.168 Z M57.738,237.912 C57.856,236.811 57.908,235.457 57.897,233.852 L59.199,233.852 C59.187,234.742 59.172,235.554 59.155,236.286 C59.718,240.505 61.205,243.49 63.615,245.242 C63.17,245.629 62.806,245.986 62.525,246.314 C60.689,244.879 59.41,242.635 58.689,239.582 C58.096,242.254 56.688,244.539 54.465,246.438 C54.207,246.133 53.867,245.81 53.445,245.471 C55.99,243.432 57.422,240.912 57.738,237.912 Z" id="形状" fill="#FFFFFF"></path>
            <path d="M318.8,235.506 C319.187,234.58 319.521,233.66 319.803,232.746 L314.92,232.746 C314.568,233.936 314.166,235.061 313.714,236.121 C313.292,235.887 312.893,235.687 312.518,235.523 C313.48,233.391 314.142,231.123 314.506,228.721 L315.808,228.949 C315.644,229.834 315.459,230.689 315.254,231.516 L321.158,231.516 L321.158,232.728 C320.841,233.736 320.465,234.832 320.031,236.016 C319.703,235.816 319.292,235.646 318.8,235.506 Z M318.765,221.824 C318.108,221.824 317.462,221.807 316.829,221.771 C316.782,221.385 316.711,220.933 316.618,220.418 C317.474,220.5 318.09,220.541 318.465,220.541 C319.111,220.541 319.433,220.219 319.433,219.574 L319.433,215.883 L315.668,215.883 C315.538,218.449 314.758,220.582 313.327,222.281 C313.01,221.953 312.659,221.625 312.271,221.297 C313.222,220.207 313.826,219.076 314.084,217.904 C314.365,216.779 314.506,214.822 314.506,212.033 L314.506,205.494 L320.735,205.494 L320.735,219.75 C320.735,221.133 320.078,221.824 318.765,221.824 Z M319.433,206.689 L315.808,206.689 L315.808,210.117 L319.433,210.117 L319.433,206.689 Z M319.433,211.277 L315.808,211.277 C315.82,212.789 315.8,213.937 315.747,214.723 L319.433,214.723 L319.433,211.277 Z M312.166,216.533 L313.574,216.533 L313.574,217.728 L304.248,217.728 L304.248,216.533 L305.902,216.533 L305.902,208.412 L304.459,208.412 L304.459,207.217 L305.902,207.217 L305.902,205.072 L307.204,205.072 L307.204,207.217 L310.864,207.217 L310.864,205.002 L312.166,205.002 L312.166,207.217 L313.591,207.217 L313.591,208.412 L312.166,208.412 L312.166,216.533 Z M310.864,208.412 L307.204,208.412 L307.204,210.363 L310.864,210.363 L310.864,208.412 Z M310.864,211.488 L307.204,211.488 L307.204,213.439 L310.864,213.439 L310.864,211.488 Z M310.864,214.564 L307.204,214.564 L307.204,216.533 L310.864,216.533 L310.864,214.564 Z M308.277,218.906 C307.092,220.183 306.013,221.256 305.039,222.123 C304.793,221.842 304.482,221.531 304.107,221.191 C305.221,220.242 306.253,219.199 307.204,218.062 L308.277,218.906 Z M298.476,243.943 C298.476,245.279 297.807,245.947 296.47,245.947 C295.836,245.947 294.986,245.93 293.918,245.894 C293.86,245.449 293.783,244.974 293.69,244.471 C294.816,244.588 295.649,244.646 296.188,244.646 C296.81,244.646 297.121,244.336 297.121,243.715 L297.121,239.988 L291.05,239.988 L291.05,238.705 L297.121,238.705 L297.121,237.545 C298.364,236.748 299.455,235.957 300.394,235.172 L292.229,235.172 L292.229,233.889 L302.4,233.889 L302.4,235.312 C301.203,236.262 299.895,237.217 298.476,238.178 L298.476,238.705 L303.667,238.705 L303.667,239.988 L298.476,239.988 L298.476,243.943 Z M297.913,214.564 L302.277,214.564 L302.277,222.123 L300.904,222.123 L300.904,221.068 L293.496,221.068 L293.496,222.123 L292.124,222.123 L292.124,214.564 L296.488,214.564 L296.488,211.611 L290.945,211.611 L290.945,210.275 L296.488,210.275 L296.488,207.331 C295.05,207.401 293.484,207.469 291.789,207.533 C291.707,207.111 291.619,206.666 291.525,206.197 C295.561,206.092 299.321,205.852 302.805,205.476 L303.086,206.865 C301.667,207.006 299.942,207.135 297.913,207.252 L297.913,210.275 L303.649,210.275 L303.649,211.611 L297.913,211.611 L297.913,214.564 Z M293.496,215.83 L293.496,219.803 L300.904,219.803 L300.904,215.83 L293.496,215.83 Z M286.81,206.039 L287.689,205.002 C288.815,205.775 289.871,206.561 290.857,207.357 C290.54,207.756 290.217,208.154 289.889,208.553 C288.798,207.603 287.771,206.766 286.81,206.039 Z M290.206,211.822 C289.854,212.291 289.531,212.713 289.238,213.088 C287.936,212.045 286.856,211.248 286,210.697 L286.845,209.572 C288.053,210.299 289.173,211.049 290.206,211.822 Z M288.745,214.775 C289.343,215.092 289.842,215.326 290.241,215.478 C289.549,217.682 288.874,219.826 288.217,221.912 L286.651,221.191 C287.461,219.246 288.159,217.107 288.745,214.775 Z M286.352,231.99 L286.352,230.689 L291.297,230.689 C291.537,230.033 291.76,229.359 291.965,228.668 L293.408,229.037 C293.226,229.6 293.036,230.15 292.836,230.689 L303.544,230.689 L303.544,231.99 L292.326,231.99 C291.71,233.479 291.027,234.855 290.276,236.121 L290.276,245.982 L288.921,245.982 L288.921,238.16 C288.293,239.016 287.625,239.807 286.915,240.533 C286.68,240.123 286.399,239.701 286.07,239.267 C288.029,237.211 289.601,234.785 290.786,231.99 L286.352,231.99 Z M307.098,240.92 C306.441,242.139 305.778,243.246 305.11,244.242 C304.84,244.031 304.511,243.826 304.124,243.627 C304.758,242.725 305.374,241.635 305.972,240.357 L307.098,240.92 Z M305.198,237.141 L305.198,236.016 L312.271,236.016 L312.271,237.141 L305.198,237.141 Z M312.676,219.873 L311.744,220.875 C311.087,220.219 310.342,219.557 309.509,218.889 L310.353,218.027 C311.175,218.637 311.949,219.252 312.676,219.873 Z M312.43,233.379 L312.43,234.504 L304.846,234.504 L304.846,233.379 L308.136,233.379 L308.136,231.639 L304.248,231.639 L304.248,230.514 L308.136,230.514 L308.136,228.738 L309.438,228.738 L309.438,230.514 L313.31,230.514 L313.31,231.639 L309.438,231.639 L309.438,233.379 L312.43,233.379 Z M308.171,243.328 L308.171,239.795 L304.3,239.795 L304.3,238.67 L313.239,238.67 L313.239,239.795 L309.474,239.795 L309.474,243.662 C309.474,244.998 308.811,245.666 307.485,245.666 C306.863,245.666 306.324,245.66 305.866,245.648 C305.796,245.179 305.708,244.728 305.602,244.295 C306.083,244.365 306.594,244.4 307.133,244.4 C307.825,244.4 308.171,244.043 308.171,243.328 Z M312.799,242.871 L311.691,243.486 C311.233,242.549 310.758,241.705 310.265,240.955 L311.286,240.41 C311.849,241.207 312.354,242.027 312.799,242.871 Z M315.808,237.615 C315.926,236.514 315.978,235.16 315.967,233.555 L317.269,233.555 C317.257,234.445 317.242,235.257 317.225,235.989 C317.788,240.208 319.275,243.193 321.685,244.945 C321.24,245.332 320.876,245.689 320.595,246.017 C318.759,244.582 317.48,242.338 316.759,239.285 C316.166,241.957 314.758,244.242 312.535,246.141 C312.277,245.836 311.937,245.513 311.515,245.174 C314.06,243.135 315.492,240.615 315.808,237.615 Z" id="形状" fill="#FFFFFF"></path>
        </g>
    </g>
</svg>