<?xml version="1.0" encoding="UTF-8"?>
<svg width="477px" height="390px" viewBox="0 0 477 390" version="1.1" xmlns="http://www.w3.org/2000/svg" xmlns:xlink="http://www.w3.org/1999/xlink">
    <title>zjld_kuang_zuo2</title>
    <defs>
        <linearGradient x1="0%" y1="0%" x2="100%" y2="0%" id="linearGradient-1">
            <stop stop-color="#030E6A" stop-opacity="0.8" offset="0%"></stop>
            <stop stop-color="#030E6A" stop-opacity="0" offset="100%"></stop>
        </linearGradient>
        <linearGradient x1="50%" y1="0%" x2="50%" y2="100%" id="linearGradient-2">
            <stop stop-color="#031270" offset="0%"></stop>
            <stop stop-color="#031270" stop-opacity="0.584380463" offset="40.8134834%"></stop>
            <stop stop-color="#031270" offset="100%"></stop>
        </linearGradient>
        <linearGradient x1="19.6284089%" y1="16.575175%" x2="28.9870627%" y2="83.424825%" id="linearGradient-3">
            <stop stop-color="#2845FB" offset="0%"></stop>
            <stop stop-color="#2845FB" stop-opacity="0.0366586538" offset="22.8845276%"></stop>
            <stop stop-color="#2845FB" offset="50.2340994%"></stop>
            <stop stop-color="#2845FB" stop-opacity="0" offset="100%"></stop>
        </linearGradient>
        <linearGradient x1="100%" y1="72.4361727%" x2="0%" y2="72.4361727%" id="linearGradient-4">
            <stop stop-color="#0A54FF" stop-opacity="0" offset="0%"></stop>
            <stop stop-color="#0A54FF" offset="100%"></stop>
        </linearGradient>
        <linearGradient x1="0%" y1="0%" x2="100%" y2="0%" id="linearGradient-5">
            <stop stop-color="#4BAAE4" stop-opacity="0" offset="0%"></stop>
            <stop stop-color="#4BAAE4" offset="12.7349213%"></stop>
            <stop stop-color="#005174" stop-opacity="0" offset="100%"></stop>
        </linearGradient>
        <linearGradient x1="0%" y1="0%" x2="100%" y2="0%" id="linearGradient-6">
            <stop stop-color="#4BAAE4" stop-opacity="0" offset="0%"></stop>
            <stop stop-color="#4BAAE4" offset="12.7349213%"></stop>
            <stop stop-color="#005174" stop-opacity="0" offset="100%"></stop>
        </linearGradient>
        <linearGradient x1="0%" y1="-2.22044605e-14%" x2="99.939%" y2="3.49%" id="linearGradient-7">
            <stop stop-color="#00C0FF" offset="0%"></stop>
            <stop stop-color="#43F0FF" offset="49%"></stop>
            <stop stop-color="#00C0FF" offset="100%"></stop>
        </linearGradient>
    </defs>
    <g id="页面-1" stroke="none" stroke-width="1" fill="none" fill-rule="evenodd">
        <g id="zjld_kuang_zuo2">
            <polygon id="路径" fill="url(#linearGradient-1)" points="252 0 0 0 0 32 279 32"></polygon>
            <polygon id="路径" fill="url(#linearGradient-2)" opacity="0.302" points="253.13219 0.134990042 279.289771 31.5596718 477 31.0527092 477 390 0 390 0 0"></polygon>
            <path d="M0.5,0.500268707 L252.896823,0.635873617 L279.05501,32.2516072 L476.5,31.7422914 L476.5,389.503 L0.5,389.503 L0.5,0.500268707 Z" id="路径" stroke="url(#linearGradient-3)"></path>
            <polygon id="路径" fill="url(#linearGradient-4)" opacity="0.302" points="0 0 252.544 0 279.544 32 0 32"></polygon>
            <path d="M24.275,7.635 L29.784,7.635 C32.067,7.635 33.917,9.466 33.917,11.725 L25.644,23.901 C24.566,24.843 22.419,26.729 20.142,26.7240099 L14.632,26.7240099 C12.35,26.7240099 10.5,24.892 10.5,22.633 L18.765,10.362 C20.853,8.295 21.448,7.635 24.275,7.635 Z" id="路径" fill="#00D4E8"></path>
            <path d="M31.162,4.908 L36.672,4.908 C38.954,4.908 40.804,6.739 40.804,8.998 L32.531,21.174 C31.453,22.116 29.306,24.002 27.03,23.9970099 L21.52,23.9970099 C19.238,23.9970099 17.387,22.165 17.387,19.906 L25.652,7.635 C27.741,5.568 28.335,4.908 31.162,4.908 Z" id="路径" fill="#2845FB" opacity="0.502"></path>
            <polyline id="路径" stroke="url(#linearGradient-5)" points="430.5 26.5 297.5 26.5 283.5 10.5"></polyline>
            <polyline id="路径" stroke="url(#linearGradient-6)" opacity="0.4" points="434.709 19.479 301.01 19.479 288.5 4.5"></polyline>
            <polygon id="路径" fill="#1050D3" opacity="0.2" points="467.237 12.479 462.422 12.479 470.043 23.099 474.858 23.099"></polygon>
            <polygon id="路径" fill="#2563E1" opacity="0.502" points="457.002 12.479 452.187 12.479 459.807 23.099 464.622 23.099"></polygon>
            <polygon id="路径" fill="#4680F5" points="446.767 12.479 441.952 12.479 449.572 23.099 454.387 23.099"></polygon>
            <path d="M199.591,25.835 L199.591,25.043 L185.949,25.043 L185.949,25.835 L183.44,25.835 L183.44,6.098 L202.231,6.098 L202.231,25.835 L199.591,25.835 Z M185.949,8.453 L185.949,15.824 C187.533,15.516 189.183,15.054 190.679,14.46 C190.107,14.042 189.579,13.624 189.117,13.183 C188.677,13.558 188.215,13.888 187.775,14.174 C187.379,13.756 186.543,12.985 186.059,12.633 C187.841,11.621 189.623,10.081 190.701,8.453 L185.949,8.453 Z M199.591,8.453 L191.031,8.453 L192.902,9.113 C192.682,9.443 192.44,9.795 192.175,10.125 L196.972,10.125 L197.346,10.037 L198.82,10.917 C197.94,12.281 196.642,13.469 195.146,14.504 C196.532,15.032 198.072,15.428 199.591,15.714 L199.591,8.453 Z M190.789,12.061 C191.361,12.567 192.043,13.051 192.836,13.447 C193.672,13.051 194.376,12.567 195.014,12.061 L190.789,12.061 Z M199.591,16.044 C199.151,16.55 198.666,17.254 198.424,17.716 C196.51,17.32 194.64,16.66 192.946,15.78 C192.374,16.088 191.779,16.352 191.185,16.616 C192.924,16.99 194.992,17.628 196.224,18.178 L195.168,19.784 C193.87,19.19 191.537,18.398 189.689,18.002 L190.503,16.88 C189.315,17.342 188.083,17.716 186.895,18.002 C186.719,17.496 186.323,16.748 185.949,16.22 L185.949,22.733 L196.356,22.733 C194.156,21.941 190.591,21.149 187.687,20.819 L188.875,19.124 C191.845,19.432 195.564,20.224 197.808,20.995 L196.73,22.733 L199.591,22.733 L199.591,16.044 Z M178.757,16.352 C176.358,16.352 176.094,13.602 176.116,9.377 L174.246,9.377 C174.136,10.345 173.96,11.225 173.696,12.017 C174.642,12.611 175.5,13.183 176.094,13.646 L174.73,15.67 C174.224,15.252 173.476,14.702 172.684,14.13 C172.112,14.944 171.342,15.626 170.374,16.22 L171.254,16.22 C171.21,16.66 171.144,17.1 171.1,17.518 L179.021,17.518 C179.021,17.518 178.999,18.222 178.933,18.552 C178.581,22.381 178.185,24.119 177.459,24.823 C176.864,25.417 176.204,25.593 175.28,25.659 C174.51,25.747 173.19,25.725 171.782,25.681 C171.738,24.933 171.386,23.965 170.946,23.305 C172.288,23.415 173.674,23.437 174.268,23.437 C174.708,23.437 174.994,23.415 175.236,23.217 C175.61,22.887 175.918,21.875 176.16,19.828 L170.506,19.828 C169.493,22.601 167.337,24.669 162.034,25.879 C161.792,25.175 161.176,24.163 160.67,23.613 C164.785,22.799 166.655,21.523 167.601,19.828 L161.66,19.828 L161.66,17.518 L168.371,17.518 C168.459,17.1 168.503,16.66 168.569,16.22 L169.559,16.22 C169.229,15.67 168.723,15.032 168.305,14.68 C169.339,14.174 170.109,13.58 170.638,12.831 C170.065,12.457 169.493,12.127 169.009,11.841 L169.031,12.501 C168.151,12.633 167.271,12.765 166.391,12.897 L166.391,14.218 C166.391,15.362 166.193,15.934 165.423,16.286 C164.697,16.638 163.663,16.66 162.21,16.66 C162.122,16 161.814,15.098 161.528,14.482 C162.408,14.504 163.333,14.504 163.619,14.504 C163.905,14.504 163.993,14.416 163.993,14.174 L163.993,13.249 L161.154,13.646 L160.736,11.291 C161.66,11.203 162.782,11.071 163.993,10.917 L163.993,9.465 L161.088,9.465 L161.088,7.177 L163.993,7.177 L163.993,5.284 L166.391,5.284 L166.391,7.177 L168.833,7.177 L168.833,9.465 L166.391,9.465 L166.391,10.609 C167.249,10.499 168.085,10.367 168.943,10.279 L168.987,11.775 L170.264,10.037 C170.682,10.235 171.122,10.477 171.562,10.763 C171.672,10.323 171.76,9.883 171.826,9.377 L169.339,9.377 L169.339,7.221 L172.002,7.221 C172.046,6.605 172.046,5.966 172.068,5.262 L174.488,5.262 C174.466,5.944 174.466,6.583 174.422,7.221 L176.138,7.221 L176.138,7.199 L178.515,7.199 C178.339,11.511 178.317,14.13 178.867,14.13 C179.131,14.13 179.241,13.558 179.307,12.303 C179.791,12.721 180.583,13.073 181.155,13.227 C180.935,15.67 180.275,16.352 178.757,16.352 Z M153.61,23.019 C154.6,23.041 157.901,23.019 159.177,22.997 C158.803,23.591 158.385,24.779 158.253,25.527 L153.456,25.527 C149.078,25.527 145.623,24.757 143.313,21.457 C142.587,23.195 141.641,24.735 140.298,25.813 C139.858,25.307 138.934,24.493 138.34,24.141 C140.804,22.183 141.839,18.486 142.147,15.406 L144.853,15.714 C144.699,16.66 144.501,17.65 144.237,18.618 C145.007,20.224 146.107,21.259 147.405,21.919 L147.405,14.504 L139.088,14.504 L139.088,12.061 L147.405,12.061 L147.405,9.927 L141.024,9.927 L141.024,7.529 L147.405,7.529 L147.405,5.284 L150.09,5.284 L150.09,7.529 L156.867,7.529 L156.867,9.927 L150.09,9.927 L150.09,12.061 L158.583,12.061 L158.583,14.504 L150.09,14.504 L150.09,17.166 L157.109,17.166 L157.109,19.498 L150.09,19.498 L150.09,22.755 C151.19,22.953 152.378,23.019 153.61,23.019 Z M137.089,23.085 C136.517,23.701 135.769,24.911 135.439,25.659 C132.006,25.175 129.168,24.317 126.792,23.019 C124.151,24.405 121.071,25.285 117.77,25.813 C117.55,25.131 116.868,23.877 116.362,23.305 C119.289,22.931 121.973,22.293 124.283,21.325 C122.633,19.982 121.291,18.31 120.169,16.286 L121.357,15.868 L118.474,15.868 L118.474,13.293 L125.383,13.293 L125.383,10.741 L117.396,10.741 L117.396,8.145 L125.383,8.145 L125.383,5.262 L128.112,5.262 L128.112,8.145 L136.143,8.145 L136.143,10.741 L128.112,10.741 L128.112,13.293 L132.446,13.293 L132.908,13.205 L134.735,14.284 C133.591,17.254 131.808,19.542 129.52,21.303 C131.654,22.161 134.185,22.777 137.089,23.085 Z M130.928,15.868 L122.897,15.868 C123.865,17.496 125.207,18.882 126.924,19.96 C128.596,18.904 129.96,17.54 130.928,15.868 Z M113.461,25.747 C111.943,24.867 110.644,23.701 109.522,22.293 C108.356,23.745 106.904,24.933 105.166,25.901 C104.858,25.351 103.999,24.251 103.471,23.767 C105.386,22.843 106.86,21.633 108.048,20.07 C107.212,18.64 106.508,17.034 105.958,15.274 C105.606,15.846 105.21,16.374 104.814,16.858 C104.528,16.352 103.779,15.384 103.229,14.812 L103.229,25.857 L100.633,25.857 L100.633,20.18 C97.134,21.413 96.408,21.809 95.924,22.205 C95.748,21.567 95.308,20.378 94.912,19.806 C95.33,19.564 95.726,19.146 95.726,18.244 L95.726,7.639 L98.301,7.639 L98.301,18.376 L100.633,17.672 L100.633,5.614 L103.229,5.614 L103.229,14.284 C104.946,12.149 105.958,8.805 106.486,5.262 L109.148,5.702 C108.928,6.935 108.686,8.167 108.378,9.333 L115.089,9.333 L115.089,11.819 L113.769,11.819 C113.197,15.076 112.339,17.826 111.04,20.092 C112.207,21.567 113.593,22.755 115.243,23.591 C114.671,24.053 113.857,25.043 113.461,25.747 Z M111.173,11.819 L107.586,11.819 C107.52,12.017 107.432,12.215 107.366,12.413 C107.872,14.306 108.576,16.11 109.456,17.694 C110.27,16.022 110.82,14.064 111.173,11.819 Z M93.133,13.712 C92.605,14.284 92.011,15.318 91.681,16 C88.314,15.758 85.322,15.23 82.836,14.306 C80.019,15.274 76.917,15.89 73.814,16.264 C73.638,15.604 73.198,14.57 72.802,13.976 C75.2,13.778 77.599,13.403 79.799,12.831 C78.941,12.325 78.193,11.709 77.489,11.005 C76.741,11.533 75.927,12.061 75.002,12.523 C74.694,11.907 73.968,10.917 73.484,10.499 C76.587,9.091 78.633,7.111 79.755,5.24 L82.418,5.79 C82.087,6.318 81.735,6.847 81.339,7.353 L89.569,7.353 L89.943,7.243 L91.593,8.299 C90.273,10.213 88.38,11.709 86.114,12.875 C88.204,13.337 90.581,13.602 93.133,13.712 Z M87.324,9.531 L79.337,9.531 L79.183,9.663 C80.085,10.587 81.295,11.335 82.814,11.929 C84.574,11.291 86.114,10.499 87.324,9.531 Z M51,22.183 L56.677,22.183 L56.677,5.548 L59.383,5.548 L59.383,22.183 L62.266,22.183 L62.266,5.548 L64.972,5.548 L64.972,17.672 C66.072,15.582 67.393,12.457 68.119,9.949 L70.473,11.071 C69.505,13.844 68.119,16.946 66.974,19.058 L64.972,18.046 L64.972,22.183 L70.671,22.183 L70.671,24.801 L51,24.801 L51,22.183 Z M51.264,10.587 L53.663,9.883 C54.697,12.457 55.973,15.912 56.523,18.002 L53.905,18.926 C53.421,16.814 52.276,13.293 51.264,10.587 Z M74.43,19.674 L74.43,17.452 L80.657,17.452 C80.789,16.858 80.921,16.264 81.009,15.582 L83.716,15.802 C83.606,16.396 83.496,16.924 83.342,17.452 L91.329,17.452 C91.329,17.452 91.263,18.156 91.197,18.508 C90.713,22.249 90.163,24.009 89.349,24.713 C88.71,25.307 88.006,25.483 87.016,25.527 C86.202,25.571 84.794,25.571 83.342,25.505 C83.298,24.823 82.968,23.877 82.528,23.261 C83.958,23.393 85.542,23.415 86.202,23.415 C86.664,23.415 86.972,23.393 87.258,23.173 C87.698,22.821 88.116,21.743 88.446,19.674 L82.572,19.674 C81.075,22.887 78.479,24.669 74.496,25.769 C74.232,25.219 73.462,24.119 72.978,23.613 C76.191,22.953 78.413,21.765 79.689,19.674 L74.43,19.674 Z" id="形状" fill="url(#linearGradient-7)" fill-rule="nonzero"></path>
        </g>
    </g>
</svg>