<?xml version="1.0" encoding="UTF-8"?>
<svg width="477px" height="244px" viewBox="0 0 477 244" version="1.1" xmlns="http://www.w3.org/2000/svg" xmlns:xlink="http://www.w3.org/1999/xlink">
    <title>zjld_kuang_zuo1</title>
    <defs>
        <linearGradient x1="0%" y1="0%" x2="100%" y2="0%" id="linearGradient-1">
            <stop stop-color="#030E6A" stop-opacity="0.8" offset="0%"></stop>
            <stop stop-color="#030E6A" stop-opacity="0" offset="100%"></stop>
        </linearGradient>
        <linearGradient x1="50%" y1="0%" x2="50%" y2="100%" id="linearGradient-2">
            <stop stop-color="#031270" offset="0%"></stop>
            <stop stop-color="#031270" stop-opacity="0.584380463" offset="40.8134834%"></stop>
            <stop stop-color="#031270" offset="100%"></stop>
        </linearGradient>
        <linearGradient x1="19.6284089%" y1="36.9165109%" x2="28.9870627%" y2="63.0834891%" id="linearGradient-3">
            <stop stop-color="#2845FB" offset="0%"></stop>
            <stop stop-color="#2845FB" stop-opacity="0.0366586538" offset="22.8845276%"></stop>
            <stop stop-color="#2845FB" offset="50.2340994%"></stop>
            <stop stop-color="#2845FB" stop-opacity="0" offset="100%"></stop>
        </linearGradient>
        <linearGradient x1="100%" y1="72.4361727%" x2="0%" y2="72.4361727%" id="linearGradient-4">
            <stop stop-color="#0A54FF" stop-opacity="0" offset="0%"></stop>
            <stop stop-color="#0A54FF" offset="100%"></stop>
        </linearGradient>
        <linearGradient x1="0%" y1="0%" x2="100%" y2="0%" id="linearGradient-5">
            <stop stop-color="#4BAAE4" stop-opacity="0" offset="0%"></stop>
            <stop stop-color="#4BAAE4" offset="12.7349213%"></stop>
            <stop stop-color="#005174" stop-opacity="0" offset="100%"></stop>
        </linearGradient>
        <linearGradient x1="0%" y1="0%" x2="100%" y2="0%" id="linearGradient-6">
            <stop stop-color="#4BAAE4" stop-opacity="0" offset="0%"></stop>
            <stop stop-color="#4BAAE4" offset="12.7349213%"></stop>
            <stop stop-color="#005174" stop-opacity="0" offset="100%"></stop>
        </linearGradient>
        <linearGradient x1="0%" y1="-1.11022302e-14%" x2="99.939%" y2="3.49%" id="linearGradient-7">
            <stop stop-color="#00C0FF" offset="0%"></stop>
            <stop stop-color="#43F0FF" offset="49%"></stop>
            <stop stop-color="#00C0FF" offset="100%"></stop>
        </linearGradient>
    </defs>
    <g id="页面-1" stroke="none" stroke-width="1" fill="none" fill-rule="evenodd">
        <g id="zjld_kuang_zuo1">
            <polygon id="路径" fill="url(#linearGradient-1)" points="252 0 0 0 0 32 279 32"></polygon>
            <polygon id="路径" fill="url(#linearGradient-2)" opacity="0.302" points="253.13219 0.134990042 279.289771 31.5596718 477 31.0527092 477 244 0 244 0 0"></polygon>
            <path d="M0.5,0.500268707 L252.896823,0.635873617 L279.05501,32.2516072 L476.5,31.7422914 L476.5,243.503 L0.5,243.503 L0.5,0.500268707 Z" id="路径" stroke="url(#linearGradient-3)"></path>
            <polygon id="路径" fill="url(#linearGradient-4)" opacity="0.302" points="-5.68434189e-14 0 252.544 0 279.544 32 -5.68434189e-14 32"></polygon>
            <path d="M24.275,7.635 L29.784,7.635 C32.067,7.635 33.917,9.466 33.917,11.725 L25.644,23.901 C24.566,24.843 22.419,26.729 20.142,26.7240099 L14.632,26.7240099 C12.35,26.7240099 10.5,24.892 10.5,22.633 L18.765,10.362 C20.853,8.295 21.448,7.635 24.275,7.635 Z" id="路径" fill="#00D4E8"></path>
            <path d="M31.162,4.908 L36.672,4.908 C38.954,4.908 40.804,6.739 40.804,8.998 L32.531,21.174 C31.453,22.116 29.306,24.002 27.03,23.9970099 L21.52,23.9970099 C19.238,23.9970099 17.387,22.165 17.387,19.906 L25.652,7.635 C27.741,5.568 28.335,4.908 31.162,4.908 Z" id="路径" fill="#2845FB" opacity="0.502"></path>
            <polyline id="路径" stroke="url(#linearGradient-5)" points="430.5 26.5 297.5 26.5 283.5 10.5"></polyline>
            <polyline id="路径" stroke="url(#linearGradient-6)" opacity="0.4" points="434.709 19.479 301.01 19.479 288.5 4.5"></polyline>
            <polygon id="路径" fill="#1050D3" opacity="0.2" points="467.237 12.479 462.422 12.479 470.043 23.099 474.858 23.099"></polygon>
            <polygon id="路径" fill="#2563E1" opacity="0.502" points="457.002 12.479 452.187 12.479 459.807 23.099 464.622 23.099"></polygon>
            <polygon id="路径" fill="#4680F5" points="446.767 12.479 441.952 12.479 449.572 23.099 454.387 23.099"></polygon>
            <path d="M221.59,22.535 C221.59,23.283 221.634,23.393 222.031,23.393 L222.977,23.393 C223.395,23.393 223.483,22.931 223.549,20.29 C224.077,20.709 225.133,21.127 225.837,21.325 C225.617,24.735 224.979,25.747 223.241,25.747 L221.546,25.747 C219.456,25.747 218.972,24.933 218.972,22.535 L218.972,15.802 L217.102,15.802 C216.86,20.753 216.134,24.097 211.711,25.989 C211.403,25.329 210.721,24.361 210.171,23.877 C213.911,22.403 214.373,19.872 214.527,15.802 L212.437,15.802 L212.437,6.428 L224.231,6.428 L224.231,15.802 L221.59,15.802 L221.59,22.535 Z M221.436,8.849 L215.034,8.849 L215.034,13.381 L221.436,13.381 L221.436,8.849 Z M204.956,23.437 C206.144,21.699 207.794,18.838 209.137,16.176 L211.073,17.892 C209.907,20.312 208.543,22.909 207.222,25.131 L204.956,23.437 Z M205.264,7.573 L207.288,6.164 C208.543,7.529 210.237,9.465 211.007,10.719 L208.829,12.325 C208.147,11.049 206.562,9.025 205.264,7.573 Z M189.183,12.413 L195.014,12.413 L195.014,11.467 L190.459,11.467 L190.503,11.577 L188.787,12.413 C188.633,11.775 188.325,10.851 187.973,9.993 L187.973,25.989 L185.618,25.989 L185.618,5.46 L187.973,5.46 L187.973,8.981 L189.227,8.453 C189.689,9.399 190.195,10.631 190.459,11.445 L190.459,9.707 L195.014,9.707 L195.014,8.827 L189.865,8.827 L189.865,6.957 L195.014,6.957 L195.014,5.46 L197.61,5.46 L197.61,6.957 L202.935,6.957 L202.935,8.827 L197.61,8.827 L197.61,9.707 L202.341,9.707 L202.341,11.467 L197.61,11.467 L197.61,12.413 L203.595,12.413 L203.595,14.284 L189.183,14.284 L189.183,12.413 Z M182.824,15.538 C183.286,14.042 183.616,11.577 183.726,9.795 L185.574,10.037 C185.53,11.863 185.178,14.482 184.716,16.176 L182.824,15.538 Z M176.424,25.967 C176.336,25.285 176.006,24.141 175.676,23.481 C176.622,23.547 177.678,23.525 177.987,23.525 C178.317,23.525 178.427,23.415 178.427,23.063 L178.427,18.728 L175.082,18.728 C174.84,21.325 174.29,24.075 173.102,26.055 C172.684,25.593 171.606,24.801 171.034,24.581 C171.1,24.449 171.188,24.339 171.254,24.207 L169.427,25.241 C168.987,24.383 167.931,22.931 167.073,21.919 L169.053,20.841 C169.845,21.721 170.88,22.931 171.43,23.833 C172.706,21.083 172.816,17.364 172.816,14.504 L172.816,6.428 L180.957,6.428 L180.957,23.107 C180.957,24.405 180.715,25.087 179.945,25.505 C179.175,25.923 178.053,25.989 176.424,25.967 Z M178.427,8.805 L175.258,8.805 L175.258,11.379 L178.427,11.379 L178.427,8.805 Z M178.427,13.689 L175.258,13.689 L175.258,14.504 C175.258,15.076 175.258,15.714 175.236,16.396 L178.427,16.396 L178.427,13.689 Z M170.571,18.508 L171.914,18.508 L171.914,20.797 L161.11,20.797 L161.11,18.508 L163.09,18.508 L163.09,10.345 L161.374,10.345 L161.374,8.057 L163.09,8.057 L163.09,5.724 L165.445,5.724 L165.445,8.057 L168.173,8.057 L168.173,5.724 L170.571,5.724 L170.571,8.057 L172.068,8.057 L172.068,10.345 L170.571,10.345 L170.571,18.508 Z M168.173,10.345 L165.445,10.345 L165.445,11.621 L168.173,11.621 L168.173,10.345 Z M168.173,13.623 L165.445,13.623 L165.445,15.01 L168.173,15.01 L168.173,13.623 Z M168.173,17.012 L165.445,17.012 L165.445,18.508 L168.173,18.508 L168.173,17.012 Z M166.281,21.677 C165.511,23.283 164.213,24.999 163.024,26.077 C162.54,25.615 161.528,24.867 160.934,24.515 C162.078,23.657 163.222,22.271 163.838,20.951 L166.281,21.677 Z M153.918,25.681 C153.808,24.999 153.39,23.877 153.038,23.173 C154.204,23.217 155.392,23.217 155.767,23.217 C156.141,23.217 156.273,23.085 156.273,22.711 L156.273,5.702 L158.825,5.702 L158.825,22.733 C158.825,24.119 158.561,24.779 157.725,25.197 C156.889,25.593 155.634,25.681 153.918,25.681 Z M152.07,7.507 L154.49,7.507 L154.49,20.797 L152.07,20.797 L152.07,7.507 Z M151.168,13.689 L149.188,14.988 C149.056,14.658 148.88,14.284 148.681,13.888 C142.609,14.394 141.662,14.504 141.024,14.768 C140.87,14.24 140.452,13.073 140.188,12.391 C140.518,12.303 140.87,11.951 141.2,11.467 C141.442,11.137 142.037,10.147 142.565,9.003 L139.77,9.003 L139.77,6.758 L151.212,6.758 L151.212,9.003 L148.109,9.003 C149.254,10.433 150.618,12.391 151.168,13.689 Z M145.403,9.003 C144.853,10.059 144.171,11.159 143.489,12.105 L147.471,11.885 C147.053,11.247 146.613,10.631 146.195,10.081 L148.043,9.003 L145.403,9.003 Z M144.303,19.058 L140.298,19.058 L140.298,16.792 L144.303,16.792 L144.303,14.834 L146.789,14.834 L146.789,16.792 L150.75,16.792 L150.75,19.058 L146.789,19.058 L146.789,21.633 C148.175,21.391 149.606,21.149 150.992,20.929 L151.124,23.173 C147.273,23.921 143.115,24.669 140.122,25.197 L139.55,22.777 C140.87,22.601 142.521,22.337 144.303,22.051 L144.303,19.058 Z M132.27,20.907 C131.632,22.711 130.554,24.515 128.816,26.077 C128.376,25.505 127.474,24.691 126.836,24.295 C130.466,21.171 130.796,16.99 130.796,14.262 L130.796,13.227 L133.282,13.227 L133.282,14.328 C133.282,14.944 133.26,15.626 133.216,16.374 C133.943,19.652 135.395,22.469 137.881,23.745 C137.309,24.251 136.517,25.263 136.143,25.967 C134.383,24.867 133.15,23.085 132.27,20.907 Z M133.965,15.406 C134.251,14.482 134.559,13.139 134.801,11.797 L130.532,11.797 C130.026,13.469 129.41,14.944 128.684,16.132 C128.332,15.802 127.628,15.23 127.034,14.834 L127.034,15.736 L118.078,15.736 L118.078,13.623 L127.034,13.623 L127.056,13.756 C128.2,11.643 128.882,8.585 129.212,5.504 L131.742,5.856 C131.588,7.067 131.39,8.277 131.148,9.421 L135.505,9.421 L135.879,9.311 L137.705,9.817 C137.265,11.973 136.649,14.46 136.077,16.066 L133.965,15.406 Z M123.777,10.477 L127.166,10.477 L127.166,12.589 L117.946,12.589 L117.946,10.477 L121.335,10.477 L121.335,9.355 L117.396,9.355 L117.396,7.221 L121.335,7.221 L121.335,5.614 L123.777,5.614 L123.777,7.221 L127.65,7.221 L127.65,9.355 L123.777,9.355 L123.777,10.477 Z M127.914,18.926 L123.799,18.926 L123.799,23.547 C123.799,24.625 123.645,25.241 122.919,25.593 C122.237,25.967 121.335,26.011 120.147,26.011 C120.059,25.307 119.728,24.383 119.442,23.745 C120.125,23.767 120.829,23.767 121.071,23.767 C121.291,23.767 121.357,23.701 121.357,23.503 L121.357,18.926 L117.11,18.926 L117.11,16.77 L127.914,16.77 L127.914,18.926 Z M120.631,19.828 C120.213,21.435 119.486,23.305 118.87,24.493 C118.386,24.207 117.418,23.789 116.868,23.613 C117.528,22.491 118.1,20.819 118.496,19.344 L120.631,19.828 Z M110.292,23.239 C110.292,24.559 110.072,25.241 109.126,25.637 C108.202,25.989 106.904,26.033 105.144,26.011 C105.056,25.263 104.747,24.251 104.417,23.503 C105.518,23.569 106.816,23.569 107.168,23.569 C107.542,23.547 107.652,23.459 107.652,23.173 L107.652,20.488 L102.063,20.488 L102.063,18.046 L107.652,18.046 L107.652,16.506 C108.334,16.088 109.06,15.494 109.742,14.878 L103.779,14.878 L103.779,12.523 L112.141,12.523 L112.691,12.369 L114.341,13.712 C113.219,14.9 111.745,16.198 110.292,17.21 L110.292,18.046 L115.507,18.046 L115.507,20.488 L110.292,20.488 L110.292,23.239 Z M100.787,15.318 L100.787,25.967 L98.147,25.967 L98.147,18.288 C97.486,18.882 96.826,19.41 96.078,19.916 C95.814,19.234 95.242,18.068 94.846,17.408 C97.222,15.846 99.137,13.447 100.479,10.807 L95.638,10.807 L95.638,8.299 L101.601,8.299 C101.953,7.331 102.261,6.384 102.503,5.438 L105.232,6.098 C105.012,6.847 104.747,7.551 104.483,8.299 L115.177,8.299 L115.177,10.807 L103.449,10.807 C102.701,12.391 101.821,13.91 100.787,15.318 Z M88.424,25.967 C88.336,25.285 88.006,24.141 87.676,23.481 C88.622,23.547 89.678,23.525 89.987,23.525 C90.317,23.525 90.427,23.415 90.427,23.063 L90.427,18.728 L87.082,18.728 C86.84,21.325 86.29,24.075 85.102,26.055 C84.684,25.593 83.606,24.801 83.034,24.581 C83.1,24.449 83.188,24.339 83.254,24.207 L81.427,25.241 C80.987,24.383 79.931,22.931 79.073,21.919 L81.053,20.841 C81.845,21.721 82.88,22.931 83.43,23.833 C84.706,21.083 84.816,17.364 84.816,14.504 L84.816,6.428 L92.957,6.428 L92.957,23.107 C92.957,24.405 92.715,25.087 91.945,25.505 C91.175,25.923 90.053,25.989 88.424,25.967 Z M90.427,8.805 L87.258,8.805 L87.258,11.379 L90.427,11.379 L90.427,8.805 Z M90.427,13.689 L87.258,13.689 L87.258,14.504 C87.258,15.076 87.258,15.714 87.236,16.396 L90.427,16.396 L90.427,13.689 Z M82.571,18.508 L83.914,18.508 L83.914,20.797 L73.11,20.797 L73.11,18.508 L75.09,18.508 L75.09,10.345 L73.374,10.345 L73.374,8.057 L75.09,8.057 L75.09,5.724 L77.445,5.724 L77.445,8.057 L80.173,8.057 L80.173,5.724 L82.571,5.724 L82.571,8.057 L84.068,8.057 L84.068,10.345 L82.571,10.345 L82.571,18.508 Z M80.173,10.345 L77.445,10.345 L77.445,11.621 L80.173,11.621 L80.173,10.345 Z M80.173,13.623 L77.445,13.623 L77.445,15.01 L80.173,15.01 L80.173,13.623 Z M80.173,17.012 L77.445,17.012 L77.445,18.508 L80.173,18.508 L80.173,17.012 Z M78.281,21.677 C77.511,23.283 76.213,24.999 75.024,26.077 C74.54,25.615 73.528,24.867 72.934,24.515 C74.078,23.657 75.222,22.271 75.838,20.951 L78.281,21.677 Z M65.214,25.703 C61.1,25.703 58.085,25.021 56.083,21.831 C55.357,23.547 54.389,24.977 53.134,26.055 C52.716,25.593 51.594,24.669 51,24.317 C53.376,22.535 54.477,19.476 54.873,15.736 L57.535,15.978 C57.425,16.902 57.249,17.804 57.073,18.64 C57.733,20.444 58.745,21.501 60.021,22.161 L60.021,14.702 L55.335,14.702 L55.335,12.193 L67.436,12.193 L67.436,14.702 L62.75,14.702 L62.75,17.298 L68.779,17.298 L68.779,19.762 L62.75,19.762 L62.75,22.931 C63.564,23.041 64.422,23.085 65.346,23.085 C66.512,23.085 70.143,23.085 71.639,23.041 C71.243,23.657 70.825,24.911 70.693,25.703 L65.214,25.703 Z M68.097,10.257 L54.565,10.257 L54.565,13.293 L51.99,13.293 L51.99,7.793 L60.153,7.793 C59.933,7.177 59.669,6.538 59.383,5.966 L62.024,5.24 C62.464,6.01 62.926,7.001 63.168,7.793 L70.803,7.793 L70.803,13.293 L68.097,13.293 L68.097,10.257 Z M127.782,22.667 L125.735,23.525 C125.493,22.645 124.921,21.171 124.415,20.048 L126.351,19.3 C126.902,20.356 127.518,21.765 127.782,22.667 Z M202.121,23.503 C202.121,24.647 201.901,25.263 201.109,25.615 C200.339,25.989 199.238,25.989 197.72,25.989 C197.632,25.351 197.324,24.405 197.016,23.767 C197.918,23.833 198.952,23.811 199.238,23.811 C199.546,23.811 199.656,23.723 199.656,23.459 L199.656,22.733 L193.078,22.733 L193.078,26.033 L190.657,26.033 L190.657,15.12 L202.121,15.12 L202.121,23.503 Z M199.656,17.034 L193.078,17.034 L193.078,18.068 L199.656,18.068 L199.656,17.034 Z M199.656,19.916 L193.078,19.916 L193.078,20.929 L199.656,20.929 L199.656,19.916 Z" id="形状" fill="url(#linearGradient-7)" fill-rule="nonzero"></path>
        </g>
    </g>
</svg>