<?xml version="1.0" encoding="UTF-8"?>
<svg width="477px" height="376px" viewBox="0 0 477 376" version="1.1" xmlns="http://www.w3.org/2000/svg" xmlns:xlink="http://www.w3.org/1999/xlink">
    <title>zjld_kuang_you2</title>
    <defs>
        <linearGradient x1="0%" y1="0%" x2="100%" y2="0%" id="linearGradient-1">
            <stop stop-color="#030E6A" stop-opacity="0.8" offset="0%"></stop>
            <stop stop-color="#030E6A" stop-opacity="0" offset="100%"></stop>
        </linearGradient>
        <linearGradient x1="50%" y1="0%" x2="50%" y2="100%" id="linearGradient-2">
            <stop stop-color="#031270" offset="0%"></stop>
            <stop stop-color="#031270" stop-opacity="0.584380463" offset="40.8134834%"></stop>
            <stop stop-color="#031270" offset="100%"></stop>
        </linearGradient>
        <linearGradient x1="19.6284089%" y1="18.9318162%" x2="28.9870627%" y2="81.0681838%" id="linearGradient-3">
            <stop stop-color="#2845FB" offset="0%"></stop>
            <stop stop-color="#2845FB" stop-opacity="0.0366586538" offset="22.8845276%"></stop>
            <stop stop-color="#2845FB" offset="50.2340994%"></stop>
            <stop stop-color="#2845FB" stop-opacity="0" offset="100%"></stop>
        </linearGradient>
        <linearGradient x1="100%" y1="72.4361727%" x2="0%" y2="72.4361727%" id="linearGradient-4">
            <stop stop-color="#0A54FF" stop-opacity="0" offset="0%"></stop>
            <stop stop-color="#0A54FF" offset="100%"></stop>
        </linearGradient>
        <linearGradient x1="0%" y1="0%" x2="100%" y2="0%" id="linearGradient-5">
            <stop stop-color="#4BAAE4" stop-opacity="0" offset="0%"></stop>
            <stop stop-color="#4BAAE4" offset="12.7349213%"></stop>
            <stop stop-color="#005174" stop-opacity="0" offset="100%"></stop>
        </linearGradient>
        <linearGradient x1="0%" y1="0%" x2="100%" y2="0%" id="linearGradient-6">
            <stop stop-color="#4BAAE4" stop-opacity="0" offset="0%"></stop>
            <stop stop-color="#4BAAE4" offset="12.7349213%"></stop>
            <stop stop-color="#005174" stop-opacity="0" offset="100%"></stop>
        </linearGradient>
        <linearGradient x1="0%" y1="0%" x2="99.939%" y2="3.49%" id="linearGradient-7">
            <stop stop-color="#00C0FF" offset="0%"></stop>
            <stop stop-color="#43F0FF" offset="49%"></stop>
            <stop stop-color="#00C0FF" offset="100%"></stop>
        </linearGradient>
    </defs>
    <g id="页面-1" stroke="none" stroke-width="1" fill="none" fill-rule="evenodd">
        <g id="zjld_kuang_you2">
            <polygon id="路径" fill="url(#linearGradient-1)" points="252 0 0 0 0 32 279 32"></polygon>
            <polygon id="路径" fill="url(#linearGradient-2)" opacity="0.302" points="253.13219 0.134990042 279.289771 31.5596718 477 31.0527092 477 376 0 376 0 0"></polygon>
            <path d="M0.5,0.500268707 L252.896823,0.635873617 L279.05501,32.2516072 L476.5,31.7422914 L476.5,375.503 L0.5,375.503 L0.5,0.500268707 Z" id="路径" stroke="url(#linearGradient-3)"></path>
            <polygon id="路径" fill="url(#linearGradient-4)" opacity="0.302" points="0 0 252.544 0 279.544 32 0 32"></polygon>
            <path d="M24.275,7.635 L29.784,7.635 C32.067,7.635 33.917,9.466 33.917,11.725 L25.644,23.901 C24.566,24.843 22.419,26.729 20.142,26.7240099 L14.632,26.7240099 C12.35,26.7240099 10.5,24.892 10.5,22.633 L18.765,10.362 C20.853,8.295 21.448,7.635 24.275,7.635 Z" id="路径" fill="#00D4E8"></path>
            <path d="M31.162,4.908 L36.672,4.908 C38.954,4.908 40.804,6.739 40.804,8.998 L32.531,21.174 C31.453,22.116 29.306,24.002 27.03,23.9970099 L21.52,23.9970099 C19.238,23.9970099 17.387,22.165 17.387,19.906 L25.652,7.635 C27.741,5.568 28.335,4.908 31.162,4.908 Z" id="路径" fill="#2845FB" opacity="0.502"></path>
            <polyline id="路径" stroke="url(#linearGradient-5)" points="430.5 26.5 297.5 26.5 283.5 10.5"></polyline>
            <polyline id="路径" stroke="url(#linearGradient-6)" opacity="0.4" points="434.709 19.479 301.01 19.479 288.5 4.5"></polyline>
            <polygon id="路径" fill="#1050D3" opacity="0.2" points="467.237 12.479 462.422 12.479 470.043 23.099 474.858 23.099"></polygon>
            <polygon id="路径" fill="#2563E1" opacity="0.502" points="457.002 12.479 452.187 12.479 459.807 23.099 464.622 23.099"></polygon>
            <polygon id="路径" fill="#4680F5" points="446.767 12.479 441.952 12.479 449.572 23.099 454.387 23.099"></polygon>
            <path d="M181.837,10.839 L170.065,10.839 C169.537,11.983 168.965,13.105 168.283,14.162 L171.826,14.162 L171.826,11.631 L174.466,11.631 L174.466,14.162 L180.781,14.162 L180.781,20.983 C180.781,22.193 180.539,22.853 179.659,23.249 C178.823,23.623 177.634,23.645 175.984,23.645 C175.874,22.919 175.5,21.929 175.17,21.269 C176.182,21.313 177.348,21.313 177.656,21.313 C178.008,21.313 178.118,21.225 178.118,20.939 L178.118,16.648 L174.466,16.648 L174.466,25.735 L171.826,25.735 L171.826,16.648 L168.349,16.648 L168.349,23.799 L165.731,23.799 L165.731,17.44 C164.873,18.342 163.97,19.134 162.936,19.86 C162.606,19.2 161.924,18.144 161.462,17.55 C163.904,15.966 165.775,13.524 167.139,10.839 L162.232,10.839 L162.232,8.331 L168.261,8.331 C168.679,7.253 169.009,6.196 169.251,5.14 L171.958,5.756 C171.694,6.615 171.408,7.473 171.099,8.331 L181.837,8.331 L181.837,10.839 Z M156.999,14.338 L156.999,14.404 C156.779,20.895 156.515,23.491 155.744,24.393 C155.194,25.097 154.6,25.339 153.764,25.427 C152.972,25.537 151.74,25.537 150.42,25.493 C150.376,24.701 150.046,23.601 149.584,22.853 C150.772,22.963 151.938,22.963 152.466,22.963 C152.862,22.963 153.104,22.897 153.346,22.677 C153.808,22.171 154.028,20.3 154.226,15.834 L149.628,15.834 C149.055,19.992 147.603,23.733 141.948,25.823 C141.64,25.119 140.892,24.063 140.298,23.491 C145.205,21.907 146.371,19.002 146.833,15.834 L143.291,15.834 L143.291,14.536 C142.873,14.998 142.432,15.416 141.97,15.79 C141.486,15.24 140.386,14.184 139.748,13.722 C142.322,11.873 144.545,8.793 145.777,5.514 L148.593,6.284 C147.603,8.837 146.129,11.257 144.479,13.237 L156.074,13.237 C154.424,11.191 152.796,8.749 151.652,6.394 L154.116,5.47 C155.436,8.243 158.077,11.499 160.343,13.369 C159.683,13.876 158.715,14.888 158.231,15.592 C157.835,15.196 157.417,14.778 156.999,14.338 Z M133.04,25.713 C132.952,25.031 132.622,23.887 132.292,23.227 C133.238,23.293 134.294,23.271 134.603,23.271 C134.933,23.271 135.043,23.161 135.043,22.809 L135.043,18.474 L131.698,18.474 C131.456,21.071 130.906,23.821 129.718,25.801 C129.3,25.339 128.222,24.547 127.65,24.327 C127.716,24.195 127.804,24.085 127.87,23.953 L126.043,24.987 C125.603,24.129 124.547,22.677 123.689,21.665 L125.669,20.587 C126.461,21.467 127.496,22.677 128.046,23.579 C129.322,20.829 129.432,17.11 129.432,14.25 L129.432,6.174 L137.573,6.174 L137.573,22.853 C137.573,24.151 137.331,24.833 136.561,25.251 C135.791,25.669 134.669,25.735 133.04,25.713 Z M135.043,8.551 L131.874,8.551 L131.874,11.125 L135.043,11.125 L135.043,8.551 Z M135.043,13.435 L131.874,13.435 L131.874,14.25 C131.874,14.822 131.874,15.46 131.852,16.142 L135.043,16.142 L135.043,13.435 Z M127.187,18.254 L128.53,18.254 L128.53,20.543 L117.726,20.543 L117.726,18.254 L119.706,18.254 L119.706,10.091 L117.99,10.091 L117.99,7.803 L119.706,7.803 L119.706,5.47 L122.061,5.47 L122.061,7.803 L124.789,7.803 L124.789,5.47 L127.187,5.47 L127.187,7.803 L128.684,7.803 L128.684,10.091 L127.187,10.091 L127.187,18.254 Z M124.789,10.091 L122.061,10.091 L122.061,11.367 L124.789,11.367 L124.789,10.091 Z M124.789,13.369 L122.061,13.369 L122.061,14.756 L124.789,14.756 L124.789,13.369 Z M124.789,16.758 L122.061,16.758 L122.061,18.254 L124.789,18.254 L124.789,16.758 Z M122.897,21.423 C122.127,23.029 120.829,24.745 119.64,25.823 C119.156,25.361 118.144,24.613 117.55,24.261 C118.694,23.403 119.838,22.017 120.454,20.697 L122.897,21.423 Z M109.654,25.735 C109.566,25.031 109.214,23.953 108.862,23.293 C109.984,23.359 111.282,23.337 111.656,23.337 C112.03,23.337 112.184,23.205 112.184,22.831 L112.184,8.683 L100.435,8.683 L100.435,13.876 C100.435,17.484 100.083,22.655 97.684,25.845 C97.244,25.361 96.144,24.481 95.572,24.195 C97.662,21.313 97.838,17.088 97.838,13.876 L97.838,6.262 L114.803,6.262 L114.803,22.853 C114.803,24.217 114.517,24.855 113.659,25.295 C112.823,25.691 111.546,25.735 109.654,25.735 Z M88.886,20.653 C88.248,22.457 87.17,24.261 85.432,25.823 C84.992,25.251 84.09,24.437 83.452,24.041 C87.082,20.917 87.412,16.736 87.412,14.008 L87.412,12.973 L89.898,12.973 L89.898,14.074 C89.898,14.69 89.876,15.372 89.832,16.12 C90.559,19.398 92.011,22.215 94.497,23.491 C93.925,23.997 93.133,25.009 92.759,25.713 C90.999,24.613 89.766,22.831 88.886,20.653 Z M90.581,15.152 C90.867,14.228 91.175,12.885 91.417,11.543 L87.148,11.543 C86.642,13.215 86.026,14.69 85.3,15.878 C84.948,15.548 84.244,14.976 83.65,14.58 L83.65,15.482 L74.694,15.482 L74.694,13.369 L83.65,13.369 L83.672,13.502 C84.816,11.389 85.498,8.331 85.828,5.25 L88.358,5.602 C88.204,6.813 88.006,8.023 87.764,9.167 L92.121,9.167 L92.495,9.057 L94.321,9.563 C93.881,11.719 93.265,14.206 92.693,15.812 L90.581,15.152 Z M80.393,10.223 L83.782,10.223 L83.782,12.335 L74.562,12.335 L74.562,10.223 L77.951,10.223 L77.951,9.101 L74.012,9.101 L74.012,6.967 L77.951,6.967 L77.951,5.36 L80.393,5.36 L80.393,6.967 L84.266,6.967 L84.266,9.101 L80.393,9.101 L80.393,10.223 Z M84.53,18.672 L80.415,18.672 L80.415,23.293 C80.415,24.371 80.261,24.987 79.535,25.339 C78.853,25.713 77.951,25.757 76.763,25.757 C76.675,25.053 76.344,24.129 76.058,23.491 C76.741,23.513 77.445,23.513 77.687,23.513 C77.907,23.513 77.973,23.447 77.973,23.249 L77.973,18.672 L73.726,18.672 L73.726,16.516 L84.53,16.516 L84.53,18.672 Z M77.247,19.574 C76.829,21.181 76.102,23.051 75.486,24.239 C75.002,23.953 74.034,23.535 73.484,23.359 C74.144,22.237 74.716,20.565 75.112,19.09 L77.247,19.574 Z M66.908,22.985 C66.908,24.305 66.688,24.987 65.742,25.383 C64.818,25.735 63.52,25.779 61.76,25.757 C61.672,25.009 61.363,23.997 61.033,23.249 C62.134,23.315 63.432,23.315 63.784,23.315 C64.158,23.293 64.268,23.205 64.268,22.919 L64.268,20.234 L58.679,20.234 L58.679,17.792 L64.268,17.792 L64.268,16.252 C64.95,15.834 65.676,15.24 66.358,14.624 L60.395,14.624 L60.395,12.269 L68.757,12.269 L69.307,12.115 L70.957,13.458 C69.835,14.646 68.361,15.944 66.908,16.956 L66.908,17.792 L72.123,17.792 L72.123,20.234 L66.908,20.234 L66.908,22.985 Z M57.403,15.064 L57.403,25.713 L54.763,25.713 L54.763,18.034 C54.102,18.628 53.442,19.156 52.694,19.662 C52.43,18.98 51.858,17.814 51.462,17.154 C53.838,15.592 55.753,13.193 57.095,10.553 L52.254,10.553 L52.254,8.045 L58.217,8.045 C58.569,7.077 58.877,6.13 59.119,5.184 L61.848,5.844 C61.628,6.593 61.363,7.297 61.099,8.045 L71.793,8.045 L71.793,10.553 L60.065,10.553 C59.317,12.137 58.437,13.656 57.403,15.064 Z M84.398,22.413 L82.351,23.271 C82.109,22.391 81.537,20.917 81.031,19.794 L82.967,19.046 C83.518,20.102 84.134,21.511 84.398,22.413 Z M104.879,12.445 L101.601,12.445 L101.601,10.465 L104.879,10.465 L104.879,9.013 L107.366,9.013 L107.366,10.465 L110.82,10.465 L110.82,12.445 L107.366,12.445 L107.366,13.854 L111.26,13.854 L111.26,15.9 L101.161,15.9 L101.161,13.854 L104.879,13.854 L104.879,12.445 Z M110.424,23.117 L104.329,23.117 L104.329,24.305 L101.953,24.305 L101.953,17.154 L110.424,17.154 L110.424,23.117 Z M108.004,19.134 L104.329,19.134 L104.329,21.159 L108.004,21.159 L108.004,19.134 Z" id="形状" fill="url(#linearGradient-7)" fill-rule="nonzero"></path>
        </g>
    </g>
</svg>