<?xml version="1.0" encoding="UTF-8"?>
<svg width="76px" height="76px" viewBox="0 0 76 76" version="1.1" xmlns="http://www.w3.org/2000/svg" xmlns:xlink="http://www.w3.org/1999/xlink">
    <title>icon_tq_tqbs</title>
    <defs>
        <linearGradient x1="0%" y1="25.7932301%" x2="97.03%" y2="3.10219725%" id="linearGradient-1">
            <stop stop-color="#0E1C33" offset="0%"></stop>
            <stop stop-color="#8FDFFE" offset="100%"></stop>
        </linearGradient>
        <linearGradient x1="52.992%" y1="82.343313%" x2="0%" y2="3.53639856%" id="linearGradient-2">
            <stop stop-color="#0E1C33" offset="0%"></stop>
            <stop stop-color="#8FDFFE" offset="100%"></stop>
        </linearGradient>
        <linearGradient x1="0%" y1="0%" x2="0%" y2="100%" id="linearGradient-3">
            <stop stop-color="#1DB4FF" stop-opacity="0" offset="0%"></stop>
            <stop stop-color="#1DB4FF" stop-opacity="0.29" offset="29%"></stop>
            <stop stop-color="#1DB4FF" offset="100%"></stop>
        </linearGradient>
        <linearGradient x1="0%" y1="0%" x2="0%" y2="100%" id="linearGradient-4">
            <stop stop-color="#0E1C33" offset="0%"></stop>
            <stop stop-color="#1DB4FF" offset="100%"></stop>
        </linearGradient>
        <linearGradient x1="0%" y1="0%" x2="0%" y2="100%" id="linearGradient-5">
            <stop stop-color="#0060FF" offset="0%"></stop>
            <stop stop-color="#8FDFFE" offset="100%"></stop>
        </linearGradient>
    </defs>
    <g id="页面-1" stroke="none" stroke-width="1" fill="none" fill-rule="evenodd">
        <g id="icon_tq_tqbs">
            <polygon id="路径" fill="url(#linearGradient-1)" points="0 52 38 65.9112656 38 76 0 62.087753"></polygon>
            <polygon id="路径" fill="url(#linearGradient-2)" points="38 65.9590541 76 52 76 62.0409459 38 76"></polygon>
            <polygon id="路径" fill="#142747" points="0.031 52 37.5 39.04 76 52 38.064 66.717"></polygon>
            <polygon id="路径" fill="url(#linearGradient-3)" opacity="0.4" points="0 0.454 76 9.47874123e-14 76 52 38.064 66.717 0.031 52"></polygon>
            <path d="M54.157,44.144 L39.558,44.144 C38.61,44.144 37.84,43.376 37.84,42.427 L37.84,30.404 C37.84,29.455 38.61,28.686 39.558,28.686 L54.157,28.686 C55.107,28.686 55.875,29.455 55.875,30.404 L55.875,42.427 C55.875,43.376 55.107,44.144 54.157,44.144 Z M54.157,25.251 L44.711,25.251 C43.762,25.251 42.993,24.482 42.993,23.534 L42.993,11.511 C42.993,10.562 43.762,9.793 44.711,9.793 L54.157,9.793 C55.107,9.793 55.875,10.562 55.875,11.511 L55.875,23.534 C55.875,24.482 55.107,25.251 54.157,25.251 Z M37.84,25.251 L23.241,25.251 C22.293,25.251 21.524,24.482 21.524,23.534 L21.524,11.511 C21.524,10.562 22.293,9.793 23.241,9.793 L37.84,9.793 C38.789,9.793 39.558,10.562 39.558,11.511 L39.558,23.534 C39.558,24.482 38.789,25.251 37.84,25.251 Z M23.241,28.686 L32.688,28.686 C33.636,28.686 34.405,29.455 34.405,30.404 L34.405,42.427 C34.405,43.376 33.636,44.144 32.688,44.144 L23.241,44.144 C22.293,44.144 21.524,43.376 21.524,42.427 L21.524,30.404 C21.524,29.455 22.293,28.686 23.241,28.686 Z" id="形状" fill="url(#linearGradient-4)" fill-rule="nonzero"></path>
            <path d="M52.157,46.144 L37.558,46.144 C36.61,46.144 35.841,45.376 35.841,44.427 L35.841,32.404 C35.841,31.455 36.61,30.686 37.558,30.686 L52.157,30.686 C53.107,30.686 53.875,31.455 53.875,32.404 L53.875,44.427 C53.875,45.376 53.107,46.144 52.157,46.144 Z M52.157,27.251 L42.711,27.251 C41.761,27.251 40.993,26.482 40.993,25.534 L40.993,13.511 C40.993,12.562 41.761,11.793 42.711,11.793 L52.157,11.793 C53.107,11.793 53.875,12.562 53.875,13.511 L53.875,25.534 C53.875,26.482 53.107,27.251 52.157,27.251 Z M35.841,27.251 L21.241,27.251 C20.293,27.251 19.524,26.482 19.524,25.534 L19.524,13.511 C19.524,12.562 20.293,11.793 21.241,11.793 L35.841,11.793 C36.789,11.793 37.558,12.562 37.558,13.511 L37.558,25.534 C37.558,26.482 36.789,27.251 35.841,27.251 Z M21.241,30.686 L30.688,30.686 C31.636,30.686 32.405,31.455 32.405,32.404 L32.405,44.427 C32.405,45.376 31.636,46.144 30.688,46.144 L21.241,46.144 C20.293,46.144 19.524,45.376 19.524,44.427 L19.524,32.404 C19.524,31.455 20.293,30.686 21.241,30.686 Z" id="形状" fill="url(#linearGradient-5)" fill-rule="nonzero"></path>
        </g>
    </g>
</svg>