<?xml version="1.0" encoding="UTF-8"?>
<svg width="76px" height="70px" viewBox="0 0 76 70" version="1.1" xmlns="http://www.w3.org/2000/svg" xmlns:xlink="http://www.w3.org/1999/xlink">
    <title>icon_tqbs</title>
    <defs>
        <linearGradient x1="0%" y1="71.2638942%" x2="100%" y2="33.4261557%" id="linearGradient-1">
            <stop stop-color="#0E1C33" offset="0%"></stop>
            <stop stop-color="#8FDFFE" offset="100%"></stop>
        </linearGradient>
        <linearGradient x1="100%" y1="59.6412731%" x2="0%" y2="38.7530475%" id="linearGradient-2">
            <stop stop-color="#0E1C33" offset="0%"></stop>
            <stop stop-color="#8FDFFE" offset="100%"></stop>
        </linearGradient>
        <linearGradient x1="0%" y1="0%" x2="0%" y2="100%" id="linearGradient-3">
            <stop stop-color="#1DB4FF" stop-opacity="0" offset="0%"></stop>
            <stop stop-color="#1DB4FF" offset="100%"></stop>
        </linearGradient>
        <linearGradient x1="0%" y1="0%" x2="0%" y2="100%" id="linearGradient-4">
            <stop stop-color="#0E1C33" offset="0%"></stop>
            <stop stop-color="#1DB4FF" offset="100%"></stop>
        </linearGradient>
        <linearGradient x1="0%" y1="0%" x2="0%" y2="100%" id="linearGradient-5">
            <stop stop-color="#0060FF" offset="0%"></stop>
            <stop stop-color="#8FDFFE" offset="100%"></stop>
        </linearGradient>
    </defs>
    <g id="页面-1" stroke="none" stroke-width="1" fill="none" fill-rule="evenodd">
        <g id="icon_tqbs">
            <polygon id="路径" fill="url(#linearGradient-1)" points="0 45.06784 38 59.43184 38 69.8489067 0 55.4838933"></polygon>
            <polygon id="路径" fill="url(#linearGradient-2)" points="38 59.4906133 76 45.01008 76 55.4261333 38 69.9066667"></polygon>
            <polygon id="路径" fill="#142747" points="0.0314133333 45.46304 38 31.4405333 75.9675733 45.46304 38 59.48656"></polygon>
            <polygon id="路径" fill="url(#linearGradient-3)" opacity="0.4" points="0 0.29216 76 0.29216 76 45.6972051 38.4086682 60.29216 0 45.6972051"></polygon>
            <g id="编组" transform="translate(19.000000, 7.000000)">
                <path d="M35.157,35.144 L20.558,35.144 C19.61,35.144 18.841,34.376 18.841,33.427 L18.841,21.404 C18.841,20.455 19.61,19.686 20.558,19.686 L35.157,19.686 C36.107,19.686 36.875,20.455 36.875,21.404 L36.875,33.427 C36.875,34.376 36.107,35.144 35.157,35.144 Z M35.157,16.251 L25.711,16.251 C24.762,16.251 23.993,15.482 23.993,14.534 L23.993,2.511 C23.993,1.562 24.762,0.793 25.711,0.793 L35.157,0.793 C36.107,0.793 36.875,1.562 36.875,2.511 L36.875,14.534 C36.875,15.482 36.107,16.251 35.157,16.251 Z M18.841,16.251 L4.241,16.251 C3.293,16.251 2.524,15.482 2.524,14.534 L2.524,2.511 C2.524,1.562 3.293,0.793 4.241,0.793 L18.841,0.793 C19.789,0.793 20.558,1.562 20.558,2.511 L20.558,14.534 C20.558,15.482 19.789,16.251 18.841,16.251 Z M4.241,19.686 L13.688,19.686 C14.636,19.686 15.405,20.455 15.405,21.404 L15.405,33.427 C15.405,34.376 14.636,35.144 13.688,35.144 L4.241,35.144 C3.293,35.144 2.524,34.376 2.524,33.427 L2.524,21.404 C2.524,20.455 3.293,19.686 4.241,19.686 Z" id="形状" fill="#FFFFFF"></path>
                <path d="M35.157,35.144 L20.558,35.144 C19.61,35.144 18.841,34.376 18.841,33.427 L18.841,21.404 C18.841,20.455 19.61,19.686 20.558,19.686 L35.157,19.686 C36.107,19.686 36.875,20.455 36.875,21.404 L36.875,33.427 C36.875,34.376 36.107,35.144 35.157,35.144 Z M35.157,16.251 L25.711,16.251 C24.762,16.251 23.993,15.482 23.993,14.534 L23.993,2.511 C23.993,1.562 24.762,0.793 25.711,0.793 L35.157,0.793 C36.107,0.793 36.875,1.562 36.875,2.511 L36.875,14.534 C36.875,15.482 36.107,16.251 35.157,16.251 Z M18.841,16.251 L4.241,16.251 C3.293,16.251 2.524,15.482 2.524,14.534 L2.524,2.511 C2.524,1.562 3.293,0.793 4.241,0.793 L18.841,0.793 C19.789,0.793 20.558,1.562 20.558,2.511 L20.558,14.534 C20.558,15.482 19.789,16.251 18.841,16.251 Z M4.241,19.686 L13.688,19.686 C14.636,19.686 15.405,20.455 15.405,21.404 L15.405,33.427 C15.405,34.376 14.636,35.144 13.688,35.144 L4.241,35.144 C3.293,35.144 2.524,34.376 2.524,33.427 L2.524,21.404 C2.524,20.455 3.293,19.686 4.241,19.686 Z" id="形状" fill="url(#linearGradient-4)" fill-rule="nonzero"></path>
                <path d="M33.157,37.144 L18.558,37.144 C17.61,37.144 16.841,36.376 16.841,35.427 L16.841,23.404 C16.841,22.455 17.61,21.686 18.558,21.686 L33.157,21.686 C34.107,21.686 34.875,22.455 34.875,23.404 L34.875,35.427 C34.875,36.376 34.107,37.144 33.157,37.144 Z M33.157,18.251 L23.711,18.251 C22.762,18.251 21.993,17.482 21.993,16.534 L21.993,4.511 C21.993,3.562 22.762,2.793 23.711,2.793 L33.157,2.793 C34.107,2.793 34.875,3.562 34.875,4.511 L34.875,16.534 C34.875,17.482 34.107,18.251 33.157,18.251 Z M16.841,18.251 L2.241,18.251 C1.293,18.251 0.524,17.482 0.524,16.534 L0.524,4.511 C0.524,3.562 1.293,2.793 2.241,2.793 L16.841,2.793 C17.789,2.793 18.558,3.562 18.558,4.511 L18.558,16.534 C18.558,17.482 17.789,18.251 16.841,18.251 Z M2.241,21.686 L11.688,21.686 C12.636,21.686 13.406,22.455 13.406,23.404 L13.406,35.427 C13.406,36.376 12.636,37.144 11.688,37.144 L2.241,37.144 C1.293,37.144 0.524,36.376 0.524,35.427 L0.524,23.404 C0.524,22.455 1.293,21.686 2.241,21.686 Z" id="形状" fill="#FFFFFF"></path>
                <path d="M33.157,37.144 L18.558,37.144 C17.61,37.144 16.841,36.376 16.841,35.427 L16.841,23.404 C16.841,22.455 17.61,21.686 18.558,21.686 L33.157,21.686 C34.107,21.686 34.875,22.455 34.875,23.404 L34.875,35.427 C34.875,36.376 34.107,37.144 33.157,37.144 Z M33.157,18.251 L23.711,18.251 C22.762,18.251 21.993,17.482 21.993,16.534 L21.993,4.511 C21.993,3.562 22.762,2.793 23.711,2.793 L33.157,2.793 C34.107,2.793 34.875,3.562 34.875,4.511 L34.875,16.534 C34.875,17.482 34.107,18.251 33.157,18.251 Z M16.841,18.251 L2.241,18.251 C1.293,18.251 0.524,17.482 0.524,16.534 L0.524,4.511 C0.524,3.562 1.293,2.793 2.241,2.793 L16.841,2.793 C17.789,2.793 18.558,3.562 18.558,4.511 L18.558,16.534 C18.558,17.482 17.789,18.251 16.841,18.251 Z M2.241,21.686 L11.688,21.686 C12.636,21.686 13.406,22.455 13.406,23.404 L13.406,35.427 C13.406,36.376 12.636,37.144 11.688,37.144 L2.241,37.144 C1.293,37.144 0.524,36.376 0.524,35.427 L0.524,23.404 C0.524,22.455 1.293,21.686 2.241,21.686 Z" id="形状" fill="url(#linearGradient-5)" fill-rule="nonzero"></path>
            </g>
        </g>
    </g>
</svg>