<?xml version="1.0" encoding="UTF-8"?>
<svg width="194px" height="204px" viewBox="0 0 194 204" version="1.1" xmlns="http://www.w3.org/2000/svg" xmlns:xlink="http://www.w3.org/1999/xlink">
    <title>jinzita</title>
    <g id="页面-1" stroke="none" stroke-width="1" fill="none" fill-rule="evenodd">
        <g id="jinzita">
            <path d="M18.20258,144.988607 L97.9232921,172.414816 L97.696349,202.393514 L1.42431996,167.880905 L18.20258,144.988607 Z" id="路径" stroke="#2980B9" fill-opacity="0.8" fill="#2980B9"></path>
            <path d="M97.9404859,116.784271 L175.887429,144.400129 L97.9404778,172.50468 L19.5107331,144.400132 L97.9404859,116.784271 Z" id="路径" stroke="#2980B9" fill="#2980B9"></path>
            <path d="M97.432844,142.481592 L191.383897,168.369806 L98.1894456,202.569966 L3.27389435,168.366163 L97.432844,142.481592 Z" id="路径" stroke="#2980B9" fill-opacity="0.8" fill="#2980B9"></path>
            <path d="M177.179412,144.995418 L193.110518,168.053419 L98.691,202.388147 L98.691,172.885459 L177.179412,144.995418 Z" id="路径" stroke="#2980B9" fill-opacity="0.302" fill="#2980B9"></path>
            <path d="M36.5840497,111.819038 L97.9761731,132.549969 L98.2404653,162.347468 L21.5478578,132.403462 L36.5840497,111.819038 Z" id="路径" stroke="#41B176" fill-opacity="0.8" fill="#41B176"></path>
            <path d="M98.103456,90.0485291 L159.377972,111.228 L98.103456,132.407471 L37.9031765,111.228 L98.103456,90.0485291 Z" id="路径" stroke="#41B176" fill="#41B176"></path>
            <path d="M97.7104125,109.700805 L174.92703,134.398046 L98.1972065,161.67913 L22.3013655,132.686193 L97.7104125,109.700805 Z" id="路径" stroke="#41B176" fill-opacity="0.8" fill="#41B176"></path>
            <path d="M160.707166,111.824264 L175.719394,134.123659 L98.9205235,162.367393 L98.6937615,132.857454 L160.707166,111.824264 Z" id="路径" stroke="#41B176" fill-opacity="0.4" fill="#41B176"></path>
            <path d="M55.7420056,80.5737198 L99.047,95.4717484 L99.047,122.280582 L40.3668899,101.243043 L55.7420056,80.5737198 Z" id="路径" stroke="#9BBB59" fill-opacity="0.8" fill="#9BBB59"></path>
            <path d="M99.28216,65.1175098 L141.249412,79.9861229 L99.2806864,95.1179671 L57.0236776,80.118 L99.28216,65.1175098 Z" id="路径" stroke="#9BBB59" fill="#9BBB59"></path>
            <path d="M99.004176,79.1863641 L157.278631,101.466023 L99.00702,121.926015 L41.7920325,101.103003 L99.004176,79.1863641 Z" id="路径" stroke="#9BBB59" fill-opacity="0.8" fill="#9BBB59"></path>
            <path d="M142.551994,80.5737198 L157.92711,101.243043 L99.247,122.280582 L99.247,95.4717484 L142.551994,80.5737198 Z" id="路径" stroke="#9BBB59" fill-opacity="0.302" fill="#9BBB59"></path>
            <path d="M99.6911754,56.5212901 L141.915431,70.3729184 L98.749331,84.2341055 L56.3832699,70.2143372 L99.6911754,56.5212901 Z" id="路径" stroke="#F39C12" fill-opacity="0.8" fill="#F39C12"></path>
            <path d="M70.9461408,49.4997966 L99.047,58.0504922 L99.047,84.0749679 L55.5777252,70.161073 L70.9461408,49.4997966 Z" id="路径" stroke="#F39C12" fill-opacity="0.8" fill="#F39C12"></path>
            <path d="M127.348846,49.4997969 L142.716296,70.1610663 L99.247,84.0749679 L99.247,58.0504959 L127.348846,49.4997969 Z" id="路径" stroke="#F39C12" fill-opacity="0.4" fill="#F39C12"></path>
            <path d="M99.5444277,38.3051859 L126.086061,48.8780346 L99.8391992,57.6560495 L72.2582816,48.8729761 L99.5444277,38.3051859 Z" id="路径" stroke="#F39C12" fill="#F39C12"></path>
            <path d="M99.047,1.5763392 L99.047,48.0175068 L69.9960591,39.6430894 L99.047,1.5763392 Z" id="路径" stroke="#C0392B" fill-opacity="0.8" fill="#C0392B"></path>
            <path d="M100.047,1.67779013 L126.73718,39.6483438 L100.047,48.0015987 L100.047,1.67779013 Z" id="路径" stroke="#C0392B" fill-opacity="0.4" fill="#C0392B"></path>
        </g>
    </g>
</svg>