<?xml version="1.0" encoding="UTF-8"?>
<svg width="878px" height="302px" viewBox="0 0 878 302" version="1.1" xmlns="http://www.w3.org/2000/svg" xmlns:xlink="http://www.w3.org/1999/xlink">
    <title>tq_kuang_zhongxia</title>
    <defs>
        <linearGradient x1="0%" y1="0%" x2="100%" y2="0%" id="linearGradient-1">
            <stop stop-color="#030E6A" stop-opacity="0.8" offset="0%"></stop>
            <stop stop-color="#030E6A" stop-opacity="0" offset="100%"></stop>
        </linearGradient>
        <linearGradient x1="50%" y1="0%" x2="50%" y2="100%" id="linearGradient-2">
            <stop stop-color="#031270" offset="0%"></stop>
            <stop stop-color="#031270" stop-opacity="0.584380463" offset="40.8134834%"></stop>
            <stop stop-color="#031270" offset="100%"></stop>
        </linearGradient>
        <linearGradient x1="19.6284089%" y1="44.0843362%" x2="28.9870627%" y2="55.9156638%" id="linearGradient-3">
            <stop stop-color="#2845FB" offset="0%"></stop>
            <stop stop-color="#2845FB" stop-opacity="0.0366586538" offset="22.8845276%"></stop>
            <stop stop-color="#2845FB" offset="50.2340994%"></stop>
            <stop stop-color="#2845FB" stop-opacity="0" offset="100%"></stop>
        </linearGradient>
        <linearGradient x1="100%" y1="72.4361727%" x2="0%" y2="72.4361727%" id="linearGradient-4">
            <stop stop-color="#0A54FF" stop-opacity="0" offset="0%"></stop>
            <stop stop-color="#0A54FF" offset="100%"></stop>
        </linearGradient>
        <linearGradient x1="0%" y1="0%" x2="100%" y2="0%" id="linearGradient-5">
            <stop stop-color="#4BAAE4" stop-opacity="0" offset="0%"></stop>
            <stop stop-color="#4BAAE4" offset="12.7349213%"></stop>
            <stop stop-color="#005174" stop-opacity="0" offset="100%"></stop>
        </linearGradient>
        <linearGradient x1="0%" y1="0%" x2="100%" y2="0%" id="linearGradient-6">
            <stop stop-color="#4BAAE4" stop-opacity="0" offset="0%"></stop>
            <stop stop-color="#4BAAE4" offset="12.7349213%"></stop>
            <stop stop-color="#005174" stop-opacity="0" offset="100%"></stop>
        </linearGradient>
        <linearGradient x1="0%" y1="-2.22044605e-14%" x2="99.939%" y2="3.49%" id="linearGradient-7">
            <stop stop-color="#00C0FF" offset="0%"></stop>
            <stop stop-color="#43F0FF" offset="49%"></stop>
            <stop stop-color="#00C0FF" offset="100%"></stop>
        </linearGradient>
    </defs>
    <g id="页面-1" stroke="none" stroke-width="1" fill="none" fill-rule="evenodd">
        <g id="tq_kuang_zhongxia">
            <polygon id="路径" fill="url(#linearGradient-1)" points="252 0 0 0 0 32 279 32"></polygon>
            <polygon id="路径" fill="url(#linearGradient-2)" opacity="0.302" points="253.13219 0.134990042 279.289771 31.5596718 878 31.0527092 878 302 0 302 0 0"></polygon>
            <path d="M0.5,0.500268707 L252.896823,0.635873617 L279.054674,32.2512004 L877.5,31.7414261 L877.5,301.503 L0.5,301.503 L0.5,0.500268707 Z" id="路径" stroke="url(#linearGradient-3)"></path>
            <polygon id="路径" fill="url(#linearGradient-4)" opacity="0.302" points="-5.68434189e-14 0 252.544 0 279.544 32 -5.68434189e-14 32"></polygon>
            <path d="M24.275,7.635 L29.784,7.635 C32.067,7.635 33.917,9.466 33.917,11.725 L25.644,23.901 C24.566,24.843 22.419,26.729 20.142,26.7240099 L14.632,26.7240099 C12.35,26.7240099 10.5,24.892 10.5,22.633 L18.765,10.362 C20.853,8.295 21.448,7.635 24.275,7.635 Z" id="路径" fill="#00D4E8"></path>
            <path d="M31.162,4.908 L36.672,4.908 C38.954,4.908 40.804,6.739 40.804,8.998 L32.531,21.174 C31.453,22.116 29.306,24.002 27.03,23.9970099 L21.52,23.9970099 C19.238,23.9970099 17.387,22.165 17.387,19.906 L25.652,7.635 C27.741,5.568 28.335,4.908 31.162,4.908 Z" id="路径" fill="#2845FB" opacity="0.502"></path>
            <polyline id="路径" stroke="url(#linearGradient-5)" points="831.5 26.5 297.5 26.5 283.5 10.5"></polyline>
            <polyline id="路径" stroke="url(#linearGradient-6)" opacity="0.4" points="835.709 19.479 301.01 19.479 288.5 4.5"></polyline>
            <polygon id="路径" fill="#1050D3" opacity="0.2" points="868.237 12.479 863.422 12.479 871.043 23.099 875.858 23.099"></polygon>
            <polygon id="路径" fill="#2563E1" opacity="0.502" points="858.002 12.479 853.187 12.479 860.807 23.099 865.622 23.099"></polygon>
            <polygon id="路径" fill="#4680F5" points="847.767 12.479 842.952 12.479 850.572 23.099 855.387 23.099"></polygon>
            <path d="M240.06,16.343 L240.06,21.382 C240.06,22.636 240.17,22.834 241.006,22.834 L243.25,22.834 C244.131,22.834 244.263,21.844 244.417,17.971 C245.077,18.455 246.243,19.005 246.969,19.181 C246.705,23.692 246.067,25.408 243.493,25.408 L240.61,25.408 C238.058,25.408 237.31,24.462 237.31,21.338 L237.31,5.583 L240.06,5.583 L240.06,13.306 C241.842,11.854 243.603,10.094 244.879,8.664 L247.013,11.04 C244.923,12.888 242.414,14.759 240.06,16.343 Z M231.193,21.712 L235.923,20.127 C235.879,20.964 235.945,22.152 236.055,22.79 C230.181,24.902 229.146,25.408 228.53,25.914 C228.31,25.276 227.694,24.176 227.298,23.736 C227.76,23.384 228.398,22.702 228.398,21.668 L228.398,5.693 L231.193,5.693 L231.193,11.898 L236.187,11.898 L236.187,14.495 L231.193,14.495 L231.193,21.712 Z M216.102,15.309 L222.967,15.309 L222.967,25.782 L220.26,25.782 L220.26,24.748 L209.567,24.748 L209.567,25.848 L206.992,25.848 L206.992,15.309 L213.395,15.309 L213.395,5.385 L216.102,5.385 L216.102,9.038 L224.529,9.038 L224.529,11.502 L216.102,11.502 L216.102,15.309 Z M209.567,17.751 L209.567,22.284 L220.26,22.284 L220.26,17.751 L209.567,17.751 Z M198.26,22.636 L199.603,21.03 C200.901,21.91 202.705,23.23 203.563,24.066 L202.155,25.892 C201.341,24.99 199.581,23.604 198.26,22.636 Z M198.502,10.732 L202.507,10.732 L202.507,20.964 L200.263,20.964 L200.263,12.712 L195.686,12.712 L195.686,21.03 L193.53,21.03 L193.53,10.732 L196.302,10.732 C196.5,10.16 196.742,9.5 196.94,8.862 L193.354,8.862 L193.354,6.595 L203.189,6.595 L203.189,8.862 L199.272,8.862 C199.008,9.522 198.766,10.16 198.502,10.732 Z M192.782,12.184 C192.187,13.46 191.373,14.605 190.383,15.595 C191.571,16.211 192.716,16.805 193.508,17.289 L191.791,18.961 L192.033,18.961 L192.033,24.088 C196.676,22.504 196.83,19.687 196.94,13.526 L199.14,13.526 C199.03,20.523 198.59,24.11 193.09,26.024 C192.914,25.54 192.452,24.88 192.033,24.418 L192.033,25.694 L189.635,25.694 L189.635,25.166 L186.863,25.166 L186.863,25.738 L184.574,25.738 L184.574,19.357 C184.244,19.489 183.892,19.599 183.562,19.709 C183.452,19.005 182.99,17.751 182.66,17.245 C183.848,16.937 185.036,16.475 186.093,15.903 L184.948,15.309 L186.643,13.791 C187.127,14.011 187.655,14.275 188.183,14.539 C188.667,14.143 189.085,13.703 189.459,13.24 L186.511,13.24 C185.785,14.033 184.926,14.759 183.914,15.441 C183.584,14.913 182.924,14.099 182.462,13.769 C184.31,12.668 185.609,11.216 186.291,9.918 L188.579,10.336 C188.403,10.666 188.205,10.996 188.007,11.304 L190.647,11.304 L190.647,9.588 L185.256,9.588 L185.256,11.348 L183.012,11.348 L183.012,7.52 L186.951,7.52 C186.731,6.992 186.489,6.419 186.269,5.957 L188.755,5.451 C189.085,6.067 189.459,6.86 189.745,7.52 L193.002,7.52 L193.002,11.348 L191.527,11.348 L192.782,12.184 Z M186.863,23.142 L189.635,23.142 L189.635,20.986 L186.863,20.986 L186.863,23.142 Z M188.513,17.223 C187.567,17.883 186.555,18.477 185.499,18.961 L191.505,18.961 C190.779,18.477 189.679,17.839 188.513,17.223 Z M179.803,14.099 C178.813,13.747 177.801,13.306 176.81,12.822 L176.81,14.121 L172.388,14.121 L172.388,16.409 L179.407,16.409 L179.407,18.763 L175.93,18.763 L178.131,19.555 C177.361,20.788 176.502,22.108 175.82,23.054 L180.551,23.054 L180.551,25.452 L161.518,25.452 L161.518,23.054 L165.853,23.054 C165.501,22.042 164.753,20.59 164.027,19.489 L165.765,18.763 L162.574,18.763 L162.574,16.409 L169.571,16.409 L169.571,14.121 L165.105,14.121 L165.105,13.042 C164.181,13.482 163.234,13.879 162.266,14.231 C161.914,13.46 161.188,12.47 160.528,11.81 C164.665,10.622 168.625,8.4 170.716,5.121 L173.202,6.243 C173.004,6.529 172.806,6.816 172.586,7.124 C174.742,9.06 178.307,10.886 181.607,11.81 C181.013,12.382 180.199,13.416 179.803,14.099 Z M172.388,23.054 L175.138,23.054 L173.664,22.438 C174.346,21.448 175.16,19.907 175.6,18.763 L172.388,18.763 L172.388,23.054 Z M166.249,18.763 C167.019,19.841 167.855,21.294 168.163,22.262 L166.359,23.054 L169.571,23.054 L169.571,18.763 L166.249,18.763 Z M171.068,8.862 C170.011,9.962 168.801,10.886 167.503,11.722 L174.874,11.722 C173.488,10.864 172.19,9.896 171.068,8.862 Z M157.715,25.782 C156.307,24.792 155.14,23.582 154.128,22.108 C153.006,23.67 151.664,24.924 150.146,25.958 C149.772,25.32 149.046,24.44 148.518,24 C150.146,23.01 151.554,21.536 152.742,19.687 C151.444,16.981 150.608,13.725 149.992,10.116 L149.222,10.116 L149.222,7.652 L156.703,7.652 L157.143,7.564 L158.771,7.982 C158.287,12.822 157.231,16.695 155.603,19.797 C156.637,21.448 157.913,22.79 159.497,23.758 C158.925,24.198 158.133,25.122 157.715,25.782 Z M156.043,10.116 L152.28,10.116 C152.72,12.58 153.314,14.891 154.15,16.937 C155.008,14.935 155.647,12.646 156.043,10.116 Z M147.791,19.467 L149.486,19.225 L149.618,21.404 L147.791,21.734 L147.791,25.87 L145.239,25.87 L145.239,22.196 C143.083,22.57 141.036,22.922 139.32,23.186 L138.814,20.722 C139.232,20.678 139.738,20.612 140.266,20.546 L140.266,8.576 L139.056,8.576 L139.056,6.243 L149.068,6.243 L149.068,8.576 L147.791,8.576 L147.791,19.467 Z M145.239,8.576 L142.775,8.576 L142.775,10.82 L145.239,10.82 L145.239,8.576 Z M145.239,13.042 L142.775,13.042 L142.775,15.441 L145.239,15.441 L145.239,13.042 Z M145.239,17.663 L142.775,17.663 L142.775,20.193 L145.239,19.841 L145.239,17.663 Z M133.096,23.34 C133.845,23.34 136.573,23.34 137.519,23.318 C137.211,23.846 136.903,24.946 136.815,25.606 L132.986,25.606 C130.104,25.606 127.882,25.078 126.385,22.416 C125.813,23.802 125.043,24.968 124.075,25.87 C123.679,25.452 122.689,24.638 122.161,24.308 C123.987,22.856 124.889,20.413 125.219,17.421 L127.596,17.707 C127.486,18.499 127.354,19.247 127.178,19.929 C127.662,21.206 128.3,21.998 129.092,22.504 L129.092,16.761 L123.921,16.761 L123.921,14.649 L136.925,14.649 L136.925,16.761 L131.556,16.761 L131.556,18.697 L135.759,18.697 L135.759,20.744 L131.556,20.744 L131.556,23.274 C132.062,23.318 132.546,23.34 133.096,23.34 Z M124.999,6.045 L135.825,6.045 L135.825,13.637 L124.999,13.637 L124.999,6.045 Z M127.398,11.788 L133.316,11.788 L133.316,10.666 L127.398,10.666 L127.398,11.788 Z M127.398,8.972 L133.316,8.972 L133.316,7.872 L127.398,7.872 L127.398,8.972 Z M123.525,14.671 L123.877,17.025 L121.545,17.729 L121.545,22.856 C121.545,24.066 121.347,24.704 120.687,25.1 C120.027,25.54 119.058,25.628 117.65,25.606 C117.584,24.968 117.298,23.89 116.968,23.208 C117.782,23.23 118.53,23.23 118.794,23.208 C119.058,23.208 119.168,23.12 119.168,22.834 L119.168,18.433 C118.442,18.631 117.782,18.829 117.144,19.005 L116.55,16.475 C117.298,16.321 118.178,16.079 119.168,15.837 L119.168,11.942 L116.792,11.942 L116.792,9.522 L119.168,9.522 L119.168,5.363 L121.545,5.363 L121.545,9.522 L123.745,9.522 L123.745,11.942 L121.545,11.942 L121.545,15.199 L123.525,14.671 Z M106.674,24.286 C104.584,25.034 102.207,25.496 99.721,25.76 C99.523,25.144 99.039,24.154 98.643,23.582 C100.469,23.428 102.229,23.208 103.835,22.812 C102.823,22.13 101.921,21.316 101.173,20.413 L102.053,20.061 L99.721,20.061 L99.721,18.015 L111.559,18.015 L112.021,17.927 L113.649,18.763 C112.725,20.479 111.405,21.8 109.776,22.834 C111.449,23.23 113.297,23.472 115.299,23.626 C114.793,24.176 114.133,25.232 113.803,25.892 C111.118,25.628 108.742,25.122 106.674,24.286 Z M103.901,20.061 C104.672,20.766 105.662,21.36 106.806,21.844 C107.928,21.36 108.896,20.788 109.71,20.061 L103.901,20.061 Z M102.515,17.135 L102.515,13.703 L99.545,13.703 L99.545,11.656 L102.515,11.656 L102.515,10.204 L104.98,10.204 L104.98,11.656 L108.984,11.656 L108.984,10.204 L111.581,10.204 L111.581,11.656 L114.749,11.656 L114.749,13.703 L111.581,13.703 L111.581,17.135 L102.515,17.135 Z M108.984,13.703 L104.98,13.703 L104.98,15.155 L108.984,15.155 L108.984,13.703 Z M99.105,13.086 C99.105,16.783 98.819,22.284 96.992,25.87 C96.464,25.496 95.276,24.946 94.594,24.748 C96.354,21.36 96.508,16.453 96.508,13.108 L96.508,7.256 L104.716,7.256 C104.562,6.75 104.385,6.221 104.187,5.803 L106.85,5.209 C107.158,5.825 107.466,6.573 107.686,7.256 L114.947,7.256 L114.947,9.698 L99.105,9.698 L99.105,13.086 Z M85.554,25.936 L82.848,25.936 L82.848,21.228 L72.946,21.228 L72.946,18.719 L76.423,18.719 L76.423,12.954 L82.848,12.954 L82.848,10.314 L78.139,10.314 C77.237,11.876 76.181,13.284 75.146,14.319 C74.64,13.879 73.518,12.998 72.88,12.624 C74.86,10.952 76.555,8.136 77.501,5.297 L80.163,5.979 C79.965,6.595 79.723,7.19 79.437,7.784 L91.869,7.784 L91.869,10.314 L85.554,10.314 L85.554,12.954 L91.363,12.954 L91.363,15.375 L85.554,15.375 L85.554,18.719 L93.079,18.719 L93.079,21.228 L85.554,21.228 L85.554,25.936 Z M82.848,15.375 L79.041,15.375 L79.041,18.719 L82.848,18.719 L82.848,15.375 Z M69.253,22.548 C68.417,21.91 67.647,21.14 66.92,20.281 L66.92,22.196 L62.388,22.196 L62.388,25.914 L59.615,25.914 L59.615,22.196 L54.995,22.196 L54.995,20.237 C54.225,21.14 53.388,21.954 52.508,22.658 C52.046,21.998 51.21,21.008 50.594,20.523 C53.146,18.763 55.391,15.617 56.755,12.294 L51.364,12.294 L51.364,9.632 L59.615,9.632 L59.615,5.385 L62.388,5.385 L62.388,9.632 L70.683,9.632 L70.683,12.294 L65.138,12.294 C66.524,15.507 68.747,18.521 71.321,20.259 C70.639,20.788 69.715,21.822 69.253,22.548 Z M59.615,12.294 L59.461,12.294 C58.493,14.979 57.151,17.465 55.567,19.533 L59.615,19.533 L59.615,12.294 Z M62.476,12.294 L62.388,12.294 L62.388,19.533 L66.304,19.533 C64.742,17.465 63.444,14.979 62.476,12.294 Z" id="形状" fill="url(#linearGradient-7)" fill-rule="nonzero"></path>
        </g>
    </g>
</svg>