<?xml version="1.0" encoding="UTF-8"?>
<svg width="477px" height="286px" viewBox="0 0 477 286" version="1.1" xmlns="http://www.w3.org/2000/svg" xmlns:xlink="http://www.w3.org/1999/xlink">
    <title>tq_kuang_you2</title>
    <defs>
        <linearGradient x1="0%" y1="0%" x2="100%" y2="0%" id="linearGradient-1">
            <stop stop-color="#030E6A" stop-opacity="0.8" offset="0%"></stop>
            <stop stop-color="#030E6A" stop-opacity="0" offset="100%"></stop>
        </linearGradient>
        <linearGradient x1="50%" y1="0%" x2="50%" y2="100%" id="linearGradient-2">
            <stop stop-color="#031270" offset="0%"></stop>
            <stop stop-color="#031270" stop-opacity="0.584380463" offset="40.8134834%"></stop>
            <stop stop-color="#031270" offset="100%"></stop>
        </linearGradient>
        <linearGradient x1="19.6284089%" y1="32.0247713%" x2="28.9870627%" y2="67.9752287%" id="linearGradient-3">
            <stop stop-color="#2845FB" offset="0%"></stop>
            <stop stop-color="#2845FB" stop-opacity="0.0366586538" offset="22.8845276%"></stop>
            <stop stop-color="#2845FB" offset="50.2340994%"></stop>
            <stop stop-color="#2845FB" stop-opacity="0" offset="100%"></stop>
        </linearGradient>
        <linearGradient x1="100%" y1="72.4361727%" x2="0%" y2="72.4361727%" id="linearGradient-4">
            <stop stop-color="#0A54FF" stop-opacity="0" offset="0%"></stop>
            <stop stop-color="#0A54FF" offset="100%"></stop>
        </linearGradient>
        <linearGradient x1="0%" y1="0%" x2="100%" y2="0%" id="linearGradient-5">
            <stop stop-color="#4BAAE4" stop-opacity="0" offset="0%"></stop>
            <stop stop-color="#4BAAE4" offset="12.7349213%"></stop>
            <stop stop-color="#005174" stop-opacity="0" offset="100%"></stop>
        </linearGradient>
        <linearGradient x1="0%" y1="0%" x2="100%" y2="0%" id="linearGradient-6">
            <stop stop-color="#4BAAE4" stop-opacity="0" offset="0%"></stop>
            <stop stop-color="#4BAAE4" offset="12.7349213%"></stop>
            <stop stop-color="#005174" stop-opacity="0" offset="100%"></stop>
        </linearGradient>
        <linearGradient x1="0%" y1="1.11022302e-14%" x2="99.939%" y2="3.49%" id="linearGradient-7">
            <stop stop-color="#00C0FF" offset="0%"></stop>
            <stop stop-color="#43F0FF" offset="49%"></stop>
            <stop stop-color="#00C0FF" offset="100%"></stop>
        </linearGradient>
    </defs>
    <g id="页面-1" stroke="none" stroke-width="1" fill="none" fill-rule="evenodd">
        <g id="tq_kuang_you2">
            <polygon id="路径" fill="url(#linearGradient-1)" points="252 0 0 0 0 32 279 32"></polygon>
            <polygon id="路径" fill="url(#linearGradient-2)" opacity="0.302" points="253.13219 0.134990042 279.289771 31.5596718 477 31.0527092 477 286 0 286 0 0"></polygon>
            <path d="M0.5,0.500268707 L252.896823,0.635873617 L279.05501,32.2516072 L476.5,31.7422914 L476.5,285.503 L0.5,285.503 L0.5,0.500268707 Z" id="路径" stroke="url(#linearGradient-3)"></path>
            <polygon id="路径" fill="url(#linearGradient-4)" opacity="0.302" points="-5.68434189e-14 0 252.544 0 279.544 32 -5.68434189e-14 32"></polygon>
            <path d="M24.275,7.635 L29.784,7.635 C32.067,7.635 33.917,9.466 33.917,11.725 L25.644,23.901 C24.566,24.843 22.419,26.729 20.142,26.7240099 L14.632,26.7240099 C12.35,26.7240099 10.5,24.892 10.5,22.633 L18.765,10.362 C20.853,8.295 21.448,7.635 24.275,7.635 Z" id="路径" fill="#00D4E8"></path>
            <path d="M31.162,4.908 L36.672,4.908 C38.954,4.908 40.804,6.739 40.804,8.998 L32.531,21.174 C31.453,22.116 29.306,24.002 27.03,23.9970099 L21.52,23.9970099 C19.238,23.9970099 17.387,22.165 17.387,19.906 L25.652,7.635 C27.741,5.568 28.335,4.908 31.162,4.908 Z" id="路径" fill="#2845FB" opacity="0.502"></path>
            <polyline id="路径" stroke="url(#linearGradient-5)" points="430.5 26.5 297.5 26.5 283.5 10.5"></polyline>
            <polyline id="路径" stroke="url(#linearGradient-6)" opacity="0.4" points="434.709 19.479 301.01 19.479 288.5 4.5"></polyline>
            <polygon id="路径" fill="#1050D3" opacity="0.2" points="467.237 12.479 462.422 12.479 470.043 23.099 474.858 23.099"></polygon>
            <polygon id="路径" fill="#2563E1" opacity="0.502" points="457.002 12.479 452.187 12.479 459.807 23.099 464.622 23.099"></polygon>
            <polygon id="路径" fill="#4680F5" points="446.767 12.479 441.952 12.479 449.572 23.099 454.387 23.099"></polygon>
            <path d="M226.837,9.996 L215.065,9.996 C214.537,11.14 213.965,12.262 213.283,13.319 L216.826,13.319 L216.826,10.788 L219.466,10.788 L219.466,13.319 L225.781,13.319 L225.781,20.14 C225.781,21.35 225.539,22.01 224.659,22.406 C223.823,22.78 222.634,22.802 220.984,22.802 C220.874,22.076 220.5,21.086 220.17,20.426 C221.182,20.47 222.348,20.47 222.656,20.47 C223.008,20.47 223.118,20.382 223.118,20.096 L223.118,15.805 L219.466,15.805 L219.466,24.892 L216.826,24.892 L216.826,15.805 L213.349,15.805 L213.349,22.956 L210.731,22.956 L210.731,16.597 C209.873,17.499 208.97,18.291 207.936,19.017 C207.606,18.357 206.924,17.301 206.462,16.707 C208.904,15.123 210.775,12.681 212.139,9.996 L207.232,9.996 L207.232,7.488 L213.261,7.488 C213.679,6.41 214.009,5.353 214.251,4.297 L216.958,4.913 C216.694,5.772 216.408,6.63 216.099,7.488 L226.837,7.488 L226.837,9.996 Z M201.999,13.495 L201.999,13.561 C201.779,20.052 201.515,22.648 200.744,23.55 C200.194,24.254 199.6,24.496 198.764,24.584 C197.972,24.694 196.74,24.694 195.42,24.65 C195.376,23.858 195.046,22.758 194.584,22.01 C195.772,22.12 196.938,22.12 197.466,22.12 C197.862,22.12 198.104,22.054 198.346,21.834 C198.808,21.328 199.028,19.457 199.226,14.991 L194.628,14.991 C194.055,19.149 192.603,22.89 186.948,24.98 C186.64,24.276 185.892,23.22 185.298,22.648 C190.205,21.064 191.371,18.159 191.833,14.991 L188.291,14.991 L188.291,13.693 C187.873,14.155 187.432,14.573 186.97,14.947 C186.486,14.397 185.386,13.341 184.748,12.879 C187.322,11.03 189.545,7.95 190.777,4.671 L193.593,5.441 C192.603,7.994 191.129,10.414 189.479,12.394 L201.074,12.394 C199.424,10.348 197.796,7.906 196.652,5.551 L199.116,4.627 C200.436,7.4 203.077,10.656 205.343,12.526 C204.683,13.033 203.715,14.045 203.231,14.749 C202.835,14.353 202.417,13.935 201.999,13.495 Z M181.825,13.319 C180.417,12.042 178.964,10.04 177.82,7.994 C176.698,10.04 175.268,11.866 173.596,13.297 C173.42,13.033 173.09,12.659 172.738,12.306 L172.738,12.835 L162.792,12.835 L162.792,10.832 L163.892,10.832 L163.892,5.728 L166.005,5.728 L166.005,10.832 L167.171,10.832 L167.171,4.539 L169.459,4.539 L169.459,6.916 L172.562,6.916 L172.562,8.962 L169.459,8.962 L169.459,10.832 L172.452,10.832 C174.366,9.116 175.994,6.586 176.874,4.253 L179.228,4.957 C179.14,5.155 179.074,5.375 178.986,5.573 C180.065,7.686 182.001,9.974 183.739,11.272 C183.123,11.756 182.243,12.681 181.825,13.319 Z M153.554,24.936 L150.848,24.936 L150.848,20.228 L140.946,20.228 L140.946,17.719 L144.423,17.719 L144.423,11.954 L150.848,11.954 L150.848,9.314 L146.139,9.314 C145.237,10.876 144.181,12.284 143.146,13.319 C142.64,12.879 141.518,11.998 140.88,11.624 C142.86,9.952 144.555,7.136 145.501,4.297 L148.163,4.979 C147.965,5.595 147.723,6.19 147.437,6.784 L159.869,6.784 L159.869,9.314 L153.554,9.314 L153.554,11.954 L159.363,11.954 L159.363,14.375 L153.554,14.375 L153.554,17.719 L161.079,17.719 L161.079,20.228 L153.554,20.228 L153.554,24.936 Z M150.848,14.375 L147.041,14.375 L147.041,17.719 L150.848,17.719 L150.848,14.375 Z M137.715,24.782 C136.307,23.792 135.14,22.582 134.128,21.108 C133.006,22.67 131.664,23.924 130.146,24.958 C129.772,24.32 129.046,23.44 128.518,23 C130.146,22.01 131.554,20.536 132.742,18.687 C131.444,15.981 130.608,12.725 129.992,9.116 L129.222,9.116 L129.222,6.652 L136.703,6.652 L137.143,6.564 L138.771,6.982 C138.287,11.822 137.231,15.695 135.603,18.797 C136.637,20.448 137.913,21.79 139.497,22.758 C138.925,23.198 138.133,24.122 137.715,24.782 Z M136.043,9.116 L132.28,9.116 C132.72,11.58 133.314,13.891 134.15,15.937 C135.008,13.935 135.647,11.646 136.043,9.116 Z M127.791,18.467 L129.486,18.225 L129.618,20.404 L127.791,20.734 L127.791,24.87 L125.239,24.87 L125.239,21.196 C123.083,21.57 121.036,21.922 119.32,22.186 L118.814,19.722 C119.232,19.678 119.738,19.612 120.266,19.546 L120.266,7.576 L119.056,7.576 L119.056,5.243 L129.068,5.243 L129.068,7.576 L127.791,7.576 L127.791,18.467 Z M125.239,7.576 L122.775,7.576 L122.775,9.82 L125.239,9.82 L125.239,7.576 Z M125.239,12.042 L122.775,12.042 L122.775,14.441 L125.239,14.441 L125.239,12.042 Z M125.239,16.663 L122.775,16.663 L122.775,19.193 L125.239,18.841 L125.239,16.663 Z M113.096,22.34 C113.845,22.34 116.573,22.34 117.519,22.318 C117.211,22.846 116.903,23.946 116.815,24.606 L112.986,24.606 C110.104,24.606 107.882,24.078 106.385,21.416 C105.813,22.802 105.043,23.968 104.075,24.87 C103.679,24.452 102.689,23.638 102.161,23.308 C103.987,21.856 104.889,19.413 105.219,16.421 L107.596,16.707 C107.486,17.499 107.354,18.247 107.178,18.929 C107.662,20.206 108.3,20.998 109.092,21.504 L109.092,15.761 L103.921,15.761 L103.921,13.649 L116.925,13.649 L116.925,15.761 L111.556,15.761 L111.556,17.697 L115.759,17.697 L115.759,19.744 L111.556,19.744 L111.556,22.274 C112.062,22.318 112.546,22.34 113.096,22.34 Z M104.999,5.045 L115.825,5.045 L115.825,12.637 L104.999,12.637 L104.999,5.045 Z M107.398,10.788 L113.316,10.788 L113.316,9.666 L107.398,9.666 L107.398,10.788 Z M107.398,7.972 L113.316,7.972 L113.316,6.872 L107.398,6.872 L107.398,7.972 Z M103.525,13.671 L103.877,16.025 L101.545,16.729 L101.545,21.856 C101.545,23.066 101.347,23.704 100.687,24.1 C100.027,24.54 99.058,24.628 97.65,24.606 C97.584,23.968 97.298,22.89 96.968,22.208 C97.782,22.23 98.53,22.23 98.794,22.208 C99.058,22.208 99.168,22.12 99.168,21.834 L99.168,17.433 C98.442,17.631 97.782,17.829 97.144,18.005 L96.55,15.475 C97.298,15.321 98.178,15.079 99.168,14.837 L99.168,10.942 L96.792,10.942 L96.792,8.522 L99.168,8.522 L99.168,4.363 L101.545,4.363 L101.545,8.522 L103.745,8.522 L103.745,10.942 L101.545,10.942 L101.545,14.199 L103.525,13.671 Z M85.618,18.247 L91.316,18.247 L91.316,18.269 L93.275,18.269 C93.275,18.269 93.253,18.885 93.209,19.193 C92.967,22.076 92.681,23.418 92.087,23.968 C91.625,24.474 91.008,24.628 90.26,24.672 C89.622,24.738 88.412,24.738 87.202,24.694 C87.158,24.034 86.872,23.176 86.52,22.604 C87.598,22.714 88.676,22.736 89.116,22.736 C89.512,22.736 89.732,22.692 89.93,22.516 C90.194,22.296 90.392,21.614 90.524,20.25 L85.09,20.25 C84.385,22.23 82.999,23.792 80.271,24.87 C80.029,24.254 79.347,23.352 78.819,22.912 C82.229,21.68 82.955,19.59 83.241,16.861 L79.809,16.861 L79.809,14.793 L85.882,14.793 C85.684,14.199 85.31,13.407 85.024,12.791 L86.762,12.262 L79.281,12.262 C79.215,16.069 78.797,21.46 76.992,25.068 C76.442,24.672 75.254,24.056 74.572,23.836 C76.464,20.228 76.618,14.903 76.618,11.36 L76.618,6.366 L84.077,6.366 C83.901,5.86 83.725,5.353 83.549,4.957 L86.146,4.341 C86.432,4.957 86.74,5.706 86.938,6.366 L94.001,6.366 L94.001,12.262 L87.444,12.262 C87.818,12.945 88.214,13.737 88.412,14.309 L86.96,14.793 L94.595,14.793 L94.595,16.861 L85.816,16.861 C85.75,17.345 85.706,17.785 85.618,18.247 Z M91.405,10.084 L91.405,8.544 L79.281,8.544 L79.281,10.084 L91.405,10.084 Z M69.691,24.76 C68.986,24.892 67.864,24.87 66.764,24.848 C66.742,24.1 66.412,22.978 65.95,22.23 C67.028,22.318 68.018,22.318 68.502,22.318 C68.876,22.318 69.096,22.252 69.316,21.922 C69.559,21.636 69.735,20.91 69.867,19.546 L68.018,20.228 C67.974,19.898 67.886,19.546 67.798,19.149 C63.97,19.986 63.244,20.228 62.782,20.514 C62.65,20.052 62.297,18.973 62.011,18.357 C62.385,18.247 62.694,17.785 63.002,17.081 C63.332,16.421 64.3,13.781 64.718,11.382 L67.072,12.042 C66.588,13.935 65.818,15.959 65.004,17.631 L67.314,17.191 C67.116,16.399 66.896,15.607 66.654,14.903 L68.436,14.309 C69.03,15.893 69.647,17.961 69.889,19.303 C70.065,17.389 70.175,14.463 70.263,10.018 L64.85,10.018 C64.322,11.228 63.706,12.35 63.09,13.209 C62.716,12.857 61.967,12.218 61.373,11.778 L61.373,18.863 L59.327,18.863 L59.327,7.906 L55.41,7.906 L55.41,18.995 L53.452,18.995 L53.452,5.573 L61.373,5.573 L61.373,11.118 C62.562,9.38 63.53,6.828 64.102,4.363 L66.61,4.913 C66.368,5.838 66.104,6.74 65.796,7.642 L72.793,7.642 L72.793,8.852 C72.551,18.907 72.353,22.45 71.561,23.572 C71.033,24.364 70.505,24.606 69.691,24.76 Z M56.423,9.072 L58.447,9.072 L58.447,14.969 C58.447,18.225 57.809,22.274 54.112,24.782 C53.826,24.342 53.166,23.66 52.704,23.286 C56.159,21.262 56.423,17.631 56.423,14.969 L56.423,9.072 Z M62.43,23.22 L60.625,24.584 C60.009,23.572 58.623,21.856 57.567,20.602 L59.283,19.391 C60.339,20.558 61.747,22.186 62.43,23.22 Z M165.366,20.118 C166.599,18.445 166.973,15.915 167.149,13.121 L169.107,13.297 C168.997,14.683 168.843,15.981 168.579,17.169 C169.261,18.049 169.921,19.039 170.339,19.81 L170.339,13.539 L172.363,13.539 L172.363,24.76 L170.339,24.76 L170.339,23.682 L163.298,24.144 L163.298,13.627 L165.366,13.627 L165.366,20.118 Z M165.366,21.988 L170.339,21.746 L170.339,20.162 L169.019,21.372 C168.777,20.822 168.381,20.14 167.941,19.413 C167.589,20.316 167.149,21.086 166.599,21.768 C166.379,21.46 165.807,20.866 165.366,20.536 L165.366,21.988 Z M177.622,10.766 C178.304,11.58 179.096,12.615 179.493,13.341 L177.424,14.441 C177.072,13.715 176.28,12.526 175.642,11.712 L177.622,10.766 Z M177.116,20.074 C177.864,19.127 178.7,17.983 179.361,16.883 L173.354,16.883 L173.354,14.595 L180.703,14.595 L181.121,14.441 L182.925,15.607 C181.979,17.609 180.395,19.854 179.052,21.57 C179.757,22.12 180.351,22.648 180.813,23.044 L179.339,25.09 C178.04,23.726 175.246,21.526 173.31,19.964 L174.674,18.203 C175.4,18.753 176.236,19.413 177.116,20.074 Z" id="形状" fill="url(#linearGradient-7)" fill-rule="nonzero"></path>
        </g>
    </g>
</svg>