<?xml version="1.0" encoding="UTF-8"?>
<svg width="477px" height="274px" viewBox="0 0 477 274" version="1.1" xmlns="http://www.w3.org/2000/svg" xmlns:xlink="http://www.w3.org/1999/xlink">
    <title>tq_kuang_zuo2</title>
    <defs>
        <linearGradient x1="0%" y1="0%" x2="100%" y2="0%" id="linearGradient-1">
            <stop stop-color="#030E6A" stop-opacity="0.8" offset="0%"></stop>
            <stop stop-color="#030E6A" stop-opacity="0" offset="100%"></stop>
        </linearGradient>
        <linearGradient x1="50%" y1="0%" x2="50%" y2="100%" id="linearGradient-2">
            <stop stop-color="#031270" offset="0%"></stop>
            <stop stop-color="#031270" stop-opacity="0.584380463" offset="40.8134834%"></stop>
            <stop stop-color="#031270" offset="100%"></stop>
        </linearGradient>
        <linearGradient x1="19.6284089%" y1="33.501522%" x2="28.9870627%" y2="66.498478%" id="linearGradient-3">
            <stop stop-color="#2845FB" offset="0%"></stop>
            <stop stop-color="#2845FB" stop-opacity="0.0366586538" offset="22.8845276%"></stop>
            <stop stop-color="#2845FB" offset="50.2340994%"></stop>
            <stop stop-color="#2845FB" stop-opacity="0" offset="100%"></stop>
        </linearGradient>
        <linearGradient x1="100%" y1="72.4361727%" x2="0%" y2="72.4361727%" id="linearGradient-4">
            <stop stop-color="#0A54FF" stop-opacity="0" offset="0%"></stop>
            <stop stop-color="#0A54FF" offset="100%"></stop>
        </linearGradient>
        <linearGradient x1="0%" y1="0%" x2="100%" y2="0%" id="linearGradient-5">
            <stop stop-color="#4BAAE4" stop-opacity="0" offset="0%"></stop>
            <stop stop-color="#4BAAE4" offset="12.7349213%"></stop>
            <stop stop-color="#005174" stop-opacity="0" offset="100%"></stop>
        </linearGradient>
        <linearGradient x1="0%" y1="0%" x2="100%" y2="0%" id="linearGradient-6">
            <stop stop-color="#4BAAE4" stop-opacity="0" offset="0%"></stop>
            <stop stop-color="#4BAAE4" offset="12.7349213%"></stop>
            <stop stop-color="#005174" stop-opacity="0" offset="100%"></stop>
        </linearGradient>
        <linearGradient x1="0%" y1="5.55111512e-15%" x2="99.939%" y2="3.49%" id="linearGradient-7">
            <stop stop-color="#00C0FF" offset="0%"></stop>
            <stop stop-color="#43F0FF" offset="49%"></stop>
            <stop stop-color="#00C0FF" offset="100%"></stop>
        </linearGradient>
    </defs>
    <g id="页面-1" stroke="none" stroke-width="1" fill="none" fill-rule="evenodd">
        <g id="tq_kuang_zuo2">
            <polygon id="路径" fill="url(#linearGradient-1)" points="252 0 0 0 0 32 279 32"></polygon>
            <polygon id="路径" fill="url(#linearGradient-2)" opacity="0.302" points="253.13219 0.134990042 279.289771 31.5596718 477 31.0527092 477 274 0 274 0 0"></polygon>
            <path d="M0.5,0.500268707 L252.896823,0.635873617 L279.05501,32.2516072 L476.5,31.7422914 L476.5,273.503 L0.5,273.503 L0.5,0.500268707 Z" id="路径" stroke="url(#linearGradient-3)"></path>
            <polygon id="路径" fill="url(#linearGradient-4)" opacity="0.302" points="0 0 252.544 0 279.544 32 0 32"></polygon>
            <path d="M24.275,7.635 L29.784,7.635 C32.067,7.635 33.917,9.466 33.917,11.725 L25.644,23.901 C24.566,24.843 22.419,26.729 20.142,26.7240099 L14.632,26.7240099 C12.35,26.7240099 10.5,24.892 10.5,22.633 L18.765,10.362 C20.853,8.295 21.448,7.635 24.275,7.635 Z" id="路径" fill="#00D4E8"></path>
            <path d="M31.162,4.908 L36.672,4.908 C38.954,4.908 40.804,6.739 40.804,8.998 L32.531,21.174 C31.453,22.116 29.306,24.002 27.03,23.9970099 L21.52,23.9970099 C19.238,23.9970099 17.387,22.165 17.387,19.906 L25.652,7.635 C27.741,5.568 28.335,4.908 31.162,4.908 Z" id="路径" fill="#2845FB" opacity="0.502"></path>
            <polyline id="路径" stroke="url(#linearGradient-5)" points="430.5 26.5 297.5 26.5 283.5 10.5"></polyline>
            <polyline id="路径" stroke="url(#linearGradient-6)" opacity="0.4" points="434.709 19.479 301.01 19.479 288.5 4.5"></polyline>
            <polygon id="路径" fill="#1050D3" opacity="0.2" points="467.237 12.479 462.422 12.479 470.043 23.099 474.858 23.099"></polygon>
            <polygon id="路径" fill="#2563E1" opacity="0.502" points="457.002 12.479 452.187 12.479 459.807 23.099 464.622 23.099"></polygon>
            <polygon id="路径" fill="#4680F5" points="446.767 12.479 441.952 12.479 449.572 23.099 454.387 23.099"></polygon>
            <path d="M204.277,12.756 L204.277,15.221 L201.439,15.221 L201.439,25.892 L198.842,25.892 L198.842,15.221 L195.96,15.221 C195.872,18.565 195.41,22.988 193.474,25.848 C192.989,25.452 191.911,24.792 191.295,24.55 C193.297,21.624 193.474,17.377 193.474,14.275 L193.474,7.784 C196.18,7.278 199.106,6.463 200.889,5.583 L203.089,7.652 C201.021,8.51 198.424,9.192 195.96,9.654 L195.96,12.756 L204.277,12.756 Z M189.579,13.196 C190.393,14.187 192.087,16.497 192.483,17.069 L190.965,19.137 C190.657,18.455 190.129,17.443 189.579,16.475 L189.579,25.892 L187.071,25.892 L187.071,17.355 C186.41,19.225 185.618,20.942 184.738,22.13 C184.496,21.382 183.902,20.347 183.506,19.687 C184.892,17.949 186.124,14.957 186.785,12.36 L184.1,12.36 L184.1,9.896 L187.071,9.896 L187.071,5.363 L189.579,5.363 L189.579,9.896 L192.571,9.896 L192.571,12.36 L189.579,12.36 L189.579,13.196 Z M178.999,14.495 L178.999,14.561 C178.779,21.052 178.515,23.648 177.744,24.55 C177.194,25.254 176.6,25.496 175.764,25.584 C174.972,25.694 173.74,25.694 172.42,25.65 C172.376,24.858 172.046,23.758 171.584,23.01 C172.772,23.12 173.938,23.12 174.466,23.12 C174.862,23.12 175.104,23.054 175.346,22.834 C175.808,22.328 176.028,20.457 176.226,15.991 L171.628,15.991 C171.055,20.149 169.603,23.89 163.948,25.98 C163.64,25.276 162.892,24.22 162.298,23.648 C167.205,22.064 168.371,19.159 168.833,15.991 L165.291,15.991 L165.291,14.693 C164.873,15.155 164.432,15.573 163.97,15.947 C163.486,15.397 162.386,14.341 161.748,13.879 C164.322,12.03 166.545,8.95 167.777,5.671 L170.593,6.441 C169.603,8.994 168.129,11.414 166.479,13.394 L178.074,13.394 C176.424,11.348 174.796,8.906 173.652,6.551 L176.116,5.627 C177.436,8.4 180.077,11.656 182.343,13.526 C181.683,14.033 180.715,15.045 180.231,15.749 C179.835,15.353 179.417,14.935 178.999,14.495 Z M151.41,25.87 L148.615,25.87 L148.615,21.866 L140.012,21.866 L140.012,19.445 L148.615,19.445 L148.615,17.971 L151.41,17.971 L151.41,19.445 L160.035,19.445 L160.035,21.866 L151.41,21.866 L151.41,25.87 Z M143.819,13.857 C143.159,13.13 141.706,12.074 140.584,11.37 L142.3,9.984 C143.423,10.6 144.941,11.612 145.667,12.316 L143.819,13.857 Z M156.933,9.896 L159.111,11.15 C158.165,12.162 156.955,13.152 156.052,13.835 L154.116,12.624 C155.018,11.942 156.25,10.754 156.933,9.896 Z M157.967,18.367 C157.219,17.641 155.766,16.629 154.446,15.837 C154.82,16.453 155.128,17.091 155.304,17.619 L153.258,18.389 C153.17,18.081 153.016,17.707 152.84,17.311 C147.581,17.839 146.745,17.971 146.195,18.213 C146.085,17.795 145.755,16.695 145.491,16.123 C144.039,16.893 142.499,17.685 141.2,18.301 L139.946,16.211 C141.332,15.705 143.401,14.825 145.425,13.989 L145.909,15.903 L145.513,16.123 C146.063,16.013 146.613,15.617 147.383,15.001 C147.713,14.737 148.351,14.209 149.121,13.46 C147.427,13.592 146.943,13.703 146.613,13.835 C146.481,13.372 146.151,12.36 145.909,11.788 C146.239,11.7 146.591,11.436 146.921,11.04 C147.119,10.798 147.581,10.226 148.087,9.478 L140.584,9.478 L140.584,7.124 L148.769,7.124 C148.527,6.684 148.263,6.221 148.021,5.869 L150.684,5.253 C151.124,5.803 151.586,6.507 151.894,7.124 L159.727,7.124 L159.727,9.478 L150.64,9.478 C150.178,10.16 149.672,10.82 149.121,11.436 L151.124,11.37 C151.63,10.798 152.114,10.204 152.532,9.588 L154.534,10.776 C153.038,12.536 151.278,14.253 149.518,15.661 L151.828,15.485 C151.586,15.089 151.344,14.715 151.08,14.385 L152.994,13.703 C153.324,14.143 153.698,14.627 154.028,15.133 L155.48,13.989 C156.911,14.737 158.891,15.947 159.859,16.783 L157.967,18.367 Z M136.517,25.716 C135.197,24.264 134.272,22.218 133.634,19.775 C133.062,22.02 132.116,24.198 130.642,26.002 C130.268,25.54 129.498,24.792 128.882,24.374 C128.772,24.77 128.574,25.056 128.2,25.276 C127.606,25.65 126.791,25.672 125.691,25.672 C125.625,25.078 125.361,24.176 125.097,23.604 C125.691,23.626 126.285,23.626 126.483,23.626 C126.703,23.626 126.769,23.56 126.769,23.34 L126.769,13.394 L120.499,13.394 L120.499,25.782 L118.364,25.782 L118.364,11.304 L122.391,11.304 L122.391,9.566 L117.858,9.566 L117.858,7.366 L122.391,7.366 L122.391,5.385 L124.877,5.385 L124.877,7.366 L129.234,7.366 L129.234,9.566 L124.877,9.566 L124.877,11.304 L128.97,11.304 L128.97,23.362 C128.97,23.538 128.97,23.692 128.948,23.846 C131.302,20.942 131.874,16.959 131.984,13.681 L129.454,13.681 L129.454,11.26 L132.028,11.26 L132.028,5.363 L134.581,5.363 L134.581,6.904 L136.539,6.199 C137.155,7.366 137.859,8.906 138.189,9.874 L136.033,10.688 C135.747,9.764 135.153,8.246 134.581,7.058 L134.581,11.26 L138.123,11.26 L138.123,13.681 L134.735,13.681 C135.263,17.817 136.275,21.58 138.343,23.604 C137.793,24.088 136.935,25.034 136.517,25.716 Z M106.684,22.922 L107.982,20.964 C110.358,21.646 114.077,22.856 115.947,23.67 L114.583,25.914 C112.801,25.078 109.192,23.758 106.684,22.922 Z M96.342,10.468 L104.527,10.468 L104.527,8.774 L97.992,8.774 L97.992,6.353 L114.341,6.353 L114.341,8.774 L107.344,8.774 L107.344,10.468 L115.705,10.468 L115.705,12.932 L96.342,12.932 L96.342,10.468 Z M98.587,21.646 L98.587,14.143 L113.681,14.143 L113.681,21.36 L110.82,21.36 L110.82,16.541 L101.315,16.541 L101.315,21.646 L98.587,21.646 Z M104.527,17.377 L107.454,17.377 L107.454,19.247 C107.454,21.514 106.046,24.198 97.838,25.892 C97.508,25.276 96.716,24.286 96.034,23.714 C103.845,22.46 104.527,20.568 104.527,19.159 L104.527,17.377 Z M84.618,19.247 L90.316,19.247 L90.316,19.269 L92.275,19.269 C92.275,19.269 92.253,19.885 92.209,20.193 C91.967,23.076 91.681,24.418 91.087,24.968 C90.625,25.474 90.008,25.628 89.26,25.672 C88.622,25.738 87.412,25.738 86.202,25.694 C86.158,25.034 85.872,24.176 85.52,23.604 C86.598,23.714 87.676,23.736 88.116,23.736 C88.512,23.736 88.732,23.692 88.93,23.516 C89.194,23.296 89.392,22.614 89.524,21.25 L84.09,21.25 C83.385,23.23 81.999,24.792 79.271,25.87 C79.029,25.254 78.347,24.352 77.819,23.912 C81.229,22.68 81.955,20.59 82.241,17.861 L78.809,17.861 L78.809,15.793 L84.882,15.793 C84.684,15.199 84.31,14.407 84.024,13.791 L85.762,13.262 L78.281,13.262 C78.215,17.069 77.797,22.46 75.992,26.068 C75.442,25.672 74.254,25.056 73.572,24.836 C75.464,21.228 75.618,15.903 75.618,12.36 L75.618,7.366 L83.077,7.366 C82.901,6.86 82.725,6.353 82.549,5.957 L85.146,5.341 C85.432,5.957 85.74,6.706 85.938,7.366 L93.001,7.366 L93.001,13.262 L86.444,13.262 C86.818,13.945 87.214,14.737 87.412,15.309 L85.96,15.793 L93.595,15.793 L93.595,17.861 L84.816,17.861 C84.75,18.345 84.706,18.785 84.618,19.247 Z M90.405,11.084 L90.405,9.544 L78.281,9.544 L78.281,11.084 L90.405,11.084 Z M58.151,22.746 L64.004,22.746 L64.004,18.323 L59.361,18.323 L59.361,15.859 L64.004,15.859 L64.004,11.986 L58.635,11.986 L58.635,9.5 L64.554,9.5 C64.29,8.576 63.63,7.168 62.992,6.089 L65.412,5.275 C66.072,6.309 66.842,7.74 67.15,8.686 L64.884,9.5 L72.035,9.5 L72.035,11.986 L66.666,11.986 L66.666,15.859 L71.419,15.859 L71.419,18.323 L66.666,18.323 L66.666,22.746 L72.343,22.746 L72.343,25.232 L58.151,25.232 L58.151,22.746 Z M56.985,25.892 L54.344,25.892 L54.344,14.891 C53.882,15.441 53.42,15.991 52.98,16.475 C52.738,15.837 51.99,14.341 51.528,13.681 C53.53,11.7 55.445,8.576 56.545,5.451 L59.097,6.243 C58.525,7.784 57.799,9.346 56.985,10.82 L56.985,25.892 Z M122.303,13.526 C122.743,14.253 123.271,15.221 123.513,15.815 L122.215,16.453 C121.995,15.837 121.489,14.825 121.049,14.077 L122.303,13.526 Z M122.655,18.389 L120.983,18.389 L120.983,16.541 L123.623,16.541 C124.019,15.639 124.481,14.407 124.701,13.548 L126.373,13.945 C125.977,14.825 125.581,15.771 125.185,16.541 L126.307,16.541 L126.307,18.389 L124.613,18.389 L124.613,19.665 L126.549,19.665 L126.549,21.514 L124.613,21.514 L124.613,24.704 L122.655,24.704 L122.655,21.514 L120.763,21.514 L120.763,19.665 L122.655,19.665 L122.655,18.389 Z" id="形状" fill="url(#linearGradient-7)" fill-rule="nonzero"></path>
        </g>
    </g>
</svg>