<?xml version="1.0" encoding="UTF-8"?>
<svg width="477px" height="290px" viewBox="0 0 477 290" version="1.1" xmlns="http://www.w3.org/2000/svg" xmlns:xlink="http://www.w3.org/1999/xlink">
    <title>tq_kuang_you1</title>
    <defs>
        <linearGradient x1="0%" y1="0%" x2="100%" y2="0%" id="linearGradient-1">
            <stop stop-color="#030E6A" stop-opacity="0.8" offset="0%"></stop>
            <stop stop-color="#030E6A" stop-opacity="0" offset="100%"></stop>
        </linearGradient>
        <linearGradient x1="50%" y1="0%" x2="50%" y2="100%" id="linearGradient-2">
            <stop stop-color="#031270" offset="0%"></stop>
            <stop stop-color="#031270" stop-opacity="0.584380463" offset="40.8134834%"></stop>
            <stop stop-color="#031270" offset="100%"></stop>
        </linearGradient>
        <linearGradient x1="19.6284089%" y1="31.518457%" x2="28.9870627%" y2="68.481543%" id="linearGradient-3">
            <stop stop-color="#2845FB" offset="0%"></stop>
            <stop stop-color="#2845FB" stop-opacity="0.0366586538" offset="22.8845276%"></stop>
            <stop stop-color="#2845FB" offset="50.2340994%"></stop>
            <stop stop-color="#2845FB" stop-opacity="0" offset="100%"></stop>
        </linearGradient>
        <linearGradient x1="100%" y1="72.4361727%" x2="0%" y2="72.4361727%" id="linearGradient-4">
            <stop stop-color="#0A54FF" stop-opacity="0" offset="0%"></stop>
            <stop stop-color="#0A54FF" offset="100%"></stop>
        </linearGradient>
        <linearGradient x1="0%" y1="0%" x2="100%" y2="0%" id="linearGradient-5">
            <stop stop-color="#4BAAE4" stop-opacity="0" offset="0%"></stop>
            <stop stop-color="#4BAAE4" offset="12.7349213%"></stop>
            <stop stop-color="#005174" stop-opacity="0" offset="100%"></stop>
        </linearGradient>
        <linearGradient x1="0%" y1="0%" x2="100%" y2="0%" id="linearGradient-6">
            <stop stop-color="#4BAAE4" stop-opacity="0" offset="0%"></stop>
            <stop stop-color="#4BAAE4" offset="12.7349213%"></stop>
            <stop stop-color="#005174" stop-opacity="0" offset="100%"></stop>
        </linearGradient>
        <linearGradient x1="0%" y1="1.11022302e-14%" x2="99.939%" y2="3.49%" id="linearGradient-7">
            <stop stop-color="#00C0FF" offset="0%"></stop>
            <stop stop-color="#43F0FF" offset="49%"></stop>
            <stop stop-color="#00C0FF" offset="100%"></stop>
        </linearGradient>
    </defs>
    <g id="页面-1" stroke="none" stroke-width="1" fill="none" fill-rule="evenodd">
        <g id="tq_kuang_you1">
            <polygon id="路径" fill="url(#linearGradient-1)" points="252 0 0 0 0 32 279 32"></polygon>
            <polygon id="路径" fill="url(#linearGradient-2)" opacity="0.302" points="253.13219 0.134990042 279.289771 31.5596718 477 31.0527092 477 290 0 290 0 0"></polygon>
            <path d="M0.5,0.500268707 L252.896823,0.635873617 L279.05501,32.2516072 L476.5,31.7422914 L476.5,289.503 L0.5,289.503 L0.5,0.500268707 Z" id="路径" stroke="url(#linearGradient-3)"></path>
            <polygon id="路径" fill="url(#linearGradient-4)" opacity="0.302" points="-5.68434189e-14 0 252.544 0 279.544 32 -5.68434189e-14 32"></polygon>
            <path d="M24.275,7.635 L29.784,7.635 C32.067,7.635 33.917,9.466 33.917,11.725 L25.644,23.901 C24.566,24.843 22.419,26.729 20.142,26.7240099 L14.632,26.7240099 C12.35,26.7240099 10.5,24.892 10.5,22.633 L18.765,10.362 C20.853,8.295 21.448,7.635 24.275,7.635 Z" id="路径" fill="#00D4E8"></path>
            <path d="M31.162,4.908 L36.672,4.908 C38.954,4.908 40.804,6.739 40.804,8.998 L32.531,21.174 C31.453,22.116 29.306,24.002 27.03,23.9970099 L21.52,23.9970099 C19.238,23.9970099 17.387,22.165 17.387,19.906 L25.652,7.635 C27.741,5.568 28.335,4.908 31.162,4.908 Z" id="路径" fill="#2845FB" opacity="0.502"></path>
            <polyline id="路径" stroke="url(#linearGradient-5)" points="430.5 26.5 297.5 26.5 283.5 10.5"></polyline>
            <polyline id="路径" stroke="url(#linearGradient-6)" opacity="0.4" points="434.709 19.479 301.01 19.479 288.5 4.5"></polyline>
            <polygon id="路径" fill="#1050D3" opacity="0.2" points="467.237 12.479 462.422 12.479 470.043 23.099 474.858 23.099"></polygon>
            <polygon id="路径" fill="#2563E1" opacity="0.502" points="457.002 12.479 452.187 12.479 459.807 23.099 464.622 23.099"></polygon>
            <polygon id="路径" fill="#4680F5" points="446.767 12.479 441.952 12.479 449.572 23.099 454.387 23.099"></polygon>
            <path d="M159.791,15.617 L161.507,17.223 C160.847,17.619 160.121,17.993 159.417,18.345 C160.033,20.171 161.111,21.844 162.541,22.702 C162.035,23.164 161.287,24.044 160.935,24.66 C159.329,23.494 158.206,21.492 157.546,19.203 C157.282,19.313 157.04,19.423 156.798,19.511 C157.392,21.778 157.062,24.022 156.204,24.946 C155.61,25.672 154.928,25.892 154.026,25.914 C153.652,25.936 153.168,25.936 152.728,25.892 C152.684,25.276 152.53,24.33 152.134,23.67 C152.684,23.736 153.146,23.758 153.498,23.758 C153.894,23.758 154.158,23.692 154.4,23.296 C154.642,23.01 154.796,22.394 154.796,21.602 C152.992,23.032 150.725,24.286 148.657,24.99 C148.327,24.462 147.667,23.626 147.183,23.186 C149.779,22.46 152.772,20.964 154.444,19.445 C154.356,19.181 154.268,18.939 154.158,18.697 C152.662,19.885 150.571,21.03 148.855,21.668 C148.547,21.184 147.931,20.435 147.491,20.061 C149.471,19.511 151.936,18.367 153.278,17.289 C153.124,17.091 152.97,16.915 152.816,16.761 C151.782,17.465 150.395,18.125 148.635,18.631 C148.327,18.235 147.711,17.509 147.227,17.091 C149.163,16.519 150.549,15.837 151.584,15.111 L148.877,15.111 L148.877,12.008 C148.679,12.184 148.459,12.338 148.261,12.514 C147.887,11.964 147.139,11.15 146.611,10.82 L146.589,10.886 L146.589,25.87 L144.08,25.87 L144.08,14.869 C143.662,15.419 143.244,15.947 142.826,16.387 C142.584,15.749 141.858,14.319 141.418,13.681 C143.31,11.678 145.137,8.554 146.171,5.451 L148.635,6.221 C148.107,7.762 147.403,9.302 146.633,10.798 C148.877,9.214 150.483,7.146 151.385,5.385 L153.828,5.847 C153.63,6.199 153.432,6.573 153.212,6.926 L156.6,6.926 L157.084,6.794 L158.559,7.894 C158.096,8.598 157.568,9.324 156.974,10.006 L161.001,10.006 L161.001,15.111 L154.664,15.111 C154.554,15.243 154.444,15.375 154.312,15.507 C155.104,16.189 155.72,16.981 156.138,17.839 C157.414,17.157 158.845,16.299 159.791,15.617 Z M151.165,13.24 L153.41,13.24 C153.718,12.756 153.894,12.294 154.004,11.876 L151.165,11.876 L151.165,13.24 Z M158.581,13.24 L158.581,11.876 L156.116,11.876 C156.05,12.294 155.962,12.756 155.786,13.24 L158.581,13.24 Z M155.17,8.84 L151.914,8.84 C151.606,9.236 151.275,9.632 150.945,10.006 L154.246,10.006 C154.576,9.654 154.884,9.258 155.17,8.84 Z M120.43,6.684 L139.617,6.684 L139.617,9.104 L120.43,9.104 L120.43,6.684 Z M116.561,25.738 C111.676,23.406 109.234,19.115 107.958,15.331 C106.747,19.203 104.437,23.186 99.86,25.87 C99.398,25.166 98.562,24.33 97.682,23.736 C106.615,18.961 106.197,9.104 106.285,5.385 L109.3,5.385 C109.278,6.309 109.234,7.498 109.146,8.818 C109.454,11.788 110.796,20.083 118.475,23.472 C117.661,24.11 116.913,24.99 116.561,25.738 Z M94.715,25.782 C93.307,24.792 92.14,23.582 91.128,22.108 C90.006,23.67 88.664,24.924 87.146,25.958 C86.772,25.32 86.046,24.44 85.518,24 C87.146,23.01 88.554,21.536 89.742,19.687 C88.444,16.981 87.608,13.725 86.992,10.116 L86.222,10.116 L86.222,7.652 L93.703,7.652 L94.143,7.564 L95.771,7.982 C95.287,12.822 94.231,16.695 92.603,19.797 C93.637,21.448 94.913,22.79 96.497,23.758 C95.925,24.198 95.133,25.122 94.715,25.782 Z M93.043,10.116 L89.28,10.116 C89.72,12.58 90.314,14.891 91.15,16.937 C92.008,14.935 92.647,12.646 93.043,10.116 Z M84.791,19.467 L86.486,19.225 L86.618,21.404 L84.791,21.734 L84.791,25.87 L82.239,25.87 L82.239,22.196 C80.083,22.57 78.036,22.922 76.32,23.186 L75.814,20.722 C76.232,20.678 76.738,20.612 77.266,20.546 L77.266,8.576 L76.056,8.576 L76.056,6.243 L86.068,6.243 L86.068,8.576 L84.791,8.576 L84.791,19.467 Z M82.239,8.576 L79.775,8.576 L79.775,10.82 L82.239,10.82 L82.239,8.576 Z M82.239,13.042 L79.775,13.042 L79.775,15.441 L82.239,15.441 L82.239,13.042 Z M82.239,17.663 L79.775,17.663 L79.775,20.193 L82.239,19.841 L82.239,17.663 Z M70.096,23.34 C70.845,23.34 73.573,23.34 74.519,23.318 C74.211,23.846 73.903,24.946 73.815,25.606 L69.986,25.606 C67.104,25.606 64.882,25.078 63.385,22.416 C62.813,23.802 62.043,24.968 61.075,25.87 C60.679,25.452 59.689,24.638 59.161,24.308 C60.987,22.856 61.889,20.413 62.219,17.421 L64.596,17.707 C64.486,18.499 64.354,19.247 64.178,19.929 C64.662,21.206 65.3,21.998 66.092,22.504 L66.092,16.761 L60.921,16.761 L60.921,14.649 L73.925,14.649 L73.925,16.761 L68.556,16.761 L68.556,18.697 L72.759,18.697 L72.759,20.744 L68.556,20.744 L68.556,23.274 C69.062,23.318 69.546,23.34 70.096,23.34 Z M61.999,6.045 L72.825,6.045 L72.825,13.637 L61.999,13.637 L61.999,6.045 Z M64.398,11.788 L70.316,11.788 L70.316,10.666 L64.398,10.666 L64.398,11.788 Z M64.398,8.972 L70.316,8.972 L70.316,7.872 L64.398,7.872 L64.398,8.972 Z M60.525,14.671 L60.877,17.025 L58.545,17.729 L58.545,22.856 C58.545,24.066 58.347,24.704 57.687,25.1 C57.027,25.54 56.058,25.628 54.65,25.606 C54.584,24.968 54.298,23.89 53.968,23.208 C54.782,23.23 55.53,23.23 55.794,23.208 C56.058,23.208 56.168,23.12 56.168,22.834 L56.168,18.433 C55.442,18.631 54.782,18.829 54.144,19.005 L53.55,16.475 C54.298,16.321 55.178,16.079 56.168,15.837 L56.168,11.942 L53.792,11.942 L53.792,9.522 L56.168,9.522 L56.168,5.363 L58.545,5.363 L58.545,9.522 L60.745,9.522 L60.745,11.942 L58.545,11.942 L58.545,15.199 L60.525,14.671 Z M135.238,10.886 L135.238,20.876 L124.765,20.876 L124.765,10.886 L135.238,10.886 Z M131.058,18.741 L132.972,18.741 L132.972,16.849 L131.058,16.849 L131.058,18.741 Z M131.058,14.869 L132.972,14.869 L132.972,13.02 L131.058,13.02 L131.058,14.869 Z M126.899,18.741 L128.813,18.741 L128.813,16.849 L126.899,16.849 L126.899,18.741 Z M126.899,14.869 L128.813,14.869 L128.813,13.02 L126.899,13.02 L126.899,14.869 Z M123.401,22.438 L136.691,22.438 L136.691,12.228 L139.331,12.228 L139.331,25.87 L136.691,25.87 L136.691,24.88 L120.694,24.88 L120.694,12.338 L123.401,12.338 L123.401,22.438 Z" id="形状" fill="url(#linearGradient-7)" fill-rule="nonzero"></path>
        </g>
    </g>
</svg>