<?xml version="1.0" encoding="UTF-8"?>
<svg width="477px" height="302px" viewBox="0 0 477 302" version="1.1" xmlns="http://www.w3.org/2000/svg" xmlns:xlink="http://www.w3.org/1999/xlink">
    <title>tq_kuang_zuo3</title>
    <defs>
        <linearGradient x1="0%" y1="0%" x2="100%" y2="0%" id="linearGradient-1">
            <stop stop-color="#030E6A" stop-opacity="0.8" offset="0%"></stop>
            <stop stop-color="#030E6A" stop-opacity="0" offset="100%"></stop>
        </linearGradient>
        <linearGradient x1="50%" y1="0%" x2="50%" y2="100%" id="linearGradient-2">
            <stop stop-color="#031270" offset="0%"></stop>
            <stop stop-color="#031270" stop-opacity="0.584380463" offset="40.8134834%"></stop>
            <stop stop-color="#031270" offset="100%"></stop>
        </linearGradient>
        <linearGradient x1="19.6284089%" y1="29.9573215%" x2="28.9870627%" y2="70.0426785%" id="linearGradient-3">
            <stop stop-color="#2845FB" offset="0%"></stop>
            <stop stop-color="#2845FB" stop-opacity="0.0366586538" offset="22.8845276%"></stop>
            <stop stop-color="#2845FB" offset="50.2340994%"></stop>
            <stop stop-color="#2845FB" stop-opacity="0" offset="100%"></stop>
        </linearGradient>
        <linearGradient x1="100%" y1="72.4361727%" x2="0%" y2="72.4361727%" id="linearGradient-4">
            <stop stop-color="#0A54FF" stop-opacity="0" offset="0%"></stop>
            <stop stop-color="#0A54FF" offset="100%"></stop>
        </linearGradient>
        <linearGradient x1="0%" y1="0%" x2="100%" y2="0%" id="linearGradient-5">
            <stop stop-color="#4BAAE4" stop-opacity="0" offset="0%"></stop>
            <stop stop-color="#4BAAE4" offset="12.7349213%"></stop>
            <stop stop-color="#005174" stop-opacity="0" offset="100%"></stop>
        </linearGradient>
        <linearGradient x1="0%" y1="0%" x2="100%" y2="0%" id="linearGradient-6">
            <stop stop-color="#4BAAE4" stop-opacity="0" offset="0%"></stop>
            <stop stop-color="#4BAAE4" offset="12.7349213%"></stop>
            <stop stop-color="#005174" stop-opacity="0" offset="100%"></stop>
        </linearGradient>
        <linearGradient x1="0%" y1="1.11022302e-14%" x2="99.939%" y2="3.49%" id="linearGradient-7">
            <stop stop-color="#00C0FF" offset="0%"></stop>
            <stop stop-color="#43F0FF" offset="49%"></stop>
            <stop stop-color="#00C0FF" offset="100%"></stop>
        </linearGradient>
    </defs>
    <g id="页面-1" stroke="none" stroke-width="1" fill="none" fill-rule="evenodd">
        <g id="tq_kuang_zuo3">
            <polygon id="路径" fill="url(#linearGradient-1)" points="252 0 0 0 0 32 279 32"></polygon>
            <polygon id="路径" fill="url(#linearGradient-2)" opacity="0.302" points="253.13219 0.134990042 279.289771 31.5596718 477 31.0527092 477 302 0 302 0 0"></polygon>
            <path d="M0.5,0.500268707 L252.896823,0.635873617 L279.05501,32.2516072 L476.5,31.7422914 L476.5,301.503 L0.5,301.503 L0.5,0.500268707 Z" id="路径" stroke="url(#linearGradient-3)"></path>
            <polygon id="路径" fill="url(#linearGradient-4)" opacity="0.302" points="0 0 252.544 0 279.544 32 0 32"></polygon>
            <path d="M24.275,7.635 L29.784,7.635 C32.067,7.635 33.917,9.466 33.917,11.725 L25.644,23.901 C24.566,24.843 22.419,26.729 20.142,26.7240099 L14.632,26.7240099 C12.35,26.7240099 10.5,24.892 10.5,22.633 L18.765,10.362 C20.853,8.295 21.448,7.635 24.275,7.635 Z" id="路径" fill="#00D4E8"></path>
            <path d="M31.162,4.908 L36.672,4.908 C38.954,4.908 40.804,6.739 40.804,8.998 L32.531,21.174 C31.453,22.116 29.306,24.002 27.03,23.9970099 L21.52,23.9970099 C19.238,23.9970099 17.387,22.165 17.387,19.906 L25.652,7.635 C27.741,5.568 28.335,4.908 31.162,4.908 Z" id="路径" fill="#2845FB" opacity="0.502"></path>
            <polyline id="路径" stroke="url(#linearGradient-5)" points="430.5 26.5 297.5 26.5 283.5 10.5"></polyline>
            <polyline id="路径" stroke="url(#linearGradient-6)" opacity="0.4" points="434.709 19.479 301.01 19.479 288.5 4.5"></polyline>
            <polygon id="路径" fill="#1050D3" opacity="0.2" points="467.237 12.479 462.422 12.479 470.043 23.099 474.858 23.099"></polygon>
            <polygon id="路径" fill="#2563E1" opacity="0.502" points="457.002 12.479 452.187 12.479 459.807 23.099 464.622 23.099"></polygon>
            <polygon id="路径" fill="#4680F5" points="446.767 12.479 441.952 12.479 449.572 23.099 454.387 23.099"></polygon>
            <path d="M182.277,11.756 L182.277,14.221 L179.439,14.221 L179.439,24.892 L176.842,24.892 L176.842,14.221 L173.96,14.221 C173.872,17.565 173.41,21.988 171.474,24.848 C170.989,24.452 169.911,23.792 169.295,23.55 C171.297,20.624 171.474,16.377 171.474,13.275 L171.474,6.784 C174.18,6.278 177.106,5.463 178.889,4.583 L181.089,6.652 C179.021,7.51 176.424,8.192 173.96,8.654 L173.96,11.756 L182.277,11.756 Z M167.579,12.196 C168.393,13.187 170.087,15.497 170.483,16.069 L168.965,18.137 C168.657,17.455 168.129,16.443 167.579,15.475 L167.579,24.892 L165.071,24.892 L165.071,16.355 C164.41,18.225 163.618,19.942 162.738,21.13 C162.496,20.382 161.902,19.347 161.506,18.687 C162.892,16.949 164.124,13.957 164.785,11.36 L162.1,11.36 L162.1,8.896 L165.071,8.896 L165.071,4.363 L167.579,4.363 L167.579,8.896 L170.571,8.896 L170.571,11.36 L167.579,11.36 L167.579,12.196 Z M156.999,13.495 L156.999,13.561 C156.779,20.052 156.515,22.648 155.744,23.55 C155.194,24.254 154.6,24.496 153.764,24.584 C152.972,24.694 151.74,24.694 150.42,24.65 C150.376,23.858 150.046,22.758 149.584,22.01 C150.772,22.12 151.938,22.12 152.466,22.12 C152.862,22.12 153.104,22.054 153.346,21.834 C153.808,21.328 154.028,19.457 154.226,14.991 L149.628,14.991 C149.055,19.149 147.603,22.89 141.948,24.98 C141.64,24.276 140.892,23.22 140.298,22.648 C145.205,21.064 146.371,18.159 146.833,14.991 L143.291,14.991 L143.291,13.693 C142.873,14.155 142.432,14.573 141.97,14.947 C141.486,14.397 140.386,13.341 139.748,12.879 C142.322,11.03 144.545,7.95 145.777,4.671 L148.593,5.441 C147.603,7.994 146.129,10.414 144.479,12.394 L156.074,12.394 C154.424,10.348 152.796,7.906 151.652,5.551 L154.116,4.627 C155.436,7.4 158.077,10.656 160.343,12.526 C159.683,13.033 158.715,14.045 158.231,14.749 C157.835,14.353 157.417,13.935 156.999,13.495 Z M136.715,24.782 C135.307,23.792 134.14,22.582 133.128,21.108 C132.006,22.67 130.664,23.924 129.146,24.958 C128.772,24.32 128.046,23.44 127.518,23 C129.146,22.01 130.554,20.536 131.742,18.687 C130.444,15.981 129.608,12.725 128.992,9.116 L128.222,9.116 L128.222,6.652 L135.703,6.652 L136.143,6.564 L137.771,6.982 C137.287,11.822 136.231,15.695 134.603,18.797 C135.637,20.448 136.913,21.79 138.497,22.758 C137.925,23.198 137.133,24.122 136.715,24.782 Z M135.043,9.116 L131.28,9.116 C131.72,11.58 132.314,13.891 133.15,15.937 C134.008,13.935 134.647,11.646 135.043,9.116 Z M126.791,18.467 L128.486,18.225 L128.618,20.404 L126.791,20.734 L126.791,24.87 L124.239,24.87 L124.239,21.196 C122.083,21.57 120.036,21.922 118.32,22.186 L117.814,19.722 C118.232,19.678 118.738,19.612 119.266,19.546 L119.266,7.576 L118.056,7.576 L118.056,5.243 L128.068,5.243 L128.068,7.576 L126.791,7.576 L126.791,18.467 Z M124.239,7.576 L121.775,7.576 L121.775,9.82 L124.239,9.82 L124.239,7.576 Z M124.239,12.042 L121.775,12.042 L121.775,14.441 L124.239,14.441 L124.239,12.042 Z M124.239,16.663 L121.775,16.663 L121.775,19.193 L124.239,18.841 L124.239,16.663 Z M112.096,22.34 C112.845,22.34 115.573,22.34 116.519,22.318 C116.211,22.846 115.903,23.946 115.815,24.606 L111.986,24.606 C109.104,24.606 106.882,24.078 105.385,21.416 C104.813,22.802 104.043,23.968 103.075,24.87 C102.679,24.452 101.689,23.638 101.161,23.308 C102.987,21.856 103.889,19.413 104.219,16.421 L106.596,16.707 C106.486,17.499 106.354,18.247 106.178,18.929 C106.662,20.206 107.3,20.998 108.092,21.504 L108.092,15.761 L102.921,15.761 L102.921,13.649 L115.925,13.649 L115.925,15.761 L110.556,15.761 L110.556,17.697 L114.759,17.697 L114.759,19.744 L110.556,19.744 L110.556,22.274 C111.062,22.318 111.546,22.34 112.096,22.34 Z M103.999,5.045 L114.825,5.045 L114.825,12.637 L103.999,12.637 L103.999,5.045 Z M106.398,10.788 L112.316,10.788 L112.316,9.666 L106.398,9.666 L106.398,10.788 Z M106.398,7.972 L112.316,7.972 L112.316,6.872 L106.398,6.872 L106.398,7.972 Z M102.525,13.671 L102.877,16.025 L100.545,16.729 L100.545,21.856 C100.545,23.066 100.347,23.704 99.687,24.1 C99.027,24.54 98.058,24.628 96.65,24.606 C96.584,23.968 96.298,22.89 95.968,22.208 C96.782,22.23 97.53,22.23 97.794,22.208 C98.058,22.208 98.168,22.12 98.168,21.834 L98.168,17.433 C97.442,17.631 96.782,17.829 96.144,18.005 L95.55,15.475 C96.298,15.321 97.178,15.079 98.168,14.837 L98.168,10.942 L95.792,10.942 L95.792,8.522 L98.168,8.522 L98.168,4.363 L100.545,4.363 L100.545,8.522 L102.745,8.522 L102.745,10.942 L100.545,10.942 L100.545,14.199 L102.525,13.671 Z M84.618,18.247 L90.316,18.247 L90.316,18.269 L92.275,18.269 C92.275,18.269 92.253,18.885 92.209,19.193 C91.967,22.076 91.681,23.418 91.087,23.968 C90.625,24.474 90.008,24.628 89.26,24.672 C88.622,24.738 87.412,24.738 86.202,24.694 C86.158,24.034 85.872,23.176 85.52,22.604 C86.598,22.714 87.676,22.736 88.116,22.736 C88.512,22.736 88.732,22.692 88.93,22.516 C89.194,22.296 89.392,21.614 89.524,20.25 L84.09,20.25 C83.385,22.23 81.999,23.792 79.271,24.87 C79.029,24.254 78.347,23.352 77.819,22.912 C81.229,21.68 81.955,19.59 82.241,16.861 L78.809,16.861 L78.809,14.793 L84.882,14.793 C84.684,14.199 84.31,13.407 84.024,12.791 L85.762,12.262 L78.281,12.262 C78.215,16.069 77.797,21.46 75.992,25.068 C75.442,24.672 74.254,24.056 73.572,23.836 C75.464,20.228 75.618,14.903 75.618,11.36 L75.618,6.366 L83.077,6.366 C82.901,5.86 82.725,5.353 82.549,4.957 L85.146,4.341 C85.432,4.957 85.74,5.706 85.938,6.366 L93.001,6.366 L93.001,12.262 L86.444,12.262 C86.818,12.945 87.214,13.737 87.412,14.309 L85.96,14.793 L93.595,14.793 L93.595,16.861 L84.816,16.861 C84.75,17.345 84.706,17.785 84.618,18.247 Z M90.405,10.084 L90.405,8.544 L78.281,8.544 L78.281,10.084 L90.405,10.084 Z M68.691,24.76 C67.986,24.892 66.864,24.87 65.764,24.848 C65.742,24.1 65.412,22.978 64.95,22.23 C66.028,22.318 67.018,22.318 67.502,22.318 C67.876,22.318 68.096,22.252 68.316,21.922 C68.559,21.636 68.735,20.91 68.867,19.546 L67.018,20.228 C66.974,19.898 66.886,19.546 66.798,19.149 C62.97,19.986 62.244,20.228 61.782,20.514 C61.65,20.052 61.297,18.973 61.011,18.357 C61.385,18.247 61.694,17.785 62.002,17.081 C62.332,16.421 63.3,13.781 63.718,11.382 L66.072,12.042 C65.588,13.935 64.818,15.959 64.004,17.631 L66.314,17.191 C66.116,16.399 65.896,15.607 65.654,14.903 L67.436,14.309 C68.03,15.893 68.647,17.961 68.889,19.303 C69.065,17.389 69.175,14.463 69.263,10.018 L63.85,10.018 C63.322,11.228 62.706,12.35 62.09,13.209 C61.716,12.857 60.967,12.218 60.373,11.778 L60.373,18.863 L58.327,18.863 L58.327,7.906 L54.41,7.906 L54.41,18.995 L52.452,18.995 L52.452,5.573 L60.373,5.573 L60.373,11.118 C61.562,9.38 62.53,6.828 63.102,4.363 L65.61,4.913 C65.368,5.838 65.104,6.74 64.796,7.642 L71.793,7.642 L71.793,8.852 C71.551,18.907 71.353,22.45 70.561,23.572 C70.033,24.364 69.505,24.606 68.691,24.76 Z M55.423,9.072 L57.447,9.072 L57.447,14.969 C57.447,18.225 56.809,22.274 53.112,24.782 C52.826,24.342 52.166,23.66 51.704,23.286 C55.159,21.262 55.423,17.631 55.423,14.969 L55.423,9.072 Z M61.43,23.22 L59.625,24.584 C59.009,23.572 57.623,21.856 56.567,20.602 L58.283,19.391 C59.339,20.558 60.747,22.186 61.43,23.22 Z" id="形状" fill="url(#linearGradient-7)" fill-rule="nonzero"></path>
        </g>
    </g>
</svg>