<?xml version="1.0" encoding="UTF-8"?>
<svg width="477px" height="360px" viewBox="0 0 477 360" version="1.1" xmlns="http://www.w3.org/2000/svg" xmlns:xlink="http://www.w3.org/1999/xlink">
    <title>tq_kuang_you3</title>
    <defs>
        <linearGradient x1="0%" y1="0%" x2="100%" y2="0%" id="linearGradient-1">
            <stop stop-color="#030E6A" stop-opacity="0.8" offset="0%"></stop>
            <stop stop-color="#030E6A" stop-opacity="0" offset="100%"></stop>
        </linearGradient>
        <linearGradient x1="50%" y1="0%" x2="50%" y2="100%" id="linearGradient-2">
            <stop stop-color="#031270" offset="0%"></stop>
            <stop stop-color="#031270" stop-opacity="0.584380463" offset="40.8134834%"></stop>
            <stop stop-color="#031270" offset="100%"></stop>
        </linearGradient>
        <linearGradient x1="19.6284089%" y1="21.5196393%" x2="28.9870627%" y2="78.4803607%" id="linearGradient-3">
            <stop stop-color="#2845FB" offset="0%"></stop>
            <stop stop-color="#2845FB" stop-opacity="0.0366586538" offset="22.8845276%"></stop>
            <stop stop-color="#2845FB" offset="50.2340994%"></stop>
            <stop stop-color="#2845FB" stop-opacity="0" offset="100%"></stop>
        </linearGradient>
        <linearGradient x1="100%" y1="72.4361727%" x2="0%" y2="72.4361727%" id="linearGradient-4">
            <stop stop-color="#0A54FF" stop-opacity="0" offset="0%"></stop>
            <stop stop-color="#0A54FF" offset="100%"></stop>
        </linearGradient>
        <linearGradient x1="0%" y1="0%" x2="100%" y2="0%" id="linearGradient-5">
            <stop stop-color="#4BAAE4" stop-opacity="0" offset="0%"></stop>
            <stop stop-color="#4BAAE4" offset="12.7349213%"></stop>
            <stop stop-color="#005174" stop-opacity="0" offset="100%"></stop>
        </linearGradient>
        <linearGradient x1="0%" y1="0%" x2="100%" y2="0%" id="linearGradient-6">
            <stop stop-color="#4BAAE4" stop-opacity="0" offset="0%"></stop>
            <stop stop-color="#4BAAE4" offset="12.7349213%"></stop>
            <stop stop-color="#005174" stop-opacity="0" offset="100%"></stop>
        </linearGradient>
        <linearGradient x1="0%" y1="5.55111512e-15%" x2="99.939%" y2="3.49%" id="linearGradient-7">
            <stop stop-color="#00C0FF" offset="0%"></stop>
            <stop stop-color="#43F0FF" offset="49%"></stop>
            <stop stop-color="#00C0FF" offset="100%"></stop>
        </linearGradient>
    </defs>
    <g id="页面-1" stroke="none" stroke-width="1" fill="none" fill-rule="evenodd">
        <g id="tq_kuang_you3">
            <polygon id="路径" fill="url(#linearGradient-1)" points="252 0 0 0 0 32 279 32"></polygon>
            <polygon id="路径" fill="url(#linearGradient-2)" opacity="0.302" points="253.13219 0.134990042 279.289771 31.5596718 477 31.0527092 477 360 0 360 0 0"></polygon>
            <path d="M0.5,0.500268707 L252.896823,0.635873617 L279.05501,32.2516072 L476.5,31.7422914 L476.5,359.503 L0.5,359.503 L0.5,0.500268707 Z" id="路径" stroke="url(#linearGradient-3)"></path>
            <polygon id="路径" fill="url(#linearGradient-4)" opacity="0.302" points="-5.68434189e-14 0 252.544 0 279.544 32 -5.68434189e-14 32"></polygon>
            <path d="M24.275,7.635 L29.784,7.635 C32.067,7.635 33.917,9.466 33.917,11.725 L25.644,23.901 C24.566,24.843 22.419,26.729 20.142,26.7240099 L14.632,26.7240099 C12.35,26.7240099 10.5,24.892 10.5,22.633 L18.765,10.362 C20.853,8.295 21.448,7.635 24.275,7.635 Z" id="路径" fill="#00D4E8"></path>
            <path d="M31.162,4.908 L36.672,4.908 C38.954,4.908 40.804,6.739 40.804,8.998 L32.531,21.174 C31.453,22.116 29.306,24.002 27.03,23.9970099 L21.52,23.9970099 C19.238,23.9970099 17.387,22.165 17.387,19.906 L25.652,7.635 C27.741,5.568 28.335,4.908 31.162,4.908 Z" id="路径" fill="#2845FB" opacity="0.502"></path>
            <polyline id="路径" stroke="url(#linearGradient-5)" points="430.5 26.5 297.5 26.5 283.5 10.5"></polyline>
            <polyline id="路径" stroke="url(#linearGradient-6)" opacity="0.4" points="434.709 19.479 301.01 19.479 288.5 4.5"></polyline>
            <polygon id="路径" fill="#1050D3" opacity="0.2" points="467.237 12.479 462.422 12.479 470.043 23.099 474.858 23.099"></polygon>
            <polygon id="路径" fill="#2563E1" opacity="0.502" points="457.002 12.479 452.187 12.479 459.807 23.099 464.622 23.099"></polygon>
            <polygon id="路径" fill="#4680F5" points="446.767 12.479 441.952 12.479 449.572 23.099 454.387 23.099"></polygon>
            <path d="M228.299,18.653 L228.299,21.096 L224.316,21.096 L224.316,25.914 L221.786,25.914 L221.786,21.096 L218.09,21.096 L218.09,18.653 L221.786,18.653 L221.786,16.343 L218.838,16.343 L218.838,13.945 L221.786,13.945 L221.786,11.942 L218.574,11.942 L218.574,9.588 L219.872,9.588 C219.674,8.598 219.168,7.256 218.596,6.221 L220.686,5.495 C221.368,6.595 221.962,8.07 222.182,9.082 L220.774,9.588 L225.571,9.588 L223.744,9.104 C224.206,8.07 224.801,6.485 225.065,5.319 L227.595,5.913 C227.045,7.256 226.451,8.62 225.945,9.588 L227.859,9.588 L227.859,11.942 L224.316,11.942 L224.316,13.945 L227.463,13.945 L227.463,16.343 L224.316,16.343 L224.316,18.653 L228.299,18.653 Z M217.099,15.749 L212.325,15.749 C212.193,16.343 212.017,16.893 211.819,17.443 L217.54,17.443 L217.54,24.858 L212.391,24.858 L212.391,25.936 L210.014,25.936 L210.014,20.832 C209.728,21.162 209.442,21.514 209.112,21.844 C208.87,21.36 207.99,20.369 207.506,19.929 C208.65,18.829 209.398,17.421 209.948,15.749 L208.87,15.749 L208.87,13.548 L210.499,13.548 C210.565,13.108 210.653,12.668 210.719,12.184 L207.77,12.184 L207.748,10.006 L210.917,10.006 C210.961,9.544 210.983,9.06 211.005,8.576 L208.98,8.576 L208.98,6.375 L217.099,6.375 L217.099,10.006 L218.178,10.006 L218.178,12.184 L217.099,12.184 L217.099,15.749 Z M212.391,22.614 L215.009,22.614 L215.009,19.687 L212.391,19.687 L212.391,22.614 Z M214.679,8.576 L213.381,8.576 C213.337,9.06 213.315,9.544 213.271,10.006 L214.679,10.006 L214.679,8.576 Z M214.679,12.184 L213.029,12.184 C212.963,12.646 212.919,13.086 212.831,13.548 L214.679,13.548 L214.679,12.184 Z M204.561,25.738 C199.676,23.406 197.234,19.115 195.958,15.331 C194.747,19.203 192.437,23.186 187.86,25.87 C187.398,25.166 186.562,24.33 185.682,23.736 C194.615,18.961 194.197,9.104 194.285,5.385 L197.3,5.385 C197.278,6.309 197.234,7.498 197.146,8.818 C197.454,11.788 198.796,20.083 206.475,23.472 C205.661,24.11 204.913,24.99 204.561,25.738 Z M182.649,25.848 C179.37,24.044 177.61,20.656 176.576,16.343 L175.256,16.343 L175.256,22.526 L178.314,21.844 C178.292,22.592 178.336,23.67 178.424,24.22 C174.134,25.32 173.319,25.65 172.791,25.98 C172.593,25.408 172.043,24.374 171.669,23.934 C172.131,23.648 172.681,23.054 172.681,22.02 L172.681,6.243 L182.627,6.243 L182.627,16.343 L178.82,16.343 C179.062,17.201 179.348,17.993 179.7,18.741 C180.603,18.059 181.571,17.245 182.209,16.563 L183.903,18.411 C182.957,19.159 181.813,19.995 180.823,20.634 C181.747,21.888 182.935,22.922 184.387,23.582 C183.815,24.088 183.023,25.122 182.649,25.848 Z M180.096,8.488 L175.256,8.488 L175.256,10.204 L180.096,10.204 L180.096,8.488 Z M180.096,14.077 L180.096,12.316 L175.256,12.316 L175.256,14.077 L180.096,14.077 Z M171.735,17.443 C171.735,18.851 171.449,19.797 170.745,20.325 C170.415,20.59 169.997,20.722 169.513,20.81 C169.117,20.876 168.589,20.876 168.083,20.854 C168.083,20.215 167.863,19.247 167.511,18.609 C167.885,18.631 168.215,18.653 168.457,18.631 C168.677,18.631 168.897,18.587 169.051,18.455 C169.315,18.257 169.447,17.773 169.447,17.157 C169.447,16.079 169.161,14.671 167.907,13.13 C168.325,11.788 168.809,10.006 169.161,8.554 L167.027,8.554 L167.027,25.87 L164.738,25.87 L164.738,6.221 L169.975,6.221 L170.327,6.111 L172.043,7.102 C171.471,8.95 170.745,11.172 170.151,12.866 C171.471,14.583 171.735,16.145 171.735,17.443 Z M154.554,25.936 L151.848,25.936 L151.848,21.228 L141.946,21.228 L141.946,18.719 L145.423,18.719 L145.423,12.954 L151.848,12.954 L151.848,10.314 L147.139,10.314 C146.237,11.876 145.181,13.284 144.146,14.319 C143.64,13.879 142.518,12.998 141.88,12.624 C143.86,10.952 145.555,8.136 146.501,5.297 L149.163,5.979 C148.965,6.595 148.723,7.19 148.437,7.784 L160.869,7.784 L160.869,10.314 L154.554,10.314 L154.554,12.954 L160.363,12.954 L160.363,15.375 L154.554,15.375 L154.554,18.719 L162.079,18.719 L162.079,21.228 L154.554,21.228 L154.554,25.936 Z M151.848,15.375 L148.041,15.375 L148.041,18.719 L151.848,18.719 L151.848,15.375 Z M138.715,23.296 C136.999,21.602 135.458,19.071 134.27,16.299 L134.27,25.914 L131.674,25.914 L131.674,16.739 C130.398,19.401 128.769,21.756 126.987,23.406 C126.569,22.834 125.799,21.998 125.205,21.47 L125.205,25.87 L122.631,25.87 L122.631,14.693 C122.036,15.419 121.442,16.101 120.826,16.673 C120.562,16.035 119.77,14.561 119.308,13.923 C121.53,11.92 123.643,8.752 124.875,5.473 L127.471,6.309 C126.855,7.85 126.085,9.456 125.205,10.952 L125.205,21.206 C127.383,19.423 129.363,16.365 130.64,13.24 L126.085,13.24 L126.085,10.688 L131.674,10.688 L131.674,5.715 L134.27,5.715 L134.27,10.688 L140.013,10.688 L140.013,13.24 L135.414,13.24 C136.669,16.365 138.583,19.401 140.673,21.206 C140.035,21.668 139.155,22.614 138.715,23.296 Z M110.554,25.496 C107.936,25.496 106.021,25.232 104.371,24.418 C103.359,23.912 102.633,23.318 102.061,23.318 C101.313,23.318 100.168,24.594 99.178,25.848 L97.572,23.604 C98.562,22.68 99.596,21.932 100.543,21.514 L100.543,15.617 L97.968,15.617 L97.968,13.174 L103.051,13.174 L103.051,21.36 C103.513,21.58 104.063,21.932 104.811,22.306 C106.285,23.032 108.31,23.186 110.642,23.186 C112.864,23.186 116.231,23.01 118.365,22.702 C118.079,23.362 117.705,24.55 117.661,25.276 C116.209,25.364 112.688,25.496 110.554,25.496 Z M117.419,20.501 L115.505,21.998 C114.294,20.369 111.544,17.927 109.3,16.233 L111.038,14.957 C111.698,15.419 112.402,15.969 113.106,16.519 C113.876,16.013 114.713,15.375 115.351,14.803 L108.09,14.803 L108.09,19.005 L111.302,18.411 C111.28,19.071 111.346,20.039 111.434,20.59 C106.879,21.602 106.065,21.822 105.515,22.13 C105.339,21.58 104.767,20.568 104.371,20.127 C104.855,19.841 105.427,19.203 105.427,18.169 L105.427,6.133 L116.077,6.133 L116.077,14.605 L117.815,16.013 C116.825,16.673 115.725,17.355 114.779,17.905 C115.835,18.829 116.803,19.731 117.419,20.501 Z M113.546,8.224 L108.09,8.224 L108.09,9.5 L113.546,9.5 L113.546,8.224 Z M113.546,11.392 L108.09,11.392 L108.09,12.712 L113.546,12.712 L113.546,11.392 Z M98.232,7.476 L100.19,6.067 C101.401,7.058 102.897,8.51 103.579,9.544 L101.467,11.128 C100.851,10.116 99.442,8.576 98.232,7.476 Z M88.224,25.474 C85.43,25.474 83.581,25.232 81.975,24.33 C80.963,23.824 80.215,23.12 79.731,23.12 C79.071,23.12 78.102,24.55 77.332,25.848 L75.572,23.362 C76.584,22.284 77.618,21.492 78.565,21.074 L78.565,15.771 L76.078,15.771 L76.078,13.196 L81.117,13.196 L81.117,21.316 C81.469,21.536 81.865,21.8 82.371,22.064 C83.845,22.9 85.87,23.032 88.312,23.032 C90.644,23.032 94.209,22.834 96.409,22.504 C96.101,23.23 95.683,24.506 95.639,25.254 C94.099,25.342 90.468,25.474 88.224,25.474 Z M92.361,21.998 L89.764,21.998 L89.764,13.923 L86.42,13.923 C86.222,16.739 85.672,19.951 84.153,22.174 C83.691,21.734 82.481,20.898 81.887,20.612 C83.669,17.971 83.823,14.187 83.823,11.458 L83.823,6.639 C87.366,6.529 91.37,6.111 93.659,5.407 L95.793,7.366 C93.219,8.18 89.72,8.598 86.486,8.774 L86.486,11.48 L86.486,11.502 L96.013,11.502 L96.013,13.923 L92.361,13.923 L92.361,21.998 Z M76.386,7.036 L78.388,5.737 C79.555,6.882 81.051,8.488 81.755,9.588 L79.599,11.062 C78.983,9.984 77.53,8.246 76.386,7.036 Z M62.857,14.517 C62.395,14.121 61.471,13.504 60.811,13.13 L60.811,25.694 L58.237,25.694 L58.237,5.627 L60.811,5.627 L60.811,12.778 C62.505,10.996 63.738,8.18 64.42,5.275 L67.038,5.781 C66.862,6.463 66.664,7.102 66.444,7.762 L74.035,7.762 L74.035,10.27 L65.498,10.27 C64.728,11.92 63.826,13.394 62.857,14.517 Z M54.452,7.806 L56.873,7.806 L56.873,23.406 L54.452,23.406 L54.452,7.806 Z M67.5,10.424 C68.864,11.37 70.471,12.668 71.351,13.482 L69.612,15.353 C68.776,14.517 67.126,13.02 65.806,11.986 L67.5,10.424 Z M73.617,25.826 L70.977,25.826 L70.977,24.858 L64.882,24.858 L64.882,25.914 L62.373,25.914 L62.373,15.661 L73.617,15.661 L73.617,25.826 Z M66.818,18.169 L64.882,18.169 L64.882,22.438 L66.818,22.438 L66.818,18.169 Z M70.977,18.169 L69.194,18.169 L69.194,22.438 L70.977,22.438 L70.977,18.169 Z" id="形状" fill="url(#linearGradient-7)" fill-rule="nonzero"></path>
        </g>
    </g>
</svg>