<?xml version="1.0" encoding="UTF-8"?>
<svg width="477px" height="360px" viewBox="0 0 477 360" version="1.1" xmlns="http://www.w3.org/2000/svg" xmlns:xlink="http://www.w3.org/1999/xlink">
    <title>tq_kuang_zuo1</title>
    <defs>
        <linearGradient x1="0%" y1="0%" x2="100%" y2="0%" id="linearGradient-1">
            <stop stop-color="#030E6A" stop-opacity="0.8" offset="0%"></stop>
            <stop stop-color="#030E6A" stop-opacity="0" offset="100%"></stop>
        </linearGradient>
        <linearGradient x1="50%" y1="0%" x2="50%" y2="100%" id="linearGradient-2">
            <stop stop-color="#031270" offset="0%"></stop>
            <stop stop-color="#031270" stop-opacity="0.584380463" offset="40.8134834%"></stop>
            <stop stop-color="#031270" offset="100%"></stop>
        </linearGradient>
        <linearGradient x1="19.6284089%" y1="21.5196393%" x2="28.9870627%" y2="78.4803607%" id="linearGradient-3">
            <stop stop-color="#2845FB" offset="0%"></stop>
            <stop stop-color="#2845FB" stop-opacity="0.0366586538" offset="22.8845276%"></stop>
            <stop stop-color="#2845FB" offset="50.2340994%"></stop>
            <stop stop-color="#2845FB" stop-opacity="0" offset="100%"></stop>
        </linearGradient>
        <linearGradient x1="100%" y1="72.4361727%" x2="0%" y2="72.4361727%" id="linearGradient-4">
            <stop stop-color="#0A54FF" stop-opacity="0" offset="0%"></stop>
            <stop stop-color="#0A54FF" offset="100%"></stop>
        </linearGradient>
        <linearGradient x1="0%" y1="0%" x2="100%" y2="0%" id="linearGradient-5">
            <stop stop-color="#4BAAE4" stop-opacity="0" offset="0%"></stop>
            <stop stop-color="#4BAAE4" offset="12.7349213%"></stop>
            <stop stop-color="#005174" stop-opacity="0" offset="100%"></stop>
        </linearGradient>
        <linearGradient x1="0%" y1="0%" x2="100%" y2="0%" id="linearGradient-6">
            <stop stop-color="#4BAAE4" stop-opacity="0" offset="0%"></stop>
            <stop stop-color="#4BAAE4" offset="12.7349213%"></stop>
            <stop stop-color="#005174" stop-opacity="0" offset="100%"></stop>
        </linearGradient>
        <linearGradient x1="0%" y1="1.66533454e-14%" x2="99.939%" y2="3.49%" id="linearGradient-7">
            <stop stop-color="#00C0FF" offset="0%"></stop>
            <stop stop-color="#43F0FF" offset="49%"></stop>
            <stop stop-color="#00C0FF" offset="100%"></stop>
        </linearGradient>
    </defs>
    <g id="页面-1" stroke="none" stroke-width="1" fill="none" fill-rule="evenodd">
        <g id="tq_kuang_zuo1">
            <polygon id="路径" fill="url(#linearGradient-1)" points="252 0 0 0 0 32 279 32"></polygon>
            <polygon id="路径" fill="url(#linearGradient-2)" opacity="0.302" points="253.13219 0.134990042 279.289771 31.5596718 477 31.0527092 477 360 0 360 0 0"></polygon>
            <path d="M0.5,0.500268707 L252.896823,0.635873617 L279.05501,32.2516072 L476.5,31.7422914 L476.5,359.503 L0.5,359.503 L0.5,0.500268707 Z" id="路径" stroke="url(#linearGradient-3)"></path>
            <polygon id="路径" fill="url(#linearGradient-4)" opacity="0.302" points="-5.68434189e-14 0 252.544 0 279.544 32 -5.68434189e-14 32"></polygon>
            <path d="M24.275,7.635 L29.784,7.635 C32.067,7.635 33.917,9.466 33.917,11.725 L25.644,23.901 C24.566,24.843 22.419,26.729 20.142,26.7240099 L14.632,26.7240099 C12.35,26.7240099 10.5,24.892 10.5,22.633 L18.765,10.362 C20.853,8.295 21.448,7.635 24.275,7.635 Z" id="路径" fill="#00D4E8"></path>
            <path d="M31.162,4.908 L36.672,4.908 C38.954,4.908 40.804,6.739 40.804,8.998 L32.531,21.174 C31.453,22.116 29.306,24.002 27.03,23.9970099 L21.52,23.9970099 C19.238,23.9970099 17.387,22.165 17.387,19.906 L25.652,7.635 C27.741,5.568 28.335,4.908 31.162,4.908 Z" id="路径" fill="#2845FB" opacity="0.502"></path>
            <polyline id="路径" stroke="url(#linearGradient-5)" points="430.5 26.5 297.5 26.5 283.5 10.5"></polyline>
            <polyline id="路径" stroke="url(#linearGradient-6)" opacity="0.4" points="434.709 19.479 301.01 19.479 288.5 4.5"></polyline>
            <polygon id="路径" fill="#1050D3" opacity="0.2" points="467.237 12.479 462.422 12.479 470.043 23.099 474.858 23.099"></polygon>
            <polygon id="路径" fill="#2563E1" opacity="0.502" points="457.002 12.479 452.187 12.479 459.807 23.099 464.622 23.099"></polygon>
            <polygon id="路径" fill="#4680F5" points="446.767 12.479 441.952 12.479 449.572 23.099 454.387 23.099"></polygon>
            <path d="M184.277,12.756 L184.277,15.221 L181.439,15.221 L181.439,25.892 L178.842,25.892 L178.842,15.221 L175.96,15.221 C175.872,18.565 175.41,22.988 173.474,25.848 C172.989,25.452 171.911,24.792 171.295,24.55 C173.297,21.624 173.474,17.377 173.474,14.275 L173.474,7.784 C176.18,7.278 179.106,6.463 180.889,5.583 L183.089,7.652 C181.021,8.51 178.424,9.192 175.96,9.654 L175.96,12.756 L184.277,12.756 Z M169.579,13.196 C170.393,14.187 172.087,16.497 172.483,17.069 L170.965,19.137 C170.657,18.455 170.129,17.443 169.579,16.475 L169.579,25.892 L167.071,25.892 L167.071,17.355 C166.41,19.225 165.618,20.942 164.738,22.13 C164.496,21.382 163.902,20.347 163.506,19.687 C164.892,17.949 166.124,14.957 166.785,12.36 L164.1,12.36 L164.1,9.896 L167.071,9.896 L167.071,5.363 L169.579,5.363 L169.579,9.896 L172.571,9.896 L172.571,12.36 L169.579,12.36 L169.579,13.196 Z M158.999,14.495 L158.999,14.561 C158.779,21.052 158.515,23.648 157.744,24.55 C157.194,25.254 156.6,25.496 155.764,25.584 C154.972,25.694 153.74,25.694 152.42,25.65 C152.376,24.858 152.046,23.758 151.584,23.01 C152.772,23.12 153.938,23.12 154.466,23.12 C154.862,23.12 155.104,23.054 155.346,22.834 C155.808,22.328 156.028,20.457 156.226,15.991 L151.628,15.991 C151.055,20.149 149.603,23.89 143.948,25.98 C143.64,25.276 142.892,24.22 142.298,23.648 C147.205,22.064 148.371,19.159 148.833,15.991 L145.291,15.991 L145.291,14.693 C144.873,15.155 144.432,15.573 143.97,15.947 C143.486,15.397 142.386,14.341 141.748,13.879 C144.322,12.03 146.545,8.95 147.777,5.671 L150.593,6.441 C149.603,8.994 148.129,11.414 146.479,13.394 L158.074,13.394 C156.424,11.348 154.796,8.906 153.652,6.551 L156.116,5.627 C157.436,8.4 160.077,11.656 162.343,13.526 C161.683,14.033 160.715,15.045 160.231,15.749 C159.835,15.353 159.417,14.935 158.999,14.495 Z M134.182,25.936 C134.072,25.166 133.698,23.978 133.346,23.23 C134.6,23.274 135.832,23.274 136.228,23.274 C136.625,23.274 136.757,23.142 136.757,22.768 L136.757,5.803 L139.353,5.803 L139.353,22.79 C139.353,24.242 139.067,24.968 138.231,25.408 C137.373,25.848 136.074,25.936 134.182,25.936 Z M132.18,8.026 L134.71,8.026 L134.71,20.413 L132.18,20.413 L132.18,8.026 Z M129.474,24.704 C129.033,25.276 128.593,25.474 127.933,25.584 C127.383,25.672 126.481,25.694 125.491,25.672 C125.447,24.902 125.183,23.868 124.787,23.186 C125.557,23.274 126.261,23.274 126.613,23.274 C126.921,23.274 127.075,23.23 127.273,23.01 C127.559,22.636 127.735,21.36 127.867,18.147 L125.733,18.147 C125.293,21.58 124.215,24.286 121.068,26.002 C120.76,25.386 120.056,24.484 119.528,24.044 C122.014,22.702 122.917,20.722 123.291,18.147 L120.21,18.147 L120.21,15.793 L123.489,15.793 C123.511,15.331 123.533,14.869 123.555,14.407 L126.019,14.407 C125.997,14.869 125.975,15.331 125.953,15.793 L130.508,15.793 C130.508,15.793 130.486,16.475 130.464,16.805 C130.266,21.888 130.068,23.978 129.474,24.704 Z M120.804,6.309 L129.958,6.309 L129.958,13.967 L120.804,13.967 L120.804,6.309 Z M123.181,11.634 L127.427,11.634 L127.427,8.62 L123.181,8.62 L123.181,11.634 Z M118.409,23.428 C117.815,23.978 117.089,25.122 116.803,25.892 C112.578,25.298 109.85,23.912 108.002,21.36 C106.747,23.538 104.239,25.056 99.09,25.914 C98.892,25.21 98.254,24.066 97.748,23.472 C102.061,22.878 104.195,21.888 105.317,20.457 L98.276,20.457 L98.276,18.015 L106.351,18.015 C106.461,17.443 106.549,16.849 106.615,16.189 L109.366,16.189 C109.3,16.827 109.234,17.421 109.124,18.015 L117.815,18.015 L117.815,20.457 L110.4,20.457 C112.05,22.174 114.691,23.12 118.409,23.428 Z M116.429,17.003 C114.823,16.123 111.874,14.715 109.3,13.504 L109.3,15.749 L106.659,15.749 L106.659,13.042 C104.789,14.869 102.237,16.277 99.574,17.025 C99.2,16.387 98.452,15.375 97.902,14.869 C100.432,14.297 102.941,13.196 104.679,11.832 L98.474,11.832 L98.474,9.434 L102.567,9.434 C102.127,8.576 101.335,7.52 100.609,6.706 L102.897,5.737 C103.755,6.617 104.745,7.894 105.163,8.774 L103.689,9.434 L106.659,9.434 L106.659,5.385 L109.3,5.385 L109.3,9.434 L112.556,9.434 L110.884,8.862 C111.61,7.96 112.446,6.617 112.908,5.671 L115.725,6.419 C114.867,7.564 113.964,8.642 113.216,9.434 L117.617,9.434 L117.617,11.832 L110.95,11.832 C113.37,12.866 116.121,14.077 117.683,14.913 L116.429,17.003 Z M94.715,25.782 C93.307,24.792 92.14,23.582 91.128,22.108 C90.006,23.67 88.664,24.924 87.146,25.958 C86.772,25.32 86.046,24.44 85.518,24 C87.146,23.01 88.554,21.536 89.742,19.687 C88.444,16.981 87.608,13.725 86.992,10.116 L86.222,10.116 L86.222,7.652 L93.703,7.652 L94.143,7.564 L95.771,7.982 C95.287,12.822 94.231,16.695 92.603,19.797 C93.637,21.448 94.913,22.79 96.497,23.758 C95.925,24.198 95.133,25.122 94.715,25.782 Z M93.043,10.116 L89.28,10.116 C89.72,12.58 90.314,14.891 91.15,16.937 C92.008,14.935 92.647,12.646 93.043,10.116 Z M84.791,19.467 L86.486,19.225 L86.618,21.404 L84.791,21.734 L84.791,25.87 L82.239,25.87 L82.239,22.196 C80.083,22.57 78.036,22.922 76.32,23.186 L75.814,20.722 C76.232,20.678 76.738,20.612 77.266,20.546 L77.266,8.576 L76.056,8.576 L76.056,6.243 L86.068,6.243 L86.068,8.576 L84.791,8.576 L84.791,19.467 Z M82.239,8.576 L79.775,8.576 L79.775,10.82 L82.239,10.82 L82.239,8.576 Z M82.239,13.042 L79.775,13.042 L79.775,15.441 L82.239,15.441 L82.239,13.042 Z M82.239,17.663 L79.775,17.663 L79.775,20.193 L82.239,19.841 L82.239,17.663 Z M70.096,23.34 C70.845,23.34 73.573,23.34 74.519,23.318 C74.211,23.846 73.903,24.946 73.815,25.606 L69.986,25.606 C67.104,25.606 64.882,25.078 63.385,22.416 C62.813,23.802 62.043,24.968 61.075,25.87 C60.679,25.452 59.689,24.638 59.161,24.308 C60.987,22.856 61.889,20.413 62.219,17.421 L64.596,17.707 C64.486,18.499 64.354,19.247 64.178,19.929 C64.662,21.206 65.3,21.998 66.092,22.504 L66.092,16.761 L60.921,16.761 L60.921,14.649 L73.925,14.649 L73.925,16.761 L68.556,16.761 L68.556,18.697 L72.759,18.697 L72.759,20.744 L68.556,20.744 L68.556,23.274 C69.062,23.318 69.546,23.34 70.096,23.34 Z M61.999,6.045 L72.825,6.045 L72.825,13.637 L61.999,13.637 L61.999,6.045 Z M64.398,11.788 L70.316,11.788 L70.316,10.666 L64.398,10.666 L64.398,11.788 Z M64.398,8.972 L70.316,8.972 L70.316,7.872 L64.398,7.872 L64.398,8.972 Z M60.525,14.671 L60.877,17.025 L58.545,17.729 L58.545,22.856 C58.545,24.066 58.347,24.704 57.687,25.1 C57.027,25.54 56.058,25.628 54.65,25.606 C54.584,24.968 54.298,23.89 53.968,23.208 C54.782,23.23 55.53,23.23 55.794,23.208 C56.058,23.208 56.168,23.12 56.168,22.834 L56.168,18.433 C55.442,18.631 54.782,18.829 54.144,19.005 L53.55,16.475 C54.298,16.321 55.178,16.079 56.168,15.837 L56.168,11.942 L53.792,11.942 L53.792,9.522 L56.168,9.522 L56.168,5.363 L58.545,5.363 L58.545,9.522 L60.745,9.522 L60.745,11.942 L58.545,11.942 L58.545,15.199 L60.525,14.671 Z" id="形状" fill="url(#linearGradient-7)" fill-rule="nonzero"></path>
        </g>
    </g>
</svg>